<svg id="圖層_1" data-name="圖層 1" xmlns="http://www.w3.org/2000/svg" viewBox="0 0 157.45 155.13"><defs><style>.cls-1{fill:#bfe0f6;}.cls-2{fill:#9ad67f;}</style></defs><path class="cls-1" d="M9.25,21.37,0,16V5.34L9.25,0l9.26,5.34V16Zm-4.8-7.91,4.8,2.78,4.81-2.78V7.91L9.25,5.13,4.45,7.91Z"/><path class="cls-1" d="M9.25,155.13,0,149.79V139.1l9.25-5.34,9.26,5.34v10.69Zm-4.8-7.91L9.25,150l4.81-2.78v-5.55l-4.81-2.78-4.8,2.78Z"/><path class="cls-1" d="M143.39,143.34H15.57V15.52H143.39ZM20,138.9H138.94V20H20Z"/><path class="cls-1" d="M148.2,21.37,138.94,16V5.34L148.2,0l9.25,5.34V16Zm-4.81-7.91,4.81,2.78L153,13.46V7.91L148.2,5.13l-4.81,2.78Z"/><path class="cls-1" d="M148.2,155.13l-9.26-5.34V139.1l9.26-5.34,9.25,5.34v10.69Zm-4.81-7.91L148.2,150l4.81-2.78v-5.55l-4.81-2.78-4.81,2.78Z"/><path class="cls-1" d="M98,142.14l-3.95-2c.1-.21,10.74-21.2,5.22-37.72-2.26-6.75-7-11.91-14-15.32C56,72.94,19.71,108,19.35,108.35l-3.11-3.17A116.75,116.75,0,0,1,39.29,88.35c18-9.91,34.52-11.74,47.87-5.29,8.18,4,13.67,10,16.32,17.93C109.59,119.29,98.46,141.21,98,142.14Z"/><circle class="cls-2" cx="106.76" cy="55.67" r="34.41"/><path class="cls-1" d="M106.75,92.47a36.8,36.8,0,1,1,36.8-36.8A36.84,36.84,0,0,1,106.75,92.47Zm0-68.82a32,32,0,1,0,32,32A32.06,32.06,0,0,0,106.75,23.65Z"/></svg>