<svg id="圖層_1" data-name="圖層 1" xmlns="http://www.w3.org/2000/svg" viewBox="0 0 157.45 155.13"><defs><style>.cls-1{fill:#bfe0f6;}.cls-2{fill:#bacece;}</style></defs><path class="cls-1" d="M9.25,21.37,0,16V5.34L9.25,0l9.26,5.34V16Zm-4.8-7.91,4.8,2.78,4.81-2.78V7.91L9.25,5.13,4.45,7.91Z"/><path class="cls-1" d="M9.25,155.13,0,149.79V139.1l9.25-5.34,9.26,5.34v10.69Zm-4.8-7.91L9.25,150l4.81-2.78v-5.55l-4.81-2.78-4.8,2.78Z"/><path class="cls-1" d="M143.39,143.34H15.57V15.52H143.39ZM20,138.9H138.94V20H20Z"/><path class="cls-1" d="M148.2,21.37,138.94,16V5.34L148.2,0l9.25,5.34V16Zm-4.81-7.91,4.81,2.78,4.8-2.78V7.91l-4.8-2.78-4.81,2.78Z"/><path class="cls-1" d="M148.2,155.13l-9.26-5.34V139.1l9.26-5.34,9.25,5.34v10.69Zm-4.81-7.91L148.2,150l4.8-2.78v-5.55l-4.8-2.78-4.81,2.78Z"/><path class="cls-2" d="M138.5,76.06a12.7,12.7,0,0,0-7-21.65l-20.53-3a12.72,12.72,0,0,1-9.56-6.94L92.19,25.88a12.69,12.69,0,0,0-22.76,0L60.24,44.49a12.68,12.68,0,0,1-9.55,6.94l-20.53,3a12.69,12.69,0,0,0-7,21.65L38,90.55a12.67,12.67,0,0,1,3.65,11.23l-3.51,20.45a12.69,12.69,0,0,0,18.42,13.38L74.9,126a12.67,12.67,0,0,1,11.82,0l18.36,9.65a12.69,12.69,0,0,0,18.42-13.38L120,101.78a12.67,12.67,0,0,1,3.65-11.23Zm-35.37,12a9.72,9.72,0,0,1-4.86,8.41L85.66,103.8a9.71,9.71,0,0,1-9.7,0L63.35,96.52a9.7,9.7,0,0,1-4.86-8.41V73.55a9.69,9.69,0,0,1,4.86-8.4L76,57.87a9.66,9.66,0,0,1,9.7,0l12.61,7.28a9.71,9.71,0,0,1,4.86,8.4Z"/><path class="cls-1" d="M50.62,139.31a15,15,0,0,1-14.69-17.46l3.51-20.44a10.49,10.49,0,0,0-3-9.27L21.57,77.66a14.92,14.92,0,0,1,8.27-25.45l20.53-3a10.45,10.45,0,0,0,7.88-5.73l9.18-18.6a14.91,14.91,0,0,1,26.75,0l9.19,18.6a10.45,10.45,0,0,0,7.88,5.73l20.53,3a14.93,14.93,0,0,1,8.27,25.45L125.19,92.14a10.47,10.47,0,0,0-3,9.27l3.51,20.44a14.92,14.92,0,0,1-21.64,15.73l-18.37-9.66a10.48,10.48,0,0,0-9.74,0l-18.37,9.66A14.87,14.87,0,0,1,50.62,139.31ZM80.81,21a10.26,10.26,0,0,0-9.39,5.84l-9.18,18.6A14.92,14.92,0,0,1,51,53.63l-20.54,3a10.47,10.47,0,0,0-5.8,17.86L39.53,89a14.92,14.92,0,0,1,4.29,13.21l-3.51,20.45a10.47,10.47,0,0,0,15.19,11L73.87,124a14.88,14.88,0,0,1,13.88,0l18.37,9.65a10.47,10.47,0,0,0,15.19-11l-3.51-20.45A14.92,14.92,0,0,1,122.09,89L137,74.47a10.48,10.48,0,0,0-5.81-17.86l-20.53-3a14.92,14.92,0,0,1-11.23-8.16L90.2,26.87A10.28,10.28,0,0,0,80.81,21Zm0,86.29a11.88,11.88,0,0,1-6-1.6l-12.6-7.27a12,12,0,0,1-6-10.34V73.55a12,12,0,0,1,6-10.33l12.6-7.28a12,12,0,0,1,11.93,0l12.61,7.28a12,12,0,0,1,6,10.33V88.11a12,12,0,0,1-6,10.33l-12.61,7.29A11.94,11.94,0,0,1,80.81,107.32Zm0-48.53a7.54,7.54,0,0,0-3.74,1L64.46,67.07a7.51,7.51,0,0,0-3.74,6.48V88.11a7.52,7.52,0,0,0,3.74,6.49l12.61,7.27a7.46,7.46,0,0,0,7.48,0l12.61-7.28a7.49,7.49,0,0,0,3.74-6.48V73.55a7.51,7.51,0,0,0-3.74-6.48L84.55,59.79A7.54,7.54,0,0,0,80.81,58.79Z"/></svg>