<?xml version="1.0" encoding="utf-8"?>
<!-- Generator: Adobe Illustrator 27.3.1, SVG Export Plug-In . SVG Version: 6.00 Build 0)  -->
<svg version="1.1" xmlns="http://www.w3.org/2000/svg" xmlns:xlink="http://www.w3.org/1999/xlink" x="0px" y="0px"
	 viewBox="0 0 841.9 595.3" style="enable-background:new 0 0 841.9 595.3;" xml:space="preserve">
<style type="text/css">
	.st0{fill:#3B9838;}
	.st1{fill:none;stroke:#FFFFFF;stroke-width:2;stroke-linecap:round;stroke-linejoin:bevel;}
	.st2{opacity:0.73;}
	.st3{fill:#A0A0A0;stroke:#FFFFFF;stroke-width:2;stroke-linecap:round;stroke-linejoin:bevel;}
	.st4{font-family:'SourceHanSansTC-Bold-B5pc-H';}
	.st5{font-size:11.9307px;}
	.st6{font-family:'MicrosoftJhengHeiBold';}
	.st7{font-size:11px;}
	.st8{fill:none;stroke:#B3B3B3;stroke-width:4.4344;stroke-linecap:round;stroke-miterlimit:10;}
	.st9{fill:#E6E6E6;}
	.st10{fill:#FFFEFF;}
	.st11{fill:#B3B3B3;}
	.st12{fill:none;stroke:#B3B3B3;stroke-width:4.4344;stroke-miterlimit:10;}
	.st13{fill:none;stroke:#FFFEFF;stroke-width:3;stroke-miterlimit:10;}
	.st14{font-size:28px;}
	.st15{font-size:15.0749px;}
	.st16{font-size:17.1823px;}
	.st17{fill:#6B6B6B;}
	.st18{font-size:12.5698px;}
	.st19{fill:none;}
	.st20{font-family:'MicrosoftJhengHeiRegular';}
	.st21{font-size:9px;}
	.st22{font-size:25.6922px;}
	.st23{font-size:38px;}
	.st24{fill:#12344C;}
	.st25{fill:#E98025;}
	.st26{fill:#808080;}
	.st27{fill:#FFE9BA;}
	.st28{fill:#3E3D4D;}
	.st29{fill:#BCC4C6;}
	.st30{fill:#D24635;}
	.st31{fill:#FCF3EE;}
	.st32{fill:#E8C72E;}
	.st33{fill:#E0A911;}
	.st34{fill:#0071BC;}
	.st35{opacity:0.2;fill:none;stroke:#70931B;stroke-width:2;stroke-miterlimit:10;stroke-dasharray:4,4;}
	.st36{opacity:0.2;fill:none;stroke:#70931B;stroke-width:1.78;stroke-miterlimit:10;stroke-dasharray:3.56,3.56;}
	.st37{clip-path:url(#SVGID_00000116235899377079569350000006516709734991930510_);}
	.st38{clip-path:url(#SVGID_00000082359745905272051620000006418669489479395245_);fill:#00943C;}
	.st39{clip-path:url(#SVGID_00000021105372847937966880000012740964785195297152_);}
	.st40{clip-path:url(#SVGID_00000167369448320899963290000016326896557966812589_);fill:#00943C;}
	.st41{clip-path:url(#SVGID_00000065754229748561017880000001750642146735853441_);}
	.st42{clip-path:url(#SVGID_00000066475379389231536080000002850094368953327548_);fill:#00943C;}
	.st43{clip-path:url(#SVGID_00000094592243766573082450000006844228935637513638_);}
	.st44{clip-path:url(#SVGID_00000104677529584550640940000013691556879143447941_);fill:#00943C;}
	.st45{clip-path:url(#SVGID_00000089536785445478875260000006789167704233090226_);}
	.st46{clip-path:url(#SVGID_00000095320335071047155300000004676635326269347511_);fill:#00943C;}
	.st47{clip-path:url(#SVGID_00000112593372897195231220000003602025270202887353_);}
	.st48{clip-path:url(#SVGID_00000121262508384376482880000002362859019731855777_);fill:#00943C;}
	.st49{clip-path:url(#SVGID_00000057108276579308368460000010647964525919307183_);}
	.st50{clip-path:url(#SVGID_00000163073443030710835710000000804918227995844009_);fill:#00943C;}
	.st51{clip-path:url(#SVGID_00000093855509918871478340000006993117372884555702_);}
	.st52{clip-path:url(#SVGID_00000049903738056976663310000006220706132105436803_);fill:#00943C;}
	.st53{opacity:0.1;fill:#70931B;}
	.st54{fill:none;stroke:#FFFEFF;stroke-miterlimit:10;}
	.st55{fill:#FFFFFF;}
	.st56{fill:none;stroke:#FFFFFF;stroke-width:1.8113;}
	.st57{fill:#C1272D;}
	.st58{fill:#30AF00;}
	.st59{fill:#0076CB;}
	.st60{fill:#008061;}
	.st61{fill:#F5821F;}
	.st62{fill:#ED1B2D;}
	.st63{fill:#FF0000;}
	.st64{opacity:0.5;fill:url(#SVGID_00000176009306868931123620000013847154199444360383_);}
	.st65{opacity:0.5;fill:url(#SVGID_00000140713237330378628340000007119775565581260178_);}
	.st66{opacity:0.8;}
	.st67{fill-rule:evenodd;clip-rule:evenodd;fill:#D5E7D0;}
	.st68{fill:none;stroke:#040000;stroke-width:0.75;stroke-linejoin:round;stroke-miterlimit:8;}
	.st69{opacity:0;fill-rule:evenodd;clip-rule:evenodd;fill:#040000;}
	.st70{fill:#040000;}
	.st71{fill-rule:evenodd;clip-rule:evenodd;fill:#8FCFC9;}
	.st72{fill-rule:evenodd;clip-rule:evenodd;fill:#F2EA32;}
	.st73{fill-rule:evenodd;clip-rule:evenodd;fill:#040000;}
	.st74{fill-rule:evenodd;clip-rule:evenodd;fill:#FFFFFF;}
	.st75{opacity:0;fill-rule:evenodd;clip-rule:evenodd;}
	.st76{fill:none;stroke:#000000;stroke-width:0.75;stroke-linejoin:round;stroke-miterlimit:8;}
	.st77{fill-rule:evenodd;clip-rule:evenodd;fill:#D9EAD3;}
	.st78{opacity:0;fill-rule:evenodd;clip-rule:evenodd;stroke:#000000;stroke-width:0.75;stroke-miterlimit:10;}
	.st79{fill-rule:evenodd;clip-rule:evenodd;fill:#FCFCFC;stroke:#000000;stroke-width:0.75;stroke-miterlimit:10;}
	.st80{fill:none;stroke:#000000;stroke-width:0.5;stroke-linejoin:round;stroke-miterlimit:8;}
	.st81{fill-rule:evenodd;clip-rule:evenodd;fill:none;stroke:#000000;stroke-width:0.5;stroke-linejoin:round;stroke-miterlimit:8;}
	.st82{fill-rule:evenodd;clip-rule:evenodd;fill:#FFFFFF;stroke:#000000;stroke-width:0.5;stroke-miterlimit:10;}
	.st83{fill-rule:evenodd;clip-rule:evenodd;fill:#D5E7D0;stroke:#000000;stroke-width:0.5;stroke-miterlimit:10;}
	.st84{fill-rule:evenodd;clip-rule:evenodd;fill:#F2EA32;stroke:#000000;stroke-width:0.5;stroke-miterlimit:10;}
	.st85{opacity:0;fill-rule:evenodd;clip-rule:evenodd;fill:#040000;stroke:#000000;stroke-width:0.5;stroke-miterlimit:10;}
	.st86{fill:#D5E7D0;stroke:#000000;stroke-width:0.5;stroke-miterlimit:10;}
	.st87{fill-rule:evenodd;clip-rule:evenodd;fill:#FCFDFD;stroke:#000000;stroke-width:0.5;stroke-miterlimit:10;}
	
		.st88{fill-rule:evenodd;clip-rule:evenodd;fill:none;stroke:#040000;stroke-width:0.75;stroke-linejoin:round;stroke-miterlimit:8;}
	
		.st89{opacity:0;fill-rule:evenodd;clip-rule:evenodd;fill:none;stroke:#040000;stroke-width:0.75;stroke-linejoin:round;stroke-miterlimit:8;}
	.st90{fill:#D5E7D0;stroke:#040000;stroke-width:0.75;stroke-miterlimit:10;}
	.st91{opacity:0;fill-rule:evenodd;clip-rule:evenodd;fill:#040000;stroke:#040000;stroke-width:0.75;stroke-miterlimit:10;}
	.st92{fill-rule:evenodd;clip-rule:evenodd;fill:#FFFFFF;stroke:#040000;stroke-width:0.75;stroke-miterlimit:10;}
	.st93{fill-rule:evenodd;clip-rule:evenodd;fill:#FCFDFD;}
	.st94{fill-rule:evenodd;clip-rule:evenodd;fill:#D5E7D0;stroke:#040000;stroke-width:0.75;stroke-miterlimit:10;}
	.st95{fill-rule:evenodd;clip-rule:evenodd;fill:#FCFDFD;stroke:#040000;stroke-width:0.75;stroke-miterlimit:10;}
	.st96{clip-path:url(#SVGID_00000128462045847419178720000000568468252103647376_);}
	.st97{clip-path:url(#SVGID_00000052095140333394200810000006416796513855997330_);fill:#00943C;}
	.st98{clip-path:url(#SVGID_00000049933468671351330900000007037138097647453838_);}
	.st99{clip-path:url(#SVGID_00000098203859181470278210000018141166847777361573_);fill:#00943C;}
	.st100{clip-path:url(#SVGID_00000086689722208037118950000003449947093080472711_);}
	.st101{clip-path:url(#SVGID_00000082366056737166353070000009761881910699876488_);fill:#00943C;}
	.st102{display:none;}
	.st103{display:inline;fill:none;stroke:#F90000;stroke-width:8;stroke-miterlimit:10;}
	.st104{display:inline;}
	.st105{display:inline;fill:none;stroke:#000000;stroke-miterlimit:10;}
	.st106{display:inline;fill:#F90000;}
	.st107{display:inline;fill:none;stroke:#F90000;stroke-width:3;stroke-miterlimit:10;}
	.st108{display:inline;fill:none;stroke:#232323;stroke-miterlimit:10;}
	.st109{display:inline;fill:none;stroke:#F90000;stroke-miterlimit:10;}
	.st110{display:inline;fill:none;stroke:#B3B3B3;stroke-width:4.4344;stroke-linecap:round;stroke-miterlimit:10;}
	.st111{display:inline;fill:#E6E6E6;}
	.st112{display:inline;fill:#FFFEFF;}
	.st113{display:inline;fill:#B3B3B3;}
	.st114{display:inline;fill:none;stroke:#B3B3B3;stroke-width:4.4344;stroke-miterlimit:10;}
	.st115{display:inline;opacity:0.2;fill:none;stroke:#70931B;stroke-width:2;stroke-miterlimit:10;stroke-dasharray:4,4;}
</style>
<g id="建築">
	<g>
		<g>
			<g>
				<g id="blender_frame_1_00000010270185801676303660000016250783736411993526_">
					<g id="blender_object_LineArt_00000091723419229674601730000001717151108598293693_">
						<g id="Lines_00000028295187582371730280000000208479318405352600_">
							<polygon class="st0" points="775.7,296.1 775.7,370 739.9,389.1 709.2,405.6 709.2,408.6 696.9,415.1 693.7,413.9 
								671.3,405.4 671.3,331.6 712.2,309.7 712.2,304.8 748,285.7 							"/>
							<polygon class="st0" points="593.2,228 593.2,300.4 584.3,305.1 584.3,306.9 575.4,311.7 573.4,311 569.9,312.8 569,313.3 
								559.9,318.2 537.8,309.8 530,313.9 530,320.4 530,320.6 529.8,320.8 529.6,320.9 529.2,321 528.9,321.1 513.6,322.3 
								508.9,324.8 508.5,325 508.1,325.1 507.7,325.2 507.3,325.3 506.8,325.4 506.3,325.4 505.8,325.4 505.4,325.4 504.9,325.3 
								504.4,325.2 504,325.1 503.6,325 502.2,324.5 501.3,324.2 500.7,323.9 500.6,323.9 500.3,323.8 499.3,323.4 498.2,323 
								497.2,322.6 496.3,322.3 495.6,322 495.1,321.8 495,321.8 494.6,321.6 494.3,321.4 494,321.2 493.9,321 493.7,320.8 
								493.6,320.6 493.6,320.4 493.6,302.6 493.7,302.4 493.8,302.1 494,301.9 494.2,301.7 494.6,301.5 494.8,301.4 495.2,301.2 
								495.6,301 496.1,300.7 496.7,300.4 497.2,300.1 497.7,299.9 498.1,299.6 498.5,299.4 498.8,299.3 499.9,291.6 500.1,291.4 
								500.4,291.2 500.9,291.1 501.2,291.1 502.9,291.1 504.6,291.2 506.3,291.3 508,291.4 509.6,291.6 511.2,291.8 512.8,292.1 
								513,292.2 463.9,273.6 463.9,201.2 484.1,190.4 545.8,213.7 549.8,211.6 							"/>
						</g>
					</g>
				</g>
			</g>
			<g>
				<g id="blender_frame_1_00000045598147341494512380000004374608317191383439_">
					<g id="blender_object_LineArt_00000024709517522804064660000015940115279776374929_">
						<g id="Lines_00000018223968003136195480000014679658987989955726_">
							<line class="st1" x1="516.4" y1="293" x2="516.4" y2="237"/>
							<polyline class="st1" points="537.8,309.8 559.9,318.2 569,313.3 569.9,312.8 573.4,311 575.4,311.7 584.3,306.9 
								584.3,305.1 584.3,234.5 							"/>
							<polyline class="st1" points="513,292.2 513,292.2 463.9,273.6 463.9,201.2 							"/>
							<polyline class="st1" points="593.2,228 593.2,300.4 584.3,305.1 							"/>
							<line class="st1" x1="573.4" y1="311" x2="573.4" y2="238.6"/>
							<line class="st1" x1="559.9" y1="318.2" x2="559.9" y2="245.8"/>
							<polygon class="st1" points="582.3,233.8 584.3,234.5 575.4,239.3 573.4,238.6 569.9,240.4 569,240.9 559.9,245.8 
								537.8,237.4 529.4,241.9 516.4,237 524.7,232.5 533.8,227.6 525.6,224.5 463.9,201.2 484.1,190.4 545.8,213.7 549.8,211.6 
								593.2,228 							"/>
							<line class="st1" x1="537.8" y1="309.8" x2="537.8" y2="237.4"/>
							<line class="st1" x1="537.8" y1="309.8" x2="530" y2="313.9"/>
							<line class="st1" x1="529.4" y1="301" x2="529.4" y2="241.9"/>
							<line class="st1" x1="575.4" y1="239.3" x2="575.4" y2="311.7"/>
							<polygon class="st1" points="739.9,315.3 705.9,333.5 709.2,334.8 696.9,341.3 693.7,340.1 671.3,331.6 712.2,309.7 
								717.6,306.8 712.2,304.8 748,285.7 775.7,296.1 							"/>
							<polyline class="st1" points="696.9,415.1 693.7,413.9 671.3,405.4 671.3,331.6 							"/>
							<line class="st1" x1="712.2" y1="309.7" x2="712.2" y2="304.8"/>
							<polyline class="st1" points="775.7,296.1 775.7,370 739.9,389.1 709.2,405.6 							"/>
							<polyline class="st1" points="696.9,415.1 709.2,408.6 709.2,405.6 709.2,334.8 							"/>
							<line class="st1" x1="696.9" y1="415.1" x2="696.9" y2="341.3"/>
							<polyline class="st1" points="495,303.9 495.1,304 495.6,304.2 496.3,304.4 497.2,304.8 498.2,305.2 499.3,305.6 500.3,306 
								501.3,306.3 502.2,306.7 502.9,306.9 503.4,307.1 503.6,307.2 495,303.9 							"/>
							<polyline class="st1" points="495.6,304.2 503.6,307.2 495.1,304 							"/>
							<polyline class="st1" points="497.2,304.8 503.6,307.2 496.3,304.4 							"/>
							<polyline class="st1" points="499.3,305.6 503.6,307.2 498.2,305.2 							"/>
							<polyline class="st1" points="500.3,306 503.6,307.2 501.3,306.3 							"/>
							<polyline class="st1" points="502.9,306.9 503.6,307.2 502.2,306.7 							"/>
							<polyline class="st1" points="495,321.8 494.6,321.6 494.3,321.4 494,321.2 493.9,321 493.7,320.8 493.6,320.6 493.6,320.4 
								493.6,302.6 493.7,302.4 493.8,302.1 494,301.9 494.2,301.7 494.6,301.5 494.8,301.4 495.2,301.2 495.6,301 496.1,300.7 
								496.7,300.4 497.2,300.1 497.7,299.9 498.1,299.6 498.5,299.4 498.8,299.3 499.9,291.6 500.1,291.4 500.4,291.2 500.9,291.1 
								501.2,291.1 502.9,291.1 504.6,291.2 506.3,291.3 508,291.4 509.6,291.6 511.2,291.8 512.8,292.1 514.3,292.4 515.8,292.8 
								517.2,293.2 518.6,293.6 519.9,294.1 521.3,294.7 522.6,295.2 523.8,295.9 524.9,296.5 525.9,297.2 526.8,297.9 527.6,298.7 
								528.3,299.4 528.9,300.2 529.4,301 529.7,301.8 530,302.6 530,320.4 530,320.6 529.8,320.8 529.6,320.9 529.2,321 
								528.9,321.1 513.6,322.3 508.9,324.8 508.5,325 508.1,325.1 507.7,325.2 507.3,325.3 506.8,325.4 506.3,325.4 505.8,325.4 
								505.4,325.4 504.9,325.3 504.4,325.2 504,325.1 503.6,325 503.4,324.9 502.9,324.8 502.2,324.5 501.3,324.2 500.3,323.8 
								499.3,323.4 498.2,323 497.2,322.6 496.3,322.3 495.6,322 495.1,321.8 495,321.8 503.6,325 							"/>
							<polyline class="st1" points="495.6,322 503.6,325 495.1,321.8 							"/>
							<polyline class="st1" points="497.2,322.6 503.6,325 496.3,322.3 							"/>
							<polyline class="st1" points="498.2,323 503.6,325 499.3,323.4 							"/>
							<polyline class="st1" points="501.3,324.2 503.6,325 500.3,323.8 							"/>
							<polyline class="st1" points="502.2,324.5 503.6,325 502.9,324.8 							"/>
							<polyline class="st1" points="530,302.6 529.9,302.8 529.7,303 529.5,303.1 529.2,303.2 528.9,303.3 513.6,304.4 508.9,307 
								508.5,307.1 508.1,307.3 507.7,307.4 507.3,307.5 506.8,307.5 506.3,307.6 505.8,307.6 505.4,307.5 504.9,307.5 504.4,307.4 
								504,307.3 503.6,307.2 							"/>
							<line class="st1" x1="513.6" y1="304.4" x2="513.6" y2="322.3"/>
							<polyline class="st1" points="495,303.9 494.6,303.8 494.3,303.6 494,303.4 493.9,303.2 493.7,303 493.6,302.8 493.6,302.6 
															"/>
							<polyline class="st1" points="495.1,304 495.6,304.2 496.3,304.4 497.2,304.8 498.2,305.2 499.3,305.6 500.3,306 
								501.3,306.3 502.2,306.7 502.9,306.9 503.4,307.1 							"/>
							<polyline class="st1" points="495.1,321.8 495.6,322 496.3,322.3 497.2,322.6 498.2,323 499.3,323.4 500.3,323.8 
								501.3,324.2 502.2,324.5 502.9,324.8 503.4,324.9 							"/>
						</g>
					</g>
				</g>
			</g>
			<g class="st2">
				<g>
					<g id="blender_frame_1_00000085959295004458614930000004355090862660118961_">
						<g id="blender_object_LineArt_00000159471591158041559020000012512754622882125996_">
							<g id="Lines_00000072976030498804754510000012354613188961850270_">
								<polygon class="st3" points="672.2,331 670.8,330.5 662.6,327.4 655.3,324.6 649.5,322.4 645.6,321 644.2,320.5 
									641.1,319.4 637.7,318.6 634.1,318 630.5,317.6 626.8,317.4 623,317.5 619.4,317.7 615.8,318.2 612.3,318.8 609.1,319.7 
									606.1,320.8 603.3,322.1 601,323.5 599.2,325 597.8,326.6 596.9,328.3 596.6,329.9 596.6,333.6 596.6,335.3 597.2,336.9 
									598.2,338.5 599.7,340.1 601.7,341.5 604.1,342.9 606.9,344.1 671.3,368.4 								"/>
								<polygon class="st3" points="613.3,266.4 613.3,306.8 548.8,341.3 548.8,300.9 559.9,295 573.4,287.8 575.4,286.7 
									584.3,281.9 593.2,277.1 								"/>
								<polygon class="st3" points="613.3,266.4 593.2,277.1 584.3,281.9 575.4,286.7 573.4,287.8 559.9,295 548.8,300.9 
									537.8,296.8 532.6,294.8 537.8,292 559.9,280.2 573.4,273 575.4,271.9 584.3,267.1 593.2,262.3 597.1,260.3 								"/>
								<polygon class="st3" points="548.8,300.9 548.8,341.3 546.3,340.3 546.3,324.3 532.6,319.2 532.6,294.8 537.8,296.8 
																	"/>
								<polyline class="st3" points="546.3,340.3 546.3,342.7 527.4,352.7 420.9,312.5 420.9,294.2 								"/>
								<line class="st3" x1="527.4" y1="352.7" x2="527.4" y2="334.4"/>
								<polyline class="st3" points="574,339.1 625.4,358.6 625.4,362.2 599.8,375.9 548.3,356.5 548.3,352.9 574,339.1 								
									"/>
								<polyline class="st3" points="548.3,352.9 599.8,372.3 625.4,358.6 								"/>
								<line class="st3" x1="599.8" y1="372.3" x2="599.8" y2="375.9"/>
								<polygon class="st3" points="671.3,375.9 639.4,363.8 613.8,377.6 613.8,381.2 665.2,400.7 671.3,397.4 								"/>
								<polyline class="st3" points="671.3,393.8 665.2,397 613.8,377.6 								"/>
								<line class="st3" x1="665.2" y1="397" x2="665.2" y2="400.7"/>
								<polyline class="st3" points="596.6,329.9 596.6,331.6 597.2,333.2 598.2,334.9 599.7,336.4 601.7,337.9 604.1,339.2 
									606.9,340.5 671.3,364.8 								"/>
								<polyline class="st3" points="426.9,291 424,290 426.9,291 								"/>
								<line class="st3" x1="445.6" y1="286.4" x2="445.6" y2="250.2"/>
								<line class="st3" x1="463.4" y1="246.7" x2="463.4" y2="240.7"/>
								<polygon class="st3" points="501.6,238.8 483.8,248.4 466,257.8 463.9,257 452.3,252.7 463.4,246.7 463.9,246.5 470,243.2 
									463.9,240.8 463.4,240.7 445.6,250.2 424,242 463.9,220.7 463.9,224.6 481.2,231.1 484.4,232.4 484.4,232.4 								"/>
								<line class="st3" x1="424" y1="290" x2="424" y2="242"/>
								<polygon class="st3" points="546.3,324.3 527.4,334.4 420.9,294.2 426.9,291 439.8,284.1 445.6,286.4 452.3,288.9 
									466,294.1 478.9,298.9 493.6,304.5 513.6,312 530,318.2 532.6,319.2 								"/>
							</g>
						</g>
					</g>
				</g>
				<g>
					<g id="blender_frame_1_00000084532005374841841250000014128523941373804163_">
						<g id="blender_object_LineArt_00000168802075726661798590000002759569724101236661_">
							<g id="Lines_00000053530099980200424770000001418075322479963777_">
								<polyline class="st3" points="500.6,287.3 501.6,286.8 501.6,238.8 484.4,232.4 484.4,232.4 481.2,231.1 463.9,224.6 
																	"/>
								<polygon class="st3" points="501.6,238.8 501.6,286.8 500.6,287.3 483.8,296.3 478.9,298.9 466,294.1 466,257.8 
									483.8,248.4 								"/>
								<polygon class="st3" points="466,257.8 466,294.1 452.3,288.9 452.3,252.7 463.9,257 								"/>
								<polyline class="st3" points="463.5,246.5 463.4,240.8 470,243.2 								"/>
							</g>
						</g>
					</g>
					<polygon class="st3" points="445.1,286.1 452.3,288.9 452.3,252.7 463.4,246.7 463.4,240.7 445.6,250.2 					"/>
				</g>
				<polygon class="st3" points="424,242 424,290 426.9,291 439.8,284.1 445.6,286.4 445.6,250.2 				"/>
			</g>
			<polygon class="st0" points="537.2,372.7 517.2,385.1 496.4,376.5 517,365.1 			"/>
		</g>
		<text transform="matrix(1 0 0 1 572.9264 214.7446)" class="st0 st4 st5">RB105</text>
		<text transform="matrix(1 0 0 1 434.8399 339.9858)" class="st0 st4 st5">AU視聽室</text>
		<text transform="matrix(1 0 0 1 537.7531 386.1137)" class="st0 st4 st5">攤商</text>
		<text transform="matrix(1 0 0 1 724.8834 274.8481)" class="st0 st4 st5">TR研揚大樓</text>
		<text transform="matrix(1 0 0 1 538.4578 399.5113)" class="st0 st6 st7">Vendor</text>
	</g>
	<g>
		<text transform="matrix(1 0 0 1 30.5303 95.849)" class="st0 st4 st14">RB105</text>
	</g>
	<g>
		<text transform="matrix(1 0 0 1 30.5303 65.175)" class="st0 st4 st15">綜合研究大樓</text>
	</g>
	<g>
		<g>
			<g>
				<path d="M147.2,96.4c-0.1-1-0.1-2.3-0.1-3.2h0c-0.3,0.9-0.6,1.8-0.9,2.9l-1.3,3.7H144l-1.2-3.6c-0.4-1.1-0.7-2-0.9-2.9h0
					c0,0.9-0.1,2.2-0.1,3.3l-0.2,3.2h-0.9l0.5-7.5h1.2l1.3,3.6c0.3,0.9,0.6,1.8,0.8,2.5h0c0.2-0.8,0.5-1.6,0.8-2.5l1.3-3.6h1.2
					l0.5,7.5h-1L147.2,96.4z"/>
				<path d="M152.8,99.7l-0.1-0.7h0c-0.3,0.4-0.9,0.8-1.7,0.8c-1.1,0-1.7-0.8-1.7-1.5c0-1.3,1.2-2,3.2-2v-0.1c0-0.4-0.1-1.3-1.2-1.2
					c-0.5,0-1,0.1-1.4,0.4l-0.2-0.7c0.4-0.3,1.1-0.5,1.8-0.5c1.7,0,2.1,1.1,2.1,2.2v2c0,0.5,0,0.9,0.1,1.3H152.8z M152.6,97
					c-1.1,0-2.3,0.2-2.3,1.2c0,0.6,0.4,0.9,0.9,0.9c0.7,0,1.2-0.4,1.3-0.9c0-0.1,0-0.2,0-0.3V97z"/>
				<path d="M156.3,92.8c0,0.3-0.2,0.6-0.6,0.6c-0.4,0-0.6-0.3-0.6-0.6c0-0.3,0.3-0.6,0.6-0.6C156,92.2,156.3,92.5,156.3,92.8z
					 M155.2,99.7v-5.4h1v5.4H155.2z"/>
				<path d="M157.8,95.8c0-0.6,0-1,0-1.5h0.9l0.1,0.9h0c0.3-0.5,0.9-1,1.8-1c0.7,0,1.9,0.4,1.9,2.3v3.2h-1v-3.1
					c0-0.9-0.3-1.6-1.2-1.6c-0.6,0-1.1,0.5-1.3,1c0,0.1-0.1,0.3-0.1,0.5v3.3h-1V95.8z"/>
				<path d="M167.8,93h-2.3v-0.8h5.6V93h-2.3v6.7h-1V93z"/>
				<path d="M171.9,96c0-0.6,0-1.2,0-1.7h0.9l0,1.1h0c0.3-0.7,0.8-1.2,1.5-1.2c0.1,0,0.2,0,0.3,0v0.9c-0.1,0-0.2,0-0.3,0
					c-0.7,0-1.2,0.5-1.3,1.3c0,0.1,0,0.3,0,0.5v2.9h-1V96z"/>
				<path d="M178.6,99.7l-0.1-0.7h0c-0.3,0.4-0.9,0.8-1.7,0.8c-1.1,0-1.7-0.8-1.7-1.5c0-1.3,1.2-2,3.2-2v-0.1c0-0.4-0.1-1.3-1.2-1.2
					c-0.5,0-1,0.1-1.4,0.4l-0.2-0.7c0.4-0.3,1.1-0.5,1.8-0.5c1.7,0,2.1,1.1,2.1,2.2v2c0,0.5,0,0.9,0.1,1.3H178.6z M178.4,97
					c-1.1,0-2.3,0.2-2.3,1.2c0,0.6,0.4,0.9,0.9,0.9c0.7,0,1.2-0.4,1.3-0.9c0-0.1,0-0.2,0-0.3V97z"/>
				<path d="M184.8,99.6c-0.3,0.1-0.8,0.3-1.5,0.3c-1.6,0-2.7-1.1-2.7-2.8c0-1.7,1.1-2.9,2.9-2.9c0.6,0,1.1,0.1,1.4,0.3l-0.2,0.8
					c-0.2-0.1-0.6-0.3-1.1-0.3c-1.2,0-1.9,0.9-1.9,2c0,1.3,0.8,2,1.9,2c0.6,0,0.9-0.1,1.2-0.3L184.8,99.6z"/>
				<path d="M186.9,96.8L186.9,96.8c0.2-0.2,0.3-0.4,0.5-0.6l1.6-1.9h1.2l-2.1,2.2l2.4,3.2h-1.2l-1.9-2.6l-0.5,0.6v2h-1v-7.9h1V96.8
					z"/>
			</g>
		</g>
	</g>
	<g>
		<text transform="matrix(1 0 0 1 137.0283 83.8717)" class="st6 st16">主議程軌</text>
	</g>
	<g>
		<text transform="matrix(1 0 0 1 137.0283 60.6266)" class="st17 st6 st18">Day01 / Day02</text>
	</g>
	<g>
		<g>
			<g>
				<path d="M496.3,473.3c-0.1-1-0.1-2.3-0.1-3.2h0c-0.3,0.9-0.6,1.8-0.9,2.9l-1.3,3.7h-0.7l-1.2-3.6c-0.4-1.1-0.7-2-0.9-2.9h0
					c0,0.9-0.1,2.2-0.1,3.3l-0.2,3.2h-0.9l0.5-7.5h1.2l1.3,3.6c0.3,0.9,0.6,1.8,0.8,2.5h0c0.2-0.8,0.5-1.6,0.8-2.5l1.3-3.6h1.2
					l0.5,7.5h-1L496.3,473.3z"/>
				<path d="M501.9,476.6l-0.1-0.7h0c-0.3,0.4-0.9,0.8-1.7,0.8c-1.1,0-1.7-0.8-1.7-1.5c0-1.3,1.2-2,3.2-2v-0.1
					c0-0.4-0.1-1.3-1.2-1.2c-0.5,0-1,0.1-1.4,0.4l-0.2-0.7c0.4-0.3,1.1-0.5,1.8-0.5c1.7,0,2.1,1.1,2.1,2.2v2c0,0.5,0,0.9,0.1,1.3
					H501.9z M501.7,473.9c-1.1,0-2.3,0.2-2.3,1.2c0,0.6,0.4,0.9,0.9,0.9c0.7,0,1.2-0.4,1.3-0.9c0-0.1,0-0.2,0-0.3V473.9z"/>
				<path d="M505.3,469.7c0,0.3-0.2,0.6-0.6,0.6c-0.4,0-0.6-0.3-0.6-0.6c0-0.3,0.3-0.6,0.6-0.6C505.1,469.1,505.3,469.4,505.3,469.7
					z M504.2,476.6v-5.4h1v5.4H504.2z"/>
				<path d="M506.9,472.7c0-0.6,0-1,0-1.5h0.9l0.1,0.9h0c0.3-0.5,0.9-1,1.8-1c0.7,0,1.9,0.4,1.9,2.3v3.2h-1v-3.1
					c0-0.9-0.3-1.6-1.2-1.6c-0.6,0-1.1,0.5-1.3,1c0,0.1-0.1,0.3-0.1,0.5v3.3h-1V472.7z"/>
				<path d="M516.9,469.9h-2.3v-0.8h5.6v0.8h-2.3v6.7h-1V469.9z"/>
				<path d="M521,472.9c0-0.6,0-1.2,0-1.7h0.9l0,1.1h0c0.3-0.7,0.8-1.2,1.5-1.2c0.1,0,0.2,0,0.3,0v0.9c-0.1,0-0.2,0-0.3,0
					c-0.7,0-1.2,0.5-1.3,1.3c0,0.1,0,0.3,0,0.5v2.9h-1V472.9z"/>
				<path d="M527.6,476.6l-0.1-0.7h0c-0.3,0.4-0.9,0.8-1.7,0.8c-1.1,0-1.7-0.8-1.7-1.5c0-1.3,1.2-2,3.2-2v-0.1
					c0-0.4-0.1-1.3-1.2-1.2c-0.5,0-1,0.1-1.4,0.4l-0.2-0.7c0.4-0.3,1.1-0.5,1.8-0.5c1.7,0,2.1,1.1,2.1,2.2v2c0,0.5,0,0.9,0.1,1.3
					H527.6z M527.5,473.9c-1.1,0-2.3,0.2-2.3,1.2c0,0.6,0.4,0.9,0.9,0.9c0.7,0,1.2-0.4,1.3-0.9c0-0.1,0-0.2,0-0.3V473.9z"/>
				<path d="M533.9,476.4c-0.3,0.1-0.8,0.3-1.5,0.3c-1.6,0-2.7-1.1-2.7-2.8c0-1.7,1.1-2.9,2.9-2.9c0.6,0,1.1,0.1,1.4,0.3l-0.2,0.8
					c-0.2-0.1-0.6-0.3-1.1-0.3c-1.2,0-1.9,0.9-1.9,2c0,1.3,0.8,2,1.9,2c0.6,0,0.9-0.1,1.2-0.3L533.9,476.4z"/>
				<path d="M536,473.7L536,473.7c0.2-0.2,0.3-0.4,0.5-0.6l1.6-1.9h1.2l-2.1,2.2l2.4,3.2h-1.2l-1.9-2.6l-0.5,0.6v2h-1v-7.9h1V473.7z
					"/>
			</g>
		</g>
	</g>
	<g>
		<text transform="matrix(1 0 0 1 486.1016 460.7465)" class="st6 st16">主議程軌</text>
	</g>
	<g>
		<text transform="matrix(1 0 0 1 486.1016 437.5014)" class="st17 st6 st18">Day02</text>
	</g>
	<g>
		<g>
			<g>
				<path d="M439.1,95.3c0,2.6-1.6,4-3.5,4c-2,0-3.4-1.5-3.4-3.8c0-2.4,1.5-4,3.5-4C437.8,91.5,439.1,93.1,439.1,95.3z M433.3,95.4
					c0,1.6,0.9,3.1,2.4,3.1c1.5,0,2.4-1.4,2.4-3.1c0-1.5-0.8-3.1-2.4-3.1C434.1,92.3,433.3,93.8,433.3,95.4z"/>
				<path d="M440.4,95.5c0-0.7,0-1.2,0-1.8h0.9l0.1,0.9h0c0.4-0.7,1-1,1.9-1c1.3,0,2.3,1.1,2.3,2.7c0,1.9-1.2,2.9-2.5,2.9
					c-0.7,0-1.3-0.3-1.7-0.9h0v2.9h-1V95.5z M441.3,96.9c0,0.1,0,0.3,0,0.4c0.2,0.7,0.8,1.2,1.5,1.2c1,0,1.6-0.9,1.6-2.1
					c0-1.1-0.6-2-1.6-2c-0.7,0-1.3,0.5-1.5,1.2c0,0.1-0.1,0.3-0.1,0.4V96.9z"/>
				<path d="M447.3,96.6c0,1.3,0.9,1.9,1.8,1.9c0.7,0,1.1-0.1,1.5-0.3l0.2,0.7c-0.3,0.2-0.9,0.3-1.8,0.3c-1.7,0-2.7-1.1-2.7-2.7
					c0-1.6,1-2.9,2.5-2.9c1.8,0,2.2,1.5,2.2,2.5c0,0.2,0,0.4,0,0.5H447.3z M450.1,95.9c0-0.6-0.3-1.6-1.4-1.6c-1,0-1.4,0.9-1.5,1.6
					H450.1z"/>
				<path d="M452.3,95.2c0-0.6,0-1,0-1.5h0.9l0.1,0.9h0c0.3-0.5,0.9-1,1.8-1c0.7,0,1.9,0.4,1.9,2.3v3.2h-1V96c0-0.9-0.3-1.6-1.2-1.6
					c-0.6,0-1.1,0.5-1.3,1c0,0.1-0.1,0.3-0.1,0.5v3.3h-1V95.2z"/>
				<path d="M458.4,97.9c0.4,0.3,1.1,0.5,1.7,0.5c1,0,1.6-0.5,1.6-1.3c0-0.7-0.4-1.1-1.4-1.5c-1.2-0.4-2-1.1-2-2.1c0-1.2,1-2,2.4-2
					c0.8,0,1.3,0.2,1.7,0.4l-0.3,0.8c-0.2-0.1-0.7-0.4-1.4-0.4c-1,0-1.4,0.6-1.4,1.1c0,0.7,0.5,1,1.5,1.4c1.3,0.5,1.9,1.1,1.9,2.2
					c0,1.2-0.9,2.2-2.6,2.2c-0.7,0-1.5-0.2-1.9-0.5L458.4,97.9z"/>
				<path d="M465.2,92.2v1.6h1.4v0.7h-1.4v2.9c0,0.7,0.2,1.1,0.7,1.1c0.3,0,0.4,0,0.6-0.1l0,0.7c-0.2,0.1-0.5,0.1-0.9,0.1
					c-0.5,0-0.8-0.1-1.1-0.4c-0.3-0.3-0.4-0.8-0.4-1.4v-2.9h-0.8v-0.7h0.8v-1.3L465.2,92.2z"/>
				<path d="M467.7,95.4c0-0.6,0-1.2,0-1.7h0.9l0,1.1h0c0.3-0.7,0.8-1.2,1.5-1.2c0.1,0,0.2,0,0.3,0v0.9c-0.1,0-0.2,0-0.3,0
					c-0.7,0-1.2,0.5-1.3,1.3c0,0.1,0,0.3,0,0.5v2.9h-1V95.4z"/>
				<path d="M471.9,96.6c0,1.3,0.9,1.9,1.8,1.9c0.7,0,1.1-0.1,1.5-0.3l0.2,0.7c-0.3,0.2-0.9,0.3-1.8,0.3c-1.7,0-2.7-1.1-2.7-2.7
					c0-1.6,1-2.9,2.5-2.9c1.8,0,2.2,1.5,2.2,2.5c0,0.2,0,0.4,0,0.5H471.9z M474.8,95.9c0-0.6-0.3-1.6-1.4-1.6c-1,0-1.4,0.9-1.5,1.6
					H474.8z"/>
				<path d="M477.5,96.6c0,1.3,0.9,1.9,1.8,1.9c0.7,0,1.1-0.1,1.5-0.3l0.2,0.7c-0.3,0.2-0.9,0.3-1.8,0.3c-1.7,0-2.7-1.1-2.7-2.7
					c0-1.6,1-2.9,2.5-2.9c1.8,0,2.2,1.5,2.2,2.5c0,0.2,0,0.4,0,0.5H477.5z M480.4,95.9c0-0.6-0.3-1.6-1.4-1.6c-1,0-1.4,0.9-1.5,1.6
					H480.4z"/>
				<path d="M483.8,92.2v1.6h1.4v0.7h-1.4v2.9c0,0.7,0.2,1.1,0.7,1.1c0.3,0,0.4,0,0.6-0.1l0,0.7c-0.2,0.1-0.5,0.1-0.9,0.1
					c-0.5,0-0.8-0.1-1.1-0.4c-0.3-0.3-0.4-0.8-0.4-1.4v-2.9H482v-0.7h0.8v-1.3L483.8,92.2z"/>
				<path d="M492.7,95.8c-0.1-1-0.1-2.3-0.1-3.2h0c-0.3,0.9-0.6,1.8-0.9,2.9l-1.3,3.7h-0.7l-1.2-3.6c-0.4-1.1-0.7-2-0.9-2.9h0
					c0,0.9-0.1,2.2-0.1,3.3l-0.2,3.2h-0.9l0.5-7.5h1.2l1.3,3.6c0.3,0.9,0.6,1.8,0.8,2.5h0c0.2-0.8,0.5-1.6,0.8-2.5l1.3-3.6h1.2
					l0.5,7.5h-1L492.7,95.8z"/>
				<path d="M498.3,99.1l-0.1-0.7h0c-0.3,0.4-0.9,0.8-1.7,0.8c-1.1,0-1.7-0.8-1.7-1.5c0-1.3,1.2-2,3.2-2v-0.1c0-0.4-0.1-1.3-1.2-1.2
					c-0.5,0-1,0.1-1.4,0.4l-0.2-0.7c0.4-0.3,1.1-0.5,1.8-0.5c1.7,0,2.1,1.1,2.1,2.2v2c0,0.5,0,0.9,0.1,1.3H498.3z M498.1,96.4
					c-1.1,0-2.3,0.2-2.3,1.2c0,0.6,0.4,0.9,0.9,0.9c0.7,0,1.2-0.4,1.3-0.9c0-0.1,0-0.2,0-0.3V96.4z"/>
				<path d="M500.6,95.5c0-0.7,0-1.2,0-1.8h0.9l0.1,0.9h0c0.4-0.7,1-1,1.9-1c1.3,0,2.3,1.1,2.3,2.7c0,1.9-1.2,2.9-2.5,2.9
					c-0.7,0-1.3-0.3-1.7-0.9h0v2.9h-1V95.5z M501.6,96.9c0,0.1,0,0.3,0,0.4c0.2,0.7,0.8,1.2,1.5,1.2c1,0,1.6-0.9,1.6-2.1
					c0-1.1-0.6-2-1.6-2c-0.7,0-1.3,0.5-1.5,1.2c0,0.1-0.1,0.3-0.1,0.4V96.9z"/>
				<path d="M509.8,93.7l0.8,1.2c0.2,0.3,0.4,0.6,0.5,0.9h0c0.2-0.3,0.4-0.6,0.5-0.9l0.8-1.1h1.1l-1.8,2.6l1.9,2.8h-1.1l-0.8-1.2
					c-0.2-0.3-0.4-0.6-0.6-0.9h0c-0.2,0.3-0.4,0.6-0.6,0.9l-0.8,1.2h-1.1l1.9-2.8l-1.8-2.6H509.8z"/>
				<path d="M518.2,99.1l-1.9-7.5h1l0.9,3.8c0.2,0.9,0.4,1.9,0.6,2.6h0c0.1-0.7,0.4-1.6,0.6-2.6l1-3.8h1l0.9,3.8
					c0.2,0.9,0.4,1.8,0.5,2.6h0c0.2-0.8,0.4-1.7,0.6-2.6l1-3.8h1l-2.1,7.5h-1l-0.9-3.9c-0.2-1-0.4-1.7-0.5-2.5h0
					c-0.1,0.8-0.3,1.5-0.6,2.5l-1.1,3.9H518.2z"/>
				<path d="M527.5,92.2c0,0.3-0.2,0.6-0.6,0.6c-0.4,0-0.6-0.3-0.6-0.6c0-0.3,0.3-0.6,0.6-0.6C527.2,91.6,527.5,91.9,527.5,92.2z
					 M526.4,99.1v-5.4h1v5.4H526.4z"/>
				<path d="M530,96.2L530,96.2c0.2-0.2,0.3-0.4,0.5-0.6l1.6-1.9h1.2l-2.1,2.2l2.4,3.2h-1.2l-1.9-2.6l-0.5,0.6v2h-1v-7.9h1V96.2z"/>
				<path d="M535.3,92.2c0,0.3-0.2,0.6-0.6,0.6c-0.4,0-0.6-0.3-0.6-0.6c0-0.3,0.3-0.6,0.6-0.6C535.1,91.6,535.3,91.9,535.3,92.2z
					 M534.2,99.1v-5.4h1v5.4H534.2z"/>
				<path d="M541.5,91.2v6.5c0,0.5,0,1,0,1.4h-0.9l0-0.9h0c-0.3,0.6-1,1.1-1.8,1.1c-1.3,0-2.3-1.1-2.3-2.7c0-1.8,1.1-2.9,2.4-2.9
					c0.8,0,1.4,0.4,1.6,0.8h0v-3.2H541.5z M540.5,95.9c0-0.1,0-0.3,0-0.4c-0.2-0.6-0.7-1.1-1.4-1.1c-1,0-1.6,0.9-1.6,2.1
					c0,1.1,0.5,2,1.6,2c0.7,0,1.3-0.4,1.4-1.2c0-0.1,0-0.3,0-0.4V95.9z"/>
				<path d="M546.1,99.1l-0.1-0.7h0c-0.3,0.4-0.9,0.8-1.7,0.8c-1.1,0-1.7-0.8-1.7-1.5c0-1.3,1.2-2,3.2-2v-0.1c0-0.4-0.1-1.3-1.2-1.2
					c-0.5,0-1,0.1-1.4,0.4l-0.2-0.7c0.4-0.3,1.1-0.5,1.8-0.5c1.7,0,2.1,1.1,2.1,2.2v2c0,0.5,0,0.9,0.1,1.3H546.1z M546,96.4
					c-1.1,0-2.3,0.2-2.3,1.2c0,0.6,0.4,0.9,0.9,0.9c0.7,0,1.2-0.4,1.3-0.9c0-0.1,0-0.2,0-0.3V96.4z"/>
				<path d="M549.7,92.2v1.6h1.4v0.7h-1.4v2.9c0,0.7,0.2,1.1,0.7,1.1c0.3,0,0.4,0,0.6-0.1l0,0.7c-0.2,0.1-0.5,0.1-0.9,0.1
					c-0.5,0-0.8-0.1-1.1-0.4c-0.3-0.3-0.4-0.8-0.4-1.4v-2.9h-0.8v-0.7h0.8v-1.3L549.7,92.2z"/>
				<path d="M555.2,99.1l-0.1-0.7h0c-0.3,0.4-0.9,0.8-1.7,0.8c-1.1,0-1.7-0.8-1.7-1.5c0-1.3,1.2-2,3.2-2v-0.1c0-0.4-0.1-1.3-1.2-1.2
					c-0.5,0-1,0.1-1.4,0.4l-0.2-0.7c0.4-0.3,1.1-0.5,1.8-0.5c1.7,0,2.1,1.1,2.1,2.2v2c0,0.5,0,0.9,0.1,1.3H555.2z M555.1,96.4
					c-1.1,0-2.3,0.2-2.3,1.2c0,0.6,0.4,0.9,0.9,0.9c0.7,0,1.2-0.4,1.3-0.9c0-0.1,0-0.2,0-0.3V96.4z"/>
				<path d="M566.4,95.3c0,2.6-1.6,4-3.5,4c-2,0-3.4-1.5-3.4-3.8c0-2.4,1.5-4,3.5-4C565.1,91.5,566.4,93.1,566.4,95.3z M560.6,95.4
					c0,1.6,0.9,3.1,2.4,3.1c1.5,0,2.4-1.4,2.4-3.1c0-1.5-0.8-3.1-2.4-3.1C561.4,92.3,560.6,93.8,560.6,95.4z"/>
				<path d="M567.7,95.5c0-0.7,0-1.2,0-1.8h0.9l0.1,0.9h0c0.4-0.7,1-1,1.9-1c1.3,0,2.3,1.1,2.3,2.7c0,1.9-1.2,2.9-2.5,2.9
					c-0.7,0-1.3-0.3-1.7-0.9h0v2.9h-1V95.5z M568.6,96.9c0,0.1,0,0.3,0,0.4c0.2,0.7,0.8,1.2,1.5,1.2c1,0,1.6-0.9,1.6-2.1
					c0-1.1-0.6-2-1.6-2c-0.7,0-1.3,0.5-1.5,1.2c0,0.1-0.1,0.3-0.1,0.4V96.9z"/>
				<path d="M574.6,96.6c0,1.3,0.9,1.9,1.8,1.9c0.7,0,1.1-0.1,1.5-0.3l0.2,0.7c-0.3,0.2-0.9,0.3-1.8,0.3c-1.7,0-2.7-1.1-2.7-2.7
					c0-1.6,1-2.9,2.5-2.9c1.8,0,2.2,1.5,2.2,2.5c0,0.2,0,0.4,0,0.5H574.6z M577.5,95.9c0-0.6-0.3-1.6-1.4-1.6c-1,0-1.4,0.9-1.5,1.6
					H577.5z"/>
				<path d="M579.6,95.2c0-0.6,0-1,0-1.5h0.9l0.1,0.9h0c0.3-0.5,0.9-1,1.8-1c0.7,0,1.9,0.4,1.9,2.3v3.2h-1V96c0-0.9-0.3-1.6-1.2-1.6
					c-0.6,0-1.1,0.5-1.3,1c0,0.1-0.1,0.3-0.1,0.5v3.3h-1V95.2z"/>
				<path d="M593.5,98.9c-0.4,0.2-1.1,0.4-2,0.4c-2.1,0-3.7-1.3-3.7-3.8c0-2.4,1.6-3.9,3.9-3.9c0.9,0,1.5,0.2,1.8,0.3l-0.2,0.8
					c-0.4-0.2-0.9-0.3-1.5-0.3c-1.8,0-2.9,1.1-2.9,3.1c0,1.8,1.1,3,2.9,3c0.6,0,1.2-0.1,1.6-0.3L593.5,98.9z"/>
				<path d="M599.6,96.4c0,2-1.4,2.9-2.7,2.9c-1.5,0-2.6-1.1-2.6-2.8c0-1.8,1.2-2.9,2.7-2.9C598.5,93.6,599.6,94.7,599.6,96.4z
					 M595.3,96.4c0,1.2,0.7,2.1,1.6,2.1c0.9,0,1.6-0.9,1.6-2.1c0-0.9-0.5-2.1-1.6-2.1C595.8,94.3,595.3,95.4,595.3,96.4z"/>
				<path d="M600.8,95.2c0-0.6,0-1,0-1.5h0.9l0.1,0.9h0c0.3-0.5,0.9-1,1.8-1c0.7,0,1.9,0.4,1.9,2.3v3.2h-1V96c0-0.9-0.3-1.6-1.2-1.6
					c-0.6,0-1.1,0.5-1.3,1c0,0.1-0.1,0.3-0.1,0.5v3.3h-1V95.2z"/>
				<path d="M608.2,92.2v1.6h1.4v0.7h-1.4v2.9c0,0.7,0.2,1.1,0.7,1.1c0.3,0,0.4,0,0.6-0.1l0,0.7c-0.2,0.1-0.5,0.1-0.9,0.1
					c-0.5,0-0.8-0.1-1.1-0.4c-0.3-0.3-0.4-0.8-0.4-1.4v-2.9h-0.8v-0.7h0.8v-1.3L608.2,92.2z"/>
				<path d="M611.3,96.6c0,1.3,0.9,1.9,1.8,1.9c0.7,0,1.1-0.1,1.5-0.3l0.2,0.7c-0.3,0.2-0.9,0.3-1.8,0.3c-1.7,0-2.7-1.1-2.7-2.7
					c0-1.6,1-2.9,2.5-2.9c1.8,0,2.2,1.5,2.2,2.5c0,0.2,0,0.4,0,0.5H611.3z M614.1,95.9c0-0.6-0.3-1.6-1.4-1.6c-1,0-1.4,0.9-1.5,1.6
					H614.1z"/>
				<path d="M616.3,95.2c0-0.6,0-1,0-1.5h0.9l0.1,0.9h0c0.3-0.5,0.9-1,1.8-1c0.7,0,1.9,0.4,1.9,2.3v3.2h-1V96c0-0.9-0.3-1.6-1.2-1.6
					c-0.6,0-1.1,0.5-1.3,1c0,0.1-0.1,0.3-0.1,0.5v3.3h-1V95.2z"/>
				<path d="M623.7,92.2v1.6h1.4v0.7h-1.4v2.9c0,0.7,0.2,1.1,0.7,1.1c0.3,0,0.4,0,0.6-0.1l0,0.7c-0.2,0.1-0.5,0.1-0.9,0.1
					c-0.5,0-0.8-0.1-1.1-0.4c-0.3-0.3-0.4-0.8-0.4-1.4v-2.9h-0.8v-0.7h0.8v-1.3L623.7,92.2z"/>
				<path d="M630,92.4h-2.3v-0.8h5.6v0.8H631v6.7h-1V92.4z"/>
				<path d="M634.1,95.4c0-0.6,0-1.2,0-1.7h0.9l0,1.1h0c0.3-0.7,0.8-1.2,1.5-1.2c0.1,0,0.2,0,0.3,0v0.9c-0.1,0-0.2,0-0.3,0
					c-0.7,0-1.2,0.5-1.3,1.3c0,0.1,0,0.3,0,0.5v2.9h-1V95.4z"/>
				<path d="M640.8,99.1l-0.1-0.7h0c-0.3,0.4-0.9,0.8-1.7,0.8c-1.1,0-1.7-0.8-1.7-1.5c0-1.3,1.2-2,3.2-2v-0.1c0-0.4-0.1-1.3-1.2-1.2
					c-0.5,0-1,0.1-1.4,0.4l-0.2-0.7c0.4-0.3,1.1-0.5,1.8-0.5c1.7,0,2.1,1.1,2.1,2.2v2c0,0.5,0,0.9,0.1,1.3H640.8z M640.6,96.4
					c-1.1,0-2.3,0.2-2.3,1.2c0,0.6,0.4,0.9,0.9,0.9c0.7,0,1.2-0.4,1.3-0.9c0-0.1,0-0.2,0-0.3V96.4z"/>
				<path d="M647,98.9c-0.3,0.1-0.8,0.3-1.5,0.3c-1.6,0-2.7-1.1-2.7-2.8c0-1.7,1.1-2.9,2.9-2.9c0.6,0,1.1,0.1,1.4,0.3l-0.2,0.8
					c-0.2-0.1-0.6-0.3-1.1-0.3c-1.2,0-1.9,0.9-1.9,2c0,1.3,0.8,2,1.9,2c0.6,0,0.9-0.1,1.2-0.3L647,98.9z"/>
				<path d="M649.1,96.2L649.1,96.2c0.2-0.2,0.3-0.4,0.5-0.6l1.6-1.9h1.2l-2.1,2.2l2.4,3.2h-1.2l-1.9-2.6l-0.5,0.6v2h-1v-7.9h1V96.2
					z"/>
			</g>
		</g>
	</g>
	<g>
		<text transform="matrix(1 0 0 1 431.8516 84.661)" class="st6 st16">OpenStreetMap x Wikidata 開放內容議程軌</text>
	</g>
	<g>
		<text transform="matrix(1 0 0 1 431.8516 58.454)" class="st17 st6 st18">Day02</text>
	</g>
	<g>
		<rect x="141.2" y="112.4" class="st19" width="256.9" height="131.5"/>
		<text transform="matrix(1 0 0 1 141.2236 120.3938)"><tspan x="0" y="0" class="st20 st21">Prime session 也就是其他會議的 Keynote session，會由 </tspan><tspan x="0" y="14" class="st20 st21">COSCUP 和社群邀請到開源界大人物以稍微不那麼技術性但仍然</tspan><tspan x="0" y="28" class="st20 st21">有趣的話題輕鬆開啟一天，以及安排在整日議程結束時的壓軸演</tspan><tspan x="0" y="42" class="st20 st21">說幫助與會者消化一整天所收集到的大量有見地的資訊。今年 </tspan><tspan x="0" y="56" class="st20 st21">Prime session將安排在 RB 議程廳的 day 1 開場和結束，以及 </tspan><tspan x="0" y="70" class="st20 st21">day 2 開場，講者及講題請參見議程表。</tspan></text>
	</g>
	<g>
		<rect x="431.9" y="110.7" class="st19" width="270.3" height="31.8"/>
		<text transform="matrix(1 0 0 1 431.8521 118.7353)"><tspan x="0" y="0" class="st20 st21">本議程是關於 OpenStreetMap 或是其他開放內容有關的主題，例</tspan><tspan x="0" y="18" class="st20 st21">如維基媒體運動相關專案，維基百科、維基共享資源等等。</tspan></text>
	</g>
	<g>
		<text transform="matrix(1 0 0 1 30.8614 466.2373)" class="st0 st4 st22">AU視聽館</text>
	</g>
	<g>
		<g>
			<g>
				<path d="M160,468h1v5c0,2-1,2.6-2.3,2.6c-0.4,0-0.8-0.1-1-0.2l0.1-0.8c0.2,0.1,0.5,0.1,0.8,0.1c0.9,0,1.4-0.4,1.4-1.9V468z"/>
				<path d="M164.2,475.5l-2.5-7.5h1.1l1.2,3.7c0.3,1,0.6,1.9,0.8,2.8h0c0.2-0.9,0.5-1.8,0.9-2.8l1.3-3.7h1l-2.7,7.5H164.2z"/>
				<path d="M175.2,472.2c-0.1-1-0.1-2.3-0.1-3.2h0c-0.3,0.9-0.6,1.8-0.9,2.9l-1.3,3.7H172l-1.2-3.6c-0.4-1.1-0.7-2-0.9-2.9h0
					c0,0.9-0.1,2.2-0.1,3.3l-0.2,3.2h-0.9l0.5-7.5h1.2l1.3,3.6c0.3,0.9,0.6,1.8,0.8,2.5h0c0.2-0.8,0.5-1.6,0.8-2.5l1.3-3.6h1.2
					l0.5,7.5h-1L175.2,472.2z"/>
				<path d="M181.1,468v4.5c0,1.7,0.7,2.4,1.8,2.4c1.1,0,1.8-0.7,1.8-2.4V468h1v4.4c0,2.3-1.2,3.3-2.8,3.3c-1.5,0-2.7-0.9-2.7-3.2
					V468H181.1z"/>
				<path d="M187.4,471.6c0-0.6,0-1,0-1.5h0.9l0.1,0.9h0c0.3-0.5,0.9-1,1.8-1c0.7,0,1.9,0.4,1.9,2.3v3.2h-1v-3.1
					c0-0.9-0.3-1.6-1.2-1.6c-0.6,0-1.1,0.5-1.3,1c0,0.1-0.1,0.3-0.1,0.5v3.3h-1V471.6z"/>
				<path d="M194.7,468.6c0,0.3-0.2,0.6-0.6,0.6c-0.4,0-0.6-0.3-0.6-0.6c0-0.3,0.3-0.6,0.6-0.6C194.4,468,194.7,468.3,194.7,468.6z
					 M193.6,475.5v-5.4h1v5.4H193.6z"/>
				<path d="M197.3,468.6v1.6h1.4v0.7h-1.4v2.9c0,0.7,0.2,1.1,0.7,1.1c0.3,0,0.4,0,0.6-0.1l0,0.7c-0.2,0.1-0.5,0.1-0.9,0.1
					c-0.5,0-0.8-0.1-1.1-0.4c-0.3-0.3-0.4-0.8-0.4-1.4v-2.9h-0.8v-0.7h0.8v-1.3L197.3,468.6z"/>
				<path d="M200.4,473c0,1.3,0.9,1.9,1.8,1.9c0.7,0,1.1-0.1,1.5-0.3l0.2,0.7c-0.3,0.2-0.9,0.3-1.8,0.3c-1.7,0-2.7-1.1-2.7-2.7
					c0-1.6,1-2.9,2.5-2.9c1.8,0,2.2,1.5,2.2,2.5c0,0.2,0,0.4,0,0.5H200.4z M203.3,472.3c0-0.6-0.3-1.6-1.4-1.6c-1,0-1.4,0.9-1.5,1.6
					H203.3z"/>
				<path d="M210.1,467.6v6.5c0,0.5,0,1,0,1.4h-0.9l0-0.9h0c-0.3,0.6-1,1.1-1.8,1.1c-1.3,0-2.3-1.1-2.3-2.7c0-1.8,1.1-2.9,2.4-2.9
					c0.8,0,1.4,0.4,1.6,0.8h0v-3.2H210.1z M209.2,472.3c0-0.1,0-0.3,0-0.4c-0.2-0.6-0.7-1.1-1.4-1.1c-1,0-1.6,0.9-1.6,2.1
					c0,1.1,0.5,2,1.6,2c0.7,0,1.3-0.4,1.4-1.2c0-0.1,0-0.3,0-0.4V472.3z"/>
			</g>
		</g>
	</g>
	<g>
		<text transform="matrix(1 0 0 1 157.5884 460.4892)" class="st6 st16">JVM 聯合國</text>
	</g>
	<g>
		<text transform="matrix(1 0 0 1 157.5884 437.244)" class="st17 st6 st18">Day01</text>
	</g>
	<g>
		<rect x="157.6" y="488.2" class="st19" width="312.8" height="90.6"/>
		<text transform="matrix(1 0 0 1 157.5879 496.2401)"><tspan x="0" y="0" class="st20 st21">JVM（Java Virtual Machine）做為一個平台，已經演化成一個完整的生態系。</tspan><tspan x="0" y="14" class="st20 st21">其穩定與跨平台的特性已被各大企業驗證，也蘊育出 Java、Kotlin、Scala、</tspan><tspan x="0" y="28" class="st20 st21">Clojure、Groovy 等語言，可謂百家爭鳴、大放異彩。近年來 Kotlin 漸受重視</tspan><tspan x="0" y="42" class="st20 st21">、GraalVM 帶來更多可能。今年 COSCUP 依照往例，由台灣 JVM 相關社群再</tspan><tspan x="0" y="56" class="st20 st21">次組成聯盟，號召各方好手，匯集了與 JVM 應用有關的主題，包括但不限於前</tspan><tspan x="0" y="70" class="st20 st21">後端、桌面或行動應用、原生與跨平台…等，一起探索 JVM 的無限潛能。</tspan></text>
	</g>
	<g>
		<g>
			<text transform="matrix(1 0 0 1 610.4795 529.4677)" class="st0 st4 st23">TR2F-TR6F</text>
		</g>
		<g>
			<g>
				<path class="st0" d="M804.6,563.8l1.9,3.4c-3.3,2.6-6.8,6.5-9,9.9c-2.2-3.4-5.7-7.3-9-9.9l1.9-3.4c1.9,1.4,4,3.4,5.2,5.1V542
					h3.9v26.9C800.6,567.3,802.7,565.3,804.6,563.8z"/>
			</g>
		</g>
		<g>
			<text transform="matrix(1 0 0 1 611.6187 489.911)" class="st0 st4 st15">研揚大樓</text>
		</g>
	</g>
</g>
<g id="標示">
</g>
<g id="樓層位置">
	<g>
		<g>
			<defs>
				<rect id="SVGID_1_" x="23.5" y="240.2" width="169.6" height="113.1"/>
			</defs>
			<clipPath id="SVGID_00000042710626118294422660000017108952222170293676_">
				<use xlink:href="#SVGID_1_"  style="overflow:visible;"/>
			</clipPath>
			<g style="clip-path:url(#SVGID_00000042710626118294422660000017108952222170293676_);">
				<defs>
					<rect id="SVGID_00000155144407092859828720000005006026066550547900_" x="23.5" y="240.2" width="169.6" height="113.1"/>
				</defs>
				<clipPath id="SVGID_00000029728309200720516060000006945678614881211287_">
					<use xlink:href="#SVGID_00000155144407092859828720000005006026066550547900_"  style="overflow:visible;"/>
				</clipPath>
				<path style="clip-path:url(#SVGID_00000029728309200720516060000006945678614881211287_);fill:#00943C;" d="M57.2,280.3
					l-2.1,8.9h-3c0.1-0.3,0.1-0.6,0.2-0.9c0.1-0.3,0.1-0.8,0.1-1.3c0-1.2-0.2-2.2-0.6-2.9c-0.6-1-1.6-1.5-2.9-1.5
					c-1.8,0-3.6,1.2-5.6,3.5c-2.1,2.4-3.1,4.9-3.1,7.4c0,1.9,0.5,3.4,1.4,4.5c1,1.1,2.2,1.6,3.7,1.6c1.3,0,2.8-0.6,4.6-1.9
					c0.6-0.4,1.4-1,2.4-1.9l3,1.9c-0.4,0.4-0.9,0.8-1.3,1.2c-1.2,1-2.4,1.7-3.8,2.3c-2,0.8-4,1.2-6.1,1.2c-3.1,0-5.6-0.8-7.6-2.3
					c-2.3-1.7-3.4-4.1-3.4-7.1c0-4,1.8-7.3,5.3-9.9c3.3-2.4,7.4-3.6,12.3-3.6c1.1,0,2.5,0.1,4.2,0.3C55.4,280,56.2,280.1,57.2,280.3
					"/>
				<path style="clip-path:url(#SVGID_00000029728309200720516060000006945678614881211287_);fill:#00943C;" d="M83,286.7
					c0,2-0.4,3.9-1.3,5.5c-0.7,1.4-2,2.9-3.7,4.7c-1.7,1.7-3.8,3-6.2,4c-2.1,0.8-4.2,1.2-6.1,1.2c-3.3,0-5.9-0.9-7.7-2.8
					c-1.7-1.7-2.6-4-2.6-6.8c0-2.4,0.7-4.6,2-6.8c1-1.6,2.2-3.1,3.8-4.4c1.2-1,1.9-1.5,2-1.5l6.1,0c-0.1,0-0.7,0.7-1.7,2.1
					c-1.3,1.7-2.4,3.5-3.3,5.1c-1.2,2.4-1.8,4.6-1.8,6.6c0,2.2,0.5,3.8,1.4,4.8c0.8,0.8,1.9,1.2,3.3,1.2c1.9,0,3.7-1.1,5.3-3.4
					c1.6-2.3,2.4-4.7,2.4-7.3c0-1.2-0.1-2.1-0.4-2.9c-0.3-0.9-1-1.6-1.8-2c-0.2-0.1-0.4-0.2-0.7-0.2c-0.3,0-0.6-0.1-0.9-0.1
					c-0.5,0-0.8,0-1.1,0c-0.3,0-0.5,0.1-0.8,0.1v-2l7.8-2.5c1.3,0.5,2.3,1,3,1.5C82,282.3,83,284.3,83,286.7"/>
				<path style="clip-path:url(#SVGID_00000029728309200720516060000006945678614881211287_);fill:#00943C;" d="M107.1,279.9l-2,7.3
					h-2.8v-0.3c0-0.3,0-0.5,0-0.8c0-0.6,0-1.2-0.1-1.7c-0.1-0.5-0.3-0.9-0.6-1.3c-0.4-0.4-0.8-0.7-1.4-0.9c-0.6-0.2-1.5-0.3-2.9-0.3
					c-1.7,0-3.1,0.3-4.2,0.9c-1.4,0.7-2,1.7-2,3.1c0,1.1,1.1,1.9,3.4,2.6c2.2,0.6,4.5,1.2,6.6,1.8c2.4,1,3.5,2.5,3.5,4.4
					c0,2.3-1.6,4.1-4.9,5.6c-2.9,1.3-6.1,2-9.7,2c-1.4,0-3.2-0.2-5.3-0.7c-0.7-0.1-1.7-0.4-2.9-0.7v-4.1c0.9,0.5,1.7,0.9,2.3,1.2
					c1.9,0.8,3.8,1.2,5.7,1.2c1.8,0,3.3-0.3,4.7-0.9c1.6-0.7,2.4-1.7,2.4-2.9c0-1.2-1.1-2-3.3-2.4c-2.2-0.5-4.4-0.9-6.5-1.3
					c-2.3-0.8-3.4-2.2-3.4-4.3c0-2,0.8-3.7,2.5-5c1.4-1.1,3.4-1.9,5.9-2.4c2-0.4,4.3-0.6,6.9-0.6c1.5,0,3.2,0.1,5.3,0.3
					C105,279.6,105.9,279.7,107.1,279.9"/>
				<path style="clip-path:url(#SVGID_00000029728309200720516060000006945678614881211287_);fill:#00943C;" d="M129.8,280.3
					l-2.1,8.9h-3c0.1-0.3,0.1-0.6,0.2-0.9c0.1-0.3,0.1-0.8,0.1-1.3c0-1.2-0.2-2.2-0.6-2.9c-0.6-1-1.6-1.5-2.9-1.5
					c-1.7,0-3.6,1.2-5.6,3.5c-2.1,2.4-3.1,4.9-3.1,7.4c0,1.9,0.5,3.4,1.4,4.5c1,1.1,2.2,1.6,3.7,1.6c1.3,0,2.8-0.6,4.6-1.9
					c0.6-0.4,1.4-1,2.4-1.9l3,1.9c-0.4,0.4-0.9,0.8-1.3,1.2c-1.2,1-2.4,1.7-3.7,2.3c-2,0.8-4,1.2-6.1,1.2c-3.1,0-5.6-0.8-7.6-2.3
					c-2.3-1.7-3.4-4.1-3.4-7.1c0-4,1.8-7.3,5.3-9.9c3.3-2.4,7.4-3.6,12.3-3.6c1.1,0,2.5,0.1,4.2,0.3
					C128.1,280,128.8,280.1,129.8,280.3"/>
				<path style="clip-path:url(#SVGID_00000029728309200720516060000006945678614881211287_);fill:#00943C;" d="M156.3,279.7
					l-5.6,22.3h-7.5l1.9-6.4c0.1-0.1,0.1-0.3,0.1-0.5c0-0.2,0.1-0.3,0.1-0.4c0-0.2-0.1-0.4-0.2-0.4c-0.2,0-0.3,0.1-0.5,0.3
					c0,0.1-0.1,0.2-0.2,0.3c-0.5,0.7-0.9,1.3-1.4,2c-1.2,1.5-2.5,2.8-3.8,3.8c-1.8,1.3-3.6,2-5.4,2c-1.7,0-3.1-0.6-4.2-1.7
					c-1-1.1-1.6-2.6-1.6-4.6c0-0.8,0.1-1.8,0.3-3c0.1-0.4,0.2-1,0.4-1.7l3.4-12.1h7.5l-3.7,13.3c0,0.1-0.1,0.3-0.1,0.7
					c-0.1,0.4-0.1,0.7-0.1,1c0,0.7,0.2,1.2,0.5,1.6c0.3,0.4,0.9,0.6,1.8,0.6c1.7,0,3.5-1.5,5.5-4.4c1.4-2.1,2.8-4.9,4.1-8.3
					c0.5-1.5,1.1-3,1.6-4.4H156.3z"/>
				<path style="clip-path:url(#SVGID_00000029728309200720516060000006945678614881211287_);fill:#00943C;" d="M117.4,272.4
					l-3.8-12.1l-2,3.5C87.4,252.1,77,274.9,77,274.9s8.7-16.7,30-3.3l-2,3.5L117.4,272.4z"/>
				<path style="clip-path:url(#SVGID_00000029728309200720516060000006945678614881211287_);fill:#00943C;" d="M132.8,263.9
					l-3.8-12.1l-2,3.5c-24.1-11.6-34.6,11.2-34.6,11.2s8.7-16.7,30-3.3l-2,3.5L132.8,263.9z"/>
				<path style="clip-path:url(#SVGID_00000029728309200720516060000006945678614881211287_);fill:#00943C;" d="M180.9,281.1
					c-1.7-1-3.7-1.4-6-1.4h-3.5l-0.5,0.6c0.2,0.4,0.2,0.7,0.2,0.9l0,0.4c0,0.2,0,0.4,0,0.5h0.5c1.4,0,2.5,0.4,3.3,1.3
					c0.9,0.8,1.3,2,1.3,3.6c0,1.9-0.8,3.3-2.5,4.4c-1.1,0.7-2.7,1.2-4.6,1.5c-0.3,0-0.6,0.1-1,0.1l-0.2,0.6
					c-0.1,0.5-0.2,0.9-0.5,1.3l-0.2,0.4c0.2,0,0.4,0,0.6,0c2.2,0,4.3-0.2,6.1-0.5c2.8-0.5,5.1-1.4,6.7-2.6c2.1-1.6,3.1-3.7,3.1-6.4
					C183.8,283.8,182.8,282.3,180.9,281.1"/>
				<path style="clip-path:url(#SVGID_00000029728309200720516060000006945678614881211287_);fill:#00943C;" d="M167.7,285.9
					c0-0.1,0-0.4,0.1-0.5l0.8-2c0-0.1,0.2-0.3,0.2-0.4l0.3-0.8l0-0.1c0-0.1,0-0.4,0-0.5l0-0.2c0-0.1,0-0.3-0.1-0.5l-0.1-0.3v-0.5
					l0.1-0.5l0-0.2c0.1-0.1,0.2-0.3,0.2-0.4l0.7-0.8c0-0.1,0.1-0.3,0-0.3l-0.4-0.6c-0.1-0.1-0.2-0.2-0.3-0.2l-1.2-0.4
					c-0.1,0-0.4-0.1-0.4-0.2l-0.4-0.5c-0.1-0.1-0.2-0.2-0.3-0.2h-0.1c-0.1,0-0.3,0.1-0.4,0.1l-0.4,0.4c-0.1,0.1-0.1,0.3-0.1,0.4
					c0,0.1-0.1,0.2-0.3,0.3l-0.6,0.1c-0.2,0-0.4,0.1-0.5,0.2l-1,0.4c-0.1,0-0.3,0.1-0.3,0.2l-1,2.2c-0.1,0.1-0.2,0.3-0.3,0.3l-0.9,1
					c-0.1,0.1-0.2,0.3-0.3,0.4l-3.9,6.9c-0.1,0.1-0.1,0.3-0.1,0.4l0.1,2.3c0.1,0.1,0,0.3-0.1,0.4l-0.1,0.1c0,0.1-0.1,0.3-0.1,0.4
					l-0.1,0.5c0,0.1-0.1,0.3-0.1,0.4l0,0.4c0,0.1,0,0.3,0.2,0.4l0.6,0.5c0.1,0,0.2,0.2,0.2,0.3v0.8c0,0.1,0.1,0.3,0.1,0.4l0.2,0.7
					c0.1,0.1,0.1,0.3,0.2,0.4l0.7,1.1c0.1,0.1,0.2,0.2,0.3,0.2h0c0.1,0,0.3,0,0.4,0.2l1,0.9c0.2,0.1,0.3,0.3,0.3,0.4l0.5,1
					c0,0.1,0,0.3,0,0.4l-0.1,0.6c0,0.2,0.1,0.3,0.1,0.4l0.2,0.1c0.1,0.1,0.3,0.2,0.4,0.3l0.4,0.2c0.1,0.1,0.2,0,0.3-0.1l0.1-0.5
					c0-0.1,0.1-0.3,0.1-0.4v-0.8V300c0-0.1,0-0.3,0-0.4l0.8-2.1c0-0.1,0.2-0.3,0.2-0.4l0.7-0.8l0.2-0.2c0.1,0,0.2-0.2,0.3-0.3
					l1.2-1.9c0.2-0.3,0.1-0.4,0.2-0.7c0-0.1,0.1-0.4,0.2-0.5l0.6-1.8c0.1-0.3,0.6-3.3,0.8-4.6C167.7,286.2,167.7,286,167.7,285.9"/>
				<path style="clip-path:url(#SVGID_00000029728309200720516060000006945678614881211287_);fill:#00943C;" d="M33,319.4
					c3-2.7,4.6-4.7,4.6-6.3c0-1.1-0.6-1.9-1.7-1.9c-0.8,0-1.5,0.5-2,1.1l-0.9-0.9c0.9-0.9,1.8-1.5,3.1-1.5c1.9,0,3.1,1.2,3.1,3.1
					c0,2-1.6,4-3.7,6.1c0.5-0.1,1.2-0.1,1.7-0.1h2.6v1.4H33V319.4z"/>
				<path style="clip-path:url(#SVGID_00000029728309200720516060000006945678614881211287_);fill:#00943C;" d="M47.2,315.1
					c0-3.5,1.3-5.3,3.3-5.3c2,0,3.3,1.7,3.3,5.3c0,3.6-1.3,5.3-3.3,5.3C48.5,320.5,47.2,318.7,47.2,315.1 M52.3,315.1
					c0-2.9-0.7-4-1.8-4c-1,0-1.8,1.1-1.8,4c0,3,0.7,4.1,1.8,4.1C51.6,319.2,52.3,318.1,52.3,315.1"/>
				<path style="clip-path:url(#SVGID_00000029728309200720516060000006945678614881211287_);fill:#00943C;" d="M61.3,319.4
					c3-2.7,4.6-4.7,4.6-6.3c0-1.1-0.6-1.9-1.7-1.9c-0.8,0-1.5,0.5-2,1.1l-0.9-0.9c0.9-0.9,1.8-1.5,3.1-1.5c1.9,0,3.1,1.2,3.1,3.1
					c0,2-1.6,4-3.7,6.1c0.5-0.1,1.2-0.1,1.7-0.1h2.6v1.4h-6.6V319.4z"/>
				<path style="clip-path:url(#SVGID_00000029728309200720516060000006945678614881211287_);fill:#00943C;" d="M75.3,319.1l0.8-1
					c0.6,0.6,1.4,1.1,2.4,1.1c1.2,0,1.9-0.6,1.9-1.7c0-1.1-0.7-1.9-3-1.9v-1.2c2,0,2.7-0.8,2.7-1.8c0-0.9-0.6-1.5-1.6-1.5
					c-0.8,0-1.5,0.4-2,1l-0.8-1c0.8-0.7,1.8-1.2,2.9-1.2c1.8,0,3.1,0.9,3.1,2.6c0,1.2-0.7,2-1.8,2.4v0.1c1.2,0.3,2.1,1.2,2.1,2.6
					c0,1.8-1.5,2.9-3.4,2.9C77,320.5,75.9,319.8,75.3,319.1"/>
				<path style="clip-path:url(#SVGID_00000029728309200720516060000006945678614881211287_);fill:#00943C;" d="M91.5,313.9v7.5
					h-1.3v-12.2h5.2v4.7H91.5z M91.5,311.1h2.7v-0.9h-2.7V311.1z M94.2,312h-2.7v1h2.7V312z M97.9,318.1v3h-1.2v-3h-1.7
					c-0.1,0.9-0.6,2.3-1.8,3.2c-0.2-0.2-0.6-0.6-0.8-0.8c1-0.6,1.4-1.7,1.5-2.4h-1.6v-1.1H94v-1.3h-1.4v-1h6.7v1h-1.4v1.3h1.7v1.1
					H97.9z M96.7,315.8h-1.7v1.3h1.7V315.8z M101.8,319.8c0,0.7-0.1,1.1-0.6,1.3c-0.4,0.2-1.1,0.3-2.2,0.2c0-0.3-0.2-0.9-0.4-1.3
					c0.7,0,1.4,0,1.6,0c0.2,0,0.3-0.1,0.3-0.3v-5.8h-4v-4.8h5.3V319.8z M97.7,311.1h2.8v-0.9h-2.8V311.1z M100.5,312h-2.8v1h2.8V312
					z"/>
				<path style="clip-path:url(#SVGID_00000029728309200720516060000006945678614881211287_);fill:#00943C;" d="M112,314.8
					c-0.5-0.4-1.5-1-2.3-1.5l0.8-0.9c0.7,0.4,1.8,1,2.3,1.3L112,314.8z M113,316.8c-0.5,1.4-1.3,3.1-1.9,4.4l-1.2-0.7
					c0.6-1.1,1.4-2.9,2-4.4L113,316.8z M112.6,311.2c-0.5-0.4-1.5-1.1-2.3-1.5l0.8-0.9c0.7,0.4,1.8,1,2.3,1.4L112.6,311.2z
					 M115.1,313.1c0,2.4-0.2,5.9-1.9,8.2c-0.2-0.2-0.8-0.5-1.1-0.7c1.6-2.2,1.7-5.3,1.7-7.6v-3.8h8.5v1.2h-7.2V313.1z M117.3,317.8
					c-0.4,1-1.1,2.1-1.7,2.8c-0.2-0.2-0.7-0.5-1-0.6c0.6-0.7,1.2-1.6,1.6-2.5L117.3,317.8z M119.3,316.8v3.4c0,0.6-0.1,0.9-0.5,1.1
					c-0.4,0.2-1,0.2-1.9,0.2c0-0.3-0.2-0.8-0.3-1.1c0.6,0,1.2,0,1.3,0c0.2,0,0.2-0.1,0.2-0.2v-3.3h-2.4v-4.9h2
					c0.1-0.4,0.3-0.9,0.4-1.3l1.4,0.3c-0.2,0.4-0.4,0.7-0.5,1.1h2.9v4.9H119.3z M116.9,313.9h3.8v-1h-3.8V313.9z M116.9,315.8h3.8
					v-1h-3.8V315.8z M121.1,317.3c0.5,0.8,1.2,2,1.5,2.6l-1.2,0.5c-0.3-0.7-0.9-1.9-1.4-2.7L121.1,317.3z"/>
				<path style="clip-path:url(#SVGID_00000029728309200720516060000006945678614881211287_);fill:#00943C;" d="M136.9,308.7
					c0,0.5,0,1.3-0.1,2.1c0.2,1.7,1,7.3,5.9,9.4c-0.4,0.3-0.8,0.7-0.9,1.1c-3.3-1.5-4.8-4.6-5.5-7.1c-0.7,2.6-2.2,5.4-5.3,7.2
					c-0.2-0.3-0.6-0.8-1.1-1c5.7-2.9,5.5-9.4,5.6-11.7H136.9z"/>
				<path style="clip-path:url(#SVGID_00000029728309200720516060000006945678614881211287_);fill:#00943C;" d="M162.7,318.3h-4.9
					v3.1h-1.3v-3.1h-6.3v-1.3h2.2v-3.7h4.1v-1.9h-3.2c-0.6,1-1.3,1.9-2,2.6c-0.2-0.2-0.8-0.6-1.1-0.8c1.3-1.1,2.4-2.9,3-4.7l1.3,0.3
					c-0.2,0.4-0.4,0.9-0.5,1.3h8.1v1.3h-4.2v1.9h3.9v1.2h-3.9v2.5h4.9V318.3z M156.4,314.6h-2.8v2.5h2.8V314.6z"/>
				<path style="clip-path:url(#SVGID_00000029728309200720516060000006945678614881211287_);fill:#00943C;" d="M177.5,309
					c-0.1,0.1-0.1,0.2-0.2,0.3c1.3,1.2,3.6,2.3,5.8,2.7c-0.3,0.2-0.6,0.7-0.8,1c-0.3-0.1-0.7-0.2-1-0.3v3.6h-9.4v-3.5
					c-0.3,0.1-0.7,0.2-1,0.3c-0.1-0.2-0.5-0.8-0.7-1c2.5-0.6,5-1.8,6.2-3.5L177.5,309z M181.2,312.6c-0.7-0.3-1.5-0.6-2.2-1v0.4
					h-4.8v-0.3c-0.6,0.4-1.3,0.7-2,0.9H181.2z M172.6,316.7h7.9v4.6h-1.3v-0.4h-5.3v0.4h-1.3V316.7z M174.5,313.5
					c0.3,0.5,0.6,1.1,0.7,1.5l-0.9,0.3h1.6v-1.9h-3v1.9h1.3c-0.1-0.4-0.4-1.1-0.7-1.6L174.5,313.5z M173.9,318.4h5.3v-0.8h-5.3
					V318.4z M179.2,319.3h-5.3v0.8h5.3V319.3z M178.1,311.1c-0.6-0.3-1.1-0.8-1.5-1.2c-0.4,0.4-1,0.8-1.5,1.2H178.1z M180.1,313.4
					H177v1.9h1.6l-0.9-0.3c0.3-0.4,0.5-1.2,0.7-1.6l1.1,0.3c-0.3,0.6-0.6,1.2-0.9,1.6h1.5V313.4z"/>
				<path style="clip-path:url(#SVGID_00000029728309200720516060000006945678614881211287_);fill:#00943C;" d="M38,329.8h-4.8v-2.2
					h7.7v1.6c-2.6,3.1-2.9,5.2-3.1,9.6h-2.7C35.3,335.1,35.9,332.8,38,329.8"/>
				<polygon style="clip-path:url(#SVGID_00000029728309200720516060000006945678614881211287_);fill:#00943C;" points="48.5,326.6 
					50.2,326.6 46.9,341.6 45.2,341.6 				"/>
				<path style="clip-path:url(#SVGID_00000029728309200720516060000006945678614881211287_);fill:#00943C;" d="M54.7,337.3
					c2.8-2.5,4.7-4.6,4.7-6.2c0-1-0.6-1.6-1.5-1.6c-0.8,0-1.4,0.5-1.9,1.1l-1.5-1.4c1.1-1.2,2.1-1.7,3.7-1.7c2.2,0,3.7,1.4,3.7,3.5
					c0,1.9-1.7,4.1-3.4,5.8c0.6-0.1,1.3-0.1,1.8-0.1h2.1v2.3h-7.8V337.3z"/>
				<path style="clip-path:url(#SVGID_00000029728309200720516060000006945678614881211287_);fill:#00943C;" d="M68.7,336.1
					c0.4,0.4,1.1,0.8,1.7,0.8c1.1,0,2.1-0.8,2.2-3.3c-0.5,0.7-1.5,1.1-2.1,1.1c-1.9,0-3.3-1.1-3.3-3.5c0-2.4,1.7-3.8,3.7-3.8
					c2.1,0,4.2,1.6,4.2,5.7s-2.1,6-4.4,6c-1.5,0-2.6-0.6-3.3-1.3L68.7,336.1z M72.5,331.8c-0.2-1.9-0.9-2.4-1.6-2.4
					c-0.7,0-1.3,0.5-1.3,1.8c0,1.2,0.6,1.6,1.4,1.6C71.5,332.8,72.1,332.6,72.5,331.8"/>
				
					<rect x="79.8" y="333.5" style="clip-path:url(#SVGID_00000029728309200720516060000006945678614881211287_);fill:#00943C;" width="4.3" height="1.9"/>
				<path style="clip-path:url(#SVGID_00000029728309200720516060000006945678614881211287_);fill:#00943C;" d="M88.5,337.5l1.2-1.7
					c0.7,0.6,1.5,1.1,2.3,1.1c1,0,1.7-0.4,1.7-1.3c0-1-0.5-1.5-2.9-1.5v-1.9c1.9,0,2.5-0.6,2.5-1.5c0-0.8-0.5-1.2-1.3-1.2
					c-0.8,0-1.3,0.3-2,0.9l-1.4-1.6c1-0.9,2.2-1.4,3.5-1.4c2.3,0,3.8,1.1,3.8,3.1c0,1.1-0.6,2-1.8,2.5v0.1c1.3,0.4,2.2,1.3,2.2,2.7
					c0,2.1-1.9,3.3-4.1,3.3C90.6,339,89.4,338.4,88.5,337.5"/>
				<path style="clip-path:url(#SVGID_00000029728309200720516060000006945678614881211287_);fill:#00943C;" d="M101.3,333.2
					c0-3.9,1.6-5.8,4-5.8c2.4,0,4,1.9,4,5.8c0,3.9-1.6,5.9-4,5.9C102.9,339,101.3,337,101.3,333.2 M106.7,333.2
					c0-3.1-0.6-3.7-1.4-3.7c-0.8,0-1.4,0.6-1.4,3.7c0,3.1,0.6,3.8,1.4,3.8C106.1,337,106.7,336.2,106.7,333.2"/>
				<path style="clip-path:url(#SVGID_00000029728309200720516060000006945678614881211287_);fill:#00943C;" d="M113.7,333.8
					c0-4.9,3.6-8.1,7.9-8.1c3.8,0,6.2,2.6,6.2,6.2c0,3.2-2.2,4.8-4,4.8c-1,0-1.8-0.5-2-1.3h0c-0.5,0.7-1.4,1.2-2.1,1.2
					c-1.4,0-2.3-1-2.3-2.6c0-2.1,1.5-4.3,3.5-4.3c0.6,0,1,0.3,1.3,0.9h0l0.3-0.7h1.6l-0.8,3.9c-0.2,1,0,1.4,0.8,1.4
					c1.1,0,2-1.2,2-3.1c0-2.5-1.3-4.7-4.7-4.7c-3,0-5.9,2.5-5.9,6.4c0,3.4,2.4,5,5.1,5c0.9,0,1.9-0.3,2.6-0.7l0.6,1.5
					c-1.1,0.6-2.2,0.8-3.4,0.8C116.9,340.4,113.7,338.3,113.7,333.8 M121.3,334.2l0.4-2.3c-0.2-0.3-0.4-0.5-0.8-0.5
					c-1,0-1.6,1.4-1.6,2.4c0,0.7,0.3,1.1,0.9,1.1C120.6,334.9,120.9,334.7,121.3,334.2"/>
				<path style="clip-path:url(#SVGID_00000029728309200720516060000006945678614881211287_);fill:#00943C;" d="M145.9,326.6v1.3
					h-5.7v0.3h4.4v1.2h-10.9v-1.2h4.3v-0.3h-5.5v-1.3h5.5v-0.7h2.2v0.7H145.9z M132.5,332.5h13.3v2.3h-1.9v0.4h-0.7
					c0.5,0.3,1.1,0.7,1.4,1l-1,0.8h0.8v1.2h-4.3v0.3h5.6v1.4h-13.2v-1.4h5.4v-0.3h-3.9V337h3.9v-0.3c-2.4,0.1-2.8,0.1-3.2,0.2
					c-0.1-0.3-0.3-1-0.4-1.3c0.2,0,0.5-0.1,0.8-0.2c0.1,0,0.4-0.1,0.7-0.3h-1.7v-0.4h-1.6V332.5z M144.2,332.1h-10.1v-2.4h10.1
					V332.1z M134.4,334.1h9.3v-0.3h-9.3V334.1z M142.1,330.8h-5.9v0.3h5.9V330.8z M141,335.5c-0.2-0.1-0.4-0.2-0.6-0.3l0,0h-2.2
					c-0.2,0.1-0.5,0.3-0.7,0.4L141,335.5z M143.1,337c-0.1-0.1-0.3-0.2-0.5-0.4l-2.4,0.1v0.3H143.1z"/>
				<path style="clip-path:url(#SVGID_00000029728309200720516060000006945678614881211287_);fill:#00943C;" d="M155.3,335.9
					c-0.2-0.3-0.4-0.8-0.6-1.2v5.6h-2.1v-4.7c-0.4,0.9-0.8,1.7-1.3,2.4c-0.2-0.6-0.7-1.6-1-2.1c0.8-0.9,1.5-2.4,2-3.7h-1.9v-2h2.1
					v-1.4c-0.5,0.1-1,0.2-1.5,0.2c-0.1-0.5-0.3-1.2-0.6-1.7c1.7-0.3,3.6-0.7,4.9-1.2l1.2,1.8c-0.6,0.2-1.3,0.4-1.9,0.5v1.8h1.9v2
					h-1.9v0c0.4,0.3,1.6,1.6,1.9,2L155.3,335.9z M163.1,336.5v3.7h-2.2v-3.3l-4.4,0.8l-0.3-2.1l4.7-0.8v-8.8h2.2v8.5l1.4-0.2
					l0.3,2.1L163.1,336.5z M157.9,330.7c0.8,0.6,1.9,1.6,2.4,2.2l-1.5,1.4c-0.4-0.7-1.4-1.7-2.3-2.4L157.9,330.7z M159.2,330.4
					c-0.4-0.7-1.4-1.7-2.2-2.4l1.4-1.2c0.8,0.6,1.8,1.6,2.3,2.2L159.2,330.4z"/>
				<path style="clip-path:url(#SVGID_00000029728309200720516060000006945678614881211287_);fill:#00943C;" d="M177.6,332.1
					c1,2.7,2.7,4.9,5.5,6c-0.5,0.5-1.3,1.4-1.6,2.1c-2.7-1.2-4.3-3.2-5.5-5.9c-0.9,2.3-2.5,4.4-5.4,5.9c-0.3-0.6-1-1.4-1.7-1.9
					c3.3-1.5,4.7-3.8,5.3-6.2h-5v-2.3h5.4c0.1-1.3,0.1-2.7,0.1-3.9h2.4c0,1.2,0,2.6-0.1,3.9h5.8v2.3H177.6z"/>
			</g>
		</g>
	</g>
</g>
<g id="輸出佈置" class="st102">
	<path class="st110" d="M952,657.5c8.5,1.1,16.2-1.3,24.8,0.3c0,14.8,0,28.8,0,43.6c62.3,0,124.6,0,186.9,0c0-56.8,0-112.9,0-169.8
		c-30.1,0.1,0,3.4,0,0c-154.2,0-307.6,0-461.5-0.2"/>
</g>
</svg>
