<?xml version="1.0" encoding="utf-8"?>
<!-- Generator: Adobe Illustrator 27.3.1, SVG Export Plug-In . SVG Version: 6.00 Build 0)  -->
<svg version="1.1" xmlns="http://www.w3.org/2000/svg" xmlns:xlink="http://www.w3.org/1999/xlink" x="0px" y="0px"
	 viewBox="0 0 841.9 595.3" style="enable-background:new 0 0 841.9 595.3;" xml:space="preserve">
<style type="text/css">
	.st0{fill:#3B9838;}
	.st1{fill:none;stroke:#FFFFFF;stroke-width:2;stroke-linecap:round;stroke-linejoin:bevel;}
	.st2{opacity:0.73;}
	.st3{fill:#A0A0A0;stroke:#FFFFFF;stroke-width:2;stroke-linecap:round;stroke-linejoin:bevel;}
	.st4{fill:none;stroke:#B3B3B3;stroke-width:4.4344;stroke-linecap:round;stroke-miterlimit:10;}
	.st5{fill:#E6E6E6;}
	.st6{fill:#FFFEFF;}
	.st7{fill:#B3B3B3;}
	.st8{fill:none;stroke:#B3B3B3;stroke-width:4.4344;stroke-miterlimit:10;}
	.st9{fill:none;stroke:#FFFEFF;stroke-width:3;stroke-miterlimit:10;}
	.st10{fill:#12344C;}
	.st11{font-family:'SourceHanSansTC-Regular-B5pc-H';}
	.st12{font-size:14.7934px;}
	.st13{fill:#E98025;}
	.st14{fill:#808080;}
	.st15{fill:#FFE9BA;}
	.st16{fill:#3E3D4D;}
	.st17{fill:#BCC4C6;}
	.st18{fill:#D24635;}
	.st19{fill:#FCF3EE;}
	.st20{fill:#E8C72E;}
	.st21{fill:#E0A911;}
	.st22{fill:#0071BC;}
	.st23{font-family:'GenJyuuGothicL-Bold';}
	.st24{font-size:9.113px;}
	.st25{opacity:0.2;fill:none;stroke:#70931B;stroke-width:2;stroke-miterlimit:10;stroke-dasharray:4,4;}
	.st26{font-family:'SourceHanSansTC-Bold-B5pc-H';}
	.st27{font-size:16.569px;}
	.st28{font-family:'MicrosoftJhengHeiBold';}
	.st29{font-size:12px;}
	.st30{font-size:12.8777px;}
	.st31{font-family:'MicrosoftJhengHeiRegular';}
	.st32{font-size:9.5585px;}
	.st33{opacity:0.2;fill:none;stroke:#70931B;stroke-width:1.78;stroke-miterlimit:10;stroke-dasharray:3.56,3.56;}
	.st34{fill:#6B6B6B;}
	.st35{font-size:8.9802px;}
	.st36{font-size:11.9246px;}
	.st37{font-size:43px;}
	.st38{clip-path:url(#SVGID_00000075148330225969285130000003147210342899649448_);}
	.st39{clip-path:url(#SVGID_00000149369370179397977730000001485128186459518627_);fill:#00943C;}
	.st40{clip-path:url(#SVGID_00000007408778414786982780000009426641285606159019_);}
	.st41{clip-path:url(#SVGID_00000106110495734123247910000011164052703097009299_);fill:#00943C;}
	.st42{clip-path:url(#SVGID_00000001629363939011628580000017521850708133189768_);}
	.st43{clip-path:url(#SVGID_00000153667973020284940460000018411869378067853456_);fill:#00943C;}
	.st44{clip-path:url(#SVGID_00000070806507161789886000000010531968218850421156_);}
	.st45{clip-path:url(#SVGID_00000126318989108345244560000011664944761904777875_);fill:#00943C;}
	.st46{clip-path:url(#SVGID_00000141431542790854256130000004753077430204448432_);}
	.st47{clip-path:url(#SVGID_00000135688074595445434620000011500896835141503400_);fill:#00943C;}
	.st48{clip-path:url(#SVGID_00000147898718926210563940000017747618534570502327_);}
	.st49{clip-path:url(#SVGID_00000176026375863746910390000009295193836869192579_);fill:#00943C;}
	.st50{clip-path:url(#SVGID_00000124845524362753335160000016256273043505655194_);}
	.st51{clip-path:url(#SVGID_00000026883008887570974530000017601634784633846165_);fill:#00943C;}
	.st52{clip-path:url(#SVGID_00000057106671561268720320000000403182136604879536_);}
	.st53{clip-path:url(#SVGID_00000039816857246585333420000016095653664097640855_);fill:#00943C;}
	.st54{opacity:0.1;fill:#70931B;}
	.st55{fill:none;stroke:#FFFEFF;stroke-miterlimit:10;}
	.st56{fill:#FFFFFF;}
	.st57{fill:none;stroke:#FFFFFF;stroke-width:1.8113;}
	.st58{fill:#C1272D;}
	.st59{fill:#30AF00;}
	.st60{fill:#0076CB;}
	.st61{fill:#008061;}
	.st62{fill:#F5821F;}
	.st63{fill:#ED1B2D;}
	.st64{fill:#FF0000;}
	.st65{opacity:0.5;fill:url(#SVGID_00000036953152726530597250000017420185363089977779_);}
	.st66{opacity:0.5;fill:url(#SVGID_00000103253674271007268110000012262395460437807755_);}
	.st67{opacity:0.8;}
	.st68{fill-rule:evenodd;clip-rule:evenodd;fill:#D5E7D0;}
	.st69{fill:none;stroke:#040000;stroke-width:0.75;stroke-linejoin:round;stroke-miterlimit:8;}
	.st70{opacity:0;fill-rule:evenodd;clip-rule:evenodd;fill:#040000;}
	.st71{fill:#040000;}
	.st72{fill-rule:evenodd;clip-rule:evenodd;fill:#8FCFC9;}
	.st73{fill-rule:evenodd;clip-rule:evenodd;fill:#F2EA32;}
	.st74{fill-rule:evenodd;clip-rule:evenodd;fill:#040000;}
	.st75{fill-rule:evenodd;clip-rule:evenodd;fill:#FFFFFF;}
	.st76{opacity:0;fill-rule:evenodd;clip-rule:evenodd;}
	.st77{fill:none;stroke:#000000;stroke-width:0.75;stroke-linejoin:round;stroke-miterlimit:8;}
	.st78{fill-rule:evenodd;clip-rule:evenodd;fill:#D9EAD3;}
	.st79{opacity:0;fill-rule:evenodd;clip-rule:evenodd;stroke:#000000;stroke-width:0.75;stroke-miterlimit:10;}
	.st80{fill-rule:evenodd;clip-rule:evenodd;fill:#FCFCFC;stroke:#000000;stroke-width:0.75;stroke-miterlimit:10;}
	.st81{fill:none;stroke:#000000;stroke-width:0.5;stroke-linejoin:round;stroke-miterlimit:8;}
	.st82{fill-rule:evenodd;clip-rule:evenodd;fill:none;stroke:#000000;stroke-width:0.5;stroke-linejoin:round;stroke-miterlimit:8;}
	.st83{fill-rule:evenodd;clip-rule:evenodd;fill:#FFFFFF;stroke:#000000;stroke-width:0.5;stroke-miterlimit:10;}
	.st84{fill-rule:evenodd;clip-rule:evenodd;fill:#D5E7D0;stroke:#000000;stroke-width:0.5;stroke-miterlimit:10;}
	.st85{fill-rule:evenodd;clip-rule:evenodd;fill:#F2EA32;stroke:#000000;stroke-width:0.5;stroke-miterlimit:10;}
	.st86{opacity:0;fill-rule:evenodd;clip-rule:evenodd;fill:#040000;stroke:#000000;stroke-width:0.5;stroke-miterlimit:10;}
	.st87{fill:#D5E7D0;stroke:#000000;stroke-width:0.5;stroke-miterlimit:10;}
	.st88{fill-rule:evenodd;clip-rule:evenodd;fill:#FCFDFD;stroke:#000000;stroke-width:0.5;stroke-miterlimit:10;}
	
		.st89{fill-rule:evenodd;clip-rule:evenodd;fill:none;stroke:#040000;stroke-width:0.75;stroke-linejoin:round;stroke-miterlimit:8;}
	
		.st90{opacity:0;fill-rule:evenodd;clip-rule:evenodd;fill:none;stroke:#040000;stroke-width:0.75;stroke-linejoin:round;stroke-miterlimit:8;}
	.st91{fill:#D5E7D0;stroke:#040000;stroke-width:0.75;stroke-miterlimit:10;}
	.st92{opacity:0;fill-rule:evenodd;clip-rule:evenodd;fill:#040000;stroke:#040000;stroke-width:0.75;stroke-miterlimit:10;}
	.st93{fill-rule:evenodd;clip-rule:evenodd;fill:#FFFFFF;stroke:#040000;stroke-width:0.75;stroke-miterlimit:10;}
	.st94{fill-rule:evenodd;clip-rule:evenodd;fill:#FCFDFD;}
	.st95{fill-rule:evenodd;clip-rule:evenodd;fill:#D5E7D0;stroke:#040000;stroke-width:0.75;stroke-miterlimit:10;}
	.st96{fill-rule:evenodd;clip-rule:evenodd;fill:#FCFDFD;stroke:#040000;stroke-width:0.75;stroke-miterlimit:10;}
	.st97{clip-path:url(#SVGID_00000063622504676696661000000013993404140259310464_);}
	.st98{clip-path:url(#SVGID_00000039831329651658922380000007338750882861690548_);fill:#00943C;}
	.st99{clip-path:url(#SVGID_00000024705823147919209760000002166432244851896727_);}
	.st100{clip-path:url(#SVGID_00000064321692071284471010000007715057657354434746_);fill:#00943C;}
	.st101{clip-path:url(#SVGID_00000044152183585760483880000015960752213046997380_);}
	.st102{clip-path:url(#SVGID_00000174602067113791529220000002624389669175857035_);fill:#00943C;}
	.st103{display:none;}
	.st104{display:inline;fill:none;stroke:#F90000;stroke-width:8;stroke-miterlimit:10;}
	.st105{display:inline;fill:#F90000;}
	.st106{font-family:'SourceHanSansTW-Medium-B5pc-H';}
	.st107{font-size:10.7118px;}
	.st108{display:inline;}
	.st109{fill:#F90000;}
	.st110{display:inline;fill:none;stroke:#000000;stroke-miterlimit:10;}
	.st111{font-size:9.3394px;}
	.st112{font-size:9.7871px;}
	.st113{font-size:32.8161px;}
	.st114{font-size:12.2339px;glyph-orientation-vertical:0;writing-mode:tb;}
	.st115{display:inline;fill:none;stroke:#F90000;stroke-width:3;stroke-miterlimit:10;}
	.st116{display:inline;fill:none;stroke:#232323;stroke-miterlimit:10;}
	.st117{display:inline;fill:none;stroke:#F90000;stroke-miterlimit:10;}
	.st118{display:inline;fill:none;stroke:#B3B3B3;stroke-width:4.4344;stroke-linecap:round;stroke-miterlimit:10;}
	.st119{display:inline;fill:#E6E6E6;}
	.st120{display:inline;fill:#FFFEFF;}
	.st121{display:inline;fill:#B3B3B3;}
	.st122{display:inline;fill:none;stroke:#B3B3B3;stroke-width:4.4344;stroke-miterlimit:10;}
	.st123{display:inline;opacity:0.2;fill:none;stroke:#70931B;stroke-width:2;stroke-miterlimit:10;stroke-dasharray:4,4;}
</style>
<g id="建築">
	<polyline class="st4" points="541.3,222.7 571.9,222.7 571.9,277 802,277 802,67.7 587.1,67.7 571.9,67.7 336.1,67.7 336.1,67.7 
		49.8,67.7 49.8,277 336.1,277 336.1,222.7 412.1,222.7 	"/>
	<rect x="56.8" y="81.4" class="st5" width="135.7" height="93.2"/>
	<rect x="195.3" y="81.4" class="st5" width="124.2" height="93.2"/>
	<rect x="322.4" y="81.4" class="st5" width="136" height="93.2"/>
	<rect x="461.2" y="81.4" class="st5" width="117.3" height="93.2"/>
	<rect x="581.4" y="81.4" class="st5" width="82.7" height="93.2"/>
	<polygon class="st5" points="795.4,73.8 795.4,174.6 667,174.6 667,81.4 751.6,81.4 751.6,73.8 	"/>
	<g>
		<rect x="601.4" y="210.4" class="st5" width="43.7" height="14.5"/>
		<polygon class="st5" points="646.1,227.8 646.1,270.8 579.5,270.8 579.5,209 598.5,209 598.5,227.8 		"/>
	</g>
	<rect x="213.5" y="209.4" class="st5" width="33.9" height="15.5"/>
	<polygon class="st5" points="210.6,227.8 247.8,227.8 247.8,270.8 173,270.8 173,209 210.6,209 	"/>
	<rect x="250.7" y="209" class="st5" width="75.4" height="61.8"/>
	<rect x="648.8" y="245.6" class="st5" width="27.4" height="25.2"/>
	<rect x="679.1" y="209" class="st5" width="69.2" height="61.8"/>
	<rect x="751.2" y="209" class="st5" width="44.2" height="61.8"/>
	<rect x="56.3" y="217.5" class="st5" width="85.6" height="53.3"/>
	<rect x="144.7" y="246" class="st5" width="25.2" height="24.7"/>
	<rect x="748.3" y="270.8" class="st6" width="2.9" height="0.2"/>
	<rect x="250.2" y="208.3" class="st6" width="0.4" height="0.6"/>
	
		<rect x="565.3" y="210.9" transform="matrix(-1 -1.224647e-16 1.224647e-16 -1 1139.2333 432.9458)" class="st7" width="8.6" height="11.2"/>
	<line class="st4" x1="491.6" y1="222.7" x2="455.5" y2="222.7"/>
</g>
<g id="標示">
	<text transform="matrix(1 0 0 1 697.4188 258.9204)" class="st10 st11 st12">Toilet</text>
	<g id="o3AOjT_00000057149985531949635650000004990241417605628056_">
		<g>
			<g>
				<path class="st10" d="M715.1,227c0.4-0.4,0.8-0.7,1.1-1.1c0.5-0.6,1.1-0.5,1.4,0.2c1.5,3.8,2.9,7.6,4.4,11.4
					c0.3,0.8-0.2,1.5-1,1.6c-0.2,0-0.4,0-0.6,0c-3.4,0-6.9,0-10.3,0c-0.2,0-0.4,0-0.6,0c-1-0.1-1.4-0.8-1.1-1.7
					c0.7-1.9,1.5-3.9,2.2-5.8c0.7-1.8,1.4-3.6,2.1-5.4c0.3-0.7,0.8-0.8,1.4-0.3C714.5,226.2,714.8,226.6,715.1,227z"/>
				<path class="st10" d="M715.2,224.6c-2.1,0-3.9-1.6-3.8-3.9c0-2.1,1.6-3.8,3.9-3.8c2.1,0,3.8,1.7,3.8,3.8
					C719.1,222.8,717.3,224.6,715.2,224.6z"/>
			</g>
		</g>
	</g>
	<g id="s8VYHe_00000053511752855012730980000001435505588940147872_">
		<g>
			<path class="st13" d="M663.5,241.2c1.4,0,2.8,0,4.1,0c0.5,0,0.9,0.3,1,0.8c0.1,0.6-0.3,1.1-1,1.1c-1,0-1.9,0-2.9,0
				c-0.2,0-0.2,0-0.2,0.2c0,0.9,0,1.8,0,2.7c0,0.1,0,0.2,0.2,0.2c0.5,0,0.9,0.5,1,1c0,0.2,0,0.2,0.2,0.2c1.3,0,2.6,0,3.9,0
				c0.2,0,0.2,0,0.2-0.2c0-0.8,0-1.6,0-2.5c0-0.4,0.2-0.6,0.7-0.6c0.3,0,0.6,0,1,0c0.1,0,0.1,0,0.2,0.2c0,0.5,0,1.1,0,1.6
				c0,0.5,0,0.9,0,1.4c0,0.5,0,1.1,0,1.6c0,0.5,0,1,0,1.6c0,0.2,0,0.4,0,0.6c0,0.5,0,1,0,1.6c0,0.3,0,0.5,0,0.8c0,0.2,0,0.2-0.2,0.2
				c-0.3,0-0.6,0-1,0c-0.4,0-0.6-0.2-0.6-0.6c0-0.8,0-1.7,0-2.5c0-0.2,0-0.2-0.2-0.2c-0.5,0-1.1,0-1.6,0c-0.5,0-1,0-1.4,0
				c-0.3,0-0.6,0-0.8,0c-0.2,0-0.2,0-0.2,0.2c-0.1,0.6-0.6,1-1.2,1c-0.6,0-1.3,0-1.9,0c-0.6,0-1.1-0.4-1.2-1c0-0.1-0.1-0.1-0.2-0.1
				c-0.3,0-0.7,0-1,0c-0.6,0-1.2,0-1.8,0c-0.2,0-0.5,0-0.7,0.1c-0.5,0.2-0.9,0.7-0.9,1.3c0,0.5,0,1,0,1.6c0,0.6,0,1.1,0,1.7
				c0,0.1,0,0.1-0.1,0.1c-0.9,0-1.9,0-2.8,0c-0.1,0-0.1-0.1-0.1-0.2c0-0.5,0-1,0-1.5c0-0.8,0-1.6,0-2.4c0-0.6,0.2-1.1,0.5-1.5
				c0.6-0.9,1.5-1.5,2.5-1.8c0.7-0.2,1.4-0.3,2.1-0.3c0.8,0,1.6,0,2.4,0c0.1,0,0.2,0,0.2-0.1c0.1-0.6,0.5-1,1-1
				c0.1,0,0.1-0.1,0.1-0.2c0-0.9,0-1.9,0-2.8c0-0.1,0-0.2-0.2-0.2c-1,0-1.9,0-2.9,0c-0.5,0-0.8-0.3-1-0.7c-0.2-0.6,0.3-1.2,0.9-1.2
				c0.8,0,1.5,0,2.3,0C662.2,241.2,662.9,241.2,663.5,241.2C663.5,241.2,663.5,241.2,663.5,241.2z"/>
			<path class="st13" d="M655,257.7c1.6,0,3.2,0,4.8,0c0.2,0,0.2,0,0.2,0.2c-0.1,0.9-0.2,1.8-0.3,2.7c-0.1,0.9-0.2,1.8-0.3,2.7
				c-0.1,0.7-0.2,1.4-0.2,2.1c0,0.5-0.1,1-0.2,1.6c-0.1,0.8-0.2,1.6-0.3,2.4c0,0.2,0,0.2-0.2,0.2c-0.5,0-1,0-1.5,0c-0.5,0-1,0-1.6,0
				c-0.5,0-1.1,0-1.6,0c-0.2,0-0.4,0-0.6,0c-0.5,0-1.1,0-1.6,0c-0.1,0-0.2,0-0.2-0.1c-0.1-0.7-0.2-1.3-0.2-2
				c-0.1-0.7-0.2-1.4-0.2-2.2c-0.1-0.5-0.1-1.1-0.2-1.6c-0.1-0.7-0.2-1.4-0.2-2.2c-0.1-0.6-0.1-1.1-0.2-1.7c-0.1-0.7-0.1-1.3-0.2-2
				c0-0.1,0.1-0.1,0.2-0.1c0.8,0,1.7,0,2.5,0C653.5,257.7,654.3,257.7,655,257.7C655,257.7,655,257.7,655,257.7z M655.1,261.1
				c1.1,0,2.2,0,3.4,0c0.1,0,0.2,0,0.2-0.2c0.1-0.6,0.1-1.3,0.2-1.9c0-0.2,0-0.2-0.2-0.2c-0.6,0-1.2,0-1.8,0c-0.2,0-0.5,0-0.7,0
				c-0.5,0-1,0-1.6,0c-0.5,0-1,0-1.6,0c-0.5,0-1,0-1.6,0c-0.2,0-0.2,0-0.2,0.2c0,0.3,0.1,0.6,0.1,1c0,0.3,0.1,0.6,0.1,1
				c0,0.1,0.1,0.2,0.2,0.2c0.1,0,0.1,0,0.2,0C653,261.1,654,261.1,655.1,261.1z"/>
		</g>
	</g>
	<g id="BbVIEC_00000017500820028028337350000013913545213567569306_">
		<g>
			<g>
				<path class="st14" d="M599.2,261.1c0-8.3,0-16.5,0-24.8c0-0.5,0.1-0.5,0.5-0.5c1.5,0,3,0,4.5,0c0.3,0.2,0.3,0.5,0.3,0.8
					c0,1.2,0,2.4,0,3.6c0,0.6,0.1,0.8,0.8,0.8c1.2,0,2.4,0,3.6,0c0.8,0,0.9,0.1,0.9,0.9c0,1.2,0,2.3,0,3.5c0,0.8,0.1,0.9,0.9,0.9
					c1.2,0,2.4,0,3.6,0c0.6,0,0.8,0.2,0.8,0.8c0,1.2,0,2.4,0,3.6c0,0.7,0.1,0.8,0.8,0.8c1.2,0,2.3,0,3.5,0c0.9,0,1,0.1,1,1
					c0,1.2,0,2.3,0,3.5c0,0.7,0.1,0.8,0.9,0.8c1.2,0,2.4,0,3.6,0c0.7,0,0.8,0.2,0.8,0.8c0,1.1,0,2.3,0,3.4c0,1.1-0.1,1.1-1.1,1.1
					c-7.7,0-15.5,0-23.2,0C600.4,262.2,599.7,261.9,599.2,261.1z M605.6,253.2C605.6,253.2,605.6,253.2,605.6,253.2
					c0,0.7,0,1.4,0,2.2c0,0.6,0.4,0.6,0.8,0.6c0.4,0,0.8,0,0.8-0.6c0-0.4,0-0.9,0-1.3c0-0.2-0.1-0.4,0.1-0.5
					c0.2-0.1,0.3,0.1,0.4,0.2c1.3,1.2,2.5,2.5,3.7,3.7c0.6,0.6,0.7,0.6,1.2,0.1c0.5-0.5,0.5-0.7-0.1-1.2c-0.1-0.1-0.2-0.2-0.4-0.4
					c-1.1-1.1-2.3-2.3-3.4-3.4c-0.1-0.1-0.3-0.2-0.2-0.4c0.1-0.1,0.2-0.1,0.4-0.1c0.4,0,0.9,0,1.3,0c0.5,0,0.7-0.2,0.7-0.7
					c0-0.7-0.1-0.9-0.7-0.9c-1.4,0-2.7,0-4.1,0c-0.5,0-0.7,0.2-0.7,0.7C605.6,251.9,605.6,252.5,605.6,253.2z"/>
				<path class="st14" d="M620.1,243.4c0-0.7,0-1.2,0-1.7c0-0.6,0.2-0.8,0.8-0.8c0.7,0,1,0.1,1.1,0.7c0,1.4,0,2.9,0,4.3
					c0,0.5-0.3,0.7-0.8,0.7c-1.4,0-2.8,0-4.2,0c-0.6,0-0.8-0.3-0.8-1c0-0.7,0.2-0.9,0.8-0.9c0.5,0,1,0,1.5,0
					c0.1-0.3-0.2-0.4-0.3-0.6c-1.2-1.2-2.3-2.3-3.5-3.5c-0.7-0.7-0.5-1.4,0.4-1.8c0.4-0.2,0.6,0.1,0.8,0.3c1.2,1.2,2.4,2.4,3.6,3.6
					C619.7,243.1,619.8,243.2,620.1,243.4z"/>
			</g>
		</g>
	</g>
	<g>
		<path class="st15" d="M72.4,193.8c-4.2,0-7.6,2.7-7.5,3.1c0.7,3.4,3.7,5.9,7.4,5.9c3.7,0,6.7-2.5,7.4-5.9
			C79.9,196.6,76.6,193.8,72.4,193.8z"/>
		<g>
			<g>
				<g>
					<path class="st16" d="M68.2,199.3c1.7,0,3.2-1.1,3.5-2.6c-0.6-1.2-1.9-2-3.4-2c-1.5,0-2.8,0.8-3.4,1.9
						C65.1,198.1,66.5,199.3,68.2,199.3z"/>
				</g>
			</g>
			<path class="st17" d="M68.9,194.7c0,0,0.3,1.1,0.3,1.8c0,0.7-0.1,2.5-0.1,2.5s1-0.5,1.3-1.5C70.8,196.5,70.5,194.9,68.9,194.7z"
				/>
			<path class="st16" d="M79.4,196.4c0,0.1,0,0.2,0,0.3c-0.4,1.3-2.4,2.5-2.4,2.5s0.1-1.8,0.1-2.5c0-0.7-0.3-1.8-0.3-1.8
				c0.3,0,0.6,0.1,0.8,0.2c-0.4-0.1-0.8-0.2-1.2-0.2c-1.5,0-2.8,0.8-3.4,1.9c0.2,1.5,1.6,2.7,3.3,2.7c1.7,0,3.2-1.1,3.5-2.6
				C79.6,196.8,79.5,196.6,79.4,196.4z"/>
			<path class="st17" d="M77.1,196.8c0,0.7-0.1,2.5-0.1,2.5s2-1.2,2.4-2.5c0-0.1,0-0.2,0-0.3c-0.4-0.6-1.1-1-1.8-1.3
				c-0.3-0.1-0.5-0.1-0.8-0.2C76.8,195,77.1,196.1,77.1,196.8z"/>
			<path class="st18" d="M81.1,189.1c0-0.1,0-0.2,0-0.3c0-0.1-0.1-0.2-0.2-0.1l-2.5,0.5c0,0,0,0,0,0c0.5-0.5,1.1-2.5,1.2-3
				c0.1-0.3,0.1-0.6,0.1-0.7c0-0.1-0.1-0.1-0.2-0.1l-3.5,1.2c0.1-0.5,0-3-0.1-3.6c0-0.2-0.2-0.3-0.2-0.3c0,0-0.1,0-0.1,0l-4.7,3.9
				c-3.9,0.7-6.9,4.2-6.9,8.5c0,4.7,3.7,8.6,8.4,8.6c4.6,0,8.4-3.8,8.4-8.6c0-1.1-0.2-2.2-0.6-3.1c0-0.2,0.1-0.3,0.3-0.6
				C80.8,190.6,81.1,189.5,81.1,189.1z M79.8,197c-0.7,3.4-3.7,5.9-7.4,5.9c-3.7,0-6.8-2.6-7.4-5.9c-0.1-0.4,3.3-3.1,7.5-3.1
				S79.9,196.6,79.8,197z"/>
		</g>
		<g>
			<circle class="st19" cx="68.7" cy="190.8" r="2.5"/>
			<g>
				<path class="st16" d="M69.9,189.7c0,0.4-0.4,0.7-0.8,0.7c-0.4,0-0.8-0.3-0.8-0.8c0-0.2,0.1-0.4,0.2-0.5
					c-0.8,0.1-1.4,0.7-1.4,1.6c0,0.9,0.7,1.6,1.6,1.6s1.6-0.7,1.6-1.6C70.3,190.4,70.2,190,69.9,189.7z"/>
			</g>
		</g>
		<g>
			<circle class="st19" cx="76.2" cy="191" r="2.5"/>
			<g>
				<path class="st16" d="M75,190c0,0.4,0.4,0.7,0.8,0.7c0.4,0,0.8-0.3,0.8-0.8c0-0.2-0.1-0.4-0.2-0.5c0.8,0.1,1.4,0.7,1.4,1.6
					c0,0.9-0.7,1.6-1.6,1.6s-1.6-0.7-1.6-1.6C74.6,190.6,74.7,190.3,75,190z"/>
			</g>
		</g>
		<g>
			<path class="st20" d="M79.1,195.4c-0.1-0.4-0.6-0.8-1.9-1.3c-0.9-0.4-3.1-1.3-4.1-1.6c-0.3-0.1-0.6-0.1-0.9,0
				c-0.9,0.3-3.1,0.9-4.1,1.3c-1.2,0.5-1.8,0.7-1.9,1.1c-0.1,0.3,0,0.6,0.3,0.9c0.3,0.3,2.3,2.1,2.9,2.6c0.6,0.5,2,1.5,2.3,1.7
				c0.2,0.1,0.5,0.2,0.7,0.3l0,0c0,0,0,0,0,0c0.1,0,0.4,0,0.5,0c0,0,0,0,0,0l0,0c0.2,0,0.5-0.2,0.7-0.3c0.3-0.2,1.8-1.2,2.4-1.7
				c0.6-0.5,2.4-1.8,2.6-2.1C79,196,79.2,195.7,79.1,195.4z"/>
			<path class="st21" d="M72.8,193c0,0,0,0.1,0.1,0.1c0.1,0.1,0.1,0.2,0.1,0.2s0.1,1.6,0,2.9s-0.2,3.4-0.2,3.4s0.4-3,0.5-3.5
				c0.1-0.5,0.3-2.3,0.2-2.5S73.2,193,72.8,193z"/>
		</g>
	</g>
	<g>
		<g>
			<path class="st10" d="M96.8,232.7c0,0.3-0.3,0.4-0.3,0.7c0,0.2,0.1,0.4,0.3,0.6c0.5,0.3,0.5,0.8,0.4,1.3
				c-0.2,1.5-0.3,2.9-0.5,4.4c-0.1,0.6,0.3,0.9,0.5,1.4c0.9-0.8,0.6-1.7,0.5-2.6c-0.1-1.2-0.3-2.3-0.4-3.5c0-0.4,0-0.6,0.3-0.9
				c0.2-0.1,0.4-0.3,0.5-0.6c-0.1-0.2-0.3-0.4-0.4-0.6c0.1-0.2,0.3-0.2,0.5-0.2c1,0,2,0,3,0c1.5,0,2.5,1.4,2,2.8
				c-0.9,2.4-1.8,4.7-2.7,7c-0.4,1-0.7,2-1.2,2.9c-0.5,0.8-1.4,1.1-2.3,0.9c-1.1-0.2-1.6-0.9-2-1.9c-0.8-2.1-1.6-4.1-2.4-6.2
				c-0.4-1-0.7-1.9-1.1-2.9c-0.5-1.4,0.4-2.8,1.9-2.8C94.4,232.7,95.6,232.7,96.8,232.7z"/>
			<path class="st10" d="M97.3,232.1c-2.3,0-4.1-1.7-4.1-3.9c0-2.2,1.7-4,3.9-4c2.2,0,4,1.7,4.1,3.9C101.2,230,99.8,232,97.3,232.1z
				"/>
		</g>
	</g>
	<text transform="matrix(1 0 0 1 78.8943 262.1304)" class="st10 st11 st12">Toilet</text>
	<g id="mGfqoG_00000096779161282385665900000017548916934290746278_">
		<g>
			<path class="st22" d="M276.2,229.3c0,1.7,0,3.4,0,5.1c0,2.1-1.4,3.4-3.5,3.5c-3.4,0-6.8,0-10.2,0c-2.2,0-3.5-1.4-3.5-3.5
				c0-3.4,0-6.8,0-10.1c0-2.2,1.4-3.6,3.6-3.6c3.4,0,6.7,0,10.1,0c2.2,0,3.6,1.4,3.6,3.6c0,0.8,0,1.7,0,2.5
				C276.2,227.6,276.2,228.4,276.2,229.3z M267.6,221.9C267.6,221.9,267.6,221.9,267.6,221.9c-1.7,0-3.4,0-5.1,0
				c-1.5,0-2.3,0.8-2.3,2.3c0,3.4,0,6.7,0,10.1c0,1.5,0.8,2.4,2.3,2.4c3.4,0,6.9,0,10.3,0c1.4,0,2.3-0.9,2.3-2.3c0-3.4,0-6.9,0-10.3
				c0-1.4-0.9-2.2-2.3-2.2C271,221.9,269.3,221.9,267.6,221.9z"/>
			<path class="st22" d="M263,217.2c0-0.8,0-1.5,0-2.3c0-0.4,0-0.8,0-1.2c0-0.7,0.2-1.1,0.7-1.1c0.4,0,0.7,0.4,0.7,1.1
				c0,0.9,0,1.9,0,2.8c0,0.2-0.1,0.4,0.1,0.5c0.2,0.1,0.3-0.2,0.4-0.3c0.4-0.4,0.7-0.7,1.1-1.1c0.3-0.3,0.6-0.3,0.9,0
				c0.3,0.3,0.4,0.6,0.1,0.9c-1,1.1-2,2.1-3,3.1c-0.2,0.2-0.6,0.2-0.8-0.1c-0.9-1-1.9-2-2.8-3c-0.3-0.3-0.2-0.7,0.1-1
				c0.3-0.3,0.6-0.2,0.9,0.1c0.5,0.5,0.9,1,1.4,1.5C262.9,217.2,262.9,217.2,263,217.2z"/>
			<path class="st22" d="M270.7,215.1c-0.6,0.6-1,1-1.4,1.5c-0.4,0.4-0.7,0.5-1.1,0.2c-0.3-0.3-0.3-0.7,0.1-1.1
				c0.8-0.9,1.7-1.8,2.5-2.7c0.4-0.4,0.7-0.5,1.1,0c0.9,0.9,1.7,1.8,2.5,2.7c0.4,0.4,0.4,0.9,0.1,1.2c-0.4,0.4-0.7,0.1-1.1-0.2
				c-0.4-0.4-0.9-0.8-1.4-1.3c-0.1,0.3,0,0.6-0.1,0.9c0,0.9,0,1.9,0,2.8c0,0.5-0.1,0.9-0.7,0.9c-0.5,0-0.7-0.4-0.7-0.8
				c0-1.1,0-2.2,0-3.3C270.7,215.5,270.7,215.4,270.7,215.1z"/>
			<path class="st22" d="M271.9,231.8c0,0.9,0,1.8,0,2.7c0,0.2,0,0.4,0,0.6c0,0.4,0,0.8-0.6,0.8c-0.5,0-0.5-0.4-0.5-0.8
				c0-0.9,0-1.8,0-2.6c0-0.4,0-0.9-0.4-1.2c-0.2-0.1-0.2-0.4-0.2-0.6c0-1.1,0-2.3,0-3.4c0-0.7,0.3-1,0.9-1c0.5,0,1.1,0,1.6,0
				c0.6,0,0.8,0.3,0.8,0.9c0,1.2,0,2.4,0,3.6c0,0.2,0,0.5-0.2,0.6c-0.4,0.3-0.4,0.6-0.4,1c0,0.9,0,1.7,0,2.6c0,0.4,0.1,0.9-0.5,0.9
				c-0.6,0-0.5-0.5-0.5-0.9c0-1,0-2.1,0-3.1C272,231.8,272,231.8,271.9,231.8z"/>
			<path class="st22" d="M263,231.7c0,1.1,0,2.3,0,3.4c0,0.4-0.1,0.7-0.6,0.7c-0.4,0-0.5-0.3-0.5-0.7c0-1,0-2,0-3
				c0-0.3,0-0.7-0.3-0.9c-0.2-0.2-0.2-0.4-0.2-0.7c0-1.1,0-2.3,0-3.4c0-0.7,0.3-1,1-1c0.5,0,1,0,1.5,0c0.6,0,0.9,0.3,0.9,0.9
				c0,1.2,0,2.4,0,3.5c0,0.2,0,0.5-0.2,0.6c-0.4,0.3-0.4,0.7-0.4,1c0,0.9,0,1.9,0,2.8c0,0.3,0,0.5-0.3,0.7c-0.4,0.2-0.7,0-0.7-0.6
				c0-1,0-2,0-3c0-0.1,0-0.3,0-0.4C263.1,231.7,263.1,231.7,263,231.7z"/>
			<path class="st22" d="M267.5,231.7c0,1.1,0,2.2,0,3.3c0,0.2,0,0.4-0.1,0.6c-0.2,0.2-0.4,0.2-0.6,0.1c-0.3-0.1-0.4-0.3-0.4-0.6
				c0-1,0-1.9,0-2.9c0-0.4,0-0.7-0.4-1c-0.2-0.1-0.2-0.4-0.2-0.6c0-1.2,0-2.4,0-3.5c0-0.6,0.3-0.9,1-0.9c0.5,0,1,0,1.5,0
				c0.6,0,0.9,0.3,0.9,1c0,1.2,0,2.4,0,3.5c0,0.2,0,0.4-0.2,0.6c-0.4,0.3-0.4,0.7-0.4,1.2c0,0.9,0,1.7,0,2.6c0,0.4,0,0.8-0.6,0.8
				c-0.6,0-0.5-0.4-0.5-0.8c0-1.1,0-2.2,0-3.3C267.5,231.7,267.5,231.7,267.5,231.7z"/>
			<path class="st22" d="M268.8,224.8c0,0.7-0.6,1.3-1.3,1.2c-0.6,0-1.2-0.6-1.2-1.2c0-0.7,0.6-1.3,1.2-1.3
				C268.2,223.5,268.8,224.1,268.8,224.8z"/>
			<path class="st22" d="M273.2,224.8c0,0.7-0.6,1.3-1.2,1.3c-0.6,0-1.2-0.6-1.3-1.2c0-0.7,0.6-1.3,1.2-1.3
				C272.6,223.5,273.2,224.1,273.2,224.8z"/>
			<path class="st22" d="M263.1,226c-0.7,0-1.2-0.6-1.2-1.3c0-0.6,0.6-1.2,1.2-1.2c0.7,0,1.3,0.6,1.3,1.2
				C264.4,225.5,263.8,226,263.1,226z"/>
		</g>
	</g>
	<g id="mGfqoG_00000120537831333825198240000003620675690789061807_">
		<g>
			<path class="st22" d="M276.2,258.9c0,1.7,0,3.4,0,5.1c0,2.1-1.4,3.4-3.5,3.5c-3.4,0-6.8,0-10.2,0c-2.2,0-3.5-1.4-3.5-3.5
				c0-3.4,0-6.8,0-10.1c0-2.2,1.4-3.6,3.6-3.6c3.4,0,6.7,0,10.1,0c2.2,0,3.6,1.4,3.6,3.6c0,0.8,0,1.7,0,2.5
				C276.2,257.2,276.2,258.1,276.2,258.9z M267.6,251.5C267.6,251.5,267.6,251.5,267.6,251.5c-1.7,0-3.4,0-5.1,0
				c-1.5,0-2.3,0.8-2.3,2.3c0,3.4,0,6.7,0,10.1c0,1.5,0.8,2.4,2.3,2.4c3.4,0,6.9,0,10.3,0c1.4,0,2.3-0.9,2.3-2.3c0-3.4,0-6.9,0-10.3
				c0-1.4-0.9-2.2-2.3-2.2C271,251.5,269.3,251.5,267.6,251.5z"/>
			<path class="st22" d="M263,246.8c0-0.8,0-1.5,0-2.3c0-0.4,0-0.8,0-1.2c0-0.7,0.2-1.1,0.7-1.1c0.4,0,0.7,0.4,0.7,1.1
				c0,0.9,0,1.9,0,2.8c0,0.2-0.1,0.4,0.1,0.5c0.2,0.1,0.3-0.2,0.4-0.3c0.4-0.4,0.7-0.7,1.1-1.1c0.3-0.3,0.6-0.3,0.9,0
				c0.3,0.3,0.4,0.6,0.1,0.9c-1,1.1-2,2.1-3,3.1c-0.2,0.2-0.6,0.2-0.8-0.1c-0.9-1-1.9-2-2.8-3c-0.3-0.3-0.2-0.7,0.1-1
				c0.3-0.3,0.6-0.2,0.9,0.1c0.5,0.5,0.9,1,1.4,1.5C262.9,246.9,262.9,246.8,263,246.8z"/>
			<path class="st22" d="M270.7,244.7c-0.6,0.6-1,1-1.4,1.5c-0.4,0.4-0.7,0.5-1.1,0.2c-0.3-0.3-0.3-0.7,0.1-1.1
				c0.8-0.9,1.7-1.8,2.5-2.7c0.4-0.4,0.7-0.5,1.1,0c0.9,0.9,1.7,1.8,2.5,2.7c0.4,0.4,0.4,0.9,0.1,1.2c-0.4,0.4-0.7,0.1-1.1-0.2
				c-0.4-0.4-0.9-0.8-1.4-1.3c-0.1,0.3,0,0.6-0.1,0.9c0,0.9,0,1.9,0,2.8c0,0.5-0.1,0.9-0.7,0.9c-0.5,0-0.7-0.4-0.7-0.8
				c0-1.1,0-2.2,0-3.3C270.7,245.2,270.7,245.1,270.7,244.7z"/>
			<path class="st22" d="M271.9,261.4c0,0.9,0,1.8,0,2.7c0,0.2,0,0.4,0,0.6c0,0.4,0,0.8-0.6,0.8c-0.5,0-0.5-0.4-0.5-0.8
				c0-0.9,0-1.8,0-2.6c0-0.4,0-0.9-0.4-1.2c-0.2-0.1-0.2-0.4-0.2-0.6c0-1.1,0-2.3,0-3.4c0-0.7,0.3-1,0.9-1c0.5,0,1.1,0,1.6,0
				c0.6,0,0.8,0.3,0.8,0.9c0,1.2,0,2.4,0,3.6c0,0.2,0,0.5-0.2,0.6c-0.4,0.3-0.4,0.6-0.4,1c0,0.9,0,1.7,0,2.6c0,0.4,0.1,0.9-0.5,0.9
				c-0.6,0-0.5-0.5-0.5-0.9c0-1,0-2.1,0-3.1C272,261.4,272,261.4,271.9,261.4z"/>
			<path class="st22" d="M263,261.4c0,1.1,0,2.3,0,3.4c0,0.4-0.1,0.7-0.6,0.7c-0.4,0-0.5-0.3-0.5-0.7c0-1,0-2,0-3
				c0-0.3,0-0.7-0.3-0.9c-0.2-0.2-0.2-0.4-0.2-0.7c0-1.1,0-2.3,0-3.4c0-0.7,0.3-1,1-1c0.5,0,1,0,1.5,0c0.6,0,0.9,0.3,0.9,0.9
				c0,1.2,0,2.4,0,3.5c0,0.2,0,0.5-0.2,0.6c-0.4,0.3-0.4,0.7-0.4,1c0,0.9,0,1.9,0,2.8c0,0.3,0,0.5-0.3,0.7c-0.4,0.2-0.7,0-0.7-0.6
				c0-1,0-2,0-3c0-0.1,0-0.3,0-0.4C263.1,261.4,263.1,261.4,263,261.4z"/>
			<path class="st22" d="M267.5,261.4c0,1.1,0,2.2,0,3.3c0,0.2,0,0.4-0.1,0.6c-0.2,0.2-0.4,0.2-0.6,0.1c-0.3-0.1-0.4-0.3-0.4-0.6
				c0-1,0-1.9,0-2.9c0-0.4,0-0.7-0.4-1c-0.2-0.1-0.2-0.4-0.2-0.6c0-1.2,0-2.4,0-3.5c0-0.6,0.3-0.9,1-0.9c0.5,0,1,0,1.5,0
				c0.6,0,0.9,0.3,0.9,1c0,1.2,0,2.4,0,3.5c0,0.2,0,0.4-0.2,0.6c-0.4,0.3-0.4,0.7-0.4,1.2c0,0.9,0,1.7,0,2.6c0,0.4,0,0.8-0.6,0.8
				c-0.6,0-0.5-0.4-0.5-0.8c0-1.1,0-2.2,0-3.3C267.5,261.4,267.5,261.4,267.5,261.4z"/>
			<path class="st22" d="M268.8,254.4c0,0.7-0.6,1.3-1.3,1.2c-0.6,0-1.2-0.6-1.2-1.2c0-0.7,0.6-1.3,1.2-1.3
				C268.2,253.2,268.8,253.8,268.8,254.4z"/>
			<path class="st22" d="M273.2,254.4c0,0.7-0.6,1.3-1.2,1.3c-0.6,0-1.2-0.6-1.3-1.2c0-0.7,0.6-1.3,1.2-1.3
				C272.6,253.2,273.2,253.7,273.2,254.4z"/>
			<path class="st22" d="M263.1,255.7c-0.7,0-1.2-0.6-1.2-1.3c0-0.6,0.6-1.2,1.2-1.2c0.7,0,1.3,0.6,1.3,1.2
				C264.4,255.1,263.8,255.7,263.1,255.7z"/>
		</g>
	</g>
	<g id="mGfqoG_00000021110471121877568900000016713589347228773297_">
		<g>
			<path class="st22" d="M320.8,229.3c0,1.7,0,3.4,0,5.1c0,2.1-1.4,3.4-3.5,3.5c-3.4,0-6.8,0-10.2,0c-2.2,0-3.5-1.4-3.5-3.5
				c0-3.4,0-6.8,0-10.1c0-2.2,1.4-3.6,3.6-3.6c3.4,0,6.7,0,10.1,0c2.2,0,3.6,1.4,3.6,3.6c0,0.8,0,1.7,0,2.5
				C320.8,227.6,320.8,228.4,320.8,229.3z M312.2,221.9C312.2,221.9,312.2,221.9,312.2,221.9c-1.7,0-3.4,0-5.1,0
				c-1.5,0-2.3,0.8-2.3,2.3c0,3.4,0,6.7,0,10.1c0,1.5,0.8,2.4,2.3,2.4c3.4,0,6.9,0,10.3,0c1.4,0,2.3-0.9,2.3-2.3c0-3.4,0-6.9,0-10.3
				c0-1.4-0.9-2.2-2.3-2.2C315.6,221.9,313.9,221.9,312.2,221.9z"/>
			<path class="st22" d="M307.6,217.2c0-0.8,0-1.5,0-2.3c0-0.4,0-0.8,0-1.2c0-0.7,0.2-1.1,0.7-1.1c0.4,0,0.7,0.4,0.7,1.1
				c0,0.9,0,1.9,0,2.8c0,0.2-0.1,0.4,0.1,0.5c0.2,0.1,0.3-0.2,0.4-0.3c0.4-0.4,0.7-0.7,1.1-1.1c0.3-0.3,0.6-0.3,0.9,0
				c0.3,0.3,0.4,0.6,0.1,0.9c-1,1.1-2,2.1-3,3.1c-0.2,0.2-0.6,0.2-0.8-0.1c-0.9-1-1.9-2-2.8-3c-0.3-0.3-0.2-0.7,0.1-1
				c0.3-0.3,0.6-0.2,0.9,0.1c0.5,0.5,0.9,1,1.4,1.5C307.5,217.2,307.5,217.2,307.6,217.2z"/>
			<path class="st22" d="M315.3,215.1c-0.6,0.6-1,1-1.4,1.5c-0.4,0.4-0.7,0.5-1.1,0.2c-0.3-0.3-0.3-0.7,0.1-1.1
				c0.8-0.9,1.7-1.8,2.5-2.7c0.4-0.4,0.7-0.5,1.1,0c0.9,0.9,1.7,1.8,2.5,2.7c0.4,0.4,0.4,0.9,0.1,1.2c-0.4,0.4-0.7,0.1-1.1-0.2
				c-0.4-0.4-0.9-0.8-1.4-1.3c-0.1,0.3,0,0.6-0.1,0.9c0,0.9,0,1.9,0,2.8c0,0.5-0.1,0.9-0.7,0.9c-0.5,0-0.7-0.4-0.7-0.8
				c0-1.1,0-2.2,0-3.3C315.3,215.5,315.3,215.4,315.3,215.1z"/>
			<path class="st22" d="M316.5,231.8c0,0.9,0,1.8,0,2.7c0,0.2,0,0.4,0,0.6c0,0.4,0,0.8-0.6,0.8c-0.5,0-0.5-0.4-0.5-0.8
				c0-0.9,0-1.8,0-2.6c0-0.4,0-0.9-0.4-1.2c-0.2-0.1-0.2-0.4-0.2-0.6c0-1.1,0-2.3,0-3.4c0-0.7,0.3-1,0.9-1c0.5,0,1.1,0,1.6,0
				c0.6,0,0.8,0.3,0.8,0.9c0,1.2,0,2.4,0,3.6c0,0.2,0,0.5-0.2,0.6c-0.4,0.3-0.4,0.6-0.4,1c0,0.9,0,1.7,0,2.6c0,0.4,0.1,0.9-0.5,0.9
				c-0.6,0-0.5-0.5-0.5-0.9c0-1,0-2.1,0-3.1C316.6,231.8,316.6,231.8,316.5,231.8z"/>
			<path class="st22" d="M307.6,231.7c0,1.1,0,2.3,0,3.4c0,0.4-0.1,0.7-0.6,0.7c-0.4,0-0.5-0.3-0.5-0.7c0-1,0-2,0-3
				c0-0.3,0-0.7-0.3-0.9c-0.2-0.2-0.2-0.4-0.2-0.7c0-1.1,0-2.3,0-3.4c0-0.7,0.3-1,1-1c0.5,0,1,0,1.5,0c0.6,0,0.9,0.3,0.9,0.9
				c0,1.2,0,2.4,0,3.5c0,0.2,0,0.5-0.2,0.6c-0.4,0.3-0.4,0.7-0.4,1c0,0.9,0,1.9,0,2.8c0,0.3,0,0.5-0.3,0.7c-0.4,0.2-0.7,0-0.7-0.6
				c0-1,0-2,0-3c0-0.1,0-0.3,0-0.4C307.7,231.7,307.7,231.7,307.6,231.7z"/>
			<path class="st22" d="M312.1,231.7c0,1.1,0,2.2,0,3.3c0,0.2,0,0.4-0.1,0.6c-0.2,0.2-0.4,0.2-0.6,0.1c-0.3-0.1-0.4-0.3-0.4-0.6
				c0-1,0-1.9,0-2.9c0-0.4,0-0.7-0.4-1c-0.2-0.1-0.2-0.4-0.2-0.6c0-1.2,0-2.4,0-3.5c0-0.6,0.3-0.9,1-0.9c0.5,0,1,0,1.5,0
				c0.6,0,0.9,0.3,0.9,1c0,1.2,0,2.4,0,3.5c0,0.2,0,0.4-0.2,0.6c-0.4,0.3-0.4,0.7-0.4,1.2c0,0.9,0,1.7,0,2.6c0,0.4,0,0.8-0.6,0.8
				c-0.6,0-0.5-0.4-0.5-0.8c0-1.1,0-2.2,0-3.3C312.2,231.7,312.1,231.7,312.1,231.7z"/>
			<path class="st22" d="M313.4,224.8c0,0.7-0.6,1.3-1.3,1.2c-0.6,0-1.2-0.6-1.2-1.2c0-0.7,0.6-1.3,1.2-1.3
				C312.8,223.5,313.4,224.1,313.4,224.8z"/>
			<path class="st22" d="M317.8,224.8c0,0.7-0.6,1.3-1.2,1.3c-0.6,0-1.2-0.6-1.3-1.2c0-0.7,0.6-1.3,1.2-1.3
				C317.2,223.5,317.8,224.1,317.8,224.8z"/>
			<path class="st22" d="M307.7,226c-0.7,0-1.2-0.6-1.2-1.3c0-0.6,0.6-1.2,1.2-1.2c0.7,0,1.3,0.6,1.3,1.2
				C309,225.5,308.4,226,307.7,226z"/>
		</g>
	</g>
	<g id="mGfqoG_00000170957336366816500340000013047035684657945996_">
		<g>
			<path class="st22" d="M320.8,258.9c0,1.7,0,3.4,0,5.1c0,2.1-1.4,3.4-3.5,3.5c-3.4,0-6.8,0-10.2,0c-2.2,0-3.5-1.4-3.5-3.5
				c0-3.4,0-6.8,0-10.1c0-2.2,1.4-3.6,3.6-3.6c3.4,0,6.7,0,10.1,0c2.2,0,3.6,1.4,3.6,3.6c0,0.8,0,1.7,0,2.5
				C320.8,257.2,320.8,258.1,320.8,258.9z M312.2,251.5C312.2,251.5,312.2,251.5,312.2,251.5c-1.7,0-3.4,0-5.1,0
				c-1.5,0-2.3,0.8-2.3,2.3c0,3.4,0,6.7,0,10.1c0,1.5,0.8,2.4,2.3,2.4c3.4,0,6.9,0,10.3,0c1.4,0,2.3-0.9,2.3-2.3c0-3.4,0-6.9,0-10.3
				c0-1.4-0.9-2.2-2.3-2.2C315.6,251.5,313.9,251.5,312.2,251.5z"/>
			<path class="st22" d="M307.6,246.8c0-0.8,0-1.5,0-2.3c0-0.4,0-0.8,0-1.2c0-0.7,0.2-1.1,0.7-1.1c0.4,0,0.7,0.4,0.7,1.1
				c0,0.9,0,1.9,0,2.8c0,0.2-0.1,0.4,0.1,0.5c0.2,0.1,0.3-0.2,0.4-0.3c0.4-0.4,0.7-0.7,1.1-1.1c0.3-0.3,0.6-0.3,0.9,0
				c0.3,0.3,0.4,0.6,0.1,0.9c-1,1.1-2,2.1-3,3.1c-0.2,0.2-0.6,0.2-0.8-0.1c-0.9-1-1.9-2-2.8-3c-0.3-0.3-0.2-0.7,0.1-1
				c0.3-0.3,0.6-0.2,0.9,0.1c0.5,0.5,0.9,1,1.4,1.5C307.5,246.9,307.5,246.8,307.6,246.8z"/>
			<path class="st22" d="M315.3,244.7c-0.6,0.6-1,1-1.4,1.5c-0.4,0.4-0.7,0.5-1.1,0.2c-0.3-0.3-0.3-0.7,0.1-1.1
				c0.8-0.9,1.7-1.8,2.5-2.7c0.4-0.4,0.7-0.5,1.1,0c0.9,0.9,1.7,1.8,2.5,2.7c0.4,0.4,0.4,0.9,0.1,1.2c-0.4,0.4-0.7,0.1-1.1-0.2
				c-0.4-0.4-0.9-0.8-1.4-1.3c-0.1,0.3,0,0.6-0.1,0.9c0,0.9,0,1.9,0,2.8c0,0.5-0.1,0.9-0.7,0.9c-0.5,0-0.7-0.4-0.7-0.8
				c0-1.1,0-2.2,0-3.3C315.3,245.2,315.3,245.1,315.3,244.7z"/>
			<path class="st22" d="M316.5,261.4c0,0.9,0,1.8,0,2.7c0,0.2,0,0.4,0,0.6c0,0.4,0,0.8-0.6,0.8c-0.5,0-0.5-0.4-0.5-0.8
				c0-0.9,0-1.8,0-2.6c0-0.4,0-0.9-0.4-1.2c-0.2-0.1-0.2-0.4-0.2-0.6c0-1.1,0-2.3,0-3.4c0-0.7,0.3-1,0.9-1c0.5,0,1.1,0,1.6,0
				c0.6,0,0.8,0.3,0.8,0.9c0,1.2,0,2.4,0,3.6c0,0.2,0,0.5-0.2,0.6c-0.4,0.3-0.4,0.6-0.4,1c0,0.9,0,1.7,0,2.6c0,0.4,0.1,0.9-0.5,0.9
				c-0.6,0-0.5-0.5-0.5-0.9c0-1,0-2.1,0-3.1C316.6,261.4,316.6,261.4,316.5,261.4z"/>
			<path class="st22" d="M307.6,261.4c0,1.1,0,2.3,0,3.4c0,0.4-0.1,0.7-0.6,0.7c-0.4,0-0.5-0.3-0.5-0.7c0-1,0-2,0-3
				c0-0.3,0-0.7-0.3-0.9c-0.2-0.2-0.2-0.4-0.2-0.7c0-1.1,0-2.3,0-3.4c0-0.7,0.3-1,1-1c0.5,0,1,0,1.5,0c0.6,0,0.9,0.3,0.9,0.9
				c0,1.2,0,2.4,0,3.5c0,0.2,0,0.5-0.2,0.6c-0.4,0.3-0.4,0.7-0.4,1c0,0.9,0,1.9,0,2.8c0,0.3,0,0.5-0.3,0.7c-0.4,0.2-0.7,0-0.7-0.6
				c0-1,0-2,0-3c0-0.1,0-0.3,0-0.4C307.7,261.4,307.7,261.4,307.6,261.4z"/>
			<path class="st22" d="M312.1,261.4c0,1.1,0,2.2,0,3.3c0,0.2,0,0.4-0.1,0.6c-0.2,0.2-0.4,0.2-0.6,0.1c-0.3-0.1-0.4-0.3-0.4-0.6
				c0-1,0-1.9,0-2.9c0-0.4,0-0.7-0.4-1c-0.2-0.1-0.2-0.4-0.2-0.6c0-1.2,0-2.4,0-3.5c0-0.6,0.3-0.9,1-0.9c0.5,0,1,0,1.5,0
				c0.6,0,0.9,0.3,0.9,1c0,1.2,0,2.4,0,3.5c0,0.2,0,0.4-0.2,0.6c-0.4,0.3-0.4,0.7-0.4,1.2c0,0.9,0,1.7,0,2.6c0,0.4,0,0.8-0.6,0.8
				c-0.6,0-0.5-0.4-0.5-0.8c0-1.1,0-2.2,0-3.3C312.2,261.4,312.1,261.4,312.1,261.4z"/>
			<path class="st22" d="M313.4,254.4c0,0.7-0.6,1.3-1.3,1.2c-0.6,0-1.2-0.6-1.2-1.2c0-0.7,0.6-1.3,1.2-1.3
				C312.8,253.2,313.4,253.8,313.4,254.4z"/>
			<path class="st22" d="M317.8,254.4c0,0.7-0.6,1.3-1.2,1.3c-0.6,0-1.2-0.6-1.3-1.2c0-0.7,0.6-1.3,1.2-1.3
				C317.2,253.2,317.8,253.7,317.8,254.4z"/>
			<path class="st22" d="M307.7,255.7c-0.7,0-1.2-0.6-1.2-1.3c0-0.6,0.6-1.2,1.2-1.2c0.7,0,1.3,0.6,1.3,1.2
				C309,255.1,308.4,255.7,307.7,255.7z"/>
		</g>
	</g>
	<g id="p7iPoC_00000157298094517752278270000010842074493677083568_">
		<g>
			<path class="st10" d="M158.9,259.7c0.7,0,1.4,0,2.2,0c0.6,0,0.9,0.3,1.1,0.9c0.4,1.4,0.9,2.8,1.3,4.2c0.1,0.4,0.3,0.8,0.4,1.2
				c0.1,0.5-0.1,0.8-0.5,1c-0.4,0.1-0.9-0.1-1-0.5c-0.5-1.5-1-3-1.5-4.5c-0.1-0.2-0.2-0.3-0.4-0.3c-1.5,0.1-3,0-4.5,0
				c-0.3,0-0.7,0-1-0.1c-0.4-0.1-0.7-0.3-0.8-0.8c-0.3-1.4-0.5-2.9-0.7-4.4c-0.1-0.5-0.1-1-0.2-1.5c-0.1-0.7,0.2-1.2,0.9-1.4
				c0.3-0.1,0.6-0.1,0.8-0.1c0.6,0.1,1,0.4,1.1,1c0.1,0.6,0.3,1.2,0.4,1.8c0,0.2,0.1,0.2,0.3,0.2c0.8,0,1.6,0,2.5,0
				c0.6,0,1,0.6,0.7,1.2c-0.1,0.2-0.3,0.3-0.5,0.3c-0.8,0-1.6,0-2.4,0c-0.2,0-0.2,0.1-0.2,0.3c0.1,0.4,0.1,0.7,0.2,1.1
				c0,0.2,0.1,0.2,0.3,0.2C157.7,259.6,158.3,259.7,158.9,259.7z"/>
			<path class="st10" d="M149.4,262c0-2.3,1.4-4.2,3.4-5.1c0.2-0.1,0.3-0.1,0.3,0.2c0,0.2,0.1,0.5,0.1,0.7c0,0.2,0,0.3-0.2,0.3
				c-1,0.5-1.7,1.2-2.1,2.2c-1,2.6,0.5,5,3,5.6c2.7,0.6,4.7-1.2,5.1-3.5c0.1-0.5,0.1-0.5,0.6-0.5c0.2,0,0.4,0,0.6,0
				c0.1,0,0.2,0.1,0.2,0.2c-0.1,1.4-0.6,2.7-1.7,3.7c-1.2,1.1-2.6,1.6-4.2,1.5c-2.5-0.2-4.6-1.9-5-4.6
				C149.4,262.5,149.4,262.3,149.4,262z"/>
			<path class="st10" d="M155,250.1c0.8,0,1.5,0.7,1.5,1.5c0,0.8-0.7,1.5-1.5,1.5c-0.8,0-1.5-0.7-1.5-1.5
				C153.5,250.8,154.2,250.1,155,250.1z"/>
		</g>
	</g>
	<g id="BbVIEC_00000031183273454916907090000004935272410719044526_">
		<g>
			<g>
				<path class="st14" d="M221.4,262.2c-8.3,0-16.5,0-24.8,0c-0.5,0-0.5-0.1-0.5-0.5c0-1.5,0-3,0-4.5c0.2-0.3,0.5-0.3,0.8-0.3
					c1.2,0,2.4,0,3.6,0c0.6,0,0.8-0.1,0.8-0.8c0-1.2,0-2.4,0-3.6c0-0.8,0.1-0.9,0.9-0.9c1.2,0,2.3,0,3.5,0c0.8,0,0.9-0.1,0.9-0.9
					c0-1.2,0-2.4,0-3.6c0-0.6,0.2-0.8,0.8-0.8c1.2,0,2.4,0,3.6,0c0.7,0,0.8-0.1,0.8-0.8c0-1.2,0-2.3,0-3.5c0-0.9,0.1-1,1-1
					c1.2,0,2.3,0,3.5,0c0.7,0,0.8-0.1,0.8-0.9c0-1.2,0-2.4,0-3.6c0-0.7,0.2-0.8,0.8-0.8c1.1,0,2.3,0,3.4,0c1.1,0,1.1,0.1,1.1,1.1
					c0,7.7,0,15.5,0,23.2C222.5,261.1,222.2,261.8,221.4,262.2z M213.5,255.9C213.5,255.9,213.5,255.9,213.5,255.9
					c0.7,0,1.4,0,2.2,0c0.6,0,0.6-0.4,0.6-0.8c0-0.4,0-0.8-0.6-0.8c-0.4,0-0.9,0-1.3,0c-0.2,0-0.4,0.1-0.5-0.1
					c-0.1-0.2,0.1-0.3,0.2-0.4c1.2-1.3,2.5-2.5,3.7-3.7c0.6-0.6,0.6-0.7,0.1-1.2c-0.5-0.5-0.7-0.5-1.2,0.1c-0.1,0.1-0.2,0.2-0.4,0.4
					c-1.1,1.1-2.3,2.3-3.4,3.4c-0.1,0.1-0.2,0.3-0.4,0.2c-0.1-0.1-0.1-0.2-0.1-0.4c0-0.4,0-0.9,0-1.3c0-0.5-0.2-0.7-0.7-0.7
					c-0.7,0-0.9,0.1-0.9,0.7c0,1.4,0,2.7,0,4.1c0,0.5,0.2,0.7,0.7,0.7C212.1,255.9,212.8,255.9,213.5,255.9z"/>
				<path class="st14" d="M203.7,241.4c-0.7,0-1.2,0-1.7,0c-0.6,0-0.8-0.2-0.8-0.8c0-0.7,0.1-1,0.7-1.1c1.4,0,2.9,0,4.3,0
					c0.5,0,0.7,0.3,0.7,0.8c0,1.4,0,2.8,0,4.2c0,0.6-0.3,0.8-1,0.8c-0.7,0-0.9-0.2-0.9-0.8c0-0.5,0-1,0-1.5
					c-0.3-0.1-0.4,0.2-0.6,0.3c-1.2,1.2-2.3,2.3-3.5,3.5c-0.7,0.7-1.4,0.5-1.8-0.4c-0.2-0.4,0.1-0.6,0.3-0.8
					c1.2-1.2,2.4-2.4,3.6-3.6C203.3,241.8,203.5,241.6,203.7,241.4z"/>
			</g>
		</g>
	</g>
	<g>
		<text transform="matrix(1 0 0 1 88.8856 198.3384)" class="st0 st23 st24">會眾服務台</text>
	</g>
	
		<rect x="56.6" y="178.3" transform="matrix(-1 -1.224647e-16 1.224647e-16 -1 208.3445 390.0659)" class="st25" width="95.1" height="33.5"/>
	<g>
		<text transform="matrix(1 0 0 1 716.5731 124.9761)" class="st0 st26 st27">209</text>
	</g>
	<g>
		<text transform="matrix(1 0 0 1 505.5711 124.9761)" class="st0 st26 st27">211</text>
	</g>
	<g>
		<text transform="matrix(1 0 0 1 77.9473 551.1271)" class="st0 st28 st29">211</text>
	</g>
	<g>
		<text transform="matrix(1 0 0 1 375.9901 124.9761)" class="st0 st26 st27">212</text>
	</g>
	<g>
		<text transform="matrix(1 0 0 1 383.1114 374.2643)" class="st0 st28 st29">212</text>
	</g>
	<g>
		<text transform="matrix(1 0 0 1 242.66 124.9761)" class="st0 st26 st27">213</text>
	</g>
	<g>
		<text transform="matrix(1 0 0 1 383.1109 423.4441)" class="st0 st28 st29">213</text>
	</g>
	<g>
		<text transform="matrix(1 0 0 1 109.9637 124.9761)" class="st0 st26 st27">214</text>
	</g>
	<g>
		<text transform="matrix(1 0 0 1 383.1115 503.278)" class="st0 st28 st29">214</text>
	</g>
	<g>
		<text transform="matrix(1 0 0 1 494.4539 147.811)" class="st11 st30">議程教室</text>
	</g>
	<g>
		<text transform="matrix(1 0 0 1 608.1443 124.9761)" class="st0 st26 st27">210</text>
	</g>
	<g>
		<text transform="matrix(1 0 0 1 597.0281 147.811)" class="st11 st30">議程教室</text>
	</g>
	<g>
		<text transform="matrix(1 0 0 1 705.4559 147.811)" class="st11 st30">議程教室</text>
	</g>
	<g>
		<text transform="matrix(1 0 0 1 79.8038 373.9373)" class="st0 st28 st29">209</text>
	</g>
	<g>
		<text transform="matrix(1 0 0 1 118.4983 390.3801)" class="st31 st32">PyCon TW 社群聚 </text>
	</g>
	<g>
		<text transform="matrix(1 0 0 1 79.8038 456.2179)" class="st0 st28 st29">210</text>
	</g>
	<g>
		<text transform="matrix(1 0 0 1 364.8734 147.811)" class="st11 st30">議程教室</text>
	</g>
	<g>
		<text transform="matrix(1 0 0 1 231.5423 147.811)" class="st11 st30">議程教室</text>
	</g>
	<g>
		<text transform="matrix(1 0 0 1 98.847 147.811)" class="st11 st30">議程教室</text>
	</g>
	<g>
		<text transform="matrix(1 0 0 1 117.6353 374.0884)" class="st34 st28 st35">Day01</text>
	</g>
	<g>
		<text transform="matrix(1 0 0 1 117.7311 408.1426)" class="st34 st28 st35">Day02</text>
	</g>
	<text transform="matrix(1 0 0 1 118.0416 423.6789)" class="st31 st32">大腦升級，讓Laravel和Vue的社群開發能量翻倍再翻倍</text>
	<g>
		<text transform="matrix(1 0 0 1 420.2298 439.4412)" class="st31 st32">帶您讀源碼</text>
	</g>
	<text transform="matrix(1 0 0 1 420.2296 423.6787)" class="st34 st28 st35">Day01</text>
	<g>
		<text transform="matrix(1 0 0 1 420.2296 457.7522)" class="st34 st28 st35">Day02</text>
	</g>
	<text transform="matrix(1 0 0 1 420.2296 471.1878)" class="st31 st32">Golang Taiwan @COSCUP 2023</text>
	<g>
		<text transform="matrix(1 0 0 1 118.4862 472.2049)"><tspan x="0" y="0" class="st31 st32">Open Source People Network (OSPN) </tspan><tspan x="0" y="13.8" class="st31 st32">Japan Special track</tspan></text>
	</g>
	<text transform="matrix(1 0 0 1 117.6355 456.3124)" class="st34 st28 st35">Day01</text>
	<g>
		<text transform="matrix(1 0 0 1 115.088 566.6254)" class="st31 st32">Kubernetes Community Day Taiwan</text>
	</g>
	<text transform="matrix(1 0 0 1 115.0875 551.1267)" class="st34 st28 st35">Day01 / Day02</text>
	<g>
		<text transform="matrix(1 0 0 1 420.23 517.5334)" class="st31 st32">學生社群大亂鬥</text>
	</g>
	<text transform="matrix(1 0 0 1 420.2305 502.7884)" class="st34 st28 st35">Day01 / Day02</text>
	<g>
		<text transform="matrix(1 0 0 1 420.2299 391.207)" class="st31 st32">Blockchain and Distributed Ledger</text>
	</g>
	<text transform="matrix(1 0 0 1 420.2296 375.029)" class="st34 st28 st35">Day01 / Day02</text>
	<g>
		<text transform="matrix(1 0 0 1 117.7315 503.7622)" class="st34 st28 st35">Day02</text>
	</g>
	<text transform="matrix(1 0 0 1 117.2548 520.225)" class="st11 st36">Rust</text>
</g>
<g id="樓層位置">
	<g>
		<text transform="matrix(1 0 0 1 73.6938 339.1414)" class="st0 st26 st37">TR2F</text>
	</g>
	<g>
		<g>
			<defs>
				<rect id="SVGID_00000056385870727834094680000010713396438849003914_" x="645.9" y="463.1" width="169.6" height="113.1"/>
			</defs>
			<clipPath id="SVGID_00000020400954620207209390000007886804912964723383_">
				<use xlink:href="#SVGID_00000056385870727834094680000010713396438849003914_"  style="overflow:visible;"/>
			</clipPath>
			<g style="clip-path:url(#SVGID_00000020400954620207209390000007886804912964723383_);">
				<defs>
					<rect id="SVGID_00000023996326590194198230000001093362626586588067_" x="645.9" y="463.1" width="169.6" height="113.1"/>
				</defs>
				<clipPath id="SVGID_00000065753371328780206010000004476932713063127954_">
					<use xlink:href="#SVGID_00000023996326590194198230000001093362626586588067_"  style="overflow:visible;"/>
				</clipPath>
				<path style="clip-path:url(#SVGID_00000065753371328780206010000004476932713063127954_);fill:#00943C;" d="M679.5,503.2
					l-2.1,8.9h-3c0.1-0.3,0.1-0.6,0.2-0.9c0.1-0.3,0.1-0.8,0.1-1.3c0-1.2-0.2-2.2-0.6-2.9c-0.6-1-1.6-1.5-2.9-1.5
					c-1.8,0-3.6,1.2-5.6,3.5c-2.1,2.4-3.1,4.9-3.1,7.4c0,1.9,0.5,3.4,1.4,4.5c1,1.1,2.2,1.6,3.7,1.6c1.3,0,2.8-0.6,4.6-1.9
					c0.6-0.4,1.4-1,2.4-1.9l3,1.9c-0.4,0.4-0.9,0.8-1.3,1.2c-1.2,1-2.4,1.7-3.8,2.3c-2,0.8-4,1.2-6.1,1.2c-3.1,0-5.6-0.8-7.6-2.3
					c-2.3-1.7-3.4-4.1-3.4-7.1c0-4,1.8-7.3,5.3-9.9c3.3-2.4,7.4-3.6,12.3-3.6c1.1,0,2.5,0.1,4.2,0.3
					C677.7,502.9,678.5,503.1,679.5,503.2"/>
				<path style="clip-path:url(#SVGID_00000065753371328780206010000004476932713063127954_);fill:#00943C;" d="M705.3,509.7
					c0,2-0.4,3.9-1.3,5.5c-0.7,1.4-2,2.9-3.7,4.7c-1.7,1.7-3.8,3-6.2,4c-2.1,0.8-4.2,1.2-6.1,1.2c-3.3,0-5.9-0.9-7.7-2.8
					c-1.7-1.7-2.6-4-2.6-6.8c0-2.4,0.7-4.6,2-6.8c1-1.6,2.2-3.1,3.8-4.4c1.2-1,1.9-1.5,2-1.5l6.1,0c-0.1,0-0.7,0.7-1.7,2.1
					c-1.3,1.7-2.4,3.5-3.3,5.1c-1.2,2.4-1.8,4.6-1.8,6.6c0,2.2,0.5,3.8,1.4,4.8c0.8,0.8,1.9,1.2,3.3,1.2c1.9,0,3.7-1.1,5.3-3.4
					c1.6-2.3,2.4-4.7,2.4-7.3c0-1.2-0.1-2.1-0.4-2.9c-0.3-0.9-1-1.6-1.8-2c-0.2-0.1-0.4-0.2-0.7-0.2c-0.3,0-0.6-0.1-0.9-0.1
					c-0.5,0-0.8,0-1.1,0c-0.3,0-0.5,0.1-0.8,0.1v-2l7.8-2.5c1.3,0.5,2.3,1,3,1.5C704.3,505.2,705.3,507.2,705.3,509.7"/>
				<path style="clip-path:url(#SVGID_00000065753371328780206010000004476932713063127954_);fill:#00943C;" d="M729.4,502.8l-2,7.3
					h-2.8v-0.3c0-0.3,0-0.5,0-0.8c0-0.6,0-1.2-0.1-1.7c-0.1-0.5-0.3-0.9-0.6-1.3c-0.4-0.4-0.8-0.7-1.4-0.9c-0.6-0.2-1.5-0.3-2.9-0.3
					c-1.7,0-3.1,0.3-4.2,0.9c-1.4,0.7-2,1.7-2,3.1c0,1.1,1.1,1.9,3.4,2.6c2.2,0.6,4.5,1.2,6.6,1.8c2.4,1,3.5,2.5,3.5,4.4
					c0,2.3-1.6,4.1-4.9,5.6c-2.9,1.3-6.1,2-9.7,2c-1.4,0-3.2-0.2-5.3-0.7c-0.7-0.1-1.7-0.4-2.9-0.7v-4.1c0.9,0.5,1.7,0.9,2.3,1.2
					c1.9,0.8,3.8,1.2,5.7,1.2c1.8,0,3.3-0.3,4.7-0.9c1.6-0.7,2.4-1.7,2.4-2.9c0-1.2-1.1-2-3.3-2.4c-2.2-0.5-4.4-0.9-6.5-1.3
					c-2.3-0.8-3.4-2.2-3.4-4.3c0-2,0.8-3.7,2.5-5c1.4-1.1,3.4-1.9,5.9-2.4c2-0.4,4.3-0.6,6.9-0.6c1.5,0,3.2,0.1,5.3,0.3
					C727.3,502.6,728.2,502.7,729.4,502.8"/>
				<path style="clip-path:url(#SVGID_00000065753371328780206010000004476932713063127954_);fill:#00943C;" d="M752.1,503.2
					l-2.1,8.9h-3c0.1-0.3,0.1-0.6,0.2-0.9c0.1-0.3,0.1-0.8,0.1-1.3c0-1.2-0.2-2.2-0.6-2.9c-0.6-1-1.6-1.5-2.9-1.5
					c-1.7,0-3.6,1.2-5.6,3.5c-2.1,2.4-3.1,4.9-3.1,7.4c0,1.9,0.5,3.4,1.4,4.5c1,1.1,2.2,1.6,3.7,1.6c1.3,0,2.8-0.6,4.6-1.9
					c0.6-0.4,1.4-1,2.4-1.9l3,1.9c-0.4,0.4-0.9,0.8-1.3,1.2c-1.2,1-2.4,1.7-3.7,2.3c-2,0.8-4,1.2-6.1,1.2c-3.1,0-5.6-0.8-7.6-2.3
					c-2.3-1.7-3.4-4.1-3.4-7.1c0-4,1.8-7.3,5.3-9.9c3.3-2.4,7.4-3.6,12.3-3.6c1.1,0,2.5,0.1,4.2,0.3
					C750.4,502.9,751.2,503.1,752.1,503.2"/>
				<path style="clip-path:url(#SVGID_00000065753371328780206010000004476932713063127954_);fill:#00943C;" d="M778.6,502.7
					l-5.6,22.3h-7.5l1.9-6.4c0.1-0.1,0.1-0.3,0.1-0.5c0-0.2,0.1-0.3,0.1-0.4c0-0.2-0.1-0.4-0.2-0.4c-0.2,0-0.3,0.1-0.5,0.3
					c0,0.1-0.1,0.2-0.2,0.3c-0.5,0.7-0.9,1.3-1.4,2c-1.2,1.5-2.5,2.8-3.8,3.8c-1.8,1.3-3.6,2-5.4,2c-1.7,0-3.1-0.6-4.2-1.7
					c-1-1.1-1.6-2.6-1.6-4.6c0-0.8,0.1-1.8,0.3-3c0.1-0.4,0.2-1,0.4-1.7l3.4-12.1h7.5l-3.7,13.3c0,0.1-0.1,0.3-0.1,0.7
					c-0.1,0.4-0.1,0.7-0.1,1c0,0.7,0.2,1.2,0.5,1.6c0.3,0.4,0.9,0.6,1.8,0.6c1.7,0,3.5-1.5,5.5-4.4c1.4-2.1,2.8-4.9,4.1-8.3
					c0.5-1.5,1.1-3,1.6-4.4H778.6z"/>
				<path style="clip-path:url(#SVGID_00000065753371328780206010000004476932713063127954_);fill:#00943C;" d="M739.7,495.3
					l-3.8-12.1l-2,3.5c-24.1-11.6-34.6,11.2-34.6,11.2s8.7-16.7,30-3.3l-2,3.5L739.7,495.3z"/>
				<path style="clip-path:url(#SVGID_00000065753371328780206010000004476932713063127954_);fill:#00943C;" d="M755.1,486.9
					l-3.8-12.1l-2,3.5c-24.1-11.6-34.6,11.2-34.6,11.2s8.7-16.7,30-3.3l-2,3.5L755.1,486.9z"/>
				<path style="clip-path:url(#SVGID_00000065753371328780206010000004476932713063127954_);fill:#00943C;" d="M803.2,504.1
					c-1.7-1-3.7-1.4-6-1.4h-3.5l-0.5,0.6c0.2,0.4,0.2,0.7,0.2,0.9l0,0.4c0,0.2,0,0.4,0,0.5h0.5c1.4,0,2.5,0.4,3.3,1.3
					c0.9,0.8,1.3,2,1.3,3.6c0,1.9-0.8,3.3-2.5,4.4c-1.1,0.7-2.7,1.2-4.6,1.5c-0.3,0-0.6,0.1-1,0.1l-0.2,0.6
					c-0.1,0.5-0.2,0.9-0.5,1.3l-0.2,0.4c0.2,0,0.4,0,0.6,0c2.2,0,4.3-0.2,6.1-0.5c2.8-0.5,5.1-1.4,6.7-2.6c2.1-1.6,3.1-3.7,3.1-6.4
					C806.1,506.7,805.1,505.2,803.2,504.1"/>
				<path style="clip-path:url(#SVGID_00000065753371328780206010000004476932713063127954_);fill:#00943C;" d="M790,508.8
					c0-0.1,0-0.4,0.1-0.5l0.8-2c0-0.1,0.2-0.3,0.2-0.4l0.3-0.8l0-0.1c0-0.1,0-0.4,0-0.5l0-0.2c0-0.1,0-0.3-0.1-0.5l-0.1-0.3v-0.5
					l0.1-0.5l0-0.2c0.1-0.1,0.2-0.3,0.2-0.4l0.7-0.8c0-0.1,0.1-0.3,0-0.3l-0.4-0.6c-0.1-0.1-0.2-0.2-0.3-0.2l-1.2-0.4
					c-0.1,0-0.4-0.1-0.4-0.2l-0.4-0.5c-0.1-0.1-0.2-0.2-0.3-0.2h-0.1c-0.1,0-0.3,0.1-0.4,0.1l-0.4,0.4c-0.1,0.1-0.1,0.3-0.1,0.4
					c0,0.1-0.1,0.2-0.3,0.3l-0.6,0.1c-0.2,0-0.4,0.1-0.5,0.2l-1,0.4c-0.1,0-0.3,0.1-0.3,0.2l-1,2.2c-0.1,0.1-0.2,0.3-0.3,0.3l-0.9,1
					c-0.1,0.1-0.2,0.3-0.3,0.4l-3.9,6.9c-0.1,0.1-0.1,0.3-0.1,0.4l0.1,2.3c0.1,0.1,0,0.3-0.1,0.4l-0.1,0.1c0,0.1-0.1,0.3-0.1,0.4
					l-0.1,0.5c0,0.1-0.1,0.3-0.1,0.4l0,0.4c0,0.1,0,0.3,0.2,0.4l0.6,0.5c0.1,0,0.2,0.2,0.2,0.3v0.8c0,0.1,0.1,0.3,0.1,0.4l0.2,0.7
					c0.1,0.1,0.1,0.3,0.2,0.4l0.7,1.1c0.1,0.1,0.2,0.2,0.3,0.2h0c0.1,0,0.3,0,0.4,0.2l1,0.9c0.2,0.1,0.3,0.3,0.3,0.4l0.5,1
					c0,0.1,0,0.3,0,0.4l-0.1,0.6c0,0.2,0.1,0.3,0.1,0.4l0.2,0.1c0.1,0.1,0.3,0.2,0.4,0.3l0.4,0.2c0.1,0.1,0.2,0,0.3-0.1l0.1-0.5
					c0-0.1,0.1-0.3,0.1-0.4v-0.8v-1.3c0-0.1,0-0.3,0-0.4l0.8-2.1c0-0.1,0.2-0.3,0.2-0.4l0.7-0.8l0.2-0.2c0.1,0,0.2-0.2,0.3-0.3
					l1.2-1.9c0.2-0.3,0.1-0.4,0.2-0.7c0-0.1,0.1-0.4,0.2-0.5l0.6-1.8c0.1-0.3,0.6-3.3,0.8-4.6C790,509.1,790,509,790,508.8"/>
				<path style="clip-path:url(#SVGID_00000065753371328780206010000004476932713063127954_);fill:#00943C;" d="M655.3,542.3
					c3-2.7,4.6-4.7,4.6-6.3c0-1.1-0.6-1.9-1.7-1.9c-0.8,0-1.5,0.5-2,1.1l-0.9-0.9c0.9-0.9,1.8-1.5,3.1-1.5c1.9,0,3.1,1.2,3.1,3.1
					c0,2-1.6,4-3.7,6.1c0.5-0.1,1.2-0.1,1.7-0.1h2.6v1.4h-6.6V542.3z"/>
				<path style="clip-path:url(#SVGID_00000065753371328780206010000004476932713063127954_);fill:#00943C;" d="M669.5,538.1
					c0-3.5,1.3-5.3,3.3-5.3c2,0,3.3,1.7,3.3,5.3c0,3.6-1.3,5.3-3.3,5.3C670.8,543.4,669.5,541.6,669.5,538.1 M674.6,538.1
					c0-2.9-0.7-4-1.8-4c-1,0-1.8,1.1-1.8,4c0,3,0.7,4.1,1.8,4.1C673.9,542.2,674.6,541,674.6,538.1"/>
				<path style="clip-path:url(#SVGID_00000065753371328780206010000004476932713063127954_);fill:#00943C;" d="M683.7,542.3
					c3-2.7,4.6-4.7,4.6-6.3c0-1.1-0.6-1.9-1.7-1.9c-0.8,0-1.5,0.5-2,1.1l-0.9-0.9c0.9-0.9,1.8-1.5,3.1-1.5c1.9,0,3.1,1.2,3.1,3.1
					c0,2-1.6,4-3.7,6.1c0.5-0.1,1.2-0.1,1.7-0.1h2.6v1.4h-6.6V542.3z"/>
				<path style="clip-path:url(#SVGID_00000065753371328780206010000004476932713063127954_);fill:#00943C;" d="M697.6,542l0.8-1
					c0.6,0.6,1.4,1.1,2.4,1.1c1.2,0,1.9-0.6,1.9-1.7c0-1.1-0.7-1.9-3-1.9v-1.2c2,0,2.7-0.8,2.7-1.8c0-0.9-0.6-1.5-1.6-1.5
					c-0.8,0-1.5,0.4-2,1l-0.8-1c0.8-0.7,1.8-1.2,2.9-1.2c1.8,0,3.1,0.9,3.1,2.6c0,1.2-0.7,2-1.8,2.4v0.1c1.2,0.3,2.1,1.2,2.1,2.6
					c0,1.8-1.5,2.9-3.4,2.9C699.3,543.4,698.3,542.8,697.6,542"/>
				<path style="clip-path:url(#SVGID_00000065753371328780206010000004476932713063127954_);fill:#00943C;" d="M713.9,536.9v7.5
					h-1.3v-12.2h5.2v4.7H713.9z M713.9,534h2.7v-0.9h-2.7V534z M716.5,534.9h-2.7v1h2.7V534.9z M720.2,541.1v3h-1.2v-3h-1.7
					c-0.1,0.9-0.6,2.3-1.8,3.2c-0.2-0.2-0.6-0.6-0.8-0.8c1-0.6,1.4-1.7,1.5-2.4h-1.6V540h1.6v-1.3h-1.4v-1h6.7v1h-1.4v1.3h1.7v1.1
					H720.2z M719.1,538.7h-1.7v1.3h1.7V538.7z M724.1,542.8c0,0.7-0.1,1.1-0.6,1.3c-0.4,0.2-1.1,0.3-2.2,0.2c0-0.3-0.2-0.9-0.4-1.3
					c0.7,0,1.4,0,1.6,0c0.2,0,0.3-0.1,0.3-0.3v-5.8h-4v-4.8h5.3V542.8z M720.1,534h2.8v-0.9h-2.8V534z M722.8,534.9h-2.8v1h2.8
					V534.9z"/>
				<path style="clip-path:url(#SVGID_00000065753371328780206010000004476932713063127954_);fill:#00943C;" d="M734.3,537.8
					c-0.5-0.4-1.5-1-2.3-1.5l0.8-0.9c0.7,0.4,1.8,1,2.3,1.3L734.3,537.8z M735.3,539.7c-0.5,1.4-1.3,3.1-1.9,4.4l-1.2-0.7
					c0.6-1.1,1.4-2.9,2-4.4L735.3,539.7z M735,534.1c-0.5-0.4-1.5-1.1-2.3-1.5l0.8-0.9c0.7,0.4,1.8,1,2.3,1.4L735,534.1z
					 M737.4,536.1c0,2.4-0.2,5.9-1.9,8.2c-0.2-0.2-0.8-0.5-1.1-0.7c1.6-2.2,1.7-5.3,1.7-7.6v-3.8h8.5v1.2h-7.2V536.1z M739.6,540.7
					c-0.4,1-1.1,2.1-1.7,2.8c-0.2-0.2-0.7-0.5-1-0.6c0.6-0.7,1.2-1.6,1.6-2.5L739.6,540.7z M741.7,539.7v3.4c0,0.6-0.1,0.9-0.5,1.1
					c-0.4,0.2-1,0.2-1.9,0.2c0-0.3-0.2-0.8-0.3-1.1c0.6,0,1.2,0,1.3,0c0.2,0,0.2-0.1,0.2-0.2v-3.3h-2.4v-4.9h2
					c0.1-0.4,0.3-0.9,0.4-1.3l1.4,0.3c-0.2,0.4-0.4,0.7-0.5,1.1h2.9v4.9H741.7z M739.2,536.8h3.8v-1h-3.8V536.8z M739.2,538.8h3.8
					v-1h-3.8V538.8z M743.5,540.3c0.5,0.8,1.2,2,1.5,2.6l-1.2,0.5c-0.3-0.7-0.9-1.9-1.4-2.7L743.5,540.3z"/>
				<path style="clip-path:url(#SVGID_00000065753371328780206010000004476932713063127954_);fill:#00943C;" d="M759.2,531.6
					c0,0.5,0,1.3-0.1,2.1c0.2,1.7,1,7.3,5.9,9.4c-0.4,0.3-0.8,0.7-0.9,1.1c-3.3-1.5-4.8-4.6-5.5-7.1c-0.7,2.6-2.2,5.4-5.3,7.2
					c-0.2-0.3-0.6-0.8-1.1-1c5.7-2.9,5.5-9.4,5.6-11.7H759.2z"/>
				<path style="clip-path:url(#SVGID_00000065753371328780206010000004476932713063127954_);fill:#00943C;" d="M785,541.3h-4.9v3.1
					h-1.3v-3.1h-6.3V540h2.2v-3.7h4.1v-1.9h-3.2c-0.6,1-1.3,1.9-2,2.6c-0.2-0.2-0.8-0.6-1.1-0.8c1.3-1.1,2.4-2.9,3-4.7l1.3,0.3
					c-0.2,0.4-0.4,0.9-0.5,1.3h8.1v1.3h-4.2v1.9h3.9v1.2h-3.9v2.5h4.9V541.3z M778.8,537.6H776v2.5h2.8V537.6z"/>
				<path style="clip-path:url(#SVGID_00000065753371328780206010000004476932713063127954_);fill:#00943C;" d="M799.8,531.9
					c-0.1,0.1-0.1,0.2-0.2,0.3c1.3,1.2,3.6,2.3,5.8,2.7c-0.3,0.2-0.6,0.7-0.8,1c-0.3-0.1-0.7-0.2-1-0.3v3.6h-9.4v-3.5
					c-0.3,0.1-0.7,0.2-1,0.3c-0.1-0.2-0.5-0.8-0.7-1c2.5-0.6,5-1.8,6.2-3.5L799.8,531.9z M803.5,535.5c-0.7-0.3-1.5-0.6-2.2-1v0.4
					h-4.8v-0.3c-0.6,0.4-1.3,0.7-2,0.9H803.5z M794.9,539.7h7.9v4.6h-1.3v-0.4h-5.3v0.4h-1.3V539.7z M796.8,536.5
					c0.3,0.5,0.6,1.1,0.7,1.5l-0.9,0.3h1.6v-1.9h-3v1.9h1.3c-0.1-0.4-0.4-1.1-0.7-1.6L796.8,536.5z M796.2,541.4h5.3v-0.8h-5.3
					V541.4z M801.5,542.2h-5.3v0.8h5.3V542.2z M800.4,534.1c-0.6-0.3-1.1-0.8-1.5-1.2c-0.4,0.4-1,0.8-1.5,1.2H800.4z M802.4,536.4
					h-3.1v1.9h1.6L800,538c0.3-0.4,0.5-1.2,0.7-1.6l1.1,0.3c-0.3,0.6-0.6,1.2-0.9,1.6h1.5V536.4z"/>
				<path style="clip-path:url(#SVGID_00000065753371328780206010000004476932713063127954_);fill:#00943C;" d="M660.3,552.8h-4.8
					v-2.2h7.7v1.6c-2.6,3.1-2.9,5.2-3.1,9.6h-2.7C657.6,558.1,658.2,555.7,660.3,552.8"/>
				<polygon style="clip-path:url(#SVGID_00000065753371328780206010000004476932713063127954_);fill:#00943C;" points="
					670.8,549.6 672.5,549.6 669.2,564.5 667.5,564.5 				"/>
				<path style="clip-path:url(#SVGID_00000065753371328780206010000004476932713063127954_);fill:#00943C;" d="M677,560.3
					c2.8-2.5,4.7-4.6,4.7-6.2c0-1-0.6-1.6-1.5-1.6c-0.8,0-1.4,0.5-1.9,1.1l-1.5-1.4c1.1-1.2,2.1-1.7,3.7-1.7c2.2,0,3.7,1.4,3.7,3.5
					c0,1.9-1.7,4.1-3.4,5.8c0.6-0.1,1.3-0.1,1.8-0.1h2.1v2.3H677V560.3z"/>
				<path style="clip-path:url(#SVGID_00000065753371328780206010000004476932713063127954_);fill:#00943C;" d="M691,559.1
					c0.4,0.4,1.1,0.8,1.7,0.8c1.1,0,2.1-0.8,2.2-3.3c-0.5,0.7-1.5,1.1-2.1,1.1c-1.9,0-3.3-1.1-3.3-3.5c0-2.4,1.7-3.8,3.7-3.8
					c2.1,0,4.2,1.6,4.2,5.7c0,4.1-2.1,6-4.4,6c-1.5,0-2.6-0.6-3.3-1.3L691,559.1z M694.8,554.8c-0.2-1.9-0.9-2.4-1.6-2.4
					c-0.7,0-1.3,0.5-1.3,1.8c0,1.2,0.6,1.6,1.4,1.6C693.8,555.8,694.4,555.5,694.8,554.8"/>
				
					<rect x="702.2" y="556.5" style="clip-path:url(#SVGID_00000065753371328780206010000004476932713063127954_);fill:#00943C;" width="4.3" height="1.9"/>
				<path style="clip-path:url(#SVGID_00000065753371328780206010000004476932713063127954_);fill:#00943C;" d="M710.9,560.4
					l1.2-1.7c0.7,0.6,1.5,1.1,2.3,1.1c1,0,1.7-0.4,1.7-1.3c0-1-0.5-1.5-2.9-1.5v-1.9c1.9,0,2.5-0.6,2.5-1.5c0-0.8-0.5-1.2-1.3-1.2
					c-0.8,0-1.3,0.3-2,0.9l-1.4-1.6c1-0.9,2.2-1.4,3.5-1.4c2.3,0,3.8,1.1,3.8,3.1c0,1.1-0.6,2-1.8,2.5v0.1c1.3,0.4,2.2,1.3,2.2,2.7
					c0,2.1-1.9,3.3-4.1,3.3C712.9,562,711.7,561.4,710.9,560.4"/>
				<path style="clip-path:url(#SVGID_00000065753371328780206010000004476932713063127954_);fill:#00943C;" d="M723.6,556.1
					c0-3.9,1.6-5.8,4-5.8c2.4,0,4,1.9,4,5.8c0,3.9-1.6,5.9-4,5.9C725.2,562,723.6,560,723.6,556.1 M729,556.1c0-3.1-0.6-3.7-1.4-3.7
					c-0.8,0-1.4,0.6-1.4,3.7c0,3.1,0.6,3.8,1.4,3.8C728.4,559.9,729,559.2,729,556.1"/>
				<path style="clip-path:url(#SVGID_00000065753371328780206010000004476932713063127954_);fill:#00943C;" d="M736,556.8
					c0-4.9,3.6-8.1,7.9-8.1c3.8,0,6.2,2.6,6.2,6.2c0,3.2-2.2,4.8-4,4.8c-1,0-1.8-0.5-2-1.3h0c-0.5,0.7-1.4,1.2-2.1,1.2
					c-1.4,0-2.3-1-2.3-2.6c0-2.1,1.5-4.3,3.5-4.3c0.6,0,1,0.3,1.3,0.9h0l0.3-0.7h1.6l-0.8,3.9c-0.2,1,0,1.4,0.8,1.4
					c1.1,0,2-1.2,2-3.1c0-2.5-1.3-4.7-4.7-4.7c-3,0-5.9,2.5-5.9,6.4c0,3.4,2.4,5,5.1,5c0.9,0,1.9-0.3,2.6-0.7l0.6,1.5
					c-1.1,0.6-2.2,0.8-3.4,0.8C739.2,563.4,736,561.3,736,556.8 M743.6,557.1l0.4-2.3c-0.2-0.3-0.4-0.5-0.8-0.5
					c-1,0-1.6,1.4-1.6,2.4c0,0.7,0.3,1.1,0.9,1.1C742.9,557.9,743.2,557.7,743.6,557.1"/>
				<path style="clip-path:url(#SVGID_00000065753371328780206010000004476932713063127954_);fill:#00943C;" d="M768.2,549.6v1.3
					h-5.7v0.3h4.4v1.2H756v-1.2h4.3v-0.3h-5.5v-1.3h5.5v-0.7h2.2v0.7H768.2z M754.8,555.4h13.3v2.3h-1.9v0.4h-0.7
					c0.5,0.3,1.1,0.7,1.4,1l-1,0.8h0.8v1.2h-4.3v0.3h5.6v1.4h-13.2v-1.4h5.4v-0.3h-3.9V560h3.9v-0.3c-2.4,0.1-2.8,0.1-3.2,0.2
					c-0.1-0.3-0.3-1-0.4-1.3c0.2,0,0.5-0.1,0.8-0.2c0.1,0,0.4-0.1,0.7-0.3h-1.7v-0.4h-1.6V555.4z M766.6,555.1h-10.1v-2.4h10.1
					V555.1z M756.8,557h9.3v-0.3h-9.3V557z M764.4,553.8h-5.9v0.3h5.9V553.8z M763.3,558.5c-0.2-0.1-0.4-0.2-0.6-0.3l0,0h-2.2
					c-0.2,0.1-0.5,0.3-0.7,0.4L763.3,558.5z M765.4,560c-0.1-0.1-0.3-0.2-0.5-0.4l-2.4,0.1v0.3H765.4z"/>
				<path style="clip-path:url(#SVGID_00000065753371328780206010000004476932713063127954_);fill:#00943C;" d="M777.6,558.9
					c-0.2-0.3-0.4-0.8-0.6-1.2v5.6h-2.1v-4.7c-0.4,0.9-0.8,1.7-1.3,2.4c-0.2-0.6-0.7-1.6-1-2.1c0.8-0.9,1.5-2.4,2-3.7h-1.9v-2h2.1
					v-1.4c-0.5,0.1-1,0.2-1.5,0.2c-0.1-0.5-0.3-1.2-0.6-1.7c1.7-0.3,3.6-0.7,4.9-1.2l1.2,1.8c-0.6,0.2-1.3,0.4-1.9,0.5v1.8h1.9v2
					H777v0c0.4,0.3,1.6,1.6,1.9,2L777.6,558.9z M785.4,559.5v3.7h-2.2v-3.3l-4.4,0.8l-0.3-2.1l4.7-0.8v-8.8h2.2v8.5l1.4-0.2l0.3,2.1
					L785.4,559.5z M780.3,553.7c0.8,0.6,1.9,1.6,2.4,2.2l-1.5,1.4c-0.4-0.7-1.4-1.7-2.3-2.4L780.3,553.7z M781.5,553.3
					c-0.4-0.7-1.4-1.7-2.2-2.4l1.4-1.2c0.8,0.6,1.8,1.6,2.3,2.2L781.5,553.3z"/>
				<path style="clip-path:url(#SVGID_00000065753371328780206010000004476932713063127954_);fill:#00943C;" d="M799.9,555.1
					c1,2.7,2.7,4.9,5.5,6c-0.5,0.5-1.3,1.4-1.6,2.1c-2.7-1.2-4.3-3.2-5.5-5.9c-0.9,2.3-2.5,4.4-5.4,5.9c-0.3-0.6-1-1.4-1.7-1.9
					c3.3-1.5,4.7-3.8,5.3-6.2h-5v-2.3h5.4c0.1-1.3,0.1-2.7,0.1-3.9h2.4c0,1.2,0,2.6-0.1,3.9h5.8v2.3H799.9z"/>
			</g>
		</g>
	</g>
</g>
<g id="輸出佈置" class="st103">
	<line class="st104" x1="387.6" y1="178.6" x2="446.5" y2="178.6"/>
	<text transform="matrix(1 0 0 1 482.0361 250.198)" class="st105 st106 st107">樓層議程告知</text>
	<text transform="matrix(1 0 0 1 477.1669 196.4568)" class="st105 st106 st107">主視覺</text>
	<text transform="matrix(1 0 0 1 325.6181 196.7)" class="st105 st106 st107">徵才看板B</text>
	<line class="st104" x1="333.7" y1="180" x2="368.9" y2="180"/>
	<line class="st104" x1="467.1" y1="180" x2="520.3" y2="180"/>
	<line class="st104" x1="569.1" y1="257.4" x2="569.1" y2="219.8"/>
	<text transform="matrix(1 0 0 1 190.2089 287.5955)" class="st105 st106 st107">樓層議程告知</text>
	<line class="st104" x1="192" y1="254.9" x2="192" y2="217.3"/>
	<text transform="matrix(1 0 0 1 408.6118 193.45)" class="st108"><tspan x="0" y="0" class="st109 st106 st107">2樓</tspan><tspan x="-26.8" y="12.9" class="st109 st106 st107">議程看板+地圖</tspan></text>
	<g class="st108">
		<text transform="matrix(1 0 0 1 696.7242 580.9211)" class="st106 st111">D.門口的議程軌布告欄</text>
	</g>
	<text transform="matrix(1 0 0 1 695.9935 534.6271)" class="st108 st106 st112">A.贊助商海報</text>
	<g class="st108">
		<text transform="matrix(1 0 0 1 695.7748 550.922)" class="st106 st112">B.主視覺海報</text>
	</g>
	<g class="st108">
		<text transform="matrix(1 0 0 1 695.8763 567.2179)" class="st106 st112">C.講桌前背板(上方)</text>
	</g>
	<g class="st108">
		<text transform="matrix(1 0 0 1 785.2953 567.7355)" class="st106 st113">6間</text>
	</g>
	<text transform="matrix(1 0 0 1 680.3529 523.1007)" class="st108 st106 st114">議程教室</text>
	<polygon class="st110" points="664.2,517.8 664.2,550.9 581.3,550.9 581.3,543.9 574.6,543.9 574.6,517.8 	"/>
	<rect x="560.1" y="543.9" class="st110" width="21.1" height="29.3"/>
	<rect x="556.3" y="522" class="st110" width="14.4" height="20.3"/>
	<rect x="645.5" y="522" class="st110" width="14.4" height="20.3"/>
	<g class="st108">
		<text transform="matrix(1 0 0 1 649.6967 535.6876)" class="st106 st112">A</text>
	</g>
	<g class="st108">
		<text transform="matrix(1 0 0 1 559.4945 535.1984)" class="st106 st112">B</text>
	</g>
	<g class="st108">
		<text transform="matrix(1 0 0 1 567.0326 562.2169)" class="st106 st112">C</text>
	</g>
	<path class="st118" d="M90.1,646.9c8.5,1.1,16.2-1.3,24.8,0.3c0,14.8,0,28.8,0,43.6c62.3,0,124.6,0,186.9,0c0-56.8,0-112.9,0-169.8
		c-30.1,0.1,0,3.4,0,0c-154.2,0-307.6,0-461.5-0.2"/>
</g>
</svg>
