<?xml version="1.0" encoding="utf-8"?>
<!-- Generator: Adobe Illustrator 27.3.1, SVG Export Plug-In . SVG Version: 6.00 Build 0)  -->
<svg version="1.1" xmlns="http://www.w3.org/2000/svg" xmlns:xlink="http://www.w3.org/1999/xlink" x="0px" y="0px"
	 viewBox="0 0 841.9 595.3" style="enable-background:new 0 0 841.9 595.3;" xml:space="preserve">
<style type="text/css">
	.st0{fill:#3B9838;}
	.st1{fill:none;stroke:#FFFFFF;stroke-width:2;stroke-linecap:round;stroke-linejoin:bevel;}
	.st2{opacity:0.73;}
	.st3{fill:#A0A0A0;stroke:#FFFFFF;stroke-width:2;stroke-linecap:round;stroke-linejoin:bevel;}
	.st4{fill:none;stroke:#B3B3B3;stroke-width:4.4344;stroke-linecap:round;stroke-miterlimit:10;}
	.st5{fill:#E6E6E6;}
	.st6{fill:#FFFEFF;}
	.st7{fill:#B3B3B3;}
	.st8{fill:none;stroke:#B3B3B3;stroke-width:4.4344;stroke-miterlimit:10;}
	.st9{fill:none;stroke:#FFFEFF;stroke-width:3;stroke-miterlimit:10;}
	.st10{fill:#12344C;}
	.st11{fill:#E98025;}
	.st12{fill:#808080;}
	.st13{fill:#FFE9BA;}
	.st14{fill:#3E3D4D;}
	.st15{fill:#BCC4C6;}
	.st16{fill:#D24635;}
	.st17{fill:#FCF3EE;}
	.st18{fill:#E8C72E;}
	.st19{fill:#E0A911;}
	.st20{fill:#0071BC;}
	.st21{opacity:0.2;fill:none;stroke:#70931B;stroke-width:2;stroke-miterlimit:10;stroke-dasharray:4,4;}
	.st22{opacity:0.2;fill:none;stroke:#70931B;stroke-width:1.78;stroke-miterlimit:10;stroke-dasharray:3.56,3.56;}
	.st23{clip-path:url(#SVGID_00000003082722336452791290000012849410075859593381_);}
	.st24{clip-path:url(#SVGID_00000106836886886280845760000009076502963660984213_);fill:#00943C;}
	.st25{clip-path:url(#SVGID_00000145766353326603249610000005029752370009771650_);}
	.st26{clip-path:url(#SVGID_00000024689656425733507280000014551686207586672797_);fill:#00943C;}
	.st27{clip-path:url(#SVGID_00000081640451999333305280000009690638809860851107_);}
	.st28{clip-path:url(#SVGID_00000164494739953818599820000013734125256853067911_);fill:#00943C;}
	.st29{clip-path:url(#SVGID_00000016778855620331295550000004296042046452420263_);}
	.st30{clip-path:url(#SVGID_00000119822730654237658690000008106787940763237532_);fill:#00943C;}
	.st31{clip-path:url(#SVGID_00000145764152852558824710000008168502598414667670_);}
	.st32{clip-path:url(#SVGID_00000170999843408647909580000006898722298085166479_);fill:#00943C;}
	.st33{clip-path:url(#SVGID_00000158009122027563259960000009269704363706221734_);}
	.st34{clip-path:url(#SVGID_00000093891748114393935490000003088455349625305769_);fill:#00943C;}
	.st35{clip-path:url(#SVGID_00000082330765979901551410000011497888786828676749_);}
	.st36{clip-path:url(#SVGID_00000156567629294955364720000005338069358013460885_);fill:#00943C;}
	.st37{clip-path:url(#SVGID_00000039818112128365203840000008097830590085583290_);}
	.st38{clip-path:url(#SVGID_00000093888763684263859830000007384331087007975103_);fill:#00943C;}
	.st39{opacity:0.1;fill:#70931B;}
	.st40{fill:none;stroke:#FFFEFF;stroke-miterlimit:10;}
	.st41{fill:#FFFFFF;}
	.st42{fill:none;stroke:#FFFFFF;stroke-width:1.8113;}
	.st43{fill:#C1272D;}
	.st44{fill:#30AF00;}
	.st45{fill:#0076CB;}
	.st46{fill:#008061;}
	.st47{fill:#F5821F;}
	.st48{fill:#ED1B2D;}
	.st49{fill:#FF0000;}
	.st50{opacity:0.5;fill:url(#SVGID_00000075868975797825172970000007573276750414588084_);}
	.st51{opacity:0.5;fill:url(#SVGID_00000023986987873092495090000014020196561692401544_);}
	.st52{opacity:0.8;}
	.st53{fill-rule:evenodd;clip-rule:evenodd;fill:#D5E7D0;}
	.st54{fill:none;stroke:#040000;stroke-width:0.75;stroke-linejoin:round;stroke-miterlimit:8;}
	.st55{fill:#040000;}
	.st56{font-family:'ArialMT';}
	.st57{font-size:4.7387px;}
	.st58{opacity:0;fill-rule:evenodd;clip-rule:evenodd;fill:#040000;}
	.st59{font-family:'MicrosoftJhengHeiBold';}
	.st60{font-size:13.6363px;}
	.st61{font-family:'MicrosoftJhengHeiRegular';}
	.st62{font-size:14.6241px;}
	.st63{fill:#3B9138;}
	.st64{font-size:18.6639px;}
	.st65{font-size:17.1322px;}
	.st66{fill:#6B6B6B;}
	.st67{font-size:12.5331px;}
	.st68{fill-rule:evenodd;clip-rule:evenodd;fill:#8FCFC9;}
	.st69{fill-rule:evenodd;clip-rule:evenodd;fill:#F2EA32;}
	.st70{fill-rule:evenodd;clip-rule:evenodd;fill:#040000;}
	.st71{fill-rule:evenodd;clip-rule:evenodd;fill:#FFFFFF;}
	.st72{opacity:0;fill-rule:evenodd;clip-rule:evenodd;}
	.st73{fill:none;stroke:#000000;stroke-width:0.75;stroke-linejoin:round;stroke-miterlimit:8;}
	.st74{fill-rule:evenodd;clip-rule:evenodd;fill:#D9EAD3;}
	.st75{opacity:0;fill-rule:evenodd;clip-rule:evenodd;stroke:#000000;stroke-width:0.75;stroke-miterlimit:10;}
	.st76{fill-rule:evenodd;clip-rule:evenodd;fill:#FCFCFC;stroke:#000000;stroke-width:0.75;stroke-miterlimit:10;}
	.st77{fill:none;stroke:#000000;stroke-width:0.5;stroke-linejoin:round;stroke-miterlimit:8;}
	.st78{fill-rule:evenodd;clip-rule:evenodd;fill:none;stroke:#000000;stroke-width:0.5;stroke-linejoin:round;stroke-miterlimit:8;}
	.st79{fill-rule:evenodd;clip-rule:evenodd;fill:#FFFFFF;stroke:#000000;stroke-width:0.5;stroke-miterlimit:10;}
	.st80{fill-rule:evenodd;clip-rule:evenodd;fill:#D5E7D0;stroke:#000000;stroke-width:0.5;stroke-miterlimit:10;}
	.st81{fill-rule:evenodd;clip-rule:evenodd;fill:#F2EA32;stroke:#000000;stroke-width:0.5;stroke-miterlimit:10;}
	.st82{opacity:0;fill-rule:evenodd;clip-rule:evenodd;fill:#040000;stroke:#000000;stroke-width:0.5;stroke-miterlimit:10;}
	.st83{fill:#D5E7D0;stroke:#000000;stroke-width:0.5;stroke-miterlimit:10;}
	.st84{fill-rule:evenodd;clip-rule:evenodd;fill:#FCFDFD;stroke:#000000;stroke-width:0.5;stroke-miterlimit:10;}
	
		.st85{fill-rule:evenodd;clip-rule:evenodd;fill:none;stroke:#040000;stroke-width:0.75;stroke-linejoin:round;stroke-miterlimit:8;}
	
		.st86{opacity:0;fill-rule:evenodd;clip-rule:evenodd;fill:none;stroke:#040000;stroke-width:0.75;stroke-linejoin:round;stroke-miterlimit:8;}
	.st87{fill:#D5E7D0;stroke:#040000;stroke-width:0.75;stroke-miterlimit:10;}
	.st88{opacity:0;fill-rule:evenodd;clip-rule:evenodd;fill:#040000;stroke:#040000;stroke-width:0.75;stroke-miterlimit:10;}
	.st89{fill-rule:evenodd;clip-rule:evenodd;fill:#FFFFFF;stroke:#040000;stroke-width:0.75;stroke-miterlimit:10;}
	.st90{fill-rule:evenodd;clip-rule:evenodd;fill:#FCFDFD;}
	.st91{fill-rule:evenodd;clip-rule:evenodd;fill:#D5E7D0;stroke:#040000;stroke-width:0.75;stroke-miterlimit:10;}
	.st92{fill-rule:evenodd;clip-rule:evenodd;fill:#FCFDFD;stroke:#040000;stroke-width:0.75;stroke-miterlimit:10;}
	.st93{clip-path:url(#SVGID_00000174597074009180042260000005267259410430730170_);}
	.st94{clip-path:url(#SVGID_00000065783996722463532650000001678052044776056729_);fill:#00943C;}
	.st95{clip-path:url(#SVGID_00000102513472877299563200000008472966705962171794_);}
	.st96{clip-path:url(#SVGID_00000111903547097864700290000004044603504750485147_);fill:#00943C;}
	.st97{clip-path:url(#SVGID_00000155851891090513483950000006442379440244590731_);}
	.st98{clip-path:url(#SVGID_00000139284251774995158750000001111268359613799831_);fill:#00943C;}
	.st99{display:none;}
	.st100{display:inline;fill:none;stroke:#F90000;stroke-width:8;stroke-miterlimit:10;}
	.st101{display:inline;}
	.st102{display:inline;fill:#F90000;}
	.st103{font-family:'SourceHanSansTW-Medium-B5pc-H';}
	.st104{font-size:12px;}
	.st105{fill:#F90000;}
	.st106{display:inline;fill:none;stroke:#000000;stroke-miterlimit:10;}
	.st107{display:inline;fill:none;stroke:#F90000;stroke-width:3;stroke-miterlimit:10;}
	.st108{display:inline;fill:none;stroke:#232323;stroke-miterlimit:10;}
	.st109{display:inline;fill:none;stroke:#F90000;stroke-miterlimit:10;}
	.st110{font-size:51.3239px;}
	.st111{display:inline;fill:none;stroke:#B3B3B3;stroke-width:4.4344;stroke-linecap:round;stroke-miterlimit:10;}
	.st112{display:inline;fill:#E6E6E6;}
	.st113{display:inline;fill:#FFFEFF;}
	.st114{display:inline;fill:#B3B3B3;}
	.st115{display:inline;fill:none;stroke:#B3B3B3;stroke-width:4.4344;stroke-miterlimit:10;}
	.st116{display:inline;opacity:0.2;fill:none;stroke:#70931B;stroke-width:2;stroke-miterlimit:10;stroke-dasharray:4,4;}
</style>
<g id="建築">
</g>
<g id="標示">
</g>
<g id="樓層位置">
	<rect x="640.3" y="253.8" class="st53" width="63.1" height="21"/>
	<rect x="640.3" y="253.6" class="st54" width="63.1" height="21"/>
	<rect x="400.3" y="253.8" class="st53" width="63.1" height="21"/>
	<rect x="400.3" y="253.7" class="st54" width="63.1" height="21"/>
	<rect x="186.8" y="253.8" class="st53" width="63.1" height="21"/>
	<rect x="186.8" y="253.7" class="st54" width="63.1" height="21"/>
	<rect x="123.8" y="238.7" class="st54" width="616.1" height="96.8"/>
	<text transform="matrix(1 0 0 1 126.0964 342.6542)" class="st55 st56 st57">.</text>
	<rect x="312.9" y="238.7" class="st58" width="24.4" height="24.4"/>
	<rect x="312.9" y="238.7" class="st54" width="24.4" height="24.4"/>
	<rect x="568.5" y="248" class="st58" width="24.4" height="24.4"/>
	<rect x="568.5" y="248" class="st54" width="24.4" height="24.4"/>
	<g>
		<text transform="matrix(1 0 0 1 209.7302 268.5771)" class="st55 st59 st60">C1</text>
	</g>
	<g>
		<text transform="matrix(1 0 0 1 301.8259 382.9619)" class="st55 st61 st62">Ruby</text>
	</g>
	<g>
		<text transform="matrix(1 0 0 1 263.8967 382.2138)" class="st55 st61 st62">C1</text>
	</g>
	<g>
		<text transform="matrix(1 0 0 1 423.2195 268.5771)" class="st55 st59 st60">C2</text>
	</g>
	<g>
		<text transform="matrix(1 0 0 1 263.8977 409.4432)" class="st55 st61 st62">C2</text>
	</g>
	<g>
		<text transform="matrix(1 0 0 1 301.8259 409.7607)" class="st55 st61 st62">Kuberentes Community Day Taiwan</text>
	</g>
	<g>
		<text transform="matrix(1 0 0 1 301.8259 437.54)" class="st55 st61 st62">Open Source RPA社群希望</text>
	</g>
	<g>
		<text transform="matrix(1 0 0 1 663.197 268.5732)" class="st55 st59 st60">C3</text>
	</g>
	<g>
		<text transform="matrix(1 0 0 1 263.3888 437.54)" class="st55 st61 st62">C3</text>
	</g>
	<g>
		<text transform="matrix(1 0 0 1 122.1695 170.2146)" class="st63 st59 st64">211/212走廊外</text>
	</g>
	<g>
		<text transform="matrix(1 0 0 1 122.1695 214.6638)" class="st55 st59 st65">社群/贊助攤位</text>
	</g>
	<g>
		<g>
			<g>
				<path class="st55" d="M128.3,229.3c-0.4,0.2-1.1,0.4-2,0.4c-2.1,0-3.7-1.3-3.7-3.8c0-2.4,1.6-3.9,3.9-3.9c0.9,0,1.5,0.2,1.8,0.3
					L128,223c-0.4-0.2-0.9-0.3-1.5-0.3c-1.8,0-2.9,1.1-2.9,3.1c0,1.8,1.1,3,2.9,3c0.6,0,1.2-0.1,1.6-0.3L128.3,229.3z"/>
				<path class="st55" d="M134.3,226.8c0,2-1.4,2.9-2.7,2.9c-1.5,0-2.6-1.1-2.6-2.8c0-1.8,1.2-2.9,2.7-2.9
					C133.3,224,134.3,225.1,134.3,226.8z M130.1,226.8c0,1.2,0.7,2.1,1.6,2.1c0.9,0,1.6-0.9,1.6-2.1c0-0.9-0.5-2.1-1.6-2.1
					C130.6,224.7,130.1,225.8,130.1,226.8z"/>
				<path class="st55" d="M135.6,225.6c0-0.6,0-1,0-1.5h0.9l0.1,0.9h0c0.3-0.5,0.8-1,1.7-1c0.7,0,1.3,0.4,1.5,1.1h0
					c0.2-0.3,0.4-0.5,0.6-0.7c0.3-0.2,0.7-0.4,1.2-0.4c0.7,0,1.8,0.5,1.8,2.3v3.2h-1v-3c0-1-0.4-1.7-1.2-1.7c-0.6,0-1,0.4-1.2,0.9
					c0,0.1-0.1,0.3-0.1,0.5v3.3h-1v-3.2c0-0.9-0.4-1.5-1.1-1.5c-0.6,0-1.1,0.5-1.2,1c0,0.1-0.1,0.3-0.1,0.5v3.2h-1V225.6z"/>
				<path class="st55" d="M144.9,225.6c0-0.6,0-1,0-1.5h0.9l0.1,0.9h0c0.3-0.5,0.8-1,1.7-1c0.7,0,1.3,0.4,1.5,1.1h0
					c0.2-0.3,0.4-0.5,0.6-0.7c0.3-0.2,0.7-0.4,1.2-0.4c0.7,0,1.8,0.5,1.8,2.3v3.2h-1v-3c0-1-0.4-1.7-1.2-1.7c-0.6,0-1,0.4-1.2,0.9
					c0,0.1-0.1,0.3-0.1,0.5v3.3h-1v-3.2c0-0.9-0.4-1.5-1.1-1.5c-0.6,0-1.1,0.5-1.2,1c0,0.1-0.1,0.3-0.1,0.5v3.2h-1V225.6z"/>
				<path class="st55" d="M158.6,228c0,0.6,0,1,0,1.5h-0.9l-0.1-0.9h0c-0.2,0.4-0.8,1-1.8,1c-0.8,0-1.9-0.5-1.9-2.4v-3.1h1v3
					c0,1,0.3,1.7,1.2,1.7c0.7,0,1.1-0.5,1.3-0.9c0.1-0.1,0.1-0.3,0.1-0.5v-3.3h1V228z"/>
				<path class="st55" d="M160.3,225.6c0-0.6,0-1,0-1.5h0.9l0.1,0.9h0c0.3-0.5,0.9-1,1.8-1c0.7,0,1.9,0.4,1.9,2.3v3.2h-1v-3.1
					c0-0.9-0.3-1.6-1.2-1.6c-0.6,0-1.1,0.5-1.3,1c0,0.1-0.1,0.3-0.1,0.5v3.2h-1V225.6z"/>
				<path class="st55" d="M167.6,222.6c0,0.3-0.2,0.6-0.6,0.6c-0.4,0-0.6-0.3-0.6-0.6c0-0.3,0.3-0.6,0.6-0.6
					C167.3,222,167.6,222.3,167.6,222.6z M166.5,229.5v-5.4h1v5.4H166.5z"/>
				<path class="st55" d="M170.2,222.6v1.6h1.4v0.7h-1.4v2.9c0,0.7,0.2,1,0.7,1c0.3,0,0.4,0,0.6-0.1l0,0.7c-0.2,0.1-0.5,0.1-0.9,0.1
					c-0.5,0-0.8-0.1-1.1-0.4c-0.3-0.3-0.4-0.8-0.4-1.4v-2.9h-0.8v-0.7h0.8v-1.3L170.2,222.6z"/>
				<path class="st55" d="M173.1,224.1l1.2,3.2c0.1,0.4,0.3,0.8,0.3,1.1h0c0.1-0.3,0.2-0.7,0.3-1.1l1.1-3.2h1l-1.5,3.8
					c-0.7,1.9-1.2,2.8-1.8,3.4c-0.5,0.4-1,0.6-1.2,0.6l-0.2-0.8c0.2-0.1,0.6-0.2,0.9-0.5c0.3-0.2,0.6-0.6,0.8-1.1
					c0-0.1,0.1-0.2,0.1-0.2c0-0.1,0-0.1-0.1-0.3l-2-5H173.1z"/>
				<path class="st55" d="M183.4,229.5l-0.1-0.7h0c-0.3,0.4-0.9,0.8-1.6,0.8c-1.1,0-1.6-0.8-1.6-1.5c0-1.3,1.2-2,3.2-2V226
					c0-0.4-0.1-1.2-1.2-1.2c-0.5,0-1,0.1-1.4,0.4l-0.2-0.7c0.4-0.3,1.1-0.5,1.8-0.5c1.6,0,2,1.1,2,2.2v2c0,0.5,0,0.9,0.1,1.3H183.4z
					 M183.2,226.8c-1.1,0-2.3,0.2-2.3,1.2c0,0.6,0.4,0.9,0.9,0.9c0.7,0,1.2-0.4,1.3-0.9c0-0.1,0-0.2,0-0.3V226.8z"/>
				<path class="st55" d="M185.7,225.6c0-0.6,0-1,0-1.5h0.9l0.1,0.9h0c0.3-0.5,0.9-1,1.8-1c0.7,0,1.9,0.4,1.9,2.3v3.2h-1v-3.1
					c0-0.9-0.3-1.6-1.2-1.6c-0.6,0-1.1,0.5-1.3,1c0,0.1-0.1,0.3-0.1,0.5v3.2h-1V225.6z"/>
				<path class="st55" d="M196.6,221.6v6.5c0,0.5,0,1,0,1.4h-0.9l0-0.9h0c-0.3,0.6-0.9,1.1-1.8,1.1c-1.3,0-2.3-1.1-2.3-2.7
					c0-1.8,1.1-2.9,2.4-2.9c0.8,0,1.4,0.4,1.6,0.8h0v-3.2H196.6z M195.6,226.3c0-0.1,0-0.3,0-0.4c-0.2-0.6-0.7-1.1-1.4-1.1
					c-1,0-1.6,0.9-1.6,2.1c0,1.1,0.5,2,1.6,2c0.7,0,1.3-0.4,1.4-1.2c0-0.1,0-0.3,0-0.4V226.3z"/>
				<path class="st55" d="M200.5,228.3c0.4,0.3,1.1,0.5,1.7,0.5c1,0,1.6-0.5,1.6-1.3c0-0.7-0.4-1.1-1.4-1.5c-1.2-0.4-2-1.1-2-2.1
					c0-1.2,1-2,2.4-2c0.8,0,1.3,0.2,1.7,0.4l-0.3,0.8c-0.2-0.1-0.7-0.4-1.4-0.4c-1,0-1.4,0.6-1.4,1.1c0,0.7,0.5,1,1.5,1.4
					c1.3,0.5,1.9,1.1,1.9,2.2c0,1.2-0.8,2.2-2.6,2.2c-0.7,0-1.5-0.2-1.9-0.5L200.5,228.3z"/>
				<path class="st55" d="M206.1,225.9c0-0.7,0-1.2,0-1.8h0.9l0.1,0.9h0c0.4-0.7,1-1,1.9-1c1.3,0,2.3,1.1,2.3,2.7
					c0,1.9-1.2,2.9-2.4,2.9c-0.7,0-1.3-0.3-1.7-0.8h0v2.9h-1V225.9z M207,227.3c0,0.1,0,0.3,0,0.4c0.2,0.7,0.8,1.1,1.5,1.1
					c1,0,1.6-0.9,1.6-2.1c0-1.1-0.6-2-1.6-2c-0.7,0-1.3,0.5-1.5,1.2c0,0.1-0.1,0.3-0.1,0.4V227.3z"/>
				<path class="st55" d="M217.3,226.8c0,2-1.4,2.9-2.7,2.9c-1.5,0-2.6-1.1-2.6-2.8c0-1.8,1.2-2.9,2.7-2.9
					C216.2,224,217.3,225.1,217.3,226.8z M213,226.8c0,1.2,0.7,2.1,1.6,2.1c0.9,0,1.6-0.9,1.6-2.1c0-0.9-0.5-2.1-1.6-2.1
					C213.5,224.7,213,225.8,213,226.8z"/>
				<path class="st55" d="M218.5,225.6c0-0.6,0-1,0-1.5h0.9l0.1,0.9h0c0.3-0.5,0.9-1,1.8-1c0.7,0,1.9,0.4,1.9,2.3v3.2h-1v-3.1
					c0-0.9-0.3-1.6-1.2-1.6c-0.6,0-1.1,0.5-1.3,1c0,0.1-0.1,0.3-0.1,0.5v3.2h-1V225.6z"/>
				<path class="st55" d="M224.6,228.5c0.3,0.2,0.8,0.4,1.3,0.4c0.7,0,1-0.4,1-0.8c0-0.5-0.3-0.7-1-1c-1-0.4-1.4-0.9-1.4-1.5
					c0-0.9,0.7-1.6,1.9-1.6c0.5,0,1,0.1,1.3,0.3l-0.2,0.7c-0.2-0.1-0.6-0.3-1.1-0.3c-0.6,0-0.9,0.3-0.9,0.7c0,0.4,0.3,0.6,1,0.9
					c0.9,0.3,1.4,0.8,1.4,1.6c0,1-0.7,1.6-2,1.6c-0.6,0-1.1-0.2-1.5-0.4L224.6,228.5z"/>
				<path class="st55" d="M234,226.8c0,2-1.4,2.9-2.7,2.9c-1.5,0-2.6-1.1-2.6-2.8c0-1.8,1.2-2.9,2.7-2.9
					C232.9,224,234,225.1,234,226.8z M229.7,226.8c0,1.2,0.7,2.1,1.6,2.1c0.9,0,1.6-0.9,1.6-2.1c0-0.9-0.5-2.1-1.6-2.1
					C230.2,224.7,229.7,225.8,229.7,226.8z"/>
				<path class="st55" d="M235.2,225.8c0-0.6,0-1.2,0-1.7h0.9l0,1.1h0c0.3-0.7,0.8-1.2,1.5-1.2c0.1,0,0.2,0,0.3,0v0.9
					c-0.1,0-0.2,0-0.3,0c-0.7,0-1.2,0.5-1.3,1.3c0,0.1,0,0.3,0,0.5v2.9h-1V225.8z"/>
				<path class="st55" d="M241.3,222.1c0.4-0.1,1.1-0.2,1.8-0.2c1,0,1.6,0.2,2.1,0.5c0.4,0.3,0.6,0.7,0.6,1.3c0,0.7-0.5,1.4-1.3,1.6
					v0c0.7,0.2,1.6,0.8,1.6,1.9c0,0.6-0.3,1.1-0.6,1.5c-0.5,0.5-1.4,0.7-2.6,0.7c-0.7,0-1.2,0-1.5-0.1V222.1z M242.2,225.2h0.9
					c1,0,1.6-0.5,1.6-1.3c0-0.9-0.7-1.2-1.6-1.2c-0.4,0-0.7,0-0.9,0.1V225.2z M242.2,228.8c0.2,0,0.5,0,0.8,0c1,0,1.9-0.4,1.9-1.5
					c0-1-0.9-1.4-1.9-1.5h-0.8V228.8z"/>
				<path class="st55" d="M252.1,226.8c0,2-1.4,2.9-2.7,2.9c-1.5,0-2.6-1.1-2.6-2.8c0-1.8,1.2-2.9,2.7-2.9
					C251.1,224,252.1,225.1,252.1,226.8z M247.9,226.8c0,1.2,0.7,2.1,1.6,2.1c0.9,0,1.6-0.9,1.6-2.1c0-0.9-0.5-2.1-1.6-2.1
					C248.4,224.7,247.9,225.8,247.9,226.8z"/>
				<path class="st55" d="M258.3,226.8c0,2-1.4,2.9-2.7,2.9c-1.5,0-2.6-1.1-2.6-2.8c0-1.8,1.2-2.9,2.7-2.9
					C257.2,224,258.3,225.1,258.3,226.8z M254,226.8c0,1.2,0.7,2.1,1.6,2.1c0.9,0,1.6-0.9,1.6-2.1c0-0.9-0.5-2.1-1.6-2.1
					C254.5,224.7,254,225.8,254,226.8z"/>
				<path class="st55" d="M260.7,222.6v1.6h1.4v0.7h-1.4v2.9c0,0.7,0.2,1,0.7,1c0.3,0,0.4,0,0.6-0.1l0,0.7c-0.2,0.1-0.5,0.1-0.9,0.1
					c-0.5,0-0.8-0.1-1.1-0.4c-0.3-0.3-0.4-0.8-0.4-1.4v-2.9h-0.8v-0.7h0.8v-1.3L260.7,222.6z"/>
				<path class="st55" d="M263.2,221.6h1v3.4h0c0.2-0.3,0.4-0.5,0.7-0.7c0.3-0.2,0.6-0.3,1-0.3c0.7,0,1.9,0.4,1.9,2.3v3.2h-1v-3.1
					c0-0.9-0.3-1.6-1.2-1.6c-0.6,0-1.1,0.4-1.3,1c-0.1,0.1-0.1,0.3-0.1,0.5v3.3h-1V221.6z"/>
			</g>
		</g>
	</g>
	<g>
		<text transform="matrix(1 0 0 1 122.1695 191.3133)" class="st66 st59 st67">Day01</text>
	</g>
	<g>
		<g>
			<defs>
				<rect id="SVGID_00000036249608342517042520000004850041912869430705_" x="692.6" y="499.6" width="139.5" height="93"/>
			</defs>
			<clipPath id="SVGID_00000052802590662017210680000006282421992682466974_">
				<use xlink:href="#SVGID_00000036249608342517042520000004850041912869430705_"  style="overflow:visible;"/>
			</clipPath>
			<g style="clip-path:url(#SVGID_00000052802590662017210680000006282421992682466974_);">
				<defs>
					<rect id="SVGID_00000083071201940441454280000017155681336760223647_" x="692.6" y="499.6" width="139.5" height="93"/>
				</defs>
				<clipPath id="SVGID_00000095311613040396702000000014382984950628838793_">
					<use xlink:href="#SVGID_00000083071201940441454280000017155681336760223647_"  style="overflow:visible;"/>
				</clipPath>
				<path style="clip-path:url(#SVGID_00000095311613040396702000000014382984950628838793_);fill:#00943C;" d="M720.2,532.6
					l-1.8,7.3H716c0.1-0.2,0.1-0.5,0.2-0.8c0-0.3,0.1-0.6,0.1-1.1c0-1-0.2-1.8-0.5-2.4c-0.5-0.8-1.3-1.2-2.4-1.2c-1.4,0-3,1-4.6,2.9
					c-1.7,2-2.5,4-2.5,6.1c0,1.6,0.4,2.8,1.2,3.7c0.8,0.9,1.8,1.3,3.1,1.3c1,0,2.3-0.5,3.8-1.5c0.5-0.3,1.1-0.9,1.9-1.6l2.5,1.6
					c-0.4,0.3-0.7,0.7-1.1,1c-1,0.8-2,1.4-3.1,1.9c-1.6,0.7-3.3,1-5,1c-2.5,0-4.6-0.6-6.3-1.9c-1.9-1.4-2.8-3.3-2.8-5.8
					c0-3.3,1.5-6,4.3-8.1c2.7-2,6.1-3,10.1-3c0.9,0,2.1,0.1,3.5,0.3C718.8,532.3,719.4,532.4,720.2,532.6"/>
				<path style="clip-path:url(#SVGID_00000095311613040396702000000014382984950628838793_);fill:#00943C;" d="M741.5,537.9
					c0,1.7-0.4,3.2-1.1,4.5c-0.6,1.1-1.6,2.4-3,3.8c-1.4,1.4-3.1,2.5-5.1,3.3c-1.7,0.7-3.4,1-5,1c-2.7,0-4.8-0.8-6.3-2.3
					c-1.4-1.4-2.1-3.3-2.1-5.6c0-1.9,0.6-3.8,1.7-5.6c0.8-1.3,1.8-2.5,3.1-3.6c1-0.8,1.5-1.3,1.7-1.3l5,0c-0.1,0-0.6,0.6-1.4,1.7
					c-1.1,1.4-2,2.8-2.7,4.2c-1,2-1.5,3.8-1.5,5.4c0,1.8,0.4,3.2,1.1,4c0.6,0.7,1.5,1,2.7,1c1.6,0,3.1-0.9,4.4-2.8
					c1.3-1.9,2-3.9,2-6c0-1-0.1-1.8-0.3-2.3c-0.3-0.7-0.8-1.3-1.5-1.6c-0.2-0.1-0.4-0.1-0.6-0.2c-0.3,0-0.5-0.1-0.7-0.1
					c-0.4,0-0.7,0-0.9,0c-0.2,0-0.4,0.1-0.6,0.1v-1.6l6.4-2.1c1.1,0.4,1.9,0.8,2.4,1.2C740.6,534.2,741.5,535.9,741.5,537.9"/>
				<path style="clip-path:url(#SVGID_00000095311613040396702000000014382984950628838793_);fill:#00943C;" d="M761.2,532.3l-1.7,6
					h-2.3V538c0-0.2,0-0.4,0-0.6c0-0.5,0-1-0.1-1.4c-0.1-0.4-0.2-0.8-0.5-1c-0.3-0.3-0.7-0.6-1.1-0.8c-0.5-0.2-1.3-0.3-2.4-0.3
					c-1.4,0-2.5,0.2-3.4,0.7c-1.1,0.6-1.7,1.4-1.7,2.5c0,0.9,0.9,1.6,2.8,2.1c1.8,0.5,3.7,1,5.4,1.5c1.9,0.8,2.9,2,2.9,3.6
					c0,1.9-1.3,3.4-4,4.6c-2.4,1.1-5,1.6-8,1.6c-1.1,0-2.6-0.2-4.4-0.5c-0.6-0.1-1.4-0.3-2.4-0.6v-3.4c0.7,0.4,1.4,0.8,1.9,1
					c1.6,0.6,3.1,1,4.7,1c1.4,0,2.7-0.2,3.9-0.7c1.3-0.6,2-1.4,2-2.4c0-1-0.9-1.6-2.7-2c-1.8-0.4-3.6-0.7-5.4-1.1
					c-1.9-0.7-2.8-1.8-2.8-3.5c0-1.7,0.7-3.1,2.1-4.1c1.2-0.9,2.8-1.6,4.9-2c1.7-0.3,3.5-0.5,5.6-0.5c1.2,0,2.7,0.1,4.4,0.3
					C759.5,532,760.3,532.1,761.2,532.3"/>
				<path style="clip-path:url(#SVGID_00000095311613040396702000000014382984950628838793_);fill:#00943C;" d="M780,532.6l-1.8,7.3
					h-2.5c0.1-0.2,0.1-0.5,0.2-0.8c0-0.3,0.1-0.6,0.1-1.1c0-1-0.2-1.8-0.5-2.4c-0.5-0.8-1.3-1.2-2.4-1.2c-1.4,0-3,1-4.6,2.9
					c-1.7,2-2.5,4-2.5,6.1c0,1.6,0.4,2.8,1.2,3.7c0.8,0.9,1.8,1.3,3.1,1.3c1,0,2.3-0.5,3.8-1.5c0.5-0.3,1.1-0.9,1.9-1.6l2.5,1.6
					c-0.4,0.3-0.7,0.7-1.1,1c-1,0.8-2,1.4-3.1,1.9c-1.6,0.7-3.3,1-5,1c-2.5,0-4.6-0.6-6.3-1.9c-1.9-1.4-2.8-3.3-2.8-5.8
					c0-3.3,1.4-6,4.3-8.1c2.7-2,6.1-3,10.1-3c0.9,0,2.1,0.1,3.5,0.3C778.5,532.3,779.1,532.4,780,532.6"/>
				<path style="clip-path:url(#SVGID_00000095311613040396702000000014382984950628838793_);fill:#00943C;" d="M801.7,532.1
					l-4.6,18.3h-6.2l1.5-5.3c0-0.1,0.1-0.2,0.1-0.4c0-0.2,0-0.3,0-0.3c0-0.2-0.1-0.3-0.2-0.3c-0.1,0-0.3,0.1-0.4,0.2
					c0,0-0.1,0.1-0.2,0.3c-0.4,0.5-0.8,1.1-1.1,1.7c-1,1.3-2,2.3-3.1,3.1c-1.5,1.1-3,1.7-4.4,1.7c-1.4,0-2.6-0.5-3.4-1.4
					c-0.9-0.9-1.3-2.2-1.3-3.7c0-0.7,0.1-1.5,0.3-2.5c0.1-0.3,0.2-0.8,0.3-1.4l2.8-9.9h6.2l-3.1,10.9c0,0.1-0.1,0.2-0.1,0.5
					c-0.1,0.3-0.1,0.6-0.1,0.8c0,0.6,0.1,1,0.4,1.3c0.3,0.3,0.8,0.5,1.5,0.5c1.4,0,2.9-1.2,4.5-3.7c1.1-1.8,2.3-4,3.4-6.8
					c0.4-1.2,0.9-2.4,1.3-3.7H801.7z"/>
				<path style="clip-path:url(#SVGID_00000095311613040396702000000014382984950628838793_);fill:#00943C;" d="M769.7,526.1
					l-3.2-10l-1.6,2.9c-19.8-9.6-28.4,9.2-28.4,9.2s7.1-13.8,24.6-2.7l-1.6,2.8L769.7,526.1z"/>
				<path style="clip-path:url(#SVGID_00000095311613040396702000000014382984950628838793_);fill:#00943C;" d="M782.4,519.1
					l-3.2-10l-1.6,2.8c-19.8-9.6-28.4,9.2-28.4,9.2s7.1-13.8,24.6-2.7l-1.6,2.8L782.4,519.1z"/>
				<path style="clip-path:url(#SVGID_00000095311613040396702000000014382984950628838793_);fill:#00943C;" d="M822,533.3
					c-1.4-0.8-3-1.2-5-1.2h-2.8l-0.4,0.5c0.1,0.3,0.2,0.6,0.2,0.8l0,0.3c0,0.1,0,0.3,0,0.5h0.4c1.1,0,2,0.4,2.7,1.1
					c0.7,0.7,1.1,1.7,1.1,3c0,1.5-0.7,2.7-2.1,3.6c-0.9,0.6-2.2,1-3.8,1.2c-0.3,0-0.5,0.1-0.8,0.1l-0.2,0.5
					c-0.1,0.4-0.1,0.7-0.4,1.1l-0.2,0.3c0.1,0,0.3,0,0.5,0c1.8,0,3.5-0.1,5-0.4c2.3-0.4,4.2-1.2,5.5-2.2c1.7-1.3,2.6-3.1,2.6-5.3
					C824.3,535.5,823.5,534.2,822,533.3"/>
				<path style="clip-path:url(#SVGID_00000095311613040396702000000014382984950628838793_);fill:#00943C;" d="M811.1,537.2
					c0-0.1,0-0.3,0.1-0.4l0.6-1.6c0-0.1,0.1-0.3,0.2-0.3l0.3-0.6l0-0.1c0-0.1,0-0.3,0-0.4l0-0.2c0-0.1,0-0.3-0.1-0.4l-0.1-0.3v-0.4
					l0.1-0.4l0-0.2c0.1-0.1,0.1-0.3,0.2-0.3l0.6-0.6c0-0.1,0.1-0.2,0-0.3l-0.3-0.5c-0.1-0.1-0.2-0.2-0.3-0.2l-1-0.3
					c-0.1,0-0.3-0.1-0.3-0.2l-0.3-0.4c-0.1-0.1-0.2-0.2-0.3-0.2h-0.1c-0.1,0-0.3,0.1-0.3,0.1l-0.3,0.3c-0.1,0.1-0.1,0.3-0.1,0.4
					c0,0.1-0.1,0.2-0.2,0.3l-0.5,0.1c-0.2,0-0.3,0.1-0.4,0.1l-0.8,0.3c-0.1,0-0.2,0.1-0.3,0.2l-0.8,1.8c-0.1,0.1-0.2,0.2-0.3,0.3
					l-0.7,0.8c-0.1,0.1-0.2,0.2-0.3,0.3l-3.2,5.7c-0.1,0.1-0.1,0.2-0.1,0.3l0.1,1.9c0.1,0.1,0,0.2-0.1,0.3l-0.1,0.1
					c0,0.1-0.1,0.2-0.1,0.3l-0.1,0.4c0,0.1-0.1,0.3-0.1,0.4l0,0.3c0,0.1,0,0.3,0.1,0.3l0.5,0.4c0.1,0,0.1,0.1,0.1,0.3v0.6
					c0,0.1,0.1,0.3,0.1,0.4l0.2,0.6c0.1,0.1,0.1,0.3,0.1,0.3l0.6,0.9c0.1,0.1,0.2,0.2,0.3,0.2h0c0.1,0,0.3,0,0.4,0.1l0.8,0.8
					c0.1,0.1,0.2,0.2,0.3,0.3l0.4,0.8c0,0.1,0,0.3,0,0.4l-0.1,0.5c0,0.1,0.1,0.3,0.1,0.4l0.1,0.1c0.1,0.1,0.3,0.2,0.3,0.2l0.3,0.2
					c0.1,0.1,0.2,0,0.3-0.1l0.1-0.4c0-0.1,0.1-0.2,0.1-0.4v-0.7v-1.1c0-0.1,0-0.3,0-0.4l0.7-1.7c0-0.1,0.1-0.2,0.2-0.3l0.6-0.7
					l0.1-0.1c0.1,0,0.2-0.2,0.2-0.3l0.9-1.6c0.2-0.2,0.1-0.3,0.2-0.6c0-0.1,0.1-0.3,0.1-0.4l0.5-1.5c0.1-0.2,0.5-2.7,0.7-3.8
					C811.1,537.4,811.1,537.3,811.1,537.2"/>
				<path style="clip-path:url(#SVGID_00000095311613040396702000000014382984950628838793_);fill:#00943C;" d="M700.4,564.7
					c2.5-2.2,3.8-3.8,3.8-5.2c0-0.9-0.5-1.5-1.4-1.5c-0.7,0-1.2,0.4-1.7,0.9l-0.7-0.7c0.7-0.8,1.5-1.3,2.6-1.3c1.5,0,2.5,1,2.5,2.5
					c0,1.6-1.3,3.3-3.1,5c0.4,0,1-0.1,1.4-0.1h2.1v1.1h-5.4V564.7z"/>
				<path style="clip-path:url(#SVGID_00000095311613040396702000000014382984950628838793_);fill:#00943C;" d="M712,561.2
					c0-2.9,1.1-4.3,2.7-4.3c1.6,0,2.7,1.4,2.7,4.3c0,2.9-1.1,4.4-2.7,4.4C713.1,565.6,712,564.2,712,561.2 M716.2,561.2
					c0-2.4-0.6-3.3-1.5-3.3c-0.9,0-1.5,0.9-1.5,3.3c0,2.4,0.6,3.3,1.5,3.3C715.6,564.6,716.2,563.7,716.2,561.2"/>
				<path style="clip-path:url(#SVGID_00000095311613040396702000000014382984950628838793_);fill:#00943C;" d="M723.6,564.7
					c2.5-2.2,3.8-3.8,3.8-5.2c0-0.9-0.5-1.5-1.4-1.5c-0.7,0-1.2,0.4-1.7,0.9l-0.7-0.7c0.7-0.8,1.5-1.3,2.6-1.3c1.5,0,2.5,1,2.5,2.5
					c0,1.6-1.3,3.3-3.1,5c0.4,0,1-0.1,1.4-0.1h2.1v1.1h-5.4V564.7z"/>
				<path style="clip-path:url(#SVGID_00000095311613040396702000000014382984950628838793_);fill:#00943C;" d="M735.1,564.5
					l0.6-0.8c0.5,0.5,1.1,0.9,2,0.9c0.9,0,1.6-0.5,1.6-1.4c0-0.9-0.6-1.5-2.5-1.5v-1c1.7,0,2.2-0.6,2.2-1.5c0-0.7-0.5-1.2-1.3-1.2
					c-0.7,0-1.2,0.3-1.7,0.8l-0.7-0.8c0.7-0.6,1.4-1,2.4-1c1.5,0,2.6,0.8,2.6,2.2c0,1-0.6,1.6-1.5,2v0.1c1,0.2,1.7,1,1.7,2.1
					c0,1.5-1.3,2.4-2.8,2.4C736.5,565.6,735.7,565.1,735.1,564.5"/>
				<path style="clip-path:url(#SVGID_00000095311613040396702000000014382984950628838793_);fill:#00943C;" d="M748.5,560.2v6.1h-1
					v-10h4.2v3.9H748.5z M748.5,557.9h2.2v-0.8h-2.2V557.9z M750.7,558.6h-2.2v0.8h2.2V558.6z M753.7,563.7v2.5h-0.9v-2.5h-1.4
					c-0.1,0.8-0.5,1.9-1.5,2.6c-0.1-0.2-0.5-0.5-0.7-0.6c0.8-0.5,1.2-1.4,1.3-2h-1.3v-0.9h1.3v-1.1h-1.1v-0.8h5.5v0.8h-1.2v1.1h1.4
					v0.9H753.7z M752.8,561.7h-1.4v1.1h1.4V561.7z M756.9,565.1c0,0.6-0.1,0.9-0.5,1.1c-0.4,0.2-0.9,0.2-1.8,0.2
					c0-0.3-0.2-0.8-0.3-1.1c0.6,0,1.2,0,1.3,0c0.2,0,0.2-0.1,0.2-0.2v-4.8h-3.3v-3.9h4.3V565.1z M753.6,557.9h2.3v-0.8h-2.3V557.9z
					 M755.8,558.6h-2.3v0.9h2.3V558.6z"/>
				<path style="clip-path:url(#SVGID_00000095311613040396702000000014382984950628838793_);fill:#00943C;" d="M765.3,561
					c-0.4-0.3-1.3-0.8-1.9-1.2l0.6-0.8c0.6,0.3,1.5,0.8,1.9,1.1L765.3,561z M766.1,562.6c-0.4,1.2-1,2.6-1.6,3.6l-1-0.6
					c0.5-0.9,1.2-2.4,1.7-3.7L766.1,562.6z M765.8,558c-0.4-0.3-1.3-0.9-1.9-1.3l0.6-0.7c0.6,0.3,1.5,0.8,1.9,1.2L765.8,558z
					 M767.8,559.6c0,2-0.2,4.9-1.5,6.8c-0.2-0.2-0.6-0.4-0.9-0.6c1.3-1.8,1.4-4.4,1.4-6.2v-3.1h7v1h-6V559.6z M769.6,563.4
					c-0.4,0.8-0.9,1.7-1.4,2.3c-0.2-0.1-0.6-0.4-0.8-0.5c0.5-0.5,1-1.3,1.3-2.1L769.6,563.4z M771.3,562.6v2.8
					c0,0.5-0.1,0.7-0.4,0.9c-0.3,0.2-0.8,0.2-1.6,0.2c0-0.3-0.2-0.7-0.3-0.9c0.5,0,0.9,0,1.1,0c0.1,0,0.2,0,0.2-0.2v-2.7h-1.9v-4
					h1.6c0.1-0.4,0.2-0.8,0.3-1.1l1.2,0.2c-0.1,0.3-0.3,0.6-0.4,0.9h2.3v4H771.3z M769.3,560.2h3.1v-0.8h-3.1V560.2z M769.3,561.8
					h3.1v-0.8h-3.1V561.8z M772.8,563c0.4,0.7,1,1.6,1.2,2.2l-1,0.4c-0.2-0.6-0.7-1.5-1.2-2.3L772.8,563z"/>
				<path style="clip-path:url(#SVGID_00000095311613040396702000000014382984950628838793_);fill:#00943C;" d="M785.8,555.9
					c0,0.4,0,1-0.1,1.7c0.2,1.4,0.9,6,4.8,7.8c-0.3,0.2-0.6,0.6-0.8,0.9c-2.7-1.3-3.9-3.8-4.5-5.8c-0.6,2.1-1.8,4.5-4.4,5.9
					c-0.2-0.3-0.5-0.6-0.9-0.8c4.7-2.4,4.5-7.7,4.6-9.6H785.8z"/>
				<path style="clip-path:url(#SVGID_00000095311613040396702000000014382984950628838793_);fill:#00943C;" d="M806.9,563.8h-4v2.5
					h-1.1v-2.5h-5.2v-1h1.8v-3h3.4v-1.6h-2.6c-0.5,0.8-1.1,1.6-1.6,2.2c-0.2-0.2-0.7-0.5-0.9-0.7c1.1-0.9,2-2.4,2.5-3.9l1.1,0.3
					c-0.1,0.4-0.3,0.7-0.4,1.1h6.6v1h-3.5v1.6h3.2v1h-3.2v2h4V563.8z M801.8,560.8h-2.3v2h2.3V560.8z"/>
				<path style="clip-path:url(#SVGID_00000095311613040396702000000014382984950628838793_);fill:#00943C;" d="M819.1,556.2
					c-0.1,0.1-0.1,0.1-0.2,0.2c1.1,1,3,1.9,4.8,2.2c-0.2,0.2-0.5,0.6-0.7,0.8c-0.3-0.1-0.6-0.2-0.9-0.3v3h-7.7v-2.9
					c-0.3,0.1-0.6,0.2-0.8,0.3c-0.1-0.2-0.4-0.6-0.6-0.8c2.1-0.5,4.1-1.5,5.1-2.9L819.1,556.2z M822.2,559.1
					c-0.6-0.2-1.2-0.5-1.8-0.8v0.3h-4v-0.3c-0.5,0.3-1.1,0.5-1.7,0.8H822.2z M815.1,562.6h6.5v3.8h-1.1V566h-4.4v0.4h-1.1V562.6z
					 M816.7,559.9c0.3,0.4,0.5,0.9,0.6,1.3l-0.8,0.3h1.3v-1.6h-2.5v1.6h1.1c-0.1-0.4-0.3-0.9-0.5-1.3L816.7,559.9z M816.2,563.9h4.4
					v-0.6h-4.4V563.9z M820.6,564.7h-4.4v0.6h4.4V564.7z M819.7,557.9c-0.5-0.3-0.9-0.6-1.3-1c-0.4,0.3-0.8,0.7-1.2,1H819.7z
					 M821.3,559.8h-2.5v1.6h1.3l-0.7-0.2c0.2-0.4,0.4-0.9,0.6-1.3l0.9,0.3c-0.3,0.5-0.5,1-0.7,1.3h1.2V559.8z"/>
				<path style="clip-path:url(#SVGID_00000095311613040396702000000014382984950628838793_);fill:#00943C;" d="M704.5,573.3h-4
					v-1.8h6.3v1.3c-2.1,2.5-2.4,4.3-2.5,7.9h-2.2C702.3,577.7,702.7,575.7,704.5,573.3"/>
				<polygon style="clip-path:url(#SVGID_00000095311613040396702000000014382984950628838793_);fill:#00943C;" points="
					713.1,570.7 714.5,570.7 711.8,583 710.3,583 				"/>
				<path style="clip-path:url(#SVGID_00000095311613040396702000000014382984950628838793_);fill:#00943C;" d="M718.2,579.5
					c2.3-2.1,3.9-3.8,3.9-5.1c0-0.8-0.5-1.3-1.2-1.3c-0.6,0-1.1,0.4-1.6,0.9l-1.2-1.2c0.9-1,1.7-1.4,3.1-1.4c1.8,0,3,1.1,3,2.9
					c0,1.6-1.4,3.3-2.8,4.8c0.5-0.1,1.1-0.1,1.5-0.1h1.7v1.9h-6.4V579.5z"/>
				<path style="clip-path:url(#SVGID_00000095311613040396702000000014382984950628838793_);fill:#00943C;" d="M729.7,578.5
					c0.3,0.3,0.9,0.6,1.4,0.6c0.9,0,1.7-0.7,1.8-2.7c-0.4,0.6-1.2,0.9-1.8,0.9c-1.5,0-2.7-0.9-2.7-2.9c0-2,1.4-3.1,3-3.1
					c1.7,0,3.4,1.3,3.4,4.7c0,3.3-1.8,4.9-3.6,4.9c-1.2,0-2.1-0.5-2.7-1.1L729.7,578.5z M732.8,574.9c-0.2-1.5-0.8-2-1.3-2
					c-0.6,0-1.1,0.4-1.1,1.5c0,1,0.5,1.3,1.1,1.3C732,575.8,732.5,575.6,732.8,574.9"/>
				
					<rect x="738.8" y="576.4" style="clip-path:url(#SVGID_00000095311613040396702000000014382984950628838793_);fill:#00943C;" width="3.5" height="1.5"/>
				<path style="clip-path:url(#SVGID_00000095311613040396702000000014382984950628838793_);fill:#00943C;" d="M746,579.6l1-1.4
					c0.6,0.5,1.2,0.9,1.9,0.9c0.9,0,1.4-0.4,1.4-1.1c0-0.8-0.4-1.3-2.4-1.3v-1.5c1.6,0,2.1-0.5,2.1-1.2c0-0.6-0.4-1-1.1-1
					c-0.6,0-1.1,0.3-1.6,0.8l-1.1-1.3c0.9-0.7,1.8-1.1,2.9-1.1c1.9,0,3.2,0.9,3.2,2.5c0,0.9-0.5,1.6-1.5,2v0.1
					c1,0.3,1.8,1.1,1.8,2.2c0,1.7-1.6,2.7-3.4,2.7C747.7,580.9,746.7,580.4,746,579.6"/>
				<path style="clip-path:url(#SVGID_00000095311613040396702000000014382984950628838793_);fill:#00943C;" d="M756.5,576.1
					c0-3.2,1.3-4.7,3.3-4.7c1.9,0,3.3,1.6,3.3,4.7c0,3.2-1.3,4.8-3.3,4.8C757.8,580.9,756.5,579.2,756.5,576.1 M760.9,576.1
					c0-2.5-0.5-3-1.2-3c-0.7,0-1.2,0.5-1.2,3c0,2.5,0.5,3.1,1.2,3.1C760.4,579.2,760.9,578.6,760.9,576.1"/>
				<path style="clip-path:url(#SVGID_00000095311613040396702000000014382984950628838793_);fill:#00943C;" d="M766.7,576.6
					c0-4,2.9-6.6,6.5-6.6c3.1,0,5.1,2.1,5.1,5.1c0,2.6-1.8,3.9-3.3,3.9c-0.8,0-1.5-0.4-1.7-1.1h0c-0.4,0.6-1.1,1-1.7,1
					c-1.1,0-1.9-0.9-1.9-2.2c0-1.8,1.3-3.5,2.9-3.5c0.5,0,0.8,0.2,1.1,0.7h0l0.2-0.6h1.3l-0.7,3.2c-0.2,0.8,0,1.2,0.6,1.2
					c0.9,0,1.7-1,1.7-2.5c0-2-1.1-3.9-3.9-3.9c-2.4,0-4.8,2.1-4.8,5.3c0,2.8,2,4.1,4.2,4.1c0.7,0,1.6-0.2,2.1-0.5l0.5,1.2
					c-0.9,0.5-1.8,0.7-2.8,0.7C769.3,582,766.7,580.3,766.7,576.6 M773,576.9l0.3-1.9c-0.1-0.2-0.4-0.4-0.6-0.4
					c-0.8,0-1.3,1.2-1.3,2c0,0.6,0.3,0.9,0.7,0.9C772.3,577.5,772.6,577.4,773,576.9"/>
				<path style="clip-path:url(#SVGID_00000095311613040396702000000014382984950628838793_);fill:#00943C;" d="M793.2,570.7v1.1
					h-4.7v0.3h3.6v1h-9v-1h3.5v-0.3h-4.6v-1.1h4.6v-0.6h1.8v0.6H793.2z M782.1,575.5h10.9v1.9h-1.5v0.3H791c0.4,0.3,0.9,0.6,1.2,0.8
					l-0.8,0.7h0.7v1h-3.5v0.3h4.6v1.2h-10.8v-1.2h4.4v-0.3h-3.2v-1h3.2V579c-1.9,0.1-2.3,0.1-2.6,0.2c-0.1-0.2-0.2-0.8-0.4-1.1
					c0.2,0,0.4-0.1,0.7-0.1c0.1,0,0.3-0.1,0.6-0.2h-1.4v-0.3h-1.4V575.5z M791.8,575.2h-8.3v-1.9h8.3V575.2z M783.7,576.8h7.6v-0.2
					h-7.6V576.8z M790,574.1h-4.9v0.3h4.9V574.1z M789.1,578c-0.2-0.1-0.3-0.2-0.5-0.3l0,0h-1.8c-0.2,0.1-0.4,0.2-0.6,0.3L789.1,578
					z M790.8,579.2c-0.1-0.1-0.2-0.2-0.4-0.3l-2,0v0.3H790.8z"/>
				<path style="clip-path:url(#SVGID_00000095311613040396702000000014382984950628838793_);fill:#00943C;" d="M800.9,578.3
					c-0.1-0.3-0.3-0.7-0.5-1v4.6h-1.7v-3.8c-0.3,0.8-0.7,1.4-1.1,2c-0.2-0.5-0.5-1.3-0.8-1.7c0.6-0.8,1.3-1.9,1.7-3h-1.5v-1.7h1.8
					v-1.2c-0.4,0.1-0.8,0.1-1.2,0.2c-0.1-0.4-0.3-1-0.5-1.4c1.4-0.2,2.9-0.6,4-1l1,1.5c-0.5,0.2-1,0.3-1.6,0.4v1.5h1.5v1.7h-1.5v0
					c0.3,0.3,1.3,1.3,1.5,1.6L800.9,578.3z M807.3,578.8v3.1h-1.8v-2.8l-3.6,0.7l-0.3-1.7l3.9-0.7v-7.3h1.8v7l1.1-0.2l0.3,1.7
					L807.3,578.8z M803.1,574.1c0.7,0.5,1.5,1.3,1.9,1.8l-1.2,1.2c-0.4-0.6-1.2-1.4-1.9-2L803.1,574.1z M804.1,573.8
					c-0.3-0.5-1.1-1.4-1.8-1.9l1.2-1c0.6,0.5,1.5,1.3,1.9,1.8L804.1,573.8z"/>
				<path style="clip-path:url(#SVGID_00000095311613040396702000000014382984950628838793_);fill:#00943C;" d="M819.2,575.2
					c0.8,2.2,2.2,4.1,4.5,4.9c-0.4,0.4-1.1,1.2-1.3,1.7c-2.2-1-3.5-2.7-4.5-4.8c-0.7,1.9-2,3.6-4.5,4.8c-0.3-0.5-0.8-1.1-1.4-1.5
					c2.7-1.2,3.9-3.1,4.3-5.1h-4.1v-1.9h4.4c0.1-1.1,0.1-2.2,0.1-3.2h2c0,1,0,2.1-0.1,3.2h4.8v1.9H819.2z"/>
			</g>
		</g>
	</g>
</g>
<g id="輸出佈置" class="st99">
	<text transform="matrix(1 0 0 1 114.6641 181.0336)" class="st102 st103 st104">講桌前背板</text>
	<text transform="matrix(1 0 0 1 542.8314 354.0222)" class="st101"><tspan x="0" y="0" class="st105 st103 st104">主視覺 </tspan><tspan x="0" y="14.4" class="st105 st103 st104">(X展架)</tspan></text>
	<text transform="matrix(1 0 0 1 654.8047 157.3399)" class="st102 st103 st104">大舞台左右掛布(左右各2)</text>
	<text transform="matrix(1 0 0 1 415.4862 350.8504)" class="st102 st103 st104">講桌前背板</text>
	<text transform="matrix(1 0 0 1 388.1758 578.6097)" class="st102 st103 st104">桌前背板</text>
	<text transform="matrix(1 0 0 1 468.1476 529.7349)" class="st102 st103 st104">桌後背板</text>
	<polygon class="st102" points="613.7,346.9 592.6,338.9 592.6,148 613.7,156 	"/>
	<polygon class="st102" points="643.4,359.8 622.3,351.8 622.3,160.9 643.4,168.9 	"/>
	<polygon class="st102" points="505.5,375.1 484.4,367.1 483.6,333.6 504.7,341.6 	"/>
	<polygon class="st102" points="115.2,230.8 94,222.8 93.2,189.3 114.4,197.3 	"/>
	<polygon class="st107" points="163.1,505.6 167.4,423.7 288.1,392.3 283.9,474.2 	"/>
	<polygon class="st102" points="542.7,351.9 521.6,343.9 524.1,272.2 545.3,280.2 	"/>
	<text transform="matrix(1 0 0 1 219.692 221.9371)" class="st101"><tspan x="0" y="0" class="st105 st103 st104">主視覺 </tspan><tspan x="0" y="14.4" class="st105 st103 st104">(X展架)</tspan></text>
	<polygon class="st102" points="219.6,219.8 198.5,211.8 201,140.1 222.1,148.1 	"/>
	<polygon class="st102" points="770,408.9 748.8,400.9 748.8,210 770,218 	"/>
	<polygon class="st102" points="804.5,419.5 783.3,411.5 783.3,220.6 804.5,228.6 	"/>
	<path class="st108" d="M515.1,252c0,0-153.4,83.4-152.8,85.7c0.6,2.3,454.3,194.9,454.3,194.9l22.3-18.9"/>
	<polygon class="st107" points="433.9,464.6 342.4,429.2 342.4,494.3 433.9,529.7 	"/>
	<polygon class="st107" points="380,557.5 301.6,523.2 301.6,555.7 380,590 	"/>
	<line class="st109" x1="737.9" y1="59.1" x2="-28" y2="408.9"/>
	<text transform="matrix(1 0 0 1 38.2849 63.2394)" class="st101 st103 st110">AU</text>
	<text transform="matrix(1 0 0 1 661.0417 572.1918)" class="st101 st103 st110">RB</text>
</g>
</svg>
