<?xml version="1.0" encoding="utf-8"?>
<!-- Generator: Adobe Illustrator 27.3.1, SVG Export Plug-In . SVG Version: 6.00 Build 0)  -->
<svg version="1.1" xmlns="http://www.w3.org/2000/svg" xmlns:xlink="http://www.w3.org/1999/xlink" x="0px" y="0px"
	 viewBox="0 0 841.9 595.3" style="enable-background:new 0 0 841.9 595.3;" xml:space="preserve">
<style type="text/css">
	.st0{fill:#3B9838;}
	.st1{fill:none;stroke:#FFFFFF;stroke-width:2;stroke-linecap:round;stroke-linejoin:bevel;}
	.st2{opacity:0.73;}
	.st3{fill:#A0A0A0;stroke:#FFFFFF;stroke-width:2;stroke-linecap:round;stroke-linejoin:bevel;}
	.st4{fill:none;stroke:#B3B3B3;stroke-width:4.4344;stroke-linecap:round;stroke-miterlimit:10;}
	.st5{fill:#E6E6E6;}
	.st6{fill:#FFFEFF;}
	.st7{fill:#B3B3B3;}
	.st8{fill:none;stroke:#B3B3B3;stroke-width:4.4344;stroke-miterlimit:10;}
	.st9{fill:none;stroke:#FFFEFF;stroke-width:3;stroke-miterlimit:10;}
	.st10{fill:#12344C;}
	.st11{fill:#E98025;}
	.st12{fill:#808080;}
	.st13{fill:#FFE9BA;}
	.st14{fill:#3E3D4D;}
	.st15{fill:#BCC4C6;}
	.st16{fill:#D24635;}
	.st17{fill:#FCF3EE;}
	.st18{fill:#E8C72E;}
	.st19{fill:#E0A911;}
	.st20{fill:#0071BC;}
	.st21{opacity:0.2;fill:none;stroke:#70931B;stroke-width:2;stroke-miterlimit:10;stroke-dasharray:4,4;}
	.st22{opacity:0.2;fill:none;stroke:#70931B;stroke-width:1.78;stroke-miterlimit:10;stroke-dasharray:3.56,3.56;}
	.st23{clip-path:url(#SVGID_00000141428016576977933830000010380249526214458022_);}
	.st24{clip-path:url(#SVGID_00000174564307289921921520000016724033834247547539_);fill:#00943C;}
	.st25{clip-path:url(#SVGID_00000173846581885378075130000014117207266088948927_);}
	.st26{clip-path:url(#SVGID_00000167385718184309259960000002378758225946613383_);fill:#00943C;}
	.st27{clip-path:url(#SVGID_00000079476156459940688510000010265041081498747045_);}
	.st28{clip-path:url(#SVGID_00000019665343487557062320000010141456084186067124_);fill:#00943C;}
	.st29{clip-path:url(#SVGID_00000170981707257438633350000001472156171862858368_);}
	.st30{clip-path:url(#SVGID_00000078764222046157023280000008232034431166328704_);fill:#00943C;}
	.st31{clip-path:url(#SVGID_00000183962390415959669830000007973188111861204408_);}
	.st32{clip-path:url(#SVGID_00000129888245129428937530000005584629996705791423_);fill:#00943C;}
	.st33{clip-path:url(#SVGID_00000183953866792386960430000001980256775172310426_);}
	.st34{clip-path:url(#SVGID_00000101080710856270130340000011807474513516332968_);fill:#00943C;}
	.st35{clip-path:url(#SVGID_00000142872778142609120150000010526202956542851470_);}
	.st36{clip-path:url(#SVGID_00000002384784087489946350000003796936012532220048_);fill:#00943C;}
	.st37{clip-path:url(#SVGID_00000150816655941658025450000002797768778499351439_);}
	.st38{clip-path:url(#SVGID_00000081644153484798846300000003530486115876573334_);fill:#00943C;}
	.st39{opacity:0.1;fill:#70931B;}
	.st40{fill:none;stroke:#FFFEFF;stroke-miterlimit:10;}
	.st41{fill:#FFFFFF;}
	.st42{fill:none;stroke:#FFFFFF;stroke-width:1.8113;}
	.st43{fill:#C1272D;}
	.st44{fill:#30AF00;}
	.st45{fill:#0076CB;}
	.st46{fill:#008061;}
	.st47{fill:#F5821F;}
	.st48{fill:#ED1B2D;}
	.st49{fill:#FF0000;}
	.st50{opacity:0.5;fill:url(#SVGID_00000077302666045385678510000007689248673765614009_);}
	.st51{opacity:0.5;fill:url(#SVGID_00000039102596747941798660000011372372808533515169_);}
	.st52{opacity:0.8;}
	.st53{fill-rule:evenodd;clip-rule:evenodd;fill:#D5E7D0;}
	.st54{fill:none;stroke:#040000;stroke-width:0.75;stroke-linejoin:round;stroke-miterlimit:8;}
	.st55{opacity:0;fill-rule:evenodd;clip-rule:evenodd;fill:#040000;}
	.st56{fill:#040000;}
	.st57{fill-rule:evenodd;clip-rule:evenodd;fill:#8FCFC9;}
	.st58{fill-rule:evenodd;clip-rule:evenodd;fill:#F2EA32;}
	.st59{fill-rule:evenodd;clip-rule:evenodd;fill:#040000;}
	.st60{fill-rule:evenodd;clip-rule:evenodd;fill:#FFFFFF;}
	.st61{opacity:0;fill-rule:evenodd;clip-rule:evenodd;}
	.st62{fill:none;stroke:#000000;stroke-width:0.75;stroke-linejoin:round;stroke-miterlimit:8;}
	.st63{fill-rule:evenodd;clip-rule:evenodd;fill:#D9EAD3;}
	.st64{opacity:0;fill-rule:evenodd;clip-rule:evenodd;stroke:#000000;stroke-width:0.75;stroke-miterlimit:10;}
	.st65{fill-rule:evenodd;clip-rule:evenodd;fill:#FCFCFC;stroke:#000000;stroke-width:0.75;stroke-miterlimit:10;}
	.st66{fill:#3B9138;}
	.st67{font-family:'MicrosoftJhengHeiBold';}
	.st68{font-size:21.31px;}
	.st69{font-size:17.0817px;}
	.st70{fill:#6B6B6B;}
	.st71{font-size:12.4962px;}
	.st72{fill:none;stroke:#000000;stroke-width:0.5;stroke-linejoin:round;stroke-miterlimit:8;}
	.st73{fill-rule:evenodd;clip-rule:evenodd;fill:none;stroke:#000000;stroke-width:0.5;stroke-linejoin:round;stroke-miterlimit:8;}
	.st74{fill-rule:evenodd;clip-rule:evenodd;fill:#FFFFFF;stroke:#000000;stroke-width:0.5;stroke-miterlimit:10;}
	.st75{fill-rule:evenodd;clip-rule:evenodd;fill:#D5E7D0;stroke:#000000;stroke-width:0.5;stroke-miterlimit:10;}
	.st76{fill-rule:evenodd;clip-rule:evenodd;fill:#F2EA32;stroke:#000000;stroke-width:0.5;stroke-miterlimit:10;}
	.st77{font-size:9.3049px;}
	.st78{opacity:0;fill-rule:evenodd;clip-rule:evenodd;fill:#040000;stroke:#000000;stroke-width:0.5;stroke-miterlimit:10;}
	.st79{fill:#D5E7D0;stroke:#000000;stroke-width:0.5;stroke-miterlimit:10;}
	.st80{fill-rule:evenodd;clip-rule:evenodd;fill:#FCFDFD;stroke:#000000;stroke-width:0.5;stroke-miterlimit:10;}
	.st81{font-size:9.2103px;}
	.st82{font-family:'MicrosoftJhengHeiRegular';}
	.st83{font-size:9.0719px;}
	
		.st84{fill-rule:evenodd;clip-rule:evenodd;fill:none;stroke:#040000;stroke-width:0.75;stroke-linejoin:round;stroke-miterlimit:8;}
	
		.st85{opacity:0;fill-rule:evenodd;clip-rule:evenodd;fill:none;stroke:#040000;stroke-width:0.75;stroke-linejoin:round;stroke-miterlimit:8;}
	.st86{fill:#D5E7D0;stroke:#040000;stroke-width:0.75;stroke-miterlimit:10;}
	.st87{opacity:0;fill-rule:evenodd;clip-rule:evenodd;fill:#040000;stroke:#040000;stroke-width:0.75;stroke-miterlimit:10;}
	.st88{fill-rule:evenodd;clip-rule:evenodd;fill:#FFFFFF;stroke:#040000;stroke-width:0.75;stroke-miterlimit:10;}
	.st89{fill-rule:evenodd;clip-rule:evenodd;fill:#FCFDFD;}
	.st90{fill-rule:evenodd;clip-rule:evenodd;fill:#D5E7D0;stroke:#040000;stroke-width:0.75;stroke-miterlimit:10;}
	.st91{fill-rule:evenodd;clip-rule:evenodd;fill:#FCFDFD;stroke:#040000;stroke-width:0.75;stroke-miterlimit:10;}
	.st92{clip-path:url(#SVGID_00000137096380894157354220000016793708375498222518_);}
	.st93{clip-path:url(#SVGID_00000078736840194006610990000005229278764784079752_);fill:#00943C;}
	.st94{clip-path:url(#SVGID_00000095296935029897738490000003625581038446543276_);}
	.st95{clip-path:url(#SVGID_00000178187499715638996280000016123850764678938800_);fill:#00943C;}
	.st96{clip-path:url(#SVGID_00000034056199013956246400000005248235006579138222_);}
	.st97{clip-path:url(#SVGID_00000016768505890108681780000008945053464598478508_);fill:#00943C;}
	.st98{display:none;}
	.st99{display:inline;fill:none;stroke:#F90000;stroke-width:8;stroke-miterlimit:10;}
	.st100{display:inline;}
	.st101{display:inline;fill:none;stroke:#000000;stroke-miterlimit:10;}
	.st102{display:inline;fill:#F90000;}
	.st103{display:inline;fill:none;stroke:#F90000;stroke-width:3;stroke-miterlimit:10;}
	.st104{display:inline;fill:none;stroke:#232323;stroke-miterlimit:10;}
	.st105{display:inline;fill:none;stroke:#F90000;stroke-miterlimit:10;}
	.st106{display:inline;fill:none;stroke:#B3B3B3;stroke-width:4.4344;stroke-linecap:round;stroke-miterlimit:10;}
	.st107{display:inline;fill:#E6E6E6;}
	.st108{display:inline;fill:#FFFEFF;}
	.st109{display:inline;fill:#B3B3B3;}
	.st110{display:inline;fill:none;stroke:#B3B3B3;stroke-width:4.4344;stroke-miterlimit:10;}
	.st111{display:inline;opacity:0.2;fill:none;stroke:#70931B;stroke-width:2;stroke-miterlimit:10;stroke-dasharray:4,4;}
</style>
<g id="建築">
</g>
<g id="標示">
</g>
<g id="樓層位置">
	<g>
		<g>
			<defs>
				<rect id="SVGID_00000157277525384600102960000006137682365827359630_" x="692.6" y="499.6" width="139.5" height="93"/>
			</defs>
			<clipPath id="SVGID_00000167378511962971165810000011048938935988066991_">
				<use xlink:href="#SVGID_00000157277525384600102960000006137682365827359630_"  style="overflow:visible;"/>
			</clipPath>
			<g style="clip-path:url(#SVGID_00000167378511962971165810000011048938935988066991_);">
				<defs>
					<rect id="SVGID_00000103973849679280019330000003341744031623292033_" x="692.6" y="499.6" width="139.5" height="93"/>
				</defs>
				<clipPath id="SVGID_00000141447998781869351540000010512446826242935430_">
					<use xlink:href="#SVGID_00000103973849679280019330000003341744031623292033_"  style="overflow:visible;"/>
				</clipPath>
				<path style="clip-path:url(#SVGID_00000141447998781869351540000010512446826242935430_);fill:#00943C;" d="M720.2,532.6
					l-1.8,7.3H716c0.1-0.2,0.1-0.5,0.2-0.8c0-0.3,0.1-0.6,0.1-1.1c0-1-0.2-1.8-0.5-2.4c-0.5-0.8-1.3-1.2-2.4-1.2c-1.4,0-3,1-4.6,2.9
					c-1.7,2-2.5,4-2.5,6.1c0,1.6,0.4,2.8,1.2,3.7c0.8,0.9,1.8,1.3,3.1,1.3c1,0,2.3-0.5,3.8-1.5c0.5-0.3,1.1-0.9,1.9-1.6l2.5,1.6
					c-0.4,0.3-0.7,0.7-1.1,1c-1,0.8-2,1.4-3.1,1.9c-1.6,0.7-3.3,1-5,1c-2.5,0-4.6-0.6-6.3-1.9c-1.9-1.4-2.8-3.3-2.8-5.8
					c0-3.3,1.5-6,4.3-8.1c2.7-2,6.1-3,10.1-3c0.9,0,2.1,0.1,3.5,0.3C718.8,532.3,719.4,532.4,720.2,532.6"/>
				<path style="clip-path:url(#SVGID_00000141447998781869351540000010512446826242935430_);fill:#00943C;" d="M741.5,537.9
					c0,1.7-0.4,3.2-1.1,4.5c-0.6,1.1-1.6,2.4-3,3.8c-1.4,1.4-3.1,2.5-5.1,3.3c-1.7,0.7-3.4,1-5,1c-2.7,0-4.8-0.8-6.3-2.3
					c-1.4-1.4-2.1-3.3-2.1-5.6c0-1.9,0.6-3.8,1.7-5.6c0.8-1.3,1.8-2.5,3.1-3.6c1-0.8,1.5-1.3,1.7-1.3l5,0c-0.1,0-0.6,0.6-1.4,1.7
					c-1.1,1.4-2,2.8-2.7,4.2c-1,2-1.5,3.8-1.5,5.4c0,1.8,0.4,3.2,1.1,4c0.6,0.7,1.5,1,2.7,1c1.6,0,3.1-0.9,4.4-2.8
					c1.3-1.9,2-3.9,2-6c0-1-0.1-1.8-0.3-2.3c-0.3-0.7-0.8-1.3-1.5-1.6c-0.2-0.1-0.4-0.1-0.6-0.2c-0.3,0-0.5-0.1-0.7-0.1
					c-0.4,0-0.7,0-0.9,0c-0.2,0-0.4,0.1-0.6,0.1v-1.6l6.4-2.1c1.1,0.4,1.9,0.8,2.4,1.2C740.6,534.2,741.5,535.9,741.5,537.9"/>
				<path style="clip-path:url(#SVGID_00000141447998781869351540000010512446826242935430_);fill:#00943C;" d="M761.2,532.3l-1.7,6
					h-2.3V538c0-0.2,0-0.4,0-0.6c0-0.5,0-1-0.1-1.4c-0.1-0.4-0.2-0.8-0.5-1c-0.3-0.3-0.7-0.6-1.1-0.8c-0.5-0.2-1.3-0.3-2.4-0.3
					c-1.4,0-2.5,0.2-3.4,0.7c-1.1,0.6-1.7,1.4-1.7,2.5c0,0.9,0.9,1.6,2.8,2.1c1.8,0.5,3.7,1,5.4,1.5c1.9,0.8,2.9,2,2.9,3.6
					c0,1.9-1.3,3.4-4,4.6c-2.4,1.1-5,1.6-8,1.6c-1.1,0-2.6-0.2-4.4-0.5c-0.6-0.1-1.4-0.3-2.4-0.6v-3.4c0.7,0.4,1.4,0.8,1.9,1
					c1.6,0.6,3.1,1,4.7,1c1.4,0,2.7-0.2,3.9-0.7c1.3-0.6,2-1.4,2-2.4c0-1-0.9-1.6-2.7-2c-1.8-0.4-3.6-0.7-5.4-1.1
					c-1.9-0.7-2.8-1.8-2.8-3.5c0-1.7,0.7-3.1,2.1-4.1c1.2-0.9,2.8-1.6,4.9-2c1.7-0.3,3.5-0.5,5.6-0.5c1.2,0,2.7,0.1,4.4,0.3
					C759.5,532,760.3,532.1,761.2,532.3"/>
				<path style="clip-path:url(#SVGID_00000141447998781869351540000010512446826242935430_);fill:#00943C;" d="M780,532.6l-1.8,7.3
					h-2.5c0.1-0.2,0.1-0.5,0.2-0.8c0-0.3,0.1-0.6,0.1-1.1c0-1-0.2-1.8-0.5-2.4c-0.5-0.8-1.3-1.2-2.4-1.2c-1.4,0-3,1-4.6,2.9
					c-1.7,2-2.5,4-2.5,6.1c0,1.6,0.4,2.8,1.2,3.7c0.8,0.9,1.8,1.3,3.1,1.3c1,0,2.3-0.5,3.8-1.5c0.5-0.3,1.1-0.9,1.9-1.6l2.5,1.6
					c-0.4,0.3-0.7,0.7-1.1,1c-1,0.8-2,1.4-3.1,1.9c-1.6,0.7-3.3,1-5,1c-2.5,0-4.6-0.6-6.3-1.9c-1.9-1.4-2.8-3.3-2.8-5.8
					c0-3.3,1.4-6,4.3-8.1c2.7-2,6.1-3,10.1-3c0.9,0,2.1,0.1,3.5,0.3C778.5,532.3,779.1,532.4,780,532.6"/>
				<path style="clip-path:url(#SVGID_00000141447998781869351540000010512446826242935430_);fill:#00943C;" d="M801.7,532.1
					l-4.6,18.3h-6.2l1.5-5.3c0-0.1,0.1-0.2,0.1-0.4c0-0.2,0-0.3,0-0.3c0-0.2-0.1-0.3-0.2-0.3c-0.1,0-0.3,0.1-0.4,0.2
					c0,0-0.1,0.1-0.2,0.3c-0.4,0.5-0.8,1.1-1.1,1.7c-1,1.3-2,2.3-3.1,3.1c-1.5,1.1-3,1.7-4.4,1.7c-1.4,0-2.6-0.5-3.4-1.4
					c-0.9-0.9-1.3-2.2-1.3-3.7c0-0.7,0.1-1.5,0.3-2.5c0.1-0.3,0.2-0.8,0.3-1.4l2.8-9.9h6.2l-3.1,10.9c0,0.1-0.1,0.2-0.1,0.5
					c-0.1,0.3-0.1,0.6-0.1,0.8c0,0.6,0.1,1,0.4,1.3c0.3,0.3,0.8,0.5,1.5,0.5c1.4,0,2.9-1.2,4.5-3.7c1.1-1.8,2.3-4,3.4-6.8
					c0.4-1.2,0.9-2.4,1.3-3.7H801.7z"/>
				<path style="clip-path:url(#SVGID_00000141447998781869351540000010512446826242935430_);fill:#00943C;" d="M769.7,526.1
					l-3.2-10l-1.6,2.9c-19.8-9.6-28.4,9.2-28.4,9.2s7.1-13.8,24.6-2.7l-1.6,2.8L769.7,526.1z"/>
				<path style="clip-path:url(#SVGID_00000141447998781869351540000010512446826242935430_);fill:#00943C;" d="M782.4,519.1
					l-3.2-10l-1.6,2.8c-19.8-9.6-28.4,9.2-28.4,9.2s7.1-13.8,24.6-2.7l-1.6,2.8L782.4,519.1z"/>
				<path style="clip-path:url(#SVGID_00000141447998781869351540000010512446826242935430_);fill:#00943C;" d="M822,533.3
					c-1.4-0.8-3-1.2-5-1.2h-2.8l-0.4,0.5c0.1,0.3,0.2,0.6,0.2,0.8l0,0.3c0,0.1,0,0.3,0,0.5h0.4c1.1,0,2,0.4,2.7,1.1
					c0.7,0.7,1.1,1.7,1.1,3c0,1.5-0.7,2.7-2.1,3.6c-0.9,0.6-2.2,1-3.8,1.2c-0.3,0-0.5,0.1-0.8,0.1l-0.2,0.5
					c-0.1,0.4-0.1,0.7-0.4,1.1l-0.2,0.3c0.1,0,0.3,0,0.5,0c1.8,0,3.5-0.1,5-0.4c2.3-0.4,4.2-1.2,5.5-2.2c1.7-1.3,2.6-3.1,2.6-5.3
					C824.3,535.5,823.5,534.2,822,533.3"/>
				<path style="clip-path:url(#SVGID_00000141447998781869351540000010512446826242935430_);fill:#00943C;" d="M811.1,537.2
					c0-0.1,0-0.3,0.1-0.4l0.6-1.6c0-0.1,0.1-0.3,0.2-0.3l0.3-0.6l0-0.1c0-0.1,0-0.3,0-0.4l0-0.2c0-0.1,0-0.3-0.1-0.4l-0.1-0.3v-0.4
					l0.1-0.4l0-0.2c0.1-0.1,0.1-0.3,0.2-0.3l0.6-0.6c0-0.1,0.1-0.2,0-0.3l-0.3-0.5c-0.1-0.1-0.2-0.2-0.3-0.2l-1-0.3
					c-0.1,0-0.3-0.1-0.3-0.2l-0.3-0.4c-0.1-0.1-0.2-0.2-0.3-0.2h-0.1c-0.1,0-0.3,0.1-0.3,0.1l-0.3,0.3c-0.1,0.1-0.1,0.3-0.1,0.4
					c0,0.1-0.1,0.2-0.2,0.3l-0.5,0.1c-0.2,0-0.3,0.1-0.4,0.1l-0.8,0.3c-0.1,0-0.2,0.1-0.3,0.2l-0.8,1.8c-0.1,0.1-0.2,0.2-0.3,0.3
					l-0.7,0.8c-0.1,0.1-0.2,0.2-0.3,0.3l-3.2,5.7c-0.1,0.1-0.1,0.2-0.1,0.3l0.1,1.9c0.1,0.1,0,0.2-0.1,0.3l-0.1,0.1
					c0,0.1-0.1,0.2-0.1,0.3l-0.1,0.4c0,0.1-0.1,0.3-0.1,0.4l0,0.3c0,0.1,0,0.3,0.1,0.3l0.5,0.4c0.1,0,0.1,0.1,0.1,0.3v0.6
					c0,0.1,0.1,0.3,0.1,0.4l0.2,0.6c0.1,0.1,0.1,0.3,0.1,0.3l0.6,0.9c0.1,0.1,0.2,0.2,0.3,0.2h0c0.1,0,0.3,0,0.4,0.1l0.8,0.8
					c0.1,0.1,0.2,0.2,0.3,0.3l0.4,0.8c0,0.1,0,0.3,0,0.4l-0.1,0.5c0,0.1,0.1,0.3,0.1,0.4l0.1,0.1c0.1,0.1,0.3,0.2,0.3,0.2l0.3,0.2
					c0.1,0.1,0.2,0,0.3-0.1l0.1-0.4c0-0.1,0.1-0.2,0.1-0.4v-0.7v-1.1c0-0.1,0-0.3,0-0.4l0.7-1.7c0-0.1,0.1-0.2,0.2-0.3l0.6-0.7
					l0.1-0.1c0.1,0,0.2-0.2,0.2-0.3l0.9-1.6c0.2-0.2,0.1-0.3,0.2-0.6c0-0.1,0.1-0.3,0.1-0.4l0.5-1.5c0.1-0.2,0.5-2.7,0.7-3.8
					C811.1,537.4,811.1,537.3,811.1,537.2"/>
				<path style="clip-path:url(#SVGID_00000141447998781869351540000010512446826242935430_);fill:#00943C;" d="M700.4,564.7
					c2.5-2.2,3.8-3.8,3.8-5.2c0-0.9-0.5-1.5-1.4-1.5c-0.7,0-1.2,0.4-1.7,0.9l-0.7-0.7c0.7-0.8,1.5-1.3,2.6-1.3c1.5,0,2.5,1,2.5,2.5
					c0,1.6-1.3,3.3-3.1,5c0.4,0,1-0.1,1.4-0.1h2.1v1.1h-5.4V564.7z"/>
				<path style="clip-path:url(#SVGID_00000141447998781869351540000010512446826242935430_);fill:#00943C;" d="M712,561.2
					c0-2.9,1.1-4.3,2.7-4.3c1.6,0,2.7,1.4,2.7,4.3c0,2.9-1.1,4.4-2.7,4.4C713.1,565.6,712,564.2,712,561.2 M716.2,561.2
					c0-2.4-0.6-3.3-1.5-3.3c-0.9,0-1.5,0.9-1.5,3.3c0,2.4,0.6,3.3,1.5,3.3C715.6,564.6,716.2,563.7,716.2,561.2"/>
				<path style="clip-path:url(#SVGID_00000141447998781869351540000010512446826242935430_);fill:#00943C;" d="M723.6,564.7
					c2.5-2.2,3.8-3.8,3.8-5.2c0-0.9-0.5-1.5-1.4-1.5c-0.7,0-1.2,0.4-1.7,0.9l-0.7-0.7c0.7-0.8,1.5-1.3,2.6-1.3c1.5,0,2.5,1,2.5,2.5
					c0,1.6-1.3,3.3-3.1,5c0.4,0,1-0.1,1.4-0.1h2.1v1.1h-5.4V564.7z"/>
				<path style="clip-path:url(#SVGID_00000141447998781869351540000010512446826242935430_);fill:#00943C;" d="M735.1,564.5
					l0.6-0.8c0.5,0.5,1.1,0.9,2,0.9c0.9,0,1.6-0.5,1.6-1.4c0-0.9-0.6-1.5-2.5-1.5v-1c1.7,0,2.2-0.6,2.2-1.5c0-0.7-0.5-1.2-1.3-1.2
					c-0.7,0-1.2,0.3-1.7,0.8l-0.7-0.8c0.7-0.6,1.4-1,2.4-1c1.5,0,2.6,0.8,2.6,2.2c0,1-0.6,1.6-1.5,2v0.1c1,0.2,1.7,1,1.7,2.1
					c0,1.5-1.3,2.4-2.8,2.4C736.5,565.6,735.7,565.1,735.1,564.5"/>
				<path style="clip-path:url(#SVGID_00000141447998781869351540000010512446826242935430_);fill:#00943C;" d="M748.5,560.2v6.1h-1
					v-10h4.2v3.9H748.5z M748.5,557.9h2.2v-0.8h-2.2V557.9z M750.7,558.6h-2.2v0.8h2.2V558.6z M753.7,563.7v2.5h-0.9v-2.5h-1.4
					c-0.1,0.8-0.5,1.9-1.5,2.6c-0.1-0.2-0.5-0.5-0.7-0.6c0.8-0.5,1.2-1.4,1.3-2h-1.3v-0.9h1.3v-1.1h-1.1v-0.8h5.5v0.8h-1.2v1.1h1.4
					v0.9H753.7z M752.8,561.7h-1.4v1.1h1.4V561.7z M756.9,565.1c0,0.6-0.1,0.9-0.5,1.1c-0.4,0.2-0.9,0.2-1.8,0.2
					c0-0.3-0.2-0.8-0.3-1.1c0.6,0,1.2,0,1.3,0c0.2,0,0.2-0.1,0.2-0.2v-4.8h-3.3v-3.9h4.3V565.1z M753.6,557.9h2.3v-0.8h-2.3V557.9z
					 M755.8,558.6h-2.3v0.9h2.3V558.6z"/>
				<path style="clip-path:url(#SVGID_00000141447998781869351540000010512446826242935430_);fill:#00943C;" d="M765.3,561
					c-0.4-0.3-1.3-0.8-1.9-1.2l0.6-0.8c0.6,0.3,1.5,0.8,1.9,1.1L765.3,561z M766.1,562.6c-0.4,1.2-1,2.6-1.6,3.6l-1-0.6
					c0.5-0.9,1.2-2.4,1.7-3.7L766.1,562.6z M765.8,558c-0.4-0.3-1.3-0.9-1.9-1.3l0.6-0.7c0.6,0.3,1.5,0.8,1.9,1.2L765.8,558z
					 M767.8,559.6c0,2-0.2,4.9-1.5,6.8c-0.2-0.2-0.6-0.4-0.9-0.6c1.3-1.8,1.4-4.4,1.4-6.2v-3.1h7v1h-6V559.6z M769.6,563.4
					c-0.4,0.8-0.9,1.7-1.4,2.3c-0.2-0.1-0.6-0.4-0.8-0.5c0.5-0.5,1-1.3,1.3-2.1L769.6,563.4z M771.3,562.6v2.8
					c0,0.5-0.1,0.7-0.4,0.9c-0.3,0.2-0.8,0.2-1.6,0.2c0-0.3-0.2-0.7-0.3-0.9c0.5,0,0.9,0,1.1,0c0.1,0,0.2,0,0.2-0.2v-2.7h-1.9v-4
					h1.6c0.1-0.4,0.2-0.8,0.3-1.1l1.2,0.2c-0.1,0.3-0.3,0.6-0.4,0.9h2.3v4H771.3z M769.3,560.2h3.1v-0.8h-3.1V560.2z M769.3,561.8
					h3.1v-0.8h-3.1V561.8z M772.8,563c0.4,0.7,1,1.6,1.2,2.2l-1,0.4c-0.2-0.6-0.7-1.5-1.2-2.3L772.8,563z"/>
				<path style="clip-path:url(#SVGID_00000141447998781869351540000010512446826242935430_);fill:#00943C;" d="M785.8,555.9
					c0,0.4,0,1-0.1,1.7c0.2,1.4,0.9,6,4.8,7.8c-0.3,0.2-0.6,0.6-0.8,0.9c-2.7-1.3-3.9-3.8-4.5-5.8c-0.6,2.1-1.8,4.5-4.4,5.9
					c-0.2-0.3-0.5-0.6-0.9-0.8c4.7-2.4,4.5-7.7,4.6-9.6H785.8z"/>
				<path style="clip-path:url(#SVGID_00000141447998781869351540000010512446826242935430_);fill:#00943C;" d="M806.9,563.8h-4v2.5
					h-1.1v-2.5h-5.2v-1h1.8v-3h3.4v-1.6h-2.6c-0.5,0.8-1.1,1.6-1.6,2.2c-0.2-0.2-0.7-0.5-0.9-0.7c1.1-0.9,2-2.4,2.5-3.9l1.1,0.3
					c-0.1,0.4-0.3,0.7-0.4,1.1h6.6v1h-3.5v1.6h3.2v1h-3.2v2h4V563.8z M801.8,560.8h-2.3v2h2.3V560.8z"/>
				<path style="clip-path:url(#SVGID_00000141447998781869351540000010512446826242935430_);fill:#00943C;" d="M819.1,556.2
					c-0.1,0.1-0.1,0.1-0.2,0.2c1.1,1,3,1.9,4.8,2.2c-0.2,0.2-0.5,0.6-0.7,0.8c-0.3-0.1-0.6-0.2-0.9-0.3v3h-7.7v-2.9
					c-0.3,0.1-0.6,0.2-0.8,0.3c-0.1-0.2-0.4-0.6-0.6-0.8c2.1-0.5,4.1-1.5,5.1-2.9L819.1,556.2z M822.2,559.1
					c-0.6-0.2-1.2-0.5-1.8-0.8v0.3h-4v-0.3c-0.5,0.3-1.1,0.5-1.7,0.8H822.2z M815.1,562.6h6.5v3.8h-1.1V566h-4.4v0.4h-1.1V562.6z
					 M816.7,559.9c0.3,0.4,0.5,0.9,0.6,1.3l-0.8,0.3h1.3v-1.6h-2.5v1.6h1.1c-0.1-0.4-0.3-0.9-0.5-1.3L816.7,559.9z M816.2,563.9h4.4
					v-0.6h-4.4V563.9z M820.6,564.7h-4.4v0.6h4.4V564.7z M819.7,557.9c-0.5-0.3-0.9-0.6-1.3-1c-0.4,0.3-0.8,0.7-1.2,1H819.7z
					 M821.3,559.8h-2.5v1.6h1.3l-0.7-0.2c0.2-0.4,0.4-0.9,0.6-1.3l0.9,0.3c-0.3,0.5-0.5,1-0.7,1.3h1.2V559.8z"/>
				<path style="clip-path:url(#SVGID_00000141447998781869351540000010512446826242935430_);fill:#00943C;" d="M704.5,573.3h-4
					v-1.8h6.3v1.3c-2.1,2.5-2.4,4.3-2.5,7.9h-2.2C702.3,577.7,702.7,575.7,704.5,573.3"/>
				<polygon style="clip-path:url(#SVGID_00000141447998781869351540000010512446826242935430_);fill:#00943C;" points="
					713.1,570.7 714.5,570.7 711.8,583 710.3,583 				"/>
				<path style="clip-path:url(#SVGID_00000141447998781869351540000010512446826242935430_);fill:#00943C;" d="M718.2,579.5
					c2.3-2.1,3.9-3.8,3.9-5.1c0-0.8-0.5-1.3-1.2-1.3c-0.6,0-1.1,0.4-1.6,0.9l-1.2-1.2c0.9-1,1.7-1.4,3.1-1.4c1.8,0,3,1.1,3,2.9
					c0,1.6-1.4,3.3-2.8,4.8c0.5-0.1,1.1-0.1,1.5-0.1h1.7v1.9h-6.4V579.5z"/>
				<path style="clip-path:url(#SVGID_00000141447998781869351540000010512446826242935430_);fill:#00943C;" d="M729.7,578.5
					c0.3,0.3,0.9,0.6,1.4,0.6c0.9,0,1.7-0.7,1.8-2.7c-0.4,0.6-1.2,0.9-1.8,0.9c-1.5,0-2.7-0.9-2.7-2.9c0-2,1.4-3.1,3-3.1
					c1.7,0,3.4,1.3,3.4,4.7c0,3.3-1.8,4.9-3.6,4.9c-1.2,0-2.1-0.5-2.7-1.1L729.7,578.5z M732.8,574.9c-0.2-1.5-0.8-2-1.3-2
					c-0.6,0-1.1,0.4-1.1,1.5c0,1,0.5,1.3,1.1,1.3C732,575.8,732.5,575.6,732.8,574.9"/>
				
					<rect x="738.8" y="576.4" style="clip-path:url(#SVGID_00000141447998781869351540000010512446826242935430_);fill:#00943C;" width="3.5" height="1.5"/>
				<path style="clip-path:url(#SVGID_00000141447998781869351540000010512446826242935430_);fill:#00943C;" d="M746,579.6l1-1.4
					c0.6,0.5,1.2,0.9,1.9,0.9c0.9,0,1.4-0.4,1.4-1.1c0-0.8-0.4-1.3-2.4-1.3v-1.5c1.6,0,2.1-0.5,2.1-1.2c0-0.6-0.4-1-1.1-1
					c-0.6,0-1.1,0.3-1.6,0.8l-1.1-1.3c0.9-0.7,1.8-1.1,2.9-1.1c1.9,0,3.2,0.9,3.2,2.5c0,0.9-0.5,1.6-1.5,2v0.1
					c1,0.3,1.8,1.1,1.8,2.2c0,1.7-1.6,2.7-3.4,2.7C747.7,580.9,746.7,580.4,746,579.6"/>
				<path style="clip-path:url(#SVGID_00000141447998781869351540000010512446826242935430_);fill:#00943C;" d="M756.5,576.1
					c0-3.2,1.3-4.7,3.3-4.7c1.9,0,3.3,1.6,3.3,4.7c0,3.2-1.3,4.8-3.3,4.8C757.8,580.9,756.5,579.2,756.5,576.1 M760.9,576.1
					c0-2.5-0.5-3-1.2-3c-0.7,0-1.2,0.5-1.2,3c0,2.5,0.5,3.1,1.2,3.1C760.4,579.2,760.9,578.6,760.9,576.1"/>
				<path style="clip-path:url(#SVGID_00000141447998781869351540000010512446826242935430_);fill:#00943C;" d="M766.7,576.6
					c0-4,2.9-6.6,6.5-6.6c3.1,0,5.1,2.1,5.1,5.1c0,2.6-1.8,3.9-3.3,3.9c-0.8,0-1.5-0.4-1.7-1.1h0c-0.4,0.6-1.1,1-1.7,1
					c-1.1,0-1.9-0.9-1.9-2.2c0-1.8,1.3-3.5,2.9-3.5c0.5,0,0.8,0.2,1.1,0.7h0l0.2-0.6h1.3l-0.7,3.2c-0.2,0.8,0,1.2,0.6,1.2
					c0.9,0,1.7-1,1.7-2.5c0-2-1.1-3.9-3.9-3.9c-2.4,0-4.8,2.1-4.8,5.3c0,2.8,2,4.1,4.2,4.1c0.7,0,1.6-0.2,2.1-0.5l0.5,1.2
					c-0.9,0.5-1.8,0.7-2.8,0.7C769.3,582,766.7,580.3,766.7,576.6 M773,576.9l0.3-1.9c-0.1-0.2-0.4-0.4-0.6-0.4
					c-0.8,0-1.3,1.2-1.3,2c0,0.6,0.3,0.9,0.7,0.9C772.3,577.5,772.6,577.4,773,576.9"/>
				<path style="clip-path:url(#SVGID_00000141447998781869351540000010512446826242935430_);fill:#00943C;" d="M793.2,570.7v1.1
					h-4.7v0.3h3.6v1h-9v-1h3.5v-0.3h-4.6v-1.1h4.6v-0.6h1.8v0.6H793.2z M782.1,575.5h10.9v1.9h-1.5v0.3H791c0.4,0.3,0.9,0.6,1.2,0.8
					l-0.8,0.7h0.7v1h-3.5v0.3h4.6v1.2h-10.8v-1.2h4.4v-0.3h-3.2v-1h3.2V579c-1.9,0.1-2.3,0.1-2.6,0.2c-0.1-0.2-0.2-0.8-0.4-1.1
					c0.2,0,0.4-0.1,0.7-0.1c0.1,0,0.3-0.1,0.6-0.2h-1.4v-0.3h-1.4V575.5z M791.8,575.2h-8.3v-1.9h8.3V575.2z M783.7,576.8h7.6v-0.2
					h-7.6V576.8z M790,574.1h-4.9v0.3h4.9V574.1z M789.1,578c-0.2-0.1-0.3-0.2-0.5-0.3l0,0h-1.8c-0.2,0.1-0.4,0.2-0.6,0.3L789.1,578
					z M790.8,579.2c-0.1-0.1-0.2-0.2-0.4-0.3l-2,0v0.3H790.8z"/>
				<path style="clip-path:url(#SVGID_00000141447998781869351540000010512446826242935430_);fill:#00943C;" d="M800.9,578.3
					c-0.1-0.3-0.3-0.7-0.5-1v4.6h-1.7v-3.8c-0.3,0.8-0.7,1.4-1.1,2c-0.2-0.5-0.5-1.3-0.8-1.7c0.6-0.8,1.3-1.9,1.7-3h-1.5v-1.7h1.8
					v-1.2c-0.4,0.1-0.8,0.1-1.2,0.2c-0.1-0.4-0.3-1-0.5-1.4c1.4-0.2,2.9-0.6,4-1l1,1.5c-0.5,0.2-1,0.3-1.6,0.4v1.5h1.5v1.7h-1.5v0
					c0.3,0.3,1.3,1.3,1.5,1.6L800.9,578.3z M807.3,578.8v3.1h-1.8v-2.8l-3.6,0.7l-0.3-1.7l3.9-0.7v-7.3h1.8v7l1.1-0.2l0.3,1.7
					L807.3,578.8z M803.1,574.1c0.7,0.5,1.5,1.3,1.9,1.8l-1.2,1.2c-0.4-0.6-1.2-1.4-1.9-2L803.1,574.1z M804.1,573.8
					c-0.3-0.5-1.1-1.4-1.8-1.9l1.2-1c0.6,0.5,1.5,1.3,1.9,1.8L804.1,573.8z"/>
				<path style="clip-path:url(#SVGID_00000141447998781869351540000010512446826242935430_);fill:#00943C;" d="M819.2,575.2
					c0.8,2.2,2.2,4.1,4.5,4.9c-0.4,0.4-1.1,1.2-1.3,1.7c-2.2-1-3.5-2.7-4.5-4.8c-0.7,1.9-2,3.6-4.5,4.8c-0.3-0.5-0.8-1.1-1.4-1.5
					c2.7-1.2,3.9-3.1,4.3-5.1h-4.1v-1.9h4.4c0.1-1.1,0.1-2.2,0.1-3.2h2c0,1,0,2.1-0.1,3.2h4.8v1.9H819.2z"/>
			</g>
		</g>
	</g>
	<g>
		<text transform="matrix(0.8749 0 0 1 133.0062 104.0199)" class="st66 st67 st68">515</text>
	</g>
	<g>
		<text transform="matrix(1 0 0 1 133.0062 152.4607)" class="st56 st67 st69">社群/贊助攤位</text>
	</g>
	<g>
		<text transform="matrix(1 0 0 1 133.0062 128.6961)" class="st70 st67 st71">Day01 / Day02</text>
	</g>
	<rect x="135.4" y="180.1" class="st72" width="213.2" height="233.7"/>
	<path class="st73" d="M318.7,413.8L318.7,413.8c0-6.9,2.7-13.5,7.6-18.4c4.9-4.9,11.5-7.6,18.4-7.6v26H318.7z"/>
	<path class="st73" d="M318.7,413.8L318.7,413.8c0-6.9,2.7-13.5,7.6-18.4c4.9-4.9,11.5-7.6,18.4-7.6"/>
	<path class="st72" d="M318.7,413.8L318.7,413.8c0-6.9,2.7-13.5,7.6-18.4c4.9-4.9,11.5-7.6,18.4-7.6"/>
	<rect x="341" y="230.5" class="st74" width="7.3" height="128.6"/>
	<rect x="341" y="230.5" class="st72" width="7.3" height="128.6"/>
	<path class="st73" d="M139.4,387.9L139.4,387.9c6.9,0,13.5,2.7,18.4,7.6c4.9,4.9,7.6,11.5,7.6,18.4h-26V387.9z"/>
	<rect x="218.6" y="376.5" class="st75" width="46.7" height="15.6"/>
	<rect x="218.6" y="376.5" class="st72" width="46.7" height="15.6"/>
	<rect x="308.4" y="273.3" class="st76" width="15.6" height="46.7"/>
	<rect x="308.4" y="273.3" class="st72" width="15.6" height="46.7"/>
	<rect x="218.4" y="198.2" class="st75" width="46.7" height="15.6"/>
	<rect x="218.4" y="198.2" class="st72" width="46.7" height="15.6"/>
	<rect x="151" y="221.1" class="st76" width="15.6" height="46.7"/>
	<rect x="151" y="221.1" class="st72" width="15.6" height="46.7"/>
	<rect x="151" y="300.8" class="st75" width="15.6" height="46.7"/>
	<rect x="151" y="300.8" class="st72" width="15.6" height="46.7"/>
	<rect x="222.8" y="276.1" class="st73" width="15.6" height="46.7"/>
	<rect x="222.8" y="276.1" class="st72" width="15.6" height="46.7"/>
	<rect x="238.4" y="276.1" class="st73" width="15.6" height="46.7"/>
	<g>
		<g>
			<text transform="matrix(1 0 0 1 153.3959 327.9959)" class="st56 st67 st77">C1</text>
		</g>
		<g>
			<text transform="matrix(1 0 0 1 235.0961 387.3992)" class="st56 st67 st77">C3</text>
		</g>
		<g>
			<text transform="matrix(1 0 0 1 234.5961 208.99)" class="st56 st67 st77">C2</text>
		</g>
		<g>
			<text transform="matrix(1 0 0 1 153.516 248.9334)" class="st56 st67 st77">B1</text>
		</g>
		<g>
			<text transform="matrix(1 0 0 1 310.3851 298.8133)" class="st56 st67 st77">B2</text>
		</g>
	</g>
	<line class="st78" x1="714.6" y1="410.9" x2="714.6" y2="384.7"/>
	<line class="st72" x1="714.6" y1="410.9" x2="714.6" y2="384.7"/>
	<rect x="587" y="377.1" class="st75" width="47.1" height="15.7"/>
	<rect x="587" y="377.1" class="st72" width="47.1" height="15.7"/>
	<rect x="677.4" y="273.1" class="st76" width="15.7" height="47.1"/>
	<rect x="586.7" y="197.4" class="st73" width="47.1" height="15.7"/>
	<rect x="518.9" y="220.5" class="st76" width="15.7" height="47.1"/>
	<rect x="518.9" y="300.8" class="st75" width="15.7" height="47.1"/>
	<g>
		<line class="st78" x1="509.2" y1="383.9" x2="509.2" y2="409.9"/>
		<rect x="503.5" y="175.4" class="st72" width="214.8" height="235.5"/>
		<path class="st78" d="M688.5,410.9L688.5,410.9c0-6.9,2.8-13.6,7.7-18.5c4.9-4.9,11.6-7.7,18.5-7.7v26.2H688.5z"/>
		<path class="st78" d="M688.5,410.9L688.5,410.9c0-6.9,2.8-13.6,7.7-18.5c4.9-4.9,11.6-7.7,18.5-7.7"/>
		<path class="st72" d="M688.5,410.9L688.5,410.9c0-6.9,2.8-13.6,7.7-18.5c4.9-4.9,11.6-7.7,18.5-7.7"/>
		<rect x="710.9" y="228.4" class="st73" width="7.4" height="129.5"/>
		<rect x="710.9" y="228.4" class="st72" width="7.4" height="129.5"/>
		<path class="st78" d="M507.8,384.7L507.8,384.7c6.9,0,13.6,2.8,18.5,7.7c4.9,4.9,7.7,11.6,7.7,18.5h-26.2V384.7z"/>
		<path class="st78" d="M507.8,384.7L507.8,384.7c6.9,0,13.6,2.8,18.5,7.7c4.9,4.9,7.7,11.6,7.7,18.5"/>
		<path class="st72" d="M507.8,384.7L507.8,384.7c6.9,0,13.6,2.8,18.5,7.7c4.9,4.9,7.7,11.6,7.7,18.5"/>
		<line class="st78" x1="507.8" y1="384.7" x2="507.8" y2="410.9"/>
		<line class="st72" x1="507.8" y1="384.7" x2="507.8" y2="410.9"/>
		<rect x="677.4" y="273.1" class="st72" width="15.7" height="47.1"/>
		<rect x="586.7" y="197.4" class="st79" width="47.1" height="15.7"/>
		<rect x="518.9" y="220.5" class="st72" width="15.7" height="47.1"/>
		<rect x="518.9" y="300.8" class="st72" width="15.7" height="47.1"/>
		<rect x="594.8" y="280.7" class="st80" width="15.7" height="47.1"/>
		<rect x="594.8" y="280.7" class="st72" width="15.7" height="47.1"/>
		<rect x="610.5" y="280.7" class="st80" width="15.7" height="47.1"/>
		<rect x="610.5" y="280.7" class="st72" width="15.7" height="47.1"/>
	</g>
	<g>
		<g>
			<text transform="matrix(1 0 0 1 520.8749 327.64)" class="st56 st67 st81">C1</text>
		</g>
		<g>
			<text transform="matrix(1 0 0 1 520.9941 248.9334)" class="st56 st67 st81">B1</text>
		</g>
		<g>
			<text transform="matrix(1 0 0 1 604.4169 388.3275)" class="st56 st67 st81">C3</text>
		</g>
		<g>
			<text transform="matrix(1 0 0 1 604.4168 208.0807)" class="st56 st67 st81">C2</text>
		</g>
		<g>
			<text transform="matrix(1 0 0 1 679.5184 301.5931)" class="st56 st67 st81">B2</text>
		</g>
	</g>
	<g>
		<g>
			<g>
				<path class="st56" d="M139.1,166.8c-0.3,0.2-1.1,0.4-2,0.4c-2.1,0-3.7-1.3-3.7-3.8c0-2.3,1.6-3.9,3.9-3.9c0.9,0,1.5,0.2,1.8,0.3
					l-0.2,0.8c-0.4-0.2-0.9-0.3-1.5-0.3c-1.8,0-2.9,1.1-2.9,3.1c0,1.8,1.1,3,2.9,3c0.6,0,1.2-0.1,1.6-0.3L139.1,166.8z"/>
				<path class="st56" d="M145.1,164.3c0,2-1.4,2.9-2.7,2.9c-1.5,0-2.6-1.1-2.6-2.8c0-1.8,1.2-2.8,2.7-2.8
					C144.1,161.6,145.1,162.7,145.1,164.3z M140.9,164.4c0,1.2,0.7,2.1,1.6,2.1c0.9,0,1.6-0.9,1.6-2.1c0-0.9-0.5-2.1-1.6-2.1
					C141.4,162.3,140.9,163.4,140.9,164.4z"/>
				<path class="st56" d="M146.4,163.1c0-0.6,0-1,0-1.5h0.8l0.1,0.9h0c0.3-0.5,0.8-1,1.7-1c0.7,0,1.3,0.4,1.5,1.1h0
					c0.2-0.3,0.4-0.5,0.6-0.7c0.3-0.2,0.7-0.4,1.2-0.4c0.7,0,1.8,0.5,1.8,2.3v3.2h-1v-3c0-1-0.4-1.7-1.2-1.7c-0.6,0-1,0.4-1.2,0.9
					c0,0.1-0.1,0.3-0.1,0.5v3.3h-1v-3.2c0-0.9-0.4-1.5-1.1-1.5c-0.6,0-1.1,0.5-1.2,1c0,0.1-0.1,0.3-0.1,0.5v3.2h-1V163.1z"/>
				<path class="st56" d="M155.6,163.1c0-0.6,0-1,0-1.5h0.8l0.1,0.9h0c0.3-0.5,0.8-1,1.7-1c0.7,0,1.3,0.4,1.5,1.1h0
					c0.2-0.3,0.4-0.5,0.6-0.7c0.3-0.2,0.7-0.4,1.2-0.4c0.7,0,1.8,0.5,1.8,2.3v3.2h-1v-3c0-1-0.4-1.7-1.2-1.7c-0.6,0-1,0.4-1.2,0.9
					c0,0.1-0.1,0.3-0.1,0.5v3.3h-1v-3.2c0-0.9-0.4-1.5-1.1-1.5c-0.6,0-1.1,0.5-1.2,1c0,0.1-0.1,0.3-0.1,0.5v3.2h-1V163.1z"/>
				<path class="st56" d="M169.4,165.6c0,0.6,0,1,0,1.5h-0.9l-0.1-0.9h0c-0.2,0.4-0.8,1-1.8,1c-0.8,0-1.9-0.5-1.9-2.4v-3.1h1v3
					c0,1,0.3,1.7,1.2,1.7c0.7,0,1.1-0.5,1.3-0.9c0.1-0.1,0.1-0.3,0.1-0.5v-3.3h1V165.6z"/>
				<path class="st56" d="M171,163.1c0-0.6,0-1,0-1.5h0.9l0.1,0.9h0c0.3-0.5,0.9-1,1.8-1c0.7,0,1.9,0.4,1.9,2.3v3.2h-1V164
					c0-0.9-0.3-1.6-1.2-1.6c-0.6,0-1.1,0.5-1.3,1c0,0.1-0.1,0.3-0.1,0.5v3.2h-1V163.1z"/>
				<path class="st56" d="M178.3,160.2c0,0.3-0.2,0.6-0.6,0.6c-0.4,0-0.6-0.3-0.6-0.6c0-0.3,0.2-0.6,0.6-0.6
					C178,159.6,178.3,159.8,178.3,160.2z M177.2,167.1v-5.4h1v5.4H177.2z"/>
				<path class="st56" d="M180.9,160.1v1.5h1.4v0.7h-1.4v2.9c0,0.7,0.2,1,0.7,1c0.3,0,0.4,0,0.6-0.1l0,0.7c-0.2,0.1-0.5,0.1-0.9,0.1
					c-0.4,0-0.8-0.1-1.1-0.4c-0.3-0.3-0.4-0.8-0.4-1.4v-2.9h-0.8v-0.7h0.8v-1.3L180.9,160.1z"/>
				<path class="st56" d="M183.8,161.7l1.2,3.2c0.1,0.4,0.3,0.8,0.3,1.1h0c0.1-0.3,0.2-0.7,0.3-1.1l1.1-3.2h1l-1.5,3.8
					c-0.7,1.8-1.2,2.8-1.8,3.4c-0.5,0.4-1,0.6-1.2,0.6l-0.2-0.8c0.2-0.1,0.6-0.2,0.9-0.5c0.3-0.2,0.6-0.6,0.8-1.1
					c0-0.1,0.1-0.2,0.1-0.2c0-0.1,0-0.1-0.1-0.3l-2-5H183.8z"/>
				<path class="st56" d="M194,167.1l-0.1-0.7h0c-0.3,0.4-0.9,0.8-1.6,0.8c-1.1,0-1.6-0.8-1.6-1.5c0-1.3,1.2-2,3.2-2v-0.1
					c0-0.4-0.1-1.2-1.2-1.2c-0.5,0-1,0.1-1.4,0.4L191,162c0.4-0.3,1.1-0.5,1.8-0.5c1.6,0,2,1.1,2,2.2v2c0,0.5,0,0.9,0.1,1.3H194z
					 M193.9,164.3c-1.1,0-2.3,0.2-2.3,1.2c0,0.6,0.4,0.9,0.9,0.9c0.7,0,1.2-0.4,1.3-0.9c0-0.1,0-0.2,0-0.3V164.3z"/>
				<path class="st56" d="M196.4,163.1c0-0.6,0-1,0-1.5h0.9l0.1,0.9h0c0.3-0.5,0.9-1,1.8-1c0.7,0,1.9,0.4,1.9,2.3v3.2h-1V164
					c0-0.9-0.3-1.6-1.2-1.6c-0.6,0-1.1,0.5-1.3,1c0,0.1-0.1,0.3-0.1,0.5v3.2h-1V163.1z"/>
				<path class="st56" d="M207.2,159.2v6.5c0,0.5,0,1,0,1.4h-0.9l0-0.9h0c-0.3,0.6-0.9,1.1-1.8,1.1c-1.3,0-2.3-1.1-2.3-2.7
					c0-1.8,1.1-2.9,2.4-2.9c0.8,0,1.4,0.4,1.6,0.8h0v-3.2H207.2z M206.2,163.9c0-0.1,0-0.3,0-0.4c-0.2-0.6-0.7-1.1-1.4-1.1
					c-1,0-1.6,0.9-1.6,2.1c0,1.1,0.5,2,1.6,2c0.7,0,1.2-0.4,1.4-1.2c0-0.1,0-0.3,0-0.4V163.9z"/>
				<path class="st56" d="M211.1,165.9c0.4,0.3,1.1,0.5,1.7,0.5c1,0,1.6-0.5,1.6-1.3c0-0.7-0.4-1.1-1.4-1.5c-1.2-0.4-2-1.1-2-2.1
					c0-1.2,1-2,2.4-2c0.8,0,1.3,0.2,1.7,0.4l-0.3,0.8c-0.2-0.1-0.7-0.4-1.4-0.4c-1,0-1.4,0.6-1.4,1.1c0,0.7,0.5,1,1.5,1.4
					c1.3,0.5,1.9,1.1,1.9,2.2c0,1.1-0.8,2.2-2.6,2.2c-0.7,0-1.5-0.2-1.9-0.5L211.1,165.9z"/>
				<path class="st56" d="M216.6,163.4c0-0.7,0-1.2,0-1.8h0.9l0.1,0.9h0c0.4-0.7,1-1,1.9-1c1.3,0,2.3,1.1,2.3,2.7
					c0,1.9-1.2,2.9-2.4,2.9c-0.7,0-1.3-0.3-1.7-0.8h0v2.9h-1V163.4z M217.6,164.9c0,0.1,0,0.3,0,0.4c0.2,0.7,0.8,1.1,1.5,1.1
					c1,0,1.6-0.8,1.6-2.1c0-1.1-0.6-2-1.6-2c-0.7,0-1.3,0.5-1.5,1.2c0,0.1-0.1,0.3-0.1,0.4V164.9z"/>
				<path class="st56" d="M227.8,164.3c0,2-1.4,2.9-2.7,2.9c-1.5,0-2.6-1.1-2.6-2.8c0-1.8,1.2-2.8,2.7-2.8
					C226.8,161.6,227.8,162.7,227.8,164.3z M223.6,164.4c0,1.2,0.7,2.1,1.6,2.1c0.9,0,1.6-0.9,1.6-2.1c0-0.9-0.5-2.1-1.6-2.1
					C224.1,162.3,223.6,163.4,223.6,164.4z"/>
				<path class="st56" d="M229.1,163.1c0-0.6,0-1,0-1.5h0.9l0.1,0.9h0c0.3-0.5,0.9-1,1.8-1c0.7,0,1.9,0.4,1.9,2.3v3.2h-1V164
					c0-0.9-0.3-1.6-1.2-1.6c-0.6,0-1.1,0.5-1.3,1c0,0.1-0.1,0.3-0.1,0.5v3.2h-1V163.1z"/>
				<path class="st56" d="M235.1,166.1c0.3,0.2,0.8,0.4,1.3,0.4c0.7,0,1-0.4,1-0.8c0-0.5-0.3-0.7-1-1c-1-0.4-1.4-0.9-1.4-1.5
					c0-0.9,0.7-1.6,1.9-1.6c0.5,0,1,0.1,1.3,0.3l-0.2,0.7c-0.2-0.1-0.6-0.3-1.1-0.3c-0.6,0-0.9,0.3-0.9,0.7c0,0.4,0.3,0.6,1,0.9
					c0.9,0.3,1.4,0.8,1.4,1.6c0,1-0.7,1.6-2,1.6c-0.6,0-1.1-0.2-1.5-0.4L235.1,166.1z"/>
				<path class="st56" d="M244.5,164.3c0,2-1.4,2.9-2.7,2.9c-1.5,0-2.6-1.1-2.6-2.8c0-1.8,1.2-2.8,2.7-2.8
					C243.5,161.6,244.5,162.7,244.5,164.3z M240.2,164.4c0,1.2,0.7,2.1,1.6,2.1c0.9,0,1.6-0.9,1.6-2.1c0-0.9-0.5-2.1-1.6-2.1
					C240.7,162.3,240.2,163.4,240.2,164.4z"/>
				<path class="st56" d="M245.7,163.4c0-0.6,0-1.2,0-1.7h0.9l0,1.1h0c0.3-0.7,0.8-1.2,1.5-1.2c0.1,0,0.2,0,0.3,0v0.9
					c-0.1,0-0.2,0-0.3,0c-0.7,0-1.2,0.5-1.3,1.2c0,0.1,0,0.3,0,0.5v2.9h-1V163.4z"/>
				<path class="st56" d="M251.7,159.7c0.4-0.1,1.1-0.2,1.8-0.2c1,0,1.6,0.2,2.1,0.5c0.4,0.3,0.6,0.7,0.6,1.3c0,0.7-0.5,1.4-1.3,1.6
					v0c0.7,0.2,1.5,0.8,1.5,1.9c0,0.6-0.3,1.1-0.6,1.5c-0.5,0.5-1.4,0.7-2.6,0.7c-0.7,0-1.2,0-1.5-0.1V159.7z M252.7,162.7h0.9
					c1,0,1.6-0.5,1.6-1.3c0-0.9-0.7-1.2-1.6-1.2c-0.4,0-0.7,0-0.9,0.1V162.7z M252.7,166.3c0.2,0,0.5,0,0.8,0c1,0,1.9-0.4,1.9-1.5
					c0-1-0.9-1.4-1.9-1.4h-0.8V166.3z"/>
				<path class="st56" d="M262.6,164.3c0,2-1.4,2.9-2.7,2.9c-1.5,0-2.6-1.1-2.6-2.8c0-1.8,1.2-2.8,2.7-2.8
					C261.6,161.6,262.6,162.7,262.6,164.3z M258.3,164.4c0,1.2,0.7,2.1,1.6,2.1c0.9,0,1.6-0.9,1.6-2.1c0-0.9-0.5-2.1-1.6-2.1
					C258.8,162.3,258.3,163.4,258.3,164.4z"/>
				<path class="st56" d="M268.7,164.3c0,2-1.4,2.9-2.7,2.9c-1.5,0-2.6-1.1-2.6-2.8c0-1.8,1.2-2.8,2.7-2.8
					C267.7,161.6,268.7,162.7,268.7,164.3z M264.4,164.4c0,1.2,0.7,2.1,1.6,2.1c0.9,0,1.6-0.9,1.6-2.1c0-0.9-0.5-2.1-1.6-2.1
					C264.9,162.3,264.4,163.4,264.4,164.4z"/>
				<path class="st56" d="M271.1,160.1v1.5h1.4v0.7h-1.4v2.9c0,0.7,0.2,1,0.7,1c0.3,0,0.4,0,0.6-0.1l0,0.7c-0.2,0.1-0.5,0.1-0.9,0.1
					c-0.4,0-0.8-0.1-1.1-0.4c-0.3-0.3-0.4-0.8-0.4-1.4v-2.9h-0.8v-0.7h0.8v-1.3L271.1,160.1z"/>
				<path class="st56" d="M273.6,159.2h1v3.4h0c0.2-0.3,0.4-0.5,0.7-0.7c0.3-0.2,0.6-0.3,1-0.3c0.7,0,1.9,0.4,1.9,2.3v3.2h-1V164
					c0-0.9-0.3-1.6-1.2-1.6c-0.6,0-1.1,0.4-1.3,1c-0.1,0.1-0.1,0.3-0.1,0.5v3.2h-1V159.2z"/>
			</g>
		</g>
	</g>
	<g>
		<text transform="matrix(0.8749 0 0 1 502.8124 104.0199)" class="st66 st67 st68">516</text>
	</g>
	<g>
		<text transform="matrix(1 0 0 1 502.8124 148.5618)" class="st56 st67 st69">社群/贊助攤位</text>
	</g>
	<g>
		<text transform="matrix(1 0 0 1 502.8124 124.7982)" class="st70 st67 st71">Day01 / Day02</text>
	</g>
	<g>
		<g>
			<g>
				<path class="st56" d="M508.9,162.9c-0.3,0.2-1.1,0.4-2,0.4c-2.1,0-3.7-1.3-3.7-3.8c0-2.3,1.6-3.9,3.9-3.9c0.9,0,1.5,0.2,1.8,0.3
					l-0.2,0.8c-0.4-0.2-0.9-0.3-1.5-0.3c-1.8,0-2.9,1.1-2.9,3.1c0,1.8,1.1,3,2.9,3c0.6,0,1.2-0.1,1.6-0.3L508.9,162.9z"/>
				<path class="st56" d="M514.9,160.4c0,2-1.4,2.9-2.7,2.9c-1.5,0-2.6-1.1-2.6-2.8c0-1.8,1.2-2.8,2.7-2.8
					C513.9,157.7,514.9,158.8,514.9,160.4z M510.7,160.5c0,1.2,0.7,2.1,1.6,2.1c0.9,0,1.6-0.9,1.6-2.1c0-0.9-0.5-2.1-1.6-2.1
					C511.2,158.4,510.7,159.5,510.7,160.5z"/>
				<path class="st56" d="M516.2,159.2c0-0.6,0-1,0-1.5h0.8l0.1,0.9h0c0.3-0.5,0.8-1,1.7-1c0.7,0,1.3,0.4,1.5,1.1h0
					c0.2-0.3,0.4-0.5,0.6-0.7c0.3-0.2,0.7-0.4,1.2-0.4c0.7,0,1.8,0.5,1.8,2.3v3.2h-1v-3c0-1-0.4-1.7-1.2-1.7c-0.6,0-1,0.4-1.2,0.9
					c0,0.1-0.1,0.3-0.1,0.5v3.3h-1v-3.2c0-0.9-0.4-1.5-1.1-1.5c-0.6,0-1.1,0.5-1.2,1c0,0.1-0.1,0.3-0.1,0.5v3.2h-1V159.2z"/>
				<path class="st56" d="M525.4,159.2c0-0.6,0-1,0-1.5h0.8l0.1,0.9h0c0.3-0.5,0.8-1,1.7-1c0.7,0,1.3,0.4,1.5,1.1h0
					c0.2-0.3,0.4-0.5,0.6-0.7c0.3-0.2,0.7-0.4,1.2-0.4c0.7,0,1.8,0.5,1.8,2.3v3.2h-1v-3c0-1-0.4-1.7-1.2-1.7c-0.6,0-1,0.4-1.2,0.9
					c0,0.1-0.1,0.3-0.1,0.5v3.3h-1v-3.2c0-0.9-0.4-1.5-1.1-1.5c-0.6,0-1.1,0.5-1.2,1c0,0.1-0.1,0.3-0.1,0.5v3.2h-1V159.2z"/>
				<path class="st56" d="M539.2,161.7c0,0.6,0,1,0,1.5h-0.9l-0.1-0.9h0c-0.2,0.4-0.8,1-1.8,1c-0.8,0-1.8-0.5-1.8-2.4v-3.1h1v3
					c0,1,0.3,1.7,1.2,1.7c0.7,0,1.1-0.5,1.3-0.9c0-0.1,0.1-0.3,0.1-0.5v-3.3h1V161.7z"/>
				<path class="st56" d="M540.8,159.2c0-0.6,0-1,0-1.5h0.9l0.1,0.9h0c0.3-0.5,0.9-1,1.8-1c0.7,0,1.9,0.4,1.9,2.3v3.2h-1v-3.1
					c0-0.9-0.3-1.6-1.2-1.6c-0.6,0-1.1,0.5-1.3,1c0,0.1-0.1,0.3-0.1,0.5v3.2h-1V159.2z"/>
				<path class="st56" d="M548.1,156.3c0,0.3-0.2,0.6-0.6,0.6c-0.4,0-0.6-0.3-0.6-0.6c0-0.3,0.2-0.6,0.6-0.6
					C547.8,155.7,548.1,155.9,548.1,156.3z M547,163.2v-5.4h1v5.4H547z"/>
				<path class="st56" d="M550.7,156.2v1.5h1.4v0.7h-1.4v2.9c0,0.7,0.2,1,0.7,1c0.3,0,0.4,0,0.6-0.1l0,0.7c-0.2,0.1-0.5,0.1-0.9,0.1
					c-0.4,0-0.8-0.1-1.1-0.4c-0.3-0.3-0.4-0.8-0.4-1.4v-2.9H549v-0.7h0.8v-1.3L550.7,156.2z"/>
				<path class="st56" d="M553.6,157.8l1.2,3.2c0.1,0.4,0.3,0.8,0.3,1.1h0c0.1-0.3,0.2-0.7,0.3-1.1l1.1-3.2h1l-1.5,3.8
					c-0.7,1.8-1.2,2.8-1.8,3.4c-0.5,0.4-1,0.6-1.2,0.6l-0.2-0.8c0.2-0.1,0.6-0.2,0.9-0.5c0.3-0.2,0.6-0.6,0.8-1.1
					c0-0.1,0.1-0.2,0.1-0.2c0-0.1,0-0.1-0.1-0.3l-2-5H553.6z"/>
				<path class="st56" d="M563.8,163.2l-0.1-0.7h0c-0.3,0.4-0.9,0.8-1.6,0.8c-1.1,0-1.6-0.8-1.6-1.5c0-1.3,1.2-2,3.2-2v-0.1
					c0-0.4-0.1-1.2-1.2-1.2c-0.5,0-1,0.1-1.4,0.4l-0.2-0.6c0.4-0.3,1.1-0.5,1.8-0.5c1.6,0,2,1.1,2,2.2v2c0,0.5,0,0.9,0.1,1.3H563.8z
					 M563.7,160.4c-1.1,0-2.3,0.2-2.3,1.2c0,0.6,0.4,0.9,0.9,0.9c0.7,0,1.2-0.4,1.3-0.9c0-0.1,0-0.2,0-0.3V160.4z"/>
				<path class="st56" d="M566.2,159.2c0-0.6,0-1,0-1.5h0.9l0.1,0.9h0c0.3-0.5,0.9-1,1.8-1c0.7,0,1.9,0.4,1.9,2.3v3.2h-1v-3.1
					c0-0.9-0.3-1.6-1.2-1.6c-0.6,0-1.1,0.5-1.3,1c0,0.1-0.1,0.3-0.1,0.5v3.2h-1V159.2z"/>
				<path class="st56" d="M577,155.3v6.5c0,0.5,0,1,0,1.4h-0.9l0-0.9h0c-0.3,0.6-0.9,1.1-1.8,1.1c-1.3,0-2.3-1.1-2.3-2.7
					c0-1.8,1.1-2.9,2.4-2.9c0.8,0,1.4,0.4,1.6,0.8h0v-3.2H577z M576,160c0-0.1,0-0.3,0-0.4c-0.2-0.6-0.7-1.1-1.4-1.1
					c-1,0-1.6,0.9-1.6,2.1c0,1.1,0.5,2,1.6,2c0.7,0,1.2-0.4,1.4-1.2c0-0.1,0-0.3,0-0.4V160z"/>
				<path class="st56" d="M580.9,162c0.4,0.3,1.1,0.5,1.7,0.5c1,0,1.6-0.5,1.6-1.3c0-0.7-0.4-1.1-1.4-1.5c-1.2-0.4-2-1.1-2-2.1
					c0-1.2,1-2,2.4-2c0.8,0,1.3,0.2,1.7,0.4l-0.3,0.8c-0.2-0.1-0.7-0.4-1.4-0.4c-1,0-1.4,0.6-1.4,1.1c0,0.7,0.5,1,1.5,1.4
					c1.3,0.5,1.9,1.1,1.9,2.2c0,1.1-0.8,2.2-2.6,2.2c-0.7,0-1.5-0.2-1.9-0.5L580.9,162z"/>
				<path class="st56" d="M586.5,159.5c0-0.7,0-1.2,0-1.8h0.9l0.1,0.9h0c0.4-0.7,1-1,1.9-1c1.3,0,2.3,1.1,2.3,2.7
					c0,1.9-1.2,2.9-2.4,2.9c-0.7,0-1.3-0.3-1.7-0.8h0v2.9h-1V159.5z M587.4,161c0,0.1,0,0.3,0,0.4c0.2,0.7,0.8,1.1,1.5,1.1
					c1,0,1.6-0.8,1.6-2.1c0-1.1-0.6-2-1.6-2c-0.7,0-1.3,0.5-1.5,1.2c0,0.1-0.1,0.3-0.1,0.4V161z"/>
				<path class="st56" d="M597.6,160.4c0,2-1.4,2.9-2.7,2.9c-1.5,0-2.6-1.1-2.6-2.8c0-1.8,1.2-2.8,2.7-2.8
					C596.6,157.7,597.6,158.8,597.6,160.4z M593.4,160.5c0,1.2,0.7,2.1,1.6,2.1c0.9,0,1.6-0.9,1.6-2.1c0-0.9-0.5-2.1-1.6-2.1
					C593.9,158.4,593.4,159.5,593.4,160.5z"/>
				<path class="st56" d="M598.9,159.2c0-0.6,0-1,0-1.5h0.9l0.1,0.9h0c0.3-0.5,0.9-1,1.8-1c0.7,0,1.9,0.4,1.9,2.3v3.2h-1v-3.1
					c0-0.9-0.3-1.6-1.2-1.6c-0.6,0-1.1,0.5-1.3,1c0,0.1-0.1,0.3-0.1,0.5v3.2h-1V159.2z"/>
				<path class="st56" d="M604.9,162.2c0.3,0.2,0.8,0.4,1.3,0.4c0.7,0,1-0.4,1-0.8c0-0.5-0.3-0.7-1-1c-1-0.4-1.4-0.9-1.4-1.5
					c0-0.9,0.7-1.6,1.9-1.6c0.5,0,1,0.1,1.3,0.3l-0.2,0.7c-0.2-0.1-0.6-0.3-1.1-0.3c-0.6,0-0.9,0.3-0.9,0.7c0,0.4,0.3,0.6,1,0.9
					c0.9,0.3,1.4,0.8,1.4,1.6c0,1-0.7,1.6-2,1.6c-0.6,0-1.1-0.2-1.5-0.4L604.9,162.2z"/>
				<path class="st56" d="M614.3,160.4c0,2-1.4,2.9-2.7,2.9c-1.5,0-2.6-1.1-2.6-2.8c0-1.8,1.2-2.8,2.7-2.8
					C613.3,157.7,614.3,158.8,614.3,160.4z M610,160.5c0,1.2,0.7,2.1,1.6,2.1c0.9,0,1.6-0.9,1.6-2.1c0-0.9-0.5-2.1-1.6-2.1
					C610.5,158.4,610,159.5,610,160.5z"/>
				<path class="st56" d="M615.5,159.5c0-0.6,0-1.2,0-1.7h0.9l0,1.1h0c0.3-0.7,0.8-1.2,1.5-1.2c0.1,0,0.2,0,0.3,0v0.9
					c-0.1,0-0.2,0-0.3,0c-0.7,0-1.2,0.5-1.3,1.2c0,0.1,0,0.3,0,0.5v2.9h-1V159.5z"/>
				<path class="st56" d="M621.5,155.8c0.4-0.1,1.1-0.2,1.8-0.2c1,0,1.6,0.2,2.1,0.5c0.4,0.3,0.6,0.7,0.6,1.3c0,0.7-0.5,1.4-1.3,1.6
					v0c0.7,0.2,1.5,0.8,1.5,1.9c0,0.6-0.3,1.1-0.6,1.5c-0.5,0.5-1.4,0.7-2.6,0.7c-0.7,0-1.2,0-1.5-0.1V155.8z M622.5,158.8h0.9
					c1,0,1.6-0.5,1.6-1.3c0-0.9-0.7-1.2-1.6-1.2c-0.4,0-0.7,0-0.9,0.1V158.8z M622.5,162.4c0.2,0,0.5,0,0.8,0c1,0,1.9-0.4,1.9-1.5
					c0-1-0.9-1.4-1.9-1.4h-0.8V162.4z"/>
				<path class="st56" d="M632.4,160.4c0,2-1.4,2.9-2.7,2.9c-1.5,0-2.6-1.1-2.6-2.8c0-1.8,1.2-2.8,2.7-2.8
					C631.4,157.7,632.4,158.8,632.4,160.4z M628.1,160.5c0,1.2,0.7,2.1,1.6,2.1c0.9,0,1.6-0.9,1.6-2.1c0-0.9-0.5-2.1-1.6-2.1
					C628.6,158.4,628.1,159.5,628.1,160.5z"/>
				<path class="st56" d="M638.5,160.4c0,2-1.4,2.9-2.7,2.9c-1.5,0-2.6-1.1-2.6-2.8c0-1.8,1.2-2.8,2.7-2.8
					C637.5,157.7,638.5,158.8,638.5,160.4z M634.2,160.5c0,1.2,0.7,2.1,1.6,2.1c0.9,0,1.6-0.9,1.6-2.1c0-0.9-0.5-2.1-1.6-2.1
					C634.7,158.4,634.2,159.5,634.2,160.5z"/>
				<path class="st56" d="M640.9,156.2v1.5h1.4v0.7h-1.4v2.9c0,0.7,0.2,1,0.7,1c0.3,0,0.4,0,0.6-0.1l0,0.7c-0.2,0.1-0.5,0.1-0.9,0.1
					c-0.4,0-0.8-0.1-1.1-0.4c-0.3-0.3-0.4-0.8-0.4-1.4v-2.9h-0.8v-0.7h0.8v-1.3L640.9,156.2z"/>
				<path class="st56" d="M643.4,155.3h1v3.4h0c0.2-0.3,0.4-0.5,0.7-0.7c0.3-0.2,0.6-0.3,1-0.3c0.7,0,1.9,0.4,1.9,2.3v3.2h-1v-3.1
					c0-0.9-0.3-1.6-1.2-1.6c-0.6,0-1.1,0.4-1.3,1c-0.1,0.1-0.1,0.3-0.1,0.5v3.2h-1V155.3z"/>
			</g>
		</g>
	</g>
	<g>
		<text transform="matrix(1 0 0 1 607.0975 450.0972)" class="st56 st82 st83">Booth for Korean Open source communities</text>
	</g>
	<g>
		<text transform="matrix(1 0 0 1 520.4976 433.4662)" class="st56 st82 st83">天瓏書局</text>
	</g>
	<g>
		<text transform="matrix(1 0 0 1 607.097 433.4662)" class="st56 st82 st83">Hacking Thursday x TOSSUG</text>
	</g>
	<g>
		<text transform="matrix(1 0 0 1 520.4972 450.7296)" class="st56 st82 st83">鈦坦科技</text>
	</g>
	<g>
		<text transform="matrix(1 0 0 1 589.1218 450.3576)" class="st56 st82 st83">C2</text>
	</g>
	<g>
		<text transform="matrix(1 0 0 1 589.2488 466.0985)" class="st56 st82 st83">C3</text>
	</g>
	<g>
		<text transform="matrix(1 0 0 1 607.0974 466.0991)" class="st56 st82 st83">Ubuntu 台灣社群 x UbuCon Asia</text>
	</g>
	<g>
		<text transform="matrix(1 0 0 1 502.3707 433.4662)" class="st56 st82 st83">B1</text>
	</g>
	<g>
		<text transform="matrix(1 0 0 1 502.1802 450.3575)" class="st56 st82 st83">B2</text>
	</g>
	<g>
		<text transform="matrix(1 0 0 1 589.2485 433.4662)" class="st56 st82 st83">C1</text>
	</g>
	<g>
		<text transform="matrix(1 0 0 1 263.0607 465.6513)" class="st56 st82 st83">MozTW, Mozilla 台灣社群</text>
	</g>
	<g>
		<text transform="matrix(1 0 0 1 263.1559 449.8965)" class="st56 st82 st83">COODFA</text>
	</g>
	<g>
		<text transform="matrix(1 0 0 1 263.1563 434.0426)" class="st56 st82 st83">開放知識與多元價值</text>
	</g>
	<g>
		<text transform="matrix(1 0 0 1 156.3263 434.1287)" class="st56 st82 st83">KKCOMPANY</text>
	</g>
	<g>
		<text transform="matrix(1 0 0 1 156.3297 449.8964)" class="st56 st82 st83">MySQL</text>
	</g>
	<g>
		<text transform="matrix(1 0 0 1 244.7607 449.3455)" class="st56 st82 st83">C2</text>
	</g>
	<g>
		<text transform="matrix(1 0 0 1 245.2164 465.6508)" class="st56 st82 st83">C3</text>
	</g>
	<g>
		<text transform="matrix(1 0 0 1 139.1216 449.7826)" class="st56 st82 st83">B2</text>
	</g>
	<g>
		<text transform="matrix(1 0 0 1 138.9925 434.1297)" class="st56 st82 st83">B1</text>
	</g>
	<g>
		<text transform="matrix(1 0 0 1 244.6337 434.2114)" class="st56 st82 st83">C1</text>
	</g>
</g>
<g id="輸出佈置" class="st98">
</g>
</svg>
