<svg xmlns="http://www.w3.org/2000/svg" width="367.039" height="124.002" viewBox="0 0 367.039 124.002"><path d="M275.786,535.676,270.56,557.2H263.2c.179-.672.327-1.427.475-2.267a21.57,21.57,0,0,0,.213-3.179,13.465,13.465,0,0,0-1.521-6.952c-1.423-2.344-3.776-3.524-7.1-3.524-4.282,0-8.807,2.809-13.6,8.373q-7.521,8.781-7.519,17.814c0,4.558,1.181,8.159,3.5,10.767a11.6,11.6,0,0,0,9.087,3.925c3.045,0,6.75-1.5,11.161-4.484a70.642,70.642,0,0,0,5.732-4.57l7.354,4.681c-1.079.983-2.118,1.966-3.126,2.9a35.545,35.545,0,0,1-9.131,5.517,38.478,38.478,0,0,1-14.863,2.983c-7.438,0-13.626-1.826-18.572-5.527Q217,577.5,216.995,566.6q0-14.625,12.854-23.833,12.159-8.7,29.9-8.7a93.1,93.1,0,0,1,10.284.749c1.426.177,3.318.465,5.749.856m62.852,15.648a27.414,27.414,0,0,1-3.22,13.311,50.883,50.883,0,0,1-8.942,11.284,42.332,42.332,0,0,1-15.045,9.583,41.437,41.437,0,0,1-14.944,2.933c-8.039,0-14.307-2.217-18.738-6.7q-6.282-6.289-6.265-16.534a31.286,31.286,0,0,1,4.9-16.525,45.866,45.866,0,0,1,9.209-10.656q4.31-3.677,4.98-3.681l14.87.084c-.233,0-1.629,1.688-4.222,5.015a74.046,74.046,0,0,0-7.947,12.411q-4.288,8.7-4.3,15.829c0,5.394,1.1,9.289,3.294,11.633,1.851,1.953,4.569,2.936,8.1,2.936q7.1,0,13.009-8.323a29.8,29.8,0,0,0,5.918-17.611,19.16,19.16,0,0,0-1.022-6.884,8.493,8.493,0,0,0-4.471-4.8,7.189,7.189,0,0,0-1.77-.5,16.06,16.06,0,0,0-2.2-.154c-1.126,0-2.017.03-2.664.077a9.434,9.434,0,0,0-1.878.344v-4.831l18.906-6.149a29.167,29.167,0,0,1,7.186,3.51,17.142,17.142,0,0,1,7.262,14.4m58.6-16.575-4.9,17.578h-6.929v-.659c0-.619.027-1.22.084-1.826a22.69,22.69,0,0,0-.327-4.166,6.752,6.752,0,0,0-1.345-3.053,7.828,7.828,0,0,0-3.341-2.26,22.762,22.762,0,0,0-7.068-.752,22.223,22.223,0,0,0-10.2,2.09q-4.987,2.512-4.98,7.462c0,2.612,2.727,4.688,8.18,6.186q8.193,2.292,16.131,4.354c5.755,2.414,8.625,5.941,8.625,10.642q0,8.216-11.832,13.576a56.679,56.679,0,0,1-23.559,4.764,66.458,66.458,0,0,1-12.938-1.591c-1.723-.318-4.073-.876-7-1.659V575.55a45.1,45.1,0,0,0,5.556,2.836,36.617,36.617,0,0,0,13.957,2.858,28.06,28.06,0,0,0,11.4-2.183c3.942-1.729,5.9-4.109,5.9-7.109,0-2.858-2.7-4.814-8.106-5.911s-10.688-2.16-15.861-3.217q-8.38-2.934-8.375-10.325a14.7,14.7,0,0,1,6.072-12.131q5.26-4.012,14.374-5.777a88.443,88.443,0,0,1,16.715-1.425c3.608,0,7.907.261,12.914.759,1.7.174,3.982.438,6.852.826m55.4.927L447.422,557.2h-7.371c.182-.672.337-1.427.486-2.267a21.918,21.918,0,0,0,.2-3.179,13.436,13.436,0,0,0-1.521-6.952q-2.113-3.516-7.111-3.524c-4.259,0-8.8,2.809-13.589,8.373Q411,558.431,411,567.464c0,4.558,1.177,8.159,3.5,10.767a11.606,11.606,0,0,0,9.077,3.925c3.055,0,6.76-1.5,11.144-4.484a65.326,65.326,0,0,0,5.752-4.57l7.348,4.681c-1.059.983-2.121,1.966-3.113,2.9a35.59,35.59,0,0,1-9.127,5.517,38.486,38.486,0,0,1-14.867,2.983c-7.442,0-13.626-1.826-18.582-5.527q-8.265-6.155-8.275-17.053,0-14.625,12.827-23.833,12.163-8.7,29.908-8.7a93.318,93.318,0,0,1,10.3.749c1.409.177,3.348.465,5.745.856m64.451-1.338L503.4,588.09H485.067l4.565-15.485a4.283,4.283,0,0,0,.3-1.093,5.549,5.549,0,0,0,.124-1.006c0-.6-.2-.927-.59-.927a1.635,1.635,0,0,0-1.183.679,5.393,5.393,0,0,0-.5.759c-1.116,1.612-2.269,3.237-3.382,4.855a48.781,48.781,0,0,1-9.208,9.055c-4.458,3.22-8.842,4.865-13.178,4.865a13.358,13.358,0,0,1-10.139-4.026q-3.789-4.032-3.787-11a40.3,40.3,0,0,1,.837-7.3c.172-1.01.472-2.35.93-4.029l8.349-29.106h18.329L467.41,566.47c-.05.163-.179.692-.361,1.588a11.321,11.321,0,0,0-.32,2.427,5.858,5.858,0,0,0,1.234,3.889c.823.939,2.27,1.408,4.363,1.408,4.158,0,8.612-3.561,13.313-10.73a113.834,113.834,0,0,0,9.984-19.988c1.3-3.575,2.589-7.149,3.884-10.733h17.574Zm-94.812-17.721-9.36-29.277-4.863,8.383c-58.721-28.117-84.138,27.12-84.138,27.12s21.145-40.4,72.984-7.975l-4.849,8.353ZM459.8,496.26,450.455,467l-4.869,8.345c-58.7-28.1-84.128,27.148-84.128,27.148s21.138-40.385,72.981-7.982l-4.863,8.356Zm117.23,41.512a29.365,29.365,0,0,0-14.694-3.437h-8.4l-1.3,1.4a7.086,7.086,0,0,1,.556,2.284l.1,1a12.3,12.3,0,0,1-.071,1.328h1.18a11.154,11.154,0,0,1,8.134,3.086c2.1,2.036,3.179,4.925,3.179,8.687a11.832,11.832,0,0,1-6.079,10.576c-2.762,1.745-6.545,2.935-11.32,3.607-.765.111-1.541.181-2.316.248l-.489,1.381a7.019,7.019,0,0,1-1.2,3.179l-.54.9c.425.006.894.01,1.423.01a82.979,82.979,0,0,0,14.944-1.251q10.38-1.936,16.3-6.383a18.412,18.412,0,0,0,7.587-15.548c0-4.694-2.344-8.366-6.994-11.067M544.8,549.2a2.2,2.2,0,0,1,.249-1.231l1.9-4.758a10.619,10.619,0,0,1,.5-.983l.833-1.876.077-.173a5.661,5.661,0,0,0,.085-1.151l-.085-.491a2.049,2.049,0,0,0-.33-1.15l-.331-.739V535.5l.233-1.156.1-.482c.246-.248.415-.739.577-.9l1.82-1.886c.084-.247.334-.655,0-.742l-.91-1.555a1.258,1.258,0,0,0-.826-.5l-2.9-.983a1.294,1.294,0,0,1-.991-.491l-.991-1.314a1.107,1.107,0,0,0-.83-.492h-.25a3.524,3.524,0,0,0-1,.328l-.91.9a2,2,0,0,0-.331,1.066,1.138,1.138,0,0,1-.661.739l-1.49.244a4.466,4.466,0,0,0-1.241.412l-2.481.9a1.243,1.243,0,0,0-.746.575l-2.4,5.329a3.429,3.429,0,0,1-.742.82l-2.151,2.464a4.317,4.317,0,0,0-.745.986l-9.6,16.739a1.246,1.246,0,0,0-.249.9l.249,5.58a.928.928,0,0,1-.249.984l-.25.163c0,.248-.33.656-.33.9l-.246,1.314c0,.328-.25.739-.25,1.063l-.081.907a.953.953,0,0,0,.411.9l1.407,1.15a.662.662,0,0,1,.414.739v1.886c0,.244.166.819.166,1.07l.5,1.8c.165.328.25.736.415.987l1.821,2.541a1.117,1.117,0,0,0,.826.575h.084a1.493,1.493,0,0,1,1.072.408l2.485,2.216a1.95,1.95,0,0,1,.742.984l1.16,2.464a4.542,4.542,0,0,1,.084,1.067l-.249,1.394a3.946,3.946,0,0,0,.249,1.063l.412.247a5.142,5.142,0,0,0,.91.659l.995.488a.567.567,0,0,0,.742-.244l.33-1.15a3.95,3.95,0,0,0,.25-1.063v-5.25a5.343,5.343,0,0,1,.084-1.07l1.983-5a9.737,9.737,0,0,1,.5-.9l1.757-1.942.394-.438a1.964,1.964,0,0,0,.661-.739l2.812-4.675a3.874,3.874,0,0,0,.58-1.8,2.747,2.747,0,0,1,.415-1.15l1.49-4.267c.246-.655,1.571-8.038,2.067-11.074a4,4,0,0,0,0-.986" transform="translate(-216.995 -467)" fill="#3b9838" fill-rule="evenodd"/></svg>