<svg id="圖層_1" data-name="圖層 1" xmlns="http://www.w3.org/2000/svg" viewBox="0 0 157.45 155.13"><defs><style>.cls-1{fill:#285688;}.cls-2{fill:#f9cb98;}</style></defs><path class="cls-1" d="M9.25,21.37,0,16V5.34L9.25,0l9.26,5.34V16Zm-4.8-7.91,4.8,2.78,4.81-2.78V7.91L9.25,5.13,4.45,7.91Z"/><path class="cls-1" d="M9.25,155.13,0,149.79V139.1l9.25-5.34,9.26,5.34v10.69Zm-4.8-7.91L9.25,150l4.81-2.78v-5.55l-4.81-2.78-4.8,2.78Z"/><path class="cls-1" d="M143.39,143.34H15.57V15.53H143.39ZM20,138.9H138.94V20H20Z"/><path class="cls-1" d="M148.2,21.37,138.94,16V5.34L148.2,0l9.25,5.34V16Zm-4.81-7.91,4.81,2.78L153,13.46V7.91L148.2,5.13l-4.81,2.78Z"/><path class="cls-1" d="M148.2,155.13l-9.26-5.34V139.1l9.26-5.34,9.25,5.34v10.69Zm-4.81-7.91L148.2,150l4.81-2.78v-5.55l-4.81-2.78-4.81,2.78Z"/><path class="cls-2" d="M124.46,54.56l-7.29-4A26.76,26.76,0,0,1,106.57,40l-4-7.29a26.65,26.65,0,0,0-46.78,0l-4,7.29a26.76,26.76,0,0,1-10.6,10.6l-7.3,4a26.66,26.66,0,0,0,0,46.78l7.3,4a26.76,26.76,0,0,1,10.6,10.6l4,7.3a26.66,26.66,0,0,0,46.78,0l4-7.3a26.76,26.76,0,0,1,10.6-10.6l7.29-4A26.65,26.65,0,0,0,124.46,54.56ZM101.8,84.85a9.71,9.71,0,0,1-4.86,8.4l-12.61,7.28a9.66,9.66,0,0,1-9.7,0L62,93.25a9.69,9.69,0,0,1-4.86-8.4V70.29A9.7,9.7,0,0,1,62,61.88L74.63,54.6a9.71,9.71,0,0,1,9.7,0l12.61,7.28a9.72,9.72,0,0,1,4.86,8.41Z"/><path class="cls-1" d="M79.19,139.32h0a28.5,28.5,0,0,1-25.34-15l-4-7.3a24.44,24.44,0,0,0-9.72-9.72l-7.3-4a28.89,28.89,0,0,1,0-50.68l7.3-4a24.44,24.44,0,0,0,9.72-9.72l4-7.29a28.88,28.88,0,0,1,50.68,0l4,7.29a24.44,24.44,0,0,0,9.72,9.72l7.29,4a28.88,28.88,0,0,1,0,50.68l-7.29,4a24.44,24.44,0,0,0-9.72,9.72l-4,7.3A28.51,28.51,0,0,1,79.19,139.32ZM79.19,21A24.11,24.11,0,0,0,57.75,33.74l-4,7.3A28.91,28.91,0,0,1,42.27,52.52l-7.29,4a24.44,24.44,0,0,0,0,42.88l7.29,4a28.87,28.87,0,0,1,11.49,11.49l4,7.29a24.43,24.43,0,0,0,42.88,0l4-7.29a28.91,28.91,0,0,1,11.48-11.49l7.3-4a24.44,24.44,0,0,0,0-42.88l-7.3-4A29,29,0,0,1,104.62,41l-4-7.3A24.11,24.11,0,0,0,79.19,21Zm.29,83a12,12,0,0,1-6-1.59l-12.6-7.28a12,12,0,0,1-6-10.33V70.29a12,12,0,0,1,6-10.33l12.6-7.28a11.94,11.94,0,0,1,11.93,0L98.05,60a12,12,0,0,1,6,10.33V84.85a12,12,0,0,1-6,10.33l-12.61,7.28A11.94,11.94,0,0,1,79.48,104.05Zm0-48.52a7.44,7.44,0,0,0-3.74,1L63.13,63.81a7.49,7.49,0,0,0-3.74,6.48V84.85a7.5,7.5,0,0,0,3.74,6.48l12.61,7.28a7.51,7.51,0,0,0,7.48,0l12.61-7.28a7.5,7.5,0,0,0,3.74-6.48V70.29a7.49,7.49,0,0,0-3.74-6.48L83.22,56.53A7.44,7.44,0,0,0,79.48,55.53Z"/></svg>