<svg id="圖層_1" data-name="圖層 1" xmlns="http://www.w3.org/2000/svg" viewBox="0 0 157.45 155.13"><defs><style>.cls-1{fill:#b3dee2;}.cls-2{fill:#bfe0f6;}</style></defs><polygon class="cls-1" points="32.83 127.03 141.16 140.39 133.07 30.89 103.57 58.67 138.27 136.33 67.51 94.33 32.83 127.03"/><path class="cls-2" d="M141.17,143.26l-.36,0L32.48,129.88a2.87,2.87,0,0,1-1.62-4.94l34.68-32.7A2.87,2.87,0,0,1,69,91.86l63,37.38L101,59.85a2.88,2.88,0,0,1,.65-3.27L131.1,28.8a2.87,2.87,0,0,1,4.83,1.88l8.1,109.5a2.86,2.86,0,0,1-2.86,3.08ZM39.25,124.92l93.63,11.55-65-38.56ZM107,59.37l30.27,67.74-6.65-90Z"/><polyline class="cls-1" points="22.57 83.31 67.51 94.33 59.19 49.16 101.26 58.21 85.96 18.81"/><polygon class="cls-2" points="71.14 98.18 21.89 86.1 23.26 80.52 63.88 90.48 55.58 45.44 96.65 54.28 83.28 19.85 88.64 17.77 105.87 62.14 62.8 52.87 71.14 98.18"/><path class="cls-2" d="M9.25,21.37,0,16V5.34L9.25,0l9.26,5.34V16Zm-4.8-7.91,4.8,2.78,4.81-2.78V7.91L9.25,5.13,4.45,7.91Z"/><path class="cls-2" d="M9.25,155.13,0,149.79V139.1l9.25-5.34,9.26,5.34v10.69Zm-4.8-7.91L9.25,150l4.81-2.78v-5.55l-4.81-2.78-4.8,2.78Z"/><path class="cls-2" d="M143.39,143.34H15.57V15.52H143.39ZM20,138.9H138.94V20H20Z"/><path class="cls-2" d="M148.2,21.37,138.94,16V5.34L148.2,0l9.25,5.34V16Zm-4.81-7.91,4.81,2.78L153,13.46V7.91L148.2,5.13l-4.81,2.78Z"/><path class="cls-2" d="M148.2,155.13l-9.26-5.34V139.1l9.26-5.34,9.25,5.34v10.69Zm-4.81-7.91L148.2,150l4.81-2.78v-5.55l-4.81-2.78-4.81,2.78Z"/><path class="cls-2" d="M31,129.9a2.66,2.66,0,0,1-.88-.14,2.85,2.85,0,0,1-1.94-2.19L19.75,83.86a2.87,2.87,0,0,1,.77-2.56L83.91,16.79A2.89,2.89,0,0,1,86.68,16l47.1,12.09A2.88,2.88,0,0,1,135,33L33,129.12A2.87,2.87,0,0,1,31,129.9ZM25.68,84.25l7.16,37.1,94.46-89L86.85,22Z"/></svg>