<svg id="圖層_1" data-name="圖層 1" xmlns="http://www.w3.org/2000/svg" viewBox="0 0 157.45 155.13"><defs><style>.cls-1{fill:#bfe0f6;}.cls-2{fill:#fff4a6;}</style></defs><path class="cls-1" d="M9.25,21.37,0,16V5.34L9.25,0l9.26,5.34V16Zm-4.8-7.91,4.8,2.78,4.81-2.78V7.91L9.25,5.13,4.45,7.91Z"/><path class="cls-1" d="M9.25,155.13,0,149.79V139.1l9.25-5.34,9.26,5.34v10.69Zm-4.8-7.91L9.25,150l4.81-2.78v-5.55l-4.81-2.78-4.8,2.78Z"/><path class="cls-1" d="M143.39,143.34H15.57V15.52H143.39ZM20,138.9H138.94V20H20Z"/><path class="cls-1" d="M148.2,21.37,138.94,16V5.34L148.2,0l9.25,5.34V16Zm-4.81-7.91,4.81,2.78L153,13.46V7.91L148.2,5.13l-4.81,2.78Z"/><path class="cls-1" d="M148.2,155.13l-9.26-5.34V139.1l9.26-5.34,9.25,5.34v10.69Zm-4.81-7.91L148.2,150l4.81-2.78v-5.55l-4.81-2.78-4.81,2.78Z"/><path class="cls-2" d="M134.7,83.3,125.42,77a10.41,10.41,0,0,1-3.15-13.77l5.61-9.76a10.4,10.4,0,0,0-12.07-15.13l-10.76,3.29a10.41,10.41,0,0,1-12.73-6.13L88.19,25a10.41,10.41,0,0,0-19.36,0L64.7,35.45A10.4,10.4,0,0,1,52,41.58L41.22,38.29A10.4,10.4,0,0,0,29.15,53.42l5.6,9.76A10.4,10.4,0,0,1,31.61,77L22.33,83.3a10.41,10.41,0,0,0,4.31,18.88l11.12,1.7a10.4,10.4,0,0,1,8.8,11l-.81,11.22a10.41,10.41,0,0,0,17.44,8.4l8.26-7.64a10.42,10.42,0,0,1,14.13,0l8.26,7.64a10.41,10.41,0,0,0,17.44-8.4l-.82-11.22a10.4,10.4,0,0,1,8.81-11l11.12-1.7A10.41,10.41,0,0,0,134.7,83.3Zm-34.38,3.41a9.71,9.71,0,0,1-4.85,8.41L82.86,102.4a9.73,9.73,0,0,1-9.71,0L60.54,95.12a9.71,9.71,0,0,1-4.85-8.41V72.15a9.71,9.71,0,0,1,4.85-8.4l12.61-7.28a9.68,9.68,0,0,1,9.71,0l12.61,7.28a9.71,9.71,0,0,1,4.85,8.4Z"/><path class="cls-1" d="M100.83,139.57a12.45,12.45,0,0,1-8.5-3.4l-8.26-7.63a8.22,8.22,0,0,0-11.11,0l-8.26,7.63A12.63,12.63,0,0,1,43.53,126l.82-11.22a8.23,8.23,0,0,0-6.93-8.69l-11.12-1.7a12.63,12.63,0,0,1-5.23-22.9l9.29-6.36a8.23,8.23,0,0,0,2.47-10.83l-5.61-9.75A12.63,12.63,0,0,1,41.87,36.16l10.76,3.3a8.24,8.24,0,0,0,10-4.82l4.13-10.47a12.63,12.63,0,0,1,23.49,0l4.13,10.47a8.23,8.23,0,0,0,10,4.82l10.76-3.3A12.62,12.62,0,0,1,129.8,54.53l-5.6,9.75a8.22,8.22,0,0,0,2.47,10.83L136,81.47a12.63,12.63,0,0,1-5.22,22.9l-11.12,1.7a8.22,8.22,0,0,0-6.93,8.69L113.5,126a12.39,12.39,0,0,1-7.12,12.29A12.74,12.74,0,0,1,100.83,139.57ZM78.51,121.94a12.58,12.58,0,0,1,8.57,3.33l8.27,7.64a8.18,8.18,0,0,0,13.71-6.61l-.81-11.22a12.68,12.68,0,0,1,10.68-13.4l11.12-1.7a8.18,8.18,0,0,0,3.39-14.84l-9.28-6.36a12.68,12.68,0,0,1-3.81-16.71l5.6-9.76a8.18,8.18,0,0,0-9.49-11.9l-10.76,3.3a12.69,12.69,0,0,1-15.44-7.44L86.13,25.8a8.19,8.19,0,0,0-15.23,0L66.77,36.27a12.71,12.71,0,0,1-15.45,7.44l-10.75-3.3a8.18,8.18,0,0,0-9.49,11.9l5.6,9.76a12.69,12.69,0,0,1-3.81,16.71l-9.29,6.36A8.18,8.18,0,0,0,27,100l11.12,1.7a12.69,12.69,0,0,1,10.69,13.4L48,126.3a8.19,8.19,0,0,0,13.72,6.61l8.26-7.64A12.6,12.6,0,0,1,78.51,121.94Zm-.5-16a11.85,11.85,0,0,1-6-1.6L59.43,97a12,12,0,0,1-6-10.33V72.15a12,12,0,0,1,6-10.33L72,54.54a12,12,0,0,1,11.93,0l12.61,7.28a12,12,0,0,1,6,10.33V86.71a12,12,0,0,1-6,10.33L84,104.32A11.84,11.84,0,0,1,78,105.92Zm0-48.53a7.58,7.58,0,0,0-3.75,1l-12.6,7.28a7.51,7.51,0,0,0-3.75,6.48V86.71a7.5,7.5,0,0,0,3.75,6.48l12.6,7.28a7.48,7.48,0,0,0,7.49,0l12.61-7.28a7.49,7.49,0,0,0,3.74-6.48V72.15a7.5,7.5,0,0,0-3.74-6.48L81.75,58.39A7.57,7.57,0,0,0,78,57.39Z"/></svg>