<svg id="圖層_1" data-name="圖層 1" xmlns="http://www.w3.org/2000/svg" viewBox="0 0 157.45 155.13"><defs><style>.cls-1{fill:#cacaff;}.cls-2{fill:#285688;}</style></defs><path class="cls-1" d="M133.59,87.51h0a9.59,9.59,0,0,1,0-15.82h0c7.89-5.41,3.88-17.77-5.68-17.5h0a9.59,9.59,0,0,1-9.3-12.8h0c3.2-9-7.31-16.65-14.88-10.81h0a9.59,9.59,0,0,1-15-4.89h0c-2.7-9.18-15.7-9.18-18.4,0h0a9.59,9.59,0,0,1-15.05,4.89h0c-7.57-5.84-18.09,1.8-14.88,10.81h0a9.59,9.59,0,0,1-9.3,12.8h0c-9.56-.27-13.57,12.09-5.69,17.5h0a9.59,9.59,0,0,1,0,15.82h0c-7.88,5.4-3.87,17.76,5.69,17.49h0a9.59,9.59,0,0,1,9.3,12.8h0c-3.21,9,7.31,16.64,14.88,10.81h0a9.59,9.59,0,0,1,15.05,4.89h0c2.7,9.17,15.7,9.17,18.4,0h0a9.59,9.59,0,0,1,15-4.89h0c7.57,5.83,18.08-1.81,14.88-10.81h0a9.59,9.59,0,0,1,9.3-12.8h0C137.47,105.27,141.48,92.91,133.59,87.51ZM109,78a5.52,5.52,0,0,1-2.76,4.78l-5.74,3.31a5.5,5.5,0,0,1-5.52,0l-5.74-3.31A5.52,5.52,0,0,1,86.49,78V71.4a5.5,5.5,0,0,1,2.76-4.78L95,63.3a5.5,5.5,0,0,1,5.52,0l5.74,3.32A5.5,5.5,0,0,1,109,71.4Z"/><path class="cls-2" d="M79.48,143.46a12.42,12.42,0,0,1-12.14-9.08,6.52,6.52,0,0,0-10.23-3.33,12.66,12.66,0,0,1-19.65-14.27,6.53,6.53,0,0,0-6.33-8.71A12.66,12.66,0,0,1,23.63,85a6.52,6.52,0,0,0,0-10.75,12.66,12.66,0,0,1,7.5-23.1,6.52,6.52,0,0,0,6.33-8.7A12.66,12.66,0,0,1,57.11,28.14a6.51,6.51,0,0,0,10.23-3.32,12.66,12.66,0,0,1,24.28,0,6.51,6.51,0,0,0,10.23,3.32A12.66,12.66,0,0,1,121.5,42.42a6.52,6.52,0,0,0,6.32,8.7,12.66,12.66,0,0,1,7.51,23.1,6.52,6.52,0,0,0,0,10.75h0a12.66,12.66,0,0,1-7.51,23.1,6.53,6.53,0,0,0-6.32,8.71,12.66,12.66,0,0,1-19.65,14.27,6.52,6.52,0,0,0-10.23,3.33A12.42,12.42,0,0,1,79.48,143.46Zm-18.4-19.9a12.66,12.66,0,0,1,12.15,9.08,6.51,6.51,0,0,0,12.5,0,12.67,12.67,0,0,1,19.87-6.45,6.52,6.52,0,0,0,10.12-7.36A12.65,12.65,0,0,1,128,101.94,6.52,6.52,0,0,0,131.86,90a12.66,12.66,0,0,1,0-20.89A6.52,6.52,0,0,0,128,57.26a12.66,12.66,0,0,1-12.27-16.9A6.52,6.52,0,0,0,105.6,33a12.66,12.66,0,0,1-19.87-6.46,6.52,6.52,0,0,0-12.5,0A12.66,12.66,0,0,1,53.36,33a6.52,6.52,0,0,0-10.12,7.35A12.66,12.66,0,0,1,31,57.26,6.51,6.51,0,0,0,27.1,69.15,12.66,12.66,0,0,1,27.1,90,6.52,6.52,0,0,0,31,101.94a12.65,12.65,0,0,1,12.28,16.89,6.52,6.52,0,0,0,10.12,7.36A12.64,12.64,0,0,1,61.08,123.56ZM97.75,89.93a8.52,8.52,0,0,1-4.29-1.15l-5.75-3.31A8.63,8.63,0,0,1,83.42,78V71.4A8.63,8.63,0,0,1,87.71,64l5.75-3.32a8.61,8.61,0,0,1,8.59,0L107.79,64a8.61,8.61,0,0,1,4.29,7.44V78a8.61,8.61,0,0,1-4.29,7.44l-5.74,3.31A8.56,8.56,0,0,1,97.75,89.93Zm0-24.3a2.4,2.4,0,0,0-1.22.33l-5.74,3.31a2.46,2.46,0,0,0-1.23,2.13V78a2.46,2.46,0,0,0,1.23,2.12l5.74,3.31a2.44,2.44,0,0,0,2.45,0l5.74-3.31A2.47,2.47,0,0,0,105.94,78V71.4a2.47,2.47,0,0,0-1.22-2.13L99,66A2.44,2.44,0,0,0,97.75,65.63Z"/><path class="cls-2" d="M9.25,21.37,0,16V5.34L9.25,0l9.26,5.34V16Zm-4.8-7.91,4.8,2.78,4.81-2.78V7.91L9.25,5.13,4.45,7.91Z"/><path class="cls-2" d="M9.25,155.13,0,149.79V139.1l9.25-5.34,9.26,5.34v10.69Zm-4.8-7.91L9.25,150l4.81-2.78v-5.55l-4.81-2.78-4.8,2.78Z"/><path class="cls-2" d="M143.39,143.34H15.57V15.53H143.39ZM20,138.9H138.94V20H20Z"/><path class="cls-2" d="M148.2,21.37,138.94,16V5.34L148.2,0l9.25,5.34V16Zm-4.81-7.91,4.81,2.78L153,13.46V7.91L148.2,5.13l-4.81,2.78Z"/><path class="cls-2" d="M148.2,155.13l-9.26-5.34V139.1l9.26-5.34,9.25,5.34v10.69Zm-4.81-7.91L148.2,150l4.81-2.78v-5.55l-4.81-2.78-4.81,2.78Z"/><path class="cls-2" d="M84.82,56.07H36a3.07,3.07,0,1,1,0-6.14H84.82a3.07,3.07,0,1,1,0,6.14Z"/><path class="cls-2" d="M27.45,143.68a2.83,2.83,0,0,1-1.77-5.05,108.18,108.18,0,0,0,18.65-19c17.8-23.34,22.28-49.14,22.91-66.68a2.84,2.84,0,0,1,5.67.2c-.66,18.36-5.37,45.39-24.07,69.92a114.26,114.26,0,0,1-19.62,20A2.86,2.86,0,0,1,27.45,143.68Z"/><path class="cls-2" d="M69.09,143.08A2.83,2.83,0,0,1,67.32,138,60.56,60.56,0,0,0,77.8,127.34c10-13.12,12.53-27.65,12.89-37.52a2.83,2.83,0,1,1,5.66.2c-.38,10.7-3.12,26.45-14,40.76a66.24,66.24,0,0,1-11.45,11.68A2.83,2.83,0,0,1,69.09,143.08Z"/></svg>