<?xml version="1.0" encoding="utf-8"?>
<!-- Generator: Adobe Illustrator 27.3.1, SVG Export Plug-In . SVG Version: 6.00 Build 0)  -->
<svg version="1.1" xmlns="http://www.w3.org/2000/svg" xmlns:xlink="http://www.w3.org/1999/xlink" x="0px" y="0px"
	 viewBox="0 0 841.9 595.3" style="enable-background:new 0 0 841.9 595.3;" xml:space="preserve">
<style type="text/css">
	.st0{fill:#3B9838;}
	.st1{fill:none;stroke:#FFFFFF;stroke-width:2;stroke-linecap:round;stroke-linejoin:bevel;}
	.st2{opacity:0.73;}
	.st3{fill:#A0A0A0;stroke:#FFFFFF;stroke-width:2;stroke-linecap:round;stroke-linejoin:bevel;}
	.st4{fill:none;stroke:#B3B3B3;stroke-width:4.4344;stroke-linecap:round;stroke-miterlimit:10;}
	.st5{fill:#E6E6E6;}
	.st6{fill:#FFFEFF;}
	.st7{fill:#B3B3B3;}
	.st8{fill:none;stroke:#B3B3B3;stroke-width:4.4344;stroke-miterlimit:10;}
	.st9{fill:none;stroke:#FFFEFF;stroke-width:3;stroke-miterlimit:10;}
	.st10{fill:#12344C;}
	.st11{fill:#E98025;}
	.st12{fill:#808080;}
	.st13{fill:#FFE9BA;}
	.st14{fill:#3E3D4D;}
	.st15{fill:#BCC4C6;}
	.st16{fill:#D24635;}
	.st17{fill:#FCF3EE;}
	.st18{fill:#E8C72E;}
	.st19{fill:#E0A911;}
	.st20{fill:#0071BC;}
	.st21{opacity:0.2;fill:none;stroke:#70931B;stroke-width:2;stroke-miterlimit:10;stroke-dasharray:4,4;}
	.st22{opacity:0.2;fill:none;stroke:#70931B;stroke-width:1.78;stroke-miterlimit:10;stroke-dasharray:3.56,3.56;}
	.st23{font-family:'SourceHanSansTC-Regular-B5pc-H';}
	.st24{font-size:14.4934px;}
	.st25{font-family:'SourceHanSansTC-Bold-B5pc-H';}
	.st26{font-size:16.2331px;}
	.st27{font-size:11.0178px;}
	.st28{font-family:'MicrosoftJhengHeiBold';}
	.st29{font-size:12px;}
	.st30{font-family:'MicrosoftJhengHeiRegular';}
	.st31{font-size:9.5585px;}
	.st32{fill:#6B6B6B;}
	.st33{font-size:8.9802px;}
	.st34{font-size:43px;}
	.st35{clip-path:url(#SVGID_00000018938617834471078700000002816315411520136365_);}
	.st36{clip-path:url(#SVGID_00000090997431539200185430000009770417434251610501_);fill:#00943C;}
	.st37{clip-path:url(#SVGID_00000135684532406357224760000009585813015098752141_);}
	.st38{clip-path:url(#SVGID_00000101816285564538832460000005140952788050740141_);fill:#00943C;}
	.st39{clip-path:url(#SVGID_00000067930730203743854250000002084908885681742484_);}
	.st40{clip-path:url(#SVGID_00000098192956224228656050000011341732769349263027_);fill:#00943C;}
	.st41{clip-path:url(#SVGID_00000182493329210109852560000009049672434715441073_);}
	.st42{clip-path:url(#SVGID_00000036951059812704214590000014611216864560958356_);fill:#00943C;}
	.st43{clip-path:url(#SVGID_00000093166259589962347360000005885018913777454492_);}
	.st44{clip-path:url(#SVGID_00000118370414478140851750000004423088177092582579_);fill:#00943C;}
	.st45{clip-path:url(#SVGID_00000160907380175927337320000011736487080033096093_);}
	.st46{clip-path:url(#SVGID_00000021120362430659029910000005824667403786936713_);fill:#00943C;}
	.st47{clip-path:url(#SVGID_00000021100765966475609070000013867525576115424418_);}
	.st48{clip-path:url(#SVGID_00000078012085818896660250000007185059283364406719_);fill:#00943C;}
	.st49{clip-path:url(#SVGID_00000046339017315377983130000016427559085571374978_);}
	.st50{clip-path:url(#SVGID_00000059274387581226208710000013824861597068764337_);fill:#00943C;}
	.st51{opacity:0.1;fill:#70931B;}
	.st52{fill:none;stroke:#FFFEFF;stroke-miterlimit:10;}
	.st53{fill:#FFFFFF;}
	.st54{fill:none;stroke:#FFFFFF;stroke-width:1.8113;}
	.st55{fill:#C1272D;}
	.st56{fill:#30AF00;}
	.st57{fill:#0076CB;}
	.st58{fill:#008061;}
	.st59{fill:#F5821F;}
	.st60{fill:#ED1B2D;}
	.st61{fill:#FF0000;}
	.st62{opacity:0.5;fill:url(#SVGID_00000115509560197221839600000011005214621232346800_);}
	.st63{opacity:0.5;fill:url(#SVGID_00000126318907336406679230000012347672685870964359_);}
	.st64{opacity:0.8;}
	.st65{fill-rule:evenodd;clip-rule:evenodd;fill:#D5E7D0;}
	.st66{fill:none;stroke:#040000;stroke-width:0.75;stroke-linejoin:round;stroke-miterlimit:8;}
	.st67{opacity:0;fill-rule:evenodd;clip-rule:evenodd;fill:#040000;}
	.st68{fill:#040000;}
	.st69{fill-rule:evenodd;clip-rule:evenodd;fill:#8FCFC9;}
	.st70{fill-rule:evenodd;clip-rule:evenodd;fill:#F2EA32;}
	.st71{fill-rule:evenodd;clip-rule:evenodd;fill:#040000;}
	.st72{fill-rule:evenodd;clip-rule:evenodd;fill:#FFFFFF;}
	.st73{opacity:0;fill-rule:evenodd;clip-rule:evenodd;}
	.st74{fill:none;stroke:#000000;stroke-width:0.75;stroke-linejoin:round;stroke-miterlimit:8;}
	.st75{fill-rule:evenodd;clip-rule:evenodd;fill:#D9EAD3;}
	.st76{opacity:0;fill-rule:evenodd;clip-rule:evenodd;stroke:#000000;stroke-width:0.75;stroke-miterlimit:10;}
	.st77{fill-rule:evenodd;clip-rule:evenodd;fill:#FCFCFC;stroke:#000000;stroke-width:0.75;stroke-miterlimit:10;}
	.st78{fill:none;stroke:#000000;stroke-width:0.5;stroke-linejoin:round;stroke-miterlimit:8;}
	.st79{fill-rule:evenodd;clip-rule:evenodd;fill:none;stroke:#000000;stroke-width:0.5;stroke-linejoin:round;stroke-miterlimit:8;}
	.st80{fill-rule:evenodd;clip-rule:evenodd;fill:#FFFFFF;stroke:#000000;stroke-width:0.5;stroke-miterlimit:10;}
	.st81{fill-rule:evenodd;clip-rule:evenodd;fill:#D5E7D0;stroke:#000000;stroke-width:0.5;stroke-miterlimit:10;}
	.st82{fill-rule:evenodd;clip-rule:evenodd;fill:#F2EA32;stroke:#000000;stroke-width:0.5;stroke-miterlimit:10;}
	.st83{opacity:0;fill-rule:evenodd;clip-rule:evenodd;fill:#040000;stroke:#000000;stroke-width:0.5;stroke-miterlimit:10;}
	.st84{fill:#D5E7D0;stroke:#000000;stroke-width:0.5;stroke-miterlimit:10;}
	.st85{fill-rule:evenodd;clip-rule:evenodd;fill:#FCFDFD;stroke:#000000;stroke-width:0.5;stroke-miterlimit:10;}
	
		.st86{fill-rule:evenodd;clip-rule:evenodd;fill:none;stroke:#040000;stroke-width:0.75;stroke-linejoin:round;stroke-miterlimit:8;}
	
		.st87{opacity:0;fill-rule:evenodd;clip-rule:evenodd;fill:none;stroke:#040000;stroke-width:0.75;stroke-linejoin:round;stroke-miterlimit:8;}
	.st88{fill:#D5E7D0;stroke:#040000;stroke-width:0.75;stroke-miterlimit:10;}
	.st89{opacity:0;fill-rule:evenodd;clip-rule:evenodd;fill:#040000;stroke:#040000;stroke-width:0.75;stroke-miterlimit:10;}
	.st90{fill-rule:evenodd;clip-rule:evenodd;fill:#FFFFFF;stroke:#040000;stroke-width:0.75;stroke-miterlimit:10;}
	.st91{fill-rule:evenodd;clip-rule:evenodd;fill:#FCFDFD;}
	.st92{fill-rule:evenodd;clip-rule:evenodd;fill:#D5E7D0;stroke:#040000;stroke-width:0.75;stroke-miterlimit:10;}
	.st93{fill-rule:evenodd;clip-rule:evenodd;fill:#FCFDFD;stroke:#040000;stroke-width:0.75;stroke-miterlimit:10;}
	.st94{clip-path:url(#SVGID_00000089562466048460911070000011094143000186345904_);}
	.st95{clip-path:url(#SVGID_00000008849479097481152960000009480458502020609693_);fill:#00943C;}
	.st96{clip-path:url(#SVGID_00000132772504686267731560000002932807295574350985_);}
	.st97{clip-path:url(#SVGID_00000155126052428666614640000001633920841262632614_);fill:#00943C;}
	.st98{clip-path:url(#SVGID_00000178895505669328919490000008680434974620239754_);}
	.st99{clip-path:url(#SVGID_00000032643383846924538460000014500429209161541765_);fill:#00943C;}
	.st100{display:none;}
	.st101{display:inline;fill:none;stroke:#F90000;stroke-width:8;stroke-miterlimit:10;}
	.st102{display:inline;}
	.st103{fill:#F90000;}
	.st104{font-family:'SourceHanSansTW-Medium-B5pc-H';}
	.st105{font-size:10.2218px;}
	.st106{display:inline;fill:#F90000;}
	.st107{display:inline;fill:none;stroke:#000000;stroke-miterlimit:10;}
	.st108{font-size:9.3394px;}
	.st109{font-size:31.3149px;}
	.st110{font-size:11.6742px;glyph-orientation-vertical:0;writing-mode:tb;}
	.st111{display:inline;fill:none;stroke:#F90000;stroke-width:3;stroke-miterlimit:10;}
	.st112{display:inline;fill:none;stroke:#232323;stroke-miterlimit:10;}
	.st113{display:inline;fill:none;stroke:#F90000;stroke-miterlimit:10;}
	.st114{display:inline;fill:none;stroke:#B3B3B3;stroke-width:4.4344;stroke-linecap:round;stroke-miterlimit:10;}
	.st115{display:inline;fill:#E6E6E6;}
	.st116{display:inline;fill:#FFFEFF;}
	.st117{display:inline;fill:#B3B3B3;}
	.st118{display:inline;fill:none;stroke:#B3B3B3;stroke-width:4.4344;stroke-miterlimit:10;}
	.st119{display:inline;opacity:0.2;fill:none;stroke:#70931B;stroke-width:2;stroke-miterlimit:10;stroke-dasharray:4,4;}
</style>
<g id="建築">
	<polygon class="st8" points="338.1,280.9 338.1,226.5 574.6,226.5 574.6,280.9 805.4,280.9 805.4,71.1 589.9,71.1 574.6,71.1 
		338.1,71.1 338.1,71.1 51,71.1 51,176.5 28.6,176.5 28.6,222.6 51,222.6 51,280.9 	"/>
	<rect x="58" y="84.8" class="st5" width="81.5" height="93.5"/>
	<rect x="142.3" y="84.8" class="st5" width="79.3" height="93.5"/>
	<rect x="224.4" y="84.8" class="st5" width="79.3" height="93.5"/>
	<rect x="306.5" y="84.8" class="st5" width="79.3" height="93.5"/>
	<rect x="388.5" y="84.8" class="st5" width="79.3" height="93.5"/>
	<rect x="470.6" y="84.8" class="st5" width="79.3" height="93.5"/>
	<rect x="552.7" y="84.8" class="st5" width="79.3" height="93.5"/>
	<rect x="634.8" y="84.8" class="st5" width="79.3" height="93.5"/>
	<polygon class="st5" points="798.7,77.2 798.7,178.3 716.9,178.3 716.9,84.8 754.8,84.8 754.8,77.2 	"/>
	<g>
		
			<rect x="582.2" y="212.7" transform="matrix(-1 -1.224647e-16 1.224647e-16 -1 1231.2017 487.3684)" class="st5" width="66.8" height="62"/>
		<g>
			<rect x="602.7" y="212.7" class="st9" width="46.7" height="17.4"/>
		</g>
	</g>
	
		<rect x="174.5" y="212.7" transform="matrix(-1 -1.224647e-16 1.224647e-16 -1 502.582 487.3684)" class="st5" width="153.5" height="62"/>
	<g>
		<rect x="213.7" y="211.7" class="st9" width="36.8" height="18.4"/>
	</g>
	<polygon class="st5" points="651.7,274.7 676.6,274.7 696.2,274.7 798.7,274.7 798.7,212.7 680.1,212.7 680.1,249.4 651.7,249.4 	
		"/>
	<polygon class="st5" points="145,274.7 171.5,274.7 171.5,249.9 145,249.9 145,221.3 57.5,221.3 57.5,274.7 	"/>
	<line class="st9" x1="753" y1="274.9" x2="753" y2="212.1"/>
	<line class="st9" x1="251" y1="274.9" x2="251" y2="212.1"/>
	<line class="st9" x1="680.7" y1="274.9" x2="680.7" y2="212.1"/>
	<line class="st9" x1="144.7" y1="274.9" x2="144.7" y2="216.4"/>
</g>
<g id="標示">
	<g>
		<g>
			<path class="st10" d="M98.9,236.2c0,0.3-0.3,0.4-0.3,0.7c0,0.2,0.1,0.4,0.3,0.6c0.5,0.3,0.5,0.8,0.4,1.3
				c-0.2,1.5-0.3,2.9-0.5,4.4c-0.1,0.6,0.3,0.9,0.5,1.4c0.9-0.8,0.6-1.7,0.5-2.6c-0.1-1.2-0.3-2.3-0.4-3.5c0-0.4,0-0.6,0.3-0.9
				c0.2-0.1,0.4-0.3,0.5-0.6c-0.1-0.2-0.3-0.4-0.4-0.6c0.1-0.2,0.3-0.2,0.5-0.2c1,0,2,0,3,0c1.5,0,2.5,1.4,2,2.8
				c-0.9,2.4-1.8,4.7-2.7,7.1c-0.4,1-0.7,2-1.2,2.9c-0.5,0.9-1.4,1.1-2.3,0.9c-1.1-0.2-1.6-0.9-2-1.9c-0.8-2.1-1.6-4.1-2.4-6.2
				c-0.4-1-0.7-1.9-1.1-2.9c-0.5-1.4,0.4-2.8,1.9-2.8C96.5,236.2,97.7,236.2,98.9,236.2z"/>
			<path class="st10" d="M99.4,235.5c-2.3,0-4.1-1.7-4.1-4c0-2.2,1.7-4,3.9-4c2.2,0,4.1,1.7,4.1,3.9
				C103.3,233.4,101.9,235.4,99.4,235.5z"/>
		</g>
	</g>
	<g>
		<text transform="matrix(1 0 0 1 78.255 267.1356)" class="st10 st23 st24">Toilet</text>
	</g>
	<g id="p7iPoC_00000038402127433417487260000007609736134981770663_">
		<g>
			<path class="st10" d="M160.4,263.5c0.7,0,1.4,0,2.2,0c0.6,0,0.9,0.3,1.1,0.9c0.4,1.4,0.9,2.8,1.3,4.3c0.1,0.4,0.3,0.8,0.4,1.2
				c0.1,0.5-0.1,0.8-0.5,1c-0.4,0.1-0.9-0.1-1-0.5c-0.5-1.5-1-3-1.5-4.5c-0.1-0.2-0.2-0.3-0.4-0.3c-1.5,0.1-3,0-4.5,0
				c-0.3,0-0.7,0-1-0.1c-0.4-0.1-0.7-0.3-0.8-0.8c-0.3-1.4-0.5-2.9-0.7-4.4c-0.1-0.5-0.1-1-0.2-1.5c-0.1-0.7,0.2-1.2,0.9-1.4
				c0.3-0.1,0.6-0.1,0.8-0.1c0.6,0.1,1,0.4,1.1,1c0.1,0.6,0.3,1.2,0.4,1.8c0,0.2,0.1,0.2,0.3,0.2c0.8,0,1.6,0,2.5,0
				c0.6,0,1,0.6,0.7,1.2c-0.1,0.2-0.3,0.3-0.5,0.3c-0.8,0-1.6,0-2.4,0c-0.2,0-0.2,0.1-0.2,0.3c0.1,0.4,0.1,0.7,0.2,1.1
				c0,0.2,0.1,0.2,0.3,0.2C159.2,263.5,159.8,263.5,160.4,263.5z"/>
			<path class="st10" d="M150.8,265.9c0-2.4,1.4-4.3,3.4-5.1c0.2-0.1,0.3-0.1,0.3,0.2c0,0.2,0.1,0.5,0.1,0.7c0,0.2,0,0.3-0.2,0.3
				c-1,0.5-1.7,1.2-2.1,2.3c-1,2.6,0.5,5.1,3,5.6c2.7,0.6,4.7-1.2,5.1-3.5c0.1-0.5,0.1-0.5,0.6-0.5c0.2,0,0.4,0,0.6,0
				c0.1,0,0.2,0.1,0.2,0.2c-0.1,1.5-0.6,2.7-1.7,3.7c-1.2,1.1-2.6,1.6-4.2,1.5c-2.5-0.2-4.6-1.9-5-4.6
				C150.8,266.4,150.8,266.2,150.8,265.9z"/>
			<path class="st10" d="M156.5,253.9c0.8,0,1.5,0.7,1.5,1.5c0,0.8-0.7,1.5-1.5,1.5c-0.8,0-1.5-0.7-1.5-1.5
				C155,254.6,155.7,253.9,156.5,253.9z"/>
		</g>
	</g>
	<g id="BbVIEC_00000168081295122155553890000001640666039958482105_">
		<g>
			<g>
				<path class="st12" d="M223.1,266.1c-8.3,0-16.6,0-24.9,0c-0.5,0-0.5-0.1-0.5-0.6c0-1.5,0-3,0-4.5c0.2-0.3,0.5-0.3,0.8-0.3
					c1.2,0,2.4,0,3.6,0c0.7,0,0.8-0.2,0.8-0.8c0-1.2,0-2.4,0-3.6c0-0.8,0.1-0.9,0.9-0.9c1.2,0,2.4,0,3.5,0c0.8,0,0.9-0.1,0.9-0.9
					c0-1.2,0-2.4,0-3.6c0-0.6,0.2-0.8,0.8-0.8c1.2,0,2.4,0,3.6,0c0.7,0,0.8-0.1,0.8-0.8c0-1.2,0-2.3,0-3.5c0-0.9,0.1-1,1-1
					c1.2,0,2.3,0,3.5,0c0.7,0,0.8-0.1,0.9-0.9c0-1.2,0-2.4,0-3.6c0-0.7,0.2-0.8,0.8-0.8c1.1,0,2.3,0,3.4,0c1.1,0,1.1,0.1,1.1,1.1
					c0,7.8,0,15.5,0,23.3C224.2,265,223.9,265.6,223.1,266.1z M215.2,259.7C215.2,259.7,215.2,259.7,215.2,259.7c0.7,0,1.4,0,2.2,0
					c0.6,0,0.6-0.4,0.6-0.8c0-0.4,0-0.8-0.6-0.8c-0.4,0-0.9,0-1.3,0c-0.2,0-0.4,0.1-0.5-0.1c-0.1-0.2,0.1-0.3,0.2-0.4
					c1.2-1.3,2.5-2.5,3.7-3.8c0.6-0.6,0.6-0.7,0.1-1.2c-0.5-0.5-0.7-0.5-1.3,0.1c-0.1,0.1-0.2,0.2-0.4,0.4c-1.1,1.1-2.3,2.3-3.4,3.4
					c-0.1,0.1-0.2,0.3-0.4,0.2c-0.1-0.1-0.1-0.2-0.1-0.4c0-0.4,0-0.9,0-1.3c0-0.5-0.2-0.7-0.7-0.7c-0.7,0-0.9,0.1-0.9,0.7
					c0,1.4,0,2.7,0,4.1c0,0.5,0.2,0.7,0.7,0.7C213.8,259.7,214.5,259.7,215.2,259.7z"/>
				<path class="st12" d="M205.3,245.2c-0.7,0-1.2,0-1.7,0c-0.6,0-0.8-0.2-0.8-0.8c0-0.7,0.1-1,0.7-1.1c1.4,0,2.9,0,4.3,0
					c0.5,0,0.7,0.3,0.7,0.8c0,1.4,0,2.8,0,4.2c0,0.6-0.3,0.8-1,0.8c-0.7,0-0.9-0.2-0.9-0.8c0-0.5,0-1,0-1.5
					c-0.3-0.1-0.4,0.2-0.6,0.3c-1.2,1.2-2.3,2.3-3.5,3.5c-0.7,0.7-1.4,0.5-1.8-0.4c-0.2-0.4,0.1-0.6,0.3-0.8
					c1.2-1.2,2.4-2.4,3.7-3.7C205,245.6,205.1,245.5,205.3,245.2z"/>
			</g>
		</g>
	</g>
	<g id="mGfqoG_00000087397587926017281220000009565486361571469495_">
		<g>
			<path class="st20" d="M278,233.1c0,1.7,0,3.4,0,5.1c0,2.1-1.4,3.5-3.5,3.5c-3.4,0-6.8,0-10.3,0c-2.2,0-3.5-1.4-3.6-3.5
				c0-3.4,0-6.8,0-10.2c0-2.2,1.4-3.6,3.6-3.6c3.4,0,6.7,0,10.1,0c2.2,0,3.6,1.4,3.6,3.6c0,0.8,0,1.7,0,2.5
				C278,231.4,278,232.2,278,233.1z M269.4,225.6C269.4,225.6,269.4,225.6,269.4,225.6c-1.7,0-3.4,0-5.2,0c-1.5,0-2.4,0.8-2.4,2.3
				c0,3.4,0,6.8,0,10.2c0,1.5,0.8,2.4,2.3,2.4c3.4,0,6.9,0,10.3,0c1.4,0,2.3-0.9,2.3-2.3c0-3.4,0-6.9,0-10.3c0-1.4-0.9-2.2-2.3-2.3
				C272.8,225.6,271.1,225.6,269.4,225.6z"/>
			<path class="st20" d="M264.8,220.9c0-0.8,0-1.5,0-2.3c0-0.4,0-0.8,0-1.2c0-0.7,0.2-1.1,0.7-1.1c0.4,0,0.7,0.4,0.7,1.1
				c0,0.9,0,1.9,0,2.8c0,0.2-0.1,0.4,0.1,0.5c0.2,0.1,0.3-0.2,0.4-0.3c0.4-0.4,0.7-0.7,1.1-1.1c0.3-0.3,0.6-0.3,0.9,0
				c0.3,0.3,0.4,0.6,0.1,0.9c-1,1.1-2,2.1-3,3.1c-0.2,0.2-0.6,0.2-0.8-0.1c-0.9-1-1.9-2-2.8-3c-0.3-0.3-0.2-0.7,0.1-1
				c0.3-0.3,0.7-0.2,0.9,0.1c0.5,0.5,0.9,1,1.4,1.5C264.7,221,264.7,221,264.8,220.9z"/>
			<path class="st20" d="M272.5,218.8c-0.6,0.6-1,1-1.4,1.5c-0.4,0.4-0.7,0.5-1.1,0.2c-0.3-0.3-0.3-0.7,0.1-1.1
				c0.8-0.9,1.7-1.8,2.5-2.7c0.4-0.4,0.7-0.5,1.1,0c0.9,0.9,1.7,1.8,2.5,2.7c0.4,0.4,0.4,0.9,0.1,1.2c-0.4,0.4-0.7,0.1-1.1-0.2
				c-0.4-0.4-0.9-0.9-1.4-1.3c-0.1,0.3,0,0.6-0.1,0.9c0,0.9,0,1.9,0,2.8c0,0.5-0.1,0.9-0.7,0.9c-0.5,0-0.7-0.4-0.7-0.8
				c0-1.1,0-2.2,0-3.3C272.5,219.3,272.5,219.2,272.5,218.8z"/>
			<path class="st20" d="M273.8,235.6c0,0.9,0,1.8,0,2.7c0,0.2,0,0.4,0,0.6c0,0.4,0,0.8-0.6,0.8c-0.5,0-0.5-0.4-0.6-0.8
				c0-0.9,0-1.8,0-2.6c0-0.4,0-0.9-0.4-1.2c-0.2-0.1-0.2-0.4-0.2-0.6c0-1.1,0-2.3,0-3.4c0-0.7,0.3-1,0.9-1c0.5,0,1.1,0,1.6,0
				c0.6,0,0.8,0.3,0.9,0.9c0,1.2,0,2.4,0,3.6c0,0.2,0,0.5-0.2,0.6c-0.4,0.3-0.4,0.7-0.4,1c0,0.9,0,1.7,0,2.6c0,0.4,0.1,0.9-0.5,0.9
				c-0.6,0-0.5-0.5-0.5-0.9c0-1,0-2.1,0-3.1C273.8,235.6,273.8,235.6,273.8,235.6z"/>
			<path class="st20" d="M264.8,235.5c0,1.1,0,2.3,0,3.4c0,0.4-0.1,0.7-0.6,0.7c-0.4,0-0.5-0.3-0.5-0.7c0-1,0-2,0-3
				c0-0.3,0-0.7-0.3-0.9c-0.2-0.2-0.2-0.4-0.2-0.7c0-1.1,0-2.3,0-3.4c0-0.7,0.3-1,1-1c0.5,0,1,0,1.5,0c0.6,0,0.9,0.3,0.9,0.9
				c0,1.2,0,2.4,0,3.6c0,0.2,0,0.5-0.2,0.6c-0.4,0.3-0.4,0.7-0.4,1c0,0.9,0,1.9,0,2.8c0,0.3,0,0.5-0.3,0.7c-0.4,0.2-0.7,0-0.8-0.6
				c0-1,0-2,0-3c0-0.1,0-0.3,0-0.4C264.9,235.5,264.9,235.5,264.8,235.5z"/>
			<path class="st20" d="M269.3,235.5c0,1.1,0,2.2,0,3.4c0,0.2,0,0.4-0.1,0.6c-0.2,0.2-0.4,0.2-0.6,0.1c-0.3-0.1-0.4-0.3-0.4-0.6
				c0-1,0-2,0-2.9c0-0.4,0-0.7-0.4-1c-0.2-0.1-0.2-0.4-0.2-0.6c0-1.2,0-2.4,0-3.6c0-0.6,0.3-0.9,1-0.9c0.5,0,1,0,1.5,0
				c0.7,0,0.9,0.3,0.9,1c0,1.2,0,2.4,0,3.6c0,0.2,0,0.4-0.2,0.6c-0.4,0.3-0.4,0.7-0.4,1.2c0,0.9,0,1.7,0,2.6c0,0.4,0,0.8-0.6,0.8
				c-0.6,0-0.5-0.4-0.5-0.8c0-1.1,0-2.2,0-3.3C269.4,235.5,269.3,235.5,269.3,235.5z"/>
			<path class="st20" d="M270.6,228.6c0,0.7-0.6,1.3-1.3,1.3c-0.6,0-1.2-0.6-1.2-1.2c0-0.7,0.6-1.3,1.2-1.3
				C270,227.3,270.6,227.9,270.6,228.6z"/>
			<path class="st20" d="M275,228.6c0,0.7-0.6,1.3-1.3,1.3c-0.6,0-1.2-0.6-1.3-1.2c0-0.7,0.6-1.3,1.2-1.3
				C274.5,227.3,275,227.9,275,228.6z"/>
			<path class="st20" d="M264.9,229.8c-0.7,0-1.3-0.6-1.2-1.3c0-0.6,0.6-1.2,1.2-1.2c0.7,0,1.3,0.6,1.3,1.2
				C266.2,229.2,265.6,229.8,264.9,229.8z"/>
		</g>
	</g>
	<g id="mGfqoG_00000005988185469917446750000008704691563639651246_">
		<g>
			<path class="st20" d="M278,262.8c0,1.7,0,3.4,0,5.1c0,2.1-1.4,3.5-3.5,3.5c-3.4,0-6.8,0-10.3,0c-2.2,0-3.5-1.4-3.6-3.5
				c0-3.4,0-6.8,0-10.2c0-2.2,1.4-3.6,3.6-3.6c3.4,0,6.7,0,10.1,0c2.2,0,3.6,1.4,3.6,3.6c0,0.8,0,1.7,0,2.5S278,262,278,262.8z
				 M269.4,255.4C269.4,255.4,269.4,255.4,269.4,255.4c-1.7,0-3.4,0-5.2,0c-1.5,0-2.4,0.8-2.4,2.3c0,3.4,0,6.8,0,10.2
				c0,1.5,0.8,2.4,2.3,2.4c3.4,0,6.9,0,10.3,0c1.4,0,2.3-0.9,2.3-2.3c0-3.4,0-6.9,0-10.3c0-1.4-0.9-2.2-2.3-2.3
				C272.8,255.4,271.1,255.4,269.4,255.4z"/>
			<path class="st20" d="M264.8,250.7c0-0.8,0-1.5,0-2.3c0-0.4,0-0.8,0-1.2c0-0.7,0.2-1.1,0.7-1.1c0.4,0,0.7,0.4,0.7,1.1
				c0,0.9,0,1.9,0,2.8c0,0.2-0.1,0.4,0.1,0.5c0.2,0.1,0.3-0.2,0.4-0.3c0.4-0.4,0.7-0.7,1.1-1.1c0.3-0.3,0.6-0.3,0.9,0
				c0.3,0.3,0.4,0.6,0.1,0.9c-1,1.1-2,2.1-3,3.1c-0.2,0.2-0.6,0.2-0.8-0.1c-0.9-1-1.9-2-2.8-3c-0.3-0.3-0.2-0.7,0.1-1
				c0.3-0.3,0.7-0.2,0.9,0.1c0.5,0.5,0.9,1,1.4,1.5C264.7,250.7,264.7,250.7,264.8,250.7z"/>
			<path class="st20" d="M272.5,248.6c-0.6,0.6-1,1-1.4,1.5c-0.4,0.4-0.7,0.5-1.1,0.2c-0.3-0.3-0.3-0.7,0.1-1.1
				c0.8-0.9,1.7-1.8,2.5-2.7c0.4-0.4,0.7-0.5,1.1,0c0.9,0.9,1.7,1.8,2.5,2.7c0.4,0.4,0.4,0.9,0.1,1.2c-0.4,0.4-0.7,0.1-1.1-0.2
				c-0.4-0.4-0.9-0.9-1.4-1.3c-0.1,0.3,0,0.6-0.1,0.9c0,0.9,0,1.9,0,2.8c0,0.5-0.1,0.9-0.7,0.9c-0.5,0-0.7-0.4-0.7-0.8
				c0-1.1,0-2.2,0-3.3C272.5,249,272.5,248.9,272.5,248.6z"/>
			<path class="st20" d="M273.8,265.3c0,0.9,0,1.8,0,2.7c0,0.2,0,0.4,0,0.6c0,0.4,0,0.8-0.6,0.8c-0.5,0-0.5-0.4-0.6-0.8
				c0-0.9,0-1.8,0-2.6c0-0.4,0-0.9-0.4-1.2c-0.2-0.1-0.2-0.4-0.2-0.6c0-1.1,0-2.3,0-3.4c0-0.7,0.3-1,0.9-1c0.5,0,1.1,0,1.6,0
				c0.6,0,0.8,0.3,0.9,0.9c0,1.2,0,2.4,0,3.6c0,0.2,0,0.5-0.2,0.6c-0.4,0.3-0.4,0.7-0.4,1c0,0.9,0,1.7,0,2.6c0,0.4,0.1,0.9-0.5,0.9
				c-0.6,0-0.5-0.5-0.5-0.9c0-1,0-2.1,0-3.1C273.8,265.3,273.8,265.3,273.8,265.3z"/>
			<path class="st20" d="M264.8,265.3c0,1.1,0,2.3,0,3.4c0,0.4-0.1,0.7-0.6,0.7c-0.4,0-0.5-0.3-0.5-0.7c0-1,0-2,0-3
				c0-0.3,0-0.7-0.3-0.9c-0.2-0.2-0.2-0.4-0.2-0.7c0-1.1,0-2.3,0-3.4c0-0.7,0.3-1,1-1c0.5,0,1,0,1.5,0c0.6,0,0.9,0.3,0.9,0.9
				c0,1.2,0,2.4,0,3.6c0,0.2,0,0.5-0.2,0.6c-0.4,0.3-0.4,0.7-0.4,1c0,0.9,0,1.9,0,2.8c0,0.3,0,0.5-0.3,0.7c-0.4,0.2-0.7,0-0.8-0.6
				c0-1,0-2,0-3c0-0.1,0-0.3,0-0.4C264.9,265.3,264.9,265.3,264.8,265.3z"/>
			<path class="st20" d="M269.3,265.3c0,1.1,0,2.2,0,3.4c0,0.2,0,0.4-0.1,0.6c-0.2,0.2-0.4,0.2-0.6,0.1c-0.3-0.1-0.4-0.3-0.4-0.6
				c0-1,0-2,0-2.9c0-0.4,0-0.7-0.4-1c-0.2-0.1-0.2-0.4-0.2-0.6c0-1.2,0-2.4,0-3.6c0-0.6,0.3-0.9,1-0.9c0.5,0,1,0,1.5,0
				c0.7,0,0.9,0.3,0.9,1c0,1.2,0,2.4,0,3.6c0,0.2,0,0.4-0.2,0.6c-0.4,0.3-0.4,0.7-0.4,1.2c0,0.9,0,1.7,0,2.6c0,0.4,0,0.8-0.6,0.8
				c-0.6,0-0.5-0.4-0.5-0.8c0-1.1,0-2.2,0-3.3C269.4,265.3,269.3,265.3,269.3,265.3z"/>
			<path class="st20" d="M270.6,258.3c0,0.7-0.6,1.3-1.3,1.3c-0.6,0-1.2-0.6-1.2-1.2c0-0.7,0.6-1.3,1.2-1.3
				C270,257,270.6,257.6,270.6,258.3z"/>
			<path class="st20" d="M275,258.3c0,0.7-0.6,1.3-1.3,1.3c-0.6,0-1.2-0.6-1.3-1.2c0-0.7,0.6-1.3,1.2-1.3
				C274.5,257,275,257.6,275,258.3z"/>
			<path class="st20" d="M264.9,259.5c-0.7,0-1.3-0.6-1.2-1.3c0-0.6,0.6-1.2,1.2-1.2c0.7,0,1.3,0.6,1.3,1.2
				C266.2,259,265.6,259.6,264.9,259.5z"/>
		</g>
	</g>
	<g id="mGfqoG_00000180358911958304032020000006931250475142178227_">
		<g>
			<path class="st20" d="M322.7,233.1c0,1.7,0,3.4,0,5.1c0,2.1-1.4,3.5-3.5,3.5c-3.4,0-6.8,0-10.3,0c-2.2,0-3.5-1.4-3.6-3.5
				c0-3.4,0-6.8,0-10.2c0-2.2,1.4-3.6,3.6-3.6c3.4,0,6.7,0,10.1,0c2.2,0,3.6,1.4,3.6,3.6c0,0.8,0,1.7,0,2.5
				C322.7,231.4,322.7,232.2,322.7,233.1z M314.1,225.6C314.1,225.6,314.1,225.6,314.1,225.6c-1.7,0-3.4,0-5.2,0
				c-1.5,0-2.4,0.8-2.4,2.3c0,3.4,0,6.8,0,10.2c0,1.5,0.8,2.4,2.3,2.4c3.4,0,6.9,0,10.3,0c1.4,0,2.3-0.9,2.3-2.3c0-3.4,0-6.9,0-10.3
				c0-1.4-0.9-2.2-2.3-2.3C317.6,225.6,315.8,225.6,314.1,225.6z"/>
			<path class="st20" d="M309.5,220.9c0-0.8,0-1.5,0-2.3c0-0.4,0-0.8,0-1.2c0-0.7,0.2-1.1,0.7-1.1c0.4,0,0.7,0.4,0.7,1.1
				c0,0.9,0,1.9,0,2.8c0,0.2-0.1,0.4,0.1,0.5c0.2,0.1,0.3-0.2,0.4-0.3c0.4-0.4,0.7-0.7,1.1-1.1c0.3-0.3,0.6-0.3,0.9,0
				c0.3,0.3,0.4,0.6,0.1,0.9c-1,1.1-2,2.1-3,3.1c-0.2,0.2-0.6,0.2-0.8-0.1c-0.9-1-1.9-2-2.8-3c-0.3-0.3-0.2-0.7,0.1-1
				c0.3-0.3,0.7-0.2,0.9,0.1c0.5,0.5,0.9,1,1.4,1.5C309.4,221,309.5,221,309.5,220.9z"/>
			<path class="st20" d="M317.3,218.8c-0.6,0.6-1,1-1.4,1.5c-0.4,0.4-0.7,0.5-1.1,0.2c-0.3-0.3-0.3-0.7,0.1-1.1
				c0.8-0.9,1.7-1.8,2.5-2.7c0.4-0.4,0.7-0.5,1.1,0c0.9,0.9,1.7,1.8,2.5,2.7c0.4,0.4,0.4,0.9,0.1,1.2c-0.4,0.4-0.7,0.1-1.1-0.2
				c-0.4-0.4-0.9-0.9-1.4-1.3c-0.1,0.3,0,0.6-0.1,0.9c0,0.9,0,1.9,0,2.8c0,0.5-0.1,0.9-0.7,0.9c-0.5,0-0.7-0.4-0.7-0.8
				c0-1.1,0-2.2,0-3.3C317.3,219.3,317.3,219.2,317.3,218.8z"/>
			<path class="st20" d="M318.5,235.6c0,0.9,0,1.8,0,2.7c0,0.2,0,0.4,0,0.6c0,0.4,0,0.8-0.6,0.8c-0.5,0-0.5-0.4-0.6-0.8
				c0-0.9,0-1.8,0-2.6c0-0.4,0-0.9-0.4-1.2c-0.2-0.1-0.2-0.4-0.2-0.6c0-1.1,0-2.3,0-3.4c0-0.7,0.3-1,0.9-1c0.5,0,1.1,0,1.6,0
				c0.6,0,0.8,0.3,0.9,0.9c0,1.2,0,2.4,0,3.6c0,0.2,0,0.5-0.2,0.6c-0.4,0.3-0.4,0.7-0.4,1c0,0.9,0,1.7,0,2.6c0,0.4,0.1,0.9-0.5,0.9
				c-0.6,0-0.5-0.5-0.5-0.9c0-1,0-2.1,0-3.1C318.6,235.6,318.5,235.6,318.5,235.6z"/>
			<path class="st20" d="M309.6,235.5c0,1.1,0,2.3,0,3.4c0,0.4-0.1,0.7-0.6,0.7c-0.4,0-0.5-0.3-0.5-0.7c0-1,0-2,0-3
				c0-0.3,0-0.7-0.3-0.9c-0.2-0.2-0.2-0.4-0.2-0.7c0-1.1,0-2.3,0-3.4c0-0.7,0.3-1,1-1c0.5,0,1,0,1.5,0c0.6,0,0.9,0.3,0.9,0.9
				c0,1.2,0,2.4,0,3.6c0,0.2,0,0.5-0.2,0.6c-0.4,0.3-0.4,0.7-0.4,1c0,0.9,0,1.9,0,2.8c0,0.3,0,0.5-0.3,0.7c-0.4,0.2-0.7,0-0.8-0.6
				c0-1,0-2,0-3c0-0.1,0-0.3,0-0.4C309.7,235.5,309.6,235.5,309.6,235.5z"/>
			<path class="st20" d="M314,235.5c0,1.1,0,2.2,0,3.4c0,0.2,0,0.4-0.1,0.6c-0.2,0.2-0.4,0.2-0.6,0.1c-0.3-0.1-0.4-0.3-0.4-0.6
				c0-1,0-2,0-2.9c0-0.4,0-0.7-0.4-1c-0.2-0.1-0.2-0.4-0.2-0.6c0-1.2,0-2.4,0-3.6c0-0.6,0.3-0.9,1-0.9c0.5,0,1,0,1.5,0
				c0.7,0,0.9,0.3,0.9,1c0,1.2,0,2.4,0,3.6c0,0.2,0,0.4-0.2,0.6c-0.4,0.3-0.4,0.7-0.4,1.2c0,0.9,0,1.7,0,2.6c0,0.4,0,0.8-0.6,0.8
				c-0.6,0-0.5-0.4-0.5-0.8c0-1.1,0-2.2,0-3.3C314.1,235.5,314.1,235.5,314,235.5z"/>
			<path class="st20" d="M315.3,228.6c0,0.7-0.6,1.3-1.3,1.3c-0.6,0-1.2-0.6-1.2-1.2c0-0.7,0.6-1.3,1.2-1.3
				C314.7,227.3,315.3,227.9,315.3,228.6z"/>
			<path class="st20" d="M319.8,228.6c0,0.7-0.6,1.3-1.3,1.3c-0.6,0-1.2-0.6-1.3-1.2c0-0.7,0.6-1.3,1.2-1.3
				C319.2,227.3,319.8,227.9,319.8,228.6z"/>
			<path class="st20" d="M309.6,229.8c-0.7,0-1.3-0.6-1.2-1.3c0-0.6,0.6-1.2,1.2-1.2c0.7,0,1.3,0.6,1.3,1.2
				C310.9,229.2,310.3,229.8,309.6,229.8z"/>
		</g>
	</g>
	<g id="mGfqoG_00000109723442109482315840000011418711940187395251_">
		<g>
			<path class="st20" d="M322.7,262.8c0,1.7,0,3.4,0,5.1c0,2.1-1.4,3.5-3.5,3.5c-3.4,0-6.8,0-10.3,0c-2.2,0-3.5-1.4-3.6-3.5
				c0-3.4,0-6.8,0-10.2c0-2.2,1.4-3.6,3.6-3.6c3.4,0,6.7,0,10.1,0c2.2,0,3.6,1.4,3.6,3.6c0,0.8,0,1.7,0,2.5S322.7,262,322.7,262.8z
				 M314.1,255.4C314.1,255.4,314.1,255.4,314.1,255.4c-1.7,0-3.4,0-5.2,0c-1.5,0-2.4,0.8-2.4,2.3c0,3.4,0,6.8,0,10.2
				c0,1.5,0.8,2.4,2.3,2.4c3.4,0,6.9,0,10.3,0c1.4,0,2.3-0.9,2.3-2.3c0-3.4,0-6.9,0-10.3c0-1.4-0.9-2.2-2.3-2.3
				C317.6,255.4,315.8,255.4,314.1,255.4z"/>
			<path class="st20" d="M309.5,250.7c0-0.8,0-1.5,0-2.3c0-0.4,0-0.8,0-1.2c0-0.7,0.2-1.1,0.7-1.1c0.4,0,0.7,0.4,0.7,1.1
				c0,0.9,0,1.9,0,2.8c0,0.2-0.1,0.4,0.1,0.5c0.2,0.1,0.3-0.2,0.4-0.3c0.4-0.4,0.7-0.7,1.1-1.1c0.3-0.3,0.6-0.3,0.9,0
				c0.3,0.3,0.4,0.6,0.1,0.9c-1,1.1-2,2.1-3,3.1c-0.2,0.2-0.6,0.2-0.8-0.1c-0.9-1-1.9-2-2.8-3c-0.3-0.3-0.2-0.7,0.1-1
				c0.3-0.3,0.7-0.2,0.9,0.1c0.5,0.5,0.9,1,1.4,1.5C309.4,250.7,309.5,250.7,309.5,250.7z"/>
			<path class="st20" d="M317.3,248.6c-0.6,0.6-1,1-1.4,1.5c-0.4,0.4-0.7,0.5-1.1,0.2c-0.3-0.3-0.3-0.7,0.1-1.1
				c0.8-0.9,1.7-1.8,2.5-2.7c0.4-0.4,0.7-0.5,1.1,0c0.9,0.9,1.7,1.8,2.5,2.7c0.4,0.4,0.4,0.9,0.1,1.2c-0.4,0.4-0.7,0.1-1.1-0.2
				c-0.4-0.4-0.9-0.9-1.4-1.3c-0.1,0.3,0,0.6-0.1,0.9c0,0.9,0,1.9,0,2.8c0,0.5-0.1,0.9-0.7,0.9c-0.5,0-0.7-0.4-0.7-0.8
				c0-1.1,0-2.2,0-3.3C317.3,249,317.3,248.9,317.3,248.6z"/>
			<path class="st20" d="M318.5,265.3c0,0.9,0,1.8,0,2.7c0,0.2,0,0.4,0,0.6c0,0.4,0,0.8-0.6,0.8c-0.5,0-0.5-0.4-0.6-0.8
				c0-0.9,0-1.8,0-2.6c0-0.4,0-0.9-0.4-1.2c-0.2-0.1-0.2-0.4-0.2-0.6c0-1.1,0-2.3,0-3.4c0-0.7,0.3-1,0.9-1c0.5,0,1.1,0,1.6,0
				c0.6,0,0.8,0.3,0.9,0.9c0,1.2,0,2.4,0,3.6c0,0.2,0,0.5-0.2,0.6c-0.4,0.3-0.4,0.7-0.4,1c0,0.9,0,1.7,0,2.6c0,0.4,0.1,0.9-0.5,0.9
				c-0.6,0-0.5-0.5-0.5-0.9c0-1,0-2.1,0-3.1C318.6,265.3,318.5,265.3,318.5,265.3z"/>
			<path class="st20" d="M309.6,265.3c0,1.1,0,2.3,0,3.4c0,0.4-0.1,0.7-0.6,0.7c-0.4,0-0.5-0.3-0.5-0.7c0-1,0-2,0-3
				c0-0.3,0-0.7-0.3-0.9c-0.2-0.2-0.2-0.4-0.2-0.7c0-1.1,0-2.3,0-3.4c0-0.7,0.3-1,1-1c0.5,0,1,0,1.5,0c0.6,0,0.9,0.3,0.9,0.9
				c0,1.2,0,2.4,0,3.6c0,0.2,0,0.5-0.2,0.6c-0.4,0.3-0.4,0.7-0.4,1c0,0.9,0,1.9,0,2.8c0,0.3,0,0.5-0.3,0.7c-0.4,0.2-0.7,0-0.8-0.6
				c0-1,0-2,0-3c0-0.1,0-0.3,0-0.4C309.7,265.3,309.6,265.3,309.6,265.3z"/>
			<path class="st20" d="M314,265.3c0,1.1,0,2.2,0,3.4c0,0.2,0,0.4-0.1,0.6c-0.2,0.2-0.4,0.2-0.6,0.1c-0.3-0.1-0.4-0.3-0.4-0.6
				c0-1,0-2,0-2.9c0-0.4,0-0.7-0.4-1c-0.2-0.1-0.2-0.4-0.2-0.6c0-1.2,0-2.4,0-3.6c0-0.6,0.3-0.9,1-0.9c0.5,0,1,0,1.5,0
				c0.7,0,0.9,0.3,0.9,1c0,1.2,0,2.4,0,3.6c0,0.2,0,0.4-0.2,0.6c-0.4,0.3-0.4,0.7-0.4,1.2c0,0.9,0,1.7,0,2.6c0,0.4,0,0.8-0.6,0.8
				c-0.6,0-0.5-0.4-0.5-0.8c0-1.1,0-2.2,0-3.3C314.1,265.3,314.1,265.3,314,265.3z"/>
			<path class="st20" d="M315.3,258.3c0,0.7-0.6,1.3-1.3,1.3c-0.6,0-1.2-0.6-1.2-1.2c0-0.7,0.6-1.3,1.2-1.3
				C314.7,257,315.3,257.6,315.3,258.3z"/>
			<path class="st20" d="M319.8,258.3c0,0.7-0.6,1.3-1.3,1.3c-0.6,0-1.2-0.6-1.3-1.2c0-0.7,0.6-1.3,1.2-1.3
				C319.2,257,319.8,257.6,319.8,258.3z"/>
			<path class="st20" d="M309.6,259.5c-0.7,0-1.3-0.6-1.2-1.3c0-0.6,0.6-1.2,1.2-1.2c0.7,0,1.3,0.6,1.3,1.2
				C310.9,259,310.3,259.6,309.6,259.5z"/>
		</g>
	</g>
	<g>
		<text transform="matrix(1 0 0 1 696.0627 260.783)" class="st10 st23 st24">Toilet</text>
	</g>
	<g id="o3AOjT_00000114753535926211807360000003856134372051329939_">
		<g>
			<g>
				<path class="st10" d="M717.2,230.8c0.4-0.4,0.8-0.7,1.1-1.1c0.5-0.6,1.1-0.5,1.4,0.2c1.5,3.8,2.9,7.6,4.4,11.4
					c0.3,0.8-0.2,1.5-1,1.6c-0.2,0-0.4,0-0.6,0c-3.4,0-6.9,0-10.3,0c-0.2,0-0.4,0-0.6,0c-1-0.1-1.4-0.8-1.1-1.7
					c0.7-1.9,1.5-3.9,2.2-5.8c0.7-1.8,1.4-3.6,2.1-5.4c0.3-0.7,0.8-0.8,1.4-0.3C716.6,230,716.9,230.4,717.2,230.8z"/>
				<path class="st10" d="M717.3,228.3c-2.1,0-3.9-1.6-3.8-3.9c0-2.1,1.6-3.8,3.9-3.8c2.1,0,3.8,1.7,3.8,3.9
					C721.2,226.6,719.5,228.3,717.3,228.3z"/>
			</g>
		</g>
	</g>
	<g id="s8VYHe_00000180341507279859679680000010367651605212809870_">
		<g>
			<path class="st11" d="M665.5,244.4c1.4,0,2.8,0,4.1,0c0.5,0,0.9,0.3,1,0.8c0.1,0.6-0.3,1.1-1,1.1c-1,0-2,0-2.9,0
				c-0.2,0-0.2,0-0.2,0.2c0,0.9,0,1.8,0,2.8c0,0.1,0,0.2,0.2,0.2c0.5,0,0.9,0.5,1,1c0,0.2,0,0.2,0.2,0.2c1.3,0,2.6,0,3.9,0
				c0.2,0,0.2,0,0.2-0.2c0-0.8,0-1.6,0-2.5c0-0.4,0.2-0.7,0.7-0.6c0.3,0,0.7,0,1,0c0.1,0,0.1,0,0.2,0.2c0,0.5,0,1.1,0,1.6
				c0,0.5,0,0.9,0,1.4c0,0.5,0,1.1,0,1.6c0,0.5,0,1,0,1.6c0,0.2,0,0.4,0,0.6c0,0.5,0,1,0,1.6c0,0.3,0,0.5,0,0.8c0,0.2,0,0.2-0.2,0.2
				c-0.3,0-0.7,0-1,0c-0.4,0-0.6-0.2-0.6-0.6c0-0.8,0-1.7,0-2.5c0-0.2,0-0.2-0.2-0.2c-0.5,0-1.1,0-1.6,0c-0.5,0-1,0-1.4,0
				c-0.3,0-0.6,0-0.8,0c-0.2,0-0.2,0-0.2,0.2c-0.1,0.6-0.6,1-1.2,1c-0.7,0-1.3,0-2,0c-0.6,0-1.1-0.4-1.2-1c0-0.1-0.1-0.1-0.2-0.1
				c-0.3,0-0.7,0-1,0c-0.6,0-1.2,0-1.8,0c-0.2,0-0.5,0-0.7,0.1c-0.5,0.2-0.9,0.7-0.9,1.3c0,0.5,0,1,0,1.6c0,0.6,0,1.1,0,1.7
				c0,0.1,0,0.1-0.1,0.1c-1,0-1.9,0-2.9,0c-0.1,0-0.1-0.1-0.1-0.2c0-0.5,0-1,0-1.5c0-0.8,0-1.6,0-2.4c0-0.6,0.2-1.1,0.5-1.5
				c0.6-0.9,1.5-1.5,2.5-1.9c0.7-0.2,1.4-0.3,2.1-0.3c0.8,0,1.6,0,2.4,0c0.1,0,0.2,0,0.2-0.1c0.1-0.6,0.5-1,1-1
				c0.1,0,0.1-0.1,0.1-0.2c0-0.9,0-1.9,0-2.8c0-0.1,0-0.2-0.2-0.2c-1,0-2,0-2.9,0c-0.5,0-0.8-0.3-1-0.7c-0.2-0.6,0.3-1.2,0.9-1.2
				c0.8,0,1.5,0,2.3,0C664.3,244.4,664.9,244.4,665.5,244.4C665.5,244.4,665.5,244.4,665.5,244.4z"/>
			<path class="st11" d="M657.1,260.9c1.6,0,3.2,0,4.8,0c0.2,0,0.2,0,0.2,0.2c-0.1,0.9-0.2,1.8-0.3,2.7c-0.1,0.9-0.2,1.8-0.3,2.7
				c-0.1,0.7-0.2,1.4-0.2,2.1c0,0.5-0.1,1-0.2,1.6c-0.1,0.8-0.2,1.6-0.3,2.4c0,0.2,0,0.2-0.2,0.2c-0.5,0-1,0-1.5,0c-0.5,0-1,0-1.6,0
				c-0.6,0-1.1,0-1.7,0c-0.2,0-0.4,0-0.6,0c-0.5,0-1.1,0-1.6,0c-0.1,0-0.2,0-0.2-0.1c-0.1-0.7-0.2-1.3-0.2-2
				c-0.1-0.7-0.2-1.4-0.2-2.2c-0.1-0.5-0.1-1.1-0.2-1.6c-0.1-0.7-0.2-1.4-0.2-2.2c-0.1-0.6-0.1-1.1-0.2-1.7c-0.1-0.7-0.1-1.3-0.2-2
				c0-0.1,0.1-0.1,0.2-0.1c0.8,0,1.7,0,2.5,0C655.5,260.9,656.3,260.9,657.1,260.9C657.1,260.9,657.1,260.9,657.1,260.9z
				 M657.1,264.3c1.1,0,2.2,0,3.4,0c0.1,0,0.2,0,0.2-0.2c0.1-0.6,0.1-1.3,0.2-1.9c0-0.2,0-0.2-0.2-0.2c-0.6,0-1.2,0-1.8,0
				c-0.2,0-0.5,0-0.7,0c-0.5,0-1,0-1.6,0c-0.5,0-1,0-1.6,0c-0.5,0-1,0-1.6,0c-0.2,0-0.2,0-0.2,0.2c0,0.3,0.1,0.6,0.1,1
				c0,0.3,0.1,0.6,0.1,1c0,0.1,0.1,0.2,0.2,0.2c0.1,0,0.1,0,0.2,0C655,264.3,656,264.3,657.1,264.3z"/>
		</g>
	</g>
	<g id="BbVIEC_00000062189301122103616010000000494441347977675188_">
		<g>
			<g>
				<path class="st12" d="M627.4,266.1c-8.3,0-16.6,0-24.9,0c-0.5,0-0.5-0.1-0.5-0.6c0-1.5,0-3,0-4.5c0.2-0.3,0.5-0.3,0.8-0.3
					c1.2,0,2.4,0,3.6,0c0.7,0,0.8-0.2,0.8-0.8c0-1.2,0-2.4,0-3.6c0-0.8,0.1-0.9,0.9-0.9c1.2,0,2.4,0,3.5,0c0.8,0,0.9-0.1,0.9-0.9
					c0-1.2,0-2.4,0-3.6c0-0.6,0.2-0.8,0.8-0.8c1.2,0,2.4,0,3.6,0c0.7,0,0.8-0.1,0.8-0.8c0-1.2,0-2.3,0-3.5c0-0.9,0.1-1,1-1
					c1.2,0,2.3,0,3.5,0c0.7,0,0.8-0.1,0.9-0.9c0-1.2,0-2.4,0-3.6c0-0.7,0.2-0.8,0.8-0.8c1.1,0,2.3,0,3.4,0c1.1,0,1.1,0.1,1.1,1.1
					c0,7.8,0,15.5,0,23.3C628.5,265,628.2,265.6,627.4,266.1z M619.5,259.7C619.5,259.7,619.5,259.7,619.5,259.7c0.7,0,1.4,0,2.2,0
					c0.6,0,0.6-0.4,0.6-0.8c0-0.4,0-0.8-0.6-0.8c-0.4,0-0.9,0-1.3,0c-0.2,0-0.4,0.1-0.5-0.1c-0.1-0.2,0.1-0.3,0.2-0.4
					c1.2-1.3,2.5-2.5,3.7-3.8c0.6-0.6,0.6-0.7,0.1-1.2c-0.5-0.5-0.7-0.5-1.3,0.1c-0.1,0.1-0.2,0.2-0.4,0.4c-1.1,1.1-2.3,2.3-3.4,3.4
					c-0.1,0.1-0.2,0.3-0.4,0.2c-0.1-0.1-0.1-0.2-0.1-0.4c0-0.4,0-0.9,0-1.3c0-0.5-0.2-0.7-0.7-0.7c-0.7,0-0.9,0.1-0.9,0.7
					c0,1.4,0,2.7,0,4.1c0,0.5,0.2,0.7,0.7,0.7C618.1,259.7,618.8,259.7,619.5,259.7z"/>
				<path class="st12" d="M609.7,245.2c-0.7,0-1.2,0-1.7,0c-0.6,0-0.8-0.2-0.8-0.8c0-0.7,0.1-1,0.7-1.1c1.4,0,2.9,0,4.3,0
					c0.5,0,0.7,0.3,0.7,0.8c0,1.4,0,2.8,0,4.2c0,0.6-0.3,0.8-1,0.8c-0.7,0-0.9-0.2-0.9-0.8c0-0.5,0-1,0-1.5
					c-0.3-0.1-0.4,0.2-0.6,0.3c-1.2,1.2-2.3,2.3-3.5,3.5c-0.7,0.7-1.4,0.5-1.8-0.4c-0.2-0.4,0.1-0.6,0.3-0.8
					c1.2-1.2,2.4-2.4,3.7-3.7C609.3,245.6,609.4,245.5,609.7,245.2z"/>
			</g>
		</g>
	</g>
	<g>
		<text transform="matrix(1 0 0 1 660.0988 125.8094)" class="st0 st25 st26">610</text>
	</g>
	<g>
		<text transform="matrix(1 0 0 1 652.4074 148.1805)" class="st23 st27">紅酒瑜珈</text>
	</g>
	<g>
		<text transform="matrix(1 0 0 1 743.4582 125.8094)" class="st0 st25 st26">609</text>
	</g>
	<g>
		<text transform="matrix(1 0 0 1 734.9064 148.1805)" class="st23 st27">OCF 桌遊</text>
	</g>
	<g>
		<text transform="matrix(1 0 0 1 413.4767 125.8094)" class="st0 st25 st26">613</text>
	</g>
	<g>
		<text transform="matrix(1 0 0 1 392.6066 148.1805)" class="st23 st27">社群/贊助攤位</text>
	</g>
	<g>
		<text transform="matrix(1 0 0 1 495.9289 125.8094)" class="st0 st25 st26">612</text>
	</g>
	<g>
		<text transform="matrix(1 0 0 1 482.7267 148.1805)" class="st23 st27">親子工作坊</text>
	</g>
	<g>
		<text transform="matrix(1 0 0 1 578.0129 125.8094)" class="st0 st25 st26">611</text>
	</g>
	<g>
		<text transform="matrix(1 0 0 1 570.3185 148.1805)" class="st23 st27">冥想正念</text>
	</g>
	<g>
		<text transform="matrix(1 0 0 1 331.631 125.8094)" class="st0 st25 st26">614</text>
	</g>
	<g>
		<text transform="matrix(1 0 0 1 310.7589 148.1805)" class="st23 st27">社群/贊助攤位</text>
	</g>
	<g>
		<text transform="matrix(1 0 0 1 249.7834 125.8094)" class="st0 st25 st26">615</text>
	</g>
	<g>
		<text transform="matrix(1 0 0 1 242.09 148.1805)" class="st23 st27">議程教室</text>
	</g>
	<g>
		<text transform="matrix(1 0 0 1 83.9992 125.8094)" class="st0 st25 st26">617</text>
	</g>
	<g>
		<text transform="matrix(1 0 0 1 73.1974 148.1805)" class="st23 st27">Staff Only</text>
	</g>
	<g>
		<text transform="matrix(1 0 0 1 167.5871 125.8094)" class="st0 st25 st26">616</text>
	</g>
	<g>
		<text transform="matrix(1 0 0 1 159.8918 148.1805)" class="st23 st27">議程教室</text>
	</g>
	<g>
		<text transform="matrix(1 0 0 1 82.2351 474.9858)" class="st0 st28 st29">611</text>
	</g>
	<g>
		<text transform="matrix(1 0 0 1 82.2351 522.3871)" class="st0 st28 st29">612</text>
	</g>
	<g>
		<text transform="matrix(1 0 0 1 261.5193 374.374)" class="st0 st28 st29">613</text>
	</g>
	<g>
		<text transform="matrix(1 0 0 1 261.519 421.8888)" class="st0 st28 st29">614</text>
	</g>
	<g>
		<text transform="matrix(1 0 0 1 261.5193 469.9702)" class="st0 st28 st29">615</text>
	</g>
	<g>
		<text transform="matrix(1 0 0 1 425.8379 374.3743)" class="st0 st28 st29">616</text>
	</g>
	<g>
		<text transform="matrix(1 0 0 1 82.2351 374.3745)" class="st0 st28 st29">609</text>
	</g>
	<g>
		<text transform="matrix(1 0 0 1 82.2351 426.2296)" class="st0 st28 st29">610</text>
	</g>
	<g>
		<text transform="matrix(1 0 0 1 119.734 441.0925)" class="st30 st31">紅酒瑜伽</text>
	</g>
	<text transform="matrix(1 0 0 1 119.7335 425.2771)" class="st32 st28 st33">Day01 / Day02</text>
	<g>
		<text transform="matrix(1 0 0 1 299.6135 437.9724)" class="st30 st31">社群/贊助攤位</text>
	</g>
	<text transform="matrix(1 0 0 1 299.2576 422.4538)" class="st32 st28 st33">Day01 / Day02</text>
	<g>
		<text transform="matrix(1 0 0 1 463.3637 390.4165)" class="st30 st31">醫療資訊開放標準與開源解決方案</text>
	</g>
	<text transform="matrix(1 0 0 1 463.4584 374.7813)" class="st32 st28 st33">Day01</text>
	<g>
		<text transform="matrix(1 0 0 1 425.8379 454.149)" class="st0 st28 st29">617</text>
	</g>
	<g>
		<text transform="matrix(1 0 0 1 463.9849 470.1786)" class="st30 st31">Staff only</text>
	</g>
	<text transform="matrix(1 0 0 1 463.3636 454.1494)" class="st32 st28 st33">Day01 / Day02</text>
	<g>
		<text transform="matrix(1 0 0 1 298.6614 390.417)" class="st30 st31">社群/贊助攤位</text>
	</g>
	<text transform="matrix(1 0 0 1 298.4069 374.7818)" class="st32 st28 st33">Day01 / Day02</text>
	<g>
		<text transform="matrix(1 0 0 1 299.2973 486.4395)" class="st30 st31">Open Edge AI &amp; TinyML</text>
	</g>
	<text transform="matrix(1 0 0 1 299.2968 470.6015)" class="st32 st28 st33">Day01</text>
	<g>
		<text transform="matrix(1 0 0 1 299.2973 519.9689)" class="st30 st31">開放 AI</text>
	</g>
	<text transform="matrix(1 0 0 1 299.2968 504.0809)" class="st32 st28 st33">Day02</text>
	<g>
		<text transform="matrix(1 0 0 1 463.173 422.4539)" class="st30 st31">開源與職涯</text>
	</g>
	<text transform="matrix(1 0 0 1 463.4581 406.93)" class="st32 st28 st33">Day02</text>
	<g>
		<text transform="matrix(1 0 0 1 119.7335 490.3823)" class="st30 st31">冥想正念</text>
	</g>
	<text transform="matrix(1 0 0 1 119.504 474.82)" class="st32 st28 st33">Day01 / Day02</text>
	<g>
		<text transform="matrix(1 0 0 1 119.253 387.3996)" class="st30 st31">OCF 桌遊</text>
	</g>
	<text transform="matrix(1 0 0 1 119.2534 371.7534)" class="st32 st28 st33">Day01 / Day02</text>
	<g>
		<text transform="matrix(1 0 0 1 119.7331 537.9901)" class="st30 st31">親子工作坊</text>
	</g>
	<text transform="matrix(1 0 0 1 119.2531 522.5381)" class="st32 st28 st33">Day01 / Day02</text>
</g>
<g id="樓層位置">
	<g>
		<text transform="matrix(1 0 0 1 80.7141 339.1412)" class="st0 st25 st34">TR6F</text>
	</g>
	<g>
		<g>
			<defs>
				<rect id="SVGID_00000007399766824440986960000008518587322887313306_" x="645.9" y="463.1" width="169.6" height="113.1"/>
			</defs>
			<clipPath id="SVGID_00000140696460028971645200000000746304453341368727_">
				<use xlink:href="#SVGID_00000007399766824440986960000008518587322887313306_"  style="overflow:visible;"/>
			</clipPath>
			<g style="clip-path:url(#SVGID_00000140696460028971645200000000746304453341368727_);">
				<defs>
					<rect id="SVGID_00000010311653406662428320000004809246413503747968_" x="645.9" y="463.1" width="169.6" height="113.1"/>
				</defs>
				<clipPath id="SVGID_00000109748898017024206190000006516605040351888771_">
					<use xlink:href="#SVGID_00000010311653406662428320000004809246413503747968_"  style="overflow:visible;"/>
				</clipPath>
				<path style="clip-path:url(#SVGID_00000109748898017024206190000006516605040351888771_);fill:#00943C;" d="M679.5,503.2
					l-2.1,8.9h-3c0.1-0.3,0.1-0.6,0.2-0.9c0.1-0.3,0.1-0.8,0.1-1.3c0-1.2-0.2-2.2-0.6-2.9c-0.6-1-1.6-1.5-2.9-1.5
					c-1.8,0-3.6,1.2-5.6,3.5c-2.1,2.4-3.1,4.9-3.1,7.4c0,1.9,0.5,3.4,1.4,4.5c1,1.1,2.2,1.6,3.7,1.6c1.3,0,2.8-0.6,4.6-1.9
					c0.6-0.4,1.4-1,2.4-1.9l3,1.9c-0.4,0.4-0.9,0.8-1.3,1.2c-1.2,1-2.4,1.7-3.8,2.3c-2,0.8-4,1.2-6.1,1.2c-3.1,0-5.6-0.8-7.6-2.3
					c-2.3-1.7-3.4-4.1-3.4-7.1c0-4,1.8-7.3,5.3-9.9c3.3-2.4,7.4-3.6,12.3-3.6c1.1,0,2.5,0.1,4.2,0.3
					C677.7,502.9,678.5,503.1,679.5,503.2"/>
				<path style="clip-path:url(#SVGID_00000109748898017024206190000006516605040351888771_);fill:#00943C;" d="M705.3,509.7
					c0,2-0.4,3.9-1.3,5.5c-0.7,1.4-2,2.9-3.7,4.7c-1.7,1.7-3.8,3-6.2,4c-2.1,0.8-4.2,1.2-6.1,1.2c-3.3,0-5.9-0.9-7.7-2.8
					c-1.7-1.7-2.6-4-2.6-6.8c0-2.4,0.7-4.6,2-6.8c1-1.6,2.2-3.1,3.8-4.4c1.2-1,1.9-1.5,2-1.5l6.1,0c-0.1,0-0.7,0.7-1.7,2.1
					c-1.3,1.7-2.4,3.5-3.3,5.1c-1.2,2.4-1.8,4.6-1.8,6.6c0,2.2,0.5,3.8,1.4,4.8c0.8,0.8,1.9,1.2,3.3,1.2c1.9,0,3.7-1.1,5.3-3.4
					c1.6-2.3,2.4-4.7,2.4-7.3c0-1.2-0.1-2.1-0.4-2.9c-0.3-0.9-1-1.6-1.8-2c-0.2-0.1-0.4-0.2-0.7-0.2c-0.3,0-0.6-0.1-0.9-0.1
					c-0.5,0-0.8,0-1.1,0c-0.3,0-0.5,0.1-0.8,0.1v-2l7.8-2.5c1.3,0.5,2.3,1,3,1.5C704.3,505.2,705.3,507.2,705.3,509.7"/>
				<path style="clip-path:url(#SVGID_00000109748898017024206190000006516605040351888771_);fill:#00943C;" d="M729.4,502.8l-2,7.3
					h-2.8v-0.3c0-0.3,0-0.5,0-0.8c0-0.6,0-1.2-0.1-1.7c-0.1-0.5-0.3-0.9-0.6-1.3c-0.4-0.4-0.8-0.7-1.4-0.9c-0.6-0.2-1.5-0.3-2.9-0.3
					c-1.7,0-3.1,0.3-4.2,0.9c-1.4,0.7-2,1.7-2,3.1c0,1.1,1.1,1.9,3.4,2.6c2.2,0.6,4.5,1.2,6.6,1.8c2.4,1,3.5,2.5,3.5,4.4
					c0,2.3-1.6,4.1-4.9,5.6c-2.9,1.3-6.1,2-9.7,2c-1.4,0-3.2-0.2-5.3-0.7c-0.7-0.1-1.7-0.4-2.9-0.7v-4.1c0.9,0.5,1.7,0.9,2.3,1.2
					c1.9,0.8,3.8,1.2,5.7,1.2c1.8,0,3.3-0.3,4.7-0.9c1.6-0.7,2.4-1.7,2.4-2.9c0-1.2-1.1-2-3.3-2.4c-2.2-0.5-4.4-0.9-6.5-1.3
					c-2.3-0.8-3.4-2.2-3.4-4.3c0-2,0.8-3.7,2.5-5c1.4-1.1,3.4-1.9,5.9-2.4c2-0.4,4.3-0.6,6.9-0.6c1.5,0,3.2,0.1,5.3,0.3
					C727.3,502.6,728.2,502.7,729.4,502.8"/>
				<path style="clip-path:url(#SVGID_00000109748898017024206190000006516605040351888771_);fill:#00943C;" d="M752.1,503.2
					l-2.1,8.9h-3c0.1-0.3,0.1-0.6,0.2-0.9c0.1-0.3,0.1-0.8,0.1-1.3c0-1.2-0.2-2.2-0.6-2.9c-0.6-1-1.6-1.5-2.9-1.5
					c-1.7,0-3.6,1.2-5.6,3.5c-2.1,2.4-3.1,4.9-3.1,7.4c0,1.9,0.5,3.4,1.4,4.5c1,1.1,2.2,1.6,3.7,1.6c1.3,0,2.8-0.6,4.6-1.9
					c0.6-0.4,1.4-1,2.4-1.9l3,1.9c-0.4,0.4-0.9,0.8-1.3,1.2c-1.2,1-2.4,1.7-3.7,2.3c-2,0.8-4,1.2-6.1,1.2c-3.1,0-5.6-0.8-7.6-2.3
					c-2.3-1.7-3.4-4.1-3.4-7.1c0-4,1.8-7.3,5.3-9.9c3.3-2.4,7.4-3.6,12.3-3.6c1.1,0,2.5,0.1,4.2,0.3
					C750.4,502.9,751.2,503.1,752.1,503.2"/>
				<path style="clip-path:url(#SVGID_00000109748898017024206190000006516605040351888771_);fill:#00943C;" d="M778.6,502.7
					l-5.6,22.3h-7.5l1.9-6.4c0.1-0.1,0.1-0.3,0.1-0.5c0-0.2,0.1-0.3,0.1-0.4c0-0.2-0.1-0.4-0.2-0.4c-0.2,0-0.3,0.1-0.5,0.3
					c0,0.1-0.1,0.2-0.2,0.3c-0.5,0.7-0.9,1.3-1.4,2c-1.2,1.5-2.5,2.8-3.8,3.8c-1.8,1.3-3.6,2-5.4,2c-1.7,0-3.1-0.6-4.2-1.7
					c-1-1.1-1.6-2.6-1.6-4.6c0-0.8,0.1-1.8,0.3-3c0.1-0.4,0.2-1,0.4-1.7l3.4-12.1h7.5l-3.7,13.3c0,0.1-0.1,0.3-0.1,0.7
					c-0.1,0.4-0.1,0.7-0.1,1c0,0.7,0.2,1.2,0.5,1.6c0.3,0.4,0.9,0.6,1.8,0.6c1.7,0,3.5-1.5,5.5-4.4c1.4-2.1,2.8-4.9,4.1-8.3
					c0.5-1.5,1.1-3,1.6-4.4H778.6z"/>
				<path style="clip-path:url(#SVGID_00000109748898017024206190000006516605040351888771_);fill:#00943C;" d="M739.7,495.3
					l-3.8-12.1l-2,3.5c-24.1-11.6-34.6,11.2-34.6,11.2s8.7-16.7,30-3.3l-2,3.5L739.7,495.3z"/>
				<path style="clip-path:url(#SVGID_00000109748898017024206190000006516605040351888771_);fill:#00943C;" d="M755.1,486.9
					l-3.8-12.1l-2,3.5c-24.1-11.6-34.6,11.2-34.6,11.2s8.7-16.7,30-3.3l-2,3.5L755.1,486.9z"/>
				<path style="clip-path:url(#SVGID_00000109748898017024206190000006516605040351888771_);fill:#00943C;" d="M803.2,504.1
					c-1.7-1-3.7-1.4-6-1.4h-3.5l-0.5,0.6c0.2,0.4,0.2,0.7,0.2,0.9l0,0.4c0,0.2,0,0.4,0,0.5h0.5c1.4,0,2.5,0.4,3.3,1.3
					c0.9,0.8,1.3,2,1.3,3.6c0,1.9-0.8,3.3-2.5,4.4c-1.1,0.7-2.7,1.2-4.6,1.5c-0.3,0-0.6,0.1-1,0.1l-0.2,0.6
					c-0.1,0.5-0.2,0.9-0.5,1.3l-0.2,0.4c0.2,0,0.4,0,0.6,0c2.2,0,4.3-0.2,6.1-0.5c2.8-0.5,5.1-1.4,6.7-2.6c2.1-1.6,3.1-3.7,3.1-6.4
					C806.1,506.7,805.1,505.2,803.2,504.1"/>
				<path style="clip-path:url(#SVGID_00000109748898017024206190000006516605040351888771_);fill:#00943C;" d="M790,508.8
					c0-0.1,0-0.4,0.1-0.5l0.8-2c0-0.1,0.2-0.3,0.2-0.4l0.3-0.8l0-0.1c0-0.1,0-0.4,0-0.5l0-0.2c0-0.1,0-0.3-0.1-0.5l-0.1-0.3v-0.5
					l0.1-0.5l0-0.2c0.1-0.1,0.2-0.3,0.2-0.4l0.7-0.8c0-0.1,0.1-0.3,0-0.3l-0.4-0.6c-0.1-0.1-0.2-0.2-0.3-0.2l-1.2-0.4
					c-0.1,0-0.4-0.1-0.4-0.2l-0.4-0.5c-0.1-0.1-0.2-0.2-0.3-0.2h-0.1c-0.1,0-0.3,0.1-0.4,0.1l-0.4,0.4c-0.1,0.1-0.1,0.3-0.1,0.4
					c0,0.1-0.1,0.2-0.3,0.3l-0.6,0.1c-0.2,0-0.4,0.1-0.5,0.2l-1,0.4c-0.1,0-0.3,0.1-0.3,0.2l-1,2.2c-0.1,0.1-0.2,0.3-0.3,0.3l-0.9,1
					c-0.1,0.1-0.2,0.3-0.3,0.4l-3.9,6.9c-0.1,0.1-0.1,0.3-0.1,0.4l0.1,2.3c0.1,0.1,0,0.3-0.1,0.4l-0.1,0.1c0,0.1-0.1,0.3-0.1,0.4
					l-0.1,0.5c0,0.1-0.1,0.3-0.1,0.4l0,0.4c0,0.1,0,0.3,0.2,0.4l0.6,0.5c0.1,0,0.2,0.2,0.2,0.3v0.8c0,0.1,0.1,0.3,0.1,0.4l0.2,0.7
					c0.1,0.1,0.1,0.3,0.2,0.4l0.7,1.1c0.1,0.1,0.2,0.2,0.3,0.2h0c0.1,0,0.3,0,0.4,0.2l1,0.9c0.2,0.1,0.3,0.3,0.3,0.4l0.5,1
					c0,0.1,0,0.3,0,0.4l-0.1,0.6c0,0.2,0.1,0.3,0.1,0.4l0.2,0.1c0.1,0.1,0.3,0.2,0.4,0.3l0.4,0.2c0.1,0.1,0.2,0,0.3-0.1l0.1-0.5
					c0-0.1,0.1-0.3,0.1-0.4v-0.8v-1.3c0-0.1,0-0.3,0-0.4l0.8-2.1c0-0.1,0.2-0.3,0.2-0.4l0.7-0.8l0.2-0.2c0.1,0,0.2-0.2,0.3-0.3
					l1.2-1.9c0.2-0.3,0.1-0.4,0.2-0.7c0-0.1,0.1-0.4,0.2-0.5l0.6-1.8c0.1-0.3,0.6-3.3,0.8-4.6C790,509.1,790,509,790,508.8"/>
				<path style="clip-path:url(#SVGID_00000109748898017024206190000006516605040351888771_);fill:#00943C;" d="M655.3,542.3
					c3-2.7,4.6-4.7,4.6-6.3c0-1.1-0.6-1.9-1.7-1.9c-0.8,0-1.5,0.5-2,1.1l-0.9-0.9c0.9-0.9,1.8-1.5,3.1-1.5c1.9,0,3.1,1.2,3.1,3.1
					c0,2-1.6,4-3.7,6.1c0.5-0.1,1.2-0.1,1.7-0.1h2.6v1.4h-6.6V542.3z"/>
				<path style="clip-path:url(#SVGID_00000109748898017024206190000006516605040351888771_);fill:#00943C;" d="M669.5,538.1
					c0-3.5,1.3-5.3,3.3-5.3c2,0,3.3,1.7,3.3,5.3c0,3.6-1.3,5.3-3.3,5.3C670.8,543.4,669.5,541.6,669.5,538.1 M674.6,538.1
					c0-2.9-0.7-4-1.8-4c-1,0-1.8,1.1-1.8,4c0,3,0.7,4.1,1.8,4.1C673.9,542.2,674.6,541,674.6,538.1"/>
				<path style="clip-path:url(#SVGID_00000109748898017024206190000006516605040351888771_);fill:#00943C;" d="M683.7,542.3
					c3-2.7,4.6-4.7,4.6-6.3c0-1.1-0.6-1.9-1.7-1.9c-0.8,0-1.5,0.5-2,1.1l-0.9-0.9c0.9-0.9,1.8-1.5,3.1-1.5c1.9,0,3.1,1.2,3.1,3.1
					c0,2-1.6,4-3.7,6.1c0.5-0.1,1.2-0.1,1.7-0.1h2.6v1.4h-6.6V542.3z"/>
				<path style="clip-path:url(#SVGID_00000109748898017024206190000006516605040351888771_);fill:#00943C;" d="M697.6,542l0.8-1
					c0.6,0.6,1.4,1.1,2.4,1.1c1.2,0,1.9-0.6,1.9-1.7c0-1.1-0.7-1.9-3-1.9v-1.2c2,0,2.7-0.8,2.7-1.8c0-0.9-0.6-1.5-1.6-1.5
					c-0.8,0-1.5,0.4-2,1l-0.8-1c0.8-0.7,1.8-1.2,2.9-1.2c1.8,0,3.1,0.9,3.1,2.6c0,1.2-0.7,2-1.8,2.4v0.1c1.2,0.3,2.1,1.2,2.1,2.6
					c0,1.8-1.5,2.9-3.4,2.9C699.3,543.4,698.3,542.8,697.6,542"/>
				<path style="clip-path:url(#SVGID_00000109748898017024206190000006516605040351888771_);fill:#00943C;" d="M713.9,536.9v7.5
					h-1.3v-12.2h5.2v4.7H713.9z M713.9,534h2.7v-0.9h-2.7V534z M716.5,534.9h-2.7v1h2.7V534.9z M720.2,541.1v3h-1.2v-3h-1.7
					c-0.1,0.9-0.6,2.3-1.8,3.2c-0.2-0.2-0.6-0.6-0.8-0.8c1-0.6,1.4-1.7,1.5-2.4h-1.6V540h1.6v-1.3h-1.4v-1h6.7v1h-1.4v1.3h1.7v1.1
					H720.2z M719.1,538.7h-1.7v1.3h1.7V538.7z M724.1,542.8c0,0.7-0.1,1.1-0.6,1.3c-0.4,0.2-1.1,0.3-2.2,0.2c0-0.3-0.2-0.9-0.4-1.3
					c0.7,0,1.4,0,1.6,0c0.2,0,0.3-0.1,0.3-0.3v-5.8h-4v-4.8h5.3V542.8z M720.1,534h2.8v-0.9h-2.8V534z M722.8,534.9h-2.8v1h2.8
					V534.9z"/>
				<path style="clip-path:url(#SVGID_00000109748898017024206190000006516605040351888771_);fill:#00943C;" d="M734.3,537.8
					c-0.5-0.4-1.5-1-2.3-1.5l0.8-0.9c0.7,0.4,1.8,1,2.3,1.3L734.3,537.8z M735.3,539.7c-0.5,1.4-1.3,3.1-1.9,4.4l-1.2-0.7
					c0.6-1.1,1.4-2.9,2-4.4L735.3,539.7z M735,534.1c-0.5-0.4-1.5-1.1-2.3-1.5l0.8-0.9c0.7,0.4,1.8,1,2.3,1.4L735,534.1z
					 M737.4,536.1c0,2.4-0.2,5.9-1.9,8.2c-0.2-0.2-0.8-0.5-1.1-0.7c1.6-2.2,1.7-5.3,1.7-7.6v-3.8h8.5v1.2h-7.2V536.1z M739.6,540.7
					c-0.4,1-1.1,2.1-1.7,2.8c-0.2-0.2-0.7-0.5-1-0.6c0.6-0.7,1.2-1.6,1.6-2.5L739.6,540.7z M741.7,539.7v3.4c0,0.6-0.1,0.9-0.5,1.1
					c-0.4,0.2-1,0.2-1.9,0.2c0-0.3-0.2-0.8-0.3-1.1c0.6,0,1.2,0,1.3,0c0.2,0,0.2-0.1,0.2-0.2v-3.3h-2.4v-4.9h2
					c0.1-0.4,0.3-0.9,0.4-1.3l1.4,0.3c-0.2,0.4-0.4,0.7-0.5,1.1h2.9v4.9H741.7z M739.2,536.8h3.8v-1h-3.8V536.8z M739.2,538.8h3.8
					v-1h-3.8V538.8z M743.5,540.3c0.5,0.8,1.2,2,1.5,2.6l-1.2,0.5c-0.3-0.7-0.9-1.9-1.4-2.7L743.5,540.3z"/>
				<path style="clip-path:url(#SVGID_00000109748898017024206190000006516605040351888771_);fill:#00943C;" d="M759.2,531.6
					c0,0.5,0,1.3-0.1,2.1c0.2,1.7,1,7.3,5.9,9.4c-0.4,0.3-0.8,0.7-0.9,1.1c-3.3-1.5-4.8-4.6-5.5-7.1c-0.7,2.6-2.2,5.4-5.3,7.2
					c-0.2-0.3-0.6-0.8-1.1-1c5.7-2.9,5.5-9.4,5.6-11.7H759.2z"/>
				<path style="clip-path:url(#SVGID_00000109748898017024206190000006516605040351888771_);fill:#00943C;" d="M785,541.3h-4.9v3.1
					h-1.3v-3.1h-6.3V540h2.2v-3.7h4.1v-1.9h-3.2c-0.6,1-1.3,1.9-2,2.6c-0.2-0.2-0.8-0.6-1.1-0.8c1.3-1.1,2.4-2.9,3-4.7l1.3,0.3
					c-0.2,0.4-0.4,0.9-0.5,1.3h8.1v1.3h-4.2v1.9h3.9v1.2h-3.9v2.5h4.9V541.3z M778.8,537.6H776v2.5h2.8V537.6z"/>
				<path style="clip-path:url(#SVGID_00000109748898017024206190000006516605040351888771_);fill:#00943C;" d="M799.8,531.9
					c-0.1,0.1-0.1,0.2-0.2,0.3c1.3,1.2,3.6,2.3,5.8,2.7c-0.3,0.2-0.6,0.7-0.8,1c-0.3-0.1-0.7-0.2-1-0.3v3.6h-9.4v-3.5
					c-0.3,0.1-0.7,0.2-1,0.3c-0.1-0.2-0.5-0.8-0.7-1c2.5-0.6,5-1.8,6.2-3.5L799.8,531.9z M803.5,535.5c-0.7-0.3-1.5-0.6-2.2-1v0.4
					h-4.8v-0.3c-0.6,0.4-1.3,0.7-2,0.9H803.5z M794.9,539.7h7.9v4.6h-1.3v-0.4h-5.3v0.4h-1.3V539.7z M796.8,536.5
					c0.3,0.5,0.6,1.1,0.7,1.5l-0.9,0.3h1.6v-1.9h-3v1.9h1.3c-0.1-0.4-0.4-1.1-0.7-1.6L796.8,536.5z M796.2,541.4h5.3v-0.8h-5.3
					V541.4z M801.5,542.2h-5.3v0.8h5.3V542.2z M800.4,534.1c-0.6-0.3-1.1-0.8-1.5-1.2c-0.4,0.4-1,0.8-1.5,1.2H800.4z M802.4,536.4
					h-3.1v1.9h1.6L800,538c0.3-0.4,0.5-1.2,0.7-1.6l1.1,0.3c-0.3,0.6-0.6,1.2-0.9,1.6h1.5V536.4z"/>
				<path style="clip-path:url(#SVGID_00000109748898017024206190000006516605040351888771_);fill:#00943C;" d="M660.3,552.8h-4.8
					v-2.2h7.7v1.6c-2.6,3.1-2.9,5.2-3.1,9.6h-2.7C657.6,558.1,658.2,555.7,660.3,552.8"/>
				<polygon style="clip-path:url(#SVGID_00000109748898017024206190000006516605040351888771_);fill:#00943C;" points="
					670.8,549.6 672.5,549.6 669.2,564.5 667.5,564.5 				"/>
				<path style="clip-path:url(#SVGID_00000109748898017024206190000006516605040351888771_);fill:#00943C;" d="M677,560.3
					c2.8-2.5,4.7-4.6,4.7-6.2c0-1-0.6-1.6-1.5-1.6c-0.8,0-1.4,0.5-1.9,1.1l-1.5-1.4c1.1-1.2,2.1-1.7,3.7-1.7c2.2,0,3.7,1.4,3.7,3.5
					c0,1.9-1.7,4.1-3.4,5.8c0.6-0.1,1.3-0.1,1.8-0.1h2.1v2.3H677V560.3z"/>
				<path style="clip-path:url(#SVGID_00000109748898017024206190000006516605040351888771_);fill:#00943C;" d="M691,559.1
					c0.4,0.4,1.1,0.8,1.7,0.8c1.1,0,2.1-0.8,2.2-3.3c-0.5,0.7-1.5,1.1-2.1,1.1c-1.9,0-3.3-1.1-3.3-3.5c0-2.4,1.7-3.8,3.7-3.8
					c2.1,0,4.2,1.6,4.2,5.7c0,4.1-2.1,6-4.4,6c-1.5,0-2.6-0.6-3.3-1.3L691,559.1z M694.8,554.8c-0.2-1.9-0.9-2.4-1.6-2.4
					c-0.7,0-1.3,0.5-1.3,1.8c0,1.2,0.6,1.6,1.4,1.6C693.8,555.8,694.4,555.5,694.8,554.8"/>
				
					<rect x="702.2" y="556.5" style="clip-path:url(#SVGID_00000109748898017024206190000006516605040351888771_);fill:#00943C;" width="4.3" height="1.9"/>
				<path style="clip-path:url(#SVGID_00000109748898017024206190000006516605040351888771_);fill:#00943C;" d="M710.9,560.4
					l1.2-1.7c0.7,0.6,1.5,1.1,2.3,1.1c1,0,1.7-0.4,1.7-1.3c0-1-0.5-1.5-2.9-1.5v-1.9c1.9,0,2.5-0.6,2.5-1.5c0-0.8-0.5-1.2-1.3-1.2
					c-0.8,0-1.3,0.3-2,0.9l-1.4-1.6c1-0.9,2.2-1.4,3.5-1.4c2.3,0,3.8,1.1,3.8,3.1c0,1.1-0.6,2-1.8,2.5v0.1c1.3,0.4,2.2,1.3,2.2,2.7
					c0,2.1-1.9,3.3-4.1,3.3C712.9,562,711.7,561.4,710.9,560.4"/>
				<path style="clip-path:url(#SVGID_00000109748898017024206190000006516605040351888771_);fill:#00943C;" d="M723.6,556.1
					c0-3.9,1.6-5.8,4-5.8c2.4,0,4,1.9,4,5.8c0,3.9-1.6,5.9-4,5.9C725.2,562,723.6,560,723.6,556.1 M729,556.1c0-3.1-0.6-3.7-1.4-3.7
					c-0.8,0-1.4,0.6-1.4,3.7c0,3.1,0.6,3.8,1.4,3.8C728.4,559.9,729,559.2,729,556.1"/>
				<path style="clip-path:url(#SVGID_00000109748898017024206190000006516605040351888771_);fill:#00943C;" d="M736,556.8
					c0-4.9,3.6-8.1,7.9-8.1c3.8,0,6.2,2.6,6.2,6.2c0,3.2-2.2,4.8-4,4.8c-1,0-1.8-0.5-2-1.3h0c-0.5,0.7-1.4,1.2-2.1,1.2
					c-1.4,0-2.3-1-2.3-2.6c0-2.1,1.5-4.3,3.5-4.3c0.6,0,1,0.3,1.3,0.9h0l0.3-0.7h1.6l-0.8,3.9c-0.2,1,0,1.4,0.8,1.4
					c1.1,0,2-1.2,2-3.1c0-2.5-1.3-4.7-4.7-4.7c-3,0-5.9,2.5-5.9,6.4c0,3.4,2.4,5,5.1,5c0.9,0,1.9-0.3,2.6-0.7l0.6,1.5
					c-1.1,0.6-2.2,0.8-3.4,0.8C739.2,563.4,736,561.3,736,556.8 M743.6,557.1l0.4-2.3c-0.2-0.3-0.4-0.5-0.8-0.5
					c-1,0-1.6,1.4-1.6,2.4c0,0.7,0.3,1.1,0.9,1.1C742.9,557.9,743.2,557.7,743.6,557.1"/>
				<path style="clip-path:url(#SVGID_00000109748898017024206190000006516605040351888771_);fill:#00943C;" d="M768.2,549.6v1.3
					h-5.7v0.3h4.4v1.2H756v-1.2h4.3v-0.3h-5.5v-1.3h5.5v-0.7h2.2v0.7H768.2z M754.8,555.4h13.3v2.3h-1.9v0.4h-0.7
					c0.5,0.3,1.1,0.7,1.4,1l-1,0.8h0.8v1.2h-4.3v0.3h5.6v1.4h-13.2v-1.4h5.4v-0.3h-3.9V560h3.9v-0.3c-2.4,0.1-2.8,0.1-3.2,0.2
					c-0.1-0.3-0.3-1-0.4-1.3c0.2,0,0.5-0.1,0.8-0.2c0.1,0,0.4-0.1,0.7-0.3h-1.7v-0.4h-1.6V555.4z M766.6,555.1h-10.1v-2.4h10.1
					V555.1z M756.8,557h9.3v-0.3h-9.3V557z M764.4,553.8h-5.9v0.3h5.9V553.8z M763.3,558.5c-0.2-0.1-0.4-0.2-0.6-0.3l0,0h-2.2
					c-0.2,0.1-0.5,0.3-0.7,0.4L763.3,558.5z M765.4,560c-0.1-0.1-0.3-0.2-0.5-0.4l-2.4,0.1v0.3H765.4z"/>
				<path style="clip-path:url(#SVGID_00000109748898017024206190000006516605040351888771_);fill:#00943C;" d="M777.6,558.9
					c-0.2-0.3-0.4-0.8-0.6-1.2v5.6h-2.1v-4.7c-0.4,0.9-0.8,1.7-1.3,2.4c-0.2-0.6-0.7-1.6-1-2.1c0.8-0.9,1.5-2.4,2-3.7h-1.9v-2h2.1
					v-1.4c-0.5,0.1-1,0.2-1.5,0.2c-0.1-0.5-0.3-1.2-0.6-1.7c1.7-0.3,3.6-0.7,4.9-1.2l1.2,1.8c-0.6,0.2-1.3,0.4-1.9,0.5v1.8h1.9v2
					H777v0c0.4,0.3,1.6,1.6,1.9,2L777.6,558.9z M785.4,559.5v3.7h-2.2v-3.3l-4.4,0.8l-0.3-2.1l4.7-0.8v-8.8h2.2v8.5l1.4-0.2l0.3,2.1
					L785.4,559.5z M780.3,553.7c0.8,0.6,1.9,1.6,2.4,2.2l-1.5,1.4c-0.4-0.7-1.4-1.7-2.3-2.4L780.3,553.7z M781.5,553.3
					c-0.4-0.7-1.4-1.7-2.2-2.4l1.4-1.2c0.8,0.6,1.8,1.6,2.3,2.2L781.5,553.3z"/>
				<path style="clip-path:url(#SVGID_00000109748898017024206190000006516605040351888771_);fill:#00943C;" d="M799.9,555.1
					c1,2.7,2.7,4.9,5.5,6c-0.5,0.5-1.3,1.4-1.6,2.1c-2.7-1.2-4.3-3.2-5.5-5.9c-0.9,2.3-2.5,4.4-5.4,5.9c-0.3-0.6-1-1.4-1.7-1.9
					c3.3-1.5,4.7-3.8,5.3-6.2h-5v-2.3h5.4c0.1-1.3,0.1-2.7,0.1-3.9h2.4c0,1.2,0,2.6-0.1,3.9h5.8v2.3H799.9z"/>
			</g>
		</g>
	</g>
</g>
<g id="輸出佈置" class="st100">
	<g class="st102">
		<text transform="matrix(1 0 0 1 402.4421 195.9297)" class="st103 st104 st105">徵才看板B</text>
	</g>
	<text transform="matrix(1 0 0 1 505.6244 254.0879)" class="st106 st104 st105">樓層議程告知</text>
	<text transform="matrix(1 0 0 1 182.2787 288.4453)" class="st106 st104 st105">樓層議程告知</text>
	<text transform="matrix(1 0 0 1 315.3367 196.7559)" class="st106 st104 st105">社群交流看板</text>
	<line class="st101" x1="319.4" y1="180.5" x2="375.6" y2="180.5"/>
	<line class="st101" x1="400.1" y1="180.5" x2="456.3" y2="180.5"/>
	<line class="st101" x1="482.2" y1="178.6" x2="538.4" y2="178.6"/>
	<text transform="matrix(1 0 0 1 502.2487 192.752)" class="st102"><tspan x="0" y="0" class="st103 st104 st105">6樓</tspan><tspan x="-25.6" y="12.3" class="st103 st104 st105">議程看板+地圖</tspan></text>
	<text transform="matrix(1 0 0 1 695.0809 523.2377)" class="st102 st104 st108">A.贊助商海報</text>
	<g class="st102">
		<text transform="matrix(1 0 0 1 695.0809 538.7875)" class="st104 st108">B.主視覺海報</text>
	</g>
	<g class="st102">
		<text transform="matrix(1 0 0 1 695.0809 554.3373)" class="st104 st108">C.講桌前背板(上方)</text>
	</g>
	<g class="st102">
		<text transform="matrix(1 0 0 1 695.0809 571.0164)" class="st104 st108">D.門口的議程軌布告欄</text>
	</g>
	<g class="st102">
		<text transform="matrix(1 0 0 1 779.588 557.6061)" class="st104 st109">8間</text>
	</g>
	<text transform="matrix(1 0 0 1 679.4445 515.0124)" class="st102 st104 st110">議程教室</text>
	<polygon class="st107" points="664,510 664,541.6 584.9,541.6 584.9,534.9 578.6,534.9 578.6,510 	"/>
	<rect x="564.7" y="534.9" class="st107" width="20.2" height="28"/>
	<rect x="561.1" y="513.9" class="st107" width="13.7" height="19.3"/>
	<rect x="646.2" y="513.9" class="st107" width="13.7" height="19.3"/>
	<g class="st102">
		<text transform="matrix(1 0 0 1 650.1915 527.0241)" class="st104 st108">A</text>
	</g>
	<g class="st102">
		<text transform="matrix(1 0 0 1 564.1154 526.5568)" class="st104 st108">B</text>
	</g>
	<g class="st102">
		<text transform="matrix(1 0 0 1 571.3087 552.34)" class="st104 st108">C</text>
	</g>
	<line class="st101" x1="178.4" y1="257.4" x2="178.4" y2="234.4"/>
	<line class="st101" x1="588.1" y1="257.8" x2="588.1" y2="234.7"/>
	<rect x="25.3" class="st102" width="55.4" height="78.4"/>
</g>
</svg>
