<?xml version="1.0" encoding="utf-8"?>
<!-- Generator: Adobe Illustrator 27.3.1, SVG Export Plug-In . SVG Version: 6.00 Build 0)  -->
<svg version="1.1" xmlns="http://www.w3.org/2000/svg" xmlns:xlink="http://www.w3.org/1999/xlink" x="0px" y="0px"
	 viewBox="0 0 841.9 595.3" style="enable-background:new 0 0 841.9 595.3;" xml:space="preserve">
<style type="text/css">
	.st0{fill:#3B9838;}
	.st1{fill:none;stroke:#FFFFFF;stroke-width:2;stroke-linecap:round;stroke-linejoin:bevel;}
	.st2{opacity:0.73;}
	.st3{fill:#A0A0A0;stroke:#FFFFFF;stroke-width:2;stroke-linecap:round;stroke-linejoin:bevel;}
	.st4{fill:none;stroke:#B3B3B3;stroke-width:4.4344;stroke-linecap:round;stroke-miterlimit:10;}
	.st5{fill:#E6E6E6;}
	.st6{fill:#FFFEFF;}
	.st7{fill:#B3B3B3;}
	.st8{fill:none;stroke:#B3B3B3;stroke-width:4.4344;stroke-miterlimit:10;}
	.st9{fill:none;stroke:#FFFEFF;stroke-width:3;stroke-miterlimit:10;}
	.st10{fill:#12344C;}
	.st11{fill:#E98025;}
	.st12{fill:#808080;}
	.st13{fill:#FFE9BA;}
	.st14{fill:#3E3D4D;}
	.st15{fill:#BCC4C6;}
	.st16{fill:#D24635;}
	.st17{fill:#FCF3EE;}
	.st18{fill:#E8C72E;}
	.st19{fill:#E0A911;}
	.st20{fill:#0071BC;}
	.st21{opacity:0.2;fill:none;stroke:#70931B;stroke-width:2;stroke-miterlimit:10;stroke-dasharray:4,4;}
	.st22{opacity:0.2;fill:none;stroke:#70931B;stroke-width:1.78;stroke-miterlimit:10;stroke-dasharray:3.56,3.56;}
	.st23{clip-path:url(#SVGID_00000112627107116033734910000005661732946341232037_);}
	.st24{clip-path:url(#SVGID_00000177483599775283984620000016241026856545099912_);fill:#00943C;}
	.st25{clip-path:url(#SVGID_00000091700356826405084590000005274306064273813437_);}
	.st26{clip-path:url(#SVGID_00000156577554703217708580000013782244831076492961_);fill:#00943C;}
	.st27{clip-path:url(#SVGID_00000122700810220677701140000012627876167583848891_);}
	.st28{clip-path:url(#SVGID_00000080208537000354367070000015529888688528370839_);fill:#00943C;}
	.st29{clip-path:url(#SVGID_00000165912722882208988850000000020437150362921627_);}
	.st30{clip-path:url(#SVGID_00000140729618359165770100000009614711884047072436_);fill:#00943C;}
	.st31{clip-path:url(#SVGID_00000086663071014557401700000014973752885648102050_);}
	.st32{clip-path:url(#SVGID_00000093866870027826494580000005917676851119662466_);fill:#00943C;}
	.st33{clip-path:url(#SVGID_00000014614176658753222930000016981589417886369412_);}
	.st34{clip-path:url(#SVGID_00000082327440216938390760000009151390597214003881_);fill:#00943C;}
	.st35{clip-path:url(#SVGID_00000039126274903599218280000009912792007345467321_);}
	.st36{clip-path:url(#SVGID_00000116920380243395594990000001260896224159993771_);fill:#00943C;}
	.st37{clip-path:url(#SVGID_00000065072552183486761340000007882088394541652923_);}
	.st38{clip-path:url(#SVGID_00000094618193409716621630000005669281549594656948_);fill:#00943C;}
	.st39{opacity:0.1;fill:#70931B;}
	.st40{fill:none;stroke:#FFFEFF;stroke-miterlimit:10;}
	.st41{fill:#FFFFFF;}
	.st42{fill:none;stroke:#FFFFFF;stroke-width:1.8113;}
	.st43{fill:#C1272D;}
	.st44{fill:#30AF00;}
	.st45{fill:#0076CB;}
	.st46{fill:#008061;}
	.st47{fill:#F5821F;}
	.st48{fill:#ED1B2D;}
	.st49{fill:#FF0000;}
	.st50{opacity:0.5;fill:url(#SVGID_00000072258462559641902900000017923760685397753248_);}
	.st51{opacity:0.5;fill:url(#SVGID_00000002375777244336206890000001094299501406956446_);}
	.st52{opacity:0.8;}
	.st53{fill-rule:evenodd;clip-rule:evenodd;fill:#D5E7D0;}
	.st54{fill:none;stroke:#040000;stroke-width:0.75;stroke-linejoin:round;stroke-miterlimit:8;}
	.st55{opacity:0;fill-rule:evenodd;clip-rule:evenodd;fill:#040000;}
	.st56{fill:#040000;}
	.st57{fill-rule:evenodd;clip-rule:evenodd;fill:#8FCFC9;}
	.st58{fill-rule:evenodd;clip-rule:evenodd;fill:#F2EA32;}
	.st59{fill-rule:evenodd;clip-rule:evenodd;fill:#040000;}
	.st60{fill-rule:evenodd;clip-rule:evenodd;fill:#FFFFFF;}
	.st61{opacity:0;fill-rule:evenodd;clip-rule:evenodd;}
	.st62{fill:none;stroke:#000000;stroke-width:0.75;stroke-linejoin:round;stroke-miterlimit:8;}
	.st63{fill-rule:evenodd;clip-rule:evenodd;fill:#D9EAD3;}
	.st64{opacity:0;fill-rule:evenodd;clip-rule:evenodd;stroke:#000000;stroke-width:0.75;stroke-miterlimit:10;}
	.st65{fill-rule:evenodd;clip-rule:evenodd;fill:#FCFCFC;stroke:#000000;stroke-width:0.75;stroke-miterlimit:10;}
	.st66{fill:none;stroke:#000000;stroke-width:0.5;stroke-linejoin:round;stroke-miterlimit:8;}
	.st67{fill-rule:evenodd;clip-rule:evenodd;fill:none;stroke:#000000;stroke-width:0.5;stroke-linejoin:round;stroke-miterlimit:8;}
	.st68{fill-rule:evenodd;clip-rule:evenodd;fill:#FFFFFF;stroke:#000000;stroke-width:0.5;stroke-miterlimit:10;}
	.st69{fill-rule:evenodd;clip-rule:evenodd;fill:#D5E7D0;stroke:#000000;stroke-width:0.5;stroke-miterlimit:10;}
	.st70{fill-rule:evenodd;clip-rule:evenodd;fill:#F2EA32;stroke:#000000;stroke-width:0.5;stroke-miterlimit:10;}
	.st71{opacity:0;fill-rule:evenodd;clip-rule:evenodd;fill:#040000;stroke:#000000;stroke-width:0.5;stroke-miterlimit:10;}
	.st72{fill:#D5E7D0;stroke:#000000;stroke-width:0.5;stroke-miterlimit:10;}
	.st73{fill-rule:evenodd;clip-rule:evenodd;fill:#FCFDFD;stroke:#000000;stroke-width:0.5;stroke-miterlimit:10;}
	
		.st74{fill-rule:evenodd;clip-rule:evenodd;fill:none;stroke:#040000;stroke-width:0.75;stroke-linejoin:round;stroke-miterlimit:8;}
	
		.st75{opacity:0;fill-rule:evenodd;clip-rule:evenodd;fill:none;stroke:#040000;stroke-width:0.75;stroke-linejoin:round;stroke-miterlimit:8;}
	.st76{fill:#D5E7D0;stroke:#040000;stroke-width:0.75;stroke-miterlimit:10;}
	.st77{opacity:0;fill-rule:evenodd;clip-rule:evenodd;fill:#040000;stroke:#040000;stroke-width:0.75;stroke-miterlimit:10;}
	.st78{fill-rule:evenodd;clip-rule:evenodd;fill:#FFFFFF;stroke:#040000;stroke-width:0.75;stroke-miterlimit:10;}
	.st79{fill-rule:evenodd;clip-rule:evenodd;fill:#FCFDFD;}
	.st80{fill-rule:evenodd;clip-rule:evenodd;fill:#D5E7D0;stroke:#040000;stroke-width:0.75;stroke-miterlimit:10;}
	.st81{fill-rule:evenodd;clip-rule:evenodd;fill:#FCFDFD;stroke:#040000;stroke-width:0.75;stroke-miterlimit:10;}
	.st82{font-family:'MicrosoftJhengHeiBold';}
	.st83{font-size:9.0131px;}
	.st84{font-size:9.008px;}
	.st85{font-family:'MicrosoftJhengHeiRegular';}
	.st86{font-size:7.5067px;}
	.st87{fill:#3B9138;}
	.st88{font-size:20.9812px;}
	.st89{font-size:16.8181px;}
	.st90{fill:#6B6B6B;}
	.st91{font-size:12.3034px;}
	.st92{font-size:9.0719px;}
	.st93{clip-path:url(#SVGID_00000071523739873014455970000006794823104087103148_);}
	.st94{clip-path:url(#SVGID_00000048492634852067044010000001250365331328111757_);fill:#00943C;}
	.st95{clip-path:url(#SVGID_00000036230576097544544570000005872498070606421173_);}
	.st96{clip-path:url(#SVGID_00000052106608126137913780000007131930299740660920_);fill:#00943C;}
	.st97{clip-path:url(#SVGID_00000131341548232291253110000015814627560301366671_);}
	.st98{clip-path:url(#SVGID_00000002345563395632518380000000387504843719418547_);fill:#00943C;}
	.st99{display:none;}
	.st100{display:inline;fill:none;stroke:#F90000;stroke-width:8;stroke-miterlimit:10;}
	.st101{display:inline;}
	.st102{display:inline;fill:none;stroke:#000000;stroke-miterlimit:10;}
	.st103{display:inline;fill:#F90000;}
	.st104{display:inline;fill:none;stroke:#F90000;stroke-width:3;stroke-miterlimit:10;}
	.st105{display:inline;fill:none;stroke:#232323;stroke-miterlimit:10;}
	.st106{display:inline;fill:none;stroke:#F90000;stroke-miterlimit:10;}
	.st107{display:inline;fill:none;stroke:#B3B3B3;stroke-width:4.4344;stroke-linecap:round;stroke-miterlimit:10;}
	.st108{display:inline;fill:#E6E6E6;}
	.st109{display:inline;fill:#FFFEFF;}
	.st110{display:inline;fill:#B3B3B3;}
	.st111{display:inline;fill:none;stroke:#B3B3B3;stroke-width:4.4344;stroke-miterlimit:10;}
	.st112{display:inline;opacity:0.2;fill:none;stroke:#70931B;stroke-width:2;stroke-miterlimit:10;stroke-dasharray:4,4;}
</style>
<g id="建築">
</g>
<g id="標示">
</g>
<g id="樓層位置">
	<rect x="554.4" y="377.3" class="st74" width="45.9" height="15.3"/>
	<rect x="642.5" y="276" class="st53" width="15.3" height="45.9"/>
	<rect x="642.5" y="276" class="st54" width="15.3" height="45.9"/>
	<rect x="554.1" y="202.2" class="st53" width="45.9" height="15.3"/>
	<rect x="488" y="224.7" class="st53" width="15.3" height="45.9"/>
	<rect x="488" y="303" class="st53" width="15.3" height="45.9"/>
	<g>
		<rect x="473" y="180.7" class="st54" width="209.4" height="229.5"/>
		<path class="st75" d="M653.3,410.2L653.3,410.2c0-6.8,2.7-13.2,7.5-18c4.8-4.8,11.3-7.5,18-7.5v25.5H653.3z"/>
		<path class="st75" d="M653.3,410.2L653.3,410.2c0-6.8,2.7-13.2,7.5-18c4.8-4.8,11.3-7.5,18-7.5"/>
		<path class="st54" d="M653.3,410.2L653.3,410.2c0-6.8,2.7-13.2,7.5-18c4.8-4.8,11.3-7.5,18-7.5"/>
		<line class="st75" x1="678.8" y1="410.2" x2="678.8" y2="384.7"/>
		<line class="st54" x1="678.8" y1="410.2" x2="678.8" y2="384.7"/>
		<rect x="675.2" y="232.4" class="st74" width="7.2" height="126.2"/>
		<rect x="675.2" y="232.4" class="st54" width="7.2" height="126.2"/>
		<path class="st75" d="M477.2,384.7L477.2,384.7c6.8,0,13.2,2.7,18,7.5c4.8,4.8,7.5,11.3,7.5,18h-25.5V384.7z"/>
		<path class="st75" d="M477.2,384.7L477.2,384.7c6.8,0,13.2,2.7,18,7.5c4.8,4.8,7.5,11.3,7.5,18"/>
		<path class="st54" d="M477.2,384.7L477.2,384.7c6.8,0,13.2,2.7,18,7.5c4.8,4.8,7.5,11.3,7.5,18"/>
		<line class="st75" x1="477.2" y1="384.7" x2="477.2" y2="410.2"/>
		<line class="st54" x1="477.2" y1="384.7" x2="477.2" y2="410.2"/>
		<rect x="554.4" y="377.3" class="st76" width="45.9" height="15.3"/>
		<rect x="554.1" y="202.2" class="st54" width="45.9" height="15.3"/>
		<rect x="488" y="224.7" class="st54" width="15.3" height="45.9"/>
		<rect x="488" y="303" class="st54" width="15.3" height="45.9"/>
		<rect x="558.5" y="283.4" class="st74" width="15.3" height="45.9"/>
		<rect x="558.5" y="283.4" class="st54" width="15.3" height="45.9"/>
		<rect x="573.8" y="283.4" class="st74" width="15.3" height="45.9"/>
		<rect x="573.8" y="283.4" class="st54" width="15.3" height="45.9"/>
	</g>
	<rect x="149.9" y="178.8" class="st54" width="211" height="231.3"/>
	<path class="st55" d="M331.5,410.1L331.5,410.1c0-6.8,2.7-13.4,7.5-18.2c4.8-4.8,11.4-7.5,18.2-7.5v25.7H331.5z"/>
	<path class="st77" d="M331.5,410.1L331.5,410.1c0-6.8,2.7-13.4,7.5-18.2c4.8-4.8,11.4-7.5,18.2-7.5"/>
	<path class="st54" d="M331.5,410.1L331.5,410.1c0-6.8,2.7-13.4,7.5-18.2c4.8-4.8,11.4-7.5,18.2-7.5"/>
	<line class="st77" x1="357.2" y1="410.1" x2="357.2" y2="384.4"/>
	<line class="st54" x1="357.2" y1="410.1" x2="357.2" y2="384.4"/>
	<rect x="353.6" y="230.8" class="st78" width="7.3" height="127.2"/>
	<rect x="353.6" y="230.8" class="st54" width="7.3" height="127.2"/>
	<path class="st55" d="M154.1,384.4L154.1,384.4c6.8,0,13.4,2.7,18.2,7.5c4.8,4.8,7.5,11.4,7.5,18.2h-25.7V384.4z"/>
	<path class="st77" d="M154.1,384.4L154.1,384.4c6.8,0,13.4,2.7,18.2,7.5c4.8,4.8,7.5,11.4,7.5,18.2"/>
	<path class="st54" d="M154.1,384.4L154.1,384.4c6.8,0,13.4,2.7,18.2,7.5c4.8,4.8,7.5,11.4,7.5,18.2"/>
	<line class="st77" x1="154.1" y1="384.4" x2="154.1" y2="410.1"/>
	<line class="st54" x1="154.1" y1="384.4" x2="154.1" y2="410.1"/>
	<rect x="321.3" y="195.9" class="st79" width="18.2" height="21.3"/>
	<rect x="321.3" y="195.9" class="st54" width="18.2" height="21.3"/>
	<rect x="232.2" y="377.1" class="st53" width="46.2" height="15.4"/>
	<rect x="231.8" y="376.9" class="st54" width="46.2" height="15.4"/>
	<rect x="320.6" y="275.1" class="st80" width="15.4" height="46.2"/>
	<rect x="231.9" y="200.4" class="st53" width="46.2" height="15.4"/>
	<rect x="231.6" y="200.4" class="st54" width="46.2" height="15.4"/>
	<rect x="164.9" y="223.1" class="st53" width="15.4" height="46.2"/>
	<rect x="164.9" y="223.1" class="st54" width="15.4" height="46.2"/>
	<rect x="164.9" y="302" class="st53" width="15.4" height="46.2"/>
	<rect x="164.9" y="302" class="st54" width="15.4" height="46.2"/>
	<rect x="236" y="282.2" class="st81" width="15.4" height="46.2"/>
	<rect x="236" y="282.2" class="st54" width="15.4" height="46.2"/>
	<rect x="251.3" y="282.2" class="st81" width="15.4" height="46.2"/>
	<rect x="251.3" y="282.2" class="st54" width="15.4" height="46.2"/>
	<g>
		<text transform="matrix(1 0 0 1 489.8997 329.6814)" class="st56 st82 st83">C1</text>
	</g>
	<g>
		<text transform="matrix(1 0 0 1 489.8997 250.8269)" class="st56 st82 st83">C2</text>
	</g>
	<g>
		<text transform="matrix(1 0 0 1 571.6038 213.1873)" class="st56 st82 st83">C3</text>
	</g>
	<g>
		<text transform="matrix(1 0 0 1 571.9827 388.2976)" class="st56 st82 st83">C5</text>
	</g>
	<g>
		<text transform="matrix(1 0 0 1 644.4114 304.5135)" class="st56 st82 st83">C4</text>
	</g>
	<g>
		<text transform="matrix(1 0 0 1 166.9308 327.955)" class="st56 st82 st84">C1</text>
	</g>
	<g>
		<text transform="matrix(1 0 0 1 166.9308 249.0263)" class="st56 st82 st84">C2</text>
	</g>
	<g>
		<text transform="matrix(1 0 0 1 249.3156 210.955)" class="st56 st82 st84">C3</text>
	</g>
	<g>
		<text transform="matrix(1 0 0 1 249.6467 387.6904)" class="st56 st82 st84">C5</text>
	</g>
	<g>
		<text transform="matrix(1 0 0 1 322.633 301.0761)" class="st56 st82 st84">C4</text>
	</g>
	<text transform="matrix(1 0 0 1 323.0832 209.6523)" class="st56 st85 st86">講桌</text>
	<g>
		<text transform="matrix(0.8749 0 0 1 149.8674 113.5087)" class="st87 st82 st88">613</text>
	</g>
	<g>
		<text transform="matrix(1 0 0 1 149.8654 157.246)" class="st56 st82 st89">社群/贊助攤位</text>
	</g>
	<g>
		<g>
			<g>
				<path class="st56" d="M155.8,171.1c-0.3,0.2-1,0.4-1.9,0.4c-2.1,0-3.6-1.3-3.6-3.7c0-2.3,1.6-3.9,3.8-3.9c0.9,0,1.5,0.2,1.8,0.3
					l-0.2,0.8c-0.4-0.2-0.9-0.3-1.5-0.3c-1.7,0-2.9,1.1-2.9,3c0,1.8,1,3,2.8,3c0.6,0,1.2-0.1,1.6-0.3L155.8,171.1z"/>
				<path class="st56" d="M161.8,168.7c0,2-1.4,2.8-2.6,2.8c-1.4,0-2.5-1-2.5-2.7c0-1.8,1.2-2.8,2.6-2.8
					C160.8,166,161.8,167.1,161.8,168.7z M157.6,168.7c0,1.2,0.7,2,1.6,2c0.9,0,1.6-0.9,1.6-2.1c0-0.9-0.5-2-1.6-2
					C158.1,166.7,157.6,167.7,157.6,168.7z"/>
				<path class="st56" d="M163,167.5c0-0.6,0-1,0-1.4h0.8l0.1,0.9h0c0.3-0.5,0.8-1,1.7-1c0.7,0,1.3,0.4,1.5,1.1h0
					c0.2-0.3,0.4-0.5,0.6-0.7c0.3-0.2,0.7-0.4,1.2-0.4c0.7,0,1.7,0.5,1.7,2.3v3.1h-0.9v-3c0-1-0.4-1.6-1.1-1.6c-0.6,0-1,0.4-1.1,0.9
					c0,0.1-0.1,0.3-0.1,0.5v3.3h-0.9v-3.2c0-0.8-0.4-1.4-1.1-1.4c-0.6,0-1,0.5-1.2,1c0,0.1-0.1,0.3-0.1,0.5v3.2H163V167.5z"/>
				<path class="st56" d="M172.1,167.5c0-0.6,0-1,0-1.4h0.8l0.1,0.9h0c0.3-0.5,0.8-1,1.7-1c0.7,0,1.3,0.4,1.5,1.1h0
					c0.2-0.3,0.4-0.5,0.6-0.7c0.3-0.2,0.7-0.4,1.2-0.4c0.7,0,1.7,0.5,1.7,2.3v3.1h-0.9v-3c0-1-0.4-1.6-1.1-1.6c-0.6,0-1,0.4-1.1,0.9
					c0,0.1-0.1,0.3-0.1,0.5v3.3h-0.9v-3.2c0-0.8-0.4-1.4-1.1-1.4c-0.6,0-1,0.5-1.2,1c0,0.1-0.1,0.3-0.1,0.5v3.2h-0.9V167.5z"/>
				<path class="st56" d="M185.7,169.9c0,0.6,0,1,0,1.4h-0.9l-0.1-0.9h0c-0.2,0.4-0.8,1-1.8,1c-0.8,0-1.8-0.5-1.8-2.3v-3.1h1v2.9
					c0,1,0.3,1.7,1.2,1.7c0.6,0,1.1-0.5,1.3-0.9c0-0.1,0.1-0.3,0.1-0.5v-3.2h1V169.9z"/>
				<path class="st56" d="M187.3,167.5c0-0.6,0-1,0-1.4h0.8l0.1,0.9h0c0.3-0.5,0.9-1,1.8-1c0.7,0,1.9,0.4,1.9,2.3v3.2h-1v-3.1
					c0-0.9-0.3-1.6-1.2-1.6c-0.6,0-1.1,0.4-1.3,1c0,0.1-0.1,0.3-0.1,0.4v3.2h-1V167.5z"/>
				<path class="st56" d="M194.4,164.6c0,0.3-0.2,0.6-0.6,0.6c-0.3,0-0.6-0.3-0.6-0.6c0-0.3,0.2-0.6,0.6-0.6
					C194.2,164,194.4,164.3,194.4,164.6z M193.4,171.4v-5.3h1v5.3H193.4z"/>
				<path class="st56" d="M197.1,164.6v1.5h1.4v0.7h-1.4v2.9c0,0.7,0.2,1,0.7,1c0.2,0,0.4,0,0.6-0.1l0,0.7c-0.2,0.1-0.5,0.1-0.9,0.1
					c-0.4,0-0.8-0.1-1-0.4c-0.3-0.3-0.4-0.8-0.4-1.4v-2.9h-0.8v-0.7h0.8v-1.3L197.1,164.6z"/>
				<path class="st56" d="M199.9,166.1l1.2,3.1c0.1,0.4,0.3,0.8,0.3,1.1h0c0.1-0.3,0.2-0.7,0.3-1.1l1-3.1h1l-1.4,3.8
					c-0.7,1.8-1.2,2.7-1.8,3.3c-0.5,0.4-0.9,0.6-1.2,0.6l-0.2-0.8c0.2-0.1,0.6-0.2,0.8-0.5c0.3-0.2,0.6-0.6,0.8-1.1
					c0-0.1,0.1-0.2,0.1-0.2c0-0.1,0-0.1-0.1-0.2l-2-4.9H199.9z"/>
				<path class="st56" d="M209.9,171.4l-0.1-0.7h0c-0.3,0.4-0.9,0.8-1.6,0.8c-1.1,0-1.6-0.8-1.6-1.5c0-1.3,1.1-2,3.2-2v-0.1
					c0-0.4-0.1-1.2-1.2-1.2c-0.5,0-1,0.1-1.4,0.4l-0.2-0.6c0.4-0.3,1.1-0.5,1.7-0.5c1.6,0,2,1.1,2,2.2v2c0,0.5,0,0.9,0.1,1.3H209.9z
					 M209.8,168.7c-1,0-2.2,0.2-2.2,1.2c0,0.6,0.4,0.9,0.9,0.9c0.7,0,1.1-0.4,1.3-0.9c0-0.1,0-0.2,0-0.3V168.7z"/>
				<path class="st56" d="M212.3,167.5c0-0.6,0-1,0-1.4h0.8l0.1,0.9h0c0.3-0.5,0.9-1,1.8-1c0.7,0,1.9,0.4,1.9,2.3v3.2h-1v-3.1
					c0-0.9-0.3-1.6-1.2-1.6c-0.6,0-1.1,0.4-1.3,1c0,0.1-0.1,0.3-0.1,0.4v3.2h-1V167.5z"/>
				<path class="st56" d="M222.9,163.6v6.4c0,0.5,0,1,0,1.4h-0.9l0-0.9h0c-0.3,0.6-0.9,1-1.8,1c-1.3,0-2.3-1.1-2.3-2.7
					c0-1.8,1.1-2.8,2.4-2.8c0.8,0,1.4,0.4,1.6,0.8h0v-3.2H222.9z M221.9,168.2c0-0.1,0-0.3,0-0.4c-0.1-0.6-0.7-1.1-1.4-1.1
					c-1,0-1.6,0.9-1.6,2c0,1.1,0.5,2,1.6,2c0.6,0,1.2-0.4,1.4-1.2c0-0.1,0-0.3,0-0.4V168.2z"/>
				<path class="st56" d="M226.7,170.2c0.4,0.3,1,0.5,1.7,0.5c1,0,1.5-0.5,1.5-1.3c0-0.7-0.4-1.1-1.4-1.5c-1.2-0.4-2-1.1-2-2.1
					c0-1.1,1-2,2.4-2c0.7,0,1.3,0.2,1.6,0.4l-0.3,0.8c-0.2-0.1-0.7-0.4-1.4-0.4c-1,0-1.4,0.6-1.4,1.1c0,0.7,0.4,1,1.5,1.4
					c1.3,0.5,1.9,1.1,1.9,2.2c0,1.1-0.8,2.1-2.6,2.1c-0.7,0-1.5-0.2-1.9-0.5L226.7,170.2z"/>
				<path class="st56" d="M232.2,167.8c0-0.7,0-1.2,0-1.7h0.9l0.1,0.9h0c0.4-0.6,1-1,1.9-1c1.3,0,2.2,1.1,2.2,2.7
					c0,1.9-1.2,2.8-2.4,2.8c-0.7,0-1.3-0.3-1.6-0.8h0v2.9h-1V167.8z M233.2,169.2c0,0.1,0,0.3,0,0.4c0.2,0.7,0.8,1.1,1.4,1.1
					c1,0,1.6-0.8,1.6-2c0-1.1-0.6-2-1.6-2c-0.7,0-1.3,0.5-1.5,1.2c0,0.1-0.1,0.3-0.1,0.4V169.2z"/>
				<path class="st56" d="M243.2,168.7c0,2-1.4,2.8-2.6,2.8c-1.4,0-2.5-1-2.5-2.7c0-1.8,1.2-2.8,2.6-2.8
					C242.2,166,243.2,167.1,243.2,168.7z M239,168.7c0,1.2,0.7,2,1.6,2c0.9,0,1.6-0.9,1.6-2.1c0-0.9-0.5-2-1.6-2
					C239.5,166.7,239,167.7,239,168.7z"/>
				<path class="st56" d="M244.4,167.5c0-0.6,0-1,0-1.4h0.8l0.1,0.9h0c0.3-0.5,0.9-1,1.8-1c0.7,0,1.9,0.4,1.9,2.3v3.2h-1v-3.1
					c0-0.9-0.3-1.6-1.2-1.6c-0.6,0-1.1,0.4-1.3,1c0,0.1-0.1,0.3-0.1,0.4v3.2h-1V167.5z"/>
				<path class="st56" d="M250.4,170.4c0.3,0.2,0.8,0.4,1.3,0.4c0.7,0,1-0.3,1-0.8c0-0.5-0.3-0.7-1-1c-1-0.3-1.4-0.9-1.4-1.5
					c0-0.9,0.7-1.6,1.8-1.6c0.5,0,1,0.1,1.3,0.3l-0.2,0.7c-0.2-0.1-0.6-0.3-1.1-0.3c-0.6,0-0.9,0.3-0.9,0.7c0,0.4,0.3,0.6,1,0.9
					c0.9,0.3,1.4,0.8,1.4,1.6c0,0.9-0.7,1.6-2,1.6c-0.6,0-1.1-0.2-1.5-0.4L250.4,170.4z"/>
				<path class="st56" d="M259.6,168.7c0,2-1.4,2.8-2.6,2.8c-1.4,0-2.5-1-2.5-2.7c0-1.8,1.2-2.8,2.6-2.8
					C258.6,166,259.6,167.1,259.6,168.7z M255.4,168.7c0,1.2,0.7,2,1.6,2c0.9,0,1.6-0.9,1.6-2.1c0-0.9-0.5-2-1.6-2
					C255.9,166.7,255.4,167.7,255.4,168.7z"/>
				<path class="st56" d="M260.8,167.7c0-0.6,0-1.2,0-1.6h0.8l0,1h0c0.2-0.7,0.8-1.2,1.5-1.2c0.1,0,0.2,0,0.3,0v0.9
					c-0.1,0-0.2,0-0.3,0c-0.7,0-1.2,0.5-1.3,1.2c0,0.1,0,0.3,0,0.4v2.8h-1V167.7z"/>
				<path class="st56" d="M266.8,164.1c0.4-0.1,1.1-0.2,1.7-0.2c1,0,1.6,0.2,2,0.5c0.4,0.3,0.6,0.7,0.6,1.3c0,0.7-0.5,1.3-1.2,1.6v0
					c0.7,0.2,1.5,0.7,1.5,1.8c0,0.6-0.3,1.1-0.6,1.5c-0.5,0.5-1.3,0.7-2.5,0.7c-0.7,0-1.2,0-1.5-0.1V164.1z M267.7,167.1h0.9
					c1,0,1.6-0.5,1.6-1.2c0-0.9-0.6-1.2-1.6-1.2c-0.4,0-0.7,0-0.8,0.1V167.1z M267.7,170.7c0.2,0,0.5,0,0.8,0c1,0,1.9-0.4,1.9-1.4
					c0-1-0.9-1.4-1.9-1.4h-0.8V170.7z"/>
				<path class="st56" d="M277.5,168.7c0,2-1.4,2.8-2.6,2.8c-1.4,0-2.5-1-2.5-2.7c0-1.8,1.2-2.8,2.6-2.8
					C276.4,166,277.5,167.1,277.5,168.7z M273.3,168.7c0,1.2,0.7,2,1.6,2c0.9,0,1.6-0.9,1.6-2.1c0-0.9-0.5-2-1.6-2
					C273.8,166.7,273.3,167.7,273.3,168.7z"/>
				<path class="st56" d="M283.5,168.7c0,2-1.4,2.8-2.6,2.8c-1.4,0-2.5-1-2.5-2.7c0-1.8,1.2-2.8,2.6-2.8
					C282.4,166,283.5,167.1,283.5,168.7z M279.3,168.7c0,1.2,0.7,2,1.6,2c0.9,0,1.6-0.9,1.6-2.1c0-0.9-0.5-2-1.6-2
					C279.8,166.7,279.3,167.7,279.3,168.7z"/>
				<path class="st56" d="M285.8,164.6v1.5h1.4v0.7h-1.4v2.9c0,0.7,0.2,1,0.7,1c0.2,0,0.4,0,0.6-0.1l0,0.7c-0.2,0.1-0.5,0.1-0.9,0.1
					c-0.4,0-0.8-0.1-1-0.4c-0.3-0.3-0.4-0.8-0.4-1.4v-2.9h-0.8v-0.7h0.8v-1.3L285.8,164.6z"/>
				<path class="st56" d="M288.3,163.6h1v3.3h0c0.2-0.3,0.4-0.5,0.7-0.7c0.3-0.2,0.6-0.3,1-0.3c0.7,0,1.8,0.4,1.8,2.3v3.2h-1v-3
					c0-0.9-0.3-1.6-1.2-1.6c-0.6,0-1.1,0.4-1.3,1c0,0.1-0.1,0.3-0.1,0.5v3.2h-1V163.6z"/>
			</g>
		</g>
	</g>
	<g>
		<text transform="matrix(1 0 0 1 149.8674 133.9668)" class="st90 st82 st91">Day01 / Day02</text>
	</g>
	<g>
		<text transform="matrix(0.8749 0 0 1 473.9388 114.5759)" class="st87 st82 st88">614</text>
	</g>
	<g>
		<text transform="matrix(1 0 0 1 473.9388 158.3123)" class="st56 st82 st89">社群/贊助攤位</text>
	</g>
	<g>
		<g>
			<g>
				<path class="st56" d="M479.9,172.2c-0.3,0.2-1,0.4-1.9,0.4c-2.1,0-3.6-1.3-3.6-3.7c0-2.3,1.6-3.9,3.8-3.9c0.9,0,1.5,0.2,1.8,0.3
					l-0.2,0.8c-0.4-0.2-0.9-0.3-1.5-0.3c-1.7,0-2.9,1.1-2.9,3c0,1.8,1,3,2.8,3c0.6,0,1.2-0.1,1.6-0.3L479.9,172.2z"/>
				<path class="st56" d="M485.9,169.7c0,2-1.4,2.8-2.6,2.8c-1.4,0-2.5-1-2.5-2.7c0-1.8,1.2-2.8,2.6-2.8
					C484.8,167,485.9,168.1,485.9,169.7z M481.7,169.8c0,1.2,0.7,2,1.6,2c0.9,0,1.6-0.9,1.6-2.1c0-0.9-0.5-2-1.6-2
					C482.2,167.8,481.7,168.8,481.7,169.8z"/>
				<path class="st56" d="M487.1,168.6c0-0.6,0-1,0-1.4h0.8l0.1,0.9h0c0.3-0.5,0.8-1,1.7-1c0.7,0,1.3,0.4,1.5,1.1h0
					c0.2-0.3,0.4-0.5,0.6-0.7c0.3-0.2,0.7-0.4,1.2-0.4c0.7,0,1.7,0.5,1.7,2.3v3.1h-0.9v-3c0-1-0.4-1.6-1.1-1.6c-0.6,0-1,0.4-1.1,0.9
					c0,0.1-0.1,0.3-0.1,0.5v3.3h-0.9v-3.2c0-0.8-0.4-1.4-1.1-1.4c-0.6,0-1,0.5-1.2,1c0,0.1-0.1,0.3-0.1,0.5v3.2h-0.9V168.6z"/>
				<path class="st56" d="M496.2,168.6c0-0.6,0-1,0-1.4h0.8l0.1,0.9h0c0.3-0.5,0.8-1,1.7-1c0.7,0,1.3,0.4,1.5,1.1h0
					c0.2-0.3,0.4-0.5,0.6-0.7c0.3-0.2,0.7-0.4,1.2-0.4c0.7,0,1.7,0.5,1.7,2.3v3.1h-0.9v-3c0-1-0.4-1.6-1.1-1.6c-0.6,0-1,0.4-1.1,0.9
					c0,0.1-0.1,0.3-0.1,0.5v3.3h-0.9v-3.2c0-0.8-0.4-1.4-1.1-1.4c-0.6,0-1,0.5-1.2,1c0,0.1-0.1,0.3-0.1,0.5v3.2h-0.9V168.6z"/>
				<path class="st56" d="M509.8,171c0,0.6,0,1,0,1.4h-0.9l-0.1-0.9h0c-0.2,0.4-0.8,1-1.8,1c-0.8,0-1.8-0.5-1.8-2.3v-3.1h1v2.9
					c0,1,0.3,1.7,1.2,1.7c0.6,0,1.1-0.5,1.3-0.9c0-0.1,0.1-0.3,0.1-0.5v-3.2h1V171z"/>
				<path class="st56" d="M511.4,168.6c0-0.6,0-1,0-1.4h0.8l0.1,0.9h0c0.3-0.5,0.9-1,1.8-1c0.7,0,1.9,0.4,1.9,2.3v3.2h-1v-3.1
					c0-0.9-0.3-1.6-1.2-1.6c-0.6,0-1.1,0.4-1.3,1c0,0.1-0.1,0.3-0.1,0.4v3.2h-1V168.6z"/>
				<path class="st56" d="M518.5,165.7c0,0.3-0.2,0.6-0.6,0.6c-0.3,0-0.6-0.3-0.6-0.6c0-0.3,0.2-0.6,0.6-0.6
					C518.3,165.1,518.5,165.3,518.5,165.7z M517.4,172.4v-5.3h1v5.3H517.4z"/>
				<path class="st56" d="M521.1,165.6v1.5h1.4v0.7h-1.4v2.9c0,0.7,0.2,1,0.7,1c0.2,0,0.4,0,0.6-0.1l0,0.7c-0.2,0.1-0.5,0.1-0.9,0.1
					c-0.4,0-0.8-0.1-1-0.4c-0.3-0.3-0.4-0.8-0.4-1.4v-2.9h-0.8v-0.7h0.8v-1.3L521.1,165.6z"/>
				<path class="st56" d="M524,167.2l1.2,3.1c0.1,0.4,0.3,0.8,0.3,1.1h0c0.1-0.3,0.2-0.7,0.3-1.1l1-3.1h1l-1.4,3.8
					c-0.7,1.8-1.2,2.7-1.8,3.3c-0.5,0.4-0.9,0.6-1.2,0.6l-0.2-0.8c0.2-0.1,0.6-0.2,0.8-0.5c0.3-0.2,0.6-0.6,0.8-1.1
					c0-0.1,0.1-0.2,0.1-0.2c0-0.1,0-0.1-0.1-0.2l-2-4.9H524z"/>
				<path class="st56" d="M534,172.4l-0.1-0.7h0c-0.3,0.4-0.9,0.8-1.6,0.8c-1.1,0-1.6-0.8-1.6-1.5c0-1.3,1.1-2,3.2-2V169
					c0-0.4-0.1-1.2-1.2-1.2c-0.5,0-1,0.1-1.4,0.4l-0.2-0.6c0.4-0.3,1.1-0.5,1.7-0.5c1.6,0,2,1.1,2,2.2v2c0,0.5,0,0.9,0.1,1.3H534z
					 M533.9,169.7c-1,0-2.2,0.2-2.2,1.2c0,0.6,0.4,0.9,0.9,0.9c0.7,0,1.1-0.4,1.3-0.9c0-0.1,0-0.2,0-0.3V169.7z"/>
				<path class="st56" d="M536.3,168.6c0-0.6,0-1,0-1.4h0.8l0.1,0.9h0c0.3-0.5,0.9-1,1.8-1c0.7,0,1.9,0.4,1.9,2.3v3.2h-1v-3.1
					c0-0.9-0.3-1.6-1.2-1.6c-0.6,0-1.1,0.4-1.3,1c0,0.1-0.1,0.3-0.1,0.4v3.2h-1V168.6z"/>
				<path class="st56" d="M547,164.7v6.4c0,0.5,0,1,0,1.4h-0.9l0-0.9h0c-0.3,0.6-0.9,1-1.8,1c-1.3,0-2.3-1.1-2.3-2.7
					c0-1.8,1.1-2.8,2.4-2.8c0.8,0,1.4,0.4,1.6,0.8h0v-3.2H547z M546,169.3c0-0.1,0-0.3,0-0.4c-0.1-0.6-0.7-1.1-1.4-1.1
					c-1,0-1.6,0.9-1.6,2c0,1.1,0.5,2,1.6,2c0.6,0,1.2-0.4,1.4-1.2c0-0.1,0-0.3,0-0.4V169.3z"/>
				<path class="st56" d="M550.8,171.3c0.4,0.3,1,0.5,1.7,0.5c1,0,1.5-0.5,1.5-1.3c0-0.7-0.4-1.1-1.4-1.5c-1.2-0.4-2-1.1-2-2.1
					c0-1.1,1-2,2.4-2c0.7,0,1.3,0.2,1.6,0.4l-0.3,0.8c-0.2-0.1-0.7-0.4-1.4-0.4c-1,0-1.4,0.6-1.4,1.1c0,0.7,0.4,1,1.5,1.4
					c1.3,0.5,1.9,1.1,1.9,2.2c0,1.1-0.8,2.1-2.6,2.1c-0.7,0-1.5-0.2-1.9-0.5L550.8,171.3z"/>
				<path class="st56" d="M556.3,168.9c0-0.7,0-1.2,0-1.7h0.9l0.1,0.9h0c0.4-0.6,1-1,1.9-1c1.3,0,2.2,1.1,2.2,2.7
					c0,1.9-1.2,2.8-2.4,2.8c-0.7,0-1.3-0.3-1.6-0.8h0v2.9h-1V168.9z M557.2,170.3c0,0.1,0,0.3,0,0.4c0.2,0.7,0.8,1.1,1.4,1.1
					c1,0,1.6-0.8,1.6-2c0-1.1-0.6-2-1.6-2c-0.7,0-1.3,0.5-1.5,1.2c0,0.1-0.1,0.3-0.1,0.4V170.3z"/>
				<path class="st56" d="M567.3,169.7c0,2-1.4,2.8-2.6,2.8c-1.4,0-2.5-1-2.5-2.7c0-1.8,1.2-2.8,2.6-2.8
					C566.3,167,567.3,168.1,567.3,169.7z M563.1,169.8c0,1.2,0.7,2,1.6,2c0.9,0,1.6-0.9,1.6-2.1c0-0.9-0.5-2-1.6-2
					C563.6,167.8,563.1,168.8,563.1,169.8z"/>
				<path class="st56" d="M568.5,168.6c0-0.6,0-1,0-1.4h0.8l0.1,0.9h0c0.3-0.5,0.9-1,1.8-1c0.7,0,1.9,0.4,1.9,2.3v3.2h-1v-3.1
					c0-0.9-0.3-1.6-1.2-1.6c-0.6,0-1.1,0.4-1.3,1c0,0.1-0.1,0.3-0.1,0.4v3.2h-1V168.6z"/>
				<path class="st56" d="M574.5,171.5c0.3,0.2,0.8,0.4,1.3,0.4c0.7,0,1-0.3,1-0.8c0-0.5-0.3-0.7-1-1c-1-0.3-1.4-0.9-1.4-1.5
					c0-0.9,0.7-1.6,1.8-1.6c0.5,0,1,0.1,1.3,0.3l-0.2,0.7c-0.2-0.1-0.6-0.3-1.1-0.3c-0.6,0-0.9,0.3-0.9,0.7c0,0.4,0.3,0.6,1,0.9
					c0.9,0.3,1.4,0.8,1.4,1.6c0,0.9-0.7,1.6-2,1.6c-0.6,0-1.1-0.2-1.5-0.4L574.5,171.5z"/>
				<path class="st56" d="M583.7,169.7c0,2-1.4,2.8-2.6,2.8c-1.4,0-2.5-1-2.5-2.7c0-1.8,1.2-2.8,2.6-2.8
					C582.7,167,583.7,168.1,583.7,169.7z M579.5,169.8c0,1.2,0.7,2,1.6,2c0.9,0,1.6-0.9,1.6-2.1c0-0.9-0.5-2-1.6-2
					C580,167.8,579.5,168.8,579.5,169.8z"/>
				<path class="st56" d="M584.9,168.8c0-0.6,0-1.2,0-1.6h0.8l0,1h0c0.2-0.7,0.8-1.2,1.5-1.2c0.1,0,0.2,0,0.3,0v0.9
					c-0.1,0-0.2,0-0.3,0c-0.7,0-1.2,0.5-1.3,1.2c0,0.1,0,0.3,0,0.4v2.8h-1V168.8z"/>
				<path class="st56" d="M590.8,165.2c0.4-0.1,1.1-0.2,1.7-0.2c1,0,1.6,0.2,2,0.5c0.4,0.3,0.6,0.7,0.6,1.3c0,0.7-0.5,1.3-1.2,1.6v0
					c0.7,0.2,1.5,0.7,1.5,1.8c0,0.6-0.3,1.1-0.6,1.5c-0.5,0.5-1.3,0.7-2.5,0.7c-0.7,0-1.2,0-1.5-0.1V165.2z M591.8,168.2h0.9
					c1,0,1.6-0.5,1.6-1.2c0-0.9-0.6-1.2-1.6-1.2c-0.4,0-0.7,0-0.8,0.1V168.2z M591.8,171.7c0.2,0,0.5,0,0.8,0c1,0,1.9-0.4,1.9-1.4
					c0-1-0.9-1.4-1.9-1.4h-0.8V171.7z"/>
				<path class="st56" d="M601.5,169.7c0,2-1.4,2.8-2.6,2.8c-1.4,0-2.5-1-2.5-2.7c0-1.8,1.2-2.8,2.6-2.8
					C600.5,167,601.5,168.1,601.5,169.7z M597.3,169.8c0,1.2,0.7,2,1.6,2c0.9,0,1.6-0.9,1.6-2.1c0-0.9-0.5-2-1.6-2
					C597.8,167.8,597.3,168.8,597.3,169.8z"/>
				<path class="st56" d="M607.5,169.7c0,2-1.4,2.8-2.6,2.8c-1.4,0-2.5-1-2.5-2.7c0-1.8,1.2-2.8,2.6-2.8
					C606.5,167,607.5,168.1,607.5,169.7z M603.3,169.8c0,1.2,0.7,2,1.6,2c0.9,0,1.6-0.9,1.6-2.1c0-0.9-0.5-2-1.6-2
					C603.8,167.8,603.3,168.8,603.3,169.8z"/>
				<path class="st56" d="M609.9,165.6v1.5h1.4v0.7h-1.4v2.9c0,0.7,0.2,1,0.7,1c0.2,0,0.4,0,0.6-0.1l0,0.7c-0.2,0.1-0.5,0.1-0.9,0.1
					c-0.4,0-0.8-0.1-1-0.4c-0.3-0.3-0.4-0.8-0.4-1.4v-2.9h-0.8v-0.7h0.8v-1.3L609.9,165.6z"/>
				<path class="st56" d="M612.4,164.7h1v3.3h0c0.2-0.3,0.4-0.5,0.7-0.7c0.3-0.2,0.6-0.3,1-0.3c0.7,0,1.8,0.4,1.8,2.3v3.2h-1v-3
					c0-0.9-0.3-1.6-1.2-1.6c-0.6,0-1.1,0.4-1.3,1c0,0.1-0.1,0.3-0.1,0.5v3.2h-1V164.7z"/>
			</g>
		</g>
	</g>
	<g>
		<text transform="matrix(1 0 0 1 473.9388 135.034)" class="st90 st82 st91">Day01 / Day02</text>
	</g>
	<g>
		<text transform="matrix(1 0 0 1 543.4559 497.9658)" class="st56 st85 st92">香港創意開放科技協會 (HKCOTA)</text>
	</g>
	<g>
		<text transform="matrix(1 0 0 1 543.4158 465.4348)" class="st56 st85 st92">Laravel Taiwan &amp; Vue Taiwan</text>
	</g>
	<g>
		<text transform="matrix(1 0 0 1 544.3131 433.8496)" class="st56 st85 st92">WordPress台灣社群</text>
	</g>
	<g>
		<text transform="matrix(1 0 0 1 543.8917 449.3451)" class="st56 st85 st92">Open Source Chatbot</text>
	</g>
	<g>
		<text transform="matrix(1 0 0 1 543.9393 481.6015)" class="st56 st85 st92">SLAT 中華民國軟體自由協會</text>
	</g>
	<g>
		<text transform="matrix(1 0 0 1 522.1734 433.8496)" class="st56 st85 st92">C1</text>
	</g>
	<g>
		<text transform="matrix(1 0 0 1 522.1724 449.5655)" class="st56 st85 st92">C2</text>
	</g>
	<g>
		<text transform="matrix(1 0 0 1 522.1727 465.6504)" class="st56 st85 st92">C3</text>
	</g>
	<g>
		<text transform="matrix(1 0 0 1 522.55 497.4257)" class="st56 st85 st92">C5</text>
	</g>
	<g>
		<text transform="matrix(1 0 0 1 522.0944 481.4865)" class="st56 st85 st92">C4</text>
	</g>
	<g>
		<text transform="matrix(1 0 0 1 215.769 497.641)" class="st56 st85 st92">Rust Taiwan</text>
	</g>
	<g>
		<text transform="matrix(1 0 0 1 215.8003 465.2878)" class="st56 st85 st92">PyCon TW</text>
	</g>
	<g>
		<text transform="matrix(1 0 0 1 216.6811 433.8008)" class="st56 st85 st92">WasmEdge Taiwan</text>
	</g>
	<g>
		<text transform="matrix(1 0 0 1 215.7686 449.451)" class="st56 st85 st92">LearnWeb Taiwan </text>
	</g>
	<g>
		<text transform="matrix(1 0 0 1 216.4664 481.4861)" class="st56 st85 st92">Taipei Ethereum Meetup</text>
	</g>
	<g>
		<text transform="matrix(1 0 0 1 194.331 433.748)" class="st56 st85 st92">C1</text>
	</g>
	<g>
		<text transform="matrix(1 0 0 1 194.3319 449.5659)" class="st56 st85 st92">C2</text>
	</g>
	<g>
		<text transform="matrix(1 0 0 1 194.7876 465.4348)" class="st56 st85 st92">C3</text>
	</g>
	<g>
		<text transform="matrix(1 0 0 1 194.7883 497.6414)" class="st56 st85 st92">C5</text>
	</g>
	<g>
		<text transform="matrix(1 0 0 1 194.3318 481.4866)" class="st56 st85 st92">C4</text>
	</g>
	<g>
		<g>
			<defs>
				<rect id="SVGID_00000142876159840760898930000014702994063325630881_" x="692.6" y="499.6" width="139.5" height="93"/>
			</defs>
			<clipPath id="SVGID_00000013159807720326810530000015308670008444767134_">
				<use xlink:href="#SVGID_00000142876159840760898930000014702994063325630881_"  style="overflow:visible;"/>
			</clipPath>
			<g style="clip-path:url(#SVGID_00000013159807720326810530000015308670008444767134_);">
				<defs>
					<rect id="SVGID_00000106861266110782677420000002145011375028987049_" x="692.6" y="499.6" width="139.5" height="93"/>
				</defs>
				<clipPath id="SVGID_00000096059309085400487800000006258172605083278776_">
					<use xlink:href="#SVGID_00000106861266110782677420000002145011375028987049_"  style="overflow:visible;"/>
				</clipPath>
				<path style="clip-path:url(#SVGID_00000096059309085400487800000006258172605083278776_);fill:#00943C;" d="M720.2,532.6
					l-1.8,7.3H716c0.1-0.2,0.1-0.5,0.2-0.8c0-0.3,0.1-0.6,0.1-1.1c0-1-0.2-1.8-0.5-2.4c-0.5-0.8-1.3-1.2-2.4-1.2c-1.4,0-3,1-4.6,2.9
					c-1.7,2-2.5,4-2.5,6.1c0,1.6,0.4,2.8,1.2,3.7c0.8,0.9,1.8,1.3,3.1,1.3c1,0,2.3-0.5,3.8-1.5c0.5-0.3,1.1-0.9,1.9-1.6l2.5,1.6
					c-0.4,0.3-0.7,0.7-1.1,1c-1,0.8-2,1.4-3.1,1.9c-1.6,0.7-3.3,1-5,1c-2.5,0-4.6-0.6-6.3-1.9c-1.9-1.4-2.8-3.3-2.8-5.8
					c0-3.3,1.5-6,4.3-8.1c2.7-2,6.1-3,10.1-3c0.9,0,2.1,0.1,3.5,0.3C718.8,532.3,719.4,532.4,720.2,532.6"/>
				<path style="clip-path:url(#SVGID_00000096059309085400487800000006258172605083278776_);fill:#00943C;" d="M741.5,537.9
					c0,1.7-0.4,3.2-1.1,4.5c-0.6,1.1-1.6,2.4-3,3.8c-1.4,1.4-3.1,2.5-5.1,3.3c-1.7,0.7-3.4,1-5,1c-2.7,0-4.8-0.8-6.3-2.3
					c-1.4-1.4-2.1-3.3-2.1-5.6c0-1.9,0.6-3.8,1.7-5.6c0.8-1.3,1.8-2.5,3.1-3.6c1-0.8,1.5-1.3,1.7-1.3l5,0c-0.1,0-0.6,0.6-1.4,1.7
					c-1.1,1.4-2,2.8-2.7,4.2c-1,2-1.5,3.8-1.5,5.4c0,1.8,0.4,3.2,1.1,4c0.6,0.7,1.5,1,2.7,1c1.6,0,3.1-0.9,4.4-2.8
					c1.3-1.9,2-3.9,2-6c0-1-0.1-1.8-0.3-2.3c-0.3-0.7-0.8-1.3-1.5-1.6c-0.2-0.1-0.4-0.1-0.6-0.2c-0.3,0-0.5-0.1-0.7-0.1
					c-0.4,0-0.7,0-0.9,0c-0.2,0-0.4,0.1-0.6,0.1v-1.6l6.4-2.1c1.1,0.4,1.9,0.8,2.4,1.2C740.6,534.2,741.5,535.9,741.5,537.9"/>
				<path style="clip-path:url(#SVGID_00000096059309085400487800000006258172605083278776_);fill:#00943C;" d="M761.2,532.3l-1.7,6
					h-2.3V538c0-0.2,0-0.4,0-0.6c0-0.5,0-1-0.1-1.4c-0.1-0.4-0.2-0.8-0.5-1c-0.3-0.3-0.7-0.6-1.1-0.8c-0.5-0.2-1.3-0.3-2.4-0.3
					c-1.4,0-2.5,0.2-3.4,0.7c-1.1,0.6-1.7,1.4-1.7,2.5c0,0.9,0.9,1.6,2.8,2.1c1.8,0.5,3.7,1,5.4,1.5c1.9,0.8,2.9,2,2.9,3.6
					c0,1.9-1.3,3.4-4,4.6c-2.4,1.1-5,1.6-8,1.6c-1.1,0-2.6-0.2-4.4-0.5c-0.6-0.1-1.4-0.3-2.4-0.6v-3.4c0.7,0.4,1.4,0.8,1.9,1
					c1.6,0.6,3.1,1,4.7,1c1.4,0,2.7-0.2,3.9-0.7c1.3-0.6,2-1.4,2-2.4c0-1-0.9-1.6-2.7-2c-1.8-0.4-3.6-0.7-5.4-1.1
					c-1.9-0.7-2.8-1.8-2.8-3.5c0-1.7,0.7-3.1,2.1-4.1c1.2-0.9,2.8-1.6,4.9-2c1.7-0.3,3.5-0.5,5.6-0.5c1.2,0,2.7,0.1,4.4,0.3
					C759.5,532,760.3,532.1,761.2,532.3"/>
				<path style="clip-path:url(#SVGID_00000096059309085400487800000006258172605083278776_);fill:#00943C;" d="M780,532.6l-1.8,7.3
					h-2.5c0.1-0.2,0.1-0.5,0.2-0.8c0-0.3,0.1-0.6,0.1-1.1c0-1-0.2-1.8-0.5-2.4c-0.5-0.8-1.3-1.2-2.4-1.2c-1.4,0-3,1-4.6,2.9
					c-1.7,2-2.5,4-2.5,6.1c0,1.6,0.4,2.8,1.2,3.7c0.8,0.9,1.8,1.3,3.1,1.3c1,0,2.3-0.5,3.8-1.5c0.5-0.3,1.1-0.9,1.9-1.6l2.5,1.6
					c-0.4,0.3-0.7,0.7-1.1,1c-1,0.8-2,1.4-3.1,1.9c-1.6,0.7-3.3,1-5,1c-2.5,0-4.6-0.6-6.3-1.9c-1.9-1.4-2.8-3.3-2.8-5.8
					c0-3.3,1.4-6,4.3-8.1c2.7-2,6.1-3,10.1-3c0.9,0,2.1,0.1,3.5,0.3C778.5,532.3,779.1,532.4,780,532.6"/>
				<path style="clip-path:url(#SVGID_00000096059309085400487800000006258172605083278776_);fill:#00943C;" d="M801.7,532.1
					l-4.6,18.3h-6.2l1.5-5.3c0-0.1,0.1-0.2,0.1-0.4c0-0.2,0-0.3,0-0.3c0-0.2-0.1-0.3-0.2-0.3c-0.1,0-0.3,0.1-0.4,0.2
					c0,0-0.1,0.1-0.2,0.3c-0.4,0.5-0.8,1.1-1.1,1.7c-1,1.3-2,2.3-3.1,3.1c-1.5,1.1-3,1.7-4.4,1.7c-1.4,0-2.6-0.5-3.4-1.4
					c-0.9-0.9-1.3-2.2-1.3-3.7c0-0.7,0.1-1.5,0.3-2.5c0.1-0.3,0.2-0.8,0.3-1.4l2.8-9.9h6.2l-3.1,10.9c0,0.1-0.1,0.2-0.1,0.5
					c-0.1,0.3-0.1,0.6-0.1,0.8c0,0.6,0.1,1,0.4,1.3c0.3,0.3,0.8,0.5,1.5,0.5c1.4,0,2.9-1.2,4.5-3.7c1.1-1.8,2.3-4,3.4-6.8
					c0.4-1.2,0.9-2.4,1.3-3.7H801.7z"/>
				<path style="clip-path:url(#SVGID_00000096059309085400487800000006258172605083278776_);fill:#00943C;" d="M769.7,526.1
					l-3.2-10l-1.6,2.9c-19.8-9.6-28.4,9.2-28.4,9.2s7.1-13.8,24.6-2.7l-1.6,2.8L769.7,526.1z"/>
				<path style="clip-path:url(#SVGID_00000096059309085400487800000006258172605083278776_);fill:#00943C;" d="M782.4,519.1
					l-3.2-10l-1.6,2.8c-19.8-9.6-28.4,9.2-28.4,9.2s7.1-13.8,24.6-2.7l-1.6,2.8L782.4,519.1z"/>
				<path style="clip-path:url(#SVGID_00000096059309085400487800000006258172605083278776_);fill:#00943C;" d="M822,533.3
					c-1.4-0.8-3-1.2-5-1.2h-2.8l-0.4,0.5c0.1,0.3,0.2,0.6,0.2,0.8l0,0.3c0,0.1,0,0.3,0,0.5h0.4c1.1,0,2,0.4,2.7,1.1
					c0.7,0.7,1.1,1.7,1.1,3c0,1.5-0.7,2.7-2.1,3.6c-0.9,0.6-2.2,1-3.8,1.2c-0.3,0-0.5,0.1-0.8,0.1l-0.2,0.5
					c-0.1,0.4-0.1,0.7-0.4,1.1l-0.2,0.3c0.1,0,0.3,0,0.5,0c1.8,0,3.5-0.1,5-0.4c2.3-0.4,4.2-1.2,5.5-2.2c1.7-1.3,2.6-3.1,2.6-5.3
					C824.3,535.5,823.5,534.2,822,533.3"/>
				<path style="clip-path:url(#SVGID_00000096059309085400487800000006258172605083278776_);fill:#00943C;" d="M811.1,537.2
					c0-0.1,0-0.3,0.1-0.4l0.6-1.6c0-0.1,0.1-0.3,0.2-0.3l0.3-0.6l0-0.1c0-0.1,0-0.3,0-0.4l0-0.2c0-0.1,0-0.3-0.1-0.4l-0.1-0.3v-0.4
					l0.1-0.4l0-0.2c0.1-0.1,0.1-0.3,0.2-0.3l0.6-0.6c0-0.1,0.1-0.2,0-0.3l-0.3-0.5c-0.1-0.1-0.2-0.2-0.3-0.2l-1-0.3
					c-0.1,0-0.3-0.1-0.3-0.2l-0.3-0.4c-0.1-0.1-0.2-0.2-0.3-0.2h-0.1c-0.1,0-0.3,0.1-0.3,0.1l-0.3,0.3c-0.1,0.1-0.1,0.3-0.1,0.4
					c0,0.1-0.1,0.2-0.2,0.3l-0.5,0.1c-0.2,0-0.3,0.1-0.4,0.1l-0.8,0.3c-0.1,0-0.2,0.1-0.3,0.2l-0.8,1.8c-0.1,0.1-0.2,0.2-0.3,0.3
					l-0.7,0.8c-0.1,0.1-0.2,0.2-0.3,0.3l-3.2,5.7c-0.1,0.1-0.1,0.2-0.1,0.3l0.1,1.9c0.1,0.1,0,0.2-0.1,0.3l-0.1,0.1
					c0,0.1-0.1,0.2-0.1,0.3l-0.1,0.4c0,0.1-0.1,0.3-0.1,0.4l0,0.3c0,0.1,0,0.3,0.1,0.3l0.5,0.4c0.1,0,0.1,0.1,0.1,0.3v0.6
					c0,0.1,0.1,0.3,0.1,0.4l0.2,0.6c0.1,0.1,0.1,0.3,0.1,0.3l0.6,0.9c0.1,0.1,0.2,0.2,0.3,0.2h0c0.1,0,0.3,0,0.4,0.1l0.8,0.8
					c0.1,0.1,0.2,0.2,0.3,0.3l0.4,0.8c0,0.1,0,0.3,0,0.4l-0.1,0.5c0,0.1,0.1,0.3,0.1,0.4l0.1,0.1c0.1,0.1,0.3,0.2,0.3,0.2l0.3,0.2
					c0.1,0.1,0.2,0,0.3-0.1l0.1-0.4c0-0.1,0.1-0.2,0.1-0.4v-0.7v-1.1c0-0.1,0-0.3,0-0.4l0.7-1.7c0-0.1,0.1-0.2,0.2-0.3l0.6-0.7
					l0.1-0.1c0.1,0,0.2-0.2,0.2-0.3l0.9-1.6c0.2-0.2,0.1-0.3,0.2-0.6c0-0.1,0.1-0.3,0.1-0.4l0.5-1.5c0.1-0.2,0.5-2.7,0.7-3.8
					C811.1,537.4,811.1,537.3,811.1,537.2"/>
				<path style="clip-path:url(#SVGID_00000096059309085400487800000006258172605083278776_);fill:#00943C;" d="M700.4,564.7
					c2.5-2.2,3.8-3.8,3.8-5.2c0-0.9-0.5-1.5-1.4-1.5c-0.7,0-1.2,0.4-1.7,0.9l-0.7-0.7c0.7-0.8,1.5-1.3,2.6-1.3c1.5,0,2.5,1,2.5,2.5
					c0,1.6-1.3,3.3-3.1,5c0.4,0,1-0.1,1.4-0.1h2.1v1.1h-5.4V564.7z"/>
				<path style="clip-path:url(#SVGID_00000096059309085400487800000006258172605083278776_);fill:#00943C;" d="M712,561.2
					c0-2.9,1.1-4.3,2.7-4.3c1.6,0,2.7,1.4,2.7,4.3c0,2.9-1.1,4.4-2.7,4.4C713.1,565.6,712,564.2,712,561.2 M716.2,561.2
					c0-2.4-0.6-3.3-1.5-3.3c-0.9,0-1.5,0.9-1.5,3.3c0,2.4,0.6,3.3,1.5,3.3C715.6,564.6,716.2,563.7,716.2,561.2"/>
				<path style="clip-path:url(#SVGID_00000096059309085400487800000006258172605083278776_);fill:#00943C;" d="M723.6,564.7
					c2.5-2.2,3.8-3.8,3.8-5.2c0-0.9-0.5-1.5-1.4-1.5c-0.7,0-1.2,0.4-1.7,0.9l-0.7-0.7c0.7-0.8,1.5-1.3,2.6-1.3c1.5,0,2.5,1,2.5,2.5
					c0,1.6-1.3,3.3-3.1,5c0.4,0,1-0.1,1.4-0.1h2.1v1.1h-5.4V564.7z"/>
				<path style="clip-path:url(#SVGID_00000096059309085400487800000006258172605083278776_);fill:#00943C;" d="M735.1,564.5
					l0.6-0.8c0.5,0.5,1.1,0.9,2,0.9c0.9,0,1.6-0.5,1.6-1.4c0-0.9-0.6-1.5-2.5-1.5v-1c1.7,0,2.2-0.6,2.2-1.5c0-0.7-0.5-1.2-1.3-1.2
					c-0.7,0-1.2,0.3-1.7,0.8l-0.7-0.8c0.7-0.6,1.4-1,2.4-1c1.5,0,2.6,0.8,2.6,2.2c0,1-0.6,1.6-1.5,2v0.1c1,0.2,1.7,1,1.7,2.1
					c0,1.5-1.3,2.4-2.8,2.4C736.5,565.6,735.7,565.1,735.1,564.5"/>
				<path style="clip-path:url(#SVGID_00000096059309085400487800000006258172605083278776_);fill:#00943C;" d="M748.5,560.2v6.1h-1
					v-10h4.2v3.9H748.5z M748.5,557.9h2.2v-0.8h-2.2V557.9z M750.7,558.6h-2.2v0.8h2.2V558.6z M753.7,563.7v2.5h-0.9v-2.5h-1.4
					c-0.1,0.8-0.5,1.9-1.5,2.6c-0.1-0.2-0.5-0.5-0.7-0.6c0.8-0.5,1.2-1.4,1.3-2h-1.3v-0.9h1.3v-1.1h-1.1v-0.8h5.5v0.8h-1.2v1.1h1.4
					v0.9H753.7z M752.8,561.7h-1.4v1.1h1.4V561.7z M756.9,565.1c0,0.6-0.1,0.9-0.5,1.1c-0.4,0.2-0.9,0.2-1.8,0.2
					c0-0.3-0.2-0.8-0.3-1.1c0.6,0,1.2,0,1.3,0c0.2,0,0.2-0.1,0.2-0.2v-4.8h-3.3v-3.9h4.3V565.1z M753.6,557.9h2.3v-0.8h-2.3V557.9z
					 M755.8,558.6h-2.3v0.9h2.3V558.6z"/>
				<path style="clip-path:url(#SVGID_00000096059309085400487800000006258172605083278776_);fill:#00943C;" d="M765.3,561
					c-0.4-0.3-1.3-0.8-1.9-1.2l0.6-0.8c0.6,0.3,1.5,0.8,1.9,1.1L765.3,561z M766.1,562.6c-0.4,1.2-1,2.6-1.6,3.6l-1-0.6
					c0.5-0.9,1.2-2.4,1.7-3.7L766.1,562.6z M765.8,558c-0.4-0.3-1.3-0.9-1.9-1.3l0.6-0.7c0.6,0.3,1.5,0.8,1.9,1.2L765.8,558z
					 M767.8,559.6c0,2-0.2,4.9-1.5,6.8c-0.2-0.2-0.6-0.4-0.9-0.6c1.3-1.8,1.4-4.4,1.4-6.2v-3.1h7v1h-6V559.6z M769.6,563.4
					c-0.4,0.8-0.9,1.7-1.4,2.3c-0.2-0.1-0.6-0.4-0.8-0.5c0.5-0.5,1-1.3,1.3-2.1L769.6,563.4z M771.3,562.6v2.8
					c0,0.5-0.1,0.7-0.4,0.9c-0.3,0.2-0.8,0.2-1.6,0.2c0-0.3-0.2-0.7-0.3-0.9c0.5,0,0.9,0,1.1,0c0.1,0,0.2,0,0.2-0.2v-2.7h-1.9v-4
					h1.6c0.1-0.4,0.2-0.8,0.3-1.1l1.2,0.2c-0.1,0.3-0.3,0.6-0.4,0.9h2.3v4H771.3z M769.3,560.2h3.1v-0.8h-3.1V560.2z M769.3,561.8
					h3.1v-0.8h-3.1V561.8z M772.8,563c0.4,0.7,1,1.6,1.2,2.2l-1,0.4c-0.2-0.6-0.7-1.5-1.2-2.3L772.8,563z"/>
				<path style="clip-path:url(#SVGID_00000096059309085400487800000006258172605083278776_);fill:#00943C;" d="M785.8,555.9
					c0,0.4,0,1-0.1,1.7c0.2,1.4,0.9,6,4.8,7.8c-0.3,0.2-0.6,0.6-0.8,0.9c-2.7-1.3-3.9-3.8-4.5-5.8c-0.6,2.1-1.8,4.5-4.4,5.9
					c-0.2-0.3-0.5-0.6-0.9-0.8c4.7-2.4,4.5-7.7,4.6-9.6H785.8z"/>
				<path style="clip-path:url(#SVGID_00000096059309085400487800000006258172605083278776_);fill:#00943C;" d="M806.9,563.8h-4v2.5
					h-1.1v-2.5h-5.2v-1h1.8v-3h3.4v-1.6h-2.6c-0.5,0.8-1.1,1.6-1.6,2.2c-0.2-0.2-0.7-0.5-0.9-0.7c1.1-0.9,2-2.4,2.5-3.9l1.1,0.3
					c-0.1,0.4-0.3,0.7-0.4,1.1h6.6v1h-3.5v1.6h3.2v1h-3.2v2h4V563.8z M801.8,560.8h-2.3v2h2.3V560.8z"/>
				<path style="clip-path:url(#SVGID_00000096059309085400487800000006258172605083278776_);fill:#00943C;" d="M819.1,556.2
					c-0.1,0.1-0.1,0.1-0.2,0.2c1.1,1,3,1.9,4.8,2.2c-0.2,0.2-0.5,0.6-0.7,0.8c-0.3-0.1-0.6-0.2-0.9-0.3v3h-7.7v-2.9
					c-0.3,0.1-0.6,0.2-0.8,0.3c-0.1-0.2-0.4-0.6-0.6-0.8c2.1-0.5,4.1-1.5,5.1-2.9L819.1,556.2z M822.2,559.1
					c-0.6-0.2-1.2-0.5-1.8-0.8v0.3h-4v-0.3c-0.5,0.3-1.1,0.5-1.7,0.8H822.2z M815.1,562.6h6.5v3.8h-1.1V566h-4.4v0.4h-1.1V562.6z
					 M816.7,559.9c0.3,0.4,0.5,0.9,0.6,1.3l-0.8,0.3h1.3v-1.6h-2.5v1.6h1.1c-0.1-0.4-0.3-0.9-0.5-1.3L816.7,559.9z M816.2,563.9h4.4
					v-0.6h-4.4V563.9z M820.6,564.7h-4.4v0.6h4.4V564.7z M819.7,557.9c-0.5-0.3-0.9-0.6-1.3-1c-0.4,0.3-0.8,0.7-1.2,1H819.7z
					 M821.3,559.8h-2.5v1.6h1.3l-0.7-0.2c0.2-0.4,0.4-0.9,0.6-1.3l0.9,0.3c-0.3,0.5-0.5,1-0.7,1.3h1.2V559.8z"/>
				<path style="clip-path:url(#SVGID_00000096059309085400487800000006258172605083278776_);fill:#00943C;" d="M704.5,573.3h-4
					v-1.8h6.3v1.3c-2.1,2.5-2.4,4.3-2.5,7.9h-2.2C702.3,577.7,702.7,575.7,704.5,573.3"/>
				<polygon style="clip-path:url(#SVGID_00000096059309085400487800000006258172605083278776_);fill:#00943C;" points="
					713.1,570.7 714.5,570.7 711.8,583 710.3,583 				"/>
				<path style="clip-path:url(#SVGID_00000096059309085400487800000006258172605083278776_);fill:#00943C;" d="M718.2,579.5
					c2.3-2.1,3.9-3.8,3.9-5.1c0-0.8-0.5-1.3-1.2-1.3c-0.6,0-1.1,0.4-1.6,0.9l-1.2-1.2c0.9-1,1.7-1.4,3.1-1.4c1.8,0,3,1.1,3,2.9
					c0,1.6-1.4,3.3-2.8,4.8c0.5-0.1,1.1-0.1,1.5-0.1h1.7v1.9h-6.4V579.5z"/>
				<path style="clip-path:url(#SVGID_00000096059309085400487800000006258172605083278776_);fill:#00943C;" d="M729.7,578.5
					c0.3,0.3,0.9,0.6,1.4,0.6c0.9,0,1.7-0.7,1.8-2.7c-0.4,0.6-1.2,0.9-1.8,0.9c-1.5,0-2.7-0.9-2.7-2.9c0-2,1.4-3.1,3-3.1
					c1.7,0,3.4,1.3,3.4,4.7c0,3.3-1.8,4.9-3.6,4.9c-1.2,0-2.1-0.5-2.7-1.1L729.7,578.5z M732.8,574.9c-0.2-1.5-0.8-2-1.3-2
					c-0.6,0-1.1,0.4-1.1,1.5c0,1,0.5,1.3,1.1,1.3C732,575.8,732.5,575.6,732.8,574.9"/>
				
					<rect x="738.8" y="576.4" style="clip-path:url(#SVGID_00000096059309085400487800000006258172605083278776_);fill:#00943C;" width="3.5" height="1.5"/>
				<path style="clip-path:url(#SVGID_00000096059309085400487800000006258172605083278776_);fill:#00943C;" d="M746,579.6l1-1.4
					c0.6,0.5,1.2,0.9,1.9,0.9c0.9,0,1.4-0.4,1.4-1.1c0-0.8-0.4-1.3-2.4-1.3v-1.5c1.6,0,2.1-0.5,2.1-1.2c0-0.6-0.4-1-1.1-1
					c-0.6,0-1.1,0.3-1.6,0.8l-1.1-1.3c0.9-0.7,1.8-1.1,2.9-1.1c1.9,0,3.2,0.9,3.2,2.5c0,0.9-0.5,1.6-1.5,2v0.1
					c1,0.3,1.8,1.1,1.8,2.2c0,1.7-1.6,2.7-3.4,2.7C747.7,580.9,746.7,580.4,746,579.6"/>
				<path style="clip-path:url(#SVGID_00000096059309085400487800000006258172605083278776_);fill:#00943C;" d="M756.5,576.1
					c0-3.2,1.3-4.7,3.3-4.7c1.9,0,3.3,1.6,3.3,4.7c0,3.2-1.3,4.8-3.3,4.8C757.8,580.9,756.5,579.2,756.5,576.1 M760.9,576.1
					c0-2.5-0.5-3-1.2-3c-0.7,0-1.2,0.5-1.2,3c0,2.5,0.5,3.1,1.2,3.1C760.4,579.2,760.9,578.6,760.9,576.1"/>
				<path style="clip-path:url(#SVGID_00000096059309085400487800000006258172605083278776_);fill:#00943C;" d="M766.7,576.6
					c0-4,2.9-6.6,6.5-6.6c3.1,0,5.1,2.1,5.1,5.1c0,2.6-1.8,3.9-3.3,3.9c-0.8,0-1.5-0.4-1.7-1.1h0c-0.4,0.6-1.1,1-1.7,1
					c-1.1,0-1.9-0.9-1.9-2.2c0-1.8,1.3-3.5,2.9-3.5c0.5,0,0.8,0.2,1.1,0.7h0l0.2-0.6h1.3l-0.7,3.2c-0.2,0.8,0,1.2,0.6,1.2
					c0.9,0,1.7-1,1.7-2.5c0-2-1.1-3.9-3.9-3.9c-2.4,0-4.8,2.1-4.8,5.3c0,2.8,2,4.1,4.2,4.1c0.7,0,1.6-0.2,2.1-0.5l0.5,1.2
					c-0.9,0.5-1.8,0.7-2.8,0.7C769.3,582,766.7,580.3,766.7,576.6 M773,576.9l0.3-1.9c-0.1-0.2-0.4-0.4-0.6-0.4
					c-0.8,0-1.3,1.2-1.3,2c0,0.6,0.3,0.9,0.7,0.9C772.3,577.5,772.6,577.4,773,576.9"/>
				<path style="clip-path:url(#SVGID_00000096059309085400487800000006258172605083278776_);fill:#00943C;" d="M793.2,570.7v1.1
					h-4.7v0.3h3.6v1h-9v-1h3.5v-0.3h-4.6v-1.1h4.6v-0.6h1.8v0.6H793.2z M782.1,575.5h10.9v1.9h-1.5v0.3H791c0.4,0.3,0.9,0.6,1.2,0.8
					l-0.8,0.7h0.7v1h-3.5v0.3h4.6v1.2h-10.8v-1.2h4.4v-0.3h-3.2v-1h3.2V579c-1.9,0.1-2.3,0.1-2.6,0.2c-0.1-0.2-0.2-0.8-0.4-1.1
					c0.2,0,0.4-0.1,0.7-0.1c0.1,0,0.3-0.1,0.6-0.2h-1.4v-0.3h-1.4V575.5z M791.8,575.2h-8.3v-1.9h8.3V575.2z M783.7,576.8h7.6v-0.2
					h-7.6V576.8z M790,574.1h-4.9v0.3h4.9V574.1z M789.1,578c-0.2-0.1-0.3-0.2-0.5-0.3l0,0h-1.8c-0.2,0.1-0.4,0.2-0.6,0.3L789.1,578
					z M790.8,579.2c-0.1-0.1-0.2-0.2-0.4-0.3l-2,0v0.3H790.8z"/>
				<path style="clip-path:url(#SVGID_00000096059309085400487800000006258172605083278776_);fill:#00943C;" d="M800.9,578.3
					c-0.1-0.3-0.3-0.7-0.5-1v4.6h-1.7v-3.8c-0.3,0.8-0.7,1.4-1.1,2c-0.2-0.5-0.5-1.3-0.8-1.7c0.6-0.8,1.3-1.9,1.7-3h-1.5v-1.7h1.8
					v-1.2c-0.4,0.1-0.8,0.1-1.2,0.2c-0.1-0.4-0.3-1-0.5-1.4c1.4-0.2,2.9-0.6,4-1l1,1.5c-0.5,0.2-1,0.3-1.6,0.4v1.5h1.5v1.7h-1.5v0
					c0.3,0.3,1.3,1.3,1.5,1.6L800.9,578.3z M807.3,578.8v3.1h-1.8v-2.8l-3.6,0.7l-0.3-1.7l3.9-0.7v-7.3h1.8v7l1.1-0.2l0.3,1.7
					L807.3,578.8z M803.1,574.1c0.7,0.5,1.5,1.3,1.9,1.8l-1.2,1.2c-0.4-0.6-1.2-1.4-1.9-2L803.1,574.1z M804.1,573.8
					c-0.3-0.5-1.1-1.4-1.8-1.9l1.2-1c0.6,0.5,1.5,1.3,1.9,1.8L804.1,573.8z"/>
				<path style="clip-path:url(#SVGID_00000096059309085400487800000006258172605083278776_);fill:#00943C;" d="M819.2,575.2
					c0.8,2.2,2.2,4.1,4.5,4.9c-0.4,0.4-1.1,1.2-1.3,1.7c-2.2-1-3.5-2.7-4.5-4.8c-0.7,1.9-2,3.6-4.5,4.8c-0.3-0.5-0.8-1.1-1.4-1.5
					c2.7-1.2,3.9-3.1,4.3-5.1h-4.1v-1.9h4.4c0.1-1.1,0.1-2.2,0.1-3.2h2c0,1,0,2.1-0.1,3.2h4.8v1.9H819.2z"/>
			</g>
		</g>
	</g>
</g>
<g id="輸出佈置" class="st99">
</g>
</svg>
