<?xml version="1.0" encoding="utf-8"?>
<!-- Generator: Adobe Illustrator 27.3.1, SVG Export Plug-In . SVG Version: 6.00 Build 0)  -->
<svg version="1.1" xmlns="http://www.w3.org/2000/svg" xmlns:xlink="http://www.w3.org/1999/xlink" x="0px" y="0px"
	 viewBox="0 0 841.9 595.3" style="enable-background:new 0 0 841.9 595.3;" xml:space="preserve">
<style type="text/css">
	.st0{fill:#3B9838;}
	.st1{fill:none;stroke:#FFFFFF;stroke-width:2;stroke-linecap:round;stroke-linejoin:bevel;}
	.st2{opacity:0.73;}
	.st3{fill:#A0A0A0;stroke:#FFFFFF;stroke-width:2;stroke-linecap:round;stroke-linejoin:bevel;}
	.st4{fill:none;stroke:#B3B3B3;stroke-width:4.4344;stroke-linecap:round;stroke-miterlimit:10;}
	.st5{fill:#E6E6E6;}
	.st6{fill:#FFFEFF;}
	.st7{fill:#B3B3B3;}
	.st8{fill:none;stroke:#B3B3B3;stroke-width:4.4344;stroke-miterlimit:10;}
	.st9{fill:none;stroke:#FFFEFF;stroke-width:3;stroke-miterlimit:10;}
	.st10{fill:#12344C;}
	.st11{fill:#E98025;}
	.st12{fill:#808080;}
	.st13{fill:#FFE9BA;}
	.st14{fill:#3E3D4D;}
	.st15{fill:#BCC4C6;}
	.st16{fill:#D24635;}
	.st17{fill:#FCF3EE;}
	.st18{fill:#E8C72E;}
	.st19{fill:#E0A911;}
	.st20{fill:#0071BC;}
	.st21{opacity:0.2;fill:none;stroke:#70931B;stroke-width:2;stroke-miterlimit:10;stroke-dasharray:4,4;}
	.st22{font-family:'SourceHanSansTC-Regular-B5pc-H';}
	.st23{font-size:14.4177px;}
	.st24{font-family:'GenJyuuGothicL-Bold';}
	.st25{font-size:8.4814px;}
	.st26{opacity:0.2;fill:none;stroke:#70931B;stroke-width:1.78;stroke-miterlimit:10;stroke-dasharray:3.56,3.56;}
	.st27{font-family:'SourceHanSansTC-Bold-B5pc-H';}
	.st28{font-size:16.1483px;}
	.st29{font-size:16.1173px;}
	.st30{font-size:12.6535px;}
	.st31{font-family:'MicrosoftJhengHeiBold';}
	.st32{font-size:12px;}
	.st33{font-family:'MicrosoftJhengHeiRegular';}
	.st34{font-size:9.5585px;}
	.st35{fill:#6B6B6B;}
	.st36{font-size:8.9802px;}
	.st37{font-size:43px;}
	.st38{clip-path:url(#SVGID_00000147916468155467153650000005078179278805101700_);}
	.st39{clip-path:url(#SVGID_00000013908967638451345400000005416068554112639673_);fill:#00943C;}
	.st40{clip-path:url(#SVGID_00000181767257712811781630000007328194533093281702_);}
	.st41{clip-path:url(#SVGID_00000000919033018182770640000001291107518832216208_);fill:#00943C;}
	.st42{clip-path:url(#SVGID_00000029742680670584523900000003836206374560412072_);}
	.st43{clip-path:url(#SVGID_00000000919901552845468090000017772729555077862061_);fill:#00943C;}
	.st44{clip-path:url(#SVGID_00000031183844494849889070000010528098261640907428_);}
	.st45{clip-path:url(#SVGID_00000013190280108568073790000007975880333809876142_);fill:#00943C;}
	.st46{clip-path:url(#SVGID_00000168819526460591984690000007991446072660589480_);}
	.st47{clip-path:url(#SVGID_00000026137618456451875350000012666157947584361406_);fill:#00943C;}
	.st48{clip-path:url(#SVGID_00000157302930908081862990000012696112077093814963_);}
	.st49{clip-path:url(#SVGID_00000060733357062387304690000011377723901977394847_);fill:#00943C;}
	.st50{clip-path:url(#SVGID_00000016792244123656676100000006049725983506138508_);}
	.st51{clip-path:url(#SVGID_00000134249570333889898270000006274382744141641648_);fill:#00943C;}
	.st52{clip-path:url(#SVGID_00000098193379697862018100000001438477188623603355_);}
	.st53{clip-path:url(#SVGID_00000035524705842244198150000006637969203608295589_);fill:#00943C;}
	.st54{opacity:0.1;fill:#70931B;}
	.st55{fill:none;stroke:#FFFEFF;stroke-miterlimit:10;}
	.st56{fill:#FFFFFF;}
	.st57{fill:none;stroke:#FFFFFF;stroke-width:1.8113;}
	.st58{fill:#C1272D;}
	.st59{fill:#30AF00;}
	.st60{fill:#0076CB;}
	.st61{fill:#008061;}
	.st62{fill:#F5821F;}
	.st63{fill:#ED1B2D;}
	.st64{fill:#FF0000;}
	.st65{opacity:0.5;fill:url(#SVGID_00000091737554013641394990000012741508295101555372_);}
	.st66{opacity:0.5;fill:url(#SVGID_00000031198143103570706780000010056389870759325866_);}
	.st67{opacity:0.8;}
	.st68{fill-rule:evenodd;clip-rule:evenodd;fill:#D5E7D0;}
	.st69{fill:none;stroke:#040000;stroke-width:0.75;stroke-linejoin:round;stroke-miterlimit:8;}
	.st70{opacity:0;fill-rule:evenodd;clip-rule:evenodd;fill:#040000;}
	.st71{fill:#040000;}
	.st72{fill-rule:evenodd;clip-rule:evenodd;fill:#8FCFC9;}
	.st73{fill-rule:evenodd;clip-rule:evenodd;fill:#F2EA32;}
	.st74{fill-rule:evenodd;clip-rule:evenodd;fill:#040000;}
	.st75{fill-rule:evenodd;clip-rule:evenodd;fill:#FFFFFF;}
	.st76{opacity:0;fill-rule:evenodd;clip-rule:evenodd;}
	.st77{fill:none;stroke:#000000;stroke-width:0.75;stroke-linejoin:round;stroke-miterlimit:8;}
	.st78{fill-rule:evenodd;clip-rule:evenodd;fill:#D9EAD3;}
	.st79{opacity:0;fill-rule:evenodd;clip-rule:evenodd;stroke:#000000;stroke-width:0.75;stroke-miterlimit:10;}
	.st80{fill-rule:evenodd;clip-rule:evenodd;fill:#FCFCFC;stroke:#000000;stroke-width:0.75;stroke-miterlimit:10;}
	.st81{fill:none;stroke:#000000;stroke-width:0.5;stroke-linejoin:round;stroke-miterlimit:8;}
	.st82{fill-rule:evenodd;clip-rule:evenodd;fill:none;stroke:#000000;stroke-width:0.5;stroke-linejoin:round;stroke-miterlimit:8;}
	.st83{fill-rule:evenodd;clip-rule:evenodd;fill:#FFFFFF;stroke:#000000;stroke-width:0.5;stroke-miterlimit:10;}
	.st84{fill-rule:evenodd;clip-rule:evenodd;fill:#D5E7D0;stroke:#000000;stroke-width:0.5;stroke-miterlimit:10;}
	.st85{fill-rule:evenodd;clip-rule:evenodd;fill:#F2EA32;stroke:#000000;stroke-width:0.5;stroke-miterlimit:10;}
	.st86{opacity:0;fill-rule:evenodd;clip-rule:evenodd;fill:#040000;stroke:#000000;stroke-width:0.5;stroke-miterlimit:10;}
	.st87{fill:#D5E7D0;stroke:#000000;stroke-width:0.5;stroke-miterlimit:10;}
	.st88{fill-rule:evenodd;clip-rule:evenodd;fill:#FCFDFD;stroke:#000000;stroke-width:0.5;stroke-miterlimit:10;}
	
		.st89{fill-rule:evenodd;clip-rule:evenodd;fill:none;stroke:#040000;stroke-width:0.75;stroke-linejoin:round;stroke-miterlimit:8;}
	
		.st90{opacity:0;fill-rule:evenodd;clip-rule:evenodd;fill:none;stroke:#040000;stroke-width:0.75;stroke-linejoin:round;stroke-miterlimit:8;}
	.st91{fill:#D5E7D0;stroke:#040000;stroke-width:0.75;stroke-miterlimit:10;}
	.st92{opacity:0;fill-rule:evenodd;clip-rule:evenodd;fill:#040000;stroke:#040000;stroke-width:0.75;stroke-miterlimit:10;}
	.st93{fill-rule:evenodd;clip-rule:evenodd;fill:#FFFFFF;stroke:#040000;stroke-width:0.75;stroke-miterlimit:10;}
	.st94{fill-rule:evenodd;clip-rule:evenodd;fill:#FCFDFD;}
	.st95{fill-rule:evenodd;clip-rule:evenodd;fill:#D5E7D0;stroke:#040000;stroke-width:0.75;stroke-miterlimit:10;}
	.st96{fill-rule:evenodd;clip-rule:evenodd;fill:#FCFDFD;stroke:#040000;stroke-width:0.75;stroke-miterlimit:10;}
	.st97{clip-path:url(#SVGID_00000044141087339603098550000002258162507367974833_);}
	.st98{clip-path:url(#SVGID_00000059295766072992529700000017184094919886410634_);fill:#00943C;}
	.st99{clip-path:url(#SVGID_00000000192426291612309030000001905334563596446122_);}
	.st100{clip-path:url(#SVGID_00000040566089299629828670000007650444151392512906_);fill:#00943C;}
	.st101{clip-path:url(#SVGID_00000062152009908514678780000003363187683666432167_);}
	.st102{clip-path:url(#SVGID_00000107589718190786906100000008259019197148267658_);fill:#00943C;}
	.st103{display:none;}
	.st104{display:inline;fill:none;stroke:#F90000;stroke-width:8;stroke-miterlimit:10;}
	.st105{display:inline;fill:#F90000;}
	.st106{font-family:'SourceHanSansTW-Medium-B5pc-H';}
	.st107{font-size:10.7118px;}
	.st108{display:inline;}
	.st109{font-size:10.6247px;}
	.st110{fill:#F90000;}
	.st111{font-size:9.7075px;}
	.st112{font-size:32.5492px;}
	.st113{font-size:12.1344px;glyph-orientation-vertical:0;writing-mode:tb;}
	.st114{display:inline;fill:none;stroke:#000000;stroke-miterlimit:10;}
	.st115{font-size:9.3394px;}
	.st116{display:inline;fill:none;stroke:#F90000;stroke-width:3;stroke-miterlimit:10;}
	.st117{display:inline;fill:none;stroke:#232323;stroke-miterlimit:10;}
	.st118{display:inline;fill:none;stroke:#F90000;stroke-miterlimit:10;}
	.st119{display:inline;fill:none;stroke:#B3B3B3;stroke-width:4.4344;stroke-linecap:round;stroke-miterlimit:10;}
	.st120{display:inline;fill:#E6E6E6;}
	.st121{display:inline;fill:#FFFEFF;}
	.st122{display:inline;fill:#B3B3B3;}
	.st123{display:inline;fill:none;stroke:#B3B3B3;stroke-width:4.4344;stroke-miterlimit:10;}
	.st124{display:inline;opacity:0.2;fill:none;stroke:#70931B;stroke-width:2;stroke-miterlimit:10;stroke-dasharray:4,4;}
	.st125{font-size:4.6943px;}
</style>
<g id="建築">
	<polygon class="st8" points="336.6,276.4 336.6,222.8 569.7,222.8 569.7,276.4 797.3,276.4 797.3,69.6 584.8,69.6 569.7,69.6 
		336.6,69.6 336.6,69.6 53.5,69.6 53.5,173.6 31.4,173.6 31.4,219 53.5,219 53.5,276.4 	"/>
	<rect x="60.4" y="83.9" class="st5" width="140.2" height="92.1"/>
	<rect x="203.4" y="83.9" class="st5" width="137.9" height="92.1"/>
	<rect x="344.1" y="83.9" class="st5" width="128.8" height="92.1"/>
	<rect x="475.7" y="83.9" class="st5" width="71.8" height="92.1"/>
	<rect x="550.3" y="83.9" class="st5" width="106.4" height="92.1"/>
	<polygon class="st5" points="790.7,76.4 790.7,176.1 659.5,176.1 659.5,83.9 747.4,83.9 747.4,76.4 	"/>
	<g>
		
			<rect x="577.3" y="209.2" transform="matrix(-1 -1.224647e-16 1.224647e-16 -1 1220.334 479.5447)" class="st5" width="65.8" height="61.1"/>
		<g>
			<rect x="597.5" y="209.2" class="st9" width="46.1" height="17.2"/>
		</g>
	</g>
	<g>
		<rect x="213.9" y="208.3" class="st9" width="36.3" height="18.1"/>
	</g>
	<polygon class="st5" points="645.8,270.3 670.3,270.3 689.6,270.3 790.7,270.3 790.7,209.2 673.7,209.2 673.7,245.4 645.8,245.4 	
		"/>
	<polygon class="st5" points="146.2,270.3 172.3,270.3 172.3,245.9 146.2,245.9 146.2,217.7 59.9,217.7 59.9,270.3 	"/>
	<line class="st9" x1="745.6" y1="270.5" x2="745.6" y2="208.6"/>
	
		<rect x="175.3" y="209.2" transform="matrix(-1 -1.224647e-16 1.224647e-16 -1 501.9883 479.5447)" class="st5" width="151.4" height="61.1"/>
</g>
<g id="標示">
	<g>
		<path class="st13" d="M736.3,192.6c-3.6,0-6.6,2.3-6.5,2.7c0.6,2.9,3.2,5.2,6.4,5.2c3.2,0,5.8-2.2,6.4-5.1
			C742.7,195,739.9,192.6,736.3,192.6z"/>
		<g>
			<g>
				<g>
					<path class="st14" d="M732.6,197.4c1.4,0,2.8-1,3-2.2c-0.5-1-1.6-1.8-3-1.8c-1.3,0-2.4,0.7-2.9,1.7
						C730,196.3,731.1,197.4,732.6,197.4z"/>
				</g>
			</g>
			<path class="st15" d="M733.2,193.4c0,0,0.3,1,0.3,1.6s-0.1,2.1-0.1,2.1s0.9-0.5,1.2-1.3S734.6,193.6,733.2,193.4z"/>
			<path class="st14" d="M742.4,194.8c0,0.1,0,0.2,0,0.3c-0.3,1.1-2.1,2.2-2.1,2.2s0.1-1.5,0.1-2.1s-0.3-1.6-0.3-1.6
				c0.3,0,0.5,0.1,0.7,0.1c-0.3-0.1-0.7-0.2-1.1-0.2c-1.3,0-2.4,0.7-2.9,1.7c0.2,1.3,1.4,2.3,2.8,2.3c1.4,0,2.8-1,3-2.2
				C742.6,195.1,742.5,195,742.4,194.8z"/>
			<path class="st15" d="M740.3,195.1c0,0.6-0.1,2.1-0.1,2.1s1.8-1,2.1-2.2c0-0.1,0-0.2,0-0.3c-0.4-0.5-0.9-0.9-1.6-1.1
				c-0.2-0.1-0.5-0.1-0.7-0.1C740.1,193.6,740.3,194.5,740.3,195.1z"/>
			<path class="st16" d="M743.9,188.5c0-0.1,0-0.2,0-0.3c0-0.1-0.1-0.1-0.1-0.1l-2.1,0.4c0,0,0,0,0,0c0.4-0.4,1-2.2,1.1-2.6
				c0.1-0.3,0.1-0.5,0-0.6c0-0.1-0.1-0.1-0.2-0.1l-3.1,1c0.1-0.5,0-2.6-0.1-3.1c0-0.2-0.1-0.3-0.2-0.3c0,0-0.1,0-0.1,0l-4.1,3.4
				c-3.4,0.6-6,3.7-6,7.4c0,4.1,3.3,7.5,7.3,7.5s7.3-3.3,7.3-7.5c0-1-0.2-1.9-0.5-2.7c0-0.2,0.1-0.3,0.2-0.5
				C743.6,189.8,743.8,188.9,743.9,188.5z M742.7,195.3c-0.6,2.9-3.2,5.1-6.4,5.1c-3.2,0-5.9-2.2-6.4-5.2c-0.1-0.4,2.9-2.7,6.5-2.7
				S742.7,195,742.7,195.3z"/>
		</g>
		<g>
			<circle class="st17" cx="733.1" cy="189.9" r="2.2"/>
			<g>
				<path class="st14" d="M734.1,189c0,0.3-0.3,0.6-0.7,0.6c-0.4,0-0.7-0.3-0.7-0.7c0-0.2,0.1-0.3,0.2-0.4c-0.7,0.1-1.2,0.6-1.2,1.4
					c0,0.8,0.6,1.4,1.4,1.4c0.8,0,1.4-0.6,1.4-1.4C734.5,189.6,734.3,189.3,734.1,189z"/>
			</g>
		</g>
		<g>
			<circle class="st17" cx="739.5" cy="190.1" r="2.2"/>
			<g>
				<path class="st14" d="M738.5,189.2c0,0.3,0.3,0.6,0.7,0.6c0.4,0,0.7-0.3,0.7-0.7c0-0.2-0.1-0.3-0.2-0.4c0.7,0.1,1.2,0.6,1.2,1.4
					c0,0.8-0.6,1.4-1.4,1.4s-1.4-0.6-1.4-1.4C738.2,189.8,738.3,189.5,738.5,189.2z"/>
			</g>
		</g>
		<g>
			<path class="st18" d="M742.1,194c-0.1-0.3-0.5-0.7-1.6-1.2c-0.8-0.3-2.7-1.1-3.5-1.4c-0.3-0.1-0.5-0.1-0.8,0
				c-0.8,0.2-2.7,0.8-3.6,1.2c-1.1,0.4-1.5,0.6-1.7,1c-0.1,0.3,0,0.5,0.3,0.8c0.3,0.3,2,1.8,2.5,2.2c0.6,0.4,1.8,1.3,2,1.5
				c0.2,0.1,0.4,0.2,0.6,0.3l0,0c0,0,0,0,0,0c0.1,0,0.3,0,0.4,0c0,0,0,0,0,0l0,0c0.2,0,0.4-0.1,0.6-0.3c0.3-0.2,1.5-1.1,2.1-1.5
				s2-1.6,2.3-1.8C742,194.5,742.2,194.3,742.1,194z"/>
			<path class="st19" d="M736.6,191.9c0,0,0,0.1,0.1,0.1c0.1,0.1,0.1,0.2,0.1,0.2s0.1,1.4,0,2.5s-0.2,3-0.2,3s0.4-2.6,0.4-3
				c0.1-0.5,0.3-2,0.2-2.2C737.2,192.2,737,191.9,736.6,191.9z"/>
		</g>
	</g>
	<g>
		<text transform="matrix(1 0 0 1 692.9297 256.628)" class="st10 st22 st23">Toilet</text>
	</g>
	<g id="o3AOjT_00000062906181506486925170000009120625932758246029_">
		<g>
			<g>
				<path class="st10" d="M713.8,227c0.4-0.4,0.8-0.7,1.1-1.1c0.5-0.5,1.1-0.5,1.4,0.2c1.5,3.8,2.9,7.5,4.3,11.3
					c0.3,0.8-0.2,1.5-1,1.6c-0.2,0-0.4,0-0.5,0c-3.4,0-6.8,0-10.2,0c-0.2,0-0.4,0-0.6,0c-1-0.1-1.4-0.8-1.1-1.7
					c0.7-1.9,1.5-3.8,2.2-5.8c0.7-1.8,1.4-3.6,2.1-5.4c0.3-0.7,0.8-0.8,1.3-0.3C713.2,226.3,713.5,226.7,713.8,227z"/>
				<path class="st10" d="M713.9,224.6c-2,0-3.8-1.6-3.8-3.9c0-2,1.6-3.7,3.8-3.7c2.1,0,3.8,1.7,3.8,3.8
					C717.7,222.9,716,224.6,713.9,224.6z"/>
			</g>
		</g>
	</g>
	<g>
		<g>
			<path class="st10" d="M108.9,229.1c0,0.3-0.3,0.4-0.3,0.7c0,0.2,0.1,0.4,0.3,0.6c0.5,0.3,0.5,0.8,0.4,1.3
				c-0.2,1.4-0.3,2.9-0.5,4.3c-0.1,0.6,0.3,0.9,0.5,1.4c0.9-0.8,0.6-1.7,0.5-2.6c-0.1-1.1-0.3-2.3-0.4-3.4c0-0.4,0-0.6,0.3-0.9
				c0.2-0.1,0.4-0.3,0.5-0.6c-0.1-0.2-0.3-0.4-0.4-0.6c0.1-0.2,0.3-0.2,0.5-0.2c1,0,2,0,2.9,0c1.5,0,2.5,1.4,1.9,2.8
				c-0.9,2.3-1.8,4.6-2.7,7c-0.4,1-0.6,2-1.2,2.9c-0.5,0.8-1.3,1.1-2.3,0.9c-1.1-0.2-1.6-0.9-1.9-1.8c-0.8-2-1.6-4.1-2.3-6.1
				c-0.4-0.9-0.7-1.9-1.1-2.8c-0.5-1.4,0.4-2.7,1.9-2.8C106.6,229.1,107.7,229.1,108.9,229.1z"/>
			<path class="st10" d="M109.4,228.5c-2.2,0-4-1.7-4-3.9c0-2.2,1.7-3.9,3.8-4c2.2,0,4,1.7,4,3.8
				C113.3,226.4,111.9,228.4,109.4,228.5z"/>
		</g>
	</g>
	<g>
		<text transform="matrix(1 0 0 1 88.5508 259.6358)" class="st10 st22 st23">Toilet</text>
	</g>
	<g id="mGfqoG_00000106839492139066545580000018047670215535984775_">
		<g>
			<path class="st20" d="M277.3,229.3c0,1.7,0,3.4,0,5.1c0,2-1.4,3.4-3.5,3.4c-3.4,0-6.8,0-10.1,0c-2.1,0-3.5-1.4-3.5-3.5
				c0-3.3,0-6.7,0-10c0-2.2,1.4-3.5,3.6-3.5c3.3,0,6.6,0,10,0c2.2,0,3.6,1.4,3.6,3.6c0,0.8,0,1.7,0,2.5
				C277.3,227.7,277.3,228.5,277.3,229.3z M268.8,222C268.8,222,268.8,222,268.8,222c-1.7,0-3.4,0-5.1,0c-1.5,0-2.3,0.8-2.3,2.3
				c0,3.3,0,6.7,0,10c0,1.5,0.8,2.3,2.3,2.3c3.4,0,6.8,0,10.2,0c1.4,0,2.2-0.9,2.2-2.2c0-3.4,0-6.8,0-10.2c0-1.4-0.8-2.2-2.2-2.2
				C272.2,222,270.5,222,268.8,222z"/>
			<path class="st20" d="M264.3,217.4c0-0.8,0-1.5,0-2.3c0-0.4,0-0.8,0-1.2c0-0.7,0.2-1.1,0.7-1.1c0.4,0,0.7,0.4,0.7,1.1
				c0,0.9,0,1.9,0,2.8c0,0.2-0.1,0.4,0.1,0.5c0.2,0.1,0.3-0.1,0.4-0.3c0.4-0.3,0.7-0.7,1.1-1.1c0.3-0.3,0.6-0.3,0.9,0
				c0.3,0.3,0.4,0.6,0.1,0.9c-1,1-1.9,2.1-2.9,3.1c-0.2,0.2-0.6,0.2-0.8-0.1c-0.9-1-1.8-1.9-2.7-2.9c-0.3-0.3-0.2-0.7,0.1-1
				c0.3-0.3,0.6-0.2,0.9,0.1c0.5,0.5,0.9,1,1.4,1.5C264.2,217.4,264.2,217.4,264.3,217.4z"/>
			<path class="st20" d="M271.9,215.3c-0.5,0.6-1,1-1.4,1.5c-0.4,0.4-0.7,0.5-1.1,0.2c-0.3-0.3-0.3-0.7,0.1-1.1
				c0.8-0.9,1.7-1.8,2.5-2.6c0.4-0.4,0.7-0.4,1.1,0c0.8,0.9,1.7,1.7,2.5,2.6c0.4,0.4,0.4,0.9,0.1,1.2c-0.4,0.4-0.7,0.1-1-0.2
				c-0.4-0.4-0.9-0.8-1.4-1.3c-0.1,0.3,0,0.6,0,0.9c0,0.9,0,1.9,0,2.8c0,0.4-0.1,0.9-0.7,0.9c-0.5,0-0.7-0.4-0.7-0.8
				c0-1.1,0-2.2,0-3.3C271.9,215.7,271.9,215.6,271.9,215.3z"/>
			<path class="st20" d="M273.1,231.8c0,0.9,0,1.8,0,2.6c0,0.2,0,0.4,0,0.6c0,0.4,0,0.8-0.6,0.8c-0.5,0-0.5-0.4-0.5-0.8
				c0-0.9,0-1.7,0-2.6c0-0.4,0-0.8-0.4-1.1c-0.2-0.1-0.2-0.4-0.2-0.6c0-1.1,0-2.3,0-3.4c0-0.7,0.3-0.9,0.9-1c0.5,0,1.1,0,1.6,0
				c0.6,0,0.8,0.3,0.8,0.9c0,1.2,0,2.4,0,3.6c0,0.2,0,0.5-0.2,0.6c-0.4,0.3-0.4,0.6-0.4,1c0,0.9,0,1.7,0,2.6c0,0.4,0.1,0.9-0.5,0.9
				c-0.6,0-0.5-0.5-0.5-0.9c0-1,0-2,0-3C273.2,231.8,273.2,231.8,273.1,231.8z"/>
			<path class="st20" d="M264.4,231.7c0,1.1,0,2.3,0,3.4c0,0.4-0.1,0.7-0.6,0.7c-0.4,0-0.5-0.3-0.5-0.7c0-1,0-2,0-2.9
				c0-0.3,0-0.7-0.3-0.9c-0.2-0.2-0.2-0.4-0.2-0.7c0-1.1,0-2.3,0-3.4c0-0.7,0.3-1,1-1c0.5,0,1,0,1.5,0c0.6,0,0.9,0.3,0.9,0.9
				c0,1.2,0,2.3,0,3.5c0,0.2,0,0.5-0.2,0.6c-0.4,0.3-0.4,0.6-0.4,1c0,0.9,0,1.9,0,2.8c0,0.3,0,0.5-0.3,0.7c-0.4,0.2-0.7,0-0.7-0.6
				c0-1,0-2,0-3c0-0.1,0-0.3,0-0.4C264.4,231.7,264.4,231.7,264.4,231.7z"/>
			<path class="st20" d="M268.7,231.7c0,1.1,0,2.2,0,3.3c0,0.2,0,0.4-0.1,0.6c-0.2,0.2-0.4,0.2-0.6,0.1c-0.3-0.1-0.4-0.3-0.4-0.6
				c0-1,0-1.9,0-2.9c0-0.4,0-0.7-0.4-1c-0.2-0.1-0.2-0.4-0.2-0.6c0-1.2,0-2.3,0-3.5c0-0.6,0.3-0.9,0.9-0.9c0.5,0,1,0,1.5,0
				c0.6,0,0.9,0.3,0.9,0.9c0,1.2,0,2.3,0,3.5c0,0.2,0,0.4-0.2,0.6c-0.4,0.3-0.4,0.7-0.4,1.2c0,0.9,0,1.7,0,2.6c0,0.4,0,0.8-0.6,0.8
				c-0.6,0-0.5-0.4-0.5-0.8c0-1.1,0-2.1,0-3.2C268.8,231.7,268.8,231.7,268.7,231.7z"/>
			<path class="st20" d="M270,224.9c0,0.7-0.6,1.2-1.2,1.2c-0.6,0-1.2-0.6-1.2-1.2c0-0.6,0.6-1.3,1.2-1.3
				C269.4,223.6,270,224.2,270,224.9z"/>
			<path class="st20" d="M274.4,224.9c0,0.7-0.6,1.2-1.2,1.2c-0.6,0-1.2-0.6-1.2-1.2c0-0.7,0.6-1.3,1.2-1.3
				C273.8,223.6,274.4,224.2,274.4,224.9z"/>
			<path class="st20" d="M264.4,226.1c-0.7,0-1.2-0.6-1.2-1.2c0-0.6,0.6-1.2,1.2-1.2c0.7,0,1.3,0.6,1.3,1.2
				C265.7,225.5,265.1,226.1,264.4,226.1z"/>
		</g>
	</g>
	<g id="mGfqoG_00000008133771852510236440000014692462338802887855_">
		<g>
			<path class="st20" d="M277.3,258.6c0,1.7,0,3.4,0,5.1c0,2-1.4,3.4-3.5,3.4c-3.4,0-6.8,0-10.1,0c-2.1,0-3.5-1.4-3.5-3.5
				c0-3.3,0-6.7,0-10c0-2.2,1.4-3.5,3.6-3.5c3.3,0,6.6,0,10,0c2.2,0,3.6,1.4,3.6,3.6c0,0.8,0,1.7,0,2.5
				C277.3,257,277.3,257.8,277.3,258.6z M268.8,251.3C268.8,251.3,268.8,251.3,268.8,251.3c-1.7,0-3.4,0-5.1,0
				c-1.5,0-2.3,0.8-2.3,2.3c0,3.3,0,6.7,0,10c0,1.5,0.8,2.3,2.3,2.3c3.4,0,6.8,0,10.2,0c1.4,0,2.2-0.9,2.2-2.2c0-3.4,0-6.8,0-10.2
				c0-1.4-0.8-2.2-2.2-2.2C272.2,251.3,270.5,251.3,268.8,251.3z"/>
			<path class="st20" d="M264.3,246.7c0-0.8,0-1.5,0-2.3c0-0.4,0-0.8,0-1.2c0-0.7,0.2-1.1,0.7-1.1c0.4,0,0.7,0.4,0.7,1.1
				c0,0.9,0,1.9,0,2.8c0,0.2-0.1,0.4,0.1,0.5c0.2,0.1,0.3-0.1,0.4-0.3c0.4-0.3,0.7-0.7,1.1-1.1c0.3-0.3,0.6-0.3,0.9,0
				c0.3,0.3,0.4,0.6,0.1,0.9c-1,1-1.9,2.1-2.9,3.1c-0.2,0.2-0.6,0.2-0.8-0.1c-0.9-1-1.8-1.9-2.7-2.9c-0.3-0.3-0.2-0.7,0.1-1
				c0.3-0.3,0.6-0.2,0.9,0.1c0.5,0.5,0.9,1,1.4,1.5C264.2,246.7,264.2,246.7,264.3,246.7z"/>
			<path class="st20" d="M271.9,244.6c-0.5,0.6-1,1-1.4,1.5c-0.4,0.4-0.7,0.5-1.1,0.2c-0.3-0.3-0.3-0.7,0.1-1.1
				c0.8-0.9,1.7-1.8,2.5-2.6c0.4-0.4,0.7-0.4,1.1,0c0.8,0.9,1.7,1.7,2.5,2.6c0.4,0.4,0.4,0.9,0.1,1.2c-0.4,0.4-0.7,0.1-1-0.2
				c-0.4-0.4-0.9-0.8-1.4-1.3c-0.1,0.3,0,0.6,0,0.9c0,0.9,0,1.9,0,2.8c0,0.4-0.1,0.9-0.7,0.9c-0.5,0-0.7-0.4-0.7-0.8
				c0-1.1,0-2.2,0-3.3C271.9,245,271.9,244.9,271.9,244.6z"/>
			<path class="st20" d="M273.1,261.1c0,0.9,0,1.8,0,2.6c0,0.2,0,0.4,0,0.6c0,0.4,0,0.8-0.6,0.8c-0.5,0-0.5-0.4-0.5-0.8
				c0-0.9,0-1.7,0-2.6c0-0.4,0-0.8-0.4-1.1c-0.2-0.1-0.2-0.4-0.2-0.6c0-1.1,0-2.3,0-3.4c0-0.7,0.3-0.9,0.9-1c0.5,0,1.1,0,1.6,0
				c0.6,0,0.8,0.3,0.8,0.9c0,1.2,0,2.4,0,3.6c0,0.2,0,0.5-0.2,0.6c-0.4,0.3-0.4,0.6-0.4,1c0,0.9,0,1.7,0,2.6c0,0.4,0.1,0.9-0.5,0.9
				c-0.6,0-0.5-0.5-0.5-0.9c0-1,0-2,0-3C273.2,261.1,273.2,261.1,273.1,261.1z"/>
			<path class="st20" d="M264.4,261c0,1.1,0,2.3,0,3.4c0,0.4-0.1,0.7-0.6,0.7c-0.4,0-0.5-0.3-0.5-0.7c0-1,0-2,0-2.9
				c0-0.3,0-0.7-0.3-0.9c-0.2-0.2-0.2-0.4-0.2-0.7c0-1.1,0-2.3,0-3.4c0-0.7,0.3-1,1-1c0.5,0,1,0,1.5,0c0.6,0,0.9,0.3,0.9,0.9
				c0,1.2,0,2.3,0,3.5c0,0.2,0,0.5-0.2,0.6c-0.4,0.3-0.4,0.6-0.4,1c0,0.9,0,1.9,0,2.8c0,0.3,0,0.5-0.3,0.7c-0.4,0.2-0.7,0-0.7-0.6
				c0-1,0-2,0-3c0-0.1,0-0.3,0-0.4C264.4,261,264.4,261,264.4,261z"/>
			<path class="st20" d="M268.7,261.1c0,1.1,0,2.2,0,3.3c0,0.2,0,0.4-0.1,0.6c-0.2,0.2-0.4,0.2-0.6,0.1c-0.3-0.1-0.4-0.3-0.4-0.6
				c0-1,0-1.9,0-2.9c0-0.4,0-0.7-0.4-1c-0.2-0.1-0.2-0.4-0.2-0.6c0-1.2,0-2.3,0-3.5c0-0.6,0.3-0.9,0.9-0.9c0.5,0,1,0,1.5,0
				c0.6,0,0.9,0.3,0.9,0.9c0,1.2,0,2.3,0,3.5c0,0.2,0,0.4-0.2,0.6c-0.4,0.3-0.4,0.7-0.4,1.2c0,0.9,0,1.7,0,2.6c0,0.4,0,0.8-0.6,0.8
				c-0.6,0-0.5-0.4-0.5-0.8c0-1.1,0-2.1,0-3.2C268.8,261.1,268.8,261.1,268.7,261.1z"/>
			<path class="st20" d="M270,254.2c0,0.7-0.6,1.2-1.2,1.2c-0.6,0-1.2-0.6-1.2-1.2c0-0.6,0.6-1.3,1.2-1.3
				C269.4,252.9,270,253.5,270,254.2z"/>
			<path class="st20" d="M274.4,254.2c0,0.7-0.6,1.2-1.2,1.2c-0.6,0-1.2-0.6-1.2-1.2c0-0.7,0.6-1.3,1.2-1.3
				C273.8,252.9,274.4,253.5,274.4,254.2z"/>
			<path class="st20" d="M264.4,255.4c-0.7,0-1.2-0.6-1.2-1.2c0-0.6,0.6-1.2,1.2-1.2c0.7,0,1.3,0.6,1.3,1.2
				C265.7,254.8,265.1,255.4,264.4,255.4z"/>
		</g>
	</g>
	<g id="mGfqoG_00000055689697584450734380000006284120490756111747_">
		<g>
			<path class="st20" d="M321.4,229.3c0,1.7,0,3.4,0,5.1c0,2-1.4,3.4-3.5,3.4c-3.4,0-6.8,0-10.1,0c-2.1,0-3.5-1.4-3.5-3.5
				c0-3.3,0-6.7,0-10c0-2.2,1.4-3.5,3.6-3.5c3.3,0,6.6,0,10,0c2.2,0,3.6,1.4,3.6,3.6c0,0.8,0,1.7,0,2.5
				C321.4,227.7,321.4,228.5,321.4,229.3z M312.9,222C312.9,222,312.9,222,312.9,222c-1.7,0-3.4,0-5.1,0c-1.5,0-2.3,0.8-2.3,2.3
				c0,3.3,0,6.7,0,10c0,1.5,0.8,2.3,2.3,2.3c3.4,0,6.8,0,10.2,0c1.4,0,2.2-0.9,2.2-2.2c0-3.4,0-6.8,0-10.2c0-1.4-0.8-2.2-2.2-2.2
				C316.3,222,314.6,222,312.9,222z"/>
			<path class="st20" d="M308.4,217.4c0-0.8,0-1.5,0-2.3c0-0.4,0-0.8,0-1.2c0-0.7,0.2-1.1,0.7-1.1c0.4,0,0.7,0.4,0.7,1.1
				c0,0.9,0,1.9,0,2.8c0,0.2-0.1,0.4,0.1,0.5c0.2,0.1,0.3-0.1,0.4-0.3c0.4-0.3,0.7-0.7,1.1-1.1c0.3-0.3,0.6-0.3,0.9,0
				c0.3,0.3,0.4,0.6,0.1,0.9c-1,1-1.9,2.1-2.9,3.1c-0.2,0.2-0.6,0.2-0.8-0.1c-0.9-1-1.8-1.9-2.7-2.9c-0.3-0.3-0.2-0.7,0.1-1
				c0.3-0.3,0.6-0.2,0.9,0.1c0.5,0.5,0.9,1,1.4,1.5C308.3,217.4,308.3,217.4,308.4,217.4z"/>
			<path class="st20" d="M316,215.3c-0.5,0.6-1,1-1.4,1.5c-0.4,0.4-0.7,0.5-1.1,0.2c-0.3-0.3-0.3-0.7,0.1-1.1
				c0.8-0.9,1.7-1.8,2.5-2.6c0.4-0.4,0.7-0.4,1.1,0c0.8,0.9,1.7,1.7,2.5,2.6c0.4,0.4,0.4,0.9,0.1,1.2c-0.4,0.4-0.7,0.1-1-0.2
				c-0.4-0.4-0.9-0.8-1.4-1.3c-0.1,0.3,0,0.6,0,0.9c0,0.9,0,1.9,0,2.8c0,0.4-0.1,0.9-0.7,0.9c-0.5,0-0.7-0.4-0.7-0.8
				c0-1.1,0-2.2,0-3.3C316,215.7,316,215.6,316,215.3z"/>
			<path class="st20" d="M317.3,231.8c0,0.9,0,1.8,0,2.6c0,0.2,0,0.4,0,0.6c0,0.4,0,0.8-0.6,0.8c-0.5,0-0.5-0.4-0.5-0.8
				c0-0.9,0-1.7,0-2.6c0-0.4,0-0.8-0.4-1.1c-0.2-0.1-0.2-0.4-0.2-0.6c0-1.1,0-2.3,0-3.4c0-0.7,0.3-0.9,0.9-1c0.5,0,1.1,0,1.6,0
				c0.6,0,0.8,0.3,0.8,0.9c0,1.2,0,2.4,0,3.6c0,0.2,0,0.5-0.2,0.6c-0.4,0.3-0.4,0.6-0.4,1c0,0.9,0,1.7,0,2.6c0,0.4,0.1,0.9-0.5,0.9
				c-0.6,0-0.5-0.5-0.5-0.9c0-1,0-2,0-3C317.3,231.8,317.3,231.8,317.3,231.8z"/>
			<path class="st20" d="M308.5,231.7c0,1.1,0,2.3,0,3.4c0,0.4-0.1,0.7-0.6,0.7c-0.4,0-0.5-0.3-0.5-0.7c0-1,0-2,0-2.9
				c0-0.3,0-0.7-0.3-0.9c-0.2-0.2-0.2-0.4-0.2-0.7c0-1.1,0-2.3,0-3.4c0-0.7,0.3-1,1-1c0.5,0,1,0,1.5,0c0.6,0,0.9,0.3,0.9,0.9
				c0,1.2,0,2.3,0,3.5c0,0.2,0,0.5-0.2,0.6c-0.4,0.3-0.4,0.6-0.4,1c0,0.9,0,1.9,0,2.8c0,0.3,0,0.5-0.3,0.7c-0.4,0.2-0.7,0-0.7-0.6
				c0-1,0-2,0-3c0-0.1,0-0.3,0-0.4C308.5,231.7,308.5,231.7,308.5,231.7z"/>
			<path class="st20" d="M312.8,231.7c0,1.1,0,2.2,0,3.3c0,0.2,0,0.4-0.1,0.6c-0.2,0.2-0.4,0.2-0.6,0.1c-0.3-0.1-0.4-0.3-0.4-0.6
				c0-1,0-1.9,0-2.9c0-0.4,0-0.7-0.4-1c-0.2-0.1-0.2-0.4-0.2-0.6c0-1.2,0-2.3,0-3.5c0-0.6,0.3-0.9,0.9-0.9c0.5,0,1,0,1.5,0
				c0.6,0,0.9,0.3,0.9,0.9c0,1.2,0,2.3,0,3.5c0,0.2,0,0.4-0.2,0.6c-0.4,0.3-0.4,0.7-0.4,1.2c0,0.9,0,1.7,0,2.6c0,0.4,0,0.8-0.6,0.8
				c-0.6,0-0.5-0.4-0.5-0.8c0-1.1,0-2.1,0-3.2C312.9,231.7,312.9,231.7,312.8,231.7z"/>
			<path class="st20" d="M314.1,224.9c0,0.7-0.6,1.2-1.2,1.2c-0.6,0-1.2-0.6-1.2-1.2c0-0.6,0.6-1.3,1.2-1.3
				C313.5,223.6,314.1,224.2,314.1,224.9z"/>
			<path class="st20" d="M318.5,224.9c0,0.7-0.6,1.2-1.2,1.2c-0.6,0-1.2-0.6-1.2-1.2c0-0.7,0.6-1.3,1.2-1.3
				C317.9,223.6,318.5,224.2,318.5,224.9z"/>
			<path class="st20" d="M308.5,226.1c-0.7,0-1.2-0.6-1.2-1.2c0-0.6,0.6-1.2,1.2-1.2c0.7,0,1.3,0.6,1.3,1.2
				C309.8,225.5,309.2,226.1,308.5,226.1z"/>
		</g>
	</g>
	<g id="mGfqoG_00000091718611996868692120000005487920839648585361_">
		<g>
			<path class="st20" d="M321.4,258.6c0,1.7,0,3.4,0,5.1c0,2-1.4,3.4-3.5,3.4c-3.4,0-6.8,0-10.1,0c-2.1,0-3.5-1.4-3.5-3.5
				c0-3.3,0-6.7,0-10c0-2.2,1.4-3.5,3.6-3.5c3.3,0,6.6,0,10,0c2.2,0,3.6,1.4,3.6,3.6c0,0.8,0,1.7,0,2.5S321.4,257.8,321.4,258.6z
				 M312.9,251.3C312.9,251.3,312.9,251.3,312.9,251.3c-1.7,0-3.4,0-5.1,0c-1.5,0-2.3,0.8-2.3,2.3c0,3.3,0,6.7,0,10
				c0,1.5,0.8,2.3,2.3,2.3c3.4,0,6.8,0,10.2,0c1.4,0,2.2-0.9,2.2-2.2c0-3.4,0-6.8,0-10.2c0-1.4-0.8-2.2-2.2-2.2
				C316.3,251.3,314.6,251.3,312.9,251.3z"/>
			<path class="st20" d="M308.4,246.7c0-0.8,0-1.5,0-2.3c0-0.4,0-0.8,0-1.2c0-0.7,0.2-1.1,0.7-1.1c0.4,0,0.7,0.4,0.7,1.1
				c0,0.9,0,1.9,0,2.8c0,0.2-0.1,0.4,0.1,0.5c0.2,0.1,0.3-0.1,0.4-0.3c0.4-0.3,0.7-0.7,1.1-1.1c0.3-0.3,0.6-0.3,0.9,0
				c0.3,0.3,0.4,0.6,0.1,0.9c-1,1-1.9,2.1-2.9,3.1c-0.2,0.2-0.6,0.2-0.8-0.1c-0.9-1-1.8-1.9-2.7-2.9c-0.3-0.3-0.2-0.7,0.1-1
				c0.3-0.3,0.6-0.2,0.9,0.1c0.5,0.5,0.9,1,1.4,1.5C308.3,246.7,308.3,246.7,308.4,246.7z"/>
			<path class="st20" d="M316,244.6c-0.5,0.6-1,1-1.4,1.5c-0.4,0.4-0.7,0.5-1.1,0.2c-0.3-0.3-0.3-0.7,0.1-1.1
				c0.8-0.9,1.7-1.8,2.5-2.6c0.4-0.4,0.7-0.4,1.1,0c0.8,0.9,1.7,1.7,2.5,2.6c0.4,0.4,0.4,0.9,0.1,1.2c-0.4,0.4-0.7,0.1-1-0.2
				c-0.4-0.4-0.9-0.8-1.4-1.3c-0.1,0.3,0,0.6,0,0.9c0,0.9,0,1.9,0,2.8c0,0.4-0.1,0.9-0.7,0.9c-0.5,0-0.7-0.4-0.7-0.8
				c0-1.1,0-2.2,0-3.3C316,245,316,244.9,316,244.6z"/>
			<path class="st20" d="M317.3,261.1c0,0.9,0,1.8,0,2.6c0,0.2,0,0.4,0,0.6c0,0.4,0,0.8-0.6,0.8c-0.5,0-0.5-0.4-0.5-0.8
				c0-0.9,0-1.7,0-2.6c0-0.4,0-0.8-0.4-1.1c-0.2-0.1-0.2-0.4-0.2-0.6c0-1.1,0-2.3,0-3.4c0-0.7,0.3-0.9,0.9-1c0.5,0,1.1,0,1.6,0
				c0.6,0,0.8,0.3,0.8,0.9c0,1.2,0,2.4,0,3.6c0,0.2,0,0.5-0.2,0.6c-0.4,0.3-0.4,0.6-0.4,1c0,0.9,0,1.7,0,2.6c0,0.4,0.1,0.9-0.5,0.9
				c-0.6,0-0.5-0.5-0.5-0.9c0-1,0-2,0-3C317.3,261.1,317.3,261.1,317.3,261.1z"/>
			<path class="st20" d="M308.5,261c0,1.1,0,2.3,0,3.4c0,0.4-0.1,0.7-0.6,0.7c-0.4,0-0.5-0.3-0.5-0.7c0-1,0-2,0-2.9
				c0-0.3,0-0.7-0.3-0.9c-0.2-0.2-0.2-0.4-0.2-0.7c0-1.1,0-2.3,0-3.4c0-0.7,0.3-1,1-1c0.5,0,1,0,1.5,0c0.6,0,0.9,0.3,0.9,0.9
				c0,1.2,0,2.3,0,3.5c0,0.2,0,0.5-0.2,0.6c-0.4,0.3-0.4,0.6-0.4,1c0,0.9,0,1.9,0,2.8c0,0.3,0,0.5-0.3,0.7c-0.4,0.2-0.7,0-0.7-0.6
				c0-1,0-2,0-3c0-0.1,0-0.3,0-0.4C308.5,261,308.5,261,308.5,261z"/>
			<path class="st20" d="M312.8,261.1c0,1.1,0,2.2,0,3.3c0,0.2,0,0.4-0.1,0.6c-0.2,0.2-0.4,0.2-0.6,0.1c-0.3-0.1-0.4-0.3-0.4-0.6
				c0-1,0-1.9,0-2.9c0-0.4,0-0.7-0.4-1c-0.2-0.1-0.2-0.4-0.2-0.6c0-1.2,0-2.3,0-3.5c0-0.6,0.3-0.9,0.9-0.9c0.5,0,1,0,1.5,0
				c0.6,0,0.9,0.3,0.9,0.9c0,1.2,0,2.3,0,3.5c0,0.2,0,0.4-0.2,0.6c-0.4,0.3-0.4,0.7-0.4,1.2c0,0.9,0,1.7,0,2.6c0,0.4,0,0.8-0.6,0.8
				c-0.6,0-0.5-0.4-0.5-0.8c0-1.1,0-2.1,0-3.2C312.9,261.1,312.9,261.1,312.8,261.1z"/>
			<path class="st20" d="M314.1,254.2c0,0.7-0.6,1.2-1.2,1.2c-0.6,0-1.2-0.6-1.2-1.2c0-0.6,0.6-1.3,1.2-1.3
				C313.5,252.9,314.1,253.5,314.1,254.2z"/>
			<path class="st20" d="M318.5,254.2c0,0.7-0.6,1.2-1.2,1.2c-0.6,0-1.2-0.6-1.2-1.2c0-0.7,0.6-1.3,1.2-1.3
				C317.9,252.9,318.5,253.5,318.5,254.2z"/>
			<path class="st20" d="M308.5,255.4c-0.7,0-1.2-0.6-1.2-1.2c0-0.6,0.6-1.2,1.2-1.2c0.7,0,1.3,0.6,1.3,1.2
				C309.8,254.8,309.2,255.4,308.5,255.4z"/>
		</g>
	</g>
	<line class="st9" x1="250.7" y1="270.5" x2="250.7" y2="208.6"/>
	<line class="st9" x1="674.3" y1="270.5" x2="674.3" y2="208.6"/>
	<g id="s8VYHe_00000029042632614507944060000009146045187768811157_">
		<g>
			<path class="st11" d="M660.3,242.8c1.4,0,2.7,0,4.1,0c0.5,0,0.9,0.3,1,0.8c0.1,0.6-0.3,1.1-0.9,1.1c-1,0-1.9,0-2.9,0
				c-0.2,0-0.2,0-0.2,0.2c0,0.9,0,1.8,0,2.7c0,0.1,0,0.2,0.2,0.2c0.5,0,0.9,0.5,1,1c0,0.2,0,0.2,0.2,0.2c1.3,0,2.6,0,3.8,0
				c0.2,0,0.2,0,0.2-0.2c0-0.8,0-1.6,0-2.4c0-0.4,0.2-0.6,0.6-0.6c0.3,0,0.6,0,1,0c0.1,0,0.1,0,0.1,0.1c0,0.5,0,1.1,0,1.6
				c0,0.5,0,0.9,0,1.4c0,0.5,0,1.1,0,1.6c0,0.5,0,1,0,1.5c0,0.2,0,0.4,0,0.6c0,0.5,0,1,0,1.5c0,0.3,0,0.5,0,0.8c0,0.2,0,0.2-0.2,0.2
				c-0.3,0-0.6,0-1,0c-0.4,0-0.6-0.2-0.6-0.6c0-0.8,0-1.6,0-2.4c0-0.2,0-0.2-0.2-0.2c-0.5,0-1.1,0-1.6,0c-0.5,0-0.9,0-1.4,0
				c-0.3,0-0.6,0-0.8,0c-0.2,0-0.2,0-0.2,0.2c-0.1,0.6-0.6,1-1.2,1c-0.6,0-1.3,0-1.9,0c-0.6,0-1.1-0.4-1.2-1c0-0.1-0.1-0.1-0.2-0.1
				c-0.3,0-0.7,0-1,0c-0.6,0-1.2,0-1.8,0c-0.2,0-0.5,0-0.7,0.1c-0.5,0.2-0.9,0.7-0.9,1.3c0,0.5,0,1,0,1.5c0,0.6,0,1.1,0,1.7
				c0,0.1,0,0.1-0.1,0.1c-0.9,0-1.9,0-2.8,0c-0.1,0-0.1-0.1-0.1-0.2c0-0.5,0-1,0-1.5c0-0.8,0-1.6,0-2.3c0-0.6,0.2-1.1,0.5-1.5
				c0.6-0.9,1.5-1.5,2.5-1.8c0.7-0.2,1.4-0.3,2.1-0.3c0.8,0,1.6,0,2.4,0c0.1,0,0.2,0,0.2-0.1c0.1-0.6,0.5-0.9,1-1
				c0.1,0,0.1-0.1,0.1-0.2c0-0.9,0-1.8,0-2.8c0-0.1,0-0.2-0.2-0.2c-1,0-1.9,0-2.9,0c-0.5,0-0.8-0.3-1-0.7c-0.2-0.6,0.3-1.2,0.9-1.2
				c0.8,0,1.5,0,2.3,0C659.1,242.8,659.7,242.8,660.3,242.8C660.3,242.8,660.3,242.8,660.3,242.8z"/>
			<path class="st11" d="M651.9,259.1c1.6,0,3.1,0,4.7,0c0.2,0,0.2,0,0.2,0.2c-0.1,0.9-0.2,1.8-0.3,2.7c-0.1,0.9-0.2,1.8-0.3,2.6
				c-0.1,0.7-0.2,1.4-0.2,2.1c0,0.5-0.1,1-0.2,1.5c-0.1,0.8-0.2,1.6-0.3,2.3c0,0.2,0,0.2-0.2,0.2c-0.5,0-1,0-1.4,0c-0.5,0-1,0-1.5,0
				c-0.5,0-1.1,0-1.6,0c-0.2,0-0.4,0-0.6,0c-0.5,0-1.1,0-1.6,0c-0.1,0-0.2,0-0.2-0.1c-0.1-0.7-0.1-1.3-0.2-2
				c-0.1-0.7-0.2-1.4-0.2-2.1c-0.1-0.5-0.1-1.1-0.2-1.6c-0.1-0.7-0.2-1.4-0.2-2.1c-0.1-0.5-0.1-1.1-0.2-1.6
				c-0.1-0.6-0.1-1.3-0.2-1.9c0-0.1,0.1-0.1,0.2-0.1c0.8,0,1.6,0,2.5,0C650.4,259.1,651.2,259.1,651.9,259.1
				C651.9,259.1,651.9,259.1,651.9,259.1z M652,262.5c1.1,0,2.2,0,3.3,0c0.1,0,0.2,0,0.2-0.2c0.1-0.6,0.1-1.3,0.2-1.9
				c0-0.2,0-0.2-0.2-0.2c-0.6,0-1.2,0-1.8,0c-0.2,0-0.5,0-0.7,0c-0.5,0-1,0-1.5,0c-0.5,0-1,0-1.5,0c-0.5,0-1,0-1.5,0
				c-0.2,0-0.2,0-0.2,0.2c0,0.3,0.1,0.6,0.1,1c0,0.3,0.1,0.6,0.1,0.9c0,0.1,0.1,0.2,0.2,0.2c0.1,0,0.1,0,0.2,0
				C649.9,262.5,650.9,262.5,652,262.5z"/>
		</g>
	</g>
	<line class="st9" x1="145.9" y1="270.5" x2="145.9" y2="212.8"/>
	<g id="p7iPoC_00000045578350114944326740000009587092324383579778_">
		<g>
			<path class="st10" d="M161.4,259.3c0.7,0,1.4,0,2.1,0c0.6,0,0.9,0.3,1.1,0.8c0.4,1.4,0.9,2.8,1.3,4.2c0.1,0.4,0.3,0.8,0.4,1.2
				c0.1,0.5-0.1,0.8-0.5,1c-0.4,0.1-0.9-0.1-1-0.5c-0.5-1.5-1-3-1.5-4.5c-0.1-0.2-0.2-0.3-0.4-0.3c-1.5,0.1-3,0-4.5,0
				c-0.3,0-0.7,0-1-0.1c-0.4-0.1-0.7-0.3-0.8-0.8c-0.3-1.4-0.5-2.9-0.7-4.3c-0.1-0.5-0.1-1-0.2-1.5c-0.1-0.7,0.2-1.2,0.8-1.4
				c0.3-0.1,0.5-0.1,0.8-0.1c0.6,0.1,1,0.4,1.1,1c0.1,0.6,0.3,1.2,0.4,1.8c0,0.2,0.1,0.2,0.3,0.2c0.8,0,1.6,0,2.4,0
				c0.6,0,1,0.6,0.7,1.1c-0.1,0.2-0.3,0.3-0.5,0.3c-0.8,0-1.6,0-2.3,0c-0.2,0-0.2,0.1-0.2,0.3c0.1,0.4,0.1,0.7,0.2,1.1
				c0,0.2,0.1,0.2,0.3,0.2C160.2,259.3,160.8,259.3,161.4,259.3z"/>
			<path class="st10" d="M152,261.6c0-2.3,1.4-4.2,3.4-5c0.2-0.1,0.3-0.1,0.3,0.2c0,0.2,0.1,0.5,0.1,0.7c0,0.2,0,0.3-0.2,0.3
				c-1,0.5-1.7,1.2-2.1,2.2c-1,2.5,0.5,5,3,5.6c2.6,0.6,4.7-1.2,5-3.4c0.1-0.5,0.1-0.5,0.6-0.5c0.2,0,0.4,0,0.5,0
				c0.1,0,0.2,0.1,0.2,0.2c-0.1,1.4-0.6,2.7-1.7,3.7c-1.2,1.1-2.6,1.6-4.1,1.5c-2.5-0.2-4.6-1.9-5-4.5
				C152,262.2,152,261.9,152,261.6z"/>
			<path class="st10" d="M157.6,249.9c0.8,0,1.5,0.7,1.5,1.5c0,0.8-0.7,1.5-1.5,1.5c-0.8,0-1.5-0.7-1.5-1.5
				C156.1,250.5,156.8,249.9,157.6,249.9z"/>
		</g>
	</g>
	<g id="BbVIEC_00000123407397488054403010000015292843411186122889_">
		<g>
			<g>
				<path class="st12" d="M223.2,261.9c-8.2,0-16.4,0-24.5,0c-0.5,0-0.5-0.1-0.5-0.5c0-1.5,0-3,0-4.5c0.2-0.3,0.5-0.3,0.8-0.3
					c1.2,0,2.4,0,3.6,0c0.6,0,0.8-0.1,0.8-0.8c0-1.2,0-2.4,0-3.5c0-0.8,0.1-0.9,0.9-0.9c1.2,0,2.3,0,3.5,0c0.7,0,0.9-0.1,0.9-0.9
					c0-1.2,0-2.4,0-3.5c0-0.6,0.2-0.8,0.8-0.8c1.2,0,2.4,0,3.6,0c0.7,0,0.8-0.1,0.8-0.8c0-1.1,0-2.3,0-3.4c0-0.9,0.1-1,1-1
					c1.1,0,2.3,0,3.4,0c0.7,0,0.8-0.1,0.8-0.9c0-1.2,0-2.4,0-3.5c0-0.7,0.2-0.8,0.8-0.8c1.1,0,2.2,0,3.4,0c1.1,0,1.1,0.1,1.1,1.1
					c0,7.7,0,15.3,0,23C224.3,260.7,224,261.4,223.2,261.9z M215.4,255.6C215.4,255.6,215.4,255.6,215.4,255.6c0.7,0,1.4,0,2.1,0
					c0.6,0,0.6-0.4,0.6-0.8c0-0.4,0-0.8-0.6-0.8c-0.4,0-0.8,0-1.3,0c-0.2,0-0.4,0.1-0.5-0.1c-0.1-0.2,0.1-0.3,0.2-0.4
					c1.2-1.2,2.4-2.5,3.7-3.7c0.5-0.6,0.6-0.7,0.1-1.2c-0.5-0.5-0.7-0.5-1.2,0.1c-0.1,0.1-0.2,0.2-0.4,0.4c-1.1,1.1-2.2,2.2-3.4,3.4
					c-0.1,0.1-0.2,0.3-0.4,0.2c-0.1-0.1-0.1-0.2-0.1-0.4c0-0.4,0-0.9,0-1.3c0-0.5-0.2-0.7-0.7-0.7c-0.7,0-0.9,0.1-0.9,0.7
					c0,1.4,0,2.7,0,4.1c0,0.5,0.2,0.7,0.7,0.7C214,255.6,214.7,255.6,215.4,255.6z"/>
				<path class="st12" d="M205.7,241.3c-0.7,0-1.2,0-1.7,0c-0.6,0-0.8-0.2-0.8-0.8c0-0.7,0.1-1,0.7-1c1.4,0,2.9,0,4.3,0
					c0.5,0,0.7,0.3,0.7,0.7c0,1.4,0,2.8,0,4.2c0,0.6-0.3,0.8-1,0.8c-0.7,0-0.9-0.2-0.9-0.8c0-0.5,0-1,0-1.4
					c-0.3-0.1-0.4,0.2-0.6,0.3c-1.2,1.1-2.3,2.3-3.4,3.4c-0.6,0.6-1.4,0.5-1.7-0.4c-0.1-0.4,0.1-0.6,0.3-0.8
					c1.2-1.2,2.4-2.4,3.6-3.6C205.3,241.7,205.5,241.5,205.7,241.3z"/>
			</g>
		</g>
	</g>
	<g id="BbVIEC_00000001622281638101647930000016193522197748986018_">
		<g>
			<g>
				<path class="st12" d="M621.8,261.9c-8.2,0-16.4,0-24.5,0c-0.5,0-0.5-0.1-0.5-0.5c0-1.5,0-3,0-4.5c0.2-0.3,0.5-0.3,0.8-0.3
					c1.2,0,2.4,0,3.6,0c0.6,0,0.8-0.1,0.8-0.8c0-1.2,0-2.4,0-3.5c0-0.8,0.1-0.9,0.9-0.9c1.2,0,2.3,0,3.5,0c0.7,0,0.9-0.1,0.9-0.9
					c0-1.2,0-2.4,0-3.5c0-0.6,0.2-0.8,0.8-0.8c1.2,0,2.4,0,3.6,0c0.7,0,0.8-0.1,0.8-0.8c0-1.1,0-2.3,0-3.4c0-0.9,0.1-1,1-1
					c1.1,0,2.3,0,3.4,0c0.7,0,0.8-0.1,0.8-0.9c0-1.2,0-2.4,0-3.5c0-0.7,0.2-0.8,0.8-0.8c1.1,0,2.2,0,3.4,0c1.1,0,1.1,0.1,1.1,1.1
					c0,7.7,0,15.3,0,23C622.9,260.7,622.6,261.4,621.8,261.9z M614,255.6C614,255.6,614,255.6,614,255.6c0.7,0,1.4,0,2.1,0
					c0.6,0,0.6-0.4,0.6-0.8c0-0.4,0-0.8-0.6-0.8c-0.4,0-0.8,0-1.3,0c-0.2,0-0.4,0.1-0.5-0.1c-0.1-0.2,0.1-0.3,0.2-0.4
					c1.2-1.2,2.4-2.5,3.7-3.7c0.5-0.6,0.6-0.7,0.1-1.2c-0.5-0.5-0.7-0.5-1.2,0.1c-0.1,0.1-0.2,0.2-0.4,0.4c-1.1,1.1-2.2,2.2-3.4,3.4
					c-0.1,0.1-0.2,0.3-0.4,0.2c-0.1-0.1-0.1-0.2-0.1-0.4c0-0.4,0-0.9,0-1.3c0-0.5-0.2-0.7-0.7-0.7c-0.7,0-0.9,0.1-0.9,0.7
					c0,1.4,0,2.7,0,4.1c0,0.5,0.2,0.7,0.7,0.7C612.7,255.6,613.3,255.6,614,255.6z"/>
				<path class="st12" d="M604.3,241.3c-0.7,0-1.2,0-1.7,0c-0.6,0-0.8-0.2-0.8-0.8c0-0.7,0.1-1,0.7-1c1.4,0,2.9,0,4.3,0
					c0.5,0,0.7,0.3,0.7,0.7c0,1.4,0,2.8,0,4.2c0,0.6-0.3,0.8-1,0.8c-0.7,0-0.9-0.2-0.9-0.8c0-0.5,0-1,0-1.4
					c-0.3-0.1-0.4,0.2-0.6,0.3c-1.2,1.1-2.3,2.3-3.4,3.4c-0.6,0.6-1.4,0.5-1.7-0.4c-0.1-0.4,0.1-0.6,0.3-0.8
					c1.2-1.2,2.4-2.4,3.6-3.6C604,241.7,604.1,241.5,604.3,241.3z"/>
			</g>
		</g>
	</g>
	<g>
		<text transform="matrix(1 0 0 1 748.3878 195.875)" class="st0 st24 st25">大會攤位</text>
	</g>
	<rect x="721.8" y="179.8" class="st26" width="67.9" height="25.4"/>
	<g>
		<text transform="matrix(1 0 0 1 711.2335 125.1182)" class="st0 st27 st28">309</text>
	</g>
	<g>
		<text transform="matrix(1 0 0 1 581.8331 125.1182)" class="st0 st27 st28">310-1</text>
	</g>
	<g>
		<text transform="matrix(1 0 0 1 394.3955 125.1182)" class="st0 st27 st28">311</text>
	</g>
	<g>
		<text transform="matrix(1 0 0 1 489.416 125.1182)" class="st0 st27 st28">310-2</text>
	</g>
	<g>
		<text transform="matrix(1 0 0 1 258.1016 125.0249)" class="st0 st27 st29">312</text>
	</g>
	<g>
		<text transform="matrix(1 0 0 1 116.2383 125.1182)" class="st0 st27 st28">313</text>
	</g>
	<g>
		<text transform="matrix(1 0 0 1 557.0743 147.3721)" class="st22 st30">按摩小站/形象照</text>
	</g>
	<g>
		<text transform="matrix(1 0 0 1 685.0587 147.3721)" class="st22 st30">社群/贊助攤位</text>
	</g>
	<g>
		<text transform="matrix(1 0 0 1 486.1172 147.3721)" class="st22 st30">紅酒瑜珈</text>
	</g>
	<g>
		<text transform="matrix(1 0 0 1 383.3565 147.3721)" class="st22 st30">議程教室</text>
	</g>
	<g>
		<text transform="matrix(1 0 0 1 105.1993 147.3721)" class="st22 st30">議程教室</text>
	</g>
	<g>
		<text transform="matrix(1 0 0 1 247.0342 147.3721)" class="st22 st30">議程教室</text>
	</g>
	<g>
		<text transform="matrix(1 0 0 1 72.512 502.9617)" class="st0 st31 st32">310-2</text>
	</g>
	<g>
		<text transform="matrix(1 0 0 1 367.8151 373.4965)" class="st0 st31 st32">311</text>
	</g>
	<g>
		<text transform="matrix(1 0 0 1 367.8157 455.0487)" class="st0 st31 st32">312</text>
	</g>
	<g>
		<text transform="matrix(1 0 0 1 367.8157 502.9617)" class="st0 st31 st32">313</text>
	</g>
	<g>
		<text transform="matrix(1 0 0 1 72.512 373.6206)" class="st0 st31 st32">309</text>
	</g>
	<g>
		<text transform="matrix(1 0 0 1 116.4016 390.1624)" class="st33 st34">社群/贊助攤位</text>
	</g>
	<g>
		<text transform="matrix(1 0 0 1 72.512 421.6446)" class="st0 st31 st32">310-1</text>
	</g>
	<g>
		<text transform="matrix(1 0 0 1 116.4014 437.29)" class="st33 st34">HKOSCon 特別軌</text>
	</g>
	<text transform="matrix(1 0 0 1 116.4009 421.7959)" class="st35 st31 st36">Day01</text>
	<g>
		<text transform="matrix(1 0 0 1 116.401 518.2771)" class="st33 st34">按摩小站 /專業形象照</text>
	</g>
	<text transform="matrix(1 0 0 1 116.4017 502.9617)" class="st35 st31 st36">Day01 / Day02</text>
	<g>
		<text transform="matrix(1 0 0 1 405.9951 470.6961)" class="st33 st34">Google 開發者派對</text>
	</g>
	<text transform="matrix(1 0 0 1 405.9944 454.4654)" class="st35 st31 st36">Day01 / Day02</text>
	<text transform="matrix(1 0 0 1 116.4009 374.2643)" class="st35 st31 st36">Day01 / Day02</text>
	<g>
		<text transform="matrix(1 0 0 1 116.4011 455.049)" class="st35 st31 st36">Day02</text>
	</g>
	<text transform="matrix(1 0 0 1 116.4009 470.7707)" class="st33 st34">Open Source Chatbot / 開放授權的克萊兜史夠普</text>
	<g>
		<text transform="matrix(1 0 0 1 405.9954 518.2772)" class="st33 st34">開放教育</text>
	</g>
	<text transform="matrix(1 0 0 1 405.9949 502.2782)" class="st35 st31 st36">Day01</text>
	<g>
		<text transform="matrix(1 0 0 1 405.9954 535.7991)" class="st35 st31 st36">Day02</text>
	</g>
	<text transform="matrix(1 0 0 1 405.9949 551.1268)" class="st33 st34">開源新手村</text>
	<g>
		<text transform="matrix(1 0 0 1 405.9951 388.9324)" class="st33 st34">療癒講座</text>
	</g>
	<text transform="matrix(1 0 0 1 405.9949 373.4968)" class="st35 st31 st36">Day01</text>
	<g>
		<text transform="matrix(1 0 0 1 405.9946 407.2626)" class="st35 st31 st36">Day02</text>
	</g>
	<text transform="matrix(1 0 0 1 405.9951 422.4442)" class="st33 st34">Hacking Room /CNTUG workshop</text>
</g>
<g id="樓層位置">
	<g>
		<text transform="matrix(1 0 0 1 72.2644 339.1414)" class="st0 st27 st37">TR3F</text>
	</g>
	<g>
		<g>
			<defs>
				<rect id="SVGID_00000114063255558433332790000014619796937218829478_" x="645.9" y="463.1" width="169.6" height="113.1"/>
			</defs>
			<clipPath id="SVGID_00000127016003912315908320000004625981090243841703_">
				<use xlink:href="#SVGID_00000114063255558433332790000014619796937218829478_"  style="overflow:visible;"/>
			</clipPath>
			<g style="clip-path:url(#SVGID_00000127016003912315908320000004625981090243841703_);">
				<defs>
					<rect id="SVGID_00000075159967349888318220000017021367475783807397_" x="645.9" y="463.1" width="169.6" height="113.1"/>
				</defs>
				<clipPath id="SVGID_00000085942407345512318100000011535249134883615891_">
					<use xlink:href="#SVGID_00000075159967349888318220000017021367475783807397_"  style="overflow:visible;"/>
				</clipPath>
				<path style="clip-path:url(#SVGID_00000085942407345512318100000011535249134883615891_);fill:#00943C;" d="M679.5,503.2
					l-2.1,8.9h-3c0.1-0.3,0.1-0.6,0.2-0.9c0.1-0.3,0.1-0.8,0.1-1.3c0-1.2-0.2-2.2-0.6-2.9c-0.6-1-1.6-1.5-2.9-1.5
					c-1.8,0-3.6,1.2-5.6,3.5c-2.1,2.4-3.1,4.9-3.1,7.4c0,1.9,0.5,3.4,1.4,4.5c1,1.1,2.2,1.6,3.7,1.6c1.3,0,2.8-0.6,4.6-1.9
					c0.6-0.4,1.4-1,2.4-1.9l3,1.9c-0.4,0.4-0.9,0.8-1.3,1.2c-1.2,1-2.4,1.7-3.8,2.3c-2,0.8-4,1.2-6.1,1.2c-3.1,0-5.6-0.8-7.6-2.3
					c-2.3-1.7-3.4-4.1-3.4-7.1c0-4,1.8-7.3,5.3-9.9c3.3-2.4,7.4-3.6,12.3-3.6c1.1,0,2.5,0.1,4.2,0.3
					C677.7,502.9,678.5,503.1,679.5,503.2"/>
				<path style="clip-path:url(#SVGID_00000085942407345512318100000011535249134883615891_);fill:#00943C;" d="M705.3,509.7
					c0,2-0.4,3.9-1.3,5.5c-0.7,1.4-2,2.9-3.7,4.7c-1.7,1.7-3.8,3-6.2,4c-2.1,0.8-4.2,1.2-6.1,1.2c-3.3,0-5.9-0.9-7.7-2.8
					c-1.7-1.7-2.6-4-2.6-6.8c0-2.4,0.7-4.6,2-6.8c1-1.6,2.2-3.1,3.8-4.4c1.2-1,1.9-1.5,2-1.5l6.1,0c-0.1,0-0.7,0.7-1.7,2.1
					c-1.3,1.7-2.4,3.5-3.3,5.1c-1.2,2.4-1.8,4.6-1.8,6.6c0,2.2,0.5,3.8,1.4,4.8c0.8,0.8,1.9,1.2,3.3,1.2c1.9,0,3.7-1.1,5.3-3.4
					c1.6-2.3,2.4-4.7,2.4-7.3c0-1.2-0.1-2.1-0.4-2.9c-0.3-0.9-1-1.6-1.8-2c-0.2-0.1-0.4-0.2-0.7-0.2c-0.3,0-0.6-0.1-0.9-0.1
					c-0.5,0-0.8,0-1.1,0c-0.3,0-0.5,0.1-0.8,0.1v-2l7.8-2.5c1.3,0.5,2.3,1,3,1.5C704.3,505.2,705.3,507.2,705.3,509.7"/>
				<path style="clip-path:url(#SVGID_00000085942407345512318100000011535249134883615891_);fill:#00943C;" d="M729.4,502.8l-2,7.3
					h-2.8v-0.3c0-0.3,0-0.5,0-0.8c0-0.6,0-1.2-0.1-1.7c-0.1-0.5-0.3-0.9-0.6-1.3c-0.4-0.4-0.8-0.7-1.4-0.9c-0.6-0.2-1.5-0.3-2.9-0.3
					c-1.7,0-3.1,0.3-4.2,0.9c-1.4,0.7-2,1.7-2,3.1c0,1.1,1.1,1.9,3.4,2.6c2.2,0.6,4.5,1.2,6.6,1.8c2.4,1,3.5,2.5,3.5,4.4
					c0,2.3-1.6,4.1-4.9,5.6c-2.9,1.3-6.1,2-9.7,2c-1.4,0-3.2-0.2-5.3-0.7c-0.7-0.1-1.7-0.4-2.9-0.7v-4.1c0.9,0.5,1.7,0.9,2.3,1.2
					c1.9,0.8,3.8,1.2,5.7,1.2c1.8,0,3.3-0.3,4.7-0.9c1.6-0.7,2.4-1.7,2.4-2.9c0-1.2-1.1-2-3.3-2.4c-2.2-0.5-4.4-0.9-6.5-1.3
					c-2.3-0.8-3.4-2.2-3.4-4.3c0-2,0.8-3.7,2.5-5c1.4-1.1,3.4-1.9,5.9-2.4c2-0.4,4.3-0.6,6.9-0.6c1.5,0,3.2,0.1,5.3,0.3
					C727.3,502.6,728.2,502.7,729.4,502.8"/>
				<path style="clip-path:url(#SVGID_00000085942407345512318100000011535249134883615891_);fill:#00943C;" d="M752.1,503.2
					l-2.1,8.9h-3c0.1-0.3,0.1-0.6,0.2-0.9c0.1-0.3,0.1-0.8,0.1-1.3c0-1.2-0.2-2.2-0.6-2.9c-0.6-1-1.6-1.5-2.9-1.5
					c-1.7,0-3.6,1.2-5.6,3.5c-2.1,2.4-3.1,4.9-3.1,7.4c0,1.9,0.5,3.4,1.4,4.5c1,1.1,2.2,1.6,3.7,1.6c1.3,0,2.8-0.6,4.6-1.9
					c0.6-0.4,1.4-1,2.4-1.9l3,1.9c-0.4,0.4-0.9,0.8-1.3,1.2c-1.2,1-2.4,1.7-3.7,2.3c-2,0.8-4,1.2-6.1,1.2c-3.1,0-5.6-0.8-7.6-2.3
					c-2.3-1.7-3.4-4.1-3.4-7.1c0-4,1.8-7.3,5.3-9.9c3.3-2.4,7.4-3.6,12.3-3.6c1.1,0,2.5,0.1,4.2,0.3
					C750.4,502.9,751.2,503.1,752.1,503.2"/>
				<path style="clip-path:url(#SVGID_00000085942407345512318100000011535249134883615891_);fill:#00943C;" d="M778.6,502.7
					l-5.6,22.3h-7.5l1.9-6.4c0.1-0.1,0.1-0.3,0.1-0.5c0-0.2,0.1-0.3,0.1-0.4c0-0.2-0.1-0.4-0.2-0.4c-0.2,0-0.3,0.1-0.5,0.3
					c0,0.1-0.1,0.2-0.2,0.3c-0.5,0.7-0.9,1.3-1.4,2c-1.2,1.5-2.5,2.8-3.8,3.8c-1.8,1.3-3.6,2-5.4,2c-1.7,0-3.1-0.6-4.2-1.7
					c-1-1.1-1.6-2.6-1.6-4.6c0-0.8,0.1-1.8,0.3-3c0.1-0.4,0.2-1,0.4-1.7l3.4-12.1h7.5l-3.7,13.3c0,0.1-0.1,0.3-0.1,0.7
					c-0.1,0.4-0.1,0.7-0.1,1c0,0.7,0.2,1.2,0.5,1.6c0.3,0.4,0.9,0.6,1.8,0.6c1.7,0,3.5-1.5,5.5-4.4c1.4-2.1,2.8-4.9,4.1-8.3
					c0.5-1.5,1.1-3,1.6-4.4H778.6z"/>
				<path style="clip-path:url(#SVGID_00000085942407345512318100000011535249134883615891_);fill:#00943C;" d="M739.7,495.3
					l-3.8-12.1l-2,3.5c-24.1-11.6-34.6,11.2-34.6,11.2s8.7-16.7,30-3.3l-2,3.5L739.7,495.3z"/>
				<path style="clip-path:url(#SVGID_00000085942407345512318100000011535249134883615891_);fill:#00943C;" d="M755.1,486.9
					l-3.8-12.1l-2,3.5c-24.1-11.6-34.6,11.2-34.6,11.2s8.7-16.7,30-3.3l-2,3.5L755.1,486.9z"/>
				<path style="clip-path:url(#SVGID_00000085942407345512318100000011535249134883615891_);fill:#00943C;" d="M803.2,504.1
					c-1.7-1-3.7-1.4-6-1.4h-3.5l-0.5,0.6c0.2,0.4,0.2,0.7,0.2,0.9l0,0.4c0,0.2,0,0.4,0,0.5h0.5c1.4,0,2.5,0.4,3.3,1.3
					c0.9,0.8,1.3,2,1.3,3.6c0,1.9-0.8,3.3-2.5,4.4c-1.1,0.7-2.7,1.2-4.6,1.5c-0.3,0-0.6,0.1-1,0.1l-0.2,0.6
					c-0.1,0.5-0.2,0.9-0.5,1.3l-0.2,0.4c0.2,0,0.4,0,0.6,0c2.2,0,4.3-0.2,6.1-0.5c2.8-0.5,5.1-1.4,6.7-2.6c2.1-1.6,3.1-3.7,3.1-6.4
					C806.1,506.7,805.1,505.2,803.2,504.1"/>
				<path style="clip-path:url(#SVGID_00000085942407345512318100000011535249134883615891_);fill:#00943C;" d="M790,508.8
					c0-0.1,0-0.4,0.1-0.5l0.8-2c0-0.1,0.2-0.3,0.2-0.4l0.3-0.8l0-0.1c0-0.1,0-0.4,0-0.5l0-0.2c0-0.1,0-0.3-0.1-0.5l-0.1-0.3v-0.5
					l0.1-0.5l0-0.2c0.1-0.1,0.2-0.3,0.2-0.4l0.7-0.8c0-0.1,0.1-0.3,0-0.3l-0.4-0.6c-0.1-0.1-0.2-0.2-0.3-0.2l-1.2-0.4
					c-0.1,0-0.4-0.1-0.4-0.2l-0.4-0.5c-0.1-0.1-0.2-0.2-0.3-0.2h-0.1c-0.1,0-0.3,0.1-0.4,0.1l-0.4,0.4c-0.1,0.1-0.1,0.3-0.1,0.4
					c0,0.1-0.1,0.2-0.3,0.3l-0.6,0.1c-0.2,0-0.4,0.1-0.5,0.2l-1,0.4c-0.1,0-0.3,0.1-0.3,0.2l-1,2.2c-0.1,0.1-0.2,0.3-0.3,0.3l-0.9,1
					c-0.1,0.1-0.2,0.3-0.3,0.4l-3.9,6.9c-0.1,0.1-0.1,0.3-0.1,0.4l0.1,2.3c0.1,0.1,0,0.3-0.1,0.4l-0.1,0.1c0,0.1-0.1,0.3-0.1,0.4
					l-0.1,0.5c0,0.1-0.1,0.3-0.1,0.4l0,0.4c0,0.1,0,0.3,0.2,0.4l0.6,0.5c0.1,0,0.2,0.2,0.2,0.3v0.8c0,0.1,0.1,0.3,0.1,0.4l0.2,0.7
					c0.1,0.1,0.1,0.3,0.2,0.4l0.7,1.1c0.1,0.1,0.2,0.2,0.3,0.2h0c0.1,0,0.3,0,0.4,0.2l1,0.9c0.2,0.1,0.3,0.3,0.3,0.4l0.5,1
					c0,0.1,0,0.3,0,0.4l-0.1,0.6c0,0.2,0.1,0.3,0.1,0.4l0.2,0.1c0.1,0.1,0.3,0.2,0.4,0.3l0.4,0.2c0.1,0.1,0.2,0,0.3-0.1l0.1-0.5
					c0-0.1,0.1-0.3,0.1-0.4v-0.8v-1.3c0-0.1,0-0.3,0-0.4l0.8-2.1c0-0.1,0.2-0.3,0.2-0.4l0.7-0.8l0.2-0.2c0.1,0,0.2-0.2,0.3-0.3
					l1.2-1.9c0.2-0.3,0.1-0.4,0.2-0.7c0-0.1,0.1-0.4,0.2-0.5l0.6-1.8c0.1-0.3,0.6-3.3,0.8-4.6C790,509.1,790,509,790,508.8"/>
				<path style="clip-path:url(#SVGID_00000085942407345512318100000011535249134883615891_);fill:#00943C;" d="M655.3,542.3
					c3-2.7,4.6-4.7,4.6-6.3c0-1.1-0.6-1.9-1.7-1.9c-0.8,0-1.5,0.5-2,1.1l-0.9-0.9c0.9-0.9,1.8-1.5,3.1-1.5c1.9,0,3.1,1.2,3.1,3.1
					c0,2-1.6,4-3.7,6.1c0.5-0.1,1.2-0.1,1.7-0.1h2.6v1.4h-6.6V542.3z"/>
				<path style="clip-path:url(#SVGID_00000085942407345512318100000011535249134883615891_);fill:#00943C;" d="M669.5,538.1
					c0-3.5,1.3-5.3,3.3-5.3c2,0,3.3,1.7,3.3,5.3c0,3.6-1.3,5.3-3.3,5.3C670.8,543.4,669.5,541.6,669.5,538.1 M674.6,538.1
					c0-2.9-0.7-4-1.8-4c-1,0-1.8,1.1-1.8,4c0,3,0.7,4.1,1.8,4.1C673.9,542.2,674.6,541,674.6,538.1"/>
				<path style="clip-path:url(#SVGID_00000085942407345512318100000011535249134883615891_);fill:#00943C;" d="M683.7,542.3
					c3-2.7,4.6-4.7,4.6-6.3c0-1.1-0.6-1.9-1.7-1.9c-0.8,0-1.5,0.5-2,1.1l-0.9-0.9c0.9-0.9,1.8-1.5,3.1-1.5c1.9,0,3.1,1.2,3.1,3.1
					c0,2-1.6,4-3.7,6.1c0.5-0.1,1.2-0.1,1.7-0.1h2.6v1.4h-6.6V542.3z"/>
				<path style="clip-path:url(#SVGID_00000085942407345512318100000011535249134883615891_);fill:#00943C;" d="M697.6,542l0.8-1
					c0.6,0.6,1.4,1.1,2.4,1.1c1.2,0,1.9-0.6,1.9-1.7c0-1.1-0.7-1.9-3-1.9v-1.2c2,0,2.7-0.8,2.7-1.8c0-0.9-0.6-1.5-1.6-1.5
					c-0.8,0-1.5,0.4-2,1l-0.8-1c0.8-0.7,1.8-1.2,2.9-1.2c1.8,0,3.1,0.9,3.1,2.6c0,1.2-0.7,2-1.8,2.4v0.1c1.2,0.3,2.1,1.2,2.1,2.6
					c0,1.8-1.5,2.9-3.4,2.9C699.3,543.4,698.3,542.8,697.6,542"/>
				<path style="clip-path:url(#SVGID_00000085942407345512318100000011535249134883615891_);fill:#00943C;" d="M713.9,536.9v7.5
					h-1.3v-12.2h5.2v4.7H713.9z M713.9,534h2.7v-0.9h-2.7V534z M716.5,534.9h-2.7v1h2.7V534.9z M720.2,541.1v3h-1.2v-3h-1.7
					c-0.1,0.9-0.6,2.3-1.8,3.2c-0.2-0.2-0.6-0.6-0.8-0.8c1-0.6,1.4-1.7,1.5-2.4h-1.6V540h1.6v-1.3h-1.4v-1h6.7v1h-1.4v1.3h1.7v1.1
					H720.2z M719.1,538.7h-1.7v1.3h1.7V538.7z M724.1,542.8c0,0.7-0.1,1.1-0.6,1.3c-0.4,0.2-1.1,0.3-2.2,0.2c0-0.3-0.2-0.9-0.4-1.3
					c0.7,0,1.4,0,1.6,0c0.2,0,0.3-0.1,0.3-0.3v-5.8h-4v-4.8h5.3V542.8z M720.1,534h2.8v-0.9h-2.8V534z M722.8,534.9h-2.8v1h2.8
					V534.9z"/>
				<path style="clip-path:url(#SVGID_00000085942407345512318100000011535249134883615891_);fill:#00943C;" d="M734.3,537.8
					c-0.5-0.4-1.5-1-2.3-1.5l0.8-0.9c0.7,0.4,1.8,1,2.3,1.3L734.3,537.8z M735.3,539.7c-0.5,1.4-1.3,3.1-1.9,4.4l-1.2-0.7
					c0.6-1.1,1.4-2.9,2-4.4L735.3,539.7z M735,534.1c-0.5-0.4-1.5-1.1-2.3-1.5l0.8-0.9c0.7,0.4,1.8,1,2.3,1.4L735,534.1z
					 M737.4,536.1c0,2.4-0.2,5.9-1.9,8.2c-0.2-0.2-0.8-0.5-1.1-0.7c1.6-2.2,1.7-5.3,1.7-7.6v-3.8h8.5v1.2h-7.2V536.1z M739.6,540.7
					c-0.4,1-1.1,2.1-1.7,2.8c-0.2-0.2-0.7-0.5-1-0.6c0.6-0.7,1.2-1.6,1.6-2.5L739.6,540.7z M741.7,539.7v3.4c0,0.6-0.1,0.9-0.5,1.1
					c-0.4,0.2-1,0.2-1.9,0.2c0-0.3-0.2-0.8-0.3-1.1c0.6,0,1.2,0,1.3,0c0.2,0,0.2-0.1,0.2-0.2v-3.3h-2.4v-4.9h2
					c0.1-0.4,0.3-0.9,0.4-1.3l1.4,0.3c-0.2,0.4-0.4,0.7-0.5,1.1h2.9v4.9H741.7z M739.2,536.8h3.8v-1h-3.8V536.8z M739.2,538.8h3.8
					v-1h-3.8V538.8z M743.5,540.3c0.5,0.8,1.2,2,1.5,2.6l-1.2,0.5c-0.3-0.7-0.9-1.9-1.4-2.7L743.5,540.3z"/>
				<path style="clip-path:url(#SVGID_00000085942407345512318100000011535249134883615891_);fill:#00943C;" d="M759.2,531.6
					c0,0.5,0,1.3-0.1,2.1c0.2,1.7,1,7.3,5.9,9.4c-0.4,0.3-0.8,0.7-0.9,1.1c-3.3-1.5-4.8-4.6-5.5-7.1c-0.7,2.6-2.2,5.4-5.3,7.2
					c-0.2-0.3-0.6-0.8-1.1-1c5.7-2.9,5.5-9.4,5.6-11.7H759.2z"/>
				<path style="clip-path:url(#SVGID_00000085942407345512318100000011535249134883615891_);fill:#00943C;" d="M785,541.3h-4.9v3.1
					h-1.3v-3.1h-6.3V540h2.2v-3.7h4.1v-1.9h-3.2c-0.6,1-1.3,1.9-2,2.6c-0.2-0.2-0.8-0.6-1.1-0.8c1.3-1.1,2.4-2.9,3-4.7l1.3,0.3
					c-0.2,0.4-0.4,0.9-0.5,1.3h8.1v1.3h-4.2v1.9h3.9v1.2h-3.9v2.5h4.9V541.3z M778.8,537.6H776v2.5h2.8V537.6z"/>
				<path style="clip-path:url(#SVGID_00000085942407345512318100000011535249134883615891_);fill:#00943C;" d="M799.8,531.9
					c-0.1,0.1-0.1,0.2-0.2,0.3c1.3,1.2,3.6,2.3,5.8,2.7c-0.3,0.2-0.6,0.7-0.8,1c-0.3-0.1-0.7-0.2-1-0.3v3.6h-9.4v-3.5
					c-0.3,0.1-0.7,0.2-1,0.3c-0.1-0.2-0.5-0.8-0.7-1c2.5-0.6,5-1.8,6.2-3.5L799.8,531.9z M803.5,535.5c-0.7-0.3-1.5-0.6-2.2-1v0.4
					h-4.8v-0.3c-0.6,0.4-1.3,0.7-2,0.9H803.5z M794.9,539.7h7.9v4.6h-1.3v-0.4h-5.3v0.4h-1.3V539.7z M796.8,536.5
					c0.3,0.5,0.6,1.1,0.7,1.5l-0.9,0.3h1.6v-1.9h-3v1.9h1.3c-0.1-0.4-0.4-1.1-0.7-1.6L796.8,536.5z M796.2,541.4h5.3v-0.8h-5.3
					V541.4z M801.5,542.2h-5.3v0.8h5.3V542.2z M800.4,534.1c-0.6-0.3-1.1-0.8-1.5-1.2c-0.4,0.4-1,0.8-1.5,1.2H800.4z M802.4,536.4
					h-3.1v1.9h1.6L800,538c0.3-0.4,0.5-1.2,0.7-1.6l1.1,0.3c-0.3,0.6-0.6,1.2-0.9,1.6h1.5V536.4z"/>
				<path style="clip-path:url(#SVGID_00000085942407345512318100000011535249134883615891_);fill:#00943C;" d="M660.3,552.8h-4.8
					v-2.2h7.7v1.6c-2.6,3.1-2.9,5.2-3.1,9.6h-2.7C657.6,558.1,658.2,555.7,660.3,552.8"/>
				<polygon style="clip-path:url(#SVGID_00000085942407345512318100000011535249134883615891_);fill:#00943C;" points="
					670.8,549.6 672.5,549.6 669.2,564.5 667.5,564.5 				"/>
				<path style="clip-path:url(#SVGID_00000085942407345512318100000011535249134883615891_);fill:#00943C;" d="M677,560.3
					c2.8-2.5,4.7-4.6,4.7-6.2c0-1-0.6-1.6-1.5-1.6c-0.8,0-1.4,0.5-1.9,1.1l-1.5-1.4c1.1-1.2,2.1-1.7,3.7-1.7c2.2,0,3.7,1.4,3.7,3.5
					c0,1.9-1.7,4.1-3.4,5.8c0.6-0.1,1.3-0.1,1.8-0.1h2.1v2.3H677V560.3z"/>
				<path style="clip-path:url(#SVGID_00000085942407345512318100000011535249134883615891_);fill:#00943C;" d="M691,559.1
					c0.4,0.4,1.1,0.8,1.7,0.8c1.1,0,2.1-0.8,2.2-3.3c-0.5,0.7-1.5,1.1-2.1,1.1c-1.9,0-3.3-1.1-3.3-3.5c0-2.4,1.7-3.8,3.7-3.8
					c2.1,0,4.2,1.6,4.2,5.7c0,4.1-2.1,6-4.4,6c-1.5,0-2.6-0.6-3.3-1.3L691,559.1z M694.8,554.8c-0.2-1.9-0.9-2.4-1.6-2.4
					c-0.7,0-1.3,0.5-1.3,1.8c0,1.2,0.6,1.6,1.4,1.6C693.8,555.8,694.4,555.5,694.8,554.8"/>
				
					<rect x="702.2" y="556.5" style="clip-path:url(#SVGID_00000085942407345512318100000011535249134883615891_);fill:#00943C;" width="4.3" height="1.9"/>
				<path style="clip-path:url(#SVGID_00000085942407345512318100000011535249134883615891_);fill:#00943C;" d="M710.9,560.4
					l1.2-1.7c0.7,0.6,1.5,1.1,2.3,1.1c1,0,1.7-0.4,1.7-1.3c0-1-0.5-1.5-2.9-1.5v-1.9c1.9,0,2.5-0.6,2.5-1.5c0-0.8-0.5-1.2-1.3-1.2
					c-0.8,0-1.3,0.3-2,0.9l-1.4-1.6c1-0.9,2.2-1.4,3.5-1.4c2.3,0,3.8,1.1,3.8,3.1c0,1.1-0.6,2-1.8,2.5v0.1c1.3,0.4,2.2,1.3,2.2,2.7
					c0,2.1-1.9,3.3-4.1,3.3C712.9,562,711.7,561.4,710.9,560.4"/>
				<path style="clip-path:url(#SVGID_00000085942407345512318100000011535249134883615891_);fill:#00943C;" d="M723.6,556.1
					c0-3.9,1.6-5.8,4-5.8c2.4,0,4,1.9,4,5.8c0,3.9-1.6,5.9-4,5.9C725.2,562,723.6,560,723.6,556.1 M729,556.1c0-3.1-0.6-3.7-1.4-3.7
					c-0.8,0-1.4,0.6-1.4,3.7c0,3.1,0.6,3.8,1.4,3.8C728.4,559.9,729,559.2,729,556.1"/>
				<path style="clip-path:url(#SVGID_00000085942407345512318100000011535249134883615891_);fill:#00943C;" d="M736,556.8
					c0-4.9,3.6-8.1,7.9-8.1c3.8,0,6.2,2.6,6.2,6.2c0,3.2-2.2,4.8-4,4.8c-1,0-1.8-0.5-2-1.3h0c-0.5,0.7-1.4,1.2-2.1,1.2
					c-1.4,0-2.3-1-2.3-2.6c0-2.1,1.5-4.3,3.5-4.3c0.6,0,1,0.3,1.3,0.9h0l0.3-0.7h1.6l-0.8,3.9c-0.2,1,0,1.4,0.8,1.4
					c1.1,0,2-1.2,2-3.1c0-2.5-1.3-4.7-4.7-4.7c-3,0-5.9,2.5-5.9,6.4c0,3.4,2.4,5,5.1,5c0.9,0,1.9-0.3,2.6-0.7l0.6,1.5
					c-1.1,0.6-2.2,0.8-3.4,0.8C739.2,563.4,736,561.3,736,556.8 M743.6,557.1l0.4-2.3c-0.2-0.3-0.4-0.5-0.8-0.5
					c-1,0-1.6,1.4-1.6,2.4c0,0.7,0.3,1.1,0.9,1.1C742.9,557.9,743.2,557.7,743.6,557.1"/>
				<path style="clip-path:url(#SVGID_00000085942407345512318100000011535249134883615891_);fill:#00943C;" d="M768.2,549.6v1.3
					h-5.7v0.3h4.4v1.2H756v-1.2h4.3v-0.3h-5.5v-1.3h5.5v-0.7h2.2v0.7H768.2z M754.8,555.4h13.3v2.3h-1.9v0.4h-0.7
					c0.5,0.3,1.1,0.7,1.4,1l-1,0.8h0.8v1.2h-4.3v0.3h5.6v1.4h-13.2v-1.4h5.4v-0.3h-3.9V560h3.9v-0.3c-2.4,0.1-2.8,0.1-3.2,0.2
					c-0.1-0.3-0.3-1-0.4-1.3c0.2,0,0.5-0.1,0.8-0.2c0.1,0,0.4-0.1,0.7-0.3h-1.7v-0.4h-1.6V555.4z M766.6,555.1h-10.1v-2.4h10.1
					V555.1z M756.8,557h9.3v-0.3h-9.3V557z M764.4,553.8h-5.9v0.3h5.9V553.8z M763.3,558.5c-0.2-0.1-0.4-0.2-0.6-0.3l0,0h-2.2
					c-0.2,0.1-0.5,0.3-0.7,0.4L763.3,558.5z M765.4,560c-0.1-0.1-0.3-0.2-0.5-0.4l-2.4,0.1v0.3H765.4z"/>
				<path style="clip-path:url(#SVGID_00000085942407345512318100000011535249134883615891_);fill:#00943C;" d="M777.6,558.9
					c-0.2-0.3-0.4-0.8-0.6-1.2v5.6h-2.1v-4.7c-0.4,0.9-0.8,1.7-1.3,2.4c-0.2-0.6-0.7-1.6-1-2.1c0.8-0.9,1.5-2.4,2-3.7h-1.9v-2h2.1
					v-1.4c-0.5,0.1-1,0.2-1.5,0.2c-0.1-0.5-0.3-1.2-0.6-1.7c1.7-0.3,3.6-0.7,4.9-1.2l1.2,1.8c-0.6,0.2-1.3,0.4-1.9,0.5v1.8h1.9v2
					H777v0c0.4,0.3,1.6,1.6,1.9,2L777.6,558.9z M785.4,559.5v3.7h-2.2v-3.3l-4.4,0.8l-0.3-2.1l4.7-0.8v-8.8h2.2v8.5l1.4-0.2l0.3,2.1
					L785.4,559.5z M780.3,553.7c0.8,0.6,1.9,1.6,2.4,2.2l-1.5,1.4c-0.4-0.7-1.4-1.7-2.3-2.4L780.3,553.7z M781.5,553.3
					c-0.4-0.7-1.4-1.7-2.2-2.4l1.4-1.2c0.8,0.6,1.8,1.6,2.3,2.2L781.5,553.3z"/>
				<path style="clip-path:url(#SVGID_00000085942407345512318100000011535249134883615891_);fill:#00943C;" d="M799.9,555.1
					c1,2.7,2.7,4.9,5.5,6c-0.5,0.5-1.3,1.4-1.6,2.1c-2.7-1.2-4.3-3.2-5.5-5.9c-0.9,2.3-2.5,4.4-5.4,5.9c-0.3-0.6-1-1.4-1.7-1.9
					c3.3-1.5,4.7-3.8,5.3-6.2h-5v-2.3h5.4c0.1-1.3,0.1-2.7,0.1-3.9h2.4c0,1.2,0,2.6-0.1,3.9h5.8v2.3H799.9z"/>
			</g>
		</g>
	</g>
</g>
<g id="輸出佈置" class="st103">
	<text transform="matrix(1 0 0 1 299.4494 197.3912)" class="st105 st106 st107">徵才看板B</text>
	<line class="st104" x1="307.5" y1="180.7" x2="342.7" y2="180.7"/>
	<line class="st104" x1="657" y1="171.8" x2="692.2" y2="171.8"/>
	<text transform="matrix(1 0 0 1 626.8218 188.9603)" class="st105 st106 st109">社群交流看板</text>
	<text transform="matrix(1 0 0 1 489.8949 258.1155)" class="st105 st106 st109">樓層議程告知</text>
	<line class="st104" x1="566.5" y1="263.3" x2="566.5" y2="239.3"/>
	<text transform="matrix(1 0 0 1 190.7074 289.0999)" class="st105 st106 st109">樓層議程告知</text>
	<line class="st104" x1="411" y1="181" x2="469.4" y2="181"/>
	<text transform="matrix(1 0 0 1 363.8827 198.7867)" class="st105 st106 st109">主視覺</text>
	<text transform="matrix(1 0 0 1 438.0016 195.8043)" class="st108"><tspan x="0" y="0" class="st110 st106 st109">3樓</tspan><tspan x="-26.6" y="12.7" class="st110 st106 st109">議程看板+地圖</tspan></text>
	<text transform="matrix(1 0 0 1 730.2386 220.847)" class="st105 st106 st109">商品價目表</text>
	<text transform="matrix(1 0 0 1 678.4422 534.2907)" class="st108 st106 st111">A.贊助商海報</text>
	<g class="st108">
		<text transform="matrix(1 0 0 1 678.2254 550.4538)" class="st106 st111">B.主視覺海報</text>
	</g>
	<g class="st108">
		<text transform="matrix(1 0 0 1 678.327 566.6169)" class="st106 st111">C.講桌前背板(上方)</text>
	</g>
	<g class="st108">
		<text transform="matrix(1 0 0 1 767.0193 567.1306)" class="st106 st112">5間</text>
	</g>
	<text transform="matrix(1 0 0 1 662.9295 522.8586)" class="st108 st106 st113">議程教室</text>
	<polygon class="st114" points="646.9,517.6 646.9,550.5 564.7,550.5 564.7,543.5 558.1,543.5 558.1,517.6 	"/>
	<rect x="543.7" y="543.5" class="st114" width="21" height="29.1"/>
	<rect x="539.9" y="521.7" class="st114" width="14.3" height="20.1"/>
	<rect x="628.4" y="521.7" class="st114" width="14.3" height="20.1"/>
	<g class="st108">
		<text transform="matrix(1 0 0 1 632.5233 535.3434)" class="st106 st111">A</text>
	</g>
	<g class="st108">
		<text transform="matrix(1 0 0 1 543.0535 534.8576)" class="st106 st111">B</text>
	</g>
	<g class="st108">
		<text transform="matrix(1 0 0 1 550.5301 561.6569)" class="st106 st111">C</text>
	</g>
	<g class="st108">
		<text transform="matrix(1 0 0 1 674.2645 580.9211)" class="st106 st115">D.門口的議程軌布告欄</text>
	</g>
	<line class="st104" x1="192.5" y1="263.3" x2="192.5" y2="239.3"/>
	<line class="st104" x1="352.7" y1="181" x2="404.7" y2="181"/>
	<text transform="matrix(1 0 0 1 695.0894 180.8015)" class="st105 st106 st125">桌前背板</text>
	<rect x="716.9" y="170.8" class="st105" width="2.4" height="19.1"/>
	<text transform="matrix(1 0 0 1 695.0894 204.2478)" class="st105 st106 st125">桌前背板</text>
	<rect x="716.9" y="194.3" class="st105" width="2.4" height="19.1"/>
</g>
</svg>
