<?xml version="1.0" encoding="utf-8"?>
<!-- Generator: Adobe Illustrator 27.3.1, SVG Export Plug-In . SVG Version: 6.00 Build 0)  -->
<svg version="1.1" xmlns="http://www.w3.org/2000/svg" xmlns:xlink="http://www.w3.org/1999/xlink" x="0px" y="0px"
	 viewBox="0 0 841.9 595.3" style="enable-background:new 0 0 841.9 595.3;" xml:space="preserve">
<style type="text/css">
	.st0{fill:#3B9838;}
	.st1{fill:none;stroke:#FFFFFF;stroke-width:2;stroke-linecap:round;stroke-linejoin:bevel;}
	.st2{opacity:0.73;}
	.st3{fill:#A0A0A0;stroke:#FFFFFF;stroke-width:2;stroke-linecap:round;stroke-linejoin:bevel;}
	.st4{fill:none;stroke:#B3B3B3;stroke-width:4.4344;stroke-linecap:round;stroke-miterlimit:10;}
	.st5{fill:#E6E6E6;}
	.st6{fill:#FFFEFF;}
	.st7{fill:#B3B3B3;}
	.st8{fill:none;stroke:#B3B3B3;stroke-width:4.4344;stroke-miterlimit:10;}
	.st9{fill:none;stroke:#FFFEFF;stroke-width:3;stroke-miterlimit:10;}
	.st10{fill:#12344C;}
	.st11{fill:#E98025;}
	.st12{fill:#808080;}
	.st13{fill:#FFE9BA;}
	.st14{fill:#3E3D4D;}
	.st15{fill:#BCC4C6;}
	.st16{fill:#D24635;}
	.st17{fill:#FCF3EE;}
	.st18{fill:#E8C72E;}
	.st19{fill:#E0A911;}
	.st20{fill:#0071BC;}
	.st21{opacity:0.2;fill:none;stroke:#70931B;stroke-width:2;stroke-miterlimit:10;stroke-dasharray:4,4;}
	.st22{font-family:'SourceHanSansTC-Bold-B5pc-H';}
	.st23{font-size:16.1873px;}
	.st24{font-family:'SourceHanSansTC-Regular-B5pc-H';}
	.st25{font-size:10.8149px;}
	.st26{opacity:0.2;fill:none;stroke:#70931B;stroke-width:1.78;stroke-miterlimit:10;stroke-dasharray:3.56,3.56;}
	.st27{font-size:14.4525px;}
	.st28{font-family:'MicrosoftJhengHeiBold';}
	.st29{font-size:12px;}
	.st30{font-family:'MicrosoftJhengHeiRegular';}
	.st31{font-size:9.5585px;}
	.st32{fill:#6B6B6B;}
	.st33{font-size:8.9802px;}
	.st34{font-size:43px;}
	.st35{clip-path:url(#SVGID_00000034089844449245348010000012880032668446195380_);}
	.st36{clip-path:url(#SVGID_00000010989173682303110880000012149220381093744557_);fill:#00943C;}
	.st37{clip-path:url(#SVGID_00000042736071387208596750000002464259546408588215_);}
	.st38{clip-path:url(#SVGID_00000164486322191073264560000015201020989227916699_);fill:#00943C;}
	.st39{clip-path:url(#SVGID_00000140007261847773282880000001309497266602943661_);}
	.st40{clip-path:url(#SVGID_00000080896211818326072030000001171981631271135366_);fill:#00943C;}
	.st41{clip-path:url(#SVGID_00000103224394271737491630000009380178988481197239_);}
	.st42{clip-path:url(#SVGID_00000169527822116255137380000002230833157264636806_);fill:#00943C;}
	.st43{clip-path:url(#SVGID_00000101087069589322265090000005235867999037201536_);}
	.st44{clip-path:url(#SVGID_00000070816942877302880970000004574511401054793118_);fill:#00943C;}
	.st45{clip-path:url(#SVGID_00000101808897429595385400000015290934272603560880_);}
	.st46{clip-path:url(#SVGID_00000023968727574058870700000009205734778360552119_);fill:#00943C;}
	.st47{clip-path:url(#SVGID_00000122694354692044703430000006646421908398668722_);}
	.st48{clip-path:url(#SVGID_00000009580184767611207550000014475461282047104676_);fill:#00943C;}
	.st49{clip-path:url(#SVGID_00000016790080868815749750000014065463780456301462_);}
	.st50{clip-path:url(#SVGID_00000004536378600253916530000014640684809579331980_);fill:#00943C;}
	.st51{opacity:0.1;fill:#70931B;}
	.st52{fill:none;stroke:#FFFEFF;stroke-miterlimit:10;}
	.st53{fill:#FFFFFF;}
	.st54{fill:none;stroke:#FFFFFF;stroke-width:1.8113;}
	.st55{fill:#C1272D;}
	.st56{fill:#30AF00;}
	.st57{fill:#0076CB;}
	.st58{fill:#008061;}
	.st59{fill:#F5821F;}
	.st60{fill:#ED1B2D;}
	.st61{fill:#FF0000;}
	.st62{opacity:0.5;fill:url(#SVGID_00000146484127904849120860000003139765237477966266_);}
	.st63{opacity:0.5;fill:url(#SVGID_00000060718621066777800000000003466498897030932868_);}
	.st64{opacity:0.8;}
	.st65{fill-rule:evenodd;clip-rule:evenodd;fill:#D5E7D0;}
	.st66{fill:none;stroke:#040000;stroke-width:0.75;stroke-linejoin:round;stroke-miterlimit:8;}
	.st67{opacity:0;fill-rule:evenodd;clip-rule:evenodd;fill:#040000;}
	.st68{fill:#040000;}
	.st69{fill-rule:evenodd;clip-rule:evenodd;fill:#8FCFC9;}
	.st70{fill-rule:evenodd;clip-rule:evenodd;fill:#F2EA32;}
	.st71{fill-rule:evenodd;clip-rule:evenodd;fill:#040000;}
	.st72{fill-rule:evenodd;clip-rule:evenodd;fill:#FFFFFF;}
	.st73{opacity:0;fill-rule:evenodd;clip-rule:evenodd;}
	.st74{fill:none;stroke:#000000;stroke-width:0.75;stroke-linejoin:round;stroke-miterlimit:8;}
	.st75{fill-rule:evenodd;clip-rule:evenodd;fill:#D9EAD3;}
	.st76{opacity:0;fill-rule:evenodd;clip-rule:evenodd;stroke:#000000;stroke-width:0.75;stroke-miterlimit:10;}
	.st77{fill-rule:evenodd;clip-rule:evenodd;fill:#FCFCFC;stroke:#000000;stroke-width:0.75;stroke-miterlimit:10;}
	.st78{fill:none;stroke:#000000;stroke-width:0.5;stroke-linejoin:round;stroke-miterlimit:8;}
	.st79{fill-rule:evenodd;clip-rule:evenodd;fill:none;stroke:#000000;stroke-width:0.5;stroke-linejoin:round;stroke-miterlimit:8;}
	.st80{fill-rule:evenodd;clip-rule:evenodd;fill:#FFFFFF;stroke:#000000;stroke-width:0.5;stroke-miterlimit:10;}
	.st81{fill-rule:evenodd;clip-rule:evenodd;fill:#D5E7D0;stroke:#000000;stroke-width:0.5;stroke-miterlimit:10;}
	.st82{fill-rule:evenodd;clip-rule:evenodd;fill:#F2EA32;stroke:#000000;stroke-width:0.5;stroke-miterlimit:10;}
	.st83{opacity:0;fill-rule:evenodd;clip-rule:evenodd;fill:#040000;stroke:#000000;stroke-width:0.5;stroke-miterlimit:10;}
	.st84{fill:#D5E7D0;stroke:#000000;stroke-width:0.5;stroke-miterlimit:10;}
	.st85{fill-rule:evenodd;clip-rule:evenodd;fill:#FCFDFD;stroke:#000000;stroke-width:0.5;stroke-miterlimit:10;}
	
		.st86{fill-rule:evenodd;clip-rule:evenodd;fill:none;stroke:#040000;stroke-width:0.75;stroke-linejoin:round;stroke-miterlimit:8;}
	
		.st87{opacity:0;fill-rule:evenodd;clip-rule:evenodd;fill:none;stroke:#040000;stroke-width:0.75;stroke-linejoin:round;stroke-miterlimit:8;}
	.st88{fill:#D5E7D0;stroke:#040000;stroke-width:0.75;stroke-miterlimit:10;}
	.st89{opacity:0;fill-rule:evenodd;clip-rule:evenodd;fill:#040000;stroke:#040000;stroke-width:0.75;stroke-miterlimit:10;}
	.st90{fill-rule:evenodd;clip-rule:evenodd;fill:#FFFFFF;stroke:#040000;stroke-width:0.75;stroke-miterlimit:10;}
	.st91{fill-rule:evenodd;clip-rule:evenodd;fill:#FCFDFD;}
	.st92{fill-rule:evenodd;clip-rule:evenodd;fill:#D5E7D0;stroke:#040000;stroke-width:0.75;stroke-miterlimit:10;}
	.st93{fill-rule:evenodd;clip-rule:evenodd;fill:#FCFDFD;stroke:#040000;stroke-width:0.75;stroke-miterlimit:10;}
	.st94{clip-path:url(#SVGID_00000039838744380646096850000003609186259154812334_);}
	.st95{clip-path:url(#SVGID_00000043422192422609313710000007819982800657752453_);fill:#00943C;}
	.st96{clip-path:url(#SVGID_00000170999363352897774790000002732887910181112724_);}
	.st97{clip-path:url(#SVGID_00000000221496777114424600000014222973737470135696_);fill:#00943C;}
	.st98{clip-path:url(#SVGID_00000142159708682421582990000000553217920331706034_);}
	.st99{clip-path:url(#SVGID_00000121268824001778995870000014547907085957850803_);fill:#00943C;}
	.st100{display:none;}
	.st101{display:inline;fill:none;stroke:#F90000;stroke-width:8;stroke-miterlimit:10;}
	.st102{display:inline;}
	.st103{fill:#F90000;}
	.st104{font-family:'SourceHanSansTW-Medium-B5pc-H';}
	.st105{font-size:10.7118px;}
	.st106{display:inline;fill:#F90000;}
	.st107{font-size:10.3841px;}
	.st108{display:inline;fill:none;stroke:#000000;stroke-miterlimit:10;}
	.st109{font-size:9.4877px;}
	.st110{font-size:31.8123px;}
	.st111{font-size:11.8596px;glyph-orientation-vertical:0;writing-mode:tb;}
	.st112{font-size:9.3394px;}
	.st113{display:inline;fill:none;stroke:#F90000;stroke-width:3;stroke-miterlimit:10;}
	.st114{display:inline;fill:none;stroke:#232323;stroke-miterlimit:10;}
	.st115{display:inline;fill:none;stroke:#F90000;stroke-miterlimit:10;}
	.st116{display:inline;fill:none;stroke:#B3B3B3;stroke-width:4.4344;stroke-linecap:round;stroke-miterlimit:10;}
	.st117{display:inline;fill:#E6E6E6;}
	.st118{display:inline;fill:#FFFEFF;}
	.st119{display:inline;fill:#B3B3B3;}
	.st120{display:inline;fill:none;stroke:#B3B3B3;stroke-width:4.4344;stroke-miterlimit:10;}
	.st121{display:inline;opacity:0.2;fill:none;stroke:#70931B;stroke-width:2;stroke-miterlimit:10;stroke-dasharray:4,4;}
</style>
<g id="建築">
	<polygon class="st8" points="334.8,280.3 334.8,226.3 569.8,226.3 569.8,280.3 799,280.3 799,71.9 584.9,71.9 569.8,71.9 
		334.8,71.9 334.8,71.9 49.7,71.9 49.7,176.7 27.4,176.7 27.4,222.5 49.7,222.5 49.7,280.3 	"/>
	<rect x="56.6" y="85.5" class="st5" width="84.9" height="92.8"/>
	<rect x="144.3" y="85.5" class="st5" width="97.7" height="92.8"/>
	<rect x="244.8" y="85.5" class="st5" width="101.1" height="92.8"/>
	<rect x="348.7" y="85.5" class="st5" width="75.5" height="92.8"/>
	<rect x="427" y="85.5" class="st5" width="89.6" height="92.8"/>
	<rect x="519.4" y="85.5" class="st5" width="85" height="92.8"/>
	<rect x="607.2" y="85.5" class="st5" width="103.2" height="92.8"/>
	<polygon class="st5" points="792.4,78 792.4,178.4 713.2,178.4 713.2,85.5 748.8,85.5 748.8,78 	"/>
	<g>
		
			<rect x="577.3" y="212.6" transform="matrix(-1 -1.224647e-16 1.224647e-16 -1 1220.9763 486.7699)" class="st5" width="66.3" height="61.6"/>
		<g>
			<rect x="597.7" y="212.6" class="st9" width="46.4" height="17.3"/>
		</g>
	</g>
	
		<rect x="172.3" y="212.6" transform="matrix(-1 -1.224647e-16 1.224647e-16 -1 497.219 486.7699)" class="st5" width="152.5" height="61.6"/>
	<g>
		<rect x="211.3" y="211.6" class="st9" width="36.6" height="18.3"/>
	</g>
	<polygon class="st5" points="646.4,274.2 671.1,274.2 690.5,274.2 792.4,274.2 792.4,212.6 674.5,212.6 674.5,249.1 646.4,249.1 	
		"/>
	<polygon class="st5" points="143,274.2 169.3,274.2 169.3,249.5 143,249.5 143,221.1 56.1,221.1 56.1,274.2 	"/>
	<line class="st9" x1="746.9" y1="274.3" x2="746.9" y2="212"/>
	<line class="st9" x1="248.3" y1="274.3" x2="248.3" y2="212"/>
	<line class="st9" x1="675.1" y1="274.3" x2="675.1" y2="212"/>
	<line class="st9" x1="142.8" y1="274.3" x2="142.8" y2="216.2"/>
	<g>
		<rect x="710.4" y="178.4" class="st6" width="2.8" height="11.8"/>
	</g>
</g>
<g id="標示">
	<g>
		<text transform="matrix(1 0 0 1 730.7115 129.8498)" class="st0 st22 st23">409-1</text>
	</g>
	<g>
		<text transform="matrix(1 0 0 1 547.5987 129.8498)" class="st0 st22 st23">410</text>
	</g>
	<g>
		<text transform="matrix(1 0 0 1 457.4727 129.8498)" class="st0 st22 st23">411</text>
	</g>
	<g>
		<text transform="matrix(1 0 0 1 273.2232 129.8498)" class="st0 st22 st23">412-2</text>
	</g>
	<g>
		<text transform="matrix(1 0 0 1 171.0338 129.8498)" class="st0 st22 st23">413-1</text>
	</g>
	<g>
		<text transform="matrix(1 0 0 1 636.5655 129.8498)" class="st0 st22 st23">409-2</text>
	</g>
	<g>
		<text transform="matrix(1 0 0 1 364.4166 129.8498)" class="st0 st22 st23">412-1</text>
	</g>
	<g>
		<text transform="matrix(1 0 0 1 76.9532 130.0686)" class="st0 st22 st23">413-2</text>
	</g>
	<g>
		<text transform="matrix(1 0 0 1 540.2701 152.1574)" class="st24 st25">議程教室</text>
	</g>
	<g>
		<text transform="matrix(1 0 0 1 450.1441 152.1574)" class="st24 st25">議程教室</text>
	</g>
	<g>
		<text transform="matrix(1 0 0 1 364.8487 152.1574)" class="st24 st25">議程教室</text>
	</g>
	<g>
		<text transform="matrix(1 0 0 1 273.6563 152.1574)" class="st24 st25">議程教室</text>
	</g>
	<g>
		<text transform="matrix(1 0 0 1 171.4649 152.1574)" class="st24 st25">議程教室</text>
	</g>
	<g>
		<text transform="matrix(1 0 0 1 75.0714 152.1574)" class="st24 st25">Staff only</text>
	</g>
	<g>
		<text transform="matrix(1 0 0 1 624.064 152.1574)" class="st24 st25">社群/贊助攤位</text>
	</g>
	<g>
		<text transform="matrix(1 0 0 1 716.0064 152.1574)" class="st24 st25">Hacking Room</text>
	</g>
	<g>
		<g>
			<path class="st10" d="M99.1,235.9c0,0.3-0.3,0.4-0.3,0.7c0,0.2,0.1,0.4,0.3,0.6c0.5,0.3,0.5,0.8,0.4,1.3
				c-0.2,1.4-0.3,2.9-0.5,4.3c-0.1,0.6,0.3,0.9,0.5,1.4c0.9-0.8,0.6-1.7,0.5-2.6c-0.1-1.2-0.3-2.3-0.4-3.5c0-0.4,0-0.6,0.3-0.9
				c0.2-0.1,0.4-0.3,0.5-0.6c-0.1-0.2-0.3-0.4-0.4-0.6c0.1-0.2,0.3-0.2,0.5-0.2c1,0,2,0,3,0c1.5,0,2.5,1.4,2,2.8
				c-0.9,2.3-1.8,4.7-2.7,7c-0.4,1-0.7,2-1.2,2.9c-0.5,0.8-1.4,1.1-2.3,0.9c-1.1-0.2-1.6-0.9-1.9-1.9c-0.8-2-1.6-4.1-2.4-6.1
				c-0.4-0.9-0.7-1.9-1.1-2.8c-0.5-1.4,0.4-2.7,1.9-2.8C96.8,235.9,98,235.9,99.1,235.9z"/>
			<path class="st10" d="M99.7,235.2c-2.3,0-4.1-1.7-4.1-3.9c0-2.2,1.7-4,3.9-4c2.2,0,4,1.7,4.1,3.9
				C103.6,233.1,102.2,235.1,99.7,235.2z"/>
		</g>
	</g>
	<g>
		<text transform="matrix(1 0 0 1 80.6993 266.6076)" class="st10 st24 st27">Toilet</text>
	</g>
	<g id="p7iPoC_00000010298988641573050450000001457672732016827793_">
		<g>
			<path class="st10" d="M158.3,263.1c0.7,0,1.4,0,2.2,0c0.6,0,0.9,0.3,1.1,0.8c0.4,1.4,0.9,2.8,1.3,4.2c0.1,0.4,0.3,0.8,0.4,1.2
				c0.1,0.5-0.1,0.8-0.5,1c-0.4,0.1-0.9-0.1-1-0.5c-0.5-1.5-1-3-1.5-4.5c-0.1-0.2-0.2-0.3-0.4-0.3c-1.5,0.1-3,0-4.5,0
				c-0.3,0-0.7,0-1-0.1c-0.4-0.1-0.7-0.3-0.8-0.8c-0.3-1.4-0.5-2.9-0.7-4.3c-0.1-0.5-0.1-1-0.2-1.5c-0.1-0.7,0.2-1.2,0.8-1.4
				c0.3-0.1,0.6-0.1,0.8-0.1c0.6,0.1,1,0.4,1.1,1c0.1,0.6,0.3,1.2,0.4,1.8c0,0.2,0.1,0.2,0.3,0.2c0.8,0,1.6,0,2.5,0
				c0.6,0,1,0.6,0.7,1.2c-0.1,0.2-0.3,0.3-0.5,0.3c-0.8,0-1.6,0-2.4,0c-0.2,0-0.2,0.1-0.2,0.3c0.1,0.4,0.1,0.7,0.2,1.1
				c0,0.2,0.1,0.2,0.3,0.2C157.2,263.1,157.7,263.1,158.3,263.1z"/>
			<path class="st10" d="M148.8,265.4c0-2.3,1.4-4.2,3.4-5.1c0.2-0.1,0.3-0.1,0.3,0.2c0,0.2,0.1,0.5,0.1,0.7c0,0.2,0,0.3-0.2,0.3
				c-1,0.5-1.7,1.2-2.1,2.2c-1,2.6,0.5,5,3,5.6c2.7,0.6,4.7-1.2,5.1-3.5c0.1-0.5,0.1-0.5,0.6-0.5c0.2,0,0.4,0,0.6,0
				c0.1,0,0.2,0.1,0.2,0.2c-0.1,1.4-0.6,2.7-1.7,3.7c-1.2,1.1-2.6,1.6-4.2,1.5c-2.5-0.2-4.6-1.9-5-4.6
				C148.8,266,148.8,265.7,148.8,265.4z"/>
			<path class="st10" d="M154.5,253.6c0.8,0,1.5,0.7,1.5,1.5c0,0.8-0.7,1.5-1.5,1.5c-0.8,0-1.5-0.7-1.5-1.5
				C153,254.2,153.7,253.6,154.5,253.6z"/>
		</g>
	</g>
	<g id="BbVIEC_00000014631648693041890380000011792264908995389600_">
		<g>
			<g>
				<path class="st12" d="M220.6,265.7c-8.2,0-16.5,0-24.7,0c-0.5,0-0.5-0.1-0.5-0.5c0-1.5,0-3,0-4.5c0.2-0.3,0.5-0.3,0.8-0.3
					c1.2,0,2.4,0,3.6,0c0.6,0,0.8-0.1,0.8-0.8c0-1.2,0-2.4,0-3.6c0-0.8,0.1-0.9,0.9-0.9c1.2,0,2.3,0,3.5,0c0.7,0,0.9-0.1,0.9-0.9
					c0-1.2,0-2.4,0-3.6c0-0.6,0.2-0.8,0.8-0.8c1.2,0,2.4,0,3.6,0c0.7,0,0.8-0.1,0.8-0.8c0-1.1,0-2.3,0-3.4c0-0.9,0.1-1,1-1
					c1.1,0,2.3,0,3.4,0c0.7,0,0.8-0.1,0.8-0.9c0-1.2,0-2.4,0-3.6c0-0.7,0.2-0.8,0.8-0.8c1.1,0,2.3,0,3.4,0c1.1,0,1.1,0.1,1.1,1.1
					c0,7.7,0,15.4,0,23.1C221.7,264.5,221.4,265.2,220.6,265.7z M212.7,259.3C212.7,259.3,212.7,259.3,212.7,259.3
					c0.7,0,1.4,0,2.2,0c0.6,0,0.6-0.4,0.6-0.8c0-0.4,0-0.8-0.6-0.8c-0.4,0-0.9,0-1.3,0c-0.2,0-0.4,0.1-0.5-0.1
					c-0.1-0.2,0.1-0.3,0.2-0.4c1.2-1.2,2.5-2.5,3.7-3.7c0.6-0.6,0.6-0.7,0.1-1.2c-0.5-0.5-0.7-0.5-1.2,0.1c-0.1,0.1-0.2,0.2-0.4,0.4
					c-1.1,1.1-2.3,2.3-3.4,3.4c-0.1,0.1-0.2,0.3-0.4,0.2c-0.1-0.1-0.1-0.2-0.1-0.4c0-0.4,0-0.9,0-1.3c0-0.5-0.2-0.7-0.7-0.7
					c-0.7,0-0.9,0.1-0.9,0.7c0,1.4,0,2.7,0,4.1c0,0.5,0.2,0.7,0.7,0.7C211.4,259.3,212.1,259.3,212.7,259.3z"/>
				<path class="st12" d="M203,244.9c-0.7,0-1.2,0-1.7,0c-0.6,0-0.8-0.2-0.8-0.8c0-0.7,0.1-1,0.7-1c1.4,0,2.9,0,4.3,0
					c0.5,0,0.7,0.3,0.7,0.8c0,1.4,0,2.8,0,4.2c0,0.6-0.3,0.8-1,0.8c-0.7,0-0.9-0.2-0.9-0.8c0-0.5,0-1,0-1.5
					c-0.3-0.1-0.4,0.2-0.6,0.3c-1.2,1.1-2.3,2.3-3.5,3.5c-0.7,0.6-1.4,0.5-1.8-0.4c-0.2-0.4,0.1-0.6,0.3-0.8
					c1.2-1.2,2.4-2.4,3.6-3.6C202.6,245.3,202.7,245.1,203,244.9z"/>
			</g>
		</g>
	</g>
	<g>
		<text transform="matrix(1 0 0 1 693.4673 262.4348)" class="st10 st24 st27">Toilet</text>
	</g>
	<g id="o3AOjT_00000050660649997812628060000000782486474329531571_">
		<g>
			<g>
				<path class="st10" d="M712.2,232.6c0.4-0.4,0.8-0.7,1.1-1.1c0.5-0.6,1.1-0.5,1.4,0.2c1.5,3.8,2.9,7.6,4.4,11.3
					c0.3,0.8-0.2,1.5-1,1.6c-0.2,0-0.4,0-0.6,0c-3.4,0-6.8,0-10.3,0c-0.2,0-0.4,0-0.6,0c-1-0.1-1.4-0.8-1.1-1.7
					c0.7-1.9,1.5-3.9,2.2-5.8c0.7-1.8,1.4-3.6,2.1-5.4c0.3-0.7,0.8-0.8,1.4-0.3C711.6,231.9,711.9,232.2,712.2,232.6z"/>
				<path class="st10" d="M712.3,230.2c-2.1,0-3.8-1.6-3.8-3.9c0-2.1,1.6-3.8,3.9-3.7c2.1,0,3.8,1.7,3.8,3.8
					C716.2,228.5,714.4,230.2,712.3,230.2z"/>
			</g>
		</g>
	</g>
	<g>
		<g id="mGfqoG_00000130607438710196144500000012553646411803343511_">
			<g>
				<path class="st20" d="M275.1,232.9c0,1.7,0,3.4,0,5.1c0,2.1-1.4,3.4-3.5,3.4c-3.4,0-6.8,0-10.2,0c-2.2,0-3.5-1.4-3.5-3.5
					c0-3.4,0-6.7,0-10.1c0-2.2,1.4-3.6,3.6-3.6c3.3,0,6.7,0,10,0c2.2,0,3.6,1.4,3.6,3.6c0,0.8,0,1.7,0,2.5
					C275.1,231.2,275.1,232,275.1,232.9z M266.6,225.5C266.6,225.5,266.6,225.5,266.6,225.5c-1.7,0-3.4,0-5.1,0
					c-1.5,0-2.3,0.8-2.3,2.3c0,3.4,0,6.7,0,10.1c0,1.5,0.8,2.3,2.3,2.3c3.4,0,6.8,0,10.3,0c1.4,0,2.3-0.9,2.3-2.3
					c0-3.4,0-6.8,0-10.3c0-1.4-0.8-2.2-2.2-2.2C270,225.5,268.3,225.5,266.6,225.5z"/>
				<path class="st20" d="M262,220.8c0-0.8,0-1.5,0-2.3c0-0.4,0-0.8,0-1.2c0-0.7,0.2-1.1,0.7-1.1c0.4,0,0.7,0.4,0.7,1.1
					c0,0.9,0,1.9,0,2.8c0,0.2-0.1,0.4,0.1,0.5c0.2,0.1,0.3-0.2,0.4-0.3c0.4-0.4,0.7-0.7,1.1-1.1c0.3-0.3,0.6-0.3,0.9,0
					c0.3,0.3,0.4,0.6,0.1,0.9c-1,1-1.9,2.1-2.9,3.1c-0.2,0.2-0.6,0.2-0.8-0.1c-0.9-1-1.9-2-2.8-2.9c-0.3-0.3-0.2-0.7,0.1-1
					c0.3-0.3,0.6-0.2,0.9,0.1c0.5,0.5,0.9,1,1.4,1.5C261.9,220.8,262,220.8,262,220.8z"/>
				<path class="st20" d="M269.7,218.7c-0.6,0.6-1,1-1.4,1.5c-0.4,0.4-0.7,0.5-1.1,0.2c-0.3-0.3-0.3-0.7,0.1-1.1
					c0.8-0.9,1.7-1.8,2.5-2.6c0.4-0.4,0.7-0.4,1.1,0c0.8,0.9,1.7,1.8,2.5,2.6c0.4,0.4,0.4,0.9,0.1,1.2c-0.4,0.4-0.7,0.1-1.1-0.2
					c-0.4-0.4-0.9-0.8-1.4-1.3c-0.1,0.3,0,0.6,0,0.9c0,0.9,0,1.9,0,2.8c0,0.5-0.1,0.9-0.7,0.9c-0.5,0-0.7-0.4-0.7-0.8
					c0-1.1,0-2.2,0-3.3C269.7,219.2,269.7,219,269.7,218.7z"/>
				<path class="st20" d="M270.9,235.3c0,0.9,0,1.8,0,2.7c0,0.2,0,0.4,0,0.6c0,0.4,0,0.8-0.6,0.8c-0.5,0-0.5-0.4-0.5-0.8
					c0-0.9,0-1.8,0-2.6c0-0.4,0-0.9-0.4-1.2c-0.2-0.1-0.2-0.4-0.2-0.6c0-1.1,0-2.3,0-3.4c0-0.7,0.3-1,0.9-1c0.5,0,1.1,0,1.6,0
					c0.6,0,0.8,0.3,0.8,0.9c0,1.2,0,2.4,0,3.6c0,0.2,0,0.5-0.2,0.6c-0.4,0.3-0.4,0.6-0.4,1c0,0.9,0,1.7,0,2.6c0,0.4,0.1,0.9-0.5,0.9
					c-0.6,0-0.5-0.5-0.5-0.9c0-1,0-2,0-3.1C271,235.3,271,235.3,270.9,235.3z"/>
				<path class="st20" d="M262.1,235.3c0,1.1,0,2.3,0,3.4c0,0.4-0.1,0.7-0.6,0.7c-0.4,0-0.5-0.3-0.5-0.7c0-1,0-2,0-3
					c0-0.3,0-0.7-0.3-0.9c-0.2-0.2-0.2-0.4-0.2-0.7c0-1.1,0-2.3,0-3.4c0-0.7,0.3-1,1-1c0.5,0,1,0,1.5,0c0.6,0,0.9,0.3,0.9,0.9
					c0,1.2,0,2.4,0,3.5c0,0.2,0,0.5-0.2,0.6c-0.4,0.3-0.4,0.6-0.4,1c0,0.9,0,1.9,0,2.8c0,0.3,0,0.5-0.3,0.7c-0.4,0.2-0.7,0-0.7-0.6
					c0-1,0-2,0-3c0-0.1,0-0.3,0-0.4C262.2,235.3,262.1,235.3,262.1,235.3z"/>
				<path class="st20" d="M266.5,235.3c0,1.1,0,2.2,0,3.3c0,0.2,0,0.4-0.1,0.6c-0.2,0.2-0.4,0.2-0.6,0.1c-0.3-0.1-0.4-0.3-0.4-0.6
					c0-1,0-1.9,0-2.9c0-0.4,0-0.7-0.4-1c-0.2-0.1-0.2-0.4-0.2-0.6c0-1.2,0-2.4,0-3.5c0-0.6,0.3-0.9,0.9-0.9c0.5,0,1,0,1.5,0
					c0.6,0,0.9,0.3,0.9,0.9c0,1.2,0,2.4,0,3.5c0,0.2,0,0.4-0.2,0.6c-0.4,0.3-0.4,0.7-0.4,1.2c0,0.9,0,1.7,0,2.6c0,0.4,0,0.8-0.6,0.8
					c-0.6,0-0.5-0.4-0.5-0.8c0-1.1,0-2.2,0-3.2C266.6,235.3,266.5,235.3,266.5,235.3z"/>
				<path class="st20" d="M267.8,228.4c0,0.7-0.6,1.2-1.3,1.2c-0.6,0-1.2-0.6-1.2-1.2c0-0.7,0.6-1.3,1.2-1.3
					C267.2,227.1,267.8,227.7,267.8,228.4z"/>
				<path class="st20" d="M272.2,228.4c0,0.7-0.6,1.3-1.2,1.3c-0.6,0-1.2-0.6-1.2-1.2c0-0.7,0.6-1.3,1.2-1.3
					C271.6,227.1,272.2,227.7,272.2,228.4z"/>
				<path class="st20" d="M262.1,229.6c-0.7,0-1.2-0.6-1.2-1.3c0-0.6,0.6-1.2,1.2-1.2c0.7,0,1.3,0.6,1.3,1.2
					C263.4,229,262.8,229.6,262.1,229.6z"/>
			</g>
		</g>
		<g id="mGfqoG_00000070813608543099375190000010439771796952322970_">
			<g>
				<path class="st20" d="M275.1,262.4c0,1.7,0,3.4,0,5.1c0,2.1-1.4,3.4-3.5,3.4c-3.4,0-6.8,0-10.2,0c-2.2,0-3.5-1.4-3.5-3.5
					c0-3.4,0-6.7,0-10.1c0-2.2,1.4-3.6,3.6-3.6c3.3,0,6.7,0,10,0c2.2,0,3.6,1.4,3.6,3.6c0,0.8,0,1.7,0,2.5
					C275.1,260.7,275.1,261.5,275.1,262.4z M266.6,255C266.6,255,266.6,255,266.6,255c-1.7,0-3.4,0-5.1,0c-1.5,0-2.3,0.8-2.3,2.3
					c0,3.4,0,6.7,0,10.1c0,1.5,0.8,2.3,2.3,2.3c3.4,0,6.8,0,10.3,0c1.4,0,2.3-0.9,2.3-2.3c0-3.4,0-6.8,0-10.3c0-1.4-0.8-2.2-2.2-2.2
					C270,255,268.3,255,266.6,255z"/>
				<path class="st20" d="M262,250.3c0-0.8,0-1.5,0-2.3c0-0.4,0-0.8,0-1.2c0-0.7,0.2-1.1,0.7-1.1c0.4,0,0.7,0.4,0.7,1.1
					c0,0.9,0,1.9,0,2.8c0,0.2-0.1,0.4,0.1,0.5c0.2,0.1,0.3-0.2,0.4-0.3c0.4-0.4,0.7-0.7,1.1-1.1c0.3-0.3,0.6-0.3,0.9,0
					c0.3,0.3,0.4,0.6,0.1,0.9c-1,1-1.9,2.1-2.9,3.1c-0.2,0.2-0.6,0.2-0.8-0.1c-0.9-1-1.9-2-2.8-2.9c-0.3-0.3-0.2-0.7,0.1-1
					c0.3-0.3,0.6-0.2,0.9,0.1c0.5,0.5,0.9,1,1.4,1.5C261.9,250.4,262,250.3,262,250.3z"/>
				<path class="st20" d="M269.7,248.2c-0.6,0.6-1,1-1.4,1.5c-0.4,0.4-0.7,0.5-1.1,0.2c-0.3-0.3-0.3-0.7,0.1-1.1
					c0.8-0.9,1.7-1.8,2.5-2.6c0.4-0.4,0.7-0.4,1.1,0c0.8,0.9,1.7,1.8,2.5,2.6c0.4,0.4,0.4,0.9,0.1,1.2c-0.4,0.4-0.7,0.1-1.1-0.2
					c-0.4-0.4-0.9-0.8-1.4-1.3c-0.1,0.3,0,0.6,0,0.9c0,0.9,0,1.9,0,2.8c0,0.5-0.1,0.9-0.7,0.9c-0.5,0-0.7-0.4-0.7-0.8
					c0-1.1,0-2.2,0-3.3C269.7,248.7,269.7,248.6,269.7,248.2z"/>
				<path class="st20" d="M270.9,264.9c0,0.9,0,1.8,0,2.7c0,0.2,0,0.4,0,0.6c0,0.4,0,0.8-0.6,0.8c-0.5,0-0.5-0.4-0.5-0.8
					c0-0.9,0-1.8,0-2.6c0-0.4,0-0.9-0.4-1.2c-0.2-0.1-0.2-0.4-0.2-0.6c0-1.1,0-2.3,0-3.4c0-0.7,0.3-1,0.9-1c0.5,0,1.1,0,1.6,0
					c0.6,0,0.8,0.3,0.8,0.9c0,1.2,0,2.4,0,3.6c0,0.2,0,0.5-0.2,0.6c-0.4,0.3-0.4,0.6-0.4,1c0,0.9,0,1.7,0,2.6c0,0.4,0.1,0.9-0.5,0.9
					c-0.6,0-0.5-0.5-0.5-0.9c0-1,0-2,0-3.1C271,264.9,271,264.9,270.9,264.9z"/>
				<path class="st20" d="M262.1,264.8c0,1.1,0,2.3,0,3.4c0,0.4-0.1,0.7-0.6,0.7c-0.4,0-0.5-0.3-0.5-0.7c0-1,0-2,0-3
					c0-0.3,0-0.7-0.3-0.9c-0.2-0.2-0.2-0.4-0.2-0.7c0-1.1,0-2.3,0-3.4c0-0.7,0.3-1,1-1c0.5,0,1,0,1.5,0c0.6,0,0.9,0.3,0.9,0.9
					c0,1.2,0,2.4,0,3.5c0,0.2,0,0.5-0.2,0.6c-0.4,0.3-0.4,0.6-0.4,1c0,0.9,0,1.9,0,2.8c0,0.3,0,0.5-0.3,0.7c-0.4,0.2-0.7,0-0.7-0.6
					c0-1,0-2,0-3c0-0.1,0-0.3,0-0.4C262.2,264.8,262.1,264.8,262.1,264.8z"/>
				<path class="st20" d="M266.5,264.8c0,1.1,0,2.2,0,3.3c0,0.2,0,0.4-0.1,0.6c-0.2,0.2-0.4,0.2-0.6,0.1c-0.3-0.1-0.4-0.3-0.4-0.6
					c0-1,0-1.9,0-2.9c0-0.4,0-0.7-0.4-1c-0.2-0.1-0.2-0.4-0.2-0.6c0-1.2,0-2.4,0-3.5c0-0.6,0.3-0.9,0.9-0.9c0.5,0,1,0,1.5,0
					c0.6,0,0.9,0.3,0.9,0.9c0,1.2,0,2.4,0,3.5c0,0.2,0,0.4-0.2,0.6c-0.4,0.3-0.4,0.7-0.4,1.2c0,0.9,0,1.7,0,2.6c0,0.4,0,0.8-0.6,0.8
					c-0.6,0-0.5-0.4-0.5-0.8c0-1.1,0-2.2,0-3.2C266.6,264.8,266.5,264.8,266.5,264.8z"/>
				<path class="st20" d="M267.8,257.9c0,0.7-0.6,1.2-1.3,1.2c-0.6,0-1.2-0.6-1.2-1.2c0-0.7,0.6-1.3,1.2-1.3
					C267.2,256.7,267.8,257.2,267.8,257.9z"/>
				<path class="st20" d="M272.2,257.9c0,0.7-0.6,1.3-1.2,1.3c-0.6,0-1.2-0.6-1.2-1.2c0-0.7,0.6-1.3,1.2-1.3
					C271.6,256.7,272.2,257.2,272.2,257.9z"/>
				<path class="st20" d="M262.1,259.1c-0.7,0-1.2-0.6-1.2-1.3c0-0.6,0.6-1.2,1.2-1.2c0.7,0,1.3,0.6,1.3,1.2
					C263.4,258.6,262.8,259.1,262.1,259.1z"/>
			</g>
		</g>
		<g id="mGfqoG_00000021096805897239565720000003245174452050093202_">
			<g>
				<path class="st20" d="M319.6,232.9c0,1.7,0,3.4,0,5.1c0,2.1-1.4,3.4-3.5,3.4c-3.4,0-6.8,0-10.2,0c-2.2,0-3.5-1.4-3.5-3.5
					c0-3.4,0-6.7,0-10.1c0-2.2,1.4-3.6,3.6-3.6c3.3,0,6.7,0,10,0c2.2,0,3.6,1.4,3.6,3.6c0,0.8,0,1.7,0,2.5
					C319.6,231.2,319.6,232,319.6,232.9z M311,225.5C311,225.5,311,225.5,311,225.5c-1.7,0-3.4,0-5.1,0c-1.5,0-2.3,0.8-2.3,2.3
					c0,3.4,0,6.7,0,10.1c0,1.5,0.8,2.3,2.3,2.3c3.4,0,6.8,0,10.3,0c1.4,0,2.3-0.9,2.3-2.3c0-3.4,0-6.8,0-10.3c0-1.4-0.8-2.2-2.2-2.2
					C314.4,225.5,312.7,225.5,311,225.5z"/>
				<path class="st20" d="M306.4,220.8c0-0.8,0-1.5,0-2.3c0-0.4,0-0.8,0-1.2c0-0.7,0.2-1.1,0.7-1.1c0.4,0,0.7,0.4,0.7,1.1
					c0,0.9,0,1.9,0,2.8c0,0.2-0.1,0.4,0.1,0.5c0.2,0.1,0.3-0.2,0.4-0.3c0.4-0.4,0.7-0.7,1.1-1.1c0.3-0.3,0.6-0.3,0.9,0
					c0.3,0.3,0.4,0.6,0.1,0.9c-1,1-1.9,2.1-2.9,3.1c-0.2,0.2-0.6,0.2-0.8-0.1c-0.9-1-1.9-2-2.8-2.9c-0.3-0.3-0.2-0.7,0.1-1
					c0.3-0.3,0.6-0.2,0.9,0.1c0.5,0.5,0.9,1,1.4,1.5C306.3,220.8,306.4,220.8,306.4,220.8z"/>
				<path class="st20" d="M314.2,218.7c-0.6,0.6-1,1-1.4,1.5c-0.4,0.4-0.7,0.5-1.1,0.2c-0.3-0.3-0.3-0.7,0.1-1.1
					c0.8-0.9,1.7-1.8,2.5-2.6c0.4-0.4,0.7-0.4,1.1,0c0.8,0.9,1.7,1.8,2.5,2.6c0.4,0.4,0.4,0.9,0.1,1.2c-0.4,0.4-0.7,0.1-1.1-0.2
					c-0.4-0.4-0.9-0.8-1.4-1.3c-0.1,0.3,0,0.6,0,0.9c0,0.9,0,1.9,0,2.8c0,0.5-0.1,0.9-0.7,0.9c-0.5,0-0.7-0.4-0.7-0.8
					c0-1.1,0-2.2,0-3.3C314.1,219.2,314.2,219,314.2,218.7z"/>
				<path class="st20" d="M315.4,235.3c0,0.9,0,1.8,0,2.7c0,0.2,0,0.4,0,0.6c0,0.4,0,0.8-0.6,0.8c-0.5,0-0.5-0.4-0.5-0.8
					c0-0.9,0-1.8,0-2.6c0-0.4,0-0.9-0.4-1.2c-0.2-0.1-0.2-0.4-0.2-0.6c0-1.1,0-2.3,0-3.4c0-0.7,0.3-1,0.9-1c0.5,0,1.1,0,1.6,0
					c0.6,0,0.8,0.3,0.8,0.9c0,1.2,0,2.4,0,3.6c0,0.2,0,0.5-0.2,0.6c-0.4,0.3-0.4,0.6-0.4,1c0,0.9,0,1.7,0,2.6c0,0.4,0.1,0.9-0.5,0.9
					c-0.6,0-0.5-0.5-0.5-0.9c0-1,0-2,0-3.1C315.4,235.3,315.4,235.3,315.4,235.3z"/>
				<path class="st20" d="M306.5,235.3c0,1.1,0,2.3,0,3.4c0,0.4-0.1,0.7-0.6,0.7c-0.4,0-0.5-0.3-0.5-0.7c0-1,0-2,0-3
					c0-0.3,0-0.7-0.3-0.9c-0.2-0.2-0.2-0.4-0.2-0.7c0-1.1,0-2.3,0-3.4c0-0.7,0.3-1,1-1c0.5,0,1,0,1.5,0c0.6,0,0.9,0.3,0.9,0.9
					c0,1.2,0,2.4,0,3.5c0,0.2,0,0.5-0.2,0.6c-0.4,0.3-0.4,0.6-0.4,1c0,0.9,0,1.9,0,2.8c0,0.3,0,0.5-0.3,0.7c-0.4,0.2-0.7,0-0.7-0.6
					c0-1,0-2,0-3c0-0.1,0-0.3,0-0.4C306.6,235.3,306.5,235.3,306.5,235.3z"/>
				<path class="st20" d="M310.9,235.3c0,1.1,0,2.2,0,3.3c0,0.2,0,0.4-0.1,0.6c-0.2,0.2-0.4,0.2-0.6,0.1c-0.3-0.1-0.4-0.3-0.4-0.6
					c0-1,0-1.9,0-2.9c0-0.4,0-0.7-0.4-1c-0.2-0.1-0.2-0.4-0.2-0.6c0-1.2,0-2.4,0-3.5c0-0.6,0.3-0.9,0.9-0.9c0.5,0,1,0,1.5,0
					c0.6,0,0.9,0.3,0.9,0.9c0,1.2,0,2.4,0,3.5c0,0.2,0,0.4-0.2,0.6c-0.4,0.3-0.4,0.7-0.4,1.2c0,0.9,0,1.7,0,2.6c0,0.4,0,0.8-0.6,0.8
					c-0.6,0-0.5-0.4-0.5-0.8c0-1.1,0-2.2,0-3.2C311,235.3,311,235.3,310.9,235.3z"/>
				<path class="st20" d="M312.2,228.4c0,0.7-0.6,1.2-1.3,1.2c-0.6,0-1.2-0.6-1.2-1.2c0-0.7,0.6-1.3,1.2-1.3
					C311.6,227.1,312.2,227.7,312.2,228.4z"/>
				<path class="st20" d="M316.6,228.4c0,0.7-0.6,1.3-1.2,1.3c-0.6,0-1.2-0.6-1.2-1.2c0-0.7,0.6-1.3,1.2-1.3
					C316,227.1,316.6,227.7,316.6,228.4z"/>
				<path class="st20" d="M306.6,229.6c-0.7,0-1.2-0.6-1.2-1.3c0-0.6,0.6-1.2,1.2-1.2c0.7,0,1.3,0.6,1.3,1.2
					C307.8,229,307.2,229.6,306.6,229.6z"/>
			</g>
		</g>
		<g id="mGfqoG_00000003086994114861345940000002944913427036544393_">
			<g>
				<path class="st20" d="M319.6,262.4c0,1.7,0,3.4,0,5.1c0,2.1-1.4,3.4-3.5,3.4c-3.4,0-6.8,0-10.2,0c-2.2,0-3.5-1.4-3.5-3.5
					c0-3.4,0-6.7,0-10.1c0-2.2,1.4-3.6,3.6-3.6c3.3,0,6.7,0,10,0c2.2,0,3.6,1.4,3.6,3.6c0,0.8,0,1.7,0,2.5
					C319.6,260.7,319.6,261.5,319.6,262.4z M311,255C311,255,311,255,311,255c-1.7,0-3.4,0-5.1,0c-1.5,0-2.3,0.8-2.3,2.3
					c0,3.4,0,6.7,0,10.1c0,1.5,0.8,2.3,2.3,2.3c3.4,0,6.8,0,10.3,0c1.4,0,2.3-0.9,2.3-2.3c0-3.4,0-6.8,0-10.3c0-1.4-0.8-2.2-2.2-2.2
					C314.4,255,312.7,255,311,255z"/>
				<path class="st20" d="M306.4,250.3c0-0.8,0-1.5,0-2.3c0-0.4,0-0.8,0-1.2c0-0.7,0.2-1.1,0.7-1.1c0.4,0,0.7,0.4,0.7,1.1
					c0,0.9,0,1.9,0,2.8c0,0.2-0.1,0.4,0.1,0.5c0.2,0.1,0.3-0.2,0.4-0.3c0.4-0.4,0.7-0.7,1.1-1.1c0.3-0.3,0.6-0.3,0.9,0
					c0.3,0.3,0.4,0.6,0.1,0.9c-1,1-1.9,2.1-2.9,3.1c-0.2,0.2-0.6,0.2-0.8-0.1c-0.9-1-1.9-2-2.8-2.9c-0.3-0.3-0.2-0.7,0.1-1
					c0.3-0.3,0.6-0.2,0.9,0.1c0.5,0.5,0.9,1,1.4,1.5C306.3,250.4,306.4,250.3,306.4,250.3z"/>
				<path class="st20" d="M314.2,248.2c-0.6,0.6-1,1-1.4,1.5c-0.4,0.4-0.7,0.5-1.1,0.2c-0.3-0.3-0.3-0.7,0.1-1.1
					c0.8-0.9,1.7-1.8,2.5-2.6c0.4-0.4,0.7-0.4,1.1,0c0.8,0.9,1.7,1.8,2.5,2.6c0.4,0.4,0.4,0.9,0.1,1.2c-0.4,0.4-0.7,0.1-1.1-0.2
					c-0.4-0.4-0.9-0.8-1.4-1.3c-0.1,0.3,0,0.6,0,0.9c0,0.9,0,1.9,0,2.8c0,0.5-0.1,0.9-0.7,0.9c-0.5,0-0.7-0.4-0.7-0.8
					c0-1.1,0-2.2,0-3.3C314.1,248.7,314.2,248.6,314.2,248.2z"/>
				<path class="st20" d="M315.4,264.9c0,0.9,0,1.8,0,2.7c0,0.2,0,0.4,0,0.6c0,0.4,0,0.8-0.6,0.8c-0.5,0-0.5-0.4-0.5-0.8
					c0-0.9,0-1.8,0-2.6c0-0.4,0-0.9-0.4-1.2c-0.2-0.1-0.2-0.4-0.2-0.6c0-1.1,0-2.3,0-3.4c0-0.7,0.3-1,0.9-1c0.5,0,1.1,0,1.6,0
					c0.6,0,0.8,0.3,0.8,0.9c0,1.2,0,2.4,0,3.6c0,0.2,0,0.5-0.2,0.6c-0.4,0.3-0.4,0.6-0.4,1c0,0.9,0,1.7,0,2.6c0,0.4,0.1,0.9-0.5,0.9
					c-0.6,0-0.5-0.5-0.5-0.9c0-1,0-2,0-3.1C315.4,264.9,315.4,264.9,315.4,264.9z"/>
				<path class="st20" d="M306.5,264.8c0,1.1,0,2.3,0,3.4c0,0.4-0.1,0.7-0.6,0.7c-0.4,0-0.5-0.3-0.5-0.7c0-1,0-2,0-3
					c0-0.3,0-0.7-0.3-0.9c-0.2-0.2-0.2-0.4-0.2-0.7c0-1.1,0-2.3,0-3.4c0-0.7,0.3-1,1-1c0.5,0,1,0,1.5,0c0.6,0,0.9,0.3,0.9,0.9
					c0,1.2,0,2.4,0,3.5c0,0.2,0,0.5-0.2,0.6c-0.4,0.3-0.4,0.6-0.4,1c0,0.9,0,1.9,0,2.8c0,0.3,0,0.5-0.3,0.7c-0.4,0.2-0.7,0-0.7-0.6
					c0-1,0-2,0-3c0-0.1,0-0.3,0-0.4C306.6,264.8,306.5,264.8,306.5,264.8z"/>
				<path class="st20" d="M310.9,264.8c0,1.1,0,2.2,0,3.3c0,0.2,0,0.4-0.1,0.6c-0.2,0.2-0.4,0.2-0.6,0.1c-0.3-0.1-0.4-0.3-0.4-0.6
					c0-1,0-1.9,0-2.9c0-0.4,0-0.7-0.4-1c-0.2-0.1-0.2-0.4-0.2-0.6c0-1.2,0-2.4,0-3.5c0-0.6,0.3-0.9,0.9-0.9c0.5,0,1,0,1.5,0
					c0.6,0,0.9,0.3,0.9,0.9c0,1.2,0,2.4,0,3.5c0,0.2,0,0.4-0.2,0.6c-0.4,0.3-0.4,0.7-0.4,1.2c0,0.9,0,1.7,0,2.6c0,0.4,0,0.8-0.6,0.8
					c-0.6,0-0.5-0.4-0.5-0.8c0-1.1,0-2.2,0-3.2C311,264.8,311,264.8,310.9,264.8z"/>
				<path class="st20" d="M312.2,257.9c0,0.7-0.6,1.2-1.3,1.2c-0.6,0-1.2-0.6-1.2-1.2c0-0.7,0.6-1.3,1.2-1.3
					C311.6,256.7,312.2,257.2,312.2,257.9z"/>
				<path class="st20" d="M316.6,257.9c0,0.7-0.6,1.3-1.2,1.3c-0.6,0-1.2-0.6-1.2-1.2c0-0.7,0.6-1.3,1.2-1.3
					C316,256.7,316.6,257.2,316.6,257.9z"/>
				<path class="st20" d="M306.6,259.1c-0.7,0-1.2-0.6-1.2-1.3c0-0.6,0.6-1.2,1.2-1.2c0.7,0,1.3,0.6,1.3,1.2
					C307.8,258.6,307.2,259.1,306.6,259.1z"/>
			</g>
		</g>
	</g>
	<g id="s8VYHe_00000013898913656593185740000006947112265629074867_">
		<g>
			<path class="st11" d="M661,242.5c1.4,0,2.7,0,4.1,0c0.5,0,0.9,0.3,1,0.8c0.1,0.6-0.3,1.1-1,1.1c-1,0-1.9,0-2.9,0
				c-0.2,0-0.2,0-0.2,0.2c0,0.9,0,1.8,0,2.7c0,0.1,0,0.2,0.2,0.2c0.5,0,0.9,0.5,1,1c0,0.2,0,0.2,0.2,0.2c1.3,0,2.6,0,3.9,0
				c0.2,0,0.2,0,0.2-0.2c0-0.8,0-1.6,0-2.5c0-0.4,0.2-0.6,0.6-0.6c0.3,0,0.6,0,1,0c0.1,0,0.1,0,0.2,0.1c0,0.5,0,1.1,0,1.6
				c0,0.5,0,0.9,0,1.4c0,0.5,0,1.1,0,1.6c0,0.5,0,1,0,1.6c0,0.2,0,0.4,0,0.6c0,0.5,0,1,0,1.5c0,0.3,0,0.5,0,0.8c0,0.2,0,0.2-0.2,0.2
				c-0.3,0-0.6,0-1,0c-0.4,0-0.6-0.2-0.6-0.6c0-0.8,0-1.6,0-2.5c0-0.2,0-0.2-0.2-0.2c-0.5,0-1.1,0-1.6,0c-0.5,0-1,0-1.4,0
				c-0.3,0-0.6,0-0.8,0c-0.2,0-0.2,0-0.2,0.2c-0.1,0.6-0.6,1-1.2,1c-0.6,0-1.3,0-1.9,0c-0.6,0-1.1-0.4-1.2-1c0-0.1-0.1-0.1-0.2-0.1
				c-0.3,0-0.7,0-1,0c-0.6,0-1.2,0-1.8,0c-0.2,0-0.5,0-0.7,0.1c-0.5,0.2-0.9,0.7-0.9,1.3c0,0.5,0,1,0,1.5c0,0.6,0,1.1,0,1.7
				c0,0.1,0,0.1-0.1,0.1c-0.9,0-1.9,0-2.8,0c-0.1,0-0.1-0.1-0.1-0.2c0-0.5,0-1,0-1.5c0-0.8,0-1.6,0-2.3c0-0.6,0.2-1.1,0.5-1.5
				c0.6-0.9,1.5-1.5,2.5-1.8c0.7-0.2,1.4-0.3,2.1-0.3c0.8,0,1.6,0,2.4,0c0.1,0,0.2,0,0.2-0.1c0.1-0.6,0.5-0.9,1-1
				c0.1,0,0.1-0.1,0.1-0.2c0-0.9,0-1.9,0-2.8c0-0.1,0-0.2-0.2-0.2c-1,0-1.9,0-2.9,0c-0.5,0-0.8-0.3-1-0.7c-0.2-0.6,0.3-1.2,0.9-1.2
				c0.8,0,1.5,0,2.3,0C659.7,242.5,660.4,242.5,661,242.5C661,242.5,661,242.5,661,242.5z"/>
			<path class="st11" d="M652.6,258.9c1.6,0,3.2,0,4.8,0c0.2,0,0.2,0,0.2,0.2c-0.1,0.9-0.2,1.8-0.3,2.7c-0.1,0.9-0.2,1.8-0.3,2.7
				c-0.1,0.7-0.2,1.4-0.2,2.1c0,0.5-0.1,1-0.2,1.6c-0.1,0.8-0.2,1.6-0.3,2.4c0,0.2,0,0.2-0.2,0.2c-0.5,0-1,0-1.5,0c-0.5,0-1,0-1.6,0
				c-0.5,0-1.1,0-1.6,0c-0.2,0-0.4,0-0.6,0c-0.5,0-1.1,0-1.6,0c-0.1,0-0.2,0-0.2-0.1c-0.1-0.7-0.2-1.3-0.2-2
				c-0.1-0.7-0.2-1.4-0.2-2.1c-0.1-0.5-0.1-1.1-0.2-1.6c-0.1-0.7-0.2-1.4-0.2-2.1c-0.1-0.5-0.1-1.1-0.2-1.6c-0.1-0.7-0.1-1.3-0.2-2
				c0-0.1,0.1-0.1,0.2-0.1c0.8,0,1.7,0,2.5,0C651,258.9,651.8,258.9,652.6,258.9C652.6,258.9,652.6,258.9,652.6,258.9z M652.6,262.3
				c1.1,0,2.2,0,3.3,0c0.1,0,0.2,0,0.2-0.2c0.1-0.6,0.1-1.3,0.2-1.9c0-0.2,0-0.2-0.2-0.2c-0.6,0-1.2,0-1.8,0c-0.2,0-0.5,0-0.7,0
				c-0.5,0-1,0-1.6,0c-0.5,0-1,0-1.6,0c-0.5,0-1,0-1.5,0c-0.2,0-0.2,0-0.2,0.2c0,0.3,0.1,0.6,0.1,1c0,0.3,0.1,0.6,0.1,0.9
				c0,0.1,0.1,0.2,0.2,0.2c0.1,0,0.1,0,0.2,0C650.5,262.3,651.6,262.3,652.6,262.3z"/>
		</g>
	</g>
	<g id="BbVIEC_00000152973068999733535200000007101523034059802011_">
		<g>
			<g>
				<path class="st12" d="M622.2,265.7c-8.2,0-16.5,0-24.7,0c-0.5,0-0.5-0.1-0.5-0.5c0-1.5,0-3,0-4.5c0.2-0.3,0.5-0.3,0.8-0.3
					c1.2,0,2.4,0,3.6,0c0.6,0,0.8-0.1,0.8-0.8c0-1.2,0-2.4,0-3.6c0-0.8,0.1-0.9,0.9-0.9c1.2,0,2.3,0,3.5,0c0.7,0,0.9-0.1,0.9-0.9
					c0-1.2,0-2.4,0-3.6c0-0.6,0.2-0.8,0.8-0.8c1.2,0,2.4,0,3.6,0c0.7,0,0.8-0.1,0.8-0.8c0-1.1,0-2.3,0-3.4c0-0.9,0.1-1,1-1
					c1.1,0,2.3,0,3.4,0c0.7,0,0.8-0.1,0.8-0.9c0-1.2,0-2.4,0-3.6c0-0.7,0.2-0.8,0.8-0.8c1.1,0,2.3,0,3.4,0c1.1,0,1.1,0.1,1.1,1.1
					c0,7.7,0,15.4,0,23.1C623.3,264.5,623,265.2,622.2,265.7z M614.4,259.3C614.4,259.3,614.4,259.3,614.4,259.3c0.7,0,1.4,0,2.2,0
					c0.6,0,0.6-0.4,0.6-0.8c0-0.4,0-0.8-0.6-0.8c-0.4,0-0.9,0-1.3,0c-0.2,0-0.4,0.1-0.5-0.1c-0.1-0.2,0.1-0.3,0.2-0.4
					c1.2-1.2,2.5-2.5,3.7-3.7c0.6-0.6,0.6-0.7,0.1-1.2c-0.5-0.5-0.7-0.5-1.2,0.1c-0.1,0.1-0.2,0.2-0.4,0.4c-1.1,1.1-2.3,2.3-3.4,3.4
					c-0.1,0.1-0.2,0.3-0.4,0.2c-0.1-0.1-0.1-0.2-0.1-0.4c0-0.4,0-0.9,0-1.3c0-0.5-0.2-0.7-0.7-0.7c-0.7,0-0.9,0.1-0.9,0.7
					c0,1.4,0,2.7,0,4.1c0,0.5,0.2,0.7,0.7,0.7C613,259.3,613.7,259.3,614.4,259.3z"/>
				<path class="st12" d="M604.6,244.9c-0.7,0-1.2,0-1.7,0c-0.6,0-0.8-0.2-0.8-0.8c0-0.7,0.1-1,0.7-1c1.4,0,2.9,0,4.3,0
					c0.5,0,0.7,0.3,0.7,0.8c0,1.4,0,2.8,0,4.2c0,0.6-0.3,0.8-1,0.8c-0.7,0-0.9-0.2-0.9-0.8c0-0.5,0-1,0-1.5
					c-0.3-0.1-0.4,0.2-0.6,0.3c-1.2,1.1-2.3,2.3-3.5,3.5c-0.7,0.6-1.4,0.5-1.8-0.4c-0.2-0.4,0.1-0.6,0.3-0.8
					c1.2-1.2,2.4-2.4,3.6-3.6C604.2,245.3,604.4,245.1,604.6,244.9z"/>
			</g>
		</g>
	</g>
	<g>
		<text transform="matrix(1 0 0 1 86.2701 470.6014)" class="st0 st28 st29">410</text>
	</g>
	<g>
		<text transform="matrix(1 0 0 1 267.7986 373.3854)" class="st0 st28 st29">411</text>
	</g>
	<g>
		<text transform="matrix(1 0 0 1 257.7899 421.0946)" class="st0 st28 st29">412-1</text>
	</g>
	<g>
		<text transform="matrix(1 0 0 1 257.7899 502.7146)" class="st0 st28 st29">412-2</text>
	</g>
	<g>
		<text transform="matrix(1 0 0 1 471.7892 422.4539)" class="st0 st28 st29">413-1</text>
	</g>
	<g>
		<text transform="matrix(1 0 0 1 474.7023 374.925)" class="st0 st28 st29">413-2</text>
	</g>
	<g>
		<text transform="matrix(1 0 0 1 86.2701 374.925)" class="st0 st28 st29">409-1</text>
	</g>
	<g>
		<text transform="matrix(1 0 0 1 132.4521 391.3333)" class="st30 st31">Hacking Room</text>
	</g>
	<g>
		<text transform="matrix(1 0 0 1 86.2701 422.7543)" class="st0 st28 st29">409-2</text>
	</g>
	<g>
		<text transform="matrix(1 0 0 1 132.4523 438.3719)" class="st30 st31">社群/贊助攤位</text>
	</g>
	<text transform="matrix(1 0 0 1 132.4523 422.5839)" class="st32 st28 st33">Day01 / Day02</text>
	<g>
		<text transform="matrix(1 0 0 1 308.3939 391.6019)" class="st30 st31">BoF</text>
	</g>
	<text transform="matrix(1 0 0 1 308.394 375.7845)" class="st32 st28 st33">Day01 / Day02</text>
	<text transform="matrix(1 0 0 1 132.4524 375.0902)" class="st32 st28 st33">Day01 / Day02</text>
	<g>
		<text transform="matrix(1 0 0 1 307.9128 518.402)" class="st30 st31">Open Source Firmware Track</text>
	</g>
	<text transform="matrix(1 0 0 1 307.4894 502.9787)" class="st32 st28 st33">Day01 / Day02</text>
	<g>
		<text transform="matrix(1 0 0 1 525.5065 390.5946)" class="st30 st31">Staff only</text>
	</g>
	<text transform="matrix(1 0 0 1 524.6004 375.0765)" class="st32 st28 st33">Day01 / Day02</text>
	<g>
		<text transform="matrix(1 0 0 1 308.3405 437.3271)" class="st30 st31">System Software</text>
	</g>
	<text transform="matrix(1 0 0 1 307.4896 421.504)" class="st32 st28 st33">Day01</text>
	<g>
		<text transform="matrix(1 0 0 1 307.4328 455.4755)" class="st32 st28 st33">Day02</text>
	</g>
	<text transform="matrix(1 0 0 1 307.4323 471.1721)" class="st30 st31">Open Source Inpired Hardware</text>
	<g>
		<text transform="matrix(1 0 0 1 522.6206 438.8155)" class="st30 st31">Julia Language / O-RAN in B5G/6G</text>
	</g>
	<text transform="matrix(1 0 0 1 521.4314 422.9576)" class="st32 st28 st33">Day01</text>
	<g>
		<text transform="matrix(1 0 0 1 521.4319 456.5786)" class="st32 st28 st33">Day02</text>
	</g>
	<text transform="matrix(1 0 0 1 521.5944 472.1105)" class="st30 st31">Ruby</text>
	<g>
		<text transform="matrix(1 0 0 1 132.452 486.5644)" class="st30 st31">MySQL 共享平台</text>
	</g>
	<text transform="matrix(1 0 0 1 132.4524 470.6017)" class="st32 st28 st33">Day01</text>
	<g>
		<text transform="matrix(1 0 0 1 132.452 504.7116)" class="st32 st28 st33">Day02</text>
	</g>
	<g>
		<text transform="matrix(1 0 0 1 132.452 520.2935)" class="st30 st31">PostgreSQL.TW</text>
	</g>
</g>
<g id="樓層位置">
	<g>
		<text transform="matrix(1 0 0 1 81.1464 339.1414)" class="st0 st22 st34">TR4F</text>
	</g>
	<g>
		<g>
			<defs>
				<rect id="SVGID_00000103959996621577926820000003530293533924394664_" x="645.9" y="463.1" width="169.6" height="113.1"/>
			</defs>
			<clipPath id="SVGID_00000087407325979783652200000015222945141635042716_">
				<use xlink:href="#SVGID_00000103959996621577926820000003530293533924394664_"  style="overflow:visible;"/>
			</clipPath>
			<g style="clip-path:url(#SVGID_00000087407325979783652200000015222945141635042716_);">
				<defs>
					<rect id="SVGID_00000150084569838902057170000000194750591035063997_" x="645.9" y="463.1" width="169.6" height="113.1"/>
				</defs>
				<clipPath id="SVGID_00000183216645841753414030000012486320171095139205_">
					<use xlink:href="#SVGID_00000150084569838902057170000000194750591035063997_"  style="overflow:visible;"/>
				</clipPath>
				<path style="clip-path:url(#SVGID_00000183216645841753414030000012486320171095139205_);fill:#00943C;" d="M679.5,503.2
					l-2.1,8.9h-3c0.1-0.3,0.1-0.6,0.2-0.9c0.1-0.3,0.1-0.8,0.1-1.3c0-1.2-0.2-2.2-0.6-2.9c-0.6-1-1.6-1.5-2.9-1.5
					c-1.8,0-3.6,1.2-5.6,3.5c-2.1,2.4-3.1,4.9-3.1,7.4c0,1.9,0.5,3.4,1.4,4.5c1,1.1,2.2,1.6,3.7,1.6c1.3,0,2.8-0.6,4.6-1.9
					c0.6-0.4,1.4-1,2.4-1.9l3,1.9c-0.4,0.4-0.9,0.8-1.3,1.2c-1.2,1-2.4,1.7-3.8,2.3c-2,0.8-4,1.2-6.1,1.2c-3.1,0-5.6-0.8-7.6-2.3
					c-2.3-1.7-3.4-4.1-3.4-7.1c0-4,1.8-7.3,5.3-9.9c3.3-2.4,7.4-3.6,12.3-3.6c1.1,0,2.5,0.1,4.2,0.3
					C677.7,502.9,678.5,503.1,679.5,503.2"/>
				<path style="clip-path:url(#SVGID_00000183216645841753414030000012486320171095139205_);fill:#00943C;" d="M705.3,509.7
					c0,2-0.4,3.9-1.3,5.5c-0.7,1.4-2,2.9-3.7,4.7c-1.7,1.7-3.8,3-6.2,4c-2.1,0.8-4.2,1.2-6.1,1.2c-3.3,0-5.9-0.9-7.7-2.8
					c-1.7-1.7-2.6-4-2.6-6.8c0-2.4,0.7-4.6,2-6.8c1-1.6,2.2-3.1,3.8-4.4c1.2-1,1.9-1.5,2-1.5l6.1,0c-0.1,0-0.7,0.7-1.7,2.1
					c-1.3,1.7-2.4,3.5-3.3,5.1c-1.2,2.4-1.8,4.6-1.8,6.6c0,2.2,0.5,3.8,1.4,4.8c0.8,0.8,1.9,1.2,3.3,1.2c1.9,0,3.7-1.1,5.3-3.4
					c1.6-2.3,2.4-4.7,2.4-7.3c0-1.2-0.1-2.1-0.4-2.9c-0.3-0.9-1-1.6-1.8-2c-0.2-0.1-0.4-0.2-0.7-0.2c-0.3,0-0.6-0.1-0.9-0.1
					c-0.5,0-0.8,0-1.1,0c-0.3,0-0.5,0.1-0.8,0.1v-2l7.8-2.5c1.3,0.5,2.3,1,3,1.5C704.3,505.2,705.3,507.2,705.3,509.7"/>
				<path style="clip-path:url(#SVGID_00000183216645841753414030000012486320171095139205_);fill:#00943C;" d="M729.4,502.8l-2,7.3
					h-2.8v-0.3c0-0.3,0-0.5,0-0.8c0-0.6,0-1.2-0.1-1.7c-0.1-0.5-0.3-0.9-0.6-1.3c-0.4-0.4-0.8-0.7-1.4-0.9c-0.6-0.2-1.5-0.3-2.9-0.3
					c-1.7,0-3.1,0.3-4.2,0.9c-1.4,0.7-2,1.7-2,3.1c0,1.1,1.1,1.9,3.4,2.6c2.2,0.6,4.5,1.2,6.6,1.8c2.4,1,3.5,2.5,3.5,4.4
					c0,2.3-1.6,4.1-4.9,5.6c-2.9,1.3-6.1,2-9.7,2c-1.4,0-3.2-0.2-5.3-0.7c-0.7-0.1-1.7-0.4-2.9-0.7v-4.1c0.9,0.5,1.7,0.9,2.3,1.2
					c1.9,0.8,3.8,1.2,5.7,1.2c1.8,0,3.3-0.3,4.7-0.9c1.6-0.7,2.4-1.7,2.4-2.9c0-1.2-1.1-2-3.3-2.4c-2.2-0.5-4.4-0.9-6.5-1.3
					c-2.3-0.8-3.4-2.2-3.4-4.3c0-2,0.8-3.7,2.5-5c1.4-1.1,3.4-1.9,5.9-2.4c2-0.4,4.3-0.6,6.9-0.6c1.5,0,3.2,0.1,5.3,0.3
					C727.3,502.6,728.2,502.7,729.4,502.8"/>
				<path style="clip-path:url(#SVGID_00000183216645841753414030000012486320171095139205_);fill:#00943C;" d="M752.1,503.2
					l-2.1,8.9h-3c0.1-0.3,0.1-0.6,0.2-0.9c0.1-0.3,0.1-0.8,0.1-1.3c0-1.2-0.2-2.2-0.6-2.9c-0.6-1-1.6-1.5-2.9-1.5
					c-1.7,0-3.6,1.2-5.6,3.5c-2.1,2.4-3.1,4.9-3.1,7.4c0,1.9,0.5,3.4,1.4,4.5c1,1.1,2.2,1.6,3.7,1.6c1.3,0,2.8-0.6,4.6-1.9
					c0.6-0.4,1.4-1,2.4-1.9l3,1.9c-0.4,0.4-0.9,0.8-1.3,1.2c-1.2,1-2.4,1.7-3.7,2.3c-2,0.8-4,1.2-6.1,1.2c-3.1,0-5.6-0.8-7.6-2.3
					c-2.3-1.7-3.4-4.1-3.4-7.1c0-4,1.8-7.3,5.3-9.9c3.3-2.4,7.4-3.6,12.3-3.6c1.1,0,2.5,0.1,4.2,0.3
					C750.4,502.9,751.2,503.1,752.1,503.2"/>
				<path style="clip-path:url(#SVGID_00000183216645841753414030000012486320171095139205_);fill:#00943C;" d="M778.6,502.7
					l-5.6,22.3h-7.5l1.9-6.4c0.1-0.1,0.1-0.3,0.1-0.5c0-0.2,0.1-0.3,0.1-0.4c0-0.2-0.1-0.4-0.2-0.4c-0.2,0-0.3,0.1-0.5,0.3
					c0,0.1-0.1,0.2-0.2,0.3c-0.5,0.7-0.9,1.3-1.4,2c-1.2,1.5-2.5,2.8-3.8,3.8c-1.8,1.3-3.6,2-5.4,2c-1.7,0-3.1-0.6-4.2-1.7
					c-1-1.1-1.6-2.6-1.6-4.6c0-0.8,0.1-1.8,0.3-3c0.1-0.4,0.2-1,0.4-1.7l3.4-12.1h7.5l-3.7,13.3c0,0.1-0.1,0.3-0.1,0.7
					c-0.1,0.4-0.1,0.7-0.1,1c0,0.7,0.2,1.2,0.5,1.6c0.3,0.4,0.9,0.6,1.8,0.6c1.7,0,3.5-1.5,5.5-4.4c1.4-2.1,2.8-4.9,4.1-8.3
					c0.5-1.5,1.1-3,1.6-4.4H778.6z"/>
				<path style="clip-path:url(#SVGID_00000183216645841753414030000012486320171095139205_);fill:#00943C;" d="M739.7,495.3
					l-3.8-12.1l-2,3.5c-24.1-11.6-34.6,11.2-34.6,11.2s8.7-16.7,30-3.3l-2,3.5L739.7,495.3z"/>
				<path style="clip-path:url(#SVGID_00000183216645841753414030000012486320171095139205_);fill:#00943C;" d="M755.1,486.9
					l-3.8-12.1l-2,3.5c-24.1-11.6-34.6,11.2-34.6,11.2s8.7-16.7,30-3.3l-2,3.5L755.1,486.9z"/>
				<path style="clip-path:url(#SVGID_00000183216645841753414030000012486320171095139205_);fill:#00943C;" d="M803.2,504.1
					c-1.7-1-3.7-1.4-6-1.4h-3.5l-0.5,0.6c0.2,0.4,0.2,0.7,0.2,0.9l0,0.4c0,0.2,0,0.4,0,0.5h0.5c1.4,0,2.5,0.4,3.3,1.3
					c0.9,0.8,1.3,2,1.3,3.6c0,1.9-0.8,3.3-2.5,4.4c-1.1,0.7-2.7,1.2-4.6,1.5c-0.3,0-0.6,0.1-1,0.1l-0.2,0.6
					c-0.1,0.5-0.2,0.9-0.5,1.3l-0.2,0.4c0.2,0,0.4,0,0.6,0c2.2,0,4.3-0.2,6.1-0.5c2.8-0.5,5.1-1.4,6.7-2.6c2.1-1.6,3.1-3.7,3.1-6.4
					C806.1,506.7,805.1,505.2,803.2,504.1"/>
				<path style="clip-path:url(#SVGID_00000183216645841753414030000012486320171095139205_);fill:#00943C;" d="M790,508.8
					c0-0.1,0-0.4,0.1-0.5l0.8-2c0-0.1,0.2-0.3,0.2-0.4l0.3-0.8l0-0.1c0-0.1,0-0.4,0-0.5l0-0.2c0-0.1,0-0.3-0.1-0.5l-0.1-0.3v-0.5
					l0.1-0.5l0-0.2c0.1-0.1,0.2-0.3,0.2-0.4l0.7-0.8c0-0.1,0.1-0.3,0-0.3l-0.4-0.6c-0.1-0.1-0.2-0.2-0.3-0.2l-1.2-0.4
					c-0.1,0-0.4-0.1-0.4-0.2l-0.4-0.5c-0.1-0.1-0.2-0.2-0.3-0.2h-0.1c-0.1,0-0.3,0.1-0.4,0.1l-0.4,0.4c-0.1,0.1-0.1,0.3-0.1,0.4
					c0,0.1-0.1,0.2-0.3,0.3l-0.6,0.1c-0.2,0-0.4,0.1-0.5,0.2l-1,0.4c-0.1,0-0.3,0.1-0.3,0.2l-1,2.2c-0.1,0.1-0.2,0.3-0.3,0.3l-0.9,1
					c-0.1,0.1-0.2,0.3-0.3,0.4l-3.9,6.9c-0.1,0.1-0.1,0.3-0.1,0.4l0.1,2.3c0.1,0.1,0,0.3-0.1,0.4l-0.1,0.1c0,0.1-0.1,0.3-0.1,0.4
					l-0.1,0.5c0,0.1-0.1,0.3-0.1,0.4l0,0.4c0,0.1,0,0.3,0.2,0.4l0.6,0.5c0.1,0,0.2,0.2,0.2,0.3v0.8c0,0.1,0.1,0.3,0.1,0.4l0.2,0.7
					c0.1,0.1,0.1,0.3,0.2,0.4l0.7,1.1c0.1,0.1,0.2,0.2,0.3,0.2h0c0.1,0,0.3,0,0.4,0.2l1,0.9c0.2,0.1,0.3,0.3,0.3,0.4l0.5,1
					c0,0.1,0,0.3,0,0.4l-0.1,0.6c0,0.2,0.1,0.3,0.1,0.4l0.2,0.1c0.1,0.1,0.3,0.2,0.4,0.3l0.4,0.2c0.1,0.1,0.2,0,0.3-0.1l0.1-0.5
					c0-0.1,0.1-0.3,0.1-0.4v-0.8v-1.3c0-0.1,0-0.3,0-0.4l0.8-2.1c0-0.1,0.2-0.3,0.2-0.4l0.7-0.8l0.2-0.2c0.1,0,0.2-0.2,0.3-0.3
					l1.2-1.9c0.2-0.3,0.1-0.4,0.2-0.7c0-0.1,0.1-0.4,0.2-0.5l0.6-1.8c0.1-0.3,0.6-3.3,0.8-4.6C790,509.1,790,509,790,508.8"/>
				<path style="clip-path:url(#SVGID_00000183216645841753414030000012486320171095139205_);fill:#00943C;" d="M655.3,542.3
					c3-2.7,4.6-4.7,4.6-6.3c0-1.1-0.6-1.9-1.7-1.9c-0.8,0-1.5,0.5-2,1.1l-0.9-0.9c0.9-0.9,1.8-1.5,3.1-1.5c1.9,0,3.1,1.2,3.1,3.1
					c0,2-1.6,4-3.7,6.1c0.5-0.1,1.2-0.1,1.7-0.1h2.6v1.4h-6.6V542.3z"/>
				<path style="clip-path:url(#SVGID_00000183216645841753414030000012486320171095139205_);fill:#00943C;" d="M669.5,538.1
					c0-3.5,1.3-5.3,3.3-5.3c2,0,3.3,1.7,3.3,5.3c0,3.6-1.3,5.3-3.3,5.3C670.8,543.4,669.5,541.6,669.5,538.1 M674.6,538.1
					c0-2.9-0.7-4-1.8-4c-1,0-1.8,1.1-1.8,4c0,3,0.7,4.1,1.8,4.1C673.9,542.2,674.6,541,674.6,538.1"/>
				<path style="clip-path:url(#SVGID_00000183216645841753414030000012486320171095139205_);fill:#00943C;" d="M683.7,542.3
					c3-2.7,4.6-4.7,4.6-6.3c0-1.1-0.6-1.9-1.7-1.9c-0.8,0-1.5,0.5-2,1.1l-0.9-0.9c0.9-0.9,1.8-1.5,3.1-1.5c1.9,0,3.1,1.2,3.1,3.1
					c0,2-1.6,4-3.7,6.1c0.5-0.1,1.2-0.1,1.7-0.1h2.6v1.4h-6.6V542.3z"/>
				<path style="clip-path:url(#SVGID_00000183216645841753414030000012486320171095139205_);fill:#00943C;" d="M697.6,542l0.8-1
					c0.6,0.6,1.4,1.1,2.4,1.1c1.2,0,1.9-0.6,1.9-1.7c0-1.1-0.7-1.9-3-1.9v-1.2c2,0,2.7-0.8,2.7-1.8c0-0.9-0.6-1.5-1.6-1.5
					c-0.8,0-1.5,0.4-2,1l-0.8-1c0.8-0.7,1.8-1.2,2.9-1.2c1.8,0,3.1,0.9,3.1,2.6c0,1.2-0.7,2-1.8,2.4v0.1c1.2,0.3,2.1,1.2,2.1,2.6
					c0,1.8-1.5,2.9-3.4,2.9C699.3,543.4,698.3,542.8,697.6,542"/>
				<path style="clip-path:url(#SVGID_00000183216645841753414030000012486320171095139205_);fill:#00943C;" d="M713.9,536.9v7.5
					h-1.3v-12.2h5.2v4.7H713.9z M713.9,534h2.7v-0.9h-2.7V534z M716.5,534.9h-2.7v1h2.7V534.9z M720.2,541.1v3h-1.2v-3h-1.7
					c-0.1,0.9-0.6,2.3-1.8,3.2c-0.2-0.2-0.6-0.6-0.8-0.8c1-0.6,1.4-1.7,1.5-2.4h-1.6V540h1.6v-1.3h-1.4v-1h6.7v1h-1.4v1.3h1.7v1.1
					H720.2z M719.1,538.7h-1.7v1.3h1.7V538.7z M724.1,542.8c0,0.7-0.1,1.1-0.6,1.3c-0.4,0.2-1.1,0.3-2.2,0.2c0-0.3-0.2-0.9-0.4-1.3
					c0.7,0,1.4,0,1.6,0c0.2,0,0.3-0.1,0.3-0.3v-5.8h-4v-4.8h5.3V542.8z M720.1,534h2.8v-0.9h-2.8V534z M722.8,534.9h-2.8v1h2.8
					V534.9z"/>
				<path style="clip-path:url(#SVGID_00000183216645841753414030000012486320171095139205_);fill:#00943C;" d="M734.3,537.8
					c-0.5-0.4-1.5-1-2.3-1.5l0.8-0.9c0.7,0.4,1.8,1,2.3,1.3L734.3,537.8z M735.3,539.7c-0.5,1.4-1.3,3.1-1.9,4.4l-1.2-0.7
					c0.6-1.1,1.4-2.9,2-4.4L735.3,539.7z M735,534.1c-0.5-0.4-1.5-1.1-2.3-1.5l0.8-0.9c0.7,0.4,1.8,1,2.3,1.4L735,534.1z
					 M737.4,536.1c0,2.4-0.2,5.9-1.9,8.2c-0.2-0.2-0.8-0.5-1.1-0.7c1.6-2.2,1.7-5.3,1.7-7.6v-3.8h8.5v1.2h-7.2V536.1z M739.6,540.7
					c-0.4,1-1.1,2.1-1.7,2.8c-0.2-0.2-0.7-0.5-1-0.6c0.6-0.7,1.2-1.6,1.6-2.5L739.6,540.7z M741.7,539.7v3.4c0,0.6-0.1,0.9-0.5,1.1
					c-0.4,0.2-1,0.2-1.9,0.2c0-0.3-0.2-0.8-0.3-1.1c0.6,0,1.2,0,1.3,0c0.2,0,0.2-0.1,0.2-0.2v-3.3h-2.4v-4.9h2
					c0.1-0.4,0.3-0.9,0.4-1.3l1.4,0.3c-0.2,0.4-0.4,0.7-0.5,1.1h2.9v4.9H741.7z M739.2,536.8h3.8v-1h-3.8V536.8z M739.2,538.8h3.8
					v-1h-3.8V538.8z M743.5,540.3c0.5,0.8,1.2,2,1.5,2.6l-1.2,0.5c-0.3-0.7-0.9-1.9-1.4-2.7L743.5,540.3z"/>
				<path style="clip-path:url(#SVGID_00000183216645841753414030000012486320171095139205_);fill:#00943C;" d="M759.2,531.6
					c0,0.5,0,1.3-0.1,2.1c0.2,1.7,1,7.3,5.9,9.4c-0.4,0.3-0.8,0.7-0.9,1.1c-3.3-1.5-4.8-4.6-5.5-7.1c-0.7,2.6-2.2,5.4-5.3,7.2
					c-0.2-0.3-0.6-0.8-1.1-1c5.7-2.9,5.5-9.4,5.6-11.7H759.2z"/>
				<path style="clip-path:url(#SVGID_00000183216645841753414030000012486320171095139205_);fill:#00943C;" d="M785,541.3h-4.9v3.1
					h-1.3v-3.1h-6.3V540h2.2v-3.7h4.1v-1.9h-3.2c-0.6,1-1.3,1.9-2,2.6c-0.2-0.2-0.8-0.6-1.1-0.8c1.3-1.1,2.4-2.9,3-4.7l1.3,0.3
					c-0.2,0.4-0.4,0.9-0.5,1.3h8.1v1.3h-4.2v1.9h3.9v1.2h-3.9v2.5h4.9V541.3z M778.8,537.6H776v2.5h2.8V537.6z"/>
				<path style="clip-path:url(#SVGID_00000183216645841753414030000012486320171095139205_);fill:#00943C;" d="M799.8,531.9
					c-0.1,0.1-0.1,0.2-0.2,0.3c1.3,1.2,3.6,2.3,5.8,2.7c-0.3,0.2-0.6,0.7-0.8,1c-0.3-0.1-0.7-0.2-1-0.3v3.6h-9.4v-3.5
					c-0.3,0.1-0.7,0.2-1,0.3c-0.1-0.2-0.5-0.8-0.7-1c2.5-0.6,5-1.8,6.2-3.5L799.8,531.9z M803.5,535.5c-0.7-0.3-1.5-0.6-2.2-1v0.4
					h-4.8v-0.3c-0.6,0.4-1.3,0.7-2,0.9H803.5z M794.9,539.7h7.9v4.6h-1.3v-0.4h-5.3v0.4h-1.3V539.7z M796.8,536.5
					c0.3,0.5,0.6,1.1,0.7,1.5l-0.9,0.3h1.6v-1.9h-3v1.9h1.3c-0.1-0.4-0.4-1.1-0.7-1.6L796.8,536.5z M796.2,541.4h5.3v-0.8h-5.3
					V541.4z M801.5,542.2h-5.3v0.8h5.3V542.2z M800.4,534.1c-0.6-0.3-1.1-0.8-1.5-1.2c-0.4,0.4-1,0.8-1.5,1.2H800.4z M802.4,536.4
					h-3.1v1.9h1.6L800,538c0.3-0.4,0.5-1.2,0.7-1.6l1.1,0.3c-0.3,0.6-0.6,1.2-0.9,1.6h1.5V536.4z"/>
				<path style="clip-path:url(#SVGID_00000183216645841753414030000012486320171095139205_);fill:#00943C;" d="M660.3,552.8h-4.8
					v-2.2h7.7v1.6c-2.6,3.1-2.9,5.2-3.1,9.6h-2.7C657.6,558.1,658.2,555.7,660.3,552.8"/>
				<polygon style="clip-path:url(#SVGID_00000183216645841753414030000012486320171095139205_);fill:#00943C;" points="
					670.8,549.6 672.5,549.6 669.2,564.5 667.5,564.5 				"/>
				<path style="clip-path:url(#SVGID_00000183216645841753414030000012486320171095139205_);fill:#00943C;" d="M677,560.3
					c2.8-2.5,4.7-4.6,4.7-6.2c0-1-0.6-1.6-1.5-1.6c-0.8,0-1.4,0.5-1.9,1.1l-1.5-1.4c1.1-1.2,2.1-1.7,3.7-1.7c2.2,0,3.7,1.4,3.7,3.5
					c0,1.9-1.7,4.1-3.4,5.8c0.6-0.1,1.3-0.1,1.8-0.1h2.1v2.3H677V560.3z"/>
				<path style="clip-path:url(#SVGID_00000183216645841753414030000012486320171095139205_);fill:#00943C;" d="M691,559.1
					c0.4,0.4,1.1,0.8,1.7,0.8c1.1,0,2.1-0.8,2.2-3.3c-0.5,0.7-1.5,1.1-2.1,1.1c-1.9,0-3.3-1.1-3.3-3.5c0-2.4,1.7-3.8,3.7-3.8
					c2.1,0,4.2,1.6,4.2,5.7c0,4.1-2.1,6-4.4,6c-1.5,0-2.6-0.6-3.3-1.3L691,559.1z M694.8,554.8c-0.2-1.9-0.9-2.4-1.6-2.4
					c-0.7,0-1.3,0.5-1.3,1.8c0,1.2,0.6,1.6,1.4,1.6C693.8,555.8,694.4,555.5,694.8,554.8"/>
				
					<rect x="702.2" y="556.5" style="clip-path:url(#SVGID_00000183216645841753414030000012486320171095139205_);fill:#00943C;" width="4.3" height="1.9"/>
				<path style="clip-path:url(#SVGID_00000183216645841753414030000012486320171095139205_);fill:#00943C;" d="M710.9,560.4
					l1.2-1.7c0.7,0.6,1.5,1.1,2.3,1.1c1,0,1.7-0.4,1.7-1.3c0-1-0.5-1.5-2.9-1.5v-1.9c1.9,0,2.5-0.6,2.5-1.5c0-0.8-0.5-1.2-1.3-1.2
					c-0.8,0-1.3,0.3-2,0.9l-1.4-1.6c1-0.9,2.2-1.4,3.5-1.4c2.3,0,3.8,1.1,3.8,3.1c0,1.1-0.6,2-1.8,2.5v0.1c1.3,0.4,2.2,1.3,2.2,2.7
					c0,2.1-1.9,3.3-4.1,3.3C712.9,562,711.7,561.4,710.9,560.4"/>
				<path style="clip-path:url(#SVGID_00000183216645841753414030000012486320171095139205_);fill:#00943C;" d="M723.6,556.1
					c0-3.9,1.6-5.8,4-5.8c2.4,0,4,1.9,4,5.8c0,3.9-1.6,5.9-4,5.9C725.2,562,723.6,560,723.6,556.1 M729,556.1c0-3.1-0.6-3.7-1.4-3.7
					c-0.8,0-1.4,0.6-1.4,3.7c0,3.1,0.6,3.8,1.4,3.8C728.4,559.9,729,559.2,729,556.1"/>
				<path style="clip-path:url(#SVGID_00000183216645841753414030000012486320171095139205_);fill:#00943C;" d="M736,556.8
					c0-4.9,3.6-8.1,7.9-8.1c3.8,0,6.2,2.6,6.2,6.2c0,3.2-2.2,4.8-4,4.8c-1,0-1.8-0.5-2-1.3h0c-0.5,0.7-1.4,1.2-2.1,1.2
					c-1.4,0-2.3-1-2.3-2.6c0-2.1,1.5-4.3,3.5-4.3c0.6,0,1,0.3,1.3,0.9h0l0.3-0.7h1.6l-0.8,3.9c-0.2,1,0,1.4,0.8,1.4
					c1.1,0,2-1.2,2-3.1c0-2.5-1.3-4.7-4.7-4.7c-3,0-5.9,2.5-5.9,6.4c0,3.4,2.4,5,5.1,5c0.9,0,1.9-0.3,2.6-0.7l0.6,1.5
					c-1.1,0.6-2.2,0.8-3.4,0.8C739.2,563.4,736,561.3,736,556.8 M743.6,557.1l0.4-2.3c-0.2-0.3-0.4-0.5-0.8-0.5
					c-1,0-1.6,1.4-1.6,2.4c0,0.7,0.3,1.1,0.9,1.1C742.9,557.9,743.2,557.7,743.6,557.1"/>
				<path style="clip-path:url(#SVGID_00000183216645841753414030000012486320171095139205_);fill:#00943C;" d="M768.2,549.6v1.3
					h-5.7v0.3h4.4v1.2H756v-1.2h4.3v-0.3h-5.5v-1.3h5.5v-0.7h2.2v0.7H768.2z M754.8,555.4h13.3v2.3h-1.9v0.4h-0.7
					c0.5,0.3,1.1,0.7,1.4,1l-1,0.8h0.8v1.2h-4.3v0.3h5.6v1.4h-13.2v-1.4h5.4v-0.3h-3.9V560h3.9v-0.3c-2.4,0.1-2.8,0.1-3.2,0.2
					c-0.1-0.3-0.3-1-0.4-1.3c0.2,0,0.5-0.1,0.8-0.2c0.1,0,0.4-0.1,0.7-0.3h-1.7v-0.4h-1.6V555.4z M766.6,555.1h-10.1v-2.4h10.1
					V555.1z M756.8,557h9.3v-0.3h-9.3V557z M764.4,553.8h-5.9v0.3h5.9V553.8z M763.3,558.5c-0.2-0.1-0.4-0.2-0.6-0.3l0,0h-2.2
					c-0.2,0.1-0.5,0.3-0.7,0.4L763.3,558.5z M765.4,560c-0.1-0.1-0.3-0.2-0.5-0.4l-2.4,0.1v0.3H765.4z"/>
				<path style="clip-path:url(#SVGID_00000183216645841753414030000012486320171095139205_);fill:#00943C;" d="M777.6,558.9
					c-0.2-0.3-0.4-0.8-0.6-1.2v5.6h-2.1v-4.7c-0.4,0.9-0.8,1.7-1.3,2.4c-0.2-0.6-0.7-1.6-1-2.1c0.8-0.9,1.5-2.4,2-3.7h-1.9v-2h2.1
					v-1.4c-0.5,0.1-1,0.2-1.5,0.2c-0.1-0.5-0.3-1.2-0.6-1.7c1.7-0.3,3.6-0.7,4.9-1.2l1.2,1.8c-0.6,0.2-1.3,0.4-1.9,0.5v1.8h1.9v2
					H777v0c0.4,0.3,1.6,1.6,1.9,2L777.6,558.9z M785.4,559.5v3.7h-2.2v-3.3l-4.4,0.8l-0.3-2.1l4.7-0.8v-8.8h2.2v8.5l1.4-0.2l0.3,2.1
					L785.4,559.5z M780.3,553.7c0.8,0.6,1.9,1.6,2.4,2.2l-1.5,1.4c-0.4-0.7-1.4-1.7-2.3-2.4L780.3,553.7z M781.5,553.3
					c-0.4-0.7-1.4-1.7-2.2-2.4l1.4-1.2c0.8,0.6,1.8,1.6,2.3,2.2L781.5,553.3z"/>
				<path style="clip-path:url(#SVGID_00000183216645841753414030000012486320171095139205_);fill:#00943C;" d="M799.9,555.1
					c1,2.7,2.7,4.9,5.5,6c-0.5,0.5-1.3,1.4-1.6,2.1c-2.7-1.2-4.3-3.2-5.5-5.9c-0.9,2.3-2.5,4.4-5.4,5.9c-0.3-0.6-1-1.4-1.7-1.9
					c3.3-1.5,4.7-3.8,5.3-6.2h-5v-2.3h5.4c0.1-1.3,0.1-2.7,0.1-3.9h2.4c0,1.2,0,2.6-0.1,3.9h5.8v2.3H799.9z"/>
			</g>
		</g>
	</g>
</g>
<g id="輸出佈置" class="st100">
	<g class="st102">
		<text transform="matrix(1 0 0 1 372.606 195.9297)" class="st103 st104 st105">徵才看板B</text>
	</g>
	<line class="st101" x1="387.3" y1="182.2" x2="422.5" y2="182.2"/>
	<line class="st101" x1="598.3" y1="182.2" x2="633.5" y2="182.2"/>
	<text transform="matrix(1 0 0 1 517.3044 291.0039)" class="st106 st104 st107">樓層議程告知</text>
	<text transform="matrix(1 0 0 1 180.925 296.3018)" class="st106 st104 st107">樓層議程告知</text>
	<text transform="matrix(1 0 0 1 595.5007 199.4111)" class="st106 st104 st107">社群交流看板</text>
	<line class="st101" x1="443.9" y1="182.9" x2="501" y2="182.9"/>
	<text transform="matrix(1 0 0 1 464.2703 197.2764)" class="st102"><tspan x="0" y="0" class="st103 st104 st107">4樓</tspan><tspan x="-26" y="12.5" class="st103 st104 st107">議程看板+地圖</tspan></text>
	<text transform="matrix(1 0 0 1 681.7651 535.4279)" class="st102 st104 st109">A.贊助商海報</text>
	<g class="st102">
		<text transform="matrix(1 0 0 1 681.5522 551.2243)" class="st104 st109">B.主視覺海報</text>
	</g>
	<g class="st102">
		<text transform="matrix(1 0 0 1 681.6528 567.0217)" class="st104 st109">C.講桌前背板(上方)</text>
	</g>
	<g class="st102">
		<text transform="matrix(1 0 0 1 768.3364 567.5236)" class="st104 st110">6間</text>
	</g>
	<text transform="matrix(1 0 0 1 666.604 524.2541)" class="st102 st104 st111">議程教室</text>
	<polygon class="st108" points="650.9,519.1 650.9,551.2 570.6,551.2 570.6,544.4 564.1,544.4 564.1,519.1 	"/>
	<rect x="550.1" y="544.4" class="st108" width="20.5" height="28.4"/>
	<rect x="546.4" y="523.2" class="st108" width="14" height="19.6"/>
	<rect x="632.9" y="523.2" class="st108" width="14" height="19.6"/>
	<g class="st102">
		<text transform="matrix(1 0 0 1 636.8853 536.4562)" class="st104 st109">A</text>
	</g>
	<g class="st102">
		<text transform="matrix(1 0 0 1 549.4419 535.9816)" class="st104 st109">B</text>
	</g>
	<g class="st102">
		<text transform="matrix(1 0 0 1 556.7495 562.1745)" class="st104 st109">C</text>
	</g>
	<g class="st102">
		<text transform="matrix(1 0 0 1 681.7651 580.9211)" class="st104 st112">D.門口的議程軌布告欄</text>
	</g>
	<line class="st101" x1="173.1" y1="256" x2="173.1" y2="232.6"/>
	<line class="st101" x1="571.7" y1="263.3" x2="571.7" y2="239.9"/>
	<path class="st116" d="M702,75.5c27.9,0,55.2,0,83.2,0c0-14.8,0-28.8,0-43.6c20.2,0,41.3,0,61.7-0.3"/>
	<path class="st116" d="M952,31.6c8.5,1.1,16.2-1.3,24.8,0.3c0,14.8,0,28.8,0,43.6c62.3,0,124.6,0,186.9,0c0-56.8,0-112.9,0-169.8
		c-30.1,0.1,0,3.4,0,0c-154.2,0-307.6,0-461.5-0.2"/>
	<rect x="696.8" y="20.8" class="st117" width="16.2" height="12.6"/>
	<rect x="696.8" y="35.7" class="st117" width="16.6" height="35"/>
	<rect x="715.7" y="20.4" class="st117" width="61.3" height="50.3"/>
	<rect x="715.4" y="19.9" class="st118" width="0.4" height="0.5"/>
	
		<rect x="841.1" y="22" transform="matrix(-1 -1.224647e-16 1.224647e-16 -1 1689.2051 52.9826)" class="st119" width="7" height="9.1"/>
</g>
</svg>
