<?xml version="1.0" encoding="utf-8"?>
<!-- Generator: Adobe Illustrator 27.3.1, SVG Export Plug-In . SVG Version: 6.00 Build 0)  -->
<svg version="1.1" xmlns="http://www.w3.org/2000/svg" xmlns:xlink="http://www.w3.org/1999/xlink" x="0px" y="0px"
	 viewBox="0 0 841.9 595.3" style="enable-background:new 0 0 841.9 595.3;" xml:space="preserve">
<style type="text/css">
	.st0{fill:#3B9838;}
	.st1{fill:none;stroke:#FFFFFF;stroke-width:2;stroke-linecap:round;stroke-linejoin:bevel;}
	.st2{opacity:0.73;}
	.st3{fill:#A0A0A0;stroke:#FFFFFF;stroke-width:2;stroke-linecap:round;stroke-linejoin:bevel;}
	.st4{fill:none;stroke:#B3B3B3;stroke-width:4.4344;stroke-linecap:round;stroke-miterlimit:10;}
	.st5{fill:#E6E6E6;}
	.st6{fill:#FFFEFF;}
	.st7{fill:#B3B3B3;}
	.st8{fill:none;stroke:#B3B3B3;stroke-width:4.4344;stroke-miterlimit:10;}
	.st9{fill:none;stroke:#FFFEFF;stroke-width:3;stroke-miterlimit:10;}
	.st10{fill:#12344C;}
	.st11{fill:#E98025;}
	.st12{fill:#808080;}
	.st13{fill:#FFE9BA;}
	.st14{fill:#3E3D4D;}
	.st15{fill:#BCC4C6;}
	.st16{fill:#D24635;}
	.st17{fill:#FCF3EE;}
	.st18{fill:#E8C72E;}
	.st19{fill:#E0A911;}
	.st20{fill:#0071BC;}
	.st21{opacity:0.2;fill:none;stroke:#70931B;stroke-width:2;stroke-miterlimit:10;stroke-dasharray:4,4;}
	.st22{opacity:0.2;fill:none;stroke:#70931B;stroke-width:1.78;stroke-miterlimit:10;stroke-dasharray:3.56,3.56;}
	.st23{clip-path:url(#SVGID_00000049934568683558200730000017795902566269589160_);}
	.st24{clip-path:url(#SVGID_00000067216811818345785320000002194638973908072090_);fill:#00943C;}
	.st25{clip-path:url(#SVGID_00000076580702192208485840000007140843708033129616_);}
	.st26{clip-path:url(#SVGID_00000082337611006762956590000015783853991857541525_);fill:#00943C;}
	.st27{clip-path:url(#SVGID_00000098217426195864186150000013566314957059908517_);}
	.st28{clip-path:url(#SVGID_00000171708774893947575170000005532635336185404840_);fill:#00943C;}
	.st29{clip-path:url(#SVGID_00000142854813211162746850000016397551318653827513_);}
	.st30{clip-path:url(#SVGID_00000067234575993349640740000001223405110098730130_);fill:#00943C;}
	.st31{clip-path:url(#SVGID_00000175316783483979915010000012366088574440713116_);}
	.st32{clip-path:url(#SVGID_00000080188194496198237250000002580488639322079669_);fill:#00943C;}
	.st33{clip-path:url(#SVGID_00000013888457226936404970000012349329154614089111_);}
	.st34{clip-path:url(#SVGID_00000022546107950191791630000016859399730304212873_);fill:#00943C;}
	.st35{clip-path:url(#SVGID_00000015352314193137718900000007124529058919477122_);}
	.st36{clip-path:url(#SVGID_00000044138637036784251860000006950577731156286595_);fill:#00943C;}
	.st37{clip-path:url(#SVGID_00000073716937475770845960000001903276796524966789_);}
	.st38{clip-path:url(#SVGID_00000100383148394734686510000006466300957003578499_);fill:#00943C;}
	.st39{opacity:0.1;fill:#70931B;}
	.st40{fill:none;stroke:#FFFEFF;stroke-miterlimit:10;}
	.st41{fill:#FFFFFF;}
	.st42{fill:none;stroke:#FFFFFF;stroke-width:1.8113;}
	.st43{fill:#C1272D;}
	.st44{fill:#30AF00;}
	.st45{fill:#0076CB;}
	.st46{fill:#008061;}
	.st47{fill:#F5821F;}
	.st48{fill:#ED1B2D;}
	.st49{fill:#FF0000;}
	.st50{opacity:0.5;fill:url(#SVGID_00000167387543454513153240000004696958759465402503_);}
	.st51{opacity:0.5;fill:url(#SVGID_00000031168895922067838120000010893614958854766772_);}
	.st52{opacity:0.8;}
	.st53{fill-rule:evenodd;clip-rule:evenodd;fill:#D5E7D0;}
	.st54{fill:none;stroke:#040000;stroke-width:0.75;stroke-linejoin:round;stroke-miterlimit:8;}
	.st55{opacity:0;fill-rule:evenodd;clip-rule:evenodd;fill:#040000;}
	.st56{fill:#040000;}
	.st57{fill:#3B9138;}
	.st58{font-family:'MicrosoftJhengHeiBold';}
	.st59{font-size:19.3787px;}
	.st60{font-size:15.5337px;}
	.st61{fill:#6B6B6B;}
	.st62{font-size:11.3637px;}
	.st63{fill-rule:evenodd;clip-rule:evenodd;fill:#8FCFC9;}
	.st64{fill-rule:evenodd;clip-rule:evenodd;fill:#F2EA32;}
	.st65{fill-rule:evenodd;clip-rule:evenodd;fill:#040000;}
	.st66{font-size:8.8403px;}
	.st67{font-family:'MicrosoftJhengHeiRegular';}
	.st68{font-size:9.0719px;}
	.st69{font-size:20.428px;}
	.st70{font-size:16.3748px;}
	.st71{font-size:11.979px;}
	.st72{fill-rule:evenodd;clip-rule:evenodd;fill:#FFFFFF;}
	.st73{opacity:0;fill-rule:evenodd;clip-rule:evenodd;}
	.st74{fill:none;stroke:#000000;stroke-width:0.75;stroke-linejoin:round;stroke-miterlimit:8;}
	.st75{fill-rule:evenodd;clip-rule:evenodd;fill:#D9EAD3;}
	.st76{opacity:0;fill-rule:evenodd;clip-rule:evenodd;stroke:#000000;stroke-width:0.75;stroke-miterlimit:10;}
	.st77{fill-rule:evenodd;clip-rule:evenodd;fill:#FCFCFC;stroke:#000000;stroke-width:0.75;stroke-miterlimit:10;}
	.st78{font-size:8.7939px;}
	.st79{fill:none;stroke:#000000;stroke-width:0.5;stroke-linejoin:round;stroke-miterlimit:8;}
	.st80{fill-rule:evenodd;clip-rule:evenodd;fill:none;stroke:#000000;stroke-width:0.5;stroke-linejoin:round;stroke-miterlimit:8;}
	.st81{fill-rule:evenodd;clip-rule:evenodd;fill:#FFFFFF;stroke:#000000;stroke-width:0.5;stroke-miterlimit:10;}
	.st82{fill-rule:evenodd;clip-rule:evenodd;fill:#D5E7D0;stroke:#000000;stroke-width:0.5;stroke-miterlimit:10;}
	.st83{fill-rule:evenodd;clip-rule:evenodd;fill:#F2EA32;stroke:#000000;stroke-width:0.5;stroke-miterlimit:10;}
	.st84{opacity:0;fill-rule:evenodd;clip-rule:evenodd;fill:#040000;stroke:#000000;stroke-width:0.5;stroke-miterlimit:10;}
	.st85{fill:#D5E7D0;stroke:#000000;stroke-width:0.5;stroke-miterlimit:10;}
	.st86{fill-rule:evenodd;clip-rule:evenodd;fill:#FCFDFD;stroke:#000000;stroke-width:0.5;stroke-miterlimit:10;}
	
		.st87{fill-rule:evenodd;clip-rule:evenodd;fill:none;stroke:#040000;stroke-width:0.75;stroke-linejoin:round;stroke-miterlimit:8;}
	
		.st88{opacity:0;fill-rule:evenodd;clip-rule:evenodd;fill:none;stroke:#040000;stroke-width:0.75;stroke-linejoin:round;stroke-miterlimit:8;}
	.st89{fill:#D5E7D0;stroke:#040000;stroke-width:0.75;stroke-miterlimit:10;}
	.st90{opacity:0;fill-rule:evenodd;clip-rule:evenodd;fill:#040000;stroke:#040000;stroke-width:0.75;stroke-miterlimit:10;}
	.st91{fill-rule:evenodd;clip-rule:evenodd;fill:#FFFFFF;stroke:#040000;stroke-width:0.75;stroke-miterlimit:10;}
	.st92{fill-rule:evenodd;clip-rule:evenodd;fill:#FCFDFD;}
	.st93{fill-rule:evenodd;clip-rule:evenodd;fill:#D5E7D0;stroke:#040000;stroke-width:0.75;stroke-miterlimit:10;}
	.st94{fill-rule:evenodd;clip-rule:evenodd;fill:#FCFDFD;stroke:#040000;stroke-width:0.75;stroke-miterlimit:10;}
	.st95{clip-path:url(#SVGID_00000023997673783034135680000018313110658019497602_);}
	.st96{clip-path:url(#SVGID_00000145738001127719447020000011103301432045065618_);fill:#00943C;}
	.st97{clip-path:url(#SVGID_00000120524029892338587180000007273773540909550216_);}
	.st98{clip-path:url(#SVGID_00000078736209545463318420000009933940047066864562_);fill:#00943C;}
	.st99{clip-path:url(#SVGID_00000129921716822713844900000003467551501845918370_);}
	.st100{clip-path:url(#SVGID_00000071539105721098279800000000040866088401954447_);fill:#00943C;}
	.st101{display:none;}
	.st102{display:inline;fill:none;stroke:#F90000;stroke-width:8;stroke-miterlimit:10;}
	.st103{display:inline;}
	.st104{display:inline;fill:none;stroke:#000000;stroke-miterlimit:10;}
	.st105{display:inline;fill:#F90000;}
	.st106{display:inline;fill:none;stroke:#F90000;stroke-width:3;stroke-miterlimit:10;}
	.st107{display:inline;fill:none;stroke:#232323;stroke-miterlimit:10;}
	.st108{display:inline;fill:none;stroke:#F90000;stroke-miterlimit:10;}
	.st109{display:inline;fill:none;stroke:#B3B3B3;stroke-width:4.4344;stroke-linecap:round;stroke-miterlimit:10;}
	.st110{display:inline;fill:#E6E6E6;}
	.st111{display:inline;fill:#FFFEFF;}
	.st112{display:inline;fill:#B3B3B3;}
	.st113{display:inline;fill:none;stroke:#B3B3B3;stroke-width:4.4344;stroke-miterlimit:10;}
	.st114{display:inline;opacity:0.2;fill:none;stroke:#70931B;stroke-width:2;stroke-miterlimit:10;stroke-dasharray:4,4;}
</style>
<g id="建築">
</g>
<g id="標示">
</g>
<g id="樓層位置">
	<g>
		<text transform="matrix(1 0 0 1 68.5103 121.2693)" class="st57 st58 st59">309</text>
	</g>
	<g>
		<text transform="matrix(1 0 0 1 68.5103 161.572)" class="st56 st58 st60">社群/贊助攤位</text>
	</g>
	<g>
		<g>
			<g>
				<path class="st56" d="M74,174.8c-0.3,0.2-1,0.3-1.8,0.3c-1.9,0-3.4-1.2-3.4-3.4c0-2.1,1.4-3.6,3.6-3.6c0.8,0,1.4,0.2,1.6,0.3
					l-0.2,0.7c-0.3-0.2-0.8-0.3-1.4-0.3c-1.6,0-2.7,1-2.7,2.8c0,1.7,1,2.7,2.6,2.7c0.5,0,1.1-0.1,1.4-0.3L74,174.8z"/>
				<path class="st56" d="M79.5,172.5c0,1.8-1.3,2.6-2.4,2.6c-1.3,0-2.3-1-2.3-2.5c0-1.6,1.1-2.6,2.4-2.6
					C78.6,170,79.5,171,79.5,172.5z M75.7,172.6c0,1.1,0.6,1.9,1.5,1.9c0.9,0,1.5-0.8,1.5-1.9c0-0.8-0.4-1.9-1.5-1.9
					C76.1,170.7,75.7,171.7,75.7,172.6z"/>
				<path class="st56" d="M80.7,171.5c0-0.5,0-0.9,0-1.3h0.8l0,0.8h0c0.3-0.5,0.7-0.9,1.5-0.9c0.7,0,1.2,0.4,1.4,1h0
					c0.2-0.3,0.3-0.5,0.6-0.6c0.3-0.2,0.6-0.3,1.1-0.3c0.7,0,1.6,0.4,1.6,2.1v2.9h-0.9v-2.8c0-0.9-0.3-1.5-1.1-1.5
					c-0.5,0-0.9,0.4-1.1,0.8c0,0.1-0.1,0.3-0.1,0.4v3h-0.9v-2.9c0-0.8-0.3-1.3-1-1.3c-0.6,0-1,0.4-1.1,0.9c0,0.1-0.1,0.3-0.1,0.4
					v2.9h-0.9V171.5z"/>
				<path class="st56" d="M89.1,171.5c0-0.5,0-0.9,0-1.3h0.8l0,0.8h0c0.3-0.5,0.7-0.9,1.5-0.9c0.7,0,1.2,0.4,1.4,1h0
					c0.2-0.3,0.3-0.5,0.6-0.6c0.3-0.2,0.6-0.3,1.1-0.3c0.7,0,1.6,0.4,1.6,2.1v2.9h-0.9v-2.8c0-0.9-0.3-1.5-1.1-1.5
					c-0.5,0-0.9,0.4-1.1,0.8c0,0.1-0.1,0.3-0.1,0.4v3h-0.9v-2.9c0-0.8-0.3-1.3-1-1.3c-0.6,0-1,0.4-1.1,0.9c0,0.1-0.1,0.3-0.1,0.4
					v2.9h-0.9V171.5z"/>
				<path class="st56" d="M101.6,173.7c0,0.5,0,1,0,1.3h-0.8l0-0.8h0c-0.2,0.4-0.7,0.9-1.6,0.9c-0.8,0-1.7-0.4-1.7-2.1v-2.9h0.9v2.7
					c0,0.9,0.3,1.6,1.1,1.6c0.6,0,1-0.4,1.2-0.8c0-0.1,0.1-0.3,0.1-0.5v-3h0.9V173.7z"/>
				<path class="st56" d="M103.1,171.5c0-0.5,0-0.9,0-1.3h0.8l0,0.8h0c0.2-0.5,0.8-0.9,1.6-0.9c0.7,0,1.7,0.4,1.7,2.1v2.9h-0.9v-2.8
					c0-0.8-0.3-1.5-1.1-1.5c-0.6,0-1,0.4-1.2,0.9c0,0.1-0.1,0.3-0.1,0.4v2.9h-0.9V171.5z"/>
				<path class="st56" d="M109.7,168.8c0,0.3-0.2,0.6-0.6,0.6c-0.3,0-0.5-0.2-0.5-0.6c0-0.3,0.2-0.6,0.6-0.6
					C109.4,168.2,109.7,168.5,109.7,168.8z M108.7,175v-4.9h0.9v4.9H108.7z"/>
				<path class="st56" d="M112.1,168.7v1.4h1.3v0.7h-1.3v2.6c0,0.6,0.2,1,0.7,1c0.2,0,0.4,0,0.5-0.1l0,0.7c-0.2,0.1-0.4,0.1-0.8,0.1
					c-0.4,0-0.7-0.1-1-0.4c-0.2-0.3-0.3-0.7-0.3-1.3v-2.7h-0.8v-0.7h0.8V169L112.1,168.7z"/>
				<path class="st56" d="M114.7,170.1l1.1,2.9c0.1,0.3,0.2,0.7,0.3,1h0c0.1-0.3,0.2-0.7,0.3-1l1-2.9h0.9l-1.3,3.5
					c-0.6,1.7-1.1,2.5-1.7,3.1c-0.4,0.4-0.9,0.5-1.1,0.6l-0.2-0.7c0.2-0.1,0.5-0.2,0.8-0.4c0.2-0.2,0.5-0.5,0.7-1
					c0-0.1,0.1-0.2,0.1-0.2c0,0,0-0.1-0.1-0.2l-1.8-4.5H114.7z"/>
				<path class="st56" d="M124,175l-0.1-0.6h0c-0.3,0.4-0.8,0.7-1.5,0.7c-1,0-1.5-0.7-1.5-1.4c0-1.2,1-1.8,2.9-1.8v-0.1
					c0-0.4-0.1-1.1-1.1-1.1c-0.5,0-0.9,0.1-1.3,0.4l-0.2-0.6c0.4-0.3,1-0.4,1.6-0.4c1.5,0,1.9,1,1.9,2v1.8c0,0.4,0,0.8,0.1,1.2H124z
					 M123.8,172.5c-1,0-2.1,0.2-2.1,1.1c0,0.6,0.4,0.9,0.8,0.9c0.6,0,1-0.4,1.2-0.8c0-0.1,0-0.2,0-0.3V172.5z"/>
				<path class="st56" d="M126.1,171.5c0-0.5,0-0.9,0-1.3h0.8l0,0.8h0c0.2-0.5,0.8-0.9,1.6-0.9c0.7,0,1.7,0.4,1.7,2.1v2.9h-0.9v-2.8
					c0-0.8-0.3-1.5-1.1-1.5c-0.6,0-1,0.4-1.2,0.9c0,0.1-0.1,0.3-0.1,0.4v2.9h-0.9V171.5z"/>
				<path class="st56" d="M136,167.9v5.9c0,0.4,0,0.9,0,1.3h-0.8l0-0.8h0c-0.3,0.5-0.9,1-1.7,1c-1.2,0-2.1-1-2.1-2.5
					c0-1.6,1-2.6,2.2-2.6c0.8,0,1.3,0.4,1.5,0.7h0v-2.9H136z M135.1,172.1c0-0.1,0-0.3,0-0.4c-0.1-0.6-0.6-1-1.3-1
					c-0.9,0-1.5,0.8-1.5,1.9c0,1,0.5,1.8,1.5,1.8c0.6,0,1.1-0.4,1.3-1.1c0-0.1,0-0.2,0-0.4V172.1z"/>
				<path class="st56" d="M139.5,174c0.4,0.2,1,0.4,1.6,0.4c0.9,0,1.4-0.5,1.4-1.2c0-0.6-0.4-1-1.3-1.3c-1.1-0.4-1.8-1-1.8-1.9
					c0-1.1,0.9-1.8,2.2-1.8c0.7,0,1.2,0.2,1.5,0.3l-0.2,0.7c-0.2-0.1-0.7-0.3-1.3-0.3c-0.9,0-1.3,0.6-1.3,1c0,0.6,0.4,0.9,1.4,1.3
					c1.2,0.5,1.7,1,1.7,2c0,1-0.8,2-2.4,2c-0.7,0-1.4-0.2-1.7-0.4L139.5,174z"/>
				<path class="st56" d="M144.6,171.7c0-0.6,0-1.1,0-1.6h0.8l0,0.8h0c0.4-0.6,0.9-0.9,1.7-0.9c1.2,0,2.1,1,2.1,2.5
					c0,1.8-1.1,2.6-2.2,2.6c-0.7,0-1.2-0.3-1.5-0.8h0v2.7h-0.9V171.7z M145.5,173c0,0.1,0,0.2,0,0.4c0.2,0.6,0.7,1,1.3,1
					c0.9,0,1.5-0.8,1.5-1.9c0-1-0.5-1.8-1.5-1.8c-0.6,0-1.2,0.4-1.3,1.1c0,0.1-0.1,0.2-0.1,0.4V173z"/>
				<path class="st56" d="M154.7,172.5c0,1.8-1.3,2.6-2.4,2.6c-1.3,0-2.3-1-2.3-2.5c0-1.6,1.1-2.6,2.4-2.6
					C153.8,170,154.7,171,154.7,172.5z M150.9,172.6c0,1.1,0.6,1.9,1.5,1.9c0.9,0,1.5-0.8,1.5-1.9c0-0.8-0.4-1.9-1.5-1.9
					C151.3,170.7,150.9,171.7,150.9,172.6z"/>
				<path class="st56" d="M155.9,171.5c0-0.5,0-0.9,0-1.3h0.8l0,0.8h0c0.2-0.5,0.8-0.9,1.6-0.9c0.7,0,1.7,0.4,1.7,2.1v2.9h-0.9v-2.8
					c0-0.8-0.3-1.5-1.1-1.5c-0.6,0-1,0.4-1.2,0.9c0,0.1-0.1,0.3-0.1,0.4v2.9h-0.9V171.5z"/>
				<path class="st56" d="M161.3,174.1c0.3,0.2,0.7,0.3,1.2,0.3c0.6,0,0.9-0.3,0.9-0.7c0-0.4-0.3-0.7-0.9-0.9
					c-0.9-0.3-1.3-0.8-1.3-1.4c0-0.8,0.6-1.4,1.7-1.4c0.5,0,0.9,0.1,1.2,0.3l-0.2,0.6c-0.2-0.1-0.5-0.3-1-0.3
					c-0.5,0-0.8,0.3-0.8,0.7c0,0.4,0.3,0.6,0.9,0.8c0.8,0.3,1.3,0.7,1.3,1.5c0,0.9-0.7,1.5-1.8,1.5c-0.5,0-1-0.1-1.4-0.3
					L161.3,174.1z"/>
				<path class="st56" d="M169.9,172.5c0,1.8-1.3,2.6-2.4,2.6c-1.3,0-2.3-1-2.3-2.5c0-1.6,1.1-2.6,2.4-2.6
					C168.9,170,169.9,171,169.9,172.5z M166,172.6c0,1.1,0.6,1.9,1.5,1.9c0.9,0,1.5-0.8,1.5-1.9c0-0.8-0.4-1.9-1.5-1.9
					C166.5,170.7,166,171.7,166,172.6z"/>
				<path class="st56" d="M171,171.7c0-0.6,0-1.1,0-1.5h0.8l0,1h0c0.2-0.7,0.8-1.1,1.4-1.1c0.1,0,0.2,0,0.2,0v0.8
					c-0.1,0-0.2,0-0.3,0c-0.6,0-1.1,0.5-1.2,1.1c0,0.1,0,0.3,0,0.4v2.6H171V171.7z"/>
				<path class="st56" d="M176.5,168.3c0.4-0.1,1-0.1,1.6-0.1c0.9,0,1.4,0.1,1.9,0.5c0.4,0.3,0.6,0.7,0.6,1.2c0,0.7-0.4,1.2-1.2,1.5
					v0c0.6,0.2,1.4,0.7,1.4,1.7c0,0.6-0.2,1-0.6,1.4c-0.5,0.4-1.2,0.6-2.4,0.6c-0.6,0-1.1,0-1.4-0.1V168.3z M177.4,171.1h0.8
					c0.9,0,1.5-0.5,1.5-1.2c0-0.8-0.6-1.1-1.5-1.1c-0.4,0-0.6,0-0.8,0.1V171.1z M177.4,174.4c0.2,0,0.4,0,0.7,0
					c0.9,0,1.8-0.3,1.8-1.3c0-0.9-0.8-1.3-1.8-1.3h-0.7V174.4z"/>
				<path class="st56" d="M186.4,172.5c0,1.8-1.3,2.6-2.4,2.6c-1.3,0-2.3-1-2.3-2.5c0-1.6,1.1-2.6,2.4-2.6
					C185.4,170,186.4,171,186.4,172.5z M182.5,172.6c0,1.1,0.6,1.9,1.5,1.9c0.9,0,1.5-0.8,1.5-1.9c0-0.8-0.4-1.9-1.5-1.9
					C182.9,170.7,182.5,171.7,182.5,172.6z"/>
				<path class="st56" d="M191.9,172.5c0,1.8-1.3,2.6-2.4,2.6c-1.3,0-2.3-1-2.3-2.5c0-1.6,1.1-2.6,2.4-2.6
					C191,170,191.9,171,191.9,172.5z M188,172.6c0,1.1,0.6,1.9,1.5,1.9c0.9,0,1.5-0.8,1.5-1.9c0-0.8-0.4-1.9-1.5-1.9
					C188.5,170.7,188,171.7,188,172.6z"/>
				<path class="st56" d="M194.1,168.7v1.4h1.3v0.7h-1.3v2.6c0,0.6,0.2,1,0.7,1c0.2,0,0.4,0,0.5-0.1l0,0.7c-0.2,0.1-0.4,0.1-0.8,0.1
					c-0.4,0-0.7-0.1-1-0.4c-0.2-0.3-0.3-0.7-0.3-1.3v-2.7h-0.8v-0.7h0.8V169L194.1,168.7z"/>
				<path class="st56" d="M196.4,167.9h0.9v3h0c0.1-0.2,0.4-0.5,0.6-0.6c0.3-0.2,0.6-0.2,0.9-0.2c0.7,0,1.7,0.4,1.7,2.1v2.9h-0.9
					v-2.8c0-0.8-0.3-1.5-1.1-1.5c-0.6,0-1,0.4-1.2,0.9c0,0.1-0.1,0.3-0.1,0.4v3h-0.9V167.9z"/>
			</g>
		</g>
	</g>
	<g>
		<text transform="matrix(1 0 0 1 68.5103 140.4011)" class="st61 st58 st62">Day01 / Day02</text>
	</g>
	<rect x="87.8" y="270.1" class="st63" width="13.6" height="40.9"/>
	<rect x="87.8" y="303.6" class="st63" width="13.6" height="48.4"/>
	<rect x="159.4" y="226.6" class="st64" width="40.9" height="13.6"/>
	<rect x="159.7" y="383.3" class="st64" width="40.9" height="13.6"/>
	<rect x="319.5" y="383.3" class="st53" width="40.9" height="13.6"/>
	<rect x="304.7" y="226.7" class="st53" width="40.9" height="13.6"/>
	<rect x="415.9" y="216.1" class="st53" width="13.6" height="40.9"/>
	<rect x="415.9" y="291.1" class="st64" width="13.6" height="40.9"/>
	<rect x="387" y="383.2" class="st53" width="40.9" height="13.6"/>
	<rect x="384.5" y="410.5" class="st65" width="45.9" height="1.8"/>
	<g>
		<text transform="matrix(1 0 0 1 174.3643 236.1619)" class="st56 st58 st66">B1</text>
	</g>
	<g>
		<text transform="matrix(1 0 0 1 319.6084 236.0203)" class="st56 st58 st66">C1</text>
	</g>
	<g>
		<text transform="matrix(1 0 0 1 401.8994 392.7263)" class="st56 st58 st66">C3</text>
	</g>
	<g>
		<text transform="matrix(1 0 0 1 333.5474 392.7263)" class="st56 st58 st66">C4</text>
	</g>
	<g>
		<text transform="matrix(1 0 0 1 417.0815 239.7849)" class="st56 st58 st66">C2</text>
	</g>
	<g>
		<text transform="matrix(1 0 0 1 417.1968 314.532)" class="st56 st58 st66">B2</text>
	</g>
	<g>
		<text transform="matrix(1 0 0 1 175.5098 392.9412)" class="st56 st58 st66">B3</text>
	</g>
	<g>
		<text transform="matrix(1 0 0 1 89.0693 314.5323)" class="st56 st58 st66">A1</text>
	</g>
	<g>
		
			<rect x="401.8" y="409.9" transform="matrix(0.7071 -0.7071 0.7071 0.7071 -171.2057 409.4858)" class="st56" width="13.8" height="3"/>
		
			<rect x="407.2" y="404.9" transform="matrix(0.7071 -0.7071 0.7071 0.7071 -171.2058 409.5166)" class="st56" width="3" height="13"/>
	</g>
	<g>
		<text transform="matrix(1 0 0 1 351.0241 482.8247)" class="st56 st67 st68">開放文化基金會</text>
	</g>
	<g>
		<text transform="matrix(1 0 0 1 351.5479 466.3141)" class="st56 st67 st68">g0v 揪松團Ｘ零時小學校</text>
	</g>
	<g>
		<text transform="matrix(1 0 0 1 235.8577 434.7828)" class="st56 st67 st68">Appier</text>
	</g>
	<g>
		<text transform="matrix(1 0 0 1 213.5044 434.7828)" class="st56 st67 st68">B1</text>
	</g>
	<g>
		<text transform="matrix(1 0 0 1 235.8574 451.1042)" class="st56 st67 st68">玉山銀行</text>
	</g>
	<g>
		<text transform="matrix(1 0 0 1 213.5041 451.1042)" class="st56 st67 st68">B2</text>
	</g>
	<g>
		<text transform="matrix(1 0 0 1 235.8577 467.457)" class="st56 st67 st68">Blocto</text>
	</g>
	<g>
		<text transform="matrix(1 0 0 1 213.5044 467.457)" class="st56 st67 st68">B3</text>
	</g>
	<g>
		<text transform="matrix(1 0 0 1 333.1856 466.0987)" class="st56 st67 st68">C3</text>
	</g>
	<g>
		<text transform="matrix(1 0 0 1 333.2624 482.6342)" class="st56 st67 st68">C4</text>
	</g>
	<g>
		<text transform="matrix(1 0 0 1 351.6432 434.7828)" class="st56 st67 st68">Google 開發者派對</text>
	</g>
	<g>
		<text transform="matrix(1 0 0 1 332.8999 434.7828)" class="st56 st67 st68">C1</text>
	</g>
	<g>
		<text transform="matrix(1 0 0 1 352.0477 450.3575)" class="st56 st67 st68">JVM 台灣代表隊</text>
	</g>
	<g>
		<text transform="matrix(1 0 0 1 333.3556 450.0972)" class="st56 st67 st68">C2</text>
	</g>
	<g>
		<text transform="matrix(1 0 0 1 108.533 434.7828)" class="st56 st67 st68">New Relic</text>
	</g>
	<g>
		<text transform="matrix(1 0 0 1 86.2271 434.7828)" class="st56 st67 st68">A1</text>
	</g>
	<g>
		<text transform="matrix(0.8749 0 0 1 553.5845 119.9285)" class="st0 st58 st69">409-2</text>
	</g>
	<g>
		<text transform="matrix(1 0 0 1 553.5845 162.5125)" class="st58 st70">社群/贊助攤位</text>
	</g>
	<g>
		<g>
			<g>
				<path d="M559.4,176c-0.3,0.2-1,0.3-1.9,0.3c-2,0-3.5-1.3-3.5-3.6c0-2.3,1.5-3.8,3.7-3.8c0.9,0,1.5,0.2,1.7,0.3l-0.2,0.8
					c-0.3-0.2-0.8-0.3-1.4-0.3c-1.7,0-2.8,1.1-2.8,3c0,1.8,1,2.9,2.8,2.9c0.6,0,1.1-0.1,1.5-0.3L559.4,176z"/>
				<path d="M565.2,173.6c0,1.9-1.3,2.7-2.6,2.7c-1.4,0-2.5-1-2.5-2.7c0-1.7,1.1-2.7,2.6-2.7C564.2,171,565.2,172.1,565.2,173.6z
					 M561.1,173.7c0,1.1,0.6,2,1.6,2c0.9,0,1.6-0.8,1.6-2c0-0.9-0.4-2-1.6-2C561.6,171.7,561.1,172.7,561.1,173.7z"/>
				<path d="M566.4,172.5c0-0.5,0-1,0-1.4h0.8l0,0.8h0c0.3-0.5,0.8-0.9,1.6-0.9c0.7,0,1.2,0.4,1.5,1h0c0.2-0.3,0.4-0.5,0.6-0.7
					c0.3-0.2,0.6-0.4,1.1-0.4c0.7,0,1.7,0.4,1.7,2.2v3h-0.9v-2.9c0-1-0.4-1.6-1.1-1.6c-0.5,0-0.9,0.4-1.1,0.8c0,0.1-0.1,0.3-0.1,0.5
					v3.2h-0.9v-3.1c0-0.8-0.4-1.4-1.1-1.4c-0.6,0-1,0.5-1.2,0.9c0,0.1-0.1,0.3-0.1,0.5v3.1h-0.9V172.5z"/>
				<path d="M575.3,172.5c0-0.5,0-1,0-1.4h0.8l0,0.8h0c0.3-0.5,0.8-0.9,1.6-0.9c0.7,0,1.2,0.4,1.5,1h0c0.2-0.3,0.4-0.5,0.6-0.7
					c0.3-0.2,0.6-0.4,1.1-0.4c0.7,0,1.7,0.4,1.7,2.2v3h-0.9v-2.9c0-1-0.4-1.6-1.1-1.6c-0.5,0-0.9,0.4-1.1,0.8c0,0.1-0.1,0.3-0.1,0.5
					v3.2h-0.9v-3.1c0-0.8-0.4-1.4-1.1-1.4c-0.6,0-1,0.5-1.2,0.9c0,0.1-0.1,0.3-0.1,0.5v3.1h-0.9V172.5z"/>
				<path d="M588.5,174.9c0,0.5,0,1,0,1.4h-0.8l0-0.8h0c-0.2,0.4-0.8,1-1.7,1c-0.8,0-1.8-0.5-1.8-2.3v-3h0.9v2.8
					c0,1,0.3,1.6,1.2,1.6c0.6,0,1.1-0.4,1.2-0.9c0-0.1,0.1-0.3,0.1-0.5v-3.2h0.9V174.9z"/>
				<path d="M590,172.5c0-0.5,0-1,0-1.4h0.8l0.1,0.8h0c0.3-0.5,0.9-1,1.7-1c0.7,0,1.8,0.4,1.8,2.2v3.1h-0.9v-3
					c0-0.8-0.3-1.5-1.2-1.5c-0.6,0-1.1,0.4-1.3,1c0,0.1-0.1,0.3-0.1,0.4v3.1H590V172.5z"/>
				<path d="M597,169.7c0,0.3-0.2,0.6-0.6,0.6c-0.3,0-0.6-0.3-0.6-0.6c0-0.3,0.2-0.6,0.6-0.6C596.7,169.1,597,169.3,597,169.7z
					 M595.9,176.3v-5.2h0.9v5.2H595.9z"/>
				<path d="M599.5,169.6v1.5h1.3v0.7h-1.3v2.8c0,0.6,0.2,1,0.7,1c0.2,0,0.4,0,0.5-0.1l0,0.7c-0.2,0.1-0.5,0.1-0.8,0.1
					c-0.4,0-0.8-0.1-1-0.4c-0.3-0.3-0.4-0.7-0.4-1.3v-2.8h-0.8v-0.7h0.8v-1.2L599.5,169.6z"/>
				<path d="M602.3,171.1l1.1,3c0.1,0.3,0.2,0.7,0.3,1.1h0c0.1-0.3,0.2-0.7,0.3-1.1l1-3h1l-1.4,3.7c-0.7,1.8-1.1,2.7-1.8,3.2
					c-0.5,0.4-0.9,0.6-1.1,0.6l-0.2-0.8c0.2-0.1,0.5-0.2,0.8-0.5c0.3-0.2,0.6-0.6,0.8-1c0-0.1,0.1-0.2,0.1-0.2c0-0.1,0-0.1-0.1-0.2
					l-1.9-4.8H602.3z"/>
				<path d="M612.1,176.3l-0.1-0.7h0c-0.3,0.4-0.8,0.8-1.6,0.8c-1,0-1.6-0.7-1.6-1.5c0-1.2,1.1-1.9,3.1-1.9v-0.1
					c0-0.4-0.1-1.2-1.2-1.2c-0.5,0-1,0.1-1.3,0.4l-0.2-0.6c0.4-0.3,1.1-0.5,1.7-0.5c1.6,0,2,1.1,2,2.1v1.9c0,0.4,0,0.9,0.1,1.2
					H612.1z M611.9,173.6c-1,0-2.2,0.2-2.2,1.2c0,0.6,0.4,0.9,0.9,0.9c0.7,0,1.1-0.4,1.3-0.9c0-0.1,0-0.2,0-0.3V173.6z"/>
				<path d="M614.3,172.5c0-0.5,0-1,0-1.4h0.8l0.1,0.8h0c0.3-0.5,0.9-1,1.7-1c0.7,0,1.8,0.4,1.8,2.2v3.1h-0.9v-3
					c0-0.8-0.3-1.5-1.2-1.5c-0.6,0-1.1,0.4-1.3,1c0,0.1-0.1,0.3-0.1,0.4v3.1h-0.9V172.5z"/>
				<path d="M624.7,168.7v6.2c0,0.5,0,1,0,1.3h-0.8l0-0.9h0c-0.3,0.6-0.9,1-1.7,1c-1.2,0-2.2-1.1-2.2-2.6c0-1.7,1.1-2.8,2.3-2.8
					c0.8,0,1.3,0.4,1.6,0.8h0v-3.1H624.7z M623.8,173.2c0-0.1,0-0.3,0-0.4c-0.1-0.6-0.7-1.1-1.4-1.1c-1,0-1.5,0.9-1.5,2
					c0,1,0.5,1.9,1.5,1.9c0.6,0,1.2-0.4,1.4-1.1c0-0.1,0-0.3,0-0.4V173.2z"/>
				<path d="M628.4,175.1c0.4,0.3,1,0.5,1.7,0.5c0.9,0,1.5-0.5,1.5-1.2c0-0.7-0.4-1.1-1.4-1.4c-1.2-0.4-1.9-1-1.9-2
					c0-1.1,0.9-1.9,2.3-1.9c0.7,0,1.3,0.2,1.6,0.3l-0.3,0.8c-0.2-0.1-0.7-0.3-1.4-0.3c-1,0-1.4,0.6-1.4,1.1c0,0.7,0.4,1,1.4,1.4
					c1.2,0.5,1.8,1.1,1.8,2.1c0,1.1-0.8,2.1-2.5,2.1c-0.7,0-1.5-0.2-1.8-0.5L628.4,175.1z"/>
				<path d="M633.8,172.8c0-0.7,0-1.2,0-1.7h0.8l0.1,0.9h0c0.4-0.6,1-1,1.8-1c1.2,0,2.2,1,2.2,2.6c0,1.9-1.1,2.8-2.3,2.8
					c-0.7,0-1.3-0.3-1.6-0.8h0v2.8h-0.9V172.8z M634.7,174.2c0,0.1,0,0.3,0,0.4c0.2,0.7,0.7,1.1,1.4,1.1c1,0,1.6-0.8,1.6-2
					c0-1-0.5-1.9-1.5-1.9c-0.6,0-1.2,0.5-1.4,1.2c0,0.1-0.1,0.3-0.1,0.4V174.2z"/>
				<path d="M644.5,173.6c0,1.9-1.3,2.7-2.6,2.7c-1.4,0-2.5-1-2.5-2.7c0-1.7,1.1-2.7,2.6-2.7C643.5,171,644.5,172.1,644.5,173.6z
					 M640.4,173.7c0,1.1,0.6,2,1.6,2c0.9,0,1.6-0.8,1.6-2c0-0.9-0.4-2-1.6-2C640.9,171.7,640.4,172.7,640.4,173.7z"/>
				<path d="M645.7,172.5c0-0.5,0-1,0-1.4h0.8l0.1,0.8h0c0.3-0.5,0.9-1,1.7-1c0.7,0,1.8,0.4,1.8,2.2v3.1h-0.9v-3
					c0-0.8-0.3-1.5-1.2-1.5c-0.6,0-1.1,0.4-1.3,1c0,0.1-0.1,0.3-0.1,0.4v3.1h-0.9V172.5z"/>
				<path d="M651.4,175.3c0.3,0.2,0.8,0.4,1.2,0.4c0.7,0,1-0.3,1-0.8c0-0.5-0.3-0.7-1-0.9c-0.9-0.3-1.4-0.8-1.4-1.5
					c0-0.8,0.7-1.5,1.8-1.5c0.5,0,1,0.1,1.3,0.3l-0.2,0.7c-0.2-0.1-0.6-0.3-1.1-0.3c-0.6,0-0.9,0.3-0.9,0.7c0,0.4,0.3,0.6,1,0.9
					c0.9,0.3,1.3,0.8,1.4,1.5c0,0.9-0.7,1.6-1.9,1.6c-0.6,0-1.1-0.1-1.4-0.4L651.4,175.3z"/>
				<path d="M660.5,173.6c0,1.9-1.3,2.7-2.6,2.7c-1.4,0-2.5-1-2.5-2.7c0-1.7,1.1-2.7,2.6-2.7C659.5,171,660.5,172.1,660.5,173.6z
					 M656.4,173.7c0,1.1,0.6,2,1.6,2c0.9,0,1.6-0.8,1.6-2c0-0.9-0.4-2-1.6-2C656.9,171.7,656.4,172.7,656.4,173.7z"/>
				<path d="M661.6,172.7c0-0.6,0-1.1,0-1.6h0.8l0,1h0c0.2-0.7,0.8-1.1,1.4-1.1c0.1,0,0.2,0,0.3,0v0.9c-0.1,0-0.2,0-0.3,0
					c-0.7,0-1.1,0.5-1.3,1.2c0,0.1,0,0.3,0,0.4v2.8h-0.9V172.7z"/>
				<path d="M667.4,169.2c0.4-0.1,1-0.2,1.7-0.2c0.9,0,1.5,0.2,2,0.5c0.4,0.3,0.6,0.7,0.6,1.3c0,0.7-0.5,1.3-1.2,1.6v0
					c0.7,0.2,1.5,0.7,1.5,1.8c0,0.6-0.2,1.1-0.6,1.4c-0.5,0.5-1.3,0.7-2.5,0.7c-0.6,0-1.1,0-1.4-0.1V169.2z M668.3,172.1h0.8
					c1,0,1.5-0.5,1.5-1.2c0-0.8-0.6-1.2-1.6-1.2c-0.4,0-0.7,0-0.8,0.1V172.1z M668.3,175.6c0.2,0,0.4,0,0.8,0c1,0,1.8-0.4,1.8-1.4
					c0-1-0.8-1.4-1.9-1.4h-0.8V175.6z"/>
				<path d="M677.8,173.6c0,1.9-1.3,2.7-2.6,2.7c-1.4,0-2.5-1-2.5-2.7c0-1.7,1.1-2.7,2.6-2.7C676.8,171,677.8,172.1,677.8,173.6z
					 M673.7,173.7c0,1.1,0.6,2,1.6,2c0.9,0,1.6-0.8,1.6-2c0-0.9-0.4-2-1.6-2C674.2,171.7,673.7,172.7,673.7,173.7z"/>
				<path d="M683.7,173.6c0,1.9-1.3,2.7-2.6,2.7c-1.4,0-2.5-1-2.5-2.7c0-1.7,1.1-2.7,2.6-2.7C682.7,171,683.7,172.1,683.7,173.6z
					 M679.6,173.7c0,1.1,0.6,2,1.6,2c0.9,0,1.6-0.8,1.6-2c0-0.9-0.4-2-1.6-2C680.1,171.7,679.6,172.7,679.6,173.7z"/>
				<path d="M686,169.6v1.5h1.3v0.7H686v2.8c0,0.6,0.2,1,0.7,1c0.2,0,0.4,0,0.5-0.1l0,0.7c-0.2,0.1-0.5,0.1-0.8,0.1
					c-0.4,0-0.8-0.1-1-0.4c-0.3-0.3-0.4-0.7-0.4-1.3v-2.8h-0.8v-0.7h0.8v-1.2L686,169.6z"/>
				<path d="M688.4,168.7h0.9v3.2h0c0.2-0.3,0.4-0.5,0.7-0.7c0.3-0.2,0.6-0.3,1-0.3c0.7,0,1.8,0.4,1.8,2.2v3.1h-0.9v-3
					c0-0.8-0.3-1.5-1.2-1.5c-0.6,0-1.1,0.4-1.3,0.9c0,0.1-0.1,0.3-0.1,0.4v3.1h-0.9V168.7z"/>
			</g>
		</g>
	</g>
	<g>
		<text transform="matrix(1 0 0 1 553.5845 139.8484)" class="st61 st58 st71">Day01 / Day02</text>
	</g>
	<rect x="755.2" y="243" class="st72" width="6.8" height="119.3"/>
	<line class="st74" x1="757.7" y1="410.4" x2="757.7" y2="386.3"/>
	<rect x="726.8" y="277.8" class="st75" width="14.5" height="43.4"/>
	<rect x="643.7" y="380.4" class="st75" width="43.4" height="14.5"/>
	<rect x="643.7" y="380.4" class="st74" width="43.4" height="14.5"/>
	<rect x="639" y="201.9" class="st75" width="43.4" height="14.5"/>
	<rect x="568.2" y="300.8" class="st75" width="14.5" height="43.4"/>
	<g>
		<rect x="755.2" y="243" class="st74" width="6.8" height="119.3"/>
		<rect x="726.8" y="277.8" class="st74" width="14.5" height="43.4"/>
		<rect x="639" y="201.9" class="st74" width="43.4" height="14.5"/>
		<rect x="568.2" y="300.8" class="st74" width="14.5" height="43.4"/>
		<g>
			<rect x="554.7" y="186.4" class="st74" width="207.3" height="224.2"/>
			<path class="st76" d="M733.6,410.4L733.6,410.4c0-6.4,2.5-12.5,7.1-17s10.7-7.1,17-7.1v24.1H733.6z"/>
			<path class="st76" d="M733.6,410.4L733.6,410.4c0-6.4,2.5-12.5,7.1-17s10.7-7.1,17-7.1"/>
			<path class="st74" d="M733.6,410.4L733.6,410.4c0-6.4,2.5-12.5,7.1-17s10.7-7.1,17-7.1"/>
			<path class="st76" d="M559.3,386.3L559.3,386.3c6.4,0,12.5,2.5,17,7.1c4.5,4.5,7.1,10.7,7.1,17h-24.1V386.3z"/>
			<path class="st76" d="M559.3,386.3L559.3,386.3c6.4,0,12.5,2.5,17,7.1c4.5,4.5,7.1,10.7,7.1,17"/>
			<path class="st74" d="M559.3,386.3L559.3,386.3c6.4,0,12.5,2.5,17,7.1c4.5,4.5,7.1,10.7,7.1,17"/>
			<line class="st76" x1="559.3" y1="386.3" x2="559.3" y2="410.4"/>
			<line class="st74" x1="559.3" y1="386.3" x2="559.3" y2="410.4"/>
			<rect x="568.2" y="226.7" class="st77" width="14.5" height="43.4"/>
			<rect x="568.2" y="226.7" class="st74" width="14.5" height="43.4"/>
			<rect x="648.7" y="277.8" class="st77" width="14.5" height="43.4"/>
			<rect x="648.7" y="277.8" class="st74" width="14.5" height="43.4"/>
			<rect x="663.2" y="277.8" class="st77" width="14.5" height="43.4"/>
			<rect x="663.2" y="277.8" class="st74" width="14.5" height="43.4"/>
		</g>
	</g>
	<g>
		<text transform="matrix(1 0 0 1 569.8472 324.0974)" class="st58 st78">C1</text>
	</g>
	<g>
		<text transform="matrix(1 0 0 1 655.5308 211.9685)" class="st58 st78">C2</text>
	</g>
	<g>
		<text transform="matrix(1 0 0 1 728.4224 304.0662)" class="st58 st78">C3</text>
	</g>
	<g>
		<text transform="matrix(1 0 0 1 659.3384 390.2176)" class="st58 st78">C4</text>
	</g>
	<g>
		<text transform="matrix(1 0 0 1 624.6273 480.9488)" class="st56 st67 st68">Open Source Hong Kong</text>
	</g>
	<g>
		<text transform="matrix(1 0 0 1 624.7219 449.8981)" class="st56 st67 st68">Golang Taiwan</text>
	</g>
	<g>
		<text transform="matrix(1 0 0 1 625.046 465.2873)" class="st56 st67 st68">VideoLAN Booth</text>
	</g>
	<g>
		<text transform="matrix(1 0 0 1 624.4521 434.1284)" class="st56 st67 st68">志工服務台</text>
	</g>
	<g>
		<text transform="matrix(1 0 0 1 605.9602 465.2874)" class="st56 st67 st68">C3</text>
	</g>
	<g>
		<text transform="matrix(1 0 0 1 605.8241 480.9488)" class="st56 st67 st68">C4</text>
	</g>
	<g>
		<text transform="matrix(1 0 0 1 606.1584 434.2114)" class="st56 st67 st68">C1</text>
	</g>
	<g>
		<text transform="matrix(1 0 0 1 606.2854 449.7827)" class="st56 st67 st68">C2</text>
	</g>
	<g>
		<rect x="159.4" y="226.7" class="st54" width="40.9" height="13.6"/>
		<rect x="159.7" y="383.3" class="st54" width="40.9" height="13.6"/>
		<rect x="319.5" y="383.3" class="st54" width="40.9" height="13.6"/>
		<rect x="415.9" y="290.8" class="st54" width="13.6" height="40.9"/>
		<rect x="415.9" y="216.4" class="st87" width="13.6" height="40.9"/>
		<rect x="387" y="383.3" class="st54" width="40.9" height="13.6"/>
		<rect x="304.7" y="226.3" class="st87" width="40.9" height="13.6"/>
		<g>
			<line class="st54" x1="74.9" y1="387.8" x2="74.9" y2="410.5"/>
			<g>
				<rect x="68.5" y="186.2" class="st54" width="378" height="224.4"/>
				<rect x="68.5" y="186.2" class="st88" width="225.1" height="20"/>
				<rect x="68.5" y="186.2" class="st54" width="225.1" height="20"/>
				<rect x="352.7" y="186.2" class="st88" width="24.1" height="20"/>
				<rect x="352.7" y="186.2" class="st54" width="24.1" height="20"/>
				<rect x="68.5" y="256.4" class="st54" width="6.1" height="109.7"/>
				<path class="st88" d="M74.9,387.8L74.9,387.8c6,0,11.8,2.4,16.1,6.7c4.3,4.3,6.7,10,6.7,16.1H74.9V387.8z"/>
				<path class="st88" d="M74.9,387.8L74.9,387.8c6,0,11.8,2.4,16.1,6.7c4.3,4.3,6.7,10,6.7,16.1"/>
				<path class="st54" d="M74.9,387.8L74.9,387.8c6,0,11.8,2.4,16.1,6.7c4.3,4.3,6.7,10,6.7,16.1"/>
				<path class="st88" d="M97.6,410.5L97.6,410.5c0-6,2.4-11.8,6.7-16.1c4.3-4.3,10-6.7,16.1-6.7v22.7H97.6z"/>
				<path class="st88" d="M97.6,410.5L97.6,410.5c0-6,2.4-11.8,6.7-16.1c4.3-4.3,10-6.7,16.1-6.7"/>
				<path class="st54" d="M97.6,410.5L97.6,410.5c0-6,2.4-11.8,6.7-16.1c4.3-4.3,10-6.7,16.1-6.7"/>
				<line class="st88" x1="120.3" y1="410.5" x2="120.3" y2="387.8"/>
				<line class="st54" x1="120.3" y1="410.5" x2="120.3" y2="387.8"/>
				<path class="st88" d="M244.5,410.5L244.5,410.5c0-6,2.4-11.8,6.7-16.1c4.3-4.3,10-6.7,16.1-6.7v22.7H244.5z"/>
				<path class="st88" d="M244.5,410.5L244.5,410.5c0-6,2.4-11.8,6.7-16.1c4.3-4.3,10-6.7,16.1-6.7"/>
				<path class="st54" d="M244.5,410.5L244.5,410.5c0-6,2.4-11.8,6.7-16.1c4.3-4.3,10-6.7,16.1-6.7"/>
				<line class="st88" x1="267.3" y1="410.5" x2="267.3" y2="387.8"/>
				<line class="st54" x1="267.3" y1="410.5" x2="267.3" y2="387.8"/>
				<path class="st88" d="M285.5,387.8L285.5,387.8c6,0,11.8,2.4,16.1,6.7c4.3,4.3,6.7,10,6.7,16.1h-22.7V387.8z"/>
				<path class="st88" d="M285.5,387.8L285.5,387.8c6,0,11.8,2.4,16.1,6.7c4.3,4.3,6.7,10,6.7,16.1"/>
				<path class="st54" d="M285.5,387.8L285.5,387.8c6,0,11.8,2.4,16.1,6.7c4.3,4.3,6.7,10,6.7,16.1"/>
				<line class="st88" x1="285.5" y1="387.8" x2="285.5" y2="410.5"/>
				<line class="st54" x1="285.5" y1="387.8" x2="285.5" y2="410.5"/>
				<g>
					<rect x="276.8" y="322.6" class="st87" width="40.9" height="13.6"/>
					<rect x="276.8" y="322.6" class="st54" width="40.9" height="13.6"/>
					<rect x="276.8" y="308.9" class="st87" width="40.9" height="13.6"/>
					<rect x="276.8" y="308.9" class="st54" width="40.9" height="13.6"/>
					<rect x="235.8" y="308.9" class="st87" width="40.9" height="13.6"/>
					<rect x="235.8" y="308.9" class="st54" width="40.9" height="13.6"/>
					<rect x="194.9" y="315.8" class="st87" width="40.9" height="13.6"/>
					<rect x="194.9" y="315.8" class="st54" width="40.9" height="13.6"/>
					<rect x="235.8" y="322.6" class="st87" width="40.9" height="13.6"/>
					<rect x="235.8" y="322.6" class="st54" width="40.9" height="13.6"/>
				</g>
			</g>
		</g>
		<rect x="87.8" y="269.8" class="st54" width="13.6" height="82.2"/>
	</g>
	<g>
		<g>
			<defs>
				<rect id="SVGID_00000134962123579828451290000008866261399854858653_" x="692.6" y="499.6" width="139.5" height="93"/>
			</defs>
			<clipPath id="SVGID_00000001659733155565088510000014664284810755205016_">
				<use xlink:href="#SVGID_00000134962123579828451290000008866261399854858653_"  style="overflow:visible;"/>
			</clipPath>
			<g style="clip-path:url(#SVGID_00000001659733155565088510000014664284810755205016_);">
				<defs>
					<rect id="SVGID_00000083799257465356688910000017009346366911860382_" x="692.6" y="499.6" width="139.5" height="93"/>
				</defs>
				<clipPath id="SVGID_00000084498993960092765600000001799671068781119125_">
					<use xlink:href="#SVGID_00000083799257465356688910000017009346366911860382_"  style="overflow:visible;"/>
				</clipPath>
				<path style="clip-path:url(#SVGID_00000084498993960092765600000001799671068781119125_);fill:#00943C;" d="M720.2,532.6
					l-1.8,7.3H716c0.1-0.2,0.1-0.5,0.2-0.8c0-0.3,0.1-0.6,0.1-1.1c0-1-0.2-1.8-0.5-2.4c-0.5-0.8-1.3-1.2-2.4-1.2c-1.4,0-3,1-4.6,2.9
					c-1.7,2-2.5,4-2.5,6.1c0,1.6,0.4,2.8,1.2,3.7c0.8,0.9,1.8,1.3,3.1,1.3c1,0,2.3-0.5,3.8-1.5c0.5-0.3,1.1-0.9,1.9-1.6l2.5,1.6
					c-0.4,0.3-0.7,0.7-1.1,1c-1,0.8-2,1.4-3.1,1.9c-1.6,0.7-3.3,1-5,1c-2.5,0-4.6-0.6-6.3-1.9c-1.9-1.4-2.8-3.3-2.8-5.8
					c0-3.3,1.5-6,4.3-8.1c2.7-2,6.1-3,10.1-3c0.9,0,2.1,0.1,3.5,0.3C718.8,532.3,719.4,532.4,720.2,532.6"/>
				<path style="clip-path:url(#SVGID_00000084498993960092765600000001799671068781119125_);fill:#00943C;" d="M741.5,537.9
					c0,1.7-0.4,3.2-1.1,4.5c-0.6,1.1-1.6,2.4-3,3.8c-1.4,1.4-3.1,2.5-5.1,3.3c-1.7,0.7-3.4,1-5,1c-2.7,0-4.8-0.8-6.3-2.3
					c-1.4-1.4-2.1-3.3-2.1-5.6c0-1.9,0.6-3.8,1.7-5.6c0.8-1.3,1.8-2.5,3.1-3.6c1-0.8,1.5-1.3,1.7-1.3l5,0c-0.1,0-0.6,0.6-1.4,1.7
					c-1.1,1.4-2,2.8-2.7,4.2c-1,2-1.5,3.8-1.5,5.4c0,1.8,0.4,3.2,1.1,4c0.6,0.7,1.5,1,2.7,1c1.6,0,3.1-0.9,4.4-2.8
					c1.3-1.9,2-3.9,2-6c0-1-0.1-1.8-0.3-2.3c-0.3-0.7-0.8-1.3-1.5-1.6c-0.2-0.1-0.4-0.1-0.6-0.2c-0.3,0-0.5-0.1-0.7-0.1
					c-0.4,0-0.7,0-0.9,0c-0.2,0-0.4,0.1-0.6,0.1v-1.6l6.4-2.1c1.1,0.4,1.9,0.8,2.4,1.2C740.6,534.2,741.5,535.9,741.5,537.9"/>
				<path style="clip-path:url(#SVGID_00000084498993960092765600000001799671068781119125_);fill:#00943C;" d="M761.2,532.3l-1.7,6
					h-2.3V538c0-0.2,0-0.4,0-0.6c0-0.5,0-1-0.1-1.4c-0.1-0.4-0.2-0.8-0.5-1c-0.3-0.3-0.7-0.6-1.1-0.8c-0.5-0.2-1.3-0.3-2.4-0.3
					c-1.4,0-2.5,0.2-3.4,0.7c-1.1,0.6-1.7,1.4-1.7,2.5c0,0.9,0.9,1.6,2.8,2.1c1.8,0.5,3.7,1,5.4,1.5c1.9,0.8,2.9,2,2.9,3.6
					c0,1.9-1.3,3.4-4,4.6c-2.4,1.1-5,1.6-8,1.6c-1.1,0-2.6-0.2-4.4-0.5c-0.6-0.1-1.4-0.3-2.4-0.6v-3.4c0.7,0.4,1.4,0.8,1.9,1
					c1.6,0.6,3.1,1,4.7,1c1.4,0,2.7-0.2,3.9-0.7c1.3-0.6,2-1.4,2-2.4c0-1-0.9-1.6-2.7-2c-1.8-0.4-3.6-0.7-5.4-1.1
					c-1.9-0.7-2.8-1.8-2.8-3.5c0-1.7,0.7-3.1,2.1-4.1c1.2-0.9,2.8-1.6,4.9-2c1.7-0.3,3.5-0.5,5.6-0.5c1.2,0,2.7,0.1,4.4,0.3
					C759.5,532,760.3,532.1,761.2,532.3"/>
				<path style="clip-path:url(#SVGID_00000084498993960092765600000001799671068781119125_);fill:#00943C;" d="M780,532.6l-1.8,7.3
					h-2.5c0.1-0.2,0.1-0.5,0.2-0.8c0-0.3,0.1-0.6,0.1-1.1c0-1-0.2-1.8-0.5-2.4c-0.5-0.8-1.3-1.2-2.4-1.2c-1.4,0-3,1-4.6,2.9
					c-1.7,2-2.5,4-2.5,6.1c0,1.6,0.4,2.8,1.2,3.7c0.8,0.9,1.8,1.3,3.1,1.3c1,0,2.3-0.5,3.8-1.5c0.5-0.3,1.1-0.9,1.9-1.6l2.5,1.6
					c-0.4,0.3-0.7,0.7-1.1,1c-1,0.8-2,1.4-3.1,1.9c-1.6,0.7-3.3,1-5,1c-2.5,0-4.6-0.6-6.3-1.9c-1.9-1.4-2.8-3.3-2.8-5.8
					c0-3.3,1.4-6,4.3-8.1c2.7-2,6.1-3,10.1-3c0.9,0,2.1,0.1,3.5,0.3C778.5,532.3,779.1,532.4,780,532.6"/>
				<path style="clip-path:url(#SVGID_00000084498993960092765600000001799671068781119125_);fill:#00943C;" d="M801.7,532.1
					l-4.6,18.3h-6.2l1.5-5.3c0-0.1,0.1-0.2,0.1-0.4c0-0.2,0-0.3,0-0.3c0-0.2-0.1-0.3-0.2-0.3c-0.1,0-0.3,0.1-0.4,0.2
					c0,0-0.1,0.1-0.2,0.3c-0.4,0.5-0.8,1.1-1.1,1.7c-1,1.3-2,2.3-3.1,3.1c-1.5,1.1-3,1.7-4.4,1.7c-1.4,0-2.6-0.5-3.4-1.4
					c-0.9-0.9-1.3-2.2-1.3-3.7c0-0.7,0.1-1.5,0.3-2.5c0.1-0.3,0.2-0.8,0.3-1.4l2.8-9.9h6.2l-3.1,10.9c0,0.1-0.1,0.2-0.1,0.5
					c-0.1,0.3-0.1,0.6-0.1,0.8c0,0.6,0.1,1,0.4,1.3c0.3,0.3,0.8,0.5,1.5,0.5c1.4,0,2.9-1.2,4.5-3.7c1.1-1.8,2.3-4,3.4-6.8
					c0.4-1.2,0.9-2.4,1.3-3.7H801.7z"/>
				<path style="clip-path:url(#SVGID_00000084498993960092765600000001799671068781119125_);fill:#00943C;" d="M769.7,526.1
					l-3.2-10l-1.6,2.9c-19.8-9.6-28.4,9.2-28.4,9.2s7.1-13.8,24.6-2.7l-1.6,2.8L769.7,526.1z"/>
				<path style="clip-path:url(#SVGID_00000084498993960092765600000001799671068781119125_);fill:#00943C;" d="M782.4,519.1
					l-3.2-10l-1.6,2.8c-19.8-9.6-28.4,9.2-28.4,9.2s7.1-13.8,24.6-2.7l-1.6,2.8L782.4,519.1z"/>
				<path style="clip-path:url(#SVGID_00000084498993960092765600000001799671068781119125_);fill:#00943C;" d="M822,533.3
					c-1.4-0.8-3-1.2-5-1.2h-2.8l-0.4,0.5c0.1,0.3,0.2,0.6,0.2,0.8l0,0.3c0,0.1,0,0.3,0,0.5h0.4c1.1,0,2,0.4,2.7,1.1
					c0.7,0.7,1.1,1.7,1.1,3c0,1.5-0.7,2.7-2.1,3.6c-0.9,0.6-2.2,1-3.8,1.2c-0.3,0-0.5,0.1-0.8,0.1l-0.2,0.5
					c-0.1,0.4-0.1,0.7-0.4,1.1l-0.2,0.3c0.1,0,0.3,0,0.5,0c1.8,0,3.5-0.1,5-0.4c2.3-0.4,4.2-1.2,5.5-2.2c1.7-1.3,2.6-3.1,2.6-5.3
					C824.3,535.5,823.5,534.2,822,533.3"/>
				<path style="clip-path:url(#SVGID_00000084498993960092765600000001799671068781119125_);fill:#00943C;" d="M811.1,537.2
					c0-0.1,0-0.3,0.1-0.4l0.6-1.6c0-0.1,0.1-0.3,0.2-0.3l0.3-0.6l0-0.1c0-0.1,0-0.3,0-0.4l0-0.2c0-0.1,0-0.3-0.1-0.4l-0.1-0.3v-0.4
					l0.1-0.4l0-0.2c0.1-0.1,0.1-0.3,0.2-0.3l0.6-0.6c0-0.1,0.1-0.2,0-0.3l-0.3-0.5c-0.1-0.1-0.2-0.2-0.3-0.2l-1-0.3
					c-0.1,0-0.3-0.1-0.3-0.2l-0.3-0.4c-0.1-0.1-0.2-0.2-0.3-0.2h-0.1c-0.1,0-0.3,0.1-0.3,0.1l-0.3,0.3c-0.1,0.1-0.1,0.3-0.1,0.4
					c0,0.1-0.1,0.2-0.2,0.3l-0.5,0.1c-0.2,0-0.3,0.1-0.4,0.1l-0.8,0.3c-0.1,0-0.2,0.1-0.3,0.2l-0.8,1.8c-0.1,0.1-0.2,0.2-0.3,0.3
					l-0.7,0.8c-0.1,0.1-0.2,0.2-0.3,0.3l-3.2,5.7c-0.1,0.1-0.1,0.2-0.1,0.3l0.1,1.9c0.1,0.1,0,0.2-0.1,0.3l-0.1,0.1
					c0,0.1-0.1,0.2-0.1,0.3l-0.1,0.4c0,0.1-0.1,0.3-0.1,0.4l0,0.3c0,0.1,0,0.3,0.1,0.3l0.5,0.4c0.1,0,0.1,0.1,0.1,0.3v0.6
					c0,0.1,0.1,0.3,0.1,0.4l0.2,0.6c0.1,0.1,0.1,0.3,0.1,0.3l0.6,0.9c0.1,0.1,0.2,0.2,0.3,0.2h0c0.1,0,0.3,0,0.4,0.1l0.8,0.8
					c0.1,0.1,0.2,0.2,0.3,0.3l0.4,0.8c0,0.1,0,0.3,0,0.4l-0.1,0.5c0,0.1,0.1,0.3,0.1,0.4l0.1,0.1c0.1,0.1,0.3,0.2,0.3,0.2l0.3,0.2
					c0.1,0.1,0.2,0,0.3-0.1l0.1-0.4c0-0.1,0.1-0.2,0.1-0.4v-0.7v-1.1c0-0.1,0-0.3,0-0.4l0.7-1.7c0-0.1,0.1-0.2,0.2-0.3l0.6-0.7
					l0.1-0.1c0.1,0,0.2-0.2,0.2-0.3l0.9-1.6c0.2-0.2,0.1-0.3,0.2-0.6c0-0.1,0.1-0.3,0.1-0.4l0.5-1.5c0.1-0.2,0.5-2.7,0.7-3.8
					C811.1,537.4,811.1,537.3,811.1,537.2"/>
				<path style="clip-path:url(#SVGID_00000084498993960092765600000001799671068781119125_);fill:#00943C;" d="M700.4,564.7
					c2.5-2.2,3.8-3.8,3.8-5.2c0-0.9-0.5-1.5-1.4-1.5c-0.7,0-1.2,0.4-1.7,0.9l-0.7-0.7c0.7-0.8,1.5-1.3,2.6-1.3c1.5,0,2.5,1,2.5,2.5
					c0,1.6-1.3,3.3-3.1,5c0.4,0,1-0.1,1.4-0.1h2.1v1.1h-5.4V564.7z"/>
				<path style="clip-path:url(#SVGID_00000084498993960092765600000001799671068781119125_);fill:#00943C;" d="M712,561.2
					c0-2.9,1.1-4.3,2.7-4.3c1.6,0,2.7,1.4,2.7,4.3c0,2.9-1.1,4.4-2.7,4.4C713.1,565.6,712,564.2,712,561.2 M716.2,561.2
					c0-2.4-0.6-3.3-1.5-3.3c-0.9,0-1.5,0.9-1.5,3.3c0,2.4,0.6,3.3,1.5,3.3C715.6,564.6,716.2,563.7,716.2,561.2"/>
				<path style="clip-path:url(#SVGID_00000084498993960092765600000001799671068781119125_);fill:#00943C;" d="M723.6,564.7
					c2.5-2.2,3.8-3.8,3.8-5.2c0-0.9-0.5-1.5-1.4-1.5c-0.7,0-1.2,0.4-1.7,0.9l-0.7-0.7c0.7-0.8,1.5-1.3,2.6-1.3c1.5,0,2.5,1,2.5,2.5
					c0,1.6-1.3,3.3-3.1,5c0.4,0,1-0.1,1.4-0.1h2.1v1.1h-5.4V564.7z"/>
				<path style="clip-path:url(#SVGID_00000084498993960092765600000001799671068781119125_);fill:#00943C;" d="M735.1,564.5
					l0.6-0.8c0.5,0.5,1.1,0.9,2,0.9c0.9,0,1.6-0.5,1.6-1.4c0-0.9-0.6-1.5-2.5-1.5v-1c1.7,0,2.2-0.6,2.2-1.5c0-0.7-0.5-1.2-1.3-1.2
					c-0.7,0-1.2,0.3-1.7,0.8l-0.7-0.8c0.7-0.6,1.4-1,2.4-1c1.5,0,2.6,0.8,2.6,2.2c0,1-0.6,1.6-1.5,2v0.1c1,0.2,1.7,1,1.7,2.1
					c0,1.5-1.3,2.4-2.8,2.4C736.5,565.6,735.7,565.1,735.1,564.5"/>
				<path style="clip-path:url(#SVGID_00000084498993960092765600000001799671068781119125_);fill:#00943C;" d="M748.5,560.2v6.1h-1
					v-10h4.2v3.9H748.5z M748.5,557.9h2.2v-0.8h-2.2V557.9z M750.7,558.6h-2.2v0.8h2.2V558.6z M753.7,563.7v2.5h-0.9v-2.5h-1.4
					c-0.1,0.8-0.5,1.9-1.5,2.6c-0.1-0.2-0.5-0.5-0.7-0.6c0.8-0.5,1.2-1.4,1.3-2h-1.3v-0.9h1.3v-1.1h-1.1v-0.8h5.5v0.8h-1.2v1.1h1.4
					v0.9H753.7z M752.8,561.7h-1.4v1.1h1.4V561.7z M756.9,565.1c0,0.6-0.1,0.9-0.5,1.1c-0.4,0.2-0.9,0.2-1.8,0.2
					c0-0.3-0.2-0.8-0.3-1.1c0.6,0,1.2,0,1.3,0c0.2,0,0.2-0.1,0.2-0.2v-4.8h-3.3v-3.9h4.3V565.1z M753.6,557.9h2.3v-0.8h-2.3V557.9z
					 M755.8,558.6h-2.3v0.9h2.3V558.6z"/>
				<path style="clip-path:url(#SVGID_00000084498993960092765600000001799671068781119125_);fill:#00943C;" d="M765.3,561
					c-0.4-0.3-1.3-0.8-1.9-1.2l0.6-0.8c0.6,0.3,1.5,0.8,1.9,1.1L765.3,561z M766.1,562.6c-0.4,1.2-1,2.6-1.6,3.6l-1-0.6
					c0.5-0.9,1.2-2.4,1.7-3.7L766.1,562.6z M765.8,558c-0.4-0.3-1.3-0.9-1.9-1.3l0.6-0.7c0.6,0.3,1.5,0.8,1.9,1.2L765.8,558z
					 M767.8,559.6c0,2-0.2,4.9-1.5,6.8c-0.2-0.2-0.6-0.4-0.9-0.6c1.3-1.8,1.4-4.4,1.4-6.2v-3.1h7v1h-6V559.6z M769.6,563.4
					c-0.4,0.8-0.9,1.7-1.4,2.3c-0.2-0.1-0.6-0.4-0.8-0.5c0.5-0.5,1-1.3,1.3-2.1L769.6,563.4z M771.3,562.6v2.8
					c0,0.5-0.1,0.7-0.4,0.9c-0.3,0.2-0.8,0.2-1.6,0.2c0-0.3-0.2-0.7-0.3-0.9c0.5,0,0.9,0,1.1,0c0.1,0,0.2,0,0.2-0.2v-2.7h-1.9v-4
					h1.6c0.1-0.4,0.2-0.8,0.3-1.1l1.2,0.2c-0.1,0.3-0.3,0.6-0.4,0.9h2.3v4H771.3z M769.3,560.2h3.1v-0.8h-3.1V560.2z M769.3,561.8
					h3.1v-0.8h-3.1V561.8z M772.8,563c0.4,0.7,1,1.6,1.2,2.2l-1,0.4c-0.2-0.6-0.7-1.5-1.2-2.3L772.8,563z"/>
				<path style="clip-path:url(#SVGID_00000084498993960092765600000001799671068781119125_);fill:#00943C;" d="M785.8,555.9
					c0,0.4,0,1-0.1,1.7c0.2,1.4,0.9,6,4.8,7.8c-0.3,0.2-0.6,0.6-0.8,0.9c-2.7-1.3-3.9-3.8-4.5-5.8c-0.6,2.1-1.8,4.5-4.4,5.9
					c-0.2-0.3-0.5-0.6-0.9-0.8c4.7-2.4,4.5-7.7,4.6-9.6H785.8z"/>
				<path style="clip-path:url(#SVGID_00000084498993960092765600000001799671068781119125_);fill:#00943C;" d="M806.9,563.8h-4v2.5
					h-1.1v-2.5h-5.2v-1h1.8v-3h3.4v-1.6h-2.6c-0.5,0.8-1.1,1.6-1.6,2.2c-0.2-0.2-0.7-0.5-0.9-0.7c1.1-0.9,2-2.4,2.5-3.9l1.1,0.3
					c-0.1,0.4-0.3,0.7-0.4,1.1h6.6v1h-3.5v1.6h3.2v1h-3.2v2h4V563.8z M801.8,560.8h-2.3v2h2.3V560.8z"/>
				<path style="clip-path:url(#SVGID_00000084498993960092765600000001799671068781119125_);fill:#00943C;" d="M819.1,556.2
					c-0.1,0.1-0.1,0.1-0.2,0.2c1.1,1,3,1.9,4.8,2.2c-0.2,0.2-0.5,0.6-0.7,0.8c-0.3-0.1-0.6-0.2-0.9-0.3v3h-7.7v-2.9
					c-0.3,0.1-0.6,0.2-0.8,0.3c-0.1-0.2-0.4-0.6-0.6-0.8c2.1-0.5,4.1-1.5,5.1-2.9L819.1,556.2z M822.2,559.1
					c-0.6-0.2-1.2-0.5-1.8-0.8v0.3h-4v-0.3c-0.5,0.3-1.1,0.5-1.7,0.8H822.2z M815.1,562.6h6.5v3.8h-1.1V566h-4.4v0.4h-1.1V562.6z
					 M816.7,559.9c0.3,0.4,0.5,0.9,0.6,1.3l-0.8,0.3h1.3v-1.6h-2.5v1.6h1.1c-0.1-0.4-0.3-0.9-0.5-1.3L816.7,559.9z M816.2,563.9h4.4
					v-0.6h-4.4V563.9z M820.6,564.7h-4.4v0.6h4.4V564.7z M819.7,557.9c-0.5-0.3-0.9-0.6-1.3-1c-0.4,0.3-0.8,0.7-1.2,1H819.7z
					 M821.3,559.8h-2.5v1.6h1.3l-0.7-0.2c0.2-0.4,0.4-0.9,0.6-1.3l0.9,0.3c-0.3,0.5-0.5,1-0.7,1.3h1.2V559.8z"/>
				<path style="clip-path:url(#SVGID_00000084498993960092765600000001799671068781119125_);fill:#00943C;" d="M704.5,573.3h-4
					v-1.8h6.3v1.3c-2.1,2.5-2.4,4.3-2.5,7.9h-2.2C702.3,577.7,702.7,575.7,704.5,573.3"/>
				<polygon style="clip-path:url(#SVGID_00000084498993960092765600000001799671068781119125_);fill:#00943C;" points="
					713.1,570.7 714.5,570.7 711.8,583 710.3,583 				"/>
				<path style="clip-path:url(#SVGID_00000084498993960092765600000001799671068781119125_);fill:#00943C;" d="M718.2,579.5
					c2.3-2.1,3.9-3.8,3.9-5.1c0-0.8-0.5-1.3-1.2-1.3c-0.6,0-1.1,0.4-1.6,0.9l-1.2-1.2c0.9-1,1.7-1.4,3.1-1.4c1.8,0,3,1.1,3,2.9
					c0,1.6-1.4,3.3-2.8,4.8c0.5-0.1,1.1-0.1,1.5-0.1h1.7v1.9h-6.4V579.5z"/>
				<path style="clip-path:url(#SVGID_00000084498993960092765600000001799671068781119125_);fill:#00943C;" d="M729.7,578.5
					c0.3,0.3,0.9,0.6,1.4,0.6c0.9,0,1.7-0.7,1.8-2.7c-0.4,0.6-1.2,0.9-1.8,0.9c-1.5,0-2.7-0.9-2.7-2.9c0-2,1.4-3.1,3-3.1
					c1.7,0,3.4,1.3,3.4,4.7c0,3.3-1.8,4.9-3.6,4.9c-1.2,0-2.1-0.5-2.7-1.1L729.7,578.5z M732.8,574.9c-0.2-1.5-0.8-2-1.3-2
					c-0.6,0-1.1,0.4-1.1,1.5c0,1,0.5,1.3,1.1,1.3C732,575.8,732.5,575.6,732.8,574.9"/>
				
					<rect x="738.8" y="576.4" style="clip-path:url(#SVGID_00000084498993960092765600000001799671068781119125_);fill:#00943C;" width="3.5" height="1.5"/>
				<path style="clip-path:url(#SVGID_00000084498993960092765600000001799671068781119125_);fill:#00943C;" d="M746,579.6l1-1.4
					c0.6,0.5,1.2,0.9,1.9,0.9c0.9,0,1.4-0.4,1.4-1.1c0-0.8-0.4-1.3-2.4-1.3v-1.5c1.6,0,2.1-0.5,2.1-1.2c0-0.6-0.4-1-1.1-1
					c-0.6,0-1.1,0.3-1.6,0.8l-1.1-1.3c0.9-0.7,1.8-1.1,2.9-1.1c1.9,0,3.2,0.9,3.2,2.5c0,0.9-0.5,1.6-1.5,2v0.1
					c1,0.3,1.8,1.1,1.8,2.2c0,1.7-1.6,2.7-3.4,2.7C747.7,580.9,746.7,580.4,746,579.6"/>
				<path style="clip-path:url(#SVGID_00000084498993960092765600000001799671068781119125_);fill:#00943C;" d="M756.5,576.1
					c0-3.2,1.3-4.7,3.3-4.7c1.9,0,3.3,1.6,3.3,4.7c0,3.2-1.3,4.8-3.3,4.8C757.8,580.9,756.5,579.2,756.5,576.1 M760.9,576.1
					c0-2.5-0.5-3-1.2-3c-0.7,0-1.2,0.5-1.2,3c0,2.5,0.5,3.1,1.2,3.1C760.4,579.2,760.9,578.6,760.9,576.1"/>
				<path style="clip-path:url(#SVGID_00000084498993960092765600000001799671068781119125_);fill:#00943C;" d="M766.7,576.6
					c0-4,2.9-6.6,6.5-6.6c3.1,0,5.1,2.1,5.1,5.1c0,2.6-1.8,3.9-3.3,3.9c-0.8,0-1.5-0.4-1.7-1.1h0c-0.4,0.6-1.1,1-1.7,1
					c-1.1,0-1.9-0.9-1.9-2.2c0-1.8,1.3-3.5,2.9-3.5c0.5,0,0.8,0.2,1.1,0.7h0l0.2-0.6h1.3l-0.7,3.2c-0.2,0.8,0,1.2,0.6,1.2
					c0.9,0,1.7-1,1.7-2.5c0-2-1.1-3.9-3.9-3.9c-2.4,0-4.8,2.1-4.8,5.3c0,2.8,2,4.1,4.2,4.1c0.7,0,1.6-0.2,2.1-0.5l0.5,1.2
					c-0.9,0.5-1.8,0.7-2.8,0.7C769.3,582,766.7,580.3,766.7,576.6 M773,576.9l0.3-1.9c-0.1-0.2-0.4-0.4-0.6-0.4
					c-0.8,0-1.3,1.2-1.3,2c0,0.6,0.3,0.9,0.7,0.9C772.3,577.5,772.6,577.4,773,576.9"/>
				<path style="clip-path:url(#SVGID_00000084498993960092765600000001799671068781119125_);fill:#00943C;" d="M793.2,570.7v1.1
					h-4.7v0.3h3.6v1h-9v-1h3.5v-0.3h-4.6v-1.1h4.6v-0.6h1.8v0.6H793.2z M782.1,575.5h10.9v1.9h-1.5v0.3H791c0.4,0.3,0.9,0.6,1.2,0.8
					l-0.8,0.7h0.7v1h-3.5v0.3h4.6v1.2h-10.8v-1.2h4.4v-0.3h-3.2v-1h3.2V579c-1.9,0.1-2.3,0.1-2.6,0.2c-0.1-0.2-0.2-0.8-0.4-1.1
					c0.2,0,0.4-0.1,0.7-0.1c0.1,0,0.3-0.1,0.6-0.2h-1.4v-0.3h-1.4V575.5z M791.8,575.2h-8.3v-1.9h8.3V575.2z M783.7,576.8h7.6v-0.2
					h-7.6V576.8z M790,574.1h-4.9v0.3h4.9V574.1z M789.1,578c-0.2-0.1-0.3-0.2-0.5-0.3l0,0h-1.8c-0.2,0.1-0.4,0.2-0.6,0.3L789.1,578
					z M790.8,579.2c-0.1-0.1-0.2-0.2-0.4-0.3l-2,0v0.3H790.8z"/>
				<path style="clip-path:url(#SVGID_00000084498993960092765600000001799671068781119125_);fill:#00943C;" d="M800.9,578.3
					c-0.1-0.3-0.3-0.7-0.5-1v4.6h-1.7v-3.8c-0.3,0.8-0.7,1.4-1.1,2c-0.2-0.5-0.5-1.3-0.8-1.7c0.6-0.8,1.3-1.9,1.7-3h-1.5v-1.7h1.8
					v-1.2c-0.4,0.1-0.8,0.1-1.2,0.2c-0.1-0.4-0.3-1-0.5-1.4c1.4-0.2,2.9-0.6,4-1l1,1.5c-0.5,0.2-1,0.3-1.6,0.4v1.5h1.5v1.7h-1.5v0
					c0.3,0.3,1.3,1.3,1.5,1.6L800.9,578.3z M807.3,578.8v3.1h-1.8v-2.8l-3.6,0.7l-0.3-1.7l3.9-0.7v-7.3h1.8v7l1.1-0.2l0.3,1.7
					L807.3,578.8z M803.1,574.1c0.7,0.5,1.5,1.3,1.9,1.8l-1.2,1.2c-0.4-0.6-1.2-1.4-1.9-2L803.1,574.1z M804.1,573.8
					c-0.3-0.5-1.1-1.4-1.8-1.9l1.2-1c0.6,0.5,1.5,1.3,1.9,1.8L804.1,573.8z"/>
				<path style="clip-path:url(#SVGID_00000084498993960092765600000001799671068781119125_);fill:#00943C;" d="M819.2,575.2
					c0.8,2.2,2.2,4.1,4.5,4.9c-0.4,0.4-1.1,1.2-1.3,1.7c-2.2-1-3.5-2.7-4.5-4.8c-0.7,1.9-2,3.6-4.5,4.8c-0.3-0.5-0.8-1.1-1.4-1.5
					c2.7-1.2,3.9-3.1,4.3-5.1h-4.1v-1.9h4.4c0.1-1.1,0.1-2.2,0.1-3.2h2c0,1,0,2.1-0.1,3.2h4.8v1.9H819.2z"/>
			</g>
		</g>
	</g>
</g>
<g id="輸出佈置" class="st101">
</g>
</svg>
