<?xml version="1.0" encoding="utf-8"?>
<!-- Generator: Adobe Illustrator 27.3.1, SVG Export Plug-In . SVG Version: 6.00 Build 0)  -->
<svg version="1.1" xmlns="http://www.w3.org/2000/svg" xmlns:xlink="http://www.w3.org/1999/xlink" x="0px" y="0px"
	 viewBox="0 0 841.9 595.3" style="enable-background:new 0 0 841.9 595.3;" xml:space="preserve">
<style type="text/css">
	.st0{fill:#3B9838;}
	.st1{fill:none;stroke:#FFFFFF;stroke-width:2;stroke-linecap:round;stroke-linejoin:bevel;}
	.st2{opacity:0.73;}
	.st3{fill:#A0A0A0;stroke:#FFFFFF;stroke-width:2;stroke-linecap:round;stroke-linejoin:bevel;}
	.st4{fill:none;stroke:#B3B3B3;stroke-width:4.4344;stroke-linecap:round;stroke-miterlimit:10;}
	.st5{fill:#E6E6E6;}
	.st6{fill:#FFFEFF;}
	.st7{fill:#B3B3B3;}
	.st8{fill:none;stroke:#B3B3B3;stroke-width:4.4344;stroke-miterlimit:10;}
	.st9{fill:none;stroke:#FFFEFF;stroke-width:3;stroke-miterlimit:10;}
	.st10{fill:#12344C;}
	.st11{fill:#E98025;}
	.st12{fill:#808080;}
	.st13{fill:#FFE9BA;}
	.st14{fill:#3E3D4D;}
	.st15{fill:#BCC4C6;}
	.st16{fill:#D24635;}
	.st17{fill:#FCF3EE;}
	.st18{fill:#E8C72E;}
	.st19{fill:#E0A911;}
	.st20{fill:#0071BC;}
	.st21{opacity:0.2;fill:none;stroke:#70931B;stroke-width:2;stroke-miterlimit:10;stroke-dasharray:4,4;}
	.st22{opacity:0.2;fill:none;stroke:#70931B;stroke-width:1.78;stroke-miterlimit:10;stroke-dasharray:3.56,3.56;}
	.st23{font-family:'SourceHanSansTC-Regular-B5pc-H';}
	.st24{font-size:14.358px;}
	.st25{font-size:10.9149px;}
	.st26{font-family:'SourceHanSansTC-Bold-B5pc-H';}
	.st27{font-size:16.0814px;}
	.st28{font-family:'MicrosoftJhengHeiBold';}
	.st29{font-size:12px;}
	.st30{font-family:'MicrosoftJhengHeiRegular';}
	.st31{font-size:9.5585px;}
	.st32{fill:#6B6B6B;}
	.st33{font-size:8.9802px;}
	.st34{font-size:43px;}
	.st35{clip-path:url(#SVGID_00000012464743686997909840000003549837853121243296_);}
	.st36{clip-path:url(#SVGID_00000054242948056979283940000007863395210492144780_);fill:#00943C;}
	.st37{clip-path:url(#SVGID_00000139285316168710234400000003694672258067401122_);}
	.st38{clip-path:url(#SVGID_00000134963556879659149400000008334086606035284159_);fill:#00943C;}
	.st39{clip-path:url(#SVGID_00000085248016943196833320000016930937143240008846_);}
	.st40{clip-path:url(#SVGID_00000085944963161805708870000006114358948445496501_);fill:#00943C;}
	.st41{clip-path:url(#SVGID_00000073701903896353622360000010033349077646556570_);}
	.st42{clip-path:url(#SVGID_00000137101482578427883870000000007802561575111571_);fill:#00943C;}
	.st43{clip-path:url(#SVGID_00000121965185725497446610000001806575013122808246_);}
	.st44{clip-path:url(#SVGID_00000005253378759970756970000004195332009349957772_);fill:#00943C;}
	.st45{clip-path:url(#SVGID_00000140721980909186373380000014157102597728350893_);}
	.st46{clip-path:url(#SVGID_00000060750244536451125090000015112075387907729538_);fill:#00943C;}
	.st47{clip-path:url(#SVGID_00000082366282159377938840000003452483217358582970_);}
	.st48{clip-path:url(#SVGID_00000091010537289368624360000017306333723112381854_);fill:#00943C;}
	.st49{clip-path:url(#SVGID_00000008122797524152617230000006085774316112639159_);}
	.st50{clip-path:url(#SVGID_00000176025301398899878610000009090968306765832371_);fill:#00943C;}
	.st51{opacity:0.1;fill:#70931B;}
	.st52{fill:none;stroke:#FFFEFF;stroke-miterlimit:10;}
	.st53{fill:#FFFFFF;}
	.st54{fill:none;stroke:#FFFFFF;stroke-width:1.8113;}
	.st55{fill:#C1272D;}
	.st56{fill:#30AF00;}
	.st57{fill:#0076CB;}
	.st58{fill:#008061;}
	.st59{fill:#F5821F;}
	.st60{fill:#ED1B2D;}
	.st61{fill:#FF0000;}
	.st62{opacity:0.5;fill:url(#SVGID_00000174601363504277539520000008920993734216767628_);}
	.st63{opacity:0.5;fill:url(#SVGID_00000040542128449077561100000002624209795139548041_);}
	.st64{opacity:0.8;}
	.st65{fill-rule:evenodd;clip-rule:evenodd;fill:#D5E7D0;}
	.st66{fill:none;stroke:#040000;stroke-width:0.75;stroke-linejoin:round;stroke-miterlimit:8;}
	.st67{opacity:0;fill-rule:evenodd;clip-rule:evenodd;fill:#040000;}
	.st68{fill:#040000;}
	.st69{fill-rule:evenodd;clip-rule:evenodd;fill:#8FCFC9;}
	.st70{fill-rule:evenodd;clip-rule:evenodd;fill:#F2EA32;}
	.st71{fill-rule:evenodd;clip-rule:evenodd;fill:#040000;}
	.st72{fill-rule:evenodd;clip-rule:evenodd;fill:#FFFFFF;}
	.st73{opacity:0;fill-rule:evenodd;clip-rule:evenodd;}
	.st74{fill:none;stroke:#000000;stroke-width:0.75;stroke-linejoin:round;stroke-miterlimit:8;}
	.st75{fill-rule:evenodd;clip-rule:evenodd;fill:#D9EAD3;}
	.st76{opacity:0;fill-rule:evenodd;clip-rule:evenodd;stroke:#000000;stroke-width:0.75;stroke-miterlimit:10;}
	.st77{fill-rule:evenodd;clip-rule:evenodd;fill:#FCFCFC;stroke:#000000;stroke-width:0.75;stroke-miterlimit:10;}
	.st78{fill:none;stroke:#000000;stroke-width:0.5;stroke-linejoin:round;stroke-miterlimit:8;}
	.st79{fill-rule:evenodd;clip-rule:evenodd;fill:none;stroke:#000000;stroke-width:0.5;stroke-linejoin:round;stroke-miterlimit:8;}
	.st80{fill-rule:evenodd;clip-rule:evenodd;fill:#FFFFFF;stroke:#000000;stroke-width:0.5;stroke-miterlimit:10;}
	.st81{fill-rule:evenodd;clip-rule:evenodd;fill:#D5E7D0;stroke:#000000;stroke-width:0.5;stroke-miterlimit:10;}
	.st82{fill-rule:evenodd;clip-rule:evenodd;fill:#F2EA32;stroke:#000000;stroke-width:0.5;stroke-miterlimit:10;}
	.st83{opacity:0;fill-rule:evenodd;clip-rule:evenodd;fill:#040000;stroke:#000000;stroke-width:0.5;stroke-miterlimit:10;}
	.st84{fill:#D5E7D0;stroke:#000000;stroke-width:0.5;stroke-miterlimit:10;}
	.st85{fill-rule:evenodd;clip-rule:evenodd;fill:#FCFDFD;stroke:#000000;stroke-width:0.5;stroke-miterlimit:10;}
	
		.st86{fill-rule:evenodd;clip-rule:evenodd;fill:none;stroke:#040000;stroke-width:0.75;stroke-linejoin:round;stroke-miterlimit:8;}
	
		.st87{opacity:0;fill-rule:evenodd;clip-rule:evenodd;fill:none;stroke:#040000;stroke-width:0.75;stroke-linejoin:round;stroke-miterlimit:8;}
	.st88{fill:#D5E7D0;stroke:#040000;stroke-width:0.75;stroke-miterlimit:10;}
	.st89{opacity:0;fill-rule:evenodd;clip-rule:evenodd;fill:#040000;stroke:#040000;stroke-width:0.75;stroke-miterlimit:10;}
	.st90{fill-rule:evenodd;clip-rule:evenodd;fill:#FFFFFF;stroke:#040000;stroke-width:0.75;stroke-miterlimit:10;}
	.st91{fill-rule:evenodd;clip-rule:evenodd;fill:#FCFDFD;}
	.st92{fill-rule:evenodd;clip-rule:evenodd;fill:#D5E7D0;stroke:#040000;stroke-width:0.75;stroke-miterlimit:10;}
	.st93{fill-rule:evenodd;clip-rule:evenodd;fill:#FCFDFD;stroke:#040000;stroke-width:0.75;stroke-miterlimit:10;}
	.st94{clip-path:url(#SVGID_00000026866020895074458290000009846398074577633688_);}
	.st95{clip-path:url(#SVGID_00000163064151228949816130000008452808230615452079_);fill:#00943C;}
	.st96{clip-path:url(#SVGID_00000124850703616758093520000016037757345082552704_);}
	.st97{clip-path:url(#SVGID_00000095338062776794423350000002542047555915712406_);fill:#00943C;}
	.st98{clip-path:url(#SVGID_00000112598024414640724700000013443432538199284156_);}
	.st99{clip-path:url(#SVGID_00000133525400755486903160000001071362858445597101_);fill:#00943C;}
	.st100{display:none;}
	.st101{display:inline;fill:none;stroke:#F90000;stroke-width:8;stroke-miterlimit:10;}
	.st102{display:inline;}
	.st103{fill:#F90000;}
	.st104{font-family:'SourceHanSansTW-Medium-B5pc-H';}
	.st105{font-size:10.2218px;}
	.st106{display:inline;fill:#F90000;}
	.st107{display:inline;fill:none;stroke:#000000;stroke-miterlimit:10;}
	.st108{font-size:9.3394px;}
	.st109{font-size:31.3149px;}
	.st110{font-size:11.6742px;glyph-orientation-vertical:0;writing-mode:tb;}
	.st111{display:inline;fill:none;stroke:#F90000;stroke-width:3;stroke-miterlimit:10;}
	.st112{display:inline;fill:none;stroke:#232323;stroke-miterlimit:10;}
	.st113{display:inline;fill:none;stroke:#F90000;stroke-miterlimit:10;}
	.st114{display:inline;fill:none;stroke:#B3B3B3;stroke-width:4.4344;stroke-linecap:round;stroke-miterlimit:10;}
	.st115{display:inline;fill:#E6E6E6;}
	.st116{display:inline;fill:#FFFEFF;}
	.st117{display:inline;fill:#B3B3B3;}
	.st118{display:inline;fill:none;stroke:#B3B3B3;stroke-width:4.4344;stroke-miterlimit:10;}
	.st119{font-family:'GenJyuuGothicL-Bold';}
	.st120{font-size:5.6064px;}
	.st121{display:inline;opacity:0.2;fill:none;stroke:#70931B;stroke-width:2;stroke-miterlimit:10;stroke-dasharray:4,4;}
</style>
<g id="建築">
	<polygon class="st8" points="334.8,278.6 334.8,224.7 569.1,224.7 569.1,278.6 797.7,278.6 797.7,70.7 584.2,70.7 569.1,70.7 
		334.8,70.7 334.8,70.7 50.4,70.7 50.4,175.2 28.2,175.2 28.2,220.9 50.4,220.9 50.4,278.6 	"/>
	<g>
		
			<rect x="576.7" y="211" transform="matrix(-1 -1.224647e-16 1.224647e-16 -1 1219.4348 483.4219)" class="st5" width="66.1" height="61.4"/>
		<g>
			<rect x="597" y="211" class="st9" width="46.3" height="17.3"/>
		</g>
	</g>
	<rect x="213" y="211.5" class="st5" width="33.7" height="15.4"/>
	<polygon class="st5" points="210.2,229.7 247.1,229.7 247.1,272.4 172.8,272.4 172.8,211 210.2,211 	"/>
	<rect x="249.9" y="211" class="st5" width="75" height="61.4"/>
	<polygon class="st5" points="645.5,272.4 670.2,272.4 689.6,272.4 791.1,272.4 791.1,211 673.6,211 673.6,247.4 645.5,247.4 	"/>
	<rect x="56.8" y="219.5" class="st5" width="85" height="52.9"/>
	<rect x="144.7" y="247.9" class="st5" width="25.1" height="24.6"/>
	<line class="st9" x1="745.8" y1="272.6" x2="745.8" y2="210.4"/>
	<rect x="249.5" y="210.4" class="st6" width="0.4" height="0.6"/>
	<rect x="247.1" y="272.4" class="st6" width="2.8" height="0.2"/>
	<line class="st9" x1="674.2" y1="272.6" x2="674.2" y2="210.4"/>
	<rect x="57.3" y="84.3" class="st5" width="80.7" height="92.6"/>
	<rect x="140.8" y="84.3" class="st5" width="78.5" height="92.6"/>
	<rect x="222.1" y="84.3" class="st5" width="78.5" height="92.6"/>
	<rect x="303.5" y="84.3" class="st5" width="78.5" height="92.6"/>
	<rect x="384.8" y="84.3" class="st5" width="78.5" height="92.6"/>
	<rect x="466.1" y="84.3" class="st5" width="78.5" height="92.6"/>
	<rect x="547.4" y="84.3" class="st5" width="78.5" height="92.6"/>
	<rect x="628.7" y="84.3" class="st5" width="78.5" height="92.6"/>
	<polygon class="st5" points="791.1,76.7 791.1,176.9 710.1,176.9 710.1,84.3 747.7,84.3 747.7,76.7 	"/>
</g>
<g id="標示">
	<g>
		<text transform="matrix(1 0 0 1 694.0535 258.6497)" class="st10 st23 st24">Toilet</text>
	</g>
	<g id="o3AOjT_00000011738235767934104290000005560244936480170166_">
		<g>
			<g>
				<path class="st10" d="M712.7,228.9c0.4-0.4,0.8-0.7,1.1-1.1c0.5-0.6,1.1-0.5,1.4,0.2c1.5,3.8,2.9,7.5,4.4,11.3
					c0.3,0.8-0.2,1.5-1,1.6c-0.2,0-0.4,0-0.6,0c-3.4,0-6.8,0-10.2,0c-0.2,0-0.4,0-0.6,0c-1-0.1-1.4-0.8-1.1-1.7
					c0.7-1.9,1.5-3.9,2.2-5.8c0.7-1.8,1.4-3.6,2.1-5.4c0.3-0.7,0.8-0.8,1.4-0.3C712.1,228.2,712.4,228.5,712.7,228.9z"/>
				<path class="st10" d="M712.8,226.5c-2.1,0-3.8-1.6-3.8-3.9c0-2.1,1.6-3.7,3.9-3.7c2.1,0,3.8,1.7,3.8,3.8
					C716.6,224.8,714.9,226.5,712.8,226.5z"/>
			</g>
		</g>
	</g>
	<g>
		<g>
			<path class="st10" d="M97.8,234.3c0,0.3-0.3,0.4-0.3,0.7c0,0.2,0.1,0.4,0.3,0.6c0.5,0.3,0.5,0.8,0.4,1.3
				c-0.2,1.4-0.3,2.9-0.5,4.3c-0.1,0.6,0.3,0.9,0.5,1.4c0.9-0.8,0.6-1.7,0.5-2.6c-0.1-1.2-0.3-2.3-0.4-3.5c0-0.4,0-0.6,0.3-0.9
				c0.2-0.1,0.4-0.3,0.5-0.6c-0.1-0.2-0.3-0.4-0.4-0.6c0.1-0.2,0.3-0.2,0.5-0.2c1,0,2,0,3,0c1.5,0,2.5,1.4,1.9,2.8
				c-0.9,2.3-1.8,4.7-2.7,7c-0.4,1-0.7,2-1.2,2.9c-0.5,0.8-1.4,1.1-2.3,0.9c-1.1-0.2-1.6-0.9-1.9-1.9c-0.8-2-1.6-4.1-2.3-6.1
				c-0.4-0.9-0.7-1.9-1.1-2.8c-0.5-1.4,0.4-2.7,1.9-2.8C95.5,234.3,96.6,234.3,97.8,234.3z"/>
			<path class="st10" d="M98.4,233.6c-2.3,0-4.1-1.7-4.1-3.9c0-2.2,1.7-4,3.9-4c2.2,0,4,1.7,4.1,3.9
				C102.2,231.5,100.8,233.5,98.4,233.6z"/>
		</g>
	</g>
	<g>
		<text transform="matrix(1 0 0 1 77.3904 264.9437)" class="st10 st23 st24">Toilet</text>
	</g>
	<g id="mGfqoG_00000049192792644552853990000006707952149382299557_">
		<g>
			<path class="st20" d="M275.3,231.2c0,1.7,0,3.4,0,5.1c0,2-1.4,3.4-3.5,3.4c-3.4,0-6.8,0-10.2,0c-2.1,0-3.5-1.4-3.5-3.5
				c0-3.4,0-6.7,0-10.1c0-2.2,1.4-3.6,3.6-3.6c3.3,0,6.7,0,10,0c2.2,0,3.6,1.4,3.6,3.6c0,0.8,0,1.7,0,2.5
				C275.3,229.5,275.3,230.4,275.3,231.2z M266.7,223.8C266.7,223.8,266.7,223.8,266.7,223.8c-1.7,0-3.4,0-5.1,0
				c-1.5,0-2.3,0.8-2.3,2.3c0,3.4,0,6.7,0,10.1c0,1.5,0.8,2.3,2.3,2.3c3.4,0,6.8,0,10.2,0c1.4,0,2.2-0.9,2.2-2.3c0-3.4,0-6.8,0-10.2
				c0-1.4-0.8-2.2-2.2-2.2C270.1,223.8,268.4,223.8,266.7,223.8z"/>
			<path class="st20" d="M262.2,219.2c0-0.8,0-1.5,0-2.3c0-0.4,0-0.8,0-1.2c0-0.7,0.2-1.1,0.7-1.1c0.4,0,0.7,0.4,0.7,1.1
				c0,0.9,0,1.9,0,2.8c0,0.2-0.1,0.4,0.1,0.5c0.2,0.1,0.3-0.1,0.4-0.3c0.4-0.3,0.7-0.7,1.1-1.1c0.3-0.3,0.6-0.3,0.9,0
				c0.3,0.3,0.4,0.6,0.1,0.9c-1,1-1.9,2.1-2.9,3.1c-0.2,0.2-0.6,0.2-0.8-0.1c-0.9-1-1.8-2-2.8-2.9c-0.3-0.3-0.2-0.7,0.1-1
				c0.3-0.3,0.6-0.2,0.9,0.1c0.5,0.5,0.9,1,1.4,1.5C262.1,219.2,262.1,219.2,262.2,219.2z"/>
			<path class="st20" d="M269.9,217.1c-0.5,0.6-1,1-1.4,1.5c-0.4,0.4-0.7,0.5-1.1,0.2c-0.3-0.3-0.3-0.7,0.1-1.1
				c0.8-0.9,1.7-1.8,2.5-2.6c0.4-0.4,0.7-0.4,1.1,0c0.8,0.9,1.7,1.7,2.5,2.6c0.4,0.4,0.4,0.9,0.1,1.2c-0.4,0.4-0.7,0.1-1-0.2
				c-0.4-0.4-0.9-0.8-1.4-1.3c-0.1,0.3,0,0.6,0,0.9c0,0.9,0,1.9,0,2.8c0,0.4-0.1,0.9-0.7,0.9c-0.5,0-0.7-0.4-0.7-0.8
				c0-1.1,0-2.2,0-3.3C269.9,217.5,269.9,217.4,269.9,217.1z"/>
			<path class="st20" d="M271.1,233.7c0,0.9,0,1.8,0,2.6c0,0.2,0,0.4,0,0.6c0,0.4,0,0.8-0.6,0.8c-0.5,0-0.5-0.4-0.5-0.8
				c0-0.9,0-1.7,0-2.6c0-0.4,0-0.8-0.4-1.1c-0.2-0.1-0.2-0.4-0.2-0.6c0-1.1,0-2.3,0-3.4c0-0.7,0.3-1,0.9-1c0.5,0,1.1,0,1.6,0
				c0.6,0,0.8,0.3,0.8,0.9c0,1.2,0,2.4,0,3.6c0,0.2,0,0.5-0.2,0.6c-0.4,0.3-0.4,0.6-0.4,1c0,0.9,0,1.7,0,2.6c0,0.4,0.1,0.9-0.5,0.9
				c-0.6,0-0.5-0.5-0.5-0.9c0-1,0-2,0-3.1C271.1,233.7,271.1,233.7,271.1,233.7z"/>
			<path class="st20" d="M262.2,233.6c0,1.1,0,2.3,0,3.4c0,0.4-0.1,0.7-0.6,0.7c-0.4,0-0.5-0.3-0.5-0.7c0-1,0-2,0-3
				c0-0.3,0-0.7-0.3-0.9c-0.2-0.2-0.2-0.4-0.2-0.7c0-1.1,0-2.3,0-3.4c0-0.7,0.3-1,1-1c0.5,0,1,0,1.5,0c0.6,0,0.9,0.3,0.9,0.9
				c0,1.2,0,2.3,0,3.5c0,0.2,0,0.5-0.2,0.6c-0.4,0.3-0.4,0.6-0.4,1c0,0.9,0,1.9,0,2.8c0,0.3,0,0.5-0.3,0.7c-0.4,0.2-0.7,0-0.7-0.6
				c0-1,0-2,0-3c0-0.1,0-0.3,0-0.4C262.3,233.6,262.3,233.6,262.2,233.6z"/>
			<path class="st20" d="M266.6,233.6c0,1.1,0,2.2,0,3.3c0,0.2,0,0.4-0.1,0.6c-0.2,0.2-0.4,0.2-0.6,0.1c-0.3-0.1-0.4-0.3-0.4-0.6
				c0-1,0-1.9,0-2.9c0-0.4,0-0.7-0.4-1c-0.2-0.1-0.2-0.4-0.2-0.6c0-1.2,0-2.3,0-3.5c0-0.6,0.3-0.9,0.9-0.9c0.5,0,1,0,1.5,0
				c0.6,0,0.9,0.3,0.9,0.9c0,1.2,0,2.3,0,3.5c0,0.2,0,0.4-0.2,0.6c-0.4,0.3-0.4,0.7-0.4,1.2c0,0.9,0,1.7,0,2.6c0,0.4,0,0.8-0.6,0.8
				c-0.6,0-0.5-0.4-0.5-0.8c0-1.1,0-2.2,0-3.2C266.7,233.6,266.7,233.6,266.6,233.6z"/>
			<path class="st20" d="M267.9,226.7c0,0.7-0.6,1.2-1.2,1.2c-0.6,0-1.2-0.6-1.2-1.2c0-0.7,0.6-1.3,1.2-1.3
				C267.4,225.5,267.9,226.1,267.9,226.7z"/>
			<path class="st20" d="M272.3,226.7c0,0.7-0.6,1.2-1.2,1.2c-0.6,0-1.2-0.6-1.2-1.2c0-0.7,0.6-1.3,1.2-1.3
				C271.8,225.5,272.3,226.1,272.3,226.7z"/>
			<path class="st20" d="M262.3,228c-0.7,0-1.2-0.6-1.2-1.3c0-0.6,0.6-1.2,1.2-1.2c0.7,0,1.3,0.6,1.3,1.2
				C263.5,227.4,263,228,262.3,228z"/>
		</g>
	</g>
	<g id="mGfqoG_00000110445653377806452390000006313868133450136192_">
		<g>
			<path class="st20" d="M275.3,260.7c0,1.7,0,3.4,0,5.1c0,2-1.4,3.4-3.5,3.4c-3.4,0-6.8,0-10.2,0c-2.1,0-3.5-1.4-3.5-3.5
				c0-3.4,0-6.7,0-10.1c0-2.2,1.4-3.6,3.6-3.6c3.3,0,6.7,0,10,0c2.2,0,3.6,1.4,3.6,3.6c0,0.8,0,1.7,0,2.5S275.3,259.8,275.3,260.7z
				 M266.7,253.3C266.7,253.3,266.7,253.3,266.7,253.3c-1.7,0-3.4,0-5.1,0c-1.5,0-2.3,0.8-2.3,2.3c0,3.4,0,6.7,0,10.1
				c0,1.5,0.8,2.3,2.3,2.3c3.4,0,6.8,0,10.2,0c1.4,0,2.2-0.9,2.2-2.3c0-3.4,0-6.8,0-10.2c0-1.4-0.8-2.2-2.2-2.2
				C270.1,253.3,268.4,253.3,266.7,253.3z"/>
			<path class="st20" d="M262.2,248.6c0-0.8,0-1.5,0-2.3c0-0.4,0-0.8,0-1.2c0-0.7,0.2-1.1,0.7-1.1c0.4,0,0.7,0.4,0.7,1.1
				c0,0.9,0,1.9,0,2.8c0,0.2-0.1,0.4,0.1,0.5c0.2,0.1,0.3-0.1,0.4-0.3c0.4-0.3,0.7-0.7,1.1-1.1c0.3-0.3,0.6-0.3,0.9,0
				c0.3,0.3,0.4,0.6,0.1,0.9c-1,1-1.9,2.1-2.9,3.1c-0.2,0.2-0.6,0.2-0.8-0.1c-0.9-1-1.8-2-2.8-2.9c-0.3-0.3-0.2-0.7,0.1-1
				c0.3-0.3,0.6-0.2,0.9,0.1c0.5,0.5,0.9,1,1.4,1.5C262.1,248.7,262.1,248.7,262.2,248.6z"/>
			<path class="st20" d="M269.9,246.6c-0.5,0.6-1,1-1.4,1.5c-0.4,0.4-0.7,0.5-1.1,0.2c-0.3-0.3-0.3-0.7,0.1-1.1
				c0.8-0.9,1.7-1.8,2.5-2.6c0.4-0.4,0.7-0.4,1.1,0c0.8,0.9,1.7,1.7,2.5,2.6c0.4,0.4,0.4,0.9,0.1,1.2c-0.4,0.4-0.7,0.1-1-0.2
				c-0.4-0.4-0.9-0.8-1.4-1.3c-0.1,0.3,0,0.6,0,0.9c0,0.9,0,1.9,0,2.8c0,0.4-0.1,0.9-0.7,0.9c-0.5,0-0.7-0.4-0.7-0.8
				c0-1.1,0-2.2,0-3.3C269.9,247,269.9,246.9,269.9,246.6z"/>
			<path class="st20" d="M271.1,263.1c0,0.9,0,1.8,0,2.6c0,0.2,0,0.4,0,0.6c0,0.4,0,0.8-0.6,0.8c-0.5,0-0.5-0.4-0.5-0.8
				c0-0.9,0-1.7,0-2.6c0-0.4,0-0.8-0.4-1.1c-0.2-0.1-0.2-0.4-0.2-0.6c0-1.1,0-2.3,0-3.4c0-0.7,0.3-1,0.9-1c0.5,0,1.1,0,1.6,0
				c0.6,0,0.8,0.3,0.8,0.9c0,1.2,0,2.4,0,3.6c0,0.2,0,0.5-0.2,0.6c-0.4,0.3-0.4,0.6-0.4,1c0,0.9,0,1.7,0,2.6c0,0.4,0.1,0.9-0.5,0.9
				c-0.6,0-0.5-0.5-0.5-0.9c0-1,0-2,0-3.1C271.1,263.1,271.1,263.1,271.1,263.1z"/>
			<path class="st20" d="M262.2,263.1c0,1.1,0,2.3,0,3.4c0,0.4-0.1,0.7-0.6,0.7c-0.4,0-0.5-0.3-0.5-0.7c0-1,0-2,0-3
				c0-0.3,0-0.7-0.3-0.9c-0.2-0.2-0.2-0.4-0.2-0.7c0-1.1,0-2.3,0-3.4c0-0.7,0.3-1,1-1c0.5,0,1,0,1.5,0c0.6,0,0.9,0.3,0.9,0.9
				c0,1.2,0,2.3,0,3.5c0,0.2,0,0.5-0.2,0.6c-0.4,0.3-0.4,0.6-0.4,1c0,0.9,0,1.9,0,2.8c0,0.3,0,0.5-0.3,0.7c-0.4,0.2-0.7,0-0.7-0.6
				c0-1,0-2,0-3c0-0.1,0-0.3,0-0.4C262.3,263.1,262.3,263.1,262.2,263.1z"/>
			<path class="st20" d="M266.6,263.1c0,1.1,0,2.2,0,3.3c0,0.2,0,0.4-0.1,0.6c-0.2,0.2-0.4,0.2-0.6,0.1c-0.3-0.1-0.4-0.3-0.4-0.6
				c0-1,0-1.9,0-2.9c0-0.4,0-0.7-0.4-1c-0.2-0.1-0.2-0.4-0.2-0.6c0-1.2,0-2.3,0-3.5c0-0.6,0.3-0.9,0.9-0.9c0.5,0,1,0,1.5,0
				c0.6,0,0.9,0.3,0.9,0.9c0,1.2,0,2.3,0,3.5c0,0.2,0,0.4-0.2,0.6c-0.4,0.3-0.4,0.7-0.4,1.2c0,0.9,0,1.7,0,2.6c0,0.4,0,0.8-0.6,0.8
				c-0.6,0-0.5-0.4-0.5-0.8c0-1.1,0-2.2,0-3.2C266.7,263.1,266.7,263.1,266.6,263.1z"/>
			<path class="st20" d="M267.9,256.2c0,0.7-0.6,1.2-1.2,1.2c-0.6,0-1.2-0.6-1.2-1.2c0-0.7,0.6-1.3,1.2-1.3
				C267.4,255,267.9,255.5,267.9,256.2z"/>
			<path class="st20" d="M272.3,256.2c0,0.7-0.6,1.2-1.2,1.2c-0.6,0-1.2-0.6-1.2-1.2c0-0.7,0.6-1.3,1.2-1.3
				C271.8,254.9,272.3,255.5,272.3,256.2z"/>
			<path class="st20" d="M262.3,257.4c-0.7,0-1.2-0.6-1.2-1.3c0-0.6,0.6-1.2,1.2-1.2c0.7,0,1.3,0.6,1.3,1.2
				C263.5,256.9,263,257.4,262.3,257.4z"/>
		</g>
	</g>
	<g id="mGfqoG_00000104695772621940368040000017893831687583707318_">
		<g>
			<path class="st20" d="M319.6,231.2c0,1.7,0,3.4,0,5.1c0,2-1.4,3.4-3.5,3.4c-3.4,0-6.8,0-10.2,0c-2.1,0-3.5-1.4-3.5-3.5
				c0-3.4,0-6.7,0-10.1c0-2.2,1.4-3.6,3.6-3.6c3.3,0,6.7,0,10,0c2.2,0,3.6,1.4,3.6,3.6c0,0.8,0,1.7,0,2.5
				C319.6,229.5,319.6,230.4,319.6,231.2z M311.1,223.8C311.1,223.8,311.1,223.8,311.1,223.8c-1.7,0-3.4,0-5.1,0
				c-1.5,0-2.3,0.8-2.3,2.3c0,3.4,0,6.7,0,10.1c0,1.5,0.8,2.3,2.3,2.3c3.4,0,6.8,0,10.2,0c1.4,0,2.2-0.9,2.2-2.3c0-3.4,0-6.8,0-10.2
				c0-1.4-0.8-2.2-2.2-2.2C314.5,223.8,312.8,223.8,311.1,223.8z"/>
			<path class="st20" d="M306.5,219.2c0-0.8,0-1.5,0-2.3c0-0.4,0-0.8,0-1.2c0-0.7,0.2-1.1,0.7-1.1c0.4,0,0.7,0.4,0.7,1.1
				c0,0.9,0,1.9,0,2.8c0,0.2-0.1,0.4,0.1,0.5c0.2,0.1,0.3-0.1,0.4-0.3c0.4-0.3,0.7-0.7,1.1-1.1c0.3-0.3,0.6-0.3,0.9,0
				c0.3,0.3,0.4,0.6,0.1,0.9c-1,1-1.9,2.1-2.9,3.1c-0.2,0.2-0.6,0.2-0.8-0.1c-0.9-1-1.8-2-2.8-2.9c-0.3-0.3-0.2-0.7,0.1-1
				c0.3-0.3,0.6-0.2,0.9,0.1c0.5,0.5,0.9,1,1.4,1.5C306.4,219.2,306.4,219.2,306.5,219.2z"/>
			<path class="st20" d="M314.2,217.1c-0.5,0.6-1,1-1.4,1.5c-0.4,0.4-0.7,0.5-1.1,0.2c-0.3-0.3-0.3-0.7,0.1-1.1
				c0.8-0.9,1.7-1.8,2.5-2.6c0.4-0.4,0.7-0.4,1.1,0c0.8,0.9,1.7,1.7,2.5,2.6c0.4,0.4,0.4,0.9,0.1,1.2c-0.4,0.4-0.7,0.1-1-0.2
				c-0.4-0.4-0.9-0.8-1.4-1.3c-0.1,0.3,0,0.6,0,0.9c0,0.9,0,1.9,0,2.8c0,0.4-0.1,0.9-0.7,0.9c-0.5,0-0.7-0.4-0.7-0.8
				c0-1.1,0-2.2,0-3.3C314.2,217.5,314.2,217.4,314.2,217.1z"/>
			<path class="st20" d="M315.4,233.7c0,0.9,0,1.8,0,2.6c0,0.2,0,0.4,0,0.6c0,0.4,0,0.8-0.6,0.8c-0.5,0-0.5-0.4-0.5-0.8
				c0-0.9,0-1.7,0-2.6c0-0.4,0-0.8-0.4-1.1c-0.2-0.1-0.2-0.4-0.2-0.6c0-1.1,0-2.3,0-3.4c0-0.7,0.3-1,0.9-1c0.5,0,1.1,0,1.6,0
				c0.6,0,0.8,0.3,0.8,0.9c0,1.2,0,2.4,0,3.6c0,0.2,0,0.5-0.2,0.6c-0.4,0.3-0.4,0.6-0.4,1c0,0.9,0,1.7,0,2.6c0,0.4,0.1,0.9-0.5,0.9
				c-0.6,0-0.5-0.5-0.5-0.9c0-1,0-2,0-3.1C315.5,233.7,315.4,233.7,315.4,233.7z"/>
			<path class="st20" d="M306.6,233.6c0,1.1,0,2.3,0,3.4c0,0.4-0.1,0.7-0.6,0.7c-0.4,0-0.5-0.3-0.5-0.7c0-1,0-2,0-3
				c0-0.3,0-0.7-0.3-0.9c-0.2-0.2-0.2-0.4-0.2-0.7c0-1.1,0-2.3,0-3.4c0-0.7,0.3-1,1-1c0.5,0,1,0,1.5,0c0.6,0,0.9,0.3,0.9,0.9
				c0,1.2,0,2.3,0,3.5c0,0.2,0,0.5-0.2,0.6c-0.4,0.3-0.4,0.6-0.4,1c0,0.9,0,1.9,0,2.8c0,0.3,0,0.5-0.3,0.7c-0.4,0.2-0.7,0-0.7-0.6
				c0-1,0-2,0-3c0-0.1,0-0.3,0-0.4C306.6,233.6,306.6,233.6,306.6,233.6z"/>
			<path class="st20" d="M310.9,233.6c0,1.1,0,2.2,0,3.3c0,0.2,0,0.4-0.1,0.6c-0.2,0.2-0.4,0.2-0.6,0.1c-0.3-0.1-0.4-0.3-0.4-0.6
				c0-1,0-1.9,0-2.9c0-0.4,0-0.7-0.4-1c-0.2-0.1-0.2-0.4-0.2-0.6c0-1.2,0-2.3,0-3.5c0-0.6,0.3-0.9,0.9-0.9c0.5,0,1,0,1.5,0
				c0.6,0,0.9,0.3,0.9,0.9c0,1.2,0,2.3,0,3.5c0,0.2,0,0.4-0.2,0.6c-0.4,0.3-0.4,0.7-0.4,1.2c0,0.9,0,1.7,0,2.6c0,0.4,0,0.8-0.6,0.8
				c-0.6,0-0.5-0.4-0.5-0.8c0-1.1,0-2.2,0-3.2C311,233.6,311,233.6,310.9,233.6z"/>
			<path class="st20" d="M312.3,226.7c0,0.7-0.6,1.2-1.2,1.2c-0.6,0-1.2-0.6-1.2-1.2c0-0.7,0.6-1.3,1.2-1.3
				C311.7,225.5,312.2,226.1,312.3,226.7z"/>
			<path class="st20" d="M316.7,226.7c0,0.7-0.6,1.2-1.2,1.2c-0.6,0-1.2-0.6-1.2-1.2c0-0.7,0.6-1.3,1.2-1.3
				C316.1,225.5,316.6,226.1,316.7,226.7z"/>
			<path class="st20" d="M306.6,228c-0.7,0-1.2-0.6-1.2-1.3c0-0.6,0.6-1.2,1.2-1.2c0.7,0,1.3,0.6,1.3,1.2
				C307.9,227.4,307.3,228,306.6,228z"/>
		</g>
	</g>
	<g id="mGfqoG_00000036211278866636884150000001189139579401551748_">
		<g>
			<path class="st20" d="M319.6,260.7c0,1.7,0,3.4,0,5.1c0,2-1.4,3.4-3.5,3.4c-3.4,0-6.8,0-10.2,0c-2.1,0-3.5-1.4-3.5-3.5
				c0-3.4,0-6.7,0-10.1c0-2.2,1.4-3.6,3.6-3.6c3.3,0,6.7,0,10,0c2.2,0,3.6,1.4,3.6,3.6c0,0.8,0,1.7,0,2.5
				C319.6,259,319.6,259.8,319.6,260.7z M311.1,253.3C311.1,253.3,311.1,253.3,311.1,253.3c-1.7,0-3.4,0-5.1,0
				c-1.5,0-2.3,0.8-2.3,2.3c0,3.4,0,6.7,0,10.1c0,1.5,0.8,2.3,2.3,2.3c3.4,0,6.8,0,10.2,0c1.4,0,2.2-0.9,2.2-2.3c0-3.4,0-6.8,0-10.2
				c0-1.4-0.8-2.2-2.2-2.2C314.5,253.3,312.8,253.3,311.1,253.3z"/>
			<path class="st20" d="M306.5,248.6c0-0.8,0-1.5,0-2.3c0-0.4,0-0.8,0-1.2c0-0.7,0.2-1.1,0.7-1.1c0.4,0,0.7,0.4,0.7,1.1
				c0,0.9,0,1.9,0,2.8c0,0.2-0.1,0.4,0.1,0.5c0.2,0.1,0.3-0.1,0.4-0.3c0.4-0.3,0.7-0.7,1.1-1.1c0.3-0.3,0.6-0.3,0.9,0
				c0.3,0.3,0.4,0.6,0.1,0.9c-1,1-1.9,2.1-2.9,3.1c-0.2,0.2-0.6,0.2-0.8-0.1c-0.9-1-1.8-2-2.8-2.9c-0.3-0.3-0.2-0.7,0.1-1
				c0.3-0.3,0.6-0.2,0.9,0.1c0.5,0.5,0.9,1,1.4,1.5C306.4,248.7,306.4,248.7,306.5,248.6z"/>
			<path class="st20" d="M314.2,246.6c-0.5,0.6-1,1-1.4,1.5c-0.4,0.4-0.7,0.5-1.1,0.2c-0.3-0.3-0.3-0.7,0.1-1.1
				c0.8-0.9,1.7-1.8,2.5-2.6c0.4-0.4,0.7-0.4,1.1,0c0.8,0.9,1.7,1.7,2.5,2.6c0.4,0.4,0.4,0.9,0.1,1.2c-0.4,0.4-0.7,0.1-1-0.2
				c-0.4-0.4-0.9-0.8-1.4-1.3c-0.1,0.3,0,0.6,0,0.9c0,0.9,0,1.9,0,2.8c0,0.4-0.1,0.9-0.7,0.9c-0.5,0-0.7-0.4-0.7-0.8
				c0-1.1,0-2.2,0-3.3C314.2,247,314.2,246.9,314.2,246.6z"/>
			<path class="st20" d="M315.4,263.1c0,0.9,0,1.8,0,2.6c0,0.2,0,0.4,0,0.6c0,0.4,0,0.8-0.6,0.8c-0.5,0-0.5-0.4-0.5-0.8
				c0-0.9,0-1.7,0-2.6c0-0.4,0-0.8-0.4-1.1c-0.2-0.1-0.2-0.4-0.2-0.6c0-1.1,0-2.3,0-3.4c0-0.7,0.3-1,0.9-1c0.5,0,1.1,0,1.6,0
				c0.6,0,0.8,0.3,0.8,0.9c0,1.2,0,2.4,0,3.6c0,0.2,0,0.5-0.2,0.6c-0.4,0.3-0.4,0.6-0.4,1c0,0.9,0,1.7,0,2.6c0,0.4,0.1,0.9-0.5,0.9
				c-0.6,0-0.5-0.5-0.5-0.9c0-1,0-2,0-3.1C315.5,263.1,315.4,263.1,315.4,263.1z"/>
			<path class="st20" d="M306.6,263.1c0,1.1,0,2.3,0,3.4c0,0.4-0.1,0.7-0.6,0.7c-0.4,0-0.5-0.3-0.5-0.7c0-1,0-2,0-3
				c0-0.3,0-0.7-0.3-0.9c-0.2-0.2-0.2-0.4-0.2-0.7c0-1.1,0-2.3,0-3.4c0-0.7,0.3-1,1-1c0.5,0,1,0,1.5,0c0.6,0,0.9,0.3,0.9,0.9
				c0,1.2,0,2.3,0,3.5c0,0.2,0,0.5-0.2,0.6c-0.4,0.3-0.4,0.6-0.4,1c0,0.9,0,1.9,0,2.8c0,0.3,0,0.5-0.3,0.7c-0.4,0.2-0.7,0-0.7-0.6
				c0-1,0-2,0-3c0-0.1,0-0.3,0-0.4C306.6,263.1,306.6,263.1,306.6,263.1z"/>
			<path class="st20" d="M310.9,263.1c0,1.1,0,2.2,0,3.3c0,0.2,0,0.4-0.1,0.6c-0.2,0.2-0.4,0.2-0.6,0.1c-0.3-0.1-0.4-0.3-0.4-0.6
				c0-1,0-1.9,0-2.9c0-0.4,0-0.7-0.4-1c-0.2-0.1-0.2-0.4-0.2-0.6c0-1.2,0-2.3,0-3.5c0-0.6,0.3-0.9,0.9-0.9c0.5,0,1,0,1.5,0
				c0.6,0,0.9,0.3,0.9,0.9c0,1.2,0,2.3,0,3.5c0,0.2,0,0.4-0.2,0.6c-0.4,0.3-0.4,0.7-0.4,1.2c0,0.9,0,1.7,0,2.6c0,0.4,0,0.8-0.6,0.8
				c-0.6,0-0.5-0.4-0.5-0.8c0-1.1,0-2.2,0-3.2C311,263.1,311,263.1,310.9,263.1z"/>
			<path class="st20" d="M312.3,256.2c0,0.7-0.6,1.2-1.2,1.2c-0.6,0-1.2-0.6-1.2-1.2c0-0.7,0.6-1.3,1.2-1.3
				C311.7,255,312.2,255.5,312.3,256.2z"/>
			<path class="st20" d="M316.7,256.2c0,0.7-0.6,1.2-1.2,1.2c-0.6,0-1.2-0.6-1.2-1.2c0-0.7,0.6-1.3,1.2-1.3
				C316.1,254.9,316.6,255.5,316.7,256.2z"/>
			<path class="st20" d="M306.6,257.4c-0.7,0-1.2-0.6-1.2-1.3c0-0.6,0.6-1.2,1.2-1.2c0.7,0,1.3,0.6,1.3,1.2
				C307.9,256.9,307.3,257.4,306.6,257.4z"/>
		</g>
	</g>
	<g id="s8VYHe_00000078009998576578135620000016055355682909246616_">
		<g>
			<path class="st11" d="M661.3,242.6c1.4,0,2.7,0,4.1,0c0.5,0,0.9,0.3,1,0.8c0.1,0.6-0.3,1.1-0.9,1.1c-1,0-1.9,0-2.9,0
				c-0.2,0-0.2,0-0.2,0.2c0,0.9,0,1.8,0,2.7c0,0.1,0,0.2,0.2,0.2c0.5,0,0.9,0.5,1,1c0,0.2,0,0.2,0.2,0.2c1.3,0,2.6,0,3.9,0
				c0.2,0,0.2,0,0.2-0.2c0-0.8,0-1.6,0-2.4c0-0.4,0.2-0.6,0.6-0.6c0.3,0,0.6,0,1,0c0.1,0,0.1,0,0.2,0.1c0,0.5,0,1.1,0,1.6
				c0,0.5,0,0.9,0,1.4c0,0.5,0,1.1,0,1.6c0,0.5,0,1,0,1.6c0,0.2,0,0.4,0,0.6c0,0.5,0,1,0,1.5c0,0.3,0,0.5,0,0.8c0,0.2,0,0.2-0.2,0.2
				c-0.3,0-0.6,0-1,0c-0.4,0-0.6-0.2-0.6-0.6c0-0.8,0-1.6,0-2.5c0-0.2,0-0.2-0.2-0.2c-0.5,0-1.1,0-1.6,0c-0.5,0-0.9,0-1.4,0
				c-0.3,0-0.6,0-0.8,0c-0.2,0-0.2,0-0.2,0.2c-0.1,0.6-0.6,1-1.2,1c-0.6,0-1.3,0-1.9,0c-0.6,0-1.1-0.4-1.2-1c0-0.1-0.1-0.1-0.2-0.1
				c-0.3,0-0.7,0-1,0c-0.6,0-1.2,0-1.8,0c-0.2,0-0.5,0-0.7,0.1c-0.5,0.2-0.9,0.7-0.9,1.3c0,0.5,0,1,0,1.5c0,0.6,0,1.1,0,1.7
				c0,0.1,0,0.1-0.1,0.1c-0.9,0-1.9,0-2.8,0c-0.1,0-0.1-0.1-0.1-0.2c0-0.5,0-1,0-1.5c0-0.8,0-1.6,0-2.3c0-0.6,0.2-1.1,0.5-1.5
				c0.6-0.9,1.5-1.5,2.5-1.8c0.7-0.2,1.4-0.3,2.1-0.3c0.8,0,1.6,0,2.4,0c0.1,0,0.2,0,0.2-0.1c0.1-0.6,0.5-0.9,1-1
				c0.1,0,0.1-0.1,0.1-0.2c0-0.9,0-1.9,0-2.8c0-0.1,0-0.2-0.2-0.2c-1,0-1.9,0-2.9,0c-0.5,0-0.8-0.3-1-0.7c-0.2-0.6,0.3-1.2,0.9-1.2
				c0.8,0,1.5,0,2.3,0C660,242.6,660.7,242.6,661.3,242.6C661.3,242.6,661.3,242.6,661.3,242.6z"/>
			<path class="st11" d="M652.9,259c1.6,0,3.2,0,4.7,0c0.2,0,0.2,0,0.2,0.2c-0.1,0.9-0.2,1.8-0.3,2.7c-0.1,0.9-0.2,1.8-0.3,2.7
				c-0.1,0.7-0.2,1.4-0.2,2.1c0,0.5-0.1,1-0.2,1.5c-0.1,0.8-0.2,1.6-0.3,2.3c0,0.2,0,0.2-0.2,0.2c-0.5,0-1,0-1.4,0c-0.5,0-1,0-1.6,0
				c-0.5,0-1.1,0-1.6,0c-0.2,0-0.4,0-0.6,0c-0.5,0-1.1,0-1.6,0c-0.1,0-0.2,0-0.2-0.1c-0.1-0.7-0.2-1.3-0.2-2
				c-0.1-0.7-0.2-1.4-0.2-2.1c-0.1-0.5-0.1-1.1-0.2-1.6c-0.1-0.7-0.2-1.4-0.2-2.1c-0.1-0.5-0.1-1.1-0.2-1.6
				c-0.1-0.6-0.1-1.3-0.2-1.9c0-0.1,0.1-0.1,0.2-0.1c0.8,0,1.6,0,2.5,0C651.4,259,652.1,259,652.9,259
				C652.9,259,652.9,259,652.9,259z M652.9,262.4c1.1,0,2.2,0,3.3,0c0.1,0,0.2,0,0.2-0.2c0.1-0.6,0.1-1.3,0.2-1.9
				c0-0.2,0-0.2-0.2-0.2c-0.6,0-1.2,0-1.8,0c-0.2,0-0.5,0-0.7,0c-0.5,0-1,0-1.6,0c-0.5,0-1,0-1.6,0c-0.5,0-1,0-1.5,0
				c-0.2,0-0.2,0-0.2,0.2c0,0.3,0.1,0.6,0.1,1c0,0.3,0.1,0.6,0.1,0.9c0,0.1,0.1,0.2,0.2,0.2c0.1,0,0.1,0,0.2,0
				C650.8,262.4,651.9,262.4,652.9,262.4z"/>
		</g>
	</g>
	<g id="p7iPoC_00000111153886958890451990000006580177279497909387_">
		<g>
			<path class="st10" d="M158.8,261.4c0.7,0,1.4,0,2.1,0c0.6,0,0.9,0.3,1.1,0.8c0.4,1.4,0.9,2.8,1.3,4.2c0.1,0.4,0.3,0.8,0.4,1.2
				c0.1,0.5-0.1,0.8-0.5,1c-0.4,0.1-0.9-0.1-1-0.5c-0.5-1.5-1-3-1.5-4.5c-0.1-0.2-0.2-0.3-0.4-0.3c-1.5,0.1-3,0-4.5,0
				c-0.3,0-0.7,0-1-0.1c-0.4-0.1-0.7-0.3-0.8-0.8c-0.3-1.4-0.5-2.9-0.7-4.3c-0.1-0.5-0.1-1-0.2-1.5c-0.1-0.7,0.2-1.2,0.8-1.4
				c0.3-0.1,0.6-0.1,0.8-0.1c0.6,0.1,1,0.4,1.1,1c0.1,0.6,0.3,1.2,0.4,1.8c0,0.2,0.1,0.2,0.3,0.2c0.8,0,1.6,0,2.4,0
				c0.6,0,1,0.6,0.7,1.1c-0.1,0.2-0.3,0.3-0.5,0.3c-0.8,0-1.6,0-2.3,0c-0.2,0-0.2,0.1-0.2,0.3c0.1,0.4,0.1,0.7,0.2,1.1
				c0,0.2,0.1,0.2,0.3,0.2C157.6,261.4,158.2,261.4,158.8,261.4z"/>
			<path class="st10" d="M149.3,263.7c0-2.3,1.4-4.2,3.4-5.1c0.2-0.1,0.3-0.1,0.3,0.2c0,0.2,0.1,0.5,0.1,0.7c0,0.2,0,0.3-0.2,0.3
				c-1,0.5-1.7,1.2-2.1,2.2c-1,2.6,0.5,5,3,5.6c2.6,0.6,4.7-1.2,5.1-3.4c0.1-0.5,0.1-0.5,0.6-0.5c0.2,0,0.4,0,0.5,0
				c0.1,0,0.2,0.1,0.2,0.2c-0.1,1.4-0.6,2.7-1.7,3.7c-1.2,1.1-2.6,1.6-4.2,1.5c-2.5-0.2-4.6-1.9-5-4.5
				C149.3,264.2,149.3,264,149.3,263.7z"/>
			<path class="st10" d="M154.9,251.9c0.8,0,1.5,0.7,1.5,1.5c0,0.8-0.7,1.5-1.5,1.5c-0.8,0-1.5-0.7-1.5-1.5
				C153.5,252.5,154.1,251.9,154.9,251.9z"/>
		</g>
	</g>
	<g id="BbVIEC_00000180350891659051094060000018031530141282713521_">
		<g>
			<g>
				<path class="st12" d="M220.9,263.9c-8.2,0-16.4,0-24.7,0c-0.5,0-0.5-0.1-0.5-0.5c0-1.5,0-3,0-4.5c0.2-0.3,0.5-0.3,0.8-0.3
					c1.2,0,2.4,0,3.6,0c0.6,0,0.8-0.1,0.8-0.8c0-1.2,0-2.4,0-3.6c0-0.8,0.1-0.9,0.9-0.9c1.2,0,2.3,0,3.5,0c0.7,0,0.9-0.1,0.9-0.9
					c0-1.2,0-2.4,0-3.6c0-0.6,0.2-0.8,0.8-0.8c1.2,0,2.4,0,3.6,0c0.7,0,0.8-0.1,0.8-0.8c0-1.1,0-2.3,0-3.4c0-0.9,0.1-1,1-1
					c1.1,0,2.3,0,3.4,0c0.7,0,0.8-0.1,0.8-0.9c0-1.2,0-2.4,0-3.6c0-0.7,0.2-0.8,0.8-0.8c1.1,0,2.3,0,3.4,0c1.1,0,1.1,0.1,1.1,1.1
					c0,7.7,0,15.4,0,23.1C222,262.8,221.7,263.5,220.9,263.9z M213,257.6C213,257.6,213,257.6,213,257.6c0.7,0,1.4,0,2.2,0
					c0.6,0,0.6-0.4,0.6-0.8c0-0.4,0-0.8-0.6-0.8c-0.4,0-0.9,0-1.3,0c-0.2,0-0.4,0.1-0.5-0.1c-0.1-0.2,0.1-0.3,0.2-0.4
					c1.2-1.2,2.5-2.5,3.7-3.7c0.6-0.6,0.6-0.7,0.1-1.2c-0.5-0.5-0.7-0.5-1.2,0.1c-0.1,0.1-0.2,0.2-0.4,0.4c-1.1,1.1-2.2,2.3-3.4,3.4
					c-0.1,0.1-0.2,0.3-0.4,0.2c-0.1-0.1-0.1-0.2-0.1-0.4c0-0.4,0-0.9,0-1.3c0-0.5-0.2-0.7-0.7-0.7c-0.7,0-0.9,0.1-0.9,0.7
					c0,1.4,0,2.7,0,4.1c0,0.5,0.2,0.7,0.7,0.7C211.7,257.6,212.4,257.6,213,257.6z"/>
				<path class="st12" d="M203.3,243.2c-0.7,0-1.2,0-1.7,0c-0.6,0-0.8-0.2-0.8-0.8c0-0.7,0.1-1,0.7-1c1.4,0,2.9,0,4.3,0
					c0.5,0,0.7,0.3,0.7,0.7c0,1.4,0,2.8,0,4.2c0,0.6-0.3,0.8-1,0.8c-0.7,0-0.9-0.2-0.9-0.8c0-0.5,0-1,0-1.4
					c-0.3-0.1-0.4,0.2-0.6,0.3c-1.2,1.1-2.3,2.3-3.5,3.5c-0.6,0.6-1.4,0.5-1.8-0.4c-0.1-0.4,0.1-0.6,0.3-0.8
					c1.2-1.2,2.4-2.4,3.6-3.6C202.9,243.6,203.1,243.5,203.3,243.2z"/>
			</g>
		</g>
	</g>
	<g id="BbVIEC_00000020400426659572226400000016466299794831458982_">
		<g>
			<g>
				<path class="st12" d="M621.4,263.9c-8.2,0-16.4,0-24.7,0c-0.5,0-0.5-0.1-0.5-0.5c0-1.5,0-3,0-4.5c0.2-0.3,0.5-0.3,0.8-0.3
					c1.2,0,2.4,0,3.6,0c0.6,0,0.8-0.1,0.8-0.8c0-1.2,0-2.4,0-3.6c0-0.8,0.1-0.9,0.9-0.9c1.2,0,2.3,0,3.5,0c0.7,0,0.9-0.1,0.9-0.9
					c0-1.2,0-2.4,0-3.6c0-0.6,0.2-0.8,0.8-0.8c1.2,0,2.4,0,3.6,0c0.7,0,0.8-0.1,0.8-0.8c0-1.1,0-2.3,0-3.4c0-0.9,0.1-1,1-1
					c1.1,0,2.3,0,3.4,0c0.7,0,0.8-0.1,0.8-0.9c0-1.2,0-2.4,0-3.6c0-0.7,0.2-0.8,0.8-0.8c1.1,0,2.3,0,3.4,0c1.1,0,1.1,0.1,1.1,1.1
					c0,7.7,0,15.4,0,23.1C622.5,262.8,622.2,263.5,621.4,263.9z M613.6,257.6C613.6,257.6,613.6,257.6,613.6,257.6
					c0.7,0,1.4,0,2.2,0c0.6,0,0.6-0.4,0.6-0.8c0-0.4,0-0.8-0.6-0.8c-0.4,0-0.9,0-1.3,0c-0.2,0-0.4,0.1-0.5-0.1
					c-0.1-0.2,0.1-0.3,0.2-0.4c1.2-1.2,2.5-2.5,3.7-3.7c0.6-0.6,0.6-0.7,0.1-1.2c-0.5-0.5-0.7-0.5-1.2,0.1c-0.1,0.1-0.2,0.2-0.4,0.4
					c-1.1,1.1-2.2,2.3-3.4,3.4c-0.1,0.1-0.2,0.3-0.4,0.2c-0.1-0.1-0.1-0.2-0.1-0.4c0-0.4,0-0.9,0-1.3c0-0.5-0.2-0.7-0.7-0.7
					c-0.7,0-0.9,0.1-0.9,0.7c0,1.4,0,2.7,0,4.1c0,0.5,0.2,0.7,0.7,0.7C612.2,257.6,612.9,257.6,613.6,257.6z"/>
				<path class="st12" d="M603.8,243.2c-0.7,0-1.2,0-1.7,0c-0.6,0-0.8-0.2-0.8-0.8c0-0.7,0.1-1,0.7-1c1.4,0,2.9,0,4.3,0
					c0.5,0,0.7,0.3,0.7,0.7c0,1.4,0,2.8,0,4.2c0,0.6-0.3,0.8-1,0.8c-0.7,0-0.9-0.2-0.9-0.8c0-0.5,0-1,0-1.4
					c-0.3-0.1-0.4,0.2-0.6,0.3c-1.2,1.1-2.3,2.3-3.5,3.5c-0.6,0.6-1.4,0.5-1.8-0.4c-0.1-0.4,0.1-0.6,0.3-0.8
					c1.2-1.2,2.4-2.4,3.6-3.6C603.5,243.6,603.6,243.5,603.8,243.2z"/>
			</g>
		</g>
	</g>
	<g>
		<text transform="matrix(1 0 0 1 728.7596 147.0999)" class="st23 st25">議程教室</text>
	</g>
	<g>
		<text transform="matrix(1 0 0 1 653.7801 124.9378)" class="st0 st26 st27">510</text>
	</g>
	<g>
		<text transform="matrix(1 0 0 1 646.157 147.0999)" class="st23 st25">議程教室</text>
	</g>
	<g>
		<text transform="matrix(1 0 0 1 736.3826 124.9378)" class="st0 st26 st27">509</text>
	</g>
	<g>
		<text transform="matrix(1 0 0 1 409.8489 124.9378)" class="st0 st26 st27">513</text>
	</g>
	<g>
		<text transform="matrix(1 0 0 1 402.2234 147.0999)" class="st23 st25">議程教室</text>
	</g>
	<g>
		<text transform="matrix(1 0 0 1 491.1629 124.9378)" class="st0 st26 st27">512</text>
	</g>
	<g>
		<text transform="matrix(1 0 0 1 483.5418 147.0999)" class="st23 st25">議程教室</text>
	</g>
	<g>
		<text transform="matrix(1 0 0 1 572.4842 124.9378)" class="st0 st26 st27">511</text>
	</g>
	<g>
		<text transform="matrix(1 0 0 1 564.8592 147.0999)" class="st23 st25">議程教室</text>
	</g>
	<g>
		<text transform="matrix(1 0 0 1 328.3997 124.9378)" class="st0 st26 st27">514</text>
	</g>
	<g>
		<text transform="matrix(1 0 0 1 319.4285 147.0999)" class="st23 st25">Staff Only</text>
	</g>
	<g>
		<text transform="matrix(1 0 0 1 247.3187 124.9378)" class="st0 st26 st27">515</text>
	</g>
	<g>
		<text transform="matrix(1 0 0 1 226.6419 147.0999)" class="st23 st25">社群/贊助攤位</text>
	</g>
	<g>
		<text transform="matrix(1 0 0 1 83.0037 125.4085)" class="st0 st26 st27">517</text>
	</g>
	<g>
		<text transform="matrix(1 0 0 1 73.0472 147.5726)" class="st23 st25">Staff only</text>
	</g>
	<g>
		<text transform="matrix(1 0 0 1 165.9124 124.9378)" class="st0 st26 st27">516</text>
	</g>
	<g>
		<text transform="matrix(1 0 0 1 145.2376 147.0999)" class="st23 st25">社群/贊助攤位</text>
	</g>
	<g>
		<text transform="matrix(1 0 0 1 78.8999 503.1998)" class="st0 st28 st29">511</text>
	</g>
	<g>
		<text transform="matrix(1 0 0 1 269.9396 373.8266)" class="st0 st28 st29">512</text>
	</g>
	<g>
		<text transform="matrix(1 0 0 1 267.8381 470.7839)" class="st0 st28 st29">513</text>
	</g>
	<g>
		<text transform="matrix(1 0 0 1 479.0784 375.4314)" class="st0 st28 st29">514</text>
	</g>
	<g>
		<text transform="matrix(1 0 0 1 479.079 423.2472)" class="st0 st28 st29">515</text>
	</g>
	<g>
		<text transform="matrix(1 0 0 1 479.0786 471.036)" class="st0 st28 st29">516</text>
	</g>
	<g>
		<text transform="matrix(1 0 0 1 77.6142 374.7819)" class="st0 st28 st29">509</text>
	</g>
	<g>
		<text transform="matrix(1 0 0 1 77.6142 455.1877)" class="st0 st28 st29">510</text>
	</g>
	<g>
		<text transform="matrix(1 0 0 1 115.088 471.6746)" class="st30 st31">綜合議程—其他開源議題2</text>
	</g>
	<text transform="matrix(1 0 0 1 115.0878 455.9362)" class="st32 st28 st33">Day01 / Day02</text>
	<g>
		<text transform="matrix(1 0 0 1 516.8844 390.7523)" class="st30 st31">Staff Only</text>
	</g>
	<text transform="matrix(1 0 0 1 516.8848 375.9161)" class="st32 st28 st33">Day01 / Day02</text>
	<g>
		<text transform="matrix(1 0 0 1 516.885 486.8546)" class="st30 st31">社群/贊助攤位</text>
	</g>
	<text transform="matrix(1 0 0 1 516.8843 471.0352)" class="st32 st28 st33">Day01 / Day02</text>
	<g>
		<text transform="matrix(1 0 0 1 479.0786 518.4911)" class="st0 st28 st29">517</text>
	</g>
	<g>
		<text transform="matrix(1 0 0 1 516.885 534.2582)" class="st30 st31">行李寄放處</text>
	</g>
	<text transform="matrix(1 0 0 1 516.8849 518.6423)" class="st32 st28 st33">Day01 / Day02</text>
	<g>
		<text transform="matrix(1 0 0 1 305.0241 486.439)"><tspan x="0" y="0" class="st30 st31">The Design We Open Workshop </tspan><tspan x="0" y="13.8" class="st30 st31">網路中斷黑客松</tspan></text>
	</g>
	<text transform="matrix(1 0 0 1 305.0247 471.0356)" class="st32 st28 st33">Day01</text>
	<g>
		<text transform="matrix(1 0 0 1 305.0243 518.4915)" class="st32 st28 st33">Day02</text>
	</g>
	<text transform="matrix(1 0 0 1 305.0243 530.8907)" class="st30 st31">Open Design</text>
	<g>
		<text transform="matrix(1 0 0 1 516.8849 439.2377)" class="st30 st31">社群/贊助攤位</text>
	</g>
	<text transform="matrix(1 0 0 1 516.8848 423.688)" class="st32 st28 st33">Day01 / Day02</text>
	<g>
		<text transform="matrix(1 0 0 1 115.0876 519.2563)" class="st30 st31">綜合議程—其他開源議題1</text>
	</g>
	<text transform="matrix(1 0 0 1 115.0879 503.5621)" class="st32 st28 st33">Day01 / Day02</text>
	<g>
		<text transform="matrix(1 0 0 1 115.088 390.8746)" class="st30 st31">開放知識與多元價值</text>
	</g>
	<text transform="matrix(1 0 0 1 115.0879 375.0899)" class="st32 st28 st33">Day01</text>
	<g>
		<text transform="matrix(1 0 0 1 115.0878 408.0199)" class="st32 st28 st33">Day02</text>
	</g>
	<g>
		<text transform="matrix(1 0 0 1 115.0876 423.6876)" class="st30 st31">Open啥款！開放農業人年會</text>
	</g>
	<g>
		<text transform="matrix(1 0 0 1 305.024 389.203)"><tspan x="0" y="0" class="st30 st31">藝術、文化、地方脈絡</tspan><tspan x="0" y="13.8" class="st30 st31">與開放資料的跨域練習</tspan></text>
	</g>
	<text transform="matrix(1 0 0 1 305.0245 373.8269)" class="st32 st28 st33">Day01</text>
	<g>
		<text transform="matrix(1 0 0 1 305.0243 421.1481)" class="st32 st28 st33">Day02</text>
	</g>
	<g>
		<text transform="matrix(1 0 0 1 305.0243 436.5442)" class="st30 st31">Open World Tour - 國際開源導遊</text>
	</g>
</g>
<g id="樓層位置">
	<g>
		<text transform="matrix(1 0 0 1 79.1533 339.7428)" class="st0 st26 st34">TR5F</text>
	</g>
	<g>
		<g>
			<defs>
				<rect id="SVGID_00000034080419977867754000000001239891911001257652_" x="645.9" y="463.1" width="169.6" height="113.1"/>
			</defs>
			<clipPath id="SVGID_00000059994382798241168330000011031672245004251578_">
				<use xlink:href="#SVGID_00000034080419977867754000000001239891911001257652_"  style="overflow:visible;"/>
			</clipPath>
			<g style="clip-path:url(#SVGID_00000059994382798241168330000011031672245004251578_);">
				<defs>
					<rect id="SVGID_00000057128059047437058630000003975582579121871277_" x="645.9" y="463.1" width="169.6" height="113.1"/>
				</defs>
				<clipPath id="SVGID_00000173160980652543578120000006214802625925365424_">
					<use xlink:href="#SVGID_00000057128059047437058630000003975582579121871277_"  style="overflow:visible;"/>
				</clipPath>
				<path style="clip-path:url(#SVGID_00000173160980652543578120000006214802625925365424_);fill:#00943C;" d="M679.5,503.2
					l-2.1,8.9h-3c0.1-0.3,0.1-0.6,0.2-0.9c0.1-0.3,0.1-0.8,0.1-1.3c0-1.2-0.2-2.2-0.6-2.9c-0.6-1-1.6-1.5-2.9-1.5
					c-1.8,0-3.6,1.2-5.6,3.5c-2.1,2.4-3.1,4.9-3.1,7.4c0,1.9,0.5,3.4,1.4,4.5c1,1.1,2.2,1.6,3.7,1.6c1.3,0,2.8-0.6,4.6-1.9
					c0.6-0.4,1.4-1,2.4-1.9l3,1.9c-0.4,0.4-0.9,0.8-1.3,1.2c-1.2,1-2.4,1.7-3.8,2.3c-2,0.8-4,1.2-6.1,1.2c-3.1,0-5.6-0.8-7.6-2.3
					c-2.3-1.7-3.4-4.1-3.4-7.1c0-4,1.8-7.3,5.3-9.9c3.3-2.4,7.4-3.6,12.3-3.6c1.1,0,2.5,0.1,4.2,0.3
					C677.7,502.9,678.5,503.1,679.5,503.2"/>
				<path style="clip-path:url(#SVGID_00000173160980652543578120000006214802625925365424_);fill:#00943C;" d="M705.3,509.7
					c0,2-0.4,3.9-1.3,5.5c-0.7,1.4-2,2.9-3.7,4.7c-1.7,1.7-3.8,3-6.2,4c-2.1,0.8-4.2,1.2-6.1,1.2c-3.3,0-5.9-0.9-7.7-2.8
					c-1.7-1.7-2.6-4-2.6-6.8c0-2.4,0.7-4.6,2-6.8c1-1.6,2.2-3.1,3.8-4.4c1.2-1,1.9-1.5,2-1.5l6.1,0c-0.1,0-0.7,0.7-1.7,2.1
					c-1.3,1.7-2.4,3.5-3.3,5.1c-1.2,2.4-1.8,4.6-1.8,6.6c0,2.2,0.5,3.8,1.4,4.8c0.8,0.8,1.9,1.2,3.3,1.2c1.9,0,3.7-1.1,5.3-3.4
					c1.6-2.3,2.4-4.7,2.4-7.3c0-1.2-0.1-2.1-0.4-2.9c-0.3-0.9-1-1.6-1.8-2c-0.2-0.1-0.4-0.2-0.7-0.2c-0.3,0-0.6-0.1-0.9-0.1
					c-0.5,0-0.8,0-1.1,0c-0.3,0-0.5,0.1-0.8,0.1v-2l7.8-2.5c1.3,0.5,2.3,1,3,1.5C704.3,505.2,705.3,507.2,705.3,509.7"/>
				<path style="clip-path:url(#SVGID_00000173160980652543578120000006214802625925365424_);fill:#00943C;" d="M729.4,502.8l-2,7.3
					h-2.8v-0.3c0-0.3,0-0.5,0-0.8c0-0.6,0-1.2-0.1-1.7c-0.1-0.5-0.3-0.9-0.6-1.3c-0.4-0.4-0.8-0.7-1.4-0.9c-0.6-0.2-1.5-0.3-2.9-0.3
					c-1.7,0-3.1,0.3-4.2,0.9c-1.4,0.7-2,1.7-2,3.1c0,1.1,1.1,1.9,3.4,2.6c2.2,0.6,4.5,1.2,6.6,1.8c2.4,1,3.5,2.5,3.5,4.4
					c0,2.3-1.6,4.1-4.9,5.6c-2.9,1.3-6.1,2-9.7,2c-1.4,0-3.2-0.2-5.3-0.7c-0.7-0.1-1.7-0.4-2.9-0.7v-4.1c0.9,0.5,1.7,0.9,2.3,1.2
					c1.9,0.8,3.8,1.2,5.7,1.2c1.8,0,3.3-0.3,4.7-0.9c1.6-0.7,2.4-1.7,2.4-2.9c0-1.2-1.1-2-3.3-2.4c-2.2-0.5-4.4-0.9-6.5-1.3
					c-2.3-0.8-3.4-2.2-3.4-4.3c0-2,0.8-3.7,2.5-5c1.4-1.1,3.4-1.9,5.9-2.4c2-0.4,4.3-0.6,6.9-0.6c1.5,0,3.2,0.1,5.3,0.3
					C727.3,502.6,728.2,502.7,729.4,502.8"/>
				<path style="clip-path:url(#SVGID_00000173160980652543578120000006214802625925365424_);fill:#00943C;" d="M752.1,503.2
					l-2.1,8.9h-3c0.1-0.3,0.1-0.6,0.2-0.9c0.1-0.3,0.1-0.8,0.1-1.3c0-1.2-0.2-2.2-0.6-2.9c-0.6-1-1.6-1.5-2.9-1.5
					c-1.7,0-3.6,1.2-5.6,3.5c-2.1,2.4-3.1,4.9-3.1,7.4c0,1.9,0.5,3.4,1.4,4.5c1,1.1,2.2,1.6,3.7,1.6c1.3,0,2.8-0.6,4.6-1.9
					c0.6-0.4,1.4-1,2.4-1.9l3,1.9c-0.4,0.4-0.9,0.8-1.3,1.2c-1.2,1-2.4,1.7-3.7,2.3c-2,0.8-4,1.2-6.1,1.2c-3.1,0-5.6-0.8-7.6-2.3
					c-2.3-1.7-3.4-4.1-3.4-7.1c0-4,1.8-7.3,5.3-9.9c3.3-2.4,7.4-3.6,12.3-3.6c1.1,0,2.5,0.1,4.2,0.3
					C750.4,502.9,751.2,503.1,752.1,503.2"/>
				<path style="clip-path:url(#SVGID_00000173160980652543578120000006214802625925365424_);fill:#00943C;" d="M778.6,502.7
					l-5.6,22.3h-7.5l1.9-6.4c0.1-0.1,0.1-0.3,0.1-0.5c0-0.2,0.1-0.3,0.1-0.4c0-0.2-0.1-0.4-0.2-0.4c-0.2,0-0.3,0.1-0.5,0.3
					c0,0.1-0.1,0.2-0.2,0.3c-0.5,0.7-0.9,1.3-1.4,2c-1.2,1.5-2.5,2.8-3.8,3.8c-1.8,1.3-3.6,2-5.4,2c-1.7,0-3.1-0.6-4.2-1.7
					c-1-1.1-1.6-2.6-1.6-4.6c0-0.8,0.1-1.8,0.3-3c0.1-0.4,0.2-1,0.4-1.7l3.4-12.1h7.5l-3.7,13.3c0,0.1-0.1,0.3-0.1,0.7
					c-0.1,0.4-0.1,0.7-0.1,1c0,0.7,0.2,1.2,0.5,1.6c0.3,0.4,0.9,0.6,1.8,0.6c1.7,0,3.5-1.5,5.5-4.4c1.4-2.1,2.8-4.9,4.1-8.3
					c0.5-1.5,1.1-3,1.6-4.4H778.6z"/>
				<path style="clip-path:url(#SVGID_00000173160980652543578120000006214802625925365424_);fill:#00943C;" d="M739.7,495.3
					l-3.8-12.1l-2,3.5c-24.1-11.6-34.6,11.2-34.6,11.2s8.7-16.7,30-3.3l-2,3.5L739.7,495.3z"/>
				<path style="clip-path:url(#SVGID_00000173160980652543578120000006214802625925365424_);fill:#00943C;" d="M755.1,486.9
					l-3.8-12.1l-2,3.5c-24.1-11.6-34.6,11.2-34.6,11.2s8.7-16.7,30-3.3l-2,3.5L755.1,486.9z"/>
				<path style="clip-path:url(#SVGID_00000173160980652543578120000006214802625925365424_);fill:#00943C;" d="M803.2,504.1
					c-1.7-1-3.7-1.4-6-1.4h-3.5l-0.5,0.6c0.2,0.4,0.2,0.7,0.2,0.9l0,0.4c0,0.2,0,0.4,0,0.5h0.5c1.4,0,2.5,0.4,3.3,1.3
					c0.9,0.8,1.3,2,1.3,3.6c0,1.9-0.8,3.3-2.5,4.4c-1.1,0.7-2.7,1.2-4.6,1.5c-0.3,0-0.6,0.1-1,0.1l-0.2,0.6
					c-0.1,0.5-0.2,0.9-0.5,1.3l-0.2,0.4c0.2,0,0.4,0,0.6,0c2.2,0,4.3-0.2,6.1-0.5c2.8-0.5,5.1-1.4,6.7-2.6c2.1-1.6,3.1-3.7,3.1-6.4
					C806.1,506.7,805.1,505.2,803.2,504.1"/>
				<path style="clip-path:url(#SVGID_00000173160980652543578120000006214802625925365424_);fill:#00943C;" d="M790,508.8
					c0-0.1,0-0.4,0.1-0.5l0.8-2c0-0.1,0.2-0.3,0.2-0.4l0.3-0.8l0-0.1c0-0.1,0-0.4,0-0.5l0-0.2c0-0.1,0-0.3-0.1-0.5l-0.1-0.3v-0.5
					l0.1-0.5l0-0.2c0.1-0.1,0.2-0.3,0.2-0.4l0.7-0.8c0-0.1,0.1-0.3,0-0.3l-0.4-0.6c-0.1-0.1-0.2-0.2-0.3-0.2l-1.2-0.4
					c-0.1,0-0.4-0.1-0.4-0.2l-0.4-0.5c-0.1-0.1-0.2-0.2-0.3-0.2h-0.1c-0.1,0-0.3,0.1-0.4,0.1l-0.4,0.4c-0.1,0.1-0.1,0.3-0.1,0.4
					c0,0.1-0.1,0.2-0.3,0.3l-0.6,0.1c-0.2,0-0.4,0.1-0.5,0.2l-1,0.4c-0.1,0-0.3,0.1-0.3,0.2l-1,2.2c-0.1,0.1-0.2,0.3-0.3,0.3l-0.9,1
					c-0.1,0.1-0.2,0.3-0.3,0.4l-3.9,6.9c-0.1,0.1-0.1,0.3-0.1,0.4l0.1,2.3c0.1,0.1,0,0.3-0.1,0.4l-0.1,0.1c0,0.1-0.1,0.3-0.1,0.4
					l-0.1,0.5c0,0.1-0.1,0.3-0.1,0.4l0,0.4c0,0.1,0,0.3,0.2,0.4l0.6,0.5c0.1,0,0.2,0.2,0.2,0.3v0.8c0,0.1,0.1,0.3,0.1,0.4l0.2,0.7
					c0.1,0.1,0.1,0.3,0.2,0.4l0.7,1.1c0.1,0.1,0.2,0.2,0.3,0.2h0c0.1,0,0.3,0,0.4,0.2l1,0.9c0.2,0.1,0.3,0.3,0.3,0.4l0.5,1
					c0,0.1,0,0.3,0,0.4l-0.1,0.6c0,0.2,0.1,0.3,0.1,0.4l0.2,0.1c0.1,0.1,0.3,0.2,0.4,0.3l0.4,0.2c0.1,0.1,0.2,0,0.3-0.1l0.1-0.5
					c0-0.1,0.1-0.3,0.1-0.4v-0.8v-1.3c0-0.1,0-0.3,0-0.4l0.8-2.1c0-0.1,0.2-0.3,0.2-0.4l0.7-0.8l0.2-0.2c0.1,0,0.2-0.2,0.3-0.3
					l1.2-1.9c0.2-0.3,0.1-0.4,0.2-0.7c0-0.1,0.1-0.4,0.2-0.5l0.6-1.8c0.1-0.3,0.6-3.3,0.8-4.6C790,509.1,790,509,790,508.8"/>
				<path style="clip-path:url(#SVGID_00000173160980652543578120000006214802625925365424_);fill:#00943C;" d="M655.3,542.3
					c3-2.7,4.6-4.7,4.6-6.3c0-1.1-0.6-1.9-1.7-1.9c-0.8,0-1.5,0.5-2,1.1l-0.9-0.9c0.9-0.9,1.8-1.5,3.1-1.5c1.9,0,3.1,1.2,3.1,3.1
					c0,2-1.6,4-3.7,6.1c0.5-0.1,1.2-0.1,1.7-0.1h2.6v1.4h-6.6V542.3z"/>
				<path style="clip-path:url(#SVGID_00000173160980652543578120000006214802625925365424_);fill:#00943C;" d="M669.5,538.1
					c0-3.5,1.3-5.3,3.3-5.3c2,0,3.3,1.7,3.3,5.3c0,3.6-1.3,5.3-3.3,5.3C670.8,543.4,669.5,541.6,669.5,538.1 M674.6,538.1
					c0-2.9-0.7-4-1.8-4c-1,0-1.8,1.1-1.8,4c0,3,0.7,4.1,1.8,4.1C673.9,542.2,674.6,541,674.6,538.1"/>
				<path style="clip-path:url(#SVGID_00000173160980652543578120000006214802625925365424_);fill:#00943C;" d="M683.7,542.3
					c3-2.7,4.6-4.7,4.6-6.3c0-1.1-0.6-1.9-1.7-1.9c-0.8,0-1.5,0.5-2,1.1l-0.9-0.9c0.9-0.9,1.8-1.5,3.1-1.5c1.9,0,3.1,1.2,3.1,3.1
					c0,2-1.6,4-3.7,6.1c0.5-0.1,1.2-0.1,1.7-0.1h2.6v1.4h-6.6V542.3z"/>
				<path style="clip-path:url(#SVGID_00000173160980652543578120000006214802625925365424_);fill:#00943C;" d="M697.6,542l0.8-1
					c0.6,0.6,1.4,1.1,2.4,1.1c1.2,0,1.9-0.6,1.9-1.7c0-1.1-0.7-1.9-3-1.9v-1.2c2,0,2.7-0.8,2.7-1.8c0-0.9-0.6-1.5-1.6-1.5
					c-0.8,0-1.5,0.4-2,1l-0.8-1c0.8-0.7,1.8-1.2,2.9-1.2c1.8,0,3.1,0.9,3.1,2.6c0,1.2-0.7,2-1.8,2.4v0.1c1.2,0.3,2.1,1.2,2.1,2.6
					c0,1.8-1.5,2.9-3.4,2.9C699.3,543.4,698.3,542.8,697.6,542"/>
				<path style="clip-path:url(#SVGID_00000173160980652543578120000006214802625925365424_);fill:#00943C;" d="M713.9,536.9v7.5
					h-1.3v-12.2h5.2v4.7H713.9z M713.9,534h2.7v-0.9h-2.7V534z M716.5,534.9h-2.7v1h2.7V534.9z M720.2,541.1v3h-1.2v-3h-1.7
					c-0.1,0.9-0.6,2.3-1.8,3.2c-0.2-0.2-0.6-0.6-0.8-0.8c1-0.6,1.4-1.7,1.5-2.4h-1.6V540h1.6v-1.3h-1.4v-1h6.7v1h-1.4v1.3h1.7v1.1
					H720.2z M719.1,538.7h-1.7v1.3h1.7V538.7z M724.1,542.8c0,0.7-0.1,1.1-0.6,1.3c-0.4,0.2-1.1,0.3-2.2,0.2c0-0.3-0.2-0.9-0.4-1.3
					c0.7,0,1.4,0,1.6,0c0.2,0,0.3-0.1,0.3-0.3v-5.8h-4v-4.8h5.3V542.8z M720.1,534h2.8v-0.9h-2.8V534z M722.8,534.9h-2.8v1h2.8
					V534.9z"/>
				<path style="clip-path:url(#SVGID_00000173160980652543578120000006214802625925365424_);fill:#00943C;" d="M734.3,537.8
					c-0.5-0.4-1.5-1-2.3-1.5l0.8-0.9c0.7,0.4,1.8,1,2.3,1.3L734.3,537.8z M735.3,539.7c-0.5,1.4-1.3,3.1-1.9,4.4l-1.2-0.7
					c0.6-1.1,1.4-2.9,2-4.4L735.3,539.7z M735,534.1c-0.5-0.4-1.5-1.1-2.3-1.5l0.8-0.9c0.7,0.4,1.8,1,2.3,1.4L735,534.1z
					 M737.4,536.1c0,2.4-0.2,5.9-1.9,8.2c-0.2-0.2-0.8-0.5-1.1-0.7c1.6-2.2,1.7-5.3,1.7-7.6v-3.8h8.5v1.2h-7.2V536.1z M739.6,540.7
					c-0.4,1-1.1,2.1-1.7,2.8c-0.2-0.2-0.7-0.5-1-0.6c0.6-0.7,1.2-1.6,1.6-2.5L739.6,540.7z M741.7,539.7v3.4c0,0.6-0.1,0.9-0.5,1.1
					c-0.4,0.2-1,0.2-1.9,0.2c0-0.3-0.2-0.8-0.3-1.1c0.6,0,1.2,0,1.3,0c0.2,0,0.2-0.1,0.2-0.2v-3.3h-2.4v-4.9h2
					c0.1-0.4,0.3-0.9,0.4-1.3l1.4,0.3c-0.2,0.4-0.4,0.7-0.5,1.1h2.9v4.9H741.7z M739.2,536.8h3.8v-1h-3.8V536.8z M739.2,538.8h3.8
					v-1h-3.8V538.8z M743.5,540.3c0.5,0.8,1.2,2,1.5,2.6l-1.2,0.5c-0.3-0.7-0.9-1.9-1.4-2.7L743.5,540.3z"/>
				<path style="clip-path:url(#SVGID_00000173160980652543578120000006214802625925365424_);fill:#00943C;" d="M759.2,531.6
					c0,0.5,0,1.3-0.1,2.1c0.2,1.7,1,7.3,5.9,9.4c-0.4,0.3-0.8,0.7-0.9,1.1c-3.3-1.5-4.8-4.6-5.5-7.1c-0.7,2.6-2.2,5.4-5.3,7.2
					c-0.2-0.3-0.6-0.8-1.1-1c5.7-2.9,5.5-9.4,5.6-11.7H759.2z"/>
				<path style="clip-path:url(#SVGID_00000173160980652543578120000006214802625925365424_);fill:#00943C;" d="M785,541.3h-4.9v3.1
					h-1.3v-3.1h-6.3V540h2.2v-3.7h4.1v-1.9h-3.2c-0.6,1-1.3,1.9-2,2.6c-0.2-0.2-0.8-0.6-1.1-0.8c1.3-1.1,2.4-2.9,3-4.7l1.3,0.3
					c-0.2,0.4-0.4,0.9-0.5,1.3h8.1v1.3h-4.2v1.9h3.9v1.2h-3.9v2.5h4.9V541.3z M778.8,537.6H776v2.5h2.8V537.6z"/>
				<path style="clip-path:url(#SVGID_00000173160980652543578120000006214802625925365424_);fill:#00943C;" d="M799.8,531.9
					c-0.1,0.1-0.1,0.2-0.2,0.3c1.3,1.2,3.6,2.3,5.8,2.7c-0.3,0.2-0.6,0.7-0.8,1c-0.3-0.1-0.7-0.2-1-0.3v3.6h-9.4v-3.5
					c-0.3,0.1-0.7,0.2-1,0.3c-0.1-0.2-0.5-0.8-0.7-1c2.5-0.6,5-1.8,6.2-3.5L799.8,531.9z M803.5,535.5c-0.7-0.3-1.5-0.6-2.2-1v0.4
					h-4.8v-0.3c-0.6,0.4-1.3,0.7-2,0.9H803.5z M794.9,539.7h7.9v4.6h-1.3v-0.4h-5.3v0.4h-1.3V539.7z M796.8,536.5
					c0.3,0.5,0.6,1.1,0.7,1.5l-0.9,0.3h1.6v-1.9h-3v1.9h1.3c-0.1-0.4-0.4-1.1-0.7-1.6L796.8,536.5z M796.2,541.4h5.3v-0.8h-5.3
					V541.4z M801.5,542.2h-5.3v0.8h5.3V542.2z M800.4,534.1c-0.6-0.3-1.1-0.8-1.5-1.2c-0.4,0.4-1,0.8-1.5,1.2H800.4z M802.4,536.4
					h-3.1v1.9h1.6L800,538c0.3-0.4,0.5-1.2,0.7-1.6l1.1,0.3c-0.3,0.6-0.6,1.2-0.9,1.6h1.5V536.4z"/>
				<path style="clip-path:url(#SVGID_00000173160980652543578120000006214802625925365424_);fill:#00943C;" d="M660.3,552.8h-4.8
					v-2.2h7.7v1.6c-2.6,3.1-2.9,5.2-3.1,9.6h-2.7C657.6,558.1,658.2,555.7,660.3,552.8"/>
				<polygon style="clip-path:url(#SVGID_00000173160980652543578120000006214802625925365424_);fill:#00943C;" points="
					670.8,549.6 672.5,549.6 669.2,564.5 667.5,564.5 				"/>
				<path style="clip-path:url(#SVGID_00000173160980652543578120000006214802625925365424_);fill:#00943C;" d="M677,560.3
					c2.8-2.5,4.7-4.6,4.7-6.2c0-1-0.6-1.6-1.5-1.6c-0.8,0-1.4,0.5-1.9,1.1l-1.5-1.4c1.1-1.2,2.1-1.7,3.7-1.7c2.2,0,3.7,1.4,3.7,3.5
					c0,1.9-1.7,4.1-3.4,5.8c0.6-0.1,1.3-0.1,1.8-0.1h2.1v2.3H677V560.3z"/>
				<path style="clip-path:url(#SVGID_00000173160980652543578120000006214802625925365424_);fill:#00943C;" d="M691,559.1
					c0.4,0.4,1.1,0.8,1.7,0.8c1.1,0,2.1-0.8,2.2-3.3c-0.5,0.7-1.5,1.1-2.1,1.1c-1.9,0-3.3-1.1-3.3-3.5c0-2.4,1.7-3.8,3.7-3.8
					c2.1,0,4.2,1.6,4.2,5.7c0,4.1-2.1,6-4.4,6c-1.5,0-2.6-0.6-3.3-1.3L691,559.1z M694.8,554.8c-0.2-1.9-0.9-2.4-1.6-2.4
					c-0.7,0-1.3,0.5-1.3,1.8c0,1.2,0.6,1.6,1.4,1.6C693.8,555.8,694.4,555.5,694.8,554.8"/>
				
					<rect x="702.2" y="556.5" style="clip-path:url(#SVGID_00000173160980652543578120000006214802625925365424_);fill:#00943C;" width="4.3" height="1.9"/>
				<path style="clip-path:url(#SVGID_00000173160980652543578120000006214802625925365424_);fill:#00943C;" d="M710.9,560.4
					l1.2-1.7c0.7,0.6,1.5,1.1,2.3,1.1c1,0,1.7-0.4,1.7-1.3c0-1-0.5-1.5-2.9-1.5v-1.9c1.9,0,2.5-0.6,2.5-1.5c0-0.8-0.5-1.2-1.3-1.2
					c-0.8,0-1.3,0.3-2,0.9l-1.4-1.6c1-0.9,2.2-1.4,3.5-1.4c2.3,0,3.8,1.1,3.8,3.1c0,1.1-0.6,2-1.8,2.5v0.1c1.3,0.4,2.2,1.3,2.2,2.7
					c0,2.1-1.9,3.3-4.1,3.3C712.9,562,711.7,561.4,710.9,560.4"/>
				<path style="clip-path:url(#SVGID_00000173160980652543578120000006214802625925365424_);fill:#00943C;" d="M723.6,556.1
					c0-3.9,1.6-5.8,4-5.8c2.4,0,4,1.9,4,5.8c0,3.9-1.6,5.9-4,5.9C725.2,562,723.6,560,723.6,556.1 M729,556.1c0-3.1-0.6-3.7-1.4-3.7
					c-0.8,0-1.4,0.6-1.4,3.7c0,3.1,0.6,3.8,1.4,3.8C728.4,559.9,729,559.2,729,556.1"/>
				<path style="clip-path:url(#SVGID_00000173160980652543578120000006214802625925365424_);fill:#00943C;" d="M736,556.8
					c0-4.9,3.6-8.1,7.9-8.1c3.8,0,6.2,2.6,6.2,6.2c0,3.2-2.2,4.8-4,4.8c-1,0-1.8-0.5-2-1.3h0c-0.5,0.7-1.4,1.2-2.1,1.2
					c-1.4,0-2.3-1-2.3-2.6c0-2.1,1.5-4.3,3.5-4.3c0.6,0,1,0.3,1.3,0.9h0l0.3-0.7h1.6l-0.8,3.9c-0.2,1,0,1.4,0.8,1.4
					c1.1,0,2-1.2,2-3.1c0-2.5-1.3-4.7-4.7-4.7c-3,0-5.9,2.5-5.9,6.4c0,3.4,2.4,5,5.1,5c0.9,0,1.9-0.3,2.6-0.7l0.6,1.5
					c-1.1,0.6-2.2,0.8-3.4,0.8C739.2,563.4,736,561.3,736,556.8 M743.6,557.1l0.4-2.3c-0.2-0.3-0.4-0.5-0.8-0.5
					c-1,0-1.6,1.4-1.6,2.4c0,0.7,0.3,1.1,0.9,1.1C742.9,557.9,743.2,557.7,743.6,557.1"/>
				<path style="clip-path:url(#SVGID_00000173160980652543578120000006214802625925365424_);fill:#00943C;" d="M768.2,549.6v1.3
					h-5.7v0.3h4.4v1.2H756v-1.2h4.3v-0.3h-5.5v-1.3h5.5v-0.7h2.2v0.7H768.2z M754.8,555.4h13.3v2.3h-1.9v0.4h-0.7
					c0.5,0.3,1.1,0.7,1.4,1l-1,0.8h0.8v1.2h-4.3v0.3h5.6v1.4h-13.2v-1.4h5.4v-0.3h-3.9V560h3.9v-0.3c-2.4,0.1-2.8,0.1-3.2,0.2
					c-0.1-0.3-0.3-1-0.4-1.3c0.2,0,0.5-0.1,0.8-0.2c0.1,0,0.4-0.1,0.7-0.3h-1.7v-0.4h-1.6V555.4z M766.6,555.1h-10.1v-2.4h10.1
					V555.1z M756.8,557h9.3v-0.3h-9.3V557z M764.4,553.8h-5.9v0.3h5.9V553.8z M763.3,558.5c-0.2-0.1-0.4-0.2-0.6-0.3l0,0h-2.2
					c-0.2,0.1-0.5,0.3-0.7,0.4L763.3,558.5z M765.4,560c-0.1-0.1-0.3-0.2-0.5-0.4l-2.4,0.1v0.3H765.4z"/>
				<path style="clip-path:url(#SVGID_00000173160980652543578120000006214802625925365424_);fill:#00943C;" d="M777.6,558.9
					c-0.2-0.3-0.4-0.8-0.6-1.2v5.6h-2.1v-4.7c-0.4,0.9-0.8,1.7-1.3,2.4c-0.2-0.6-0.7-1.6-1-2.1c0.8-0.9,1.5-2.4,2-3.7h-1.9v-2h2.1
					v-1.4c-0.5,0.1-1,0.2-1.5,0.2c-0.1-0.5-0.3-1.2-0.6-1.7c1.7-0.3,3.6-0.7,4.9-1.2l1.2,1.8c-0.6,0.2-1.3,0.4-1.9,0.5v1.8h1.9v2
					H777v0c0.4,0.3,1.6,1.6,1.9,2L777.6,558.9z M785.4,559.5v3.7h-2.2v-3.3l-4.4,0.8l-0.3-2.1l4.7-0.8v-8.8h2.2v8.5l1.4-0.2l0.3,2.1
					L785.4,559.5z M780.3,553.7c0.8,0.6,1.9,1.6,2.4,2.2l-1.5,1.4c-0.4-0.7-1.4-1.7-2.3-2.4L780.3,553.7z M781.5,553.3
					c-0.4-0.7-1.4-1.7-2.2-2.4l1.4-1.2c0.8,0.6,1.8,1.6,2.3,2.2L781.5,553.3z"/>
				<path style="clip-path:url(#SVGID_00000173160980652543578120000006214802625925365424_);fill:#00943C;" d="M799.9,555.1
					c1,2.7,2.7,4.9,5.5,6c-0.5,0.5-1.3,1.4-1.6,2.1c-2.7-1.2-4.3-3.2-5.5-5.9c-0.9,2.3-2.5,4.4-5.4,5.9c-0.3-0.6-1-1.4-1.7-1.9
					c3.3-1.5,4.7-3.8,5.3-6.2h-5v-2.3h5.4c0.1-1.3,0.1-2.7,0.1-3.9h2.4c0,1.2,0,2.6-0.1,3.9h5.8v2.3H799.9z"/>
			</g>
		</g>
	</g>
</g>
<g id="輸出佈置" class="st100">
	<g class="st102">
		<text transform="matrix(1 0 0 1 341.6556 200.5885)" class="st103 st104 st105">徵才看板B</text>
	</g>
	<line class="st101" x1="358" y1="182.5" x2="393.2" y2="182.5"/>
	<line class="st101" x1="278.9" y1="182.5" x2="314" y2="182.5"/>
	<text transform="matrix(1 0 0 1 493.3602 251.1801)" class="st106 st104 st105">樓層議程告知</text>
	<text transform="matrix(1 0 0 1 179.7845 286.8984)" class="st106 st104 st105">樓層議程告知</text>
	<text transform="matrix(1 0 0 1 259.2469 197.6061)" class="st106 st104 st105">社群交流看板</text>
	<line class="st101" x1="411.1" y1="178.6" x2="467.3" y2="178.6"/>
	<text transform="matrix(1 0 0 1 431.1766 192.7435)" class="st102"><tspan x="0" y="0" class="st103 st104 st105">5樓</tspan><tspan x="-25.6" y="12.3" class="st103 st104 st105">議程看板+地圖</tspan></text>
	<text transform="matrix(1 0 0 1 696.3421 525.7267)" class="st102 st104 st108">A.贊助商海報</text>
	<g class="st102">
		<text transform="matrix(1 0 0 1 696.1321 541.2766)" class="st104 st108">B.主視覺海報</text>
	</g>
	<g class="st102">
		<text transform="matrix(1 0 0 1 696.2298 556.8264)" class="st104 st108">C.講桌前背板(上方)</text>
	</g>
	<g class="st102">
		<text transform="matrix(1 0 0 1 781.5589 557.321)" class="st104 st109">8間</text>
	</g>
	<text transform="matrix(1 0 0 1 681.4163 514.7272)" class="st102 st104 st110">議程教室</text>
	<polygon class="st107" points="666,509.7 666,541.3 586.9,541.3 586.9,534.6 580.5,534.6 580.5,509.7 	"/>
	<rect x="566.7" y="534.6" class="st107" width="20.2" height="28"/>
	<rect x="563" y="513.7" class="st107" width="13.7" height="19.3"/>
	<rect x="648.2" y="513.7" class="st107" width="13.7" height="19.3"/>
	<g class="st102">
		<text transform="matrix(1 0 0 1 652.1634 526.739)" class="st104 st108">A</text>
	</g>
	<g class="st102">
		<text transform="matrix(1 0 0 1 566.0872 526.2717)" class="st104 st108">B</text>
	</g>
	<g class="st102">
		<text transform="matrix(1 0 0 1 573.2806 552.0554)" class="st104 st108">C</text>
	</g>
	<g class="st102">
		<text transform="matrix(1 0 0 1 693.317 571.0164)" class="st104 st108">D.門口的議程軌布告欄</text>
	</g>
	<line class="st101" x1="174.7" y1="251" x2="174.7" y2="228"/>
	<line class="st101" x1="574" y1="257.7" x2="574" y2="234.7"/>
	<path class="st114" d="M90.1,31.6c8.5,1.1,16.2-1.3,24.8,0.3c0,14.8,0,28.8,0,43.6c62.3,0,124.6,0,186.9,0c0-56.8,0-112.9,0-169.8
		c-30.1,0.1,0,3.4,0,0c-154.2,0-307.6,0-461.5-0.2"/>
	<rect x="258.4" y="70.6" class="st116" width="2.3" height="0.1"/>
	
		<rect x="109.6" y="22" transform="matrix(-1 -1.224647e-16 1.224647e-16 -1 226.241 52.9826)" class="st117" width="7" height="9.1"/>
	
		<rect x="44.1" y="22" transform="matrix(-1 -1.224647e-16 1.224647e-16 -1 95.1359 52.9826)" class="st117" width="7" height="9.1"/>
	<line class="st114" x1="49.7" y1="31.6" x2="20.4" y2="31.6"/>
	<polygon class="st118" points="604.8,328.9 604.8,338.4 292.8,338.4 292.8,91.9 172.1,91.9 172.1,82.4 302.1,82.4 302.1,328.9 	"/>
	<rect x="292.5" y="328.9" class="st118" width="0.3" height="9.5"/>
	<g class="st102">
		<path class="st13" d="M237.2,227.1c-2.6,0-4.6,1.7-4.6,1.9c0.4,2.1,2.3,3.6,4.6,3.6c2.3,0,4.1-1.6,4.6-3.6
			C241.8,228.8,239.8,227.1,237.2,227.1z"/>
		<g>
			<g>
				<g>
					<path class="st14" d="M234.6,230.5c1,0,2-0.7,2.1-1.6c-0.3-0.7-1.1-1.2-2.1-1.2c-0.9,0-1.7,0.5-2.1,1.2
						C232.7,229.8,233.6,230.5,234.6,230.5z"/>
				</g>
			</g>
			<path class="st15" d="M235,227.7c0,0,0.2,0.7,0.2,1.1s0,1.5,0,1.5s0.6-0.3,0.8-0.9C236.2,228.7,236,227.8,235,227.7z"/>
			<path class="st14" d="M241.5,228.7c0,0.1,0,0.1,0,0.2c-0.2,0.8-1.5,1.5-1.5,1.5s0-1.1,0-1.5c0-0.4-0.2-1.1-0.2-1.1
				c0.2,0,0.3,0.1,0.5,0.1c-0.2-0.1-0.5-0.1-0.8-0.1c-0.9,0-1.7,0.5-2.1,1.2c0.1,0.9,1,1.6,2,1.6c1,0,2-0.7,2.1-1.6
				C241.7,228.9,241.6,228.8,241.5,228.7z"/>
			<path class="st15" d="M240.1,228.9c0,0.4,0,1.5,0,1.5s1.2-0.7,1.5-1.5c0-0.1,0-0.1,0-0.2c-0.3-0.4-0.7-0.6-1.1-0.8
				c-0.2,0-0.3-0.1-0.5-0.1C239.9,227.8,240.1,228.5,240.1,228.9z"/>
			<path class="st16" d="M242.6,224.2c0-0.1,0-0.1,0-0.2c0-0.1,0-0.1-0.1-0.1l-1.5,0.3c0,0,0,0,0,0c0.3-0.3,0.7-1.6,0.8-1.9
				c0-0.2,0.1-0.4,0-0.4c0-0.1-0.1-0.1-0.1-0.1l-2.2,0.7c0-0.3,0-1.9-0.1-2.2c0-0.1-0.1-0.2-0.1-0.2c0,0,0,0-0.1,0l-2.9,2.4
				c-2.4,0.4-4.3,2.6-4.3,5.2c0,2.9,2.3,5.3,5.1,5.3c2.8,0,5.1-2.4,5.1-5.3c0-0.7-0.1-1.3-0.3-1.9c0-0.1,0.1-0.2,0.2-0.3
				C242.4,225.1,242.5,224.5,242.6,224.2z M241.7,229.1c-0.4,2.1-2.3,3.6-4.6,3.6c-2.3,0-4.2-1.6-4.6-3.6c-0.1-0.3,2-1.9,4.6-1.9
				S241.8,228.8,241.7,229.1z"/>
		</g>
		<g>
			<circle class="st17" cx="235" cy="225.2" r="1.5"/>
			<g>
				<path class="st14" d="M235.7,224.6c0,0.2-0.2,0.4-0.5,0.4c-0.3,0-0.5-0.2-0.5-0.5c0-0.1,0-0.2,0.1-0.3c-0.5,0-0.9,0.5-0.9,1
					c0,0.5,0.4,1,1,1c0.5,0,1-0.4,1-1C235.9,225,235.8,224.8,235.7,224.6z"/>
			</g>
		</g>
		<g>
			<circle class="st17" cx="239.5" cy="225.4" r="1.5"/>
			<g>
				<path class="st14" d="M238.8,224.7c0,0.2,0.2,0.4,0.5,0.4c0.3,0,0.5-0.2,0.5-0.5c0-0.1,0-0.2-0.1-0.3c0.5,0,0.9,0.5,0.9,1
					c0,0.5-0.4,1-1,1c-0.5,0-1-0.4-1-1C238.6,225.1,238.6,224.9,238.8,224.7z"/>
			</g>
		</g>
		<g>
			<path class="st18" d="M241.4,228.1c0-0.2-0.4-0.5-1.1-0.8c-0.6-0.2-1.9-0.8-2.5-1c-0.2-0.1-0.4-0.1-0.6,0
				c-0.6,0.2-1.9,0.6-2.5,0.8c-0.8,0.3-1.1,0.4-1.2,0.7c-0.1,0.2,0,0.4,0.2,0.5c0.2,0.2,1.4,1.3,1.8,1.6c0.4,0.3,1.3,0.9,1.4,1
				c0.1,0.1,0.3,0.2,0.4,0.2l0,0c0,0,0,0,0,0c0.1,0,0.2,0,0.3,0c0,0,0,0,0,0l0,0c0.1,0,0.3-0.1,0.4-0.2c0.2-0.1,1.1-0.8,1.5-1
				c0.4-0.3,1.4-1.1,1.6-1.3C241.3,228.4,241.4,228.3,241.4,228.1z"/>
			<path class="st19" d="M237.4,226.6C237.4,226.6,237.4,226.7,237.4,226.6c0.1,0.1,0.1,0.2,0.1,0.2s0,1,0,1.8
				c0,0.8-0.1,2.1-0.1,2.1s0.3-1.8,0.3-2.2c0-0.3,0.2-1.4,0.1-1.5C237.8,226.9,237.7,226.6,237.4,226.6z"/>
		</g>
	</g>
	<g class="st102">
		<text transform="matrix(1 0 0 1 247.3548 229.8912)" class="st0 st119 st120">報到處</text>
	</g>
	
		<rect x="227.5" y="217.6" transform="matrix(-1 -1.224647e-16 1.224647e-16 -1 501.2345 455.716)" class="st121" width="46.2" height="20.6"/>
	<g class="st102">
		<path class="st13" d="M185.1,227.1c-2.6,0-4.6,1.7-4.6,1.9c0.4,2.1,2.3,3.6,4.6,3.6c2.3,0,4.1-1.6,4.6-3.6
			C189.6,228.8,187.6,227.1,185.1,227.1z"/>
		<g>
			<g>
				<g>
					<path class="st14" d="M182.5,230.4c1,0,2-0.7,2.1-1.6c-0.3-0.7-1.1-1.2-2.1-1.2c-0.9,0-1.7,0.5-2.1,1.2
						C180.6,229.7,181.4,230.4,182.5,230.4z"/>
				</g>
			</g>
			<path class="st15" d="M182.9,227.6c0,0,0.2,0.7,0.2,1.1c0,0.4,0,1.5,0,1.5s0.6-0.3,0.8-0.9S183.9,227.8,182.9,227.6z"/>
			<path class="st14" d="M189.4,228.7c0,0.1,0,0.1,0,0.2c-0.2,0.8-1.5,1.5-1.5,1.5s0-1.1,0-1.5s-0.2-1.1-0.2-1.1
				c0.2,0,0.3,0.1,0.5,0.1c-0.2-0.1-0.5-0.1-0.8-0.1c-0.9,0-1.7,0.5-2.1,1.2c0.1,0.9,1,1.6,2,1.6c1,0,2-0.7,2.1-1.6
				C189.5,228.9,189.5,228.8,189.4,228.7z"/>
			<path class="st15" d="M187.9,228.9c0,0.4,0,1.5,0,1.5s1.2-0.7,1.5-1.5c0-0.1,0-0.1,0-0.2c-0.3-0.4-0.7-0.6-1.1-0.8
				c-0.2,0-0.3-0.1-0.5-0.1C187.7,227.8,187.9,228.5,187.9,228.9z"/>
			<path class="st16" d="M190.4,224.2c0-0.1,0-0.1,0-0.2c0-0.1,0-0.1-0.1-0.1l-1.5,0.3c0,0,0,0,0,0c0.3-0.3,0.7-1.6,0.8-1.9
				c0-0.2,0.1-0.4,0-0.4c0-0.1-0.1-0.1-0.1-0.1l-2.2,0.7c0-0.3,0-1.9-0.1-2.2c0-0.1-0.1-0.2-0.1-0.2c0,0,0,0-0.1,0l-2.9,2.4
				c-2.4,0.4-4.3,2.6-4.3,5.2c0,2.9,2.3,5.3,5.1,5.3c2.8,0,5.1-2.4,5.1-5.3c0-0.7-0.1-1.3-0.3-1.9c0-0.1,0.1-0.2,0.2-0.3
				C190.2,225.1,190.4,224.4,190.4,224.2z M189.6,229c-0.4,2.1-2.3,3.6-4.6,3.6c-2.3,0-4.2-1.6-4.6-3.6c-0.1-0.3,2-1.9,4.6-1.9
				S189.6,228.8,189.6,229z"/>
		</g>
		<g>
			<circle class="st17" cx="182.8" cy="225.2" r="1.5"/>
			<g>
				<path class="st14" d="M183.6,224.6c0,0.2-0.2,0.4-0.5,0.4c-0.3,0-0.5-0.2-0.5-0.5c0-0.1,0-0.2,0.1-0.3c-0.5,0-0.9,0.5-0.9,1
					c0,0.5,0.4,1,1,1c0.5,0,1-0.4,1-1C183.8,225,183.7,224.7,183.6,224.6z"/>
			</g>
		</g>
		<g>
			<circle class="st17" cx="187.4" cy="225.3" r="1.5"/>
			<g>
				<path class="st14" d="M186.6,224.7c0,0.2,0.2,0.4,0.5,0.4c0.3,0,0.5-0.2,0.5-0.5c0-0.1,0-0.2-0.1-0.3c0.5,0,0.9,0.5,0.9,1
					c0,0.5-0.4,1-1,1c-0.5,0-1-0.4-1-1C186.4,225.1,186.5,224.9,186.6,224.7z"/>
			</g>
		</g>
		<g>
			<path class="st18" d="M189.2,228c0-0.2-0.4-0.5-1.1-0.8c-0.6-0.2-1.9-0.8-2.5-1c-0.2-0.1-0.4-0.1-0.6,0c-0.6,0.2-1.9,0.6-2.5,0.8
				c-0.8,0.3-1.1,0.4-1.2,0.7c-0.1,0.2,0,0.4,0.2,0.5c0.2,0.2,1.4,1.3,1.8,1.6s1.3,0.9,1.4,1c0.1,0.1,0.3,0.2,0.4,0.2l0,0
				c0,0,0,0,0,0c0.1,0,0.2,0,0.3,0c0,0,0,0,0,0l0,0c0.1,0,0.3-0.1,0.4-0.2c0.2-0.1,1.1-0.8,1.5-1s1.4-1.1,1.6-1.3
				C189.1,228.4,189.2,228.3,189.2,228z"/>
			<path class="st19" d="M185.3,226.6C185.3,226.6,185.3,226.6,185.3,226.6c0.1,0.1,0.1,0.2,0.1,0.2s0,1,0,1.8
				c0,0.8-0.1,2.1-0.1,2.1s0.3-1.8,0.3-2.2s0.2-1.4,0.1-1.5C185.7,226.8,185.6,226.6,185.3,226.6z"/>
		</g>
	</g>
	<g class="st102">
		<text transform="matrix(1 0 0 1 195.2054 229.8522)" class="st0 st119 st120">報到處</text>
	</g>
	
		<rect x="175.4" y="217.5" transform="matrix(-1 -1.224647e-16 1.224647e-16 -1 396.9355 455.6392)" class="st121" width="46.2" height="20.6"/>
	<g class="st102">
		<path class="st13" d="M185.3,199.2c0,2.6,1.7,4.6,1.9,4.6c2.1-0.4,3.6-2.3,3.6-4.6c0-2.3-1.6-4.1-3.6-4.6
			C187,194.6,185.3,196.7,185.3,199.2z"/>
		<g>
			<g>
				<g>
					<path class="st14" d="M188.7,201.8c0-1-0.7-2-1.6-2.1c-0.7,0.3-1.2,1.1-1.2,2.1c0,0.9,0.5,1.7,1.2,2.1
						C188,203.7,188.7,202.9,188.7,201.8z"/>
				</g>
			</g>
			<path class="st15" d="M185.9,201.4c0,0,0.7-0.2,1.1-0.2c0.4,0,1.5,0,1.5,0s-0.3-0.6-0.9-0.8C187,200.2,186,200.4,185.9,201.4z"/>
			<path class="st14" d="M186.9,194.9c0.1,0,0.1,0,0.2,0c0.8,0.2,1.5,1.5,1.5,1.5s-1.1,0-1.5,0s-1.1,0.2-1.1,0.2
				c0-0.2,0.1-0.3,0.1-0.5c-0.1,0.2-0.1,0.5-0.1,0.8c0,0.9,0.5,1.7,1.2,2.1c0.9-0.1,1.6-1,1.6-2c0-1-0.7-2-1.6-2.1
				C187.2,194.8,187,194.8,186.9,194.9z"/>
			<path class="st15" d="M187.2,196.4c0.4,0,1.5,0,1.5,0s-0.7-1.2-1.5-1.5c-0.1,0-0.1,0-0.2,0c-0.4,0.3-0.6,0.7-0.8,1.1
				c0,0.2-0.1,0.3-0.1,0.5C186,196.6,186.7,196.4,187.2,196.4z"/>
			<path class="st16" d="M182.4,193.9c-0.1,0-0.1,0-0.2,0c-0.1,0-0.1,0-0.1,0.1l0.3,1.5c0,0,0,0,0,0c-0.3-0.3-1.6-0.7-1.9-0.8
				c-0.2,0-0.4-0.1-0.4,0c-0.1,0-0.1,0.1-0.1,0.1l0.7,2.2c-0.3,0-1.9,0-2.2,0.1c-0.1,0-0.2,0.1-0.2,0.1c0,0,0,0,0,0.1l2.4,2.9
				c0.4,2.4,2.6,4.3,5.2,4.3c2.9,0,5.3-2.3,5.3-5.1s-2.4-5.1-5.3-5.1c-0.7,0-1.3,0.1-1.9,0.3c-0.1,0-0.2-0.1-0.3-0.2
				C183.4,194.1,182.7,193.9,182.4,193.9z M187.3,194.7c2.1,0.4,3.6,2.3,3.6,4.6c0,2.3-1.6,4.2-3.6,4.6c-0.3,0.1-1.9-2-1.9-4.6
				S187,194.6,187.3,194.7z"/>
		</g>
		<g>
			<circle class="st17" cx="183.5" cy="201.5" r="1.5"/>
			<g>
				<path class="st14" d="M182.8,200.7c0.2,0,0.4,0.2,0.4,0.5c0,0.3-0.2,0.5-0.5,0.5c-0.1,0-0.2,0-0.3-0.1c0,0.5,0.5,0.9,1,0.9
					c0.5,0,1-0.4,1-1s-0.4-1-1-1C183.2,200.5,183,200.6,182.8,200.7z"/>
			</g>
		</g>
		<g>
			<circle class="st17" cx="183.6" cy="196.9" r="1.5"/>
			<g>
				<path class="st14" d="M183,197.7c0.2,0,0.4-0.2,0.4-0.5c0-0.3-0.2-0.5-0.5-0.5c-0.1,0-0.2,0-0.3,0.1c0-0.5,0.5-0.9,1-0.9
					c0.5,0,1,0.4,1,1s-0.4,1-1,1C183.4,197.9,183.2,197.8,183,197.7z"/>
			</g>
		</g>
		<g>
			<path class="st18" d="M186.3,195.1c-0.2,0-0.5,0.4-0.8,1.1c-0.2,0.6-0.8,1.9-1,2.5c-0.1,0.2-0.1,0.4,0,0.6
				c0.2,0.6,0.6,1.9,0.8,2.5c0.3,0.8,0.4,1.1,0.7,1.2c0.2,0.1,0.4,0,0.5-0.2c0.2-0.2,1.3-1.4,1.6-1.8c0.3-0.4,0.9-1.3,1-1.4
				c0.1-0.1,0.2-0.3,0.2-0.4l0,0c0,0,0,0,0,0c0-0.1,0-0.2,0-0.3c0,0,0,0,0,0l0,0c0-0.1-0.1-0.3-0.2-0.4c-0.1-0.2-0.8-1.1-1-1.5
				c-0.3-0.4-1.1-1.4-1.3-1.6C186.7,195.2,186.5,195.1,186.3,195.1z"/>
			<path class="st19" d="M184.9,199C184.9,199,184.9,199,184.9,199c0.1-0.1,0.2-0.1,0.2-0.1s1,0,1.8,0c0.8,0,2.1,0.1,2.1,0.1
				s-1.8-0.3-2.2-0.3c-0.3,0-1.4-0.2-1.5-0.1S184.8,198.7,184.9,199z"/>
		</g>
	</g>
	<g class="st102">
		<text transform="matrix(0 -1 1 0 188.1247 189.0906)" class="st0 st119 st120">報到處</text>
	</g>
	
		<rect x="164.3" y="176.9" transform="matrix(-1.836970e-16 1 -1 -1.836970e-16 373.2774 1.093)" class="st121" width="43.5" height="20.6"/>
	<g class="st102">
		<path class="st13" d="M185.3,147.3c0,2.6,1.7,4.6,1.9,4.6c2.1-0.4,3.6-2.3,3.6-4.6c0-2.3-1.6-4.1-3.6-4.6
			C187,142.7,185.3,144.7,185.3,147.3z"/>
		<g>
			<g>
				<g>
					<path class="st14" d="M188.7,149.9c0-1-0.7-2-1.6-2.1c-0.7,0.3-1.2,1.1-1.2,2.1c0,0.9,0.5,1.7,1.2,2.1
						C188,151.8,188.7,150.9,188.7,149.9z"/>
				</g>
			</g>
			<path class="st15" d="M185.9,149.5c0,0,0.7-0.2,1.1-0.2c0.4,0,1.5,0,1.5,0s-0.3-0.6-0.9-0.8S186,148.5,185.9,149.5z"/>
			<path class="st14" d="M186.9,143c0.1,0,0.1,0,0.2,0c0.8,0.2,1.5,1.5,1.5,1.5s-1.1,0-1.5,0s-1.1,0.2-1.1,0.2
				c0-0.2,0.1-0.3,0.1-0.5c-0.1,0.2-0.1,0.5-0.1,0.8c0,0.9,0.5,1.7,1.2,2.1c0.9-0.1,1.6-1,1.6-2c0-1-0.7-2-1.6-2.1
				C187.2,142.8,187,142.9,186.9,143z"/>
			<path class="st15" d="M187.2,144.4c0.4,0,1.5,0,1.5,0s-0.7-1.2-1.5-1.5c-0.1,0-0.1,0-0.2,0c-0.4,0.3-0.6,0.7-0.8,1.1
				c0,0.2-0.1,0.3-0.1,0.5C186,144.6,186.7,144.4,187.2,144.4z"/>
			<path class="st16" d="M182.4,141.9c-0.1,0-0.1,0-0.2,0c-0.1,0-0.1,0-0.1,0.1l0.3,1.5c0,0,0,0,0,0c-0.3-0.3-1.6-0.7-1.9-0.8
				c-0.2,0-0.4-0.1-0.4,0c-0.1,0-0.1,0.1-0.1,0.1l0.7,2.2c-0.3,0-1.9,0-2.2,0.1c-0.1,0-0.2,0.1-0.2,0.1c0,0,0,0,0,0.1l2.4,2.9
				c0.4,2.4,2.6,4.3,5.2,4.3c2.9,0,5.3-2.3,5.3-5.1s-2.4-5.1-5.3-5.1c-0.7,0-1.3,0.1-1.9,0.3c-0.1,0-0.2-0.1-0.3-0.2
				C183.4,142.1,182.7,142,182.4,141.9z M187.3,142.8c2.1,0.4,3.6,2.3,3.6,4.6c0,2.3-1.6,4.2-3.6,4.6c-0.3,0.1-1.9-2-1.9-4.6
				C185.3,144.7,187,142.7,187.3,142.8z"/>
		</g>
		<g>
			<circle class="st17" cx="183.5" cy="149.5" r="1.5"/>
			<g>
				<path class="st14" d="M182.8,148.8c0.2,0,0.4,0.2,0.4,0.5c0,0.3-0.2,0.5-0.5,0.5c-0.1,0-0.2,0-0.3-0.1c0,0.5,0.5,0.9,1,0.9
					c0.5,0,1-0.4,1-1s-0.4-1-1-1C183.2,148.6,183,148.7,182.8,148.8z"/>
			</g>
		</g>
		<g>
			<circle class="st17" cx="183.6" cy="145" r="1.5"/>
			<g>
				<path class="st14" d="M183,145.7c0.2,0,0.4-0.2,0.4-0.5c0-0.3-0.2-0.5-0.5-0.5c-0.1,0-0.2,0-0.3,0.1c0-0.5,0.5-0.9,1-0.9
					c0.5,0,1,0.4,1,1c0,0.5-0.4,1-1,1C183.4,146,183.2,145.9,183,145.7z"/>
			</g>
		</g>
		<g>
			<path class="st18" d="M186.3,143.2c-0.2,0-0.5,0.4-0.8,1.1c-0.2,0.6-0.8,1.9-1,2.5c-0.1,0.2-0.1,0.4,0,0.6
				c0.2,0.6,0.6,1.9,0.8,2.5c0.3,0.8,0.4,1.1,0.7,1.2c0.2,0.1,0.4,0,0.5-0.2c0.2-0.2,1.3-1.4,1.6-1.8s0.9-1.3,1-1.4
				c0.1-0.1,0.2-0.3,0.2-0.4l0,0c0,0,0,0,0,0c0-0.1,0-0.2,0-0.3c0,0,0,0,0,0l0,0c0-0.1-0.1-0.3-0.2-0.4c-0.1-0.2-0.8-1.1-1-1.5
				s-1.1-1.4-1.3-1.6C186.7,143.2,186.5,143.1,186.3,143.2z"/>
			<path class="st19" d="M184.9,147.1C184.9,147.1,184.9,147.1,184.9,147.1c0.1-0.1,0.2-0.1,0.2-0.1s1,0,1.8,0
				c0.8,0,2.1,0.1,2.1,0.1s-1.8-0.3-2.2-0.3c-0.3,0-1.4-0.2-1.5-0.1C185.1,146.7,184.8,146.8,184.9,147.1z"/>
		</g>
	</g>
	<g class="st102">
		<text transform="matrix(0 -1 1 0 188.1247 137.1599)" class="st0 st119 st120">報到處</text>
	</g>
	
		<rect x="164.3" y="128" transform="matrix(-1.836970e-16 1 -1 -1.836970e-16 324.3974 -47.787)" class="st121" width="43.5" height="20.6"/>
</g>
</svg>
